####
#
# OBJ File Generated by Meshlab
#
####
# Object l_elbow_rx_chull.obj
#
# Vertices: 27
# Faces: 50
#
####
vn -0.048672 0.609250 5.946118
v 0.000160 0.127881 0.045848
vn -2.593636 -3.248240 0.113791
v -0.062007 -0.028084 0.008965
vn 2.670853 2.080188 -1.309939
v 0.054668 0.181854 -0.021161
vn -2.725077 2.572732 -2.396864
v -0.037886 0.182613 -0.026575
vn -0.303108 -0.155040 6.230207
v 0.000160 0.065552 0.045848
vn -2.922801 -0.827931 3.563090
v -0.062007 -0.000923 0.036126
vn -2.738858 -2.772251 -2.408412
v -0.062007 -0.020150 -0.010263
vn -2.482659 -2.286694 2.247899
v -0.062007 -0.020150 0.028192
vn -2.015449 3.153139 2.195485
v -0.028932 0.188080 0.026111
vn -0.035787 2.870876 -2.984524
v 0.000160 0.188137 -0.038997
vn -2.971345 3.753680 0.186312
v -0.038353 0.188137 -0.000542
vn 1.890729 3.323468 2.333683
v 0.027352 0.188137 0.026763
vn -0.003034 2.863761 2.990220
v 0.000160 0.188137 0.038056
vn 1.260539 5.844621 -0.608895
v 0.037772 0.188052 -0.015799
vn 4.071915 0.756402 2.760877
v 0.066044 0.103697 0.027683
vn 3.838983 0.244069 -2.947762
v 0.066450 0.089125 -0.029979
vn 2.578337 -3.040503 0.561112
v 0.066294 -0.034218 0.008966
vn 2.000502 -2.402879 -1.306630
v 0.066370 -0.033478 -0.019354
vn -3.785200 0.451931 -2.769352
v -0.066961 0.090498 -0.029276
vn -0.009166 0.516079 -5.894982
v 0.000160 0.127952 -0.046860
vn -0.105357 -0.521905 -5.963319
v 0.000160 0.065481 -0.046860
vn -3.901548 0.667594 2.733825
v -0.066961 0.090426 0.029122
vn -3.259916 -1.045251 -2.791899
v -0.067004 0.007752 -0.023097
vn -6.189981 -0.224603 0.695033
v -0.066953 0.029544 0.020006
vn 2.357058 -1.342562 -3.125331
v 0.065440 -0.024053 -0.026702
vn 2.230377 -2.036045 2.021460
v 0.066367 -0.024446 0.032488
vn 2.669057 -0.620179 2.991280
v 0.066339 -0.001970 0.042033
# 27 vertices, 0 vertices normals

f 27//27 13//13 1//1
f 15//15 12//12 13//13
f 27//27 15//15 13//13
f 22//22 9//9 11//11
f 22//22 6//6 1//1
f 22//22 1//1 13//13
f 13//13 9//9 22//22
f 2//2 8//8 23//23
f 16//16 25//25 21//21
f 20//20 16//16 21//21
f 20//20 4//4 10//10
f 11//11 10//10 4//4
f 6//6 5//5 1//1
f 5//5 27//27 1//1
f 24//24 8//8 6//6
f 23//23 8//8 24//24
f 2//2 18//18 17//17
f 17//17 8//8 2//2
f 7//7 2//2 23//23
f 7//7 18//18 2//2
f 14//14 3//3 10//10
f 20//20 3//3 16//16
f 3//3 20//20 10//10
f 14//14 12//12 3//3
f 12//12 15//15 3//3
f 16//16 3//3 15//15
f 19//19 4//4 20//20
f 19//19 22//22 11//11
f 4//4 19//19 11//11
f 27//27 5//5 6//6
f 8//8 27//27 6//6
f 6//6 22//22 24//24
f 25//25 18//18 7//7
f 25//25 7//7 23//23
f 25//25 23//23 21//21
f 26//26 27//27 8//8
f 17//17 26//26 8//8
f 9//9 10//10 11//11
f 13//13 12//12 9//9
f 9//9 12//12 14//14
f 10//10 9//9 14//14
f 18//18 16//16 15//15
f 25//25 16//16 18//18
f 18//18 15//15 27//27
f 27//27 26//26 18//18
f 18//18 26//26 17//17
f 19//19 20//20 21//21
f 19//19 21//21 23//23
f 22//22 19//19 24//24
f 24//24 19//19 23//23
# 50 faces, 0 coords texture

# End of File