####
#
# OBJ File Generated by Meshlab
#
####
# Object l_foot_chull.obj
#
# Vertices: 27
# Faces: 50
#
####
vn 0.000000 0.000000 0.000000
v 0.103383 0.053909 -0.031842
vn -1.457615 0.310877 -5.871414
v 0.116532 -0.024029 -0.028508
vn 3.370132 -1.428113 -2.784147
v -0.079481 0.042587 -0.033965
vn 5.070248 2.239804 -0.507398
v -0.083928 -0.043234 -0.055496
vn 5.074339 -2.236675 -0.505100
v -0.083928 0.042587 -0.055496
vn 3.365449 1.435526 -2.779539
v -0.079481 -0.043234 -0.033965
vn -1.070048 -2.974358 -2.680466
v 0.116827 0.064725 -0.033965
vn 1.420979 -4.117747 -2.171342
v -0.055418 0.064726 -0.033980
vn 1.065220 -2.723756 2.352292
v -0.059466 0.064725 -0.080970
vn -0.561365 -3.037760 2.776276
v 0.116827 0.064725 -0.080970
vn -2.524103 -1.245621 2.220339
v 0.179399 0.032984 -0.080970
vn -3.536466 1.692405 -1.918801
v 0.179399 -0.033631 -0.060955
vn 2.624814 -1.164666 2.306365
v -0.083928 0.042587 -0.080970
vn 2.624814 1.164666 2.306365
v -0.083928 -0.043234 -0.080970
vn 1.058572 -1.730239 -5.344995
v -0.055044 0.054815 -0.027484
vn -1.079817 3.046236 -2.680570
v 0.116827 -0.065372 -0.033965
vn 1.065633 2.723238 2.349923
v -0.059466 -0.065372 -0.080970
vn -0.555472 3.040100 2.780149
v 0.116827 -0.065372 -0.080970
vn 1.422776 4.093250 -2.192518
v -0.055242 -0.065372 -0.033973
vn -1.364158 -0.309520 -5.928676
v 0.114350 0.018377 -0.028507
vn -3.536243 -1.679809 -1.963216
v 0.179337 0.033046 -0.060883
vn -2.383342 1.345507 2.104475
v 0.179379 -0.034184 -0.080970
vn -1.514269 -2.687667 2.599460
v 0.158952 0.048613 -0.080959
vn -0.014087 1.852993 -5.670585
v -0.019739 -0.056578 -0.027496
vn 1.107321 1.650866 -5.415524
v -0.055182 -0.054809 -0.027482
vn -1.282186 2.860672 3.028400
v 0.141694 -0.055971 -0.080970
vn -2.983995 5.437215 -0.313544
v 0.152115 -0.051295 -0.066583
# 27 vertices, 0 vertices normals

f 17//17 14//14 4//4
f 17//17 4//4 19//19
f 9//9 8//8 5//5
f 3//3 5//5 8//8
f 15//15 3//3 8//8
f 13//13 9//9 5//5
f 7//7 1//1 20//20
f 1//1 7//7 20//20
f 6//6 25//25 19//19
f 19//19 4//4 6//6
f 27//27 16//16 12//12
f 7//7 23//23 21//21
f 20//20 7//7 21//21
f 12//12 16//16 2//2
f 24//24 2//2 16//16
f 3//3 4//4 5//5
f 6//6 4//4 3//3
f 7//7 9//9 10//10
f 7//7 8//8 9//9
f 7//7 15//15 8//8
f 15//15 7//7 20//20
f 11//11 12//12 21//21
f 22//22 12//12 11//11
f 5//5 4//4 13//13
f 13//13 4//4 14//14
f 3//3 25//25 6//6
f 25//25 3//3 15//15
f 16//16 18//18 17//17
f 16//16 17//17 19//19
f 23//23 11//11 21//21
f 21//21 12//12 2//2
f 2//2 20//20 21//21
f 22//22 27//27 12//12
f 23//23 7//7 10//10
f 24//24 15//15 20//20
f 24//24 20//20 2//2
f 24//24 25//25 15//15
f 24//24 16//16 19//19
f 24//24 19//19 25//25
f 26//26 17//17 18//18
f 22//22 11//11 26//26
f 14//14 17//17 26//26
f 10//10 9//9 26//26
f 26//26 9//9 13//13
f 26//26 13//13 14//14
f 11//11 23//23 26//26
f 26//26 23//23 10//10
f 18//18 16//16 26//26
f 16//16 27//27 26//26
f 27//27 22//22 26//26
# 50 faces, 0 coords texture

# End of File