####
#
# OBJ File Generated by Meshlab
#
####
# Object l_uglut_chull.obj
#
# Vertices: 21
# Faces: 38
#
####
vn 3.468988 5.088726 0.868558
v 0.015387 0.004476 0.048929
vn 0.110037 0.505031 -6.261350
v 0.015387 -0.003712 -0.046495
vn 1.823237 2.784420 -2.716563
v 0.015387 0.012765 -0.045080
vn -1.806094 2.802174 -2.736132
v -0.013220 0.012765 -0.045080
vn -3.450511 5.122377 0.834503
v -0.013220 0.004476 0.048929
vn -0.004084 4.215322 1.951139
v 0.001033 0.012765 0.049637
vn -0.004160 2.899681 -1.853928
v 0.001033 0.020953 -0.044372
vn -0.107241 0.505686 -6.261392
v -0.013220 -0.003712 -0.046495
vn -0.000001 -0.813372 -6.070193
v 0.001033 -0.011900 -0.047304
vn 1.893044 -1.374585 -2.084927
v 0.023575 -0.012709 -0.047001
vn 1.821750 -1.690563 1.778271
v 0.023575 -0.021806 0.057319
vn 2.288904 1.153133 2.322114
v 0.023575 -0.003409 0.058937
vn 2.666110 1.391077 -2.170676
v 0.023575 0.005689 -0.045484
vn -1.821746 -1.690560 1.778272
v -0.021712 -0.021806 0.057319
vn 2.217425 -5.078167 0.066963
v 0.013365 -0.030904 0.003037
vn -2.217425 -5.078166 0.066963
v -0.011502 -0.030904 0.003037
vn -2.281221 1.160322 2.310402
v -0.021712 -0.003409 0.058937
vn -2.641562 1.407620 -2.151246
v -0.021712 0.005689 -0.045484
vn -1.892404 -1.373907 -2.084884
v -0.021712 -0.012709 -0.047001
vn 2.226290 -4.867924 -0.894845
v 0.013365 -0.030601 -0.001512
vn -2.226290 -4.867924 -0.894845
v -0.011502 -0.030601 -0.001512
# 21 vertices, 0 vertices normals

f 6//6 17//17 12//12
f 3//3 12//12 13//13
f 5//5 17//17 6//6
f 8//8 19//19 18//18
f 8//8 9//9 19//19
f 9//9 10//10 19//19
f 14//14 21//21 16//16
f 19//19 21//21 14//14
f 1//1 6//6 12//12
f 12//12 3//3 1//1
f 1//1 3//3 6//6
f 6//6 3//3 7//7
f 7//7 3//3 9//9
f 20//20 10//10 11//11
f 20//20 11//11 15//15
f 3//3 2//2 9//9
f 2//2 10//10 9//9
f 13//13 10//10 2//2
f 2//2 3//3 13//13
f 4//4 5//5 6//6
f 6//6 7//7 4//4
f 18//18 17//17 4//4
f 17//17 5//5 4//4
f 4//4 8//8 18//18
f 4//4 9//9 8//8
f 4//4 7//7 9//9
f 10//10 12//12 11//11
f 10//10 13//13 12//12
f 15//15 11//11 14//14
f 16//16 15//15 14//14
f 14//14 11//11 12//12
f 14//14 12//12 17//17
f 14//14 17//17 18//18
f 14//14 18//18 19//19
f 20//20 15//15 16//16
f 20//20 16//16 21//21
f 20//20 21//21 19//19
f 20//20 19//19 10//10
# 38 faces, 0 coords texture

# End of File