####
#
# OBJ File Generated by Meshlab
#
####
# Object l_uleg_chull.obj
#
# Vertices: 27
# Faces: 50
#
####
vn -2.969568 4.117827 -0.922773
v -0.088887 0.108068 -0.213690
vn -4.690624 -2.454057 -0.142495
v -0.111443 -0.049087 -0.183965
vn 1.470547 3.993724 -2.449585
v 0.015597 0.086434 -0.345035
vn -2.109836 -5.338560 -0.675983
v -0.074249 -0.074913 -0.224965
vn 0.120514 -5.207161 1.164428
v -0.023039 -0.092735 -0.084244
vn 2.584528 -2.064654 3.350894
v 0.017739 -0.027706 0.011070
vn -0.786920 -2.131613 4.061623
v -0.010631 -0.026911 0.018831
vn -2.938591 -3.602341 1.524799
v -0.083421 -0.074264 -0.078557
vn 3.771538 3.948484 -0.545651
v 0.055229 0.098518 -0.198733
vn 0.884134 5.844497 0.007912
v -0.007412 0.126334 -0.131128
vn -2.494267 4.615829 0.816540
v -0.067294 0.120987 -0.093052
vn 4.170636 3.728709 0.793188
v 0.055039 0.095113 -0.102955
vn 1.133221 -5.760649 -1.308475
v 0.002914 -0.060110 -0.326836
vn 3.568000 -3.701039 0.655534
v 0.055523 -0.066877 -0.108999
vn 3.102206 -3.784859 -2.325779
v 0.025017 -0.046407 -0.346368
vn 3.380355 0.166736 -2.432295
v 0.062936 0.020712 -0.359037
vn -3.679292 -2.703425 -1.717554
v -0.074856 -0.040645 -0.373762
vn 5.705159 -0.275605 -0.523738
v 0.083135 0.017334 -0.208255
vn 5.701003 0.971655 1.254136
v 0.078794 0.035978 -0.106695
vn 5.643183 -1.035257 1.285491
v 0.078845 -0.004468 -0.106625
vn 1.648860 2.011882 2.582312
v 0.013272 0.096699 0.019657
vn -0.553775 -2.086143 -3.021453
v -0.052858 -0.040283 -0.400870
vn -1.450206 1.182447 -2.614899
v -0.068378 0.038621 -0.404742
vn -5.588943 1.497460 -0.048267
v -0.113939 0.066829 -0.177058
vn -1.576606 1.757613 2.686055
v -0.046782 0.095248 0.021723
vn -5.173977 -1.198092 2.273772
v -0.098940 -0.035651 -0.076351
vn -5.466454 1.396584 1.629561
v -0.099398 0.063443 -0.077892
# 27 vertices, 0 vertices normals

f 5//5 6//6 7//7
f 19//19 12//12 21//21
f 11//11 10//10 1//1
f 4//4 17//17 22//22
f 4//4 2//2 17//17
f 24//24 1//1 23//23
f 1//1 24//24 11//11
f 24//24 27//27 11//11
f 9//9 19//19 18//18
f 23//23 3//3 16//16
f 3//3 9//9 16//16
f 5//5 8//8 2//2
f 25//25 21//21 11//11
f 11//11 27//27 25//25
f 14//14 18//18 20//20
f 20//20 6//6 14//14
f 14//14 6//6 5//5
f 9//9 3//3 10//10
f 19//19 9//9 12//12
f 10//10 3//3 1//1
f 23//23 1//1 3//3
f 2//2 4//4 5//5
f 2//2 8//8 26//26
f 8//8 5//5 7//7
f 13//13 5//5 4//4
f 4//4 22//22 13//13
f 15//15 13//13 22//22
f 21//21 6//6 20//20
f 21//21 25//25 7//7
f 21//21 7//7 6//6
f 25//25 26//26 7//7
f 7//7 26//26 8//8
f 13//13 14//14 5//5
f 14//14 13//13 15//15
f 9//9 18//18 16//16
f 18//18 14//14 16//16
f 16//16 15//15 22//22
f 11//11 21//21 10//10
f 21//21 12//12 10//10
f 12//12 9//9 10//10
f 16//16 14//14 15//15
f 22//22 23//23 16//16
f 17//17 24//24 23//23
f 24//24 17//17 2//2
f 18//18 19//19 20//20
f 20//20 19//19 21//21
f 22//22 17//17 23//23
f 24//24 2//2 26//26
f 27//27 24//24 26//26
f 26//26 25//25 27//27
# 50 faces, 0 coords texture

# End of File