####
#
# OBJ File Generated by Meshlab
#
####
# Object mtorso_chull.obj
#
# Vertices: 12
# Faces: 20
#
####
vn 2.094342 0.002590 2.720656
v -0.016845 -0.001749 -0.014352
vn -2.095061 2.357525 1.359089
v 0.020016 -0.017819 -0.005053
vn -2.094342 0.002590 2.720656
v 0.020016 -0.001749 -0.014352
vn 2.095061 2.357526 1.359089
v -0.016845 -0.017819 -0.005053
vn -2.093783 -2.354936 1.361567
v 0.020016 0.014338 -0.005084
vn 2.093783 -2.354936 1.361567
v -0.016845 0.014338 -0.005084
vn 2.095042 -2.357499 -1.359105
v -0.016845 0.014356 0.052477
vn -2.095041 -2.357499 -1.359105
v 0.020016 0.014356 0.052477
vn -2.094435 -0.002663 -2.720729
v 0.020016 -0.001713 0.061775
vn -2.093709 2.354836 -1.361625
v 0.020016 -0.017801 0.052508
vn 2.094435 -0.002663 -2.720729
v -0.016845 -0.001713 0.061775
vn 2.093709 2.354835 -1.361624
v -0.016845 -0.017801 0.052508
# 12 vertices, 0 vertices normals

f 1//1 2//2 3//3
f 2//2 1//1 4//4
f 5//5 1//1 3//3
f 1//1 5//5 6//6
f 7//7 5//5 8//8
f 5//5 7//7 6//6
f 9//9 3//3 2//2
f 10//10 9//9 2//2
f 5//5 9//9 8//8
f 9//9 5//5 3//3
f 9//9 11//11 7//7
f 9//9 7//7 8//8
f 4//4 1//1 12//12
f 12//12 1//1 6//6
f 12//12 7//7 11//11
f 12//12 6//6 7//7
f 12//12 10//10 2//2
f 12//12 2//2 4//4
f 12//12 9//9 10//10
f 11//11 9//9 12//12
# 20 faces, 0 coords texture

# End of File