####
#
# OBJ File Generated by Meshlab
#
####
# Object r_foot_chull.obj
#
# Vertices: 27
# Faces: 50
#
####
vn 1.410754 -0.314575 5.904320
v 0.116099 -0.020124 -0.028886
vn 1.455365 0.322086 5.872963
v 0.117257 0.024827 -0.028889
vn -3.370133 -1.428113 2.784148
v -0.078756 -0.041789 -0.034346
vn -5.070248 2.239804 0.507399
v -0.083203 0.044032 -0.055877
vn -5.074339 -2.236675 0.505100
v -0.083203 -0.041789 -0.055877
vn -3.365449 1.435526 2.779540
v -0.078756 0.044032 -0.034346
vn 1.081094 -3.010848 2.679043
v 0.117552 -0.063927 -0.034346
vn -1.420979 -4.117746 2.171342
v -0.054692 -0.063928 -0.034361
vn -1.065221 -2.723756 -2.352292
v -0.058741 -0.063927 -0.081351
vn 0.561365 -3.037760 -2.776276
v 0.117552 -0.063927 -0.081351
vn 2.524102 -1.245622 -2.220338
v 0.180124 -0.032186 -0.081351
vn 3.536466 1.692405 1.918802
v 0.180124 0.034429 -0.061336
vn -2.624814 -1.164666 -2.306365
v -0.083203 -0.041789 -0.081351
vn -2.624814 1.164666 -2.306365
v -0.083203 0.044032 -0.081351
vn -1.073386 -1.734240 5.345135
v -0.054319 -0.054017 -0.027865
vn 1.079817 3.046234 2.680570
v 0.117552 0.066170 -0.034346
vn -1.065632 2.723238 -2.349923
v -0.058741 0.066170 -0.081351
vn 0.555472 3.040100 -2.780149
v 0.117552 0.066170 -0.081351
vn -1.422776 4.093249 2.192518
v -0.054517 0.066170 -0.034354
vn 0.018352 -1.764613 5.735291
v -0.019014 -0.054121 -0.027877
vn 3.544371 -1.680838 1.959247
v 0.180062 -0.032248 -0.061264
vn 2.383342 1.345507 -2.104475
v 0.180104 0.034982 -0.081351
vn 1.514269 -2.687668 -2.599461
v 0.159677 -0.047815 -0.081340
vn 0.013262 1.855745 5.670593
v -0.019014 0.057376 -0.027877
vn -1.107321 1.650866 5.415524
v -0.054457 0.055607 -0.027863
vn 1.282186 2.860672 -3.028400
v 0.142419 0.056769 -0.081351
vn 2.983995 5.437215 0.313547
v 0.152840 0.052093 -0.066964
# 27 vertices, 0 vertices normals

f 17//17 14//14 4//4
f 17//17 4//4 19//19
f 9//9 8//8 5//5
f 3//3 5//5 8//8
f 15//15 3//3 8//8
f 13//13 9//9 5//5
f 7//7 1//1 20//20
f 6//6 25//25 19//19
f 19//19 4//4 6//6
f 27//27 16//16 12//12
f 7//7 23//23 21//21
f 1//1 7//7 21//21
f 12//12 16//16 2//2
f 24//24 2//2 16//16
f 3//3 4//4 5//5
f 6//6 4//4 3//3
f 7//7 9//9 10//10
f 7//7 8//8 9//9
f 7//7 15//15 8//8
f 15//15 7//7 20//20
f 11//11 12//12 21//21
f 22//22 12//12 11//11
f 5//5 4//4 13//13
f 13//13 4//4 14//14
f 3//3 25//25 6//6
f 25//25 3//3 15//15
f 16//16 18//18 17//17
f 16//16 17//17 19//19
f 23//23 11//11 21//21
f 1//1 2//2 20//20
f 21//21 12//12 2//2
f 2//2 1//1 21//21
f 22//22 27//27 12//12
f 23//23 7//7 10//10
f 24//24 15//15 20//20
f 24//24 20//20 2//2
f 24//24 25//25 15//15
f 24//24 16//16 19//19
f 24//24 19//19 25//25
f 26//26 17//17 18//18
f 22//22 11//11 26//26
f 14//14 17//17 26//26
f 10//10 9//9 26//26
f 26//26 9//9 13//13
f 26//26 13//13 14//14
f 11//11 23//23 26//26
f 26//26 23//23 10//10
f 18//18 16//16 26//26
f 16//16 27//27 26//26
f 27//27 22//22 26//26
# 50 faces, 0 coords texture

# End of File