####
#
# OBJ File Generated by Meshlab
#
####
# Object r_uglut_chull.obj
#
# Vertices: 21
# Faces: 38
#
####
vn -3.468988 5.088725 -0.868558
v 0.014648 -0.009003 0.044269
vn -0.110037 0.505030 6.261350
v 0.014648 -0.000815 -0.051155
vn -1.823237 2.784419 2.716562
v 0.014648 -0.017292 -0.049740
vn 1.806093 2.802174 2.736132
v -0.013959 -0.017292 -0.049740
vn 3.450511 5.122376 -0.834503
v -0.013959 -0.009003 0.044269
vn 0.004084 4.215323 -1.951139
v 0.000294 -0.017292 0.044977
vn 0.004160 2.899681 1.853928
v 0.000294 -0.025480 -0.049032
vn 0.107241 0.505685 6.261392
v -0.013959 -0.000815 -0.051155
vn 0.000001 -0.813371 6.070194
v 0.000294 0.007373 -0.051964
vn -1.893044 -1.374585 2.084927
v 0.022836 0.008182 -0.051661
vn -1.821748 -1.690562 -1.778271
v 0.022836 0.017279 0.052659
vn -2.288904 1.153133 -2.322114
v 0.022836 -0.001118 0.054277
vn -2.666110 1.391076 2.170676
v 0.022836 -0.010216 -0.050144
vn 1.821748 -1.690562 -1.778271
v -0.022451 0.017279 0.052659
vn -2.217425 -5.078166 -0.066963
v 0.012626 0.026377 -0.001623
vn 2.217425 -5.078166 -0.066963
v -0.012241 0.026377 -0.001623
vn 2.281221 1.160321 -2.310401
v -0.022451 -0.001118 0.054277
vn 2.641562 1.407619 2.151246
v -0.022451 -0.010216 -0.050144
vn 1.892404 -1.373907 2.084884
v -0.022451 0.008182 -0.051661
vn -2.226290 -4.867924 0.894845
v 0.012626 0.026074 -0.006172
vn 2.226290 -4.867924 0.894845
v -0.012241 0.026074 -0.006172
# 21 vertices, 0 vertices normals

f 6//6 17//17 12//12
f 3//3 12//12 13//13
f 5//5 17//17 6//6
f 8//8 19//19 18//18
f 8//8 9//9 19//19
f 9//9 10//10 19//19
f 14//14 21//21 16//16
f 19//19 21//21 14//14
f 1//1 6//6 12//12
f 12//12 3//3 1//1
f 1//1 3//3 6//6
f 6//6 3//3 7//7
f 7//7 3//3 9//9
f 20//20 10//10 11//11
f 20//20 11//11 15//15
f 3//3 2//2 9//9
f 2//2 10//10 9//9
f 13//13 10//10 2//2
f 2//2 3//3 13//13
f 4//4 5//5 6//6
f 6//6 7//7 4//4
f 18//18 17//17 4//4
f 17//17 5//5 4//4
f 4//4 8//8 18//18
f 4//4 9//9 8//8
f 4//4 7//7 9//9
f 10//10 12//12 11//11
f 10//10 13//13 12//12
f 15//15 11//11 14//14
f 16//16 15//15 14//14
f 14//14 11//11 12//12
f 14//14 12//12 17//17
f 14//14 17//17 18//18
f 14//14 18//18 19//19
f 20//20 15//15 16//16
f 20//20 16//16 21//21
f 20//20 21//21 19//19
f 20//20 19//19 10//10
# 38 faces, 0 coords texture

# End of File