####
#
# OBJ File Generated by Meshlab
#
####
# Object utorso_chull.obj
#
# Vertices: 27
# Faces: 50
#
####
vn 2.317748 5.367668 1.923733
v -0.002410 -0.202010 0.148679
vn 2.521404 2.644985 -0.779153
v -0.185722 -0.187883 0.574810
vn -2.495466 2.066727 4.131080
v 0.173894 -0.086584 0.039263
vn 2.419993 -5.499028 1.649110
v -0.002410 0.194428 0.148679
vn -0.419113 -4.381582 3.790379
v 0.062190 0.177428 0.084579
vn -2.937342 -2.529490 -1.139094
v 0.251746 0.156459 0.556858
vn -2.319747 -2.177016 4.289470
v 0.173876 0.087144 0.039912
vn -0.746090 4.212542 3.534333
v 0.079173 -0.193953 0.091523
vn -1.683215 -1.642281 -3.545648
v 0.154694 0.070004 0.732060
vn -0.290440 -5.192543 1.063100
v 0.066823 0.232904 0.182359
vn -3.039095 -4.663768 1.903312
v 0.127390 0.194428 0.148679
vn -1.977068 4.870336 -2.210443
v 0.214900 -0.157000 0.572600
vn -3.336119 4.570154 1.767627
v 0.127392 -0.202009 0.148681
vn -0.265027 5.155450 0.979263
v 0.067013 -0.240942 0.180811
vn -3.823133 2.318420 -0.852405
v 0.263135 -0.144013 0.533590
vn 1.504677 -1.823529 -4.768596
v -0.004491 0.073148 0.716740
vn 4.264602 2.263185 1.739913
v -0.121216 -0.106828 0.045935
vn 4.195701 -2.312351 1.700853
v -0.121216 0.106497 0.045935
vn 2.278051 2.196756 3.401028
v -0.110484 -0.106949 0.029663
vn 0.098236 0.031967 5.319857
v -0.002347 -0.001859 -0.018860
vn 2.237406 -2.221940 3.330440
v -0.110605 0.106637 0.029679
vn 2.589948 2.106049 -2.514442
v -0.184219 -0.182795 0.583588
vn 1.265248 2.153464 -4.376528
v -0.010115 -0.091108 0.713641
vn -4.564663 1.717606 2.183429
v 0.215712 -0.076444 0.080441
vn -4.254325 -1.520335 2.362413
v 0.215429 0.073283 0.070292
vn 2.229503 -2.068887 -1.191657
v -0.185758 0.186842 0.575086
vn -1.700049 1.646390 -3.586816
v 0.153584 -0.071183 0.731934
# 27 vertices, 0 vertices normals

f 1//1 14//14 8//8
f 17//17 1//1 19//19
f 19//19 1//1 8//8
f 23//23 27//27 22//22
f 2//2 14//14 1//1
f 2//2 1//1 17//17
f 26//26 18//18 4//4
f 7//7 20//20 3//3
f 21//21 19//19 20//20
f 21//21 5//5 10//10
f 21//21 4//4 18//18
f 21//21 10//10 4//4
f 13//13 8//8 14//14
f 14//14 2//2 12//12
f 12//12 22//22 27//27
f 12//12 2//2 22//22
f 19//19 8//8 3//3
f 19//19 3//3 20//20
f 9//9 26//26 6//6
f 26//26 10//10 6//6
f 26//26 4//4 10//10
f 20//20 7//7 21//21
f 21//21 7//7 5//5
f 23//23 26//26 16//16
f 27//27 15//15 12//12
f 6//6 25//25 15//15
f 11//11 10//10 5//5
f 5//5 7//7 11//11
f 25//25 6//6 11//11
f 25//25 11//11 7//7
f 13//13 24//24 8//8
f 24//24 3//3 8//8
f 15//15 24//24 13//13
f 9//9 16//16 26//26
f 10//10 11//11 6//6
f 14//14 12//12 15//15
f 13//13 14//14 15//15
f 23//23 16//16 27//27
f 27//27 16//16 9//9
f 25//25 3//3 24//24
f 25//25 7//7 3//3
f 26//26 2//2 17//17
f 26//26 17//17 18//18
f 21//21 18//18 17//17
f 17//17 19//19 21//21
f 23//23 22//22 26//26
f 24//24 15//15 25//25
f 15//15 9//9 6//6
f 15//15 27//27 9//9
f 2//2 26//26 22//22
# 50 faces, 0 coords texture

# End of File