####
#
# OBJ File Generated by Meshlab
#
####
# Object l_clav.obj
#
# Vertices: 190
# Faces: 176
#
####
vn 0.000000 0.552880 -0.833261
v -0.077206 0.091817 -0.085883
vn 0.000000 0.738567 -0.674180
v 0.075285 0.104663 -0.074878
vn 0.000000 0.445180 -0.895441
v 0.075285 0.091817 -0.085883
vn 0.000000 0.816551 -0.577274
v -0.077206 0.104663 -0.074878
vn 0.000000 0.932238 -0.361847
v 0.075285 0.112666 -0.059975
vn 0.000000 0.969946 -0.243322
v -0.077206 0.112666 -0.059975
vn 0.000000 1.000000 -0.000620
v 0.075285 0.114745 -0.043188
vn 0.000000 0.992338 0.123550
v -0.077206 0.114745 -0.043188
vn 0.000000 0.932686 0.360689
v 0.075285 0.110618 -0.026783
vn 0.000000 0.880700 0.473675
v -0.077206 0.110618 -0.026783
vn 0.000000 0.696122 0.717924
v 0.075285 0.100845 -0.012978
vn 0.000000 0.696122 0.717924
v -0.077206 0.100845 -0.012978
vn 0.000000 0.446325 0.894871
v -0.077206 0.086744 -0.003634
vn 0.000000 0.331786 0.943355
v 0.075285 0.086744 -0.003634
vn 0.000000 0.030793 0.999526
v -0.077206 0.070221 -0.000015
vn 0.000000 0.030793 0.999526
v 0.075285 0.070221 -0.000015
vn 0.000000 -0.273082 0.961991
v 0.075285 0.053506 -0.002610
vn 0.000000 -0.390400 0.920645
v -0.077206 0.053506 -0.002610
vn 0.000000 -0.650613 0.759409
v 0.075285 0.038858 -0.011068
vn 0.000000 -0.650613 0.759409
v -0.077206 0.038858 -0.011068
vn -0.000001 -0.880992 0.473131
v -0.077206 0.028252 -0.024246
vn 0.000000 -0.880989 0.473137
v 0.075285 0.028252 -0.024246
vn -0.000004 -0.982865 0.184327
v 0.075285 0.023124 -0.040365
vn -0.000004 -0.998146 0.060867
v -0.077206 0.023125 -0.040364
vn -0.000002 -0.983084 -0.183155
v 0.075285 0.024167 -0.057248
vn 0.000000 -0.952759 -0.303727
v -0.077206 0.024167 -0.057248
vn 0.000000 -0.850561 -0.525876
v 0.075285 0.031236 -0.072615
vn 0.000000 -0.778684 -0.627417
v -0.077206 0.031236 -0.072615
vn 0.000000 -0.603136 -0.797638
v 0.075285 0.043380 -0.084390
vn 0.000000 -0.499473 -0.866329
v -0.077206 0.043380 -0.084390
vn 0.000000 -0.274301 -0.961644
v 0.075285 0.058957 -0.090984
vn 0.000000 -0.152788 -0.988259
v -0.077206 0.058957 -0.090984
vn 0.396359 0.084136 -0.914232
v 0.075285 0.075864 -0.091505
vn 0.000000 0.214559 -0.976711
v -0.077206 0.075864 -0.091505
vn 1.000000 0.000000 0.000000
v 0.075285 0.043380 -0.084390
vn 1.000000 0.000000 0.000000
v 0.075285 0.024167 -0.057248
vn 1.000000 0.000000 0.000000
v 0.075285 0.031236 -0.072615
vn 1.000000 0.000000 0.000000
v 0.075285 0.058957 -0.090984
vn 1.000000 0.000000 0.000000
v 0.075285 0.023124 -0.040365
vn 1.000000 0.000000 0.000000
v 0.075285 0.028252 -0.024246
vn 1.000000 0.000000 0.000000
v 0.075285 0.091817 -0.085883
vn 1.000000 0.000000 0.000000
v 0.075285 0.038858 -0.011068
vn 1.000000 0.000000 0.000000
v 0.075285 0.104663 -0.074878
vn 1.000000 0.000000 0.000000
v 0.075285 0.053506 -0.002610
vn 1.000000 0.000000 0.000000
v 0.075285 0.112666 -0.059975
vn 1.000000 0.000000 0.000000
v 0.075285 0.070221 -0.000015
vn 1.000000 0.000000 0.000000
v 0.075285 0.114745 -0.043188
vn 1.000000 0.000000 0.000000
v 0.075285 0.086744 -0.003634
vn 1.000000 0.000000 0.000000
v 0.075285 0.110618 -0.026783
vn 1.000000 0.000000 0.000000
v 0.075285 0.100845 -0.012978
vn -1.000000 0.000000 0.000000
v -0.077206 0.112666 -0.059975
vn -1.000000 0.000000 0.000000
v -0.077206 0.110618 -0.026783
vn -1.000000 0.000000 0.000000
v -0.077206 0.114745 -0.043188
vn -1.000000 0.000000 0.000000
v -0.077206 0.104663 -0.074878
vn -1.000000 0.000000 0.000000
v -0.077206 0.100845 -0.012978
vn -1.000000 0.000000 0.000000
v -0.077206 0.091817 -0.085883
vn -1.000000 0.000000 0.000000
v -0.077206 0.086744 -0.003634
vn -1.000000 0.000000 0.000000
v -0.077206 0.075864 -0.091505
vn -1.000000 0.000000 0.000000
v -0.077206 0.070221 -0.000015
vn -1.000000 0.000000 0.000000
v -0.077206 0.058957 -0.090984
vn -1.000000 0.000000 0.000000
v -0.077206 0.053506 -0.002610
vn -1.000000 0.000000 0.000000
v -0.077206 0.043380 -0.084390
vn -1.000000 0.000000 0.000000
v -0.077206 0.038858 -0.011068
vn -1.000000 0.000000 0.000000
v -0.077206 0.031236 -0.072615
vn -1.000000 0.000000 0.000000
v -0.077206 0.028252 -0.024246
vn -1.000000 0.000000 0.000000
v -0.077206 0.024167 -0.057248
vn -1.000000 0.000000 0.000000
v -0.077206 0.023125 -0.040364
vn -0.001183 0.999999 0.000189
v -0.009326 0.068381 -0.004313
vn 0.036319 0.999305 0.008388
v 0.011284 0.068399 0.026438
vn -0.001174 0.999999 0.000172
v 0.011563 0.068404 0.004491
vn -0.038768 0.999217 -0.007959
v -0.013485 0.068374 0.004752
vn -0.001183 0.999999 0.000188
v 0.007126 0.068392 0.035501
vn -0.083643 0.996481 0.005484
v -0.013764 0.068369 0.026698
vn -0.092565 0.972660 0.212987
v -0.009805 0.068373 0.035664
vn -0.592204 0.001220 0.805787
v -0.010366 0.053893 0.036634
vn -0.980714 0.003055 0.195422
v -0.014639 0.067335 0.026708
vn -0.997521 0.004440 0.070231
v -0.014693 0.053893 0.026704
vn -0.237490 0.046669 0.970268
v -0.010361 0.067340 0.036635
vn -0.995658 0.004699 -0.092970
v -0.014363 0.067340 0.004762
vn -0.976373 0.004433 -0.216045
v -0.014432 0.053894 0.004756
vn -0.578184 0.103692 -0.809291
v -0.009865 0.067349 -0.005271
vn -0.246386 0.000333 -0.969172
v -0.009897 0.053893 -0.005273
vn 0.230546 0.001804 -0.973060
v 0.008170 0.067369 -0.005446
vn 0.592283 0.005846 -0.805709
v 0.008290 0.053893 -0.005437
vn 0.978329 0.070629 -0.194638
v 0.012448 0.067374 0.004482
vn 0.997446 0.013020 -0.070228
v 0.012619 0.053893 0.004493
vn 0.993009 0.072945 0.092806
v 0.012171 0.067369 0.026428
vn 0.976305 0.012950 0.216010
v 0.012356 0.053893 0.026441
vn 0.577818 0.108985 0.808856
v 0.007673 0.067360 0.036460
vn 0.246685 0.003033 0.969091
v 0.007821 0.053893 0.036470
vn -0.746212 0.649641 0.145372
v -0.014639 0.067335 0.026708
vn -0.761119 0.644704 -0.071093
v -0.014363 0.067340 0.004762
vn -0.275849 0.727376 -0.628356
v -0.009326 0.068381 -0.004313
vn 0.090233 0.972964 -0.212603
v 0.007604 0.068400 -0.004476
vn 0.271174 0.734326 -0.622277
v 0.008170 0.067369 -0.005446
vn 0.757067 0.651522 -0.048664
v 0.011563 0.068404 0.004491
vn 0.273783 0.728574 0.627872
v 0.007126 0.068392 0.035501
vn 0.931571 0.000079 -0.363560
v 0.041496 0.028391 -0.040572
vn 1.000000 0.000072 0.000004
v 0.041494 0.053993 -0.006849
vn 1.000000 0.000086 0.000019
v 0.041495 0.038195 -0.006837
vn 1.000000 0.000078 0.000000
v 0.041494 0.053994 -0.040571
vn 0.999902 0.000078 0.014032
v 0.041498 0.001892 -0.006812
vn 1.000000 0.000076 0.000000
v 0.041498 0.002050 -0.040572
vn -0.000072 0.000000 -1.000000
v -0.043000 0.027889 -0.040569
vn -0.000064 0.000006 -1.000000
v -0.015166 0.001809 -0.040571
vn -0.000072 0.000000 -1.000000
v -0.043000 0.001965 -0.040569
vn -0.000084 0.000013 -1.000000
v -0.043000 0.053993 -0.040568
vn -0.000036 0.000038 -1.000000
v -0.043000 0.027889 -0.040569
vn -0.000045 0.000007 -1.000000
v -0.015179 0.053994 -0.040571
vn -0.000012 0.000012 -1.000000
v 0.015107 0.001810 -0.040572
vn -0.000006 0.000019 -1.000000
v 0.015118 0.053994 -0.040571
vn -0.000013 0.000013 -1.000000
v 0.041498 0.002050 -0.040572
vn 0.000000 0.000039 -1.000000
v 0.041494 0.053994 -0.040571
vn -0.999984 0.000005 -0.005624
v -0.043189 0.038438 -0.006977
vn -0.999984 0.000005 -0.005624
v -0.043000 0.053993 -0.040568
vn -0.999984 0.000000 -0.005626
v -0.043000 0.027889 -0.040569
vn -0.999984 0.000012 -0.005621
v -0.043188 0.053993 -0.007121
vn -0.981581 0.110753 0.155669
v -0.043227 0.028373 0.002984
vn -0.999986 -0.000012 -0.005351
v -0.043000 0.001965 -0.040569
vn -0.999482 -0.012348 0.029731
v -0.043190 0.002178 -0.006652
vn -0.999986 -0.000386 -0.005208
v -0.043189 0.038438 -0.006977
vn -0.999984 0.000000 -0.005626
v -0.043000 0.027889 -0.040569
vn -0.934001 -0.010286 0.357123
v -0.041469 0.001809 0.010835
vn -0.909360 0.000000 0.416009
v -0.041469 0.028307 0.010835
vn -0.650146 0.575601 0.495977
v -0.031910 0.028307 0.027722
vn -0.702916 0.000000 0.711273
v -0.031910 0.001809 0.027722
vn -0.598881 0.000000 0.800838
v -0.016437 0.028306 0.039293
vn -0.598881 0.000000 0.800838
v -0.016437 0.001809 0.039293
vn 0.021241 0.000000 0.999774
v -0.016437 0.028306 0.039293
vn 0.239599 0.000000 0.970872
v 0.013686 0.001809 0.038653
vn 0.522166 0.000000 0.852844
v 0.013686 0.028306 0.038653
vn 0.012933 -0.793289 0.608707
v -0.016437 0.001809 0.039293
vn 0.021241 0.000000 0.999774
v -0.016437 0.028306 0.039293
vn 0.683883 0.000000 0.729592
v 0.013686 0.053966 0.038653
vn 0.021241 0.000000 0.999774
v -0.016437 0.053966 0.039293
vn 0.889551 0.000173 0.456836
v 0.013686 0.053966 0.038653
vn 0.542429 0.584688 0.603250
v 0.030454 0.028307 0.027721
vn 0.779818 0.000000 0.626006
v 0.030454 0.001809 0.027721
vn 0.931755 -0.009533 0.362962
v 0.040014 0.028306 0.010834
vn 0.967070 0.000027 0.254509
v 0.040014 0.001809 0.010834
vn 0.999376 -0.006453 0.034725
v 0.041497 0.018259 -0.006823
vn 0.964844 -0.185243 0.186442
v 0.041495 0.028268 0.003132
vn 0.687772 0.713731 0.132505
v 0.014243 0.028306 0.002812
vn -0.000060 1.000000 -0.000001
v 0.013686 0.028306 0.038653
vn 0.000433 0.999999 -0.001392
v 0.040014 0.028306 0.010834
vn -0.005257 0.812341 0.583159
v 0.041495 0.028268 0.003132
vn -0.000000 -0.999978 -0.006571
v -0.031910 0.001809 0.027722
vn 0.045063 -0.998658 -0.025508
v -0.041469 0.001809 0.010835
vn -0.002186 -0.999997 -0.001170
v -0.043190 0.002178 -0.006652
vn 0.000000 -1.000000 0.000000
v 0.030454 0.001809 0.027721
vn 0.000000 -1.000000 0.000000
v 0.013686 0.001809 0.038653
vn -0.002167 -0.999976 -0.006524
v 0.040014 0.001809 0.010834
vn -0.001257 -0.999999 0.000547
v 0.041498 0.001892 -0.006812
vn -0.001187 -0.999991 0.003960
v 0.015107 0.001810 -0.040572
vn 0.009094 -0.999948 -0.004680
v 0.041498 0.002050 -0.040572
vn -0.002667 -0.999959 0.008675
v -0.043000 0.001965 -0.040569
vn 0.000033 -0.006899 0.999976
v -0.015166 0.001809 -0.040571
vn 0.000033 -0.006899 0.999976
v 0.015107 0.001810 -0.040572
vn -0.011421 0.234370 0.972080
v 0.041495 0.038195 -0.006837
vn -0.012690 0.000381 0.999919
v 0.014390 0.053980 -0.007187
vn -0.009620 0.489640 0.871872
v 0.014390 0.038307 -0.007187
vn -0.012470 0.000759 0.999922
v 0.041494 0.053993 -0.006849
vn -0.015988 0.238919 0.970908
v -0.015732 0.038307 -0.006547
vn -0.018250 0.004643 0.999823
v -0.043188 0.053993 -0.007121
vn -0.012795 0.368915 0.929375
v -0.043189 0.038438 -0.006977
vn -0.020865 0.000064 0.999782
v -0.015732 0.053980 -0.006548
vn -0.000059 1.000000 0.000328
v 0.014390 0.053980 -0.007187
vn 0.000006 1.000000 0.000305
v -0.016437 0.053966 0.039293
vn 0.000006 1.000000 0.000306
v 0.013686 0.053966 0.038653
vn 0.000135 1.000000 0.000244
v -0.015732 0.053980 -0.006548
vn -0.000017 1.000000 0.000435
v -0.015179 0.053994 -0.040571
vn 0.000000 1.000000 0.000419
v 0.015118 0.053994 -0.040571
vn 0.000142 1.000000 0.000281
v -0.043000 0.053993 -0.040568
vn -0.000245 1.000000 0.000221
v 0.041494 0.053994 -0.040571
vn -0.000480 1.000000 0.000030
v 0.041494 0.053993 -0.006849
vn 0.000473 1.000000 0.000003
v -0.043188 0.053993 -0.007121
vn 0.000680 0.999997 0.002357
v -0.041469 0.028307 0.010835
vn -0.002243 0.984407 0.175892
v -0.015879 0.028307 0.003451
vn 0.002278 0.999966 0.007896
v -0.043227 0.028373 0.002984
vn 0.000043 1.000000 0.000029
v -0.016437 0.028306 0.039293
vn -0.999881 -0.000202 -0.015422
v -0.016437 0.028306 0.039293
vn -0.999881 -0.000138 -0.015408
v -0.015732 0.038307 -0.006547
vn -0.685189 0.519993 0.510023
v -0.015879 0.028307 0.003451
vn -0.999882 -0.000000 -0.015378
v -0.016437 0.053966 0.039293
vn -0.999882 -0.000001 -0.015377
v -0.015732 0.053980 -0.006548
vn 0.999885 0.000489 0.015189
v 0.014390 0.038307 -0.007187
vn 0.999882 0.000000 0.015356
v 0.014390 0.038307 -0.007187
vn 0.999882 0.000000 0.015356
v 0.014390 0.053980 -0.007187
vn -0.010439 0.703407 0.710711
v -0.043189 0.038438 -0.006977
vn 1.000000 0.000100 0.000100
v 0.041495 0.028268 0.003132
# 190 vertices, 0 vertices normals

f 1//1 2//2 3//3
f 1//1 4//4 2//2
f 4//4 5//5 2//2
f 4//4 6//6 5//5
f 6//6 7//7 5//5
f 6//6 8//8 7//7
f 8//8 9//9 7//7
f 8//8 10//10 9//9
f 10//10 11//11 9//9
f 10//10 12//12 11//11
f 12//12 13//13 11//11
f 11//11 13//13 14//14
f 13//13 15//15 14//14
f 14//14 15//15 16//16
f 15//15 17//17 16//16
f 15//15 18//18 17//17
f 18//18 19//19 17//17
f 18//18 20//20 19//19
f 20//20 21//21 19//19
f 19//19 21//21 22//22
f 21//21 23//23 22//22
f 21//21 24//24 23//23
f 24//24 25//25 23//23
f 24//24 26//26 25//25
f 26//26 27//27 25//25
f 26//26 28//28 27//27
f 28//28 29//29 27//27
f 28//28 30//30 29//29
f 30//30 31//31 29//29
f 30//30 32//32 31//31
f 32//32 33//33 31//31
f 32//32 34//34 33//33
f 34//34 3//3 33//33
f 34//34 1//1 3//3
f 35//35 36//36 37//37
f 38//38 36//36 35//35
f 38//38 39//39 36//36
f 33//33 39//39 38//38
f 33//33 40//40 39//39
f 41//41 40//40 33//33
f 41//41 42//42 40//40
f 43//43 42//42 41//41
f 43//43 44//44 42//42
f 45//45 44//44 43//43
f 45//45 46//46 44//44
f 47//47 46//46 45//45
f 47//47 48//48 46//46
f 49//49 48//48 47//47
f 49//49 50//50 48//48
f 51//51 52//52 53//53
f 54//54 52//52 51//51
f 54//54 55//55 52//52
f 56//56 55//55 54//54
f 56//56 57//57 55//55
f 58//58 57//57 56//56
f 58//58 59//59 57//57
f 60//60 59//59 58//58
f 60//60 61//61 59//59
f 62//62 61//61 60//60
f 62//62 63//63 61//61
f 64//64 63//63 62//62
f 64//64 65//65 63//63
f 66//66 65//65 64//64
f 66//66 67//67 65//65
f 68//68 69//69 70//70
f 71//71 69//69 68//68
f 71//71 72//72 69//69
f 73//73 72//72 71//71
f 73//73 74//74 72//72
f 75//75 76//76 77//77
f 75//75 78//78 76//76
f 77//77 79//79 80//80
f 77//77 76//76 79//79
f 80//80 81//81 82//82
f 80//80 79//79 81//81
f 82//82 83//83 84//84
f 82//82 81//81 83//83
f 84//84 85//85 86//86
f 84//84 83//83 85//85
f 86//86 87//87 88//88
f 86//86 85//85 87//87
f 88//88 89//89 90//90
f 88//88 87//87 89//89
f 90//90 78//78 75//75
f 90//90 89//89 78//78
f 91//91 78//78 74//74
f 74//74 73//73 91//91
f 71//71 92//92 73//73
f 73//73 92//92 91//91
f 81//81 92//92 71//71
f 71//71 93//93 81//81
f 94//94 81//81 93//93
f 94//94 95//95 81//81
f 85//85 95//95 94//94
f 94//94 96//96 85//85
f 69//69 87//87 96//96
f 96//96 87//87 85//85
f 89//89 87//87 69//69
f 69//69 97//97 89//89
f 74//74 89//89 97//97
f 74//74 78//78 89//89
f 68//68 70//70 94//94
f 98//98 99//99 100//100
f 98//98 101//101 99//99
f 98//98 102//102 103//103
f 104//104 105//105 106//106
f 107//107 105//105 108//108
f 109//109 105//105 107//107
f 109//109 110//110 105//105
f 111//111 110//110 109//109
f 111//111 112//112 110//110
f 111//111 98//98 112//112
f 113//113 98//98 111//111
f 114//114 115//115 116//116
f 114//114 117//117 115//115
f 118//118 119//119 120//120
f 121//121 119//119 118//118
f 121//121 122//122 119//119
f 123//123 124//124 118//118
f 120//120 123//123 118//118
f 123//123 125//125 124//124
f 123//123 126//126 125//125
f 126//126 127//127 125//125
f 126//126 128//128 127//127
f 129//129 130//130 131//131
f 129//129 132//132 130//130
f 133//133 134//134 135//135
f 129//129 131//131 136//136
f 130//130 137//137 131//131
f 130//130 138//138 137//137
f 138//138 139//139 137//137
f 138//138 140//140 139//139
f 141//141 142//142 139//139
f 140//140 141//141 139//139
f 140//140 102//102 141//141
f 137//137 143//143 144//144
f 145//145 143//143 137//137
f 145//145 146//146 143//143
f 147//147 148//148 149//149
f 132//132 150//150 151//151
f 147//147 150//150 132//132
f 147//147 152//152 150//150
f 149//149 152//152 147//147
f 149//149 153//153 152//152
f 154//154 153//153 149//149
f 154//154 155//155 153//153
f 154//154 149//149 156//156
f 156//156 157//157 158//158
f 159//159 160//160 161//161
f 159//159 162//162 160//160
f 163//163 164//164 165//165
f 163//163 166//166 164//164
f 167//167 168//168 169//169
f 167//167 170//170 168//168
f 171//171 167//167 172//172
f 173//173 167//167 171//171
f 167//167 174//174 172//172
f 167//167 175//175 174//174
f 167//167 173//173 170//170
f 170//170 173//173 176//176
f 177//177 178//178 179//179
f 125//125 178//178 177//177
f 125//125 180//180 178//178
f 181//181 182//182 183//183
f 184//184 182//182 181//181
f 184//184 185//185 182//182
f 143//143 136//136 131//131
f 186//186 136//136 143//143
f 187//187 188//188 134//134
f 161//161 146//146 159//159
f 161//161 143//143 146//146
f 165//165 183//183 163//163
f 189//189 118//118 178//178
f 100//100 190//190 141//141
f 141//141 98//98 100//100
f 102//102 98//98 141//141
# 176 faces, 0 coords texture

# End of File