####
#
# OBJ File Generated by Meshlab
#
####
# Object l_larm.obj
#
# Vertices: 207
# Faces: 184
#
####
vn -0.000026 -0.751724 -0.659477
v 0.065208 -0.033556 -0.032960
vn -0.000015 -0.896133 -0.443785
v 0.046922 -0.043491 -0.018120
vn -0.000026 -0.658070 -0.752957
v 0.046922 -0.033555 -0.032960
vn 0.000000 -0.946885 -0.321572
v 0.065208 -0.043491 -0.018120
vn 0.000000 -0.997748 -0.067069
v 0.046922 -0.046991 -0.000607
vn 0.755915 -0.653275 0.042715
v 0.065208 -0.046991 -0.000607
vn 0.000000 -0.947461 0.319871
v 0.046922 -0.043523 0.016911
vn 0.000000 -0.896935 0.442163
v 0.065208 -0.043523 0.016911
vn 0.000000 -0.752938 0.658092
v 0.046922 -0.033614 0.031770
vn 0.000000 -0.659457 0.751742
v 0.065208 -0.033614 0.031770
vn 0.000000 -0.443777 0.896137
v 0.046922 -0.018774 0.041705
vn 0.000000 -0.321583 0.946881
v 0.065208 -0.018774 0.041705
vn 0.000000 -0.067069 0.997748
v 0.046922 -0.001262 0.045205
vn 0.000000 0.065244 0.997869
v 0.065208 -0.001262 0.045205
vn 0.000000 0.319860 0.947465
v 0.046922 0.016258 0.041737
vn 0.000000 0.442178 0.896927
v 0.065208 0.016258 0.041737
vn 0.000000 0.658120 0.752913
v 0.046922 0.031115 0.031828
vn 0.000000 0.751742 0.659457
v 0.065208 0.031115 0.031828
vn 0.000000 0.896122 0.443808
v 0.046922 0.041051 0.016988
vn 0.000000 0.946875 0.321600
v 0.065208 0.041051 0.016988
vn 0.000000 0.997750 0.067051
v 0.046922 0.044551 -0.000524
vn 0.755901 0.653289 -0.042740
v 0.065208 0.044551 -0.000524
vn 0.000000 0.947459 -0.319877
v 0.046922 0.041082 -0.018043
vn 0.000000 0.896946 -0.442140
v 0.065208 0.041082 -0.018043
vn 0.000000 0.752948 -0.658080
v 0.046922 0.031174 -0.032902
vn 0.000000 0.659445 -0.751753
v 0.065208 0.031174 -0.032902
vn 0.000000 0.443739 -0.896156
v 0.046922 0.016334 -0.042836
vn 0.000000 0.321555 -0.946891
v 0.065208 0.016334 -0.042836
vn 0.000000 0.067069 -0.997748
v 0.046922 -0.001179 -0.046336
vn 0.000000 -0.065247 -0.997869
v 0.065208 -0.001179 -0.046336
vn 0.000000 -0.319860 -0.947465
v 0.046922 -0.018697 -0.042868
vn -0.000010 -0.442140 -0.896946
v 0.065208 -0.018697 -0.042868
vn -1.000000 0.000000 0.000000
v 0.046922 -0.018697 -0.042868
vn -1.000000 0.000000 0.000000
v 0.046922 0.044551 -0.000524
vn -1.000000 0.000000 0.000000
v 0.046922 -0.001179 -0.046336
vn -1.000000 0.000000 0.000000
v 0.046922 -0.033555 -0.032960
vn -1.000000 0.000000 0.000000
v 0.046922 0.041051 0.016988
vn -1.000000 0.000000 0.000000
v 0.046922 -0.043491 -0.018120
vn -1.000000 0.000000 0.000000
v 0.046922 0.031115 0.031828
vn -1.000000 0.000000 0.000000
v 0.046922 -0.046991 -0.000607
vn -1.000000 0.000000 0.000000
v 0.046922 0.016258 0.041737
vn -1.000000 0.000000 0.000000
v 0.046922 -0.043523 0.016911
vn -1.000000 0.000000 0.000000
v 0.046922 0.016258 0.041737
vn -1.000000 0.000000 0.000000
v 0.046922 -0.046991 -0.000607
vn -1.000000 0.000000 0.000000
v 0.046922 -0.001262 0.045205
vn -1.000000 0.000000 0.000000
v 0.046922 -0.033614 0.031770
vn -1.000000 0.000000 0.000000
v 0.046922 -0.018774 0.041705
vn 1.000000 0.000000 0.000000
v 0.065208 -0.033614 0.031770
vn 1.000000 0.000000 0.000000
v 0.065208 -0.043523 0.016911
vn 1.000000 0.000000 0.000000
v 0.065208 -0.018774 0.041705
vn 1.000000 0.000000 0.000000
v 0.065208 -0.043491 -0.018120
vn 1.000000 0.000000 0.000000
v 0.065208 -0.001262 0.045205
vn 1.000000 0.000000 0.000000
v 0.065208 -0.033556 -0.032960
vn 1.000000 0.000000 0.000000
v 0.065208 0.016258 0.041737
vn 1.000000 0.000000 0.000000
v 0.065208 -0.018697 -0.042868
vn 1.000000 0.000000 0.000000
v 0.065208 0.031115 0.031828
vn 1.000000 0.000000 0.000000
v 0.065208 -0.001179 -0.046336
vn 1.000000 0.000000 0.000000
v 0.065208 0.041051 0.016988
vn 1.000000 0.000000 0.000000
v 0.065208 0.016334 -0.042836
vn 1.000000 0.000000 0.000000
v 0.065208 0.031174 -0.032902
vn 1.000000 0.000000 0.000000
v 0.065208 0.041082 -0.018043
vn 0.000000 -0.751734 -0.659467
v -0.046150 -0.033556 -0.032960
vn 0.000000 -0.896141 -0.443770
v -0.065081 -0.043491 -0.018120
vn 0.000000 -0.658070 -0.752957
v -0.065081 -0.033556 -0.032960
vn 0.000000 -0.946885 -0.321572
v -0.046150 -0.043491 -0.018120
vn 0.000000 -0.997748 -0.067069
v -0.065081 -0.046991 -0.000607
vn 0.000000 -0.997869 0.065247
v -0.046150 -0.046991 -0.000607
vn 0.000000 -0.947461 0.319871
v -0.065081 -0.043523 0.016911
vn 0.000000 -0.896935 0.442163
v -0.046150 -0.043523 0.016911
vn -0.121523 -0.747357 0.653214
v -0.065081 -0.033614 0.031770
vn 0.000000 -0.659457 0.751742
v -0.046150 -0.033614 0.031770
vn 0.000000 -0.556315 0.830972
v -0.065081 -0.018774 0.041705
vn 0.000000 -0.556315 0.830972
v -0.046150 -0.018774 0.041705
vn 0.000000 -0.195987 0.980606
v -0.046150 -0.018774 0.041705
vn 0.000000 -0.067069 0.997748
v -0.065081 -0.001262 0.045205
vn 0.000000 -0.195987 0.980606
v -0.065081 -0.018774 0.041705
vn 0.000000 0.065244 0.997869
v -0.046150 -0.001262 0.045205
vn 0.000000 0.319860 0.947465
v -0.065081 0.016258 0.041737
vn 0.000000 0.442178 0.896927
v -0.046150 0.016258 0.041737
vn -0.978129 0.136888 0.156605
v -0.065081 0.031115 0.031828
vn 0.000000 0.751742 0.659457
v -0.046150 0.031115 0.031828
vn 0.000000 0.896122 0.443808
v -0.065081 0.041051 0.016988
vn 0.000000 0.946875 0.321600
v -0.046150 0.041051 0.016988
vn 0.000000 0.997750 0.067051
v -0.065081 0.044551 -0.000524
vn 0.000000 0.997867 -0.065284
v -0.046150 0.044551 -0.000524
vn 0.000000 0.947459 -0.319877
v -0.065081 0.041082 -0.018043
vn 0.000000 0.896946 -0.442140
v -0.046150 0.041082 -0.018043
vn 0.000000 0.752948 -0.658080
v -0.065081 0.031174 -0.032902
vn 0.000000 0.659445 -0.751753
v -0.046150 0.031174 -0.032902
vn 0.000000 0.443739 -0.896156
v -0.065081 0.016334 -0.042836
vn 0.000000 0.321555 -0.946891
v -0.046150 0.016334 -0.042836
vn 0.000000 0.067069 -0.997748
v -0.065081 -0.001179 -0.046336
vn 0.000000 -0.065247 -0.997869
v -0.046150 -0.001179 -0.046336
vn 0.000000 -0.319854 -0.947467
v -0.065081 -0.018697 -0.042868
vn 0.000000 -0.442133 -0.896950
v -0.046150 -0.018697 -0.042868
vn -1.000000 0.000000 0.000000
v -0.065081 0.016334 -0.042836
vn -1.000000 0.000000 0.000000
v -0.065081 0.041082 -0.018043
vn -1.000000 0.000000 0.000000
v -0.065081 0.031174 -0.032902
vn -1.000000 0.000000 0.000000
v -0.065081 0.044551 -0.000524
vn -1.000000 0.000000 0.000000
v -0.065081 -0.001179 -0.046336
vn -1.000000 0.000000 0.000000
v -0.065081 0.041051 0.016988
vn -1.000000 0.000000 0.000000
v -0.065081 -0.018697 -0.042868
vn -1.000000 0.000000 0.000000
v -0.065081 -0.033556 -0.032960
vn -1.000000 0.000000 0.000000
v -0.065081 0.016258 0.041737
vn -1.000000 0.000000 0.000000
v -0.065081 -0.043491 -0.018120
vn -1.000000 0.000000 0.000000
v -0.065081 -0.001262 0.045205
vn -1.000000 0.000000 0.000000
v -0.065081 -0.046991 -0.000607
vn -1.000000 0.000000 0.000000
v -0.065081 -0.018774 0.041705
vn -1.000000 0.000000 0.000000
v -0.065081 -0.043523 0.016911
vn -1.000000 0.000000 0.000000
v -0.065081 -0.018774 0.041705
vn 1.000000 0.000000 0.000000
v -0.046150 -0.033556 -0.032960
vn 1.000000 0.000000 0.000000
v -0.046150 -0.046991 -0.000607
vn 1.000000 0.000000 0.000000
v -0.046150 -0.043491 -0.018120
vn 1.000000 0.000000 0.000000
v -0.046150 -0.018697 -0.042868
vn 1.000000 0.000000 0.000000
v -0.046150 -0.043523 0.016911
vn 1.000000 0.000000 0.000000
v -0.046150 -0.001179 -0.046336
vn 1.000000 0.000000 0.000000
v -0.046150 -0.033614 0.031770
vn 1.000000 0.000000 0.000000
v -0.046150 0.044551 -0.000524
vn 1.000000 0.000000 0.000000
v -0.046150 -0.018774 0.041705
vn 1.000000 0.000000 0.000000
v -0.046150 0.041051 0.016988
vn 1.000000 0.000000 0.000000
v -0.046150 -0.001262 0.045205
vn 1.000000 0.000000 0.000000
v -0.046150 0.031115 0.031828
vn 1.000000 0.000000 0.000000
v -0.046150 0.016258 0.041737
vn 0.000000 0.321555 -0.946891
v -0.046150 0.016334 -0.042836
vn 0.000000 0.195976 -0.980609
v 0.046922 -0.001179 -0.046336
vn 0.000000 0.195976 -0.980609
v -0.046150 -0.001179 -0.046336
vn 0.000000 0.443739 -0.896156
v 0.046922 0.016334 -0.042836
vn 0.000000 0.659445 -0.751753
v -0.046150 0.031174 -0.032902
vn 0.000000 0.752948 -0.658080
v 0.046922 0.031174 -0.032902
vn 0.000000 0.896946 -0.442140
v -0.046150 0.041082 -0.018043
vn 0.000000 0.947459 -0.319877
v 0.046922 0.041082 -0.018043
vn 0.000000 0.980954 -0.194242
v -0.046150 0.044551 -0.000524
vn 0.000000 0.980954 -0.194242
v 0.046922 0.044551 -0.000524
vn 0.000000 -0.707740 0.706473
v 0.046922 0.044551 -0.000524
vn 0.000000 -0.707740 0.706473
v -0.046150 -0.001179 -0.046336
vn 0.000000 -0.707740 0.706473
v 0.046922 -0.001179 -0.046336
vn 0.000000 -0.707740 0.706473
v -0.046150 0.044551 -0.000524
vn 0.998088 0.000000 0.061806
v 0.044252 0.035201 -0.011800
vn 0.948606 0.000000 0.316459
v 0.040887 0.188105 0.005115
vn 0.898336 0.000000 0.439310
v 0.040887 0.049884 0.005115
vn 0.997529 0.000000 -0.070252
v 0.044252 0.188105 -0.011800
vn 0.755115 0.000000 0.655592
v 0.031305 0.188105 0.019456
vn 0.534566 -0.236243 0.811436
v 0.031305 0.062305 0.019456
vn 0.445688 0.000000 0.895189
v 0.016964 0.188105 0.029039
vn 0.302534 -0.069645 0.950591
v 0.016964 0.070574 0.029039
vn 0.195046 0.000000 0.980794
v 0.000048 0.188105 0.032403
vn 0.185808 -0.054993 0.981046
v 0.000048 0.073431 0.032403
vn 0.195046 0.000000 0.980794
v 0.000048 0.188105 0.032403
vn -0.555530 0.000000 -0.831497
v -0.031209 0.188105 -0.043057
vn -0.441387 0.000000 -0.897317
v -0.016867 0.000652 -0.052639
vn -0.555530 0.000000 -0.831497
v -0.031209 0.007998 -0.043057
vn -0.320414 0.000000 -0.947278
v -0.016867 0.188105 -0.052639
vn -0.065832 0.000000 -0.997831
v 0.000048 -0.000778 -0.056004
vn 0.065829 -0.000000 -0.997831
v 0.000048 0.188105 -0.056004
vn 0.320402 -0.000001 -0.947282
v 0.016964 0.000652 -0.052639
vn 0.441394 -0.000001 -0.897313
v 0.016965 0.188105 -0.052639
vn 0.657438 -0.000001 -0.753509
v 0.031305 0.007998 -0.043057
vn 0.750272 0.000000 -0.661129
v 0.031305 0.188105 -0.043057
vn 0.920751 0.000000 -0.390150
v 0.040887 0.020494 -0.028717
vn 0.923880 0.000000 -0.382682
v 0.040887 0.188105 -0.028717
vn -0.013400 -0.761725 0.647762
v 0.044252 0.035201 -0.011800
vn -0.071031 -0.737618 0.671472
v 0.016964 0.000652 -0.052639
vn -0.070649 -0.737770 0.671345
v 0.031305 0.007998 -0.043057
vn -0.003741 -0.764222 0.644942
v 0.000048 -0.000778 -0.056004
vn 0.007158 -0.762070 0.647456
v -0.044156 0.035813 -0.011800
vn 0.076537 -0.729742 0.679426
v -0.016867 0.000652 -0.052639
vn 0.056555 -0.734098 0.676685
v -0.031209 0.007998 -0.043057
vn -0.020853 -0.751153 0.659799
v -0.044156 0.035813 -0.011800
vn -0.020853 -0.751153 0.659799
v -0.040791 0.020860 -0.028717
vn -0.005991 -0.754725 0.656014
v -0.040791 0.050581 0.005115
vn -0.006703 -0.756507 0.653951
v 0.040887 0.049884 0.005115
vn -0.007002 -0.757926 0.652303
v -0.031209 0.062917 0.019456
vn -0.007823 -0.764165 0.644974
v -0.016867 0.070941 0.029039
vn 0.003293 -0.755001 0.655715
v 0.031305 0.007998 -0.043057
vn 0.003293 -0.755001 0.655715
v 0.040887 0.020494 -0.028717
vn 0.000000 1.000000 0.000000
v 0.016964 0.188105 0.029039
vn 0.000000 1.000000 0.000000
v 0.031305 0.188105 0.019456
vn 0.000000 1.000000 0.000000
v 0.040887 0.188105 0.005115
vn 0.000000 1.000000 0.000000
v -0.016867 0.188105 0.029039
vn 0.000000 1.000000 0.000000
v -0.040791 0.188105 0.005115
vn 0.000000 1.000000 0.000000
v -0.031209 0.188105 0.019456
vn 0.000000 1.000000 0.000000
v 0.000048 0.188105 0.032403
vn 0.000000 1.000000 0.000000
v 0.000048 0.188105 0.032403
vn 0.000000 1.000000 0.000000
v -0.040791 0.188105 0.005115
vn 0.000000 1.000000 0.000000
v -0.040791 0.188105 -0.028717
vn 0.000000 1.000000 0.000000
v -0.016867 0.188105 -0.052639
vn 0.000000 1.000000 0.000000
v -0.031209 0.188105 -0.043057
vn 0.000000 1.000000 0.000000
v -0.044156 0.188105 -0.011800
vn 0.000000 1.000000 0.000000
v 0.016965 0.188105 -0.052639
vn 0.000000 1.000000 0.000000
v 0.000048 0.188105 -0.056004
vn 0.000000 1.000000 0.000000
v 0.040887 0.188105 -0.028717
vn 0.000000 1.000000 0.000000
v 0.031305 0.188105 -0.043057
vn 0.000000 1.000000 0.000000
v 0.044252 0.188105 -0.011800
vn -0.831461 0.000000 -0.555583
v -0.031209 0.007998 -0.043057
vn -0.895070 0.000000 -0.445925
v -0.040791 0.188105 -0.028717
vn -0.831461 0.000000 -0.555583
v -0.031209 0.188105 -0.043057
vn -0.945866 0.000000 -0.324559
v -0.040791 0.020860 -0.028717
vn -0.997523 0.000000 -0.070335
v -0.044156 0.188105 -0.011800
vn -0.998091 0.000000 0.061761
v -0.044156 0.035813 -0.011800
vn -0.948621 0.000000 0.316414
v -0.040791 0.188105 0.005115
vn -0.898332 0.000000 0.439317
v -0.040791 0.050581 0.005115
vn -0.755100 0.000000 0.655609
v -0.031209 0.188105 0.019456
vn -0.660941 0.000000 0.750438
v -0.031209 0.062917 0.019456
vn -0.445609 0.000000 0.895228
v -0.016867 0.188105 0.029039
vn -0.321605 0.000000 0.946874
v -0.016867 0.070941 0.029039
vn -0.195057 0.000000 0.980792
v 0.000048 0.188105 0.032403
vn -0.195057 0.000000 0.980792
v 0.000048 0.073431 0.032403
# 207 vertices, 0 vertices normals

f 1//1 2//2 3//3
f 1//1 4//4 2//2
f 4//4 5//5 2//2
f 4//4 6//6 5//5
f 6//6 7//7 5//5
f 6//6 8//8 7//7
f 8//8 9//9 7//7
f 8//8 10//10 9//9
f 10//10 11//11 9//9
f 10//10 12//12 11//11
f 12//12 13//13 11//11
f 12//12 14//14 13//13
f 14//14 15//15 13//13
f 14//14 16//16 15//15
f 16//16 17//17 15//15
f 16//16 18//18 17//17
f 18//18 19//19 17//17
f 18//18 20//20 19//19
f 20//20 21//21 19//19
f 20//20 22//22 21//21
f 22//22 23//23 21//21
f 22//22 24//24 23//23
f 24//24 25//25 23//23
f 24//24 26//26 25//25
f 26//26 27//27 25//25
f 26//26 28//28 27//27
f 28//28 29//29 27//27
f 28//28 30//30 29//29
f 30//30 31//31 29//29
f 30//30 32//32 31//31
f 32//32 3//3 31//31
f 32//32 1//1 3//3
f 33//33 34//34 35//35
f 36//36 34//34 33//33
f 36//36 37//37 34//34
f 38//38 37//37 36//36
f 38//38 39//39 37//37
f 40//40 39//39 38//38
f 40//40 41//41 39//39
f 42//42 43//43 44//44
f 42//42 45//45 43//43
f 46//46 45//45 42//42
f 46//46 47//47 45//45
f 6//6 48//48 49//49
f 6//6 50//50 48//48
f 51//51 50//50 6//6
f 51//51 52//52 50//50
f 53//53 52//52 51//51
f 53//53 54//54 52//52
f 55//55 54//54 53//53
f 55//55 56//56 54//54
f 57//57 56//56 55//55
f 57//57 58//58 56//56
f 59//59 58//58 57//57
f 59//59 22//22 58//58
f 60//60 22//22 59//59
f 60//60 61//61 22//22
f 62//62 63//63 64//64
f 62//62 65//65 63//63
f 65//65 66//66 63//63
f 65//65 67//67 66//66
f 67//67 68//68 66//66
f 67//67 69//69 68//68
f 69//69 70//70 68//68
f 69//69 71//71 70//70
f 71//71 72//72 70//70
f 71//71 73//73 72//72
f 74//74 75//75 76//76
f 74//74 77//77 75//75
f 77//77 78//78 75//75
f 77//77 79//79 78//78
f 79//79 80//80 78//78
f 79//79 81//81 80//80
f 81//81 82//82 80//80
f 81//81 83//83 82//82
f 83//83 84//84 82//82
f 83//83 85//85 84//84
f 85//85 86//86 84//84
f 85//85 87//87 86//86
f 87//87 88//88 86//86
f 87//87 89//89 88//88
f 89//89 90//90 88//88
f 89//89 91//91 90//90
f 91//91 92//92 90//90
f 91//91 93//93 92//92
f 93//93 94//94 92//92
f 93//93 95//95 94//94
f 95//95 64//64 94//94
f 95//95 62//62 64//64
f 96//96 97//97 98//98
f 96//96 99//99 97//97
f 100//100 99//99 96//96
f 100//100 101//101 99//99
f 102//102 101//101 100//100
f 102//102 80//80 101//101
f 103//103 80//80 102//102
f 103//103 104//104 80//80
f 105//105 104//104 103//103
f 105//105 106//106 104//104
f 107//107 106//106 105//105
f 107//107 108//108 106//106
f 109//109 108//108 107//107
f 109//109 70//70 110//110
f 111//111 112//112 113//113
f 114//114 112//112 111//111
f 114//114 115//115 112//112
f 116//116 115//115 114//114
f 116//116 117//117 115//115
f 118//118 117//117 116//116
f 118//118 119//119 117//117
f 120//120 119//119 118//118
f 120//120 121//121 119//119
f 122//122 121//121 120//120
f 122//122 123//123 121//121
f 124//124 125//125 126//126
f 124//124 127//127 125//125
f 128//128 127//127 124//124
f 128//128 129//129 127//127
f 130//130 129//129 128//128
f 130//130 131//131 129//129
f 132//132 131//131 130//130
f 132//132 133//133 131//131
f 134//134 135//135 136//136
f 134//134 137//137 135//135
f 138//138 139//139 140//140
f 138//138 141//141 139//139
f 140//140 142//142 143//143
f 140//140 139//139 142//142
f 143//143 144//144 145//145
f 143//143 142//142 144//144
f 145//145 146//146 147//147
f 145//145 144//144 148//148
f 149//149 150//150 151//151
f 149//149 152//152 150//150
f 152//152 153//153 150//150
f 152//152 154//154 153//153
f 154//154 155//155 153//153
f 154//154 156//156 155//155
f 156//156 157//157 155//155
f 156//156 158//158 157//157
f 158//158 159//159 157//157
f 158//158 160//160 159//159
f 159//159 141//141 138//138
f 159//159 160//160 141//141
f 161//161 162//162 163//163
f 161//161 164//164 162//162
f 165//165 166//166 164//164
f 165//165 167//167 166//166
f 168//168 169//169 167//167
f 161//161 165//165 164//164
f 161//161 170//170 165//165
f 171//171 170//170 161//161
f 171//171 172//172 170//170
f 143//143 172//172 171//171
f 143//143 173//173 172//172
f 145//145 173//173 143//143
f 145//145 147//147 173//173
f 161//161 174//174 175//175
f 176//176 177//177 178//178
f 179//179 180//180 181//181
f 182//182 180//180 179//179
f 183//183 176//176 184//184
f 185//185 186//186 187//187
f 188//188 186//186 185//185
f 188//188 184//184 186//186
f 189//189 190//190 186//186
f 191//191 192//192 189//189
f 191//191 189//189 186//186
f 191//191 186//186 184//184
f 191//191 184//184 176//176
f 191//191 176//176 178//178
f 191//191 178//178 193//193
f 194//194 195//195 196//196
f 194//194 197//197 195//195
f 197//197 198//198 195//195
f 197//197 199//199 198//198
f 199//199 200//200 198//198
f 199//199 201//201 200//200
f 201//201 202//202 200//200
f 201//201 203//203 202//202
f 203//203 204//204 202//202
f 203//203 205//205 204//204
f 205//205 206//206 204//204
f 205//205 207//207 206//206
# 184 faces, 0 coords texture

# End of File