####
#
# OBJ File Generated by Meshlab
#
####
# Object l_lglut.obj
#
# Vertices: 129
# Faces: 112
#
####
vn 0.462671 0.859055 0.218997
v 0.060260 0.020226 -0.025060
vn 0.999636 -0.004543 0.026609
v 0.059772 0.019738 -0.020012
vn 0.957345 -0.022295 0.288086
v 0.060394 -0.007519 -0.030704
vn 0.998306 -0.010595 0.057211
v 0.059772 -0.007519 -0.025060
vn 0.585081 0.535468 0.609060
v 0.061236 0.023503 -0.030704
vn 0.008159 0.977609 0.210270
v 0.030054 0.019738 -0.021619
vn -0.871248 0.483420 0.085041
v 0.030048 0.020329 -0.030101
vn -0.881380 0.437294 -0.178725
v 0.030054 0.019738 -0.021619
vn -0.973677 0.054942 -0.221210
v 0.028647 -0.007519 -0.025060
vn -0.170771 -0.984338 -0.043782
v 0.030094 -0.007519 -0.030704
vn -0.001998 -0.796223 -0.605000
v 0.059772 -0.013992 -0.012642
vn -0.792689 -0.119706 -0.597758
v 0.020981 -0.011970 -0.015175
vn -0.000148 -0.862294 -0.506408
v 0.059772 -0.008392 -0.020012
vn 0.002339 -0.812825 -0.582503
v 0.020981 -0.011970 -0.015175
vn -0.817675 -0.094437 -0.567881
v 0.025649 -0.008392 -0.020149
vn 0.000362 -0.984996 -0.172579
v 0.025649 -0.008392 -0.020149
vn 0.000177 -0.996424 -0.084487
v 0.059772 -0.007519 -0.025060
vn 0.000000 -0.996597 -0.082428
v 0.028647 -0.007519 -0.025060
vn 0.000000 -1.000000 0.000000
v 0.060394 -0.007519 -0.030704
vn 0.000000 -1.000000 0.000000
v 0.031437 -0.007519 -0.054178
vn 0.000000 -1.000000 0.000000
v 0.065656 -0.007519 -0.049540
vn 0.000000 -1.000000 0.000000
v 0.030094 -0.007519 -0.039205
vn 0.000000 -1.000000 0.000000
v 0.065656 -0.007519 -0.039205
vn 1.000000 0.000000 0.000000
v 0.059772 0.018776 0.005205
vn 1.000000 0.000000 0.000000
v 0.059772 -0.008392 -0.020012
vn 1.000000 0.000000 0.000000
v 0.059772 -0.013992 -0.012642
vn 0.999312 0.037078 0.000000
v 0.065656 -0.007519 -0.049540
vn 0.999171 0.039331 0.010521
v 0.063869 0.040643 -0.049540
vn 0.981000 0.028198 0.191947
v 0.065656 -0.007519 -0.039205
vn 0.983700 0.041233 0.175027
v 0.063869 0.035114 -0.039205
vn -0.558522 0.813176 -0.163703
v 0.020981 0.018776 0.005205
vn 0.005278 0.998917 0.046226
v 0.059772 0.018776 0.005205
vn 0.003652 0.999065 0.043087
v 0.027391 0.019738 -0.011886
vn 0.012057 0.998772 0.048046
v 0.059772 0.019738 -0.020012
vn -0.315583 0.875550 0.365813
v 0.063869 0.040643 -0.049540
vn -0.828363 0.545569 0.127160
v 0.031391 0.029412 -0.053576
vn -0.817816 0.545471 0.183408
v 0.030048 0.023883 -0.038603
vn -0.198345 0.790173 0.579901
v 0.063869 0.035114 -0.039205
vn -0.045247 0.596797 0.801115
v 0.030048 0.020329 -0.030101
vn -0.909267 0.199480 -0.365295
v 0.027391 0.019738 -0.011886
vn -0.996005 0.000232 -0.089293
v 0.031437 -0.007519 -0.054178
vn -0.999060 -0.000678 -0.043335
v 0.030094 -0.007519 -0.039205
vn -0.999999 -0.001652 0.000000
v 0.030094 -0.007519 -0.030704
vn -1.000000 0.000000 0.000000
v -0.059940 0.000092 0.020053
vn -1.000000 0.000000 0.000000
v -0.059940 0.011863 0.016228
vn -1.000000 0.000000 0.000000
v -0.059940 -0.011681 0.016228
vn -1.000000 0.000000 0.000000
v -0.059940 0.019139 0.006213
vn -1.000000 0.000000 0.000000
v -0.059940 -0.018956 0.006213
vn -1.000000 0.000000 0.000000
v -0.059940 0.019139 -0.006164
vn -1.000000 0.000000 0.000000
v -0.059940 -0.018956 -0.006164
vn -1.000000 0.000000 0.000000
v -0.059940 0.011863 -0.016178
vn -1.000000 0.000000 0.000000
v -0.059940 -0.011681 -0.016178
vn -1.000000 0.000000 0.000000
v -0.059940 0.000092 -0.020003
vn 1.000000 0.000000 0.000000
v 0.060048 0.019139 0.006213
vn 1.000000 0.000000 0.000000
v 0.060048 0.011863 0.016228
vn 1.000000 0.000000 0.000000
v 0.060048 0.019139 -0.006164
vn 1.000000 0.000000 0.000000
v 0.060048 0.000092 0.020053
vn 1.000000 0.000000 0.000000
v 0.060048 0.011863 -0.016178
vn 1.000000 0.000000 0.000000
v 0.060048 -0.011681 0.016228
vn 1.000000 0.000000 0.000000
v 0.060048 0.000092 -0.020003
vn 1.000000 0.000000 0.000000
v 0.060048 -0.018956 0.006213
vn 1.000000 0.000000 0.000000
v 0.060048 -0.011681 -0.016178
vn 1.000000 0.000000 0.000000
v 0.060048 -0.018956 -0.006164
vn 0.000000 0.587828 0.808986
v -0.059940 0.011863 0.016228
vn 0.000000 0.309044 0.951048
v -0.059940 0.000092 0.020053
vn 0.000000 0.587828 0.808986
v 0.060048 0.011863 0.016228
vn 0.000000 0.309044 0.951048
v 0.060048 0.000092 0.020053
vn 0.000000 0.912249 0.409635
v -0.059940 0.019139 0.006213
vn 0.000000 0.978798 0.204830
v 0.060048 0.019139 0.006213
vn 0.000000 0.978796 -0.204836
v -0.059940 0.019139 -0.006164
vn 0.000000 0.912240 -0.409656
v 0.060048 0.019139 -0.006164
vn 0.000000 0.671485 -0.741018
v -0.059940 0.011863 -0.016178
vn 0.000000 0.497279 -0.867591
v 0.060048 0.011863 -0.016178
vn 0.000000 0.000000 -1.000000
v -0.059940 0.000092 -0.020003
vn 0.000000 0.309044 -0.951048
v 0.060048 0.000092 -0.020003
vn 0.000000 -0.587780 -0.809021
v -0.059940 -0.011681 -0.016178
vn 0.000000 -0.587780 -0.809021
v 0.060048 -0.011681 -0.016178
vn 0.000000 -0.308997 -0.951063
v 0.060048 0.000092 -0.020003
vn 0.000000 -0.951060 -0.309006
v -0.059940 -0.018956 -0.006164
vn 0.000000 -0.951060 -0.309006
v 0.060048 -0.018956 -0.006164
vn 0.000000 -0.912270 0.409589
v -0.059940 -0.018956 0.006213
vn 0.000000 -0.978803 0.204803
v 0.060048 -0.018956 0.006213
vn 0.000000 -0.497263 0.867600
v -0.059940 -0.011681 0.016228
vn 0.000000 -0.671516 0.740990
v 0.060048 -0.011681 0.016228
vn 0.000000 -0.308997 0.951063
v -0.059940 0.000092 0.020053
vn 0.000000 -0.308997 0.951063
v 0.060048 0.000092 0.020053
vn 0.000000 1.000000 0.000000
v 0.049968 0.052641 -0.030089
vn 0.000000 1.000000 0.000000
v 0.061740 0.052641 -0.033914
vn 0.000000 1.000000 0.000000
v 0.038196 0.052641 -0.033914
vn 0.000000 1.000000 0.000000
v 0.069016 0.052641 -0.043927
vn 0.000000 1.000000 0.000000
v 0.030920 0.052641 -0.043927
vn 0.000000 1.000000 0.000000
v 0.069016 0.052641 -0.056306
vn 0.000000 1.000000 0.000000
v 0.030920 0.052641 -0.056306
vn 0.000000 1.000000 0.000000
v 0.061740 0.052641 -0.066320
vn 0.000000 1.000000 0.000000
v 0.038196 0.052641 -0.066320
vn 0.000000 1.000000 0.000000
v 0.049968 0.052641 -0.070145
vn 0.000000 -1.000000 0.000000
v 0.069016 -0.007665 -0.043927
vn 0.000000 -1.000000 0.000000
v 0.061740 -0.007665 -0.033914
vn 0.000000 -1.000000 0.000000
v 0.069016 -0.007665 -0.056306
vn 0.000000 -1.000000 0.000000
v 0.049968 -0.007665 -0.030089
vn 0.000000 -1.000000 0.000000
v 0.061740 -0.007665 -0.066320
vn 0.000000 -1.000000 0.000000
v 0.038196 -0.007665 -0.033914
vn 0.000000 -1.000000 0.000000
v 0.049968 -0.007665 -0.070145
vn 0.000000 -1.000000 0.000000
v 0.030920 -0.007665 -0.043927
vn 0.000000 -1.000000 0.000000
v 0.038196 -0.007665 -0.066320
vn 0.000000 -1.000000 0.000000
v 0.030920 -0.007665 -0.056305
vn 0.000000 -1.000000 0.000000
v 0.038196 -0.007665 -0.066320
vn 0.671440 0.000000 0.741059
v 0.061740 0.052641 -0.033914
vn 0.107678 0.000000 0.994186
v 0.049968 0.052641 -0.030089
vn 0.497233 0.000000 0.867617
v 0.061740 -0.007665 -0.033914
vn 0.309020 0.000000 0.951055
v 0.049968 -0.007665 -0.030089
vn 0.978800 0.000000 0.204819
v 0.069016 0.052641 -0.043927
vn 0.912240 0.000000 0.409656
v 0.069016 -0.007665 -0.043927
vn 0.912249 0.000000 -0.409635
v 0.069016 0.052641 -0.056306
vn 0.978801 0.000000 -0.204813
v 0.069016 -0.007665 -0.056306
vn 0.497254 0.000000 -0.867605
v 0.061740 0.052641 -0.066320
vn 0.671471 0.000000 -0.741031
v 0.061740 -0.007665 -0.066320
vn -0.107678 0.000000 -0.994186
v 0.049968 0.052641 -0.070145
vn 0.107678 0.000000 -0.994186
v 0.049968 -0.007665 -0.070145
vn -0.671487 -0.000003 -0.741017
v 0.038196 0.052641 -0.066320
vn -0.587808 0.000000 -0.809000
v 0.038196 -0.007665 -0.066320
vn -0.309020 0.000000 -0.951055
v 0.038196 -0.007665 -0.066320
vn -0.978800 -0.000003 -0.204819
v 0.030920 0.052641 -0.056306
vn -0.912249 -0.000003 -0.409635
v 0.030920 -0.007665 -0.056305
vn -0.912240 0.000000 0.409656
v 0.030920 0.052641 -0.043927
vn -0.978799 0.000000 0.204824
v 0.030920 -0.007665 -0.043927
vn -0.497233 0.000000 0.867617
v 0.038196 0.052641 -0.033914
vn -0.671440 0.000000 0.741059
v 0.038196 -0.007665 -0.033914
vn -0.309020 0.000000 0.951055
v 0.049968 -0.007665 -0.030089
# 129 vertices, 0 vertices normals

f 1//1 2//2 3//3
f 2//2 4//4 3//3
f 3//3 5//5 1//1
f 6//6 1//1 5//5
f 5//5 7//7 8//8
f 9//9 8//8 7//7
f 7//7 10//10 9//9
f 11//11 12//12 13//13
f 14//14 15//15 13//13
f 13//13 16//16 17//17
f 16//16 18//18 17//17
f 19//19 17//17 10//10
f 17//17 18//18 10//10
f 20//20 21//21 22//22
f 21//21 23//23 22//22
f 22//22 23//23 10//10
f 23//23 19//19 10//10
f 2//2 24//24 25//25
f 24//24 26//26 25//25
f 4//4 2//2 25//25
f 27//27 28//28 29//29
f 28//28 30//30 29//29
f 29//29 30//30 5//5
f 5//5 3//3 29//29
f 31//31 32//32 33//33
f 32//32 34//34 33//33
f 33//33 34//34 1//1
f 1//1 6//6 33//33
f 35//35 36//36 37//37
f 37//37 38//38 35//35
f 38//38 37//37 7//7
f 39//39 5//5 38//38
f 12//12 31//31 40//40
f 40//40 15//15 12//12
f 15//15 40//40 8//8
f 8//8 9//9 15//15
f 36//36 41//41 37//37
f 41//41 42//42 37//37
f 37//37 42//42 7//7
f 42//42 43//43 7//7
f 44//44 45//45 46//46
f 45//45 47//47 46//46
f 46//46 47//47 48//48
f 47//47 49//49 48//48
f 48//48 49//49 50//50
f 49//49 51//51 50//50
f 50//50 51//51 52//52
f 51//51 53//53 52//52
f 54//54 55//55 56//56
f 55//55 57//57 56//56
f 56//56 57//57 58//58
f 57//57 59//59 58//58
f 58//58 59//59 60//60
f 59//59 61//61 60//60
f 60//60 61//61 62//62
f 61//61 63//63 62//62
f 64//64 65//65 66//66
f 65//65 67//67 66//66
f 68//68 66//66 69//69
f 64//64 66//66 68//68
f 70//70 69//69 71//71
f 68//68 69//69 70//70
f 72//72 71//71 73//73
f 70//70 71//71 72//72
f 74//74 73//73 75//75
f 72//72 73//73 74//74
f 76//76 74//74 77//77
f 74//74 78//78 77//77
f 79//79 77//77 80//80
f 76//76 77//77 79//79
f 81//81 79//79 82//82
f 79//79 80//80 82//82
f 83//83 81//81 84//84
f 81//81 82//82 84//84
f 85//85 83//83 86//86
f 83//83 84//84 86//86
f 87//87 88//88 89//89
f 88//88 90//90 89//89
f 89//89 90//90 91//91
f 90//90 92//92 91//91
f 91//91 92//92 93//93
f 92//92 94//94 93//93
f 93//93 94//94 95//95
f 94//94 96//96 95//95
f 97//97 98//98 99//99
f 98//98 100//100 99//99
f 99//99 100//100 101//101
f 100//100 102//102 101//101
f 101//101 102//102 103//103
f 102//102 104//104 103//103
f 103//103 104//104 105//105
f 104//104 106//106 107//107
f 108//108 109//109 110//110
f 109//109 111//111 110//110
f 112//112 108//108 113//113
f 108//108 110//110 113//113
f 114//114 112//112 115//115
f 112//112 113//113 115//115
f 116//116 114//114 117//117
f 114//114 115//115 117//117
f 118//118 116//116 119//119
f 116//116 117//117 119//119
f 120//120 118//118 121//121
f 118//118 119//119 122//122
f 123//123 120//120 124//124
f 120//120 121//121 124//124
f 125//125 123//123 126//126
f 123//123 124//124 126//126
f 127//127 125//125 128//128
f 125//125 126//126 128//128
f 109//109 127//127 129//129
f 127//127 128//128 129//129
# 112 faces, 0 coords texture

# End of File