####
#
# OBJ File Generated by Meshlab
#
####
# Object lj4_Right.obj
#
# Vertices: 300
# Faces: 100
#
####
vn 0.042396 -0.011395 -0.999036
v 0.063197 -0.059697 -0.088287
vn 0.042396 -0.011395 -0.999036
v 0.039218 0.041979 -0.090464
vn 0.042396 -0.011395 -0.999036
v 0.108517 0.038226 -0.087480
vn 0.202320 -0.037436 0.978604
v 0.171958 0.031481 0.091556
vn 0.202320 -0.037436 0.978604
v 0.193456 -0.043962 0.084225
vn 0.202320 -0.037436 0.978604
v 0.276287 0.039874 0.070308
vn -0.973282 -0.229613 0.000007
v 0.039218 0.041979 -0.090464
vn -0.973282 -0.229613 0.000007
v 0.069396 -0.085937 0.053939
vn -0.973282 -0.229613 0.000007
v 0.061462 -0.052305 0.091149
vn 0.002711 0.999932 0.011352
v 0.075696 0.075545 0.052633
vn 0.002711 0.999932 0.011352
v 0.383770 0.075003 0.026751
vn 0.002711 0.999932 0.011352
v 0.042699 0.076893 -0.058234
vn -0.973279 -0.229627 -0.000006
v 0.039218 0.041979 -0.090464
vn -0.973279 -0.229627 -0.000006
v 0.069247 -0.085302 -0.048982
vn -0.973279 -0.229627 -0.000006
v 0.069396 -0.085937 0.053939
vn 0.054049 -0.998418 -0.015495
v 0.276311 -0.075071 0.037062
vn 0.054049 -0.998418 -0.015495
v 0.275314 -0.073943 -0.039098
vn 0.054049 -0.998418 -0.015495
v 0.383770 -0.068909 0.014817
vn 0.005512 0.999985 0.000112
v 0.383770 0.075003 0.026751
vn 0.005512 0.999985 0.000112
v 0.383756 0.075010 -0.029305
vn 0.005512 0.999985 0.000112
v 0.042699 0.076893 -0.058234
vn 0.160214 -0.822192 0.546198
v 0.276311 -0.075071 0.037062
vn 0.160214 -0.822192 0.546198
v 0.383770 -0.068909 0.014817
vn 0.160214 -0.822192 0.546198
v 0.383770 -0.047348 0.047273
vn 0.173254 -0.039073 -0.984102
v 0.383770 0.041708 -0.056772
vn 0.173254 -0.039073 -0.984102
v 0.383770 -0.040861 -0.053494
vn 0.173254 -0.039073 -0.984102
v 0.274714 -0.039660 -0.072741
vn 1.000000 0.000000 0.000000
v 0.383770 -0.019050 0.055885
vn 1.000000 0.000000 0.000000
v 0.383770 -0.040861 -0.053494
vn 1.000000 0.000000 0.000000
v 0.383770 0.041708 -0.056772
vn 0.048529 0.779509 0.624509
v 0.075696 0.075545 0.052633
vn 0.048529 0.779509 0.624509
v 0.168180 0.045507 0.082939
vn 0.048529 0.779509 0.624509
v 0.255204 0.072673 0.042267
vn -0.655760 -0.754887 0.011141
v 0.031998 0.050430 0.057211
vn -0.655760 -0.754887 0.011141
v 0.039218 0.041979 -0.090464
vn -0.655760 -0.754887 0.011141
v 0.038362 0.045550 0.101124
vn -0.223591 -0.746333 0.626892
v 0.061462 -0.052305 0.091149
vn -0.223591 -0.746333 0.626892
v 0.069396 -0.085937 0.053939
vn -0.223591 -0.746333 0.626892
v 0.114937 -0.088172 0.067521
vn 0.147396 -0.790357 0.594651
v 0.176603 -0.059685 0.082226
vn 0.147396 -0.790357 0.594651
v 0.276311 -0.075071 0.037062
vn 0.147396 -0.790357 0.594651
v 0.383770 -0.047348 0.047273
vn 0.160720 -0.765238 -0.623361
v 0.238503 -0.064896 -0.065949
vn 0.160720 -0.765238 -0.623361
v 0.169204 -0.098122 -0.043029
vn 0.160720 -0.765238 -0.623361
v 0.133605 -0.072100 -0.084152
vn 0.054062 0.809468 -0.584670
v 0.042699 0.076893 -0.058234
vn 0.054062 0.809468 -0.584670
v 0.383756 0.075010 -0.029305
vn 0.054062 0.809468 -0.584670
v 0.039048 0.057501 -0.085419
vn -0.570024 -0.820213 -0.048203
v -0.006275 0.070232 0.055885
vn -0.570024 -0.820213 -0.048203
v 0.010983 0.064955 -0.058415
vn -0.570024 -0.820213 -0.048203
v 0.032002 0.050426 -0.059743
vn 0.026618 -0.999175 -0.030657
v 0.101121 -0.100226 -0.033563
vn 0.026618 -0.999175 -0.030657
v 0.169204 -0.098122 -0.043029
vn 0.026618 -0.999175 -0.030657
v 0.178735 -0.099998 0.026376
vn 0.085312 -0.914640 0.395164
v 0.114937 -0.088172 0.067521
vn 0.085312 -0.914640 0.395164
v 0.178735 -0.099998 0.026376
vn 0.085312 -0.914640 0.395164
v 0.170437 -0.084661 0.063666
vn 0.243952 -0.616519 0.748593
v 0.170437 -0.084661 0.063666
vn 0.243952 -0.616519 0.748593
v 0.276311 -0.075071 0.037062
vn 0.243952 -0.616519 0.748593
v 0.176603 -0.059685 0.082226
vn 1.000000 0.000000 0.000000
v 0.383770 0.041572 0.054360
vn 1.000000 0.000000 0.000000
v 0.383770 -0.019050 0.055885
vn 1.000000 0.000000 0.000000
v 0.383770 0.041708 -0.056772
vn 0.144057 0.024882 0.989257
v 0.383770 0.041572 0.054360
vn 0.144057 0.024882 0.989257
v 0.193456 -0.043962 0.084225
vn 0.144057 0.024882 0.989257
v 0.383770 -0.019050 0.055885
vn -0.973252 -0.229741 -0.000064
v 0.039218 0.041979 -0.090464
vn -0.973252 -0.229741 -0.000064
v 0.061462 -0.052305 0.091149
vn -0.973252 -0.229741 -0.000064
v 0.038362 0.045550 0.101124
vn 0.130237 -0.042664 0.990565
v 0.171958 0.031481 0.091556
vn 0.130237 -0.042664 0.990565
v 0.052298 -0.013465 0.105353
vn 0.130237 -0.042664 0.990565
v 0.131483 -0.051419 0.093307
vn -0.459535 -0.888160 0.000012
v 0.031998 0.050430 0.057211
vn -0.459535 -0.888160 0.000012
v -0.006275 0.070232 0.055885
vn -0.459535 -0.888160 0.000012
v 0.032002 0.050426 -0.059743
vn 0.171227 0.985230 -0.001839
v 0.036852 0.077407 0.057068
vn 0.171227 0.985230 -0.001839
v 0.035875 0.077359 -0.059541
vn 0.171227 0.985230 -0.001839
v -0.029791 0.088981 0.052692
vn 0.083146 -0.011154 -0.996475
v 0.274714 -0.039660 -0.072741
vn 0.083146 -0.011154 -0.996475
v 0.133605 -0.072100 -0.084152
vn 0.083146 -0.011154 -0.996475
v 0.108517 0.038226 -0.087480
vn 0.154018 -0.769255 -0.620101
v 0.133605 -0.072100 -0.084152
vn 0.154018 -0.769255 -0.620101
v 0.169204 -0.098122 -0.043029
vn 0.154018 -0.769255 -0.620101
v 0.111523 -0.088019 -0.069889
vn 0.070083 0.745280 -0.663058
v 0.039048 0.057501 -0.085419
vn 0.070083 0.745280 -0.663058
v 0.383756 0.075010 -0.029305
vn 0.070083 0.745280 -0.663058
v 0.201889 0.054434 -0.071654
vn 1.000000 0.000395 0.000000
v 0.383770 0.041572 0.054360
vn 1.000000 0.000395 0.000000
v 0.383770 0.041708 -0.056772
vn 1.000000 0.000395 0.000000
v 0.383756 0.075010 -0.029305
vn 0.079853 0.819062 0.568121
v 0.038362 0.045550 0.101124
vn 0.079853 0.819062 0.568121
v 0.168180 0.045507 0.082939
vn 0.079853 0.819062 0.568121
v 0.075696 0.075545 0.052633
vn 0.116253 -0.004623 0.993209
v 0.171958 0.031481 0.091556
vn 0.116253 -0.004623 0.993209
v 0.042247 0.029139 0.106727
vn 0.116253 -0.004623 0.993209
v 0.052298 -0.013465 0.105353
vn 0.174275 0.984697 0.000000
v 0.035875 0.077359 -0.059541
vn 0.174275 0.984697 0.000000
v -0.029791 0.088981 -0.055222
vn 0.174275 0.984697 0.000000
v -0.029791 0.088981 0.052692
vn -0.052663 0.015056 -0.998499
v 0.035875 0.077359 -0.059541
vn -0.052663 0.015056 -0.998499
v 0.032002 0.050426 -0.059743
vn -0.052663 0.015056 -0.998499
v 0.010983 0.064955 -0.058415
vn 1.000000 -0.000194 -0.000235
v 0.383770 0.075003 0.026751
vn 1.000000 -0.000194 -0.000235
v 0.383770 0.041572 0.054360
vn 1.000000 -0.000194 -0.000235
v 0.383756 0.075010 -0.029305
vn 0.119457 0.688407 0.715420
v 0.168180 0.045507 0.082939
vn 0.119457 0.688407 0.715420
v 0.276287 0.039874 0.070308
vn 0.119457 0.688407 0.715420
v 0.255204 0.072673 0.042267
vn 0.116311 -0.882022 -0.456628
v 0.383770 -0.066357 -0.026125
vn 0.116311 -0.882022 -0.456628
v 0.275314 -0.073943 -0.039098
vn 0.116311 -0.882022 -0.456628
v 0.238503 -0.064896 -0.065949
vn 1.000000 0.000000 0.000000
v 0.383770 -0.047348 0.047273
vn 1.000000 0.000000 0.000000
v 0.383770 -0.066357 -0.026125
vn 1.000000 0.000000 0.000000
v 0.383770 -0.040861 -0.053494
vn -0.155901 -0.914976 0.372176
v 0.069396 -0.085937 0.053939
vn -0.155901 -0.914976 0.372176
v 0.103508 -0.099637 0.034548
vn -0.155901 -0.914976 0.372176
v 0.114937 -0.088172 0.067521
vn -0.375205 -0.926927 -0.005175
v 0.103508 -0.099637 0.034548
vn -0.375205 -0.926927 -0.005175
v 0.069396 -0.085937 0.053939
vn -0.375205 -0.926927 -0.005175
v 0.069247 -0.085302 -0.048982
vn 0.082724 -0.607490 0.790008
v 0.131483 -0.051419 0.093307
vn 0.082724 -0.607490 0.790008
v 0.170437 -0.084661 0.063666
vn 0.082724 -0.607490 0.790008
v 0.176603 -0.059685 0.082226
vn 0.222748 -0.974721 -0.017353
v 0.276311 -0.075071 0.037062
vn 0.222748 -0.974721 -0.017353
v 0.169204 -0.098122 -0.043029
vn 0.222748 -0.974721 -0.017353
v 0.275314 -0.073943 -0.039098
vn -0.294730 -0.820781 -0.489338
v 0.111523 -0.088019 -0.069889
vn -0.294730 -0.820781 -0.489338
v 0.069247 -0.085302 -0.048982
vn -0.294730 -0.820781 -0.489338
v 0.063197 -0.059697 -0.088287
vn -0.973299 -0.229542 0.000268
v 0.039218 0.041979 -0.090464
vn -0.973299 -0.229542 0.000268
v 0.063197 -0.059697 -0.088287
vn -0.973299 -0.229542 0.000268
v 0.069247 -0.085302 -0.048982
vn 0.118458 0.035978 -0.992307
v 0.202236 0.045731 -0.078297
vn 0.118458 0.035978 -0.992307
v 0.383770 0.041708 -0.056772
vn 0.118458 0.035978 -0.992307
v 0.274714 -0.039660 -0.072741
vn 0.107027 0.632661 -0.766998
v 0.201889 0.054434 -0.071654
vn 0.107027 0.632661 -0.766998
v 0.383756 0.075010 -0.029305
vn 0.107027 0.632661 -0.766998
v 0.383770 0.041708 -0.056772
vn -0.760362 -0.649499 -0.000003
v 0.031998 0.050430 0.057211
vn -0.760362 -0.649499 -0.000003
v 0.032002 0.050426 -0.059743
vn -0.760362 -0.649499 -0.000003
v 0.039218 0.041979 -0.090464
vn 0.063706 0.309123 -0.948886
v 0.202236 0.045731 -0.078297
vn 0.063706 0.309123 -0.948886
v 0.039218 0.041979 -0.090464
vn 0.063706 0.309123 -0.948886
v 0.039048 0.057501 -0.085419
vn 0.253303 -0.965470 -0.060877
v 0.178735 -0.099998 0.026376
vn 0.253303 -0.965470 -0.060877
v 0.169204 -0.098122 -0.043029
vn 0.253303 -0.965470 -0.060877
v 0.276311 -0.075071 0.037062
vn 0.183651 -0.894054 0.408582
v 0.170437 -0.084661 0.063666
vn 0.183651 -0.894054 0.408582
v 0.178735 -0.099998 0.026376
vn 0.183651 -0.894054 0.408582
v 0.276311 -0.075071 0.037062
vn -0.433023 -0.901090 0.022974
v 0.069247 -0.085302 -0.048982
vn -0.433023 -0.901090 0.022974
v 0.101121 -0.100226 -0.033563
vn -0.433023 -0.901090 0.022974
v 0.103508 -0.099637 0.034548
vn -0.003845 -0.999954 0.008791
v 0.103508 -0.099637 0.034548
vn -0.003845 -0.999954 0.008791
v 0.101121 -0.100226 -0.033563
vn -0.003845 -0.999954 0.008791
v 0.178735 -0.099998 0.026376
vn -0.029168 0.010557 0.999519
v 0.036852 0.077407 0.057068
vn -0.029168 0.010557 0.999519
v -0.006275 0.070232 0.055885
vn -0.029168 0.010557 0.999519
v 0.031998 0.050430 0.057211
vn -0.971326 0.175607 0.160274
v 0.038362 0.045550 0.101124
vn -0.971326 0.175607 0.160274
v 0.036852 0.077407 0.057068
vn -0.971326 0.175607 0.160274
v 0.031998 0.050430 0.057211
vn -0.954811 0.139273 -0.262564
v 0.032002 0.050426 -0.059743
vn -0.954811 0.139273 -0.262564
v 0.035875 0.077359 -0.059541
vn -0.954811 0.139273 -0.262564
v 0.039218 0.041979 -0.090464
vn -0.973262 -0.229688 0.002059
v 0.038362 0.045550 0.101124
vn -0.973262 -0.229688 0.002059
v 0.052298 -0.013465 0.105353
vn -0.973262 -0.229688 0.002059
v 0.042247 0.029139 0.106727
vn 0.103002 0.343166 0.933610
v 0.042247 0.029139 0.106727
vn 0.103002 0.343166 0.933610
v 0.171958 0.031481 0.091556
vn 0.103002 0.343166 0.933610
v 0.038362 0.045550 0.101124
vn -1.000000 0.000000 0.000000
v -0.029791 0.088981 0.052692
vn -1.000000 0.000000 0.000000
v -0.029791 0.088981 -0.055222
vn -1.000000 0.000000 0.000000
v -0.029791 0.074254 0.052692
vn -0.045796 0.111639 0.992693
v -0.029791 0.088981 0.052692
vn -0.045796 0.111639 0.992693
v -0.006275 0.070232 0.055885
vn -0.045796 0.111639 0.992693
v 0.036852 0.077407 0.057068
vn -1.000000 0.000000 0.000000
v -0.029791 0.088981 -0.055222
vn -1.000000 0.000000 0.000000
v -0.029791 0.074254 -0.055222
vn -1.000000 0.000000 0.000000
v -0.029791 0.074254 0.052692
vn -0.065632 0.000000 -0.997844
v -0.029791 0.088981 -0.055222
vn -0.065632 0.000000 -0.997844
v 0.035875 0.077359 -0.059541
vn -0.065632 0.000000 -0.997844
v -0.029791 0.074254 -0.055222
vn 1.000000 0.000000 0.000000
v 0.383770 -0.047348 0.047273
vn 1.000000 0.000000 0.000000
v 0.383770 -0.068909 0.014817
vn 1.000000 0.000000 0.000000
v 0.383770 -0.066357 -0.026125
vn 0.077018 -0.995099 -0.062010
v 0.383770 -0.068909 0.014817
vn 0.077018 -0.995099 -0.062010
v 0.275314 -0.073943 -0.039098
vn 0.077018 -0.995099 -0.062010
v 0.383770 -0.066357 -0.026125
vn 0.181598 -0.490032 -0.852579
v 0.274714 -0.039660 -0.072741
vn 0.181598 -0.490032 -0.852579
v 0.238503 -0.064896 -0.065949
vn 0.181598 -0.490032 -0.852579
v 0.133605 -0.072100 -0.084152
vn -0.018145 -0.568760 0.822304
v 0.061462 -0.052305 0.091149
vn -0.018145 -0.568760 0.822304
v 0.114937 -0.088172 0.067521
vn -0.018145 -0.568760 0.822304
v 0.131483 -0.051419 0.093307
vn 0.093145 -0.599604 0.794858
v 0.131483 -0.051419 0.093307
vn 0.093145 -0.599604 0.794858
v 0.114937 -0.088172 0.067521
vn 0.093145 -0.599604 0.794858
v 0.170437 -0.084661 0.063666
vn 0.176084 -0.307642 0.935067
v 0.193456 -0.043962 0.084225
vn 0.176084 -0.307642 0.935067
v 0.176603 -0.059685 0.082226
vn 0.176084 -0.307642 0.935067
v 0.383770 -0.047348 0.047273
vn 0.204568 -0.807915 -0.552653
v 0.238503 -0.064896 -0.065949
vn 0.204568 -0.807915 -0.552653
v 0.275314 -0.073943 -0.039098
vn 0.204568 -0.807915 -0.552653
v 0.169204 -0.098122 -0.043029
vn 0.030099 -0.947297 0.318939
v 0.114937 -0.088172 0.067521
vn 0.030099 -0.947297 0.318939
v 0.103508 -0.099637 0.034548
vn 0.030099 -0.947297 0.318939
v 0.178735 -0.099998 0.026376
vn -0.973239 -0.229795 0.000489
v 0.038362 0.045550 0.101124
vn -0.973239 -0.229795 0.000489
v 0.061462 -0.052305 0.091149
vn -0.973239 -0.229795 0.000489
v 0.052298 -0.013465 0.105353
vn -0.024466 -0.348430 0.937015
v 0.061462 -0.052305 0.091149
vn -0.024466 -0.348430 0.937015
v 0.131483 -0.051419 0.093307
vn -0.024466 -0.348430 0.937015
v 0.052298 -0.013465 0.105353
vn 0.104973 0.807571 0.580353
v 0.038362 0.045550 0.101124
vn 0.104973 0.807571 0.580353
v 0.075696 0.075545 0.052633
vn 0.104973 0.807571 0.580353
v 0.036852 0.077407 0.057068
vn 0.047647 0.998862 -0.002036
v 0.036852 0.077407 0.057068
vn 0.047647 0.998862 -0.002036
v 0.075696 0.075545 0.052633
vn 0.047647 0.998862 -0.002036
v 0.042699 0.076893 -0.058234
vn 0.146438 0.019506 0.989028
v 0.383770 0.041572 0.054360
vn 0.146438 0.019506 0.989028
v 0.276287 0.039874 0.070308
vn 0.146438 0.019506 0.989028
v 0.193456 -0.043962 0.084225
vn 0.103780 0.633336 0.766886
v 0.276287 0.039874 0.070308
vn 0.103780 0.633336 0.766886
v 0.383770 0.041572 0.054360
vn 0.103780 0.633336 0.766886
v 0.383770 0.075003 0.026751
vn 0.055544 -0.017486 -0.998303
v 0.133605 -0.072100 -0.084152
vn 0.055544 -0.017486 -0.998303
v 0.063197 -0.059697 -0.088287
vn 0.055544 -0.017486 -0.998303
v 0.108517 0.038226 -0.087480
vn -0.062514 -0.616514 -0.784858
v 0.133605 -0.072100 -0.084152
vn -0.062514 -0.616514 -0.784858
v 0.111523 -0.088019 -0.069889
vn -0.062514 -0.616514 -0.784858
v 0.063197 -0.059697 -0.088287
vn 0.106900 0.605929 -0.788303
v 0.383770 0.041708 -0.056772
vn 0.106900 0.605929 -0.788303
v 0.202236 0.045731 -0.078297
vn 0.106900 0.605929 -0.788303
v 0.201889 0.054434 -0.071654
vn 0.078287 0.606824 -0.790971
v 0.202236 0.045731 -0.078297
vn 0.078287 0.606824 -0.790971
v 0.039048 0.057501 -0.085419
vn 0.078287 0.606824 -0.790971
v 0.201889 0.054434 -0.071654
vn 0.150193 -0.452137 -0.879212
v 0.383770 -0.040861 -0.053494
vn 0.150193 -0.452137 -0.879212
v 0.238503 -0.064896 -0.065949
vn 0.150193 -0.452137 -0.879212
v 0.274714 -0.039660 -0.072741
vn 0.176683 -0.720183 -0.670910
v 0.238503 -0.064896 -0.065949
vn 0.176683 -0.720183 -0.670910
v 0.383770 -0.040861 -0.053494
vn 0.176683 -0.720183 -0.670910
v 0.383770 -0.066357 -0.026125
vn 1.000000 0.000000 0.000000
v 0.383770 -0.019050 0.055885
vn 1.000000 0.000000 0.000000
v 0.383770 -0.047348 0.047273
vn 1.000000 0.000000 0.000000
v 0.383770 -0.040861 -0.053494
vn 0.177700 -0.286505 0.941455
v 0.193456 -0.043962 0.084225
vn 0.177700 -0.286505 0.941455
v 0.383770 -0.047348 0.047273
vn 0.177700 -0.286505 0.941455
v 0.383770 -0.019050 0.055885
vn -0.168587 -0.985687 0.000000
v -0.006275 0.070232 0.055885
vn -0.168587 -0.985687 0.000000
v -0.029791 0.074254 0.052692
vn -0.168587 -0.985687 0.000000
v -0.029791 0.074254 -0.055222
vn -0.134557 0.000000 0.990906
v -0.029791 0.088981 0.052692
vn -0.134557 0.000000 0.990906
v -0.029791 0.074254 0.052692
vn -0.134557 0.000000 0.990906
v -0.006275 0.070232 0.055885
vn 0.068328 0.997662 -0.000982
v 0.042699 0.076893 -0.058234
vn 0.068328 0.997662 -0.000982
v 0.035875 0.077359 -0.059541
vn 0.068328 0.997662 -0.000982
v 0.036852 0.077407 0.057068
vn 0.173946 -0.305491 0.936172
v 0.131483 -0.051419 0.093307
vn 0.173946 -0.305491 0.936172
v 0.176603 -0.059685 0.082226
vn 0.173946 -0.305491 0.936172
v 0.193456 -0.043962 0.084225
vn 0.151016 -0.052882 0.987116
v 0.171958 0.031481 0.091556
vn 0.151016 -0.052882 0.987116
v 0.131483 -0.051419 0.093307
vn 0.151016 -0.052882 0.987116
v 0.193456 -0.043962 0.084225
vn 0.096167 0.016869 -0.995222
v 0.274714 -0.039660 -0.072741
vn 0.096167 0.016869 -0.995222
v 0.108517 0.038226 -0.087480
vn 0.096167 0.016869 -0.995222
v 0.202236 0.045731 -0.078297
vn 0.060249 0.378046 -0.923824
v 0.202236 0.045731 -0.078297
vn 0.060249 0.378046 -0.923824
v 0.108517 0.038226 -0.087480
vn 0.060249 0.378046 -0.923824
v 0.039218 0.041979 -0.090464
vn -0.015590 -0.946432 -0.322526
v 0.169204 -0.098122 -0.043029
vn -0.015590 -0.946432 -0.322526
v 0.101121 -0.100226 -0.033563
vn -0.015590 -0.946432 -0.322526
v 0.111523 -0.088019 -0.069889
vn -0.240838 -0.897088 -0.370445
v 0.111523 -0.088019 -0.069889
vn -0.240838 -0.897088 -0.370445
v 0.101121 -0.100226 -0.033563
vn -0.240838 -0.897088 -0.370445
v 0.069247 -0.085302 -0.048982
vn -0.221472 -0.975098 0.011576
v -0.029791 0.074254 -0.055222
vn -0.221472 -0.975098 0.011576
v 0.010983 0.064955 -0.058415
vn -0.221472 -0.975098 0.011576
v -0.006275 0.070232 0.055885
vn -0.067701 0.045400 -0.996672
v 0.035875 0.077359 -0.059541
vn -0.067701 0.045400 -0.996672
v 0.010983 0.064955 -0.058415
vn -0.067701 0.045400 -0.996672
v -0.029791 0.074254 -0.055222
vn -0.987887 0.038127 -0.150417
v 0.039048 0.057501 -0.085419
vn -0.987887 0.038127 -0.150417
v 0.039218 0.041979 -0.090464
vn -0.987887 0.038127 -0.150417
v 0.035875 0.077359 -0.059541
vn 0.166563 0.792022 -0.587332
v 0.039048 0.057501 -0.085419
vn 0.166563 0.792022 -0.587332
v 0.035875 0.077359 -0.059541
vn 0.166563 0.792022 -0.587332
v 0.042699 0.076893 -0.058234
vn 0.076235 0.675782 0.733149
v 0.276287 0.039874 0.070308
vn 0.076235 0.675782 0.733149
v 0.383770 0.075003 0.026751
vn 0.076235 0.675782 0.733149
v 0.255204 0.072673 0.042267
vn 0.041541 0.878410 0.476100
v 0.255204 0.072673 0.042267
vn 0.041541 0.878410 0.476100
v 0.383770 0.075003 0.026751
vn 0.041541 0.878410 0.476100
v 0.075696 0.075545 0.052633
vn 0.116711 0.542535 0.831886
v 0.038362 0.045550 0.101124
vn 0.116711 0.542535 0.831886
v 0.171958 0.031481 0.091556
vn 0.116711 0.542535 0.831886
v 0.168180 0.045507 0.082939
vn 0.125291 0.543636 0.829917
v 0.171958 0.031481 0.091556
vn 0.125291 0.543636 0.829917
v 0.276287 0.039874 0.070308
vn 0.125291 0.543636 0.829917
v 0.168180 0.045507 0.082939
# 300 vertices, 0 vertices normals

f 1//1 2//2 3//3
f 4//4 5//5 6//6
f 7//7 8//8 9//9
f 10//10 11//11 12//12
f 13//13 14//14 15//15
f 16//16 17//17 18//18
f 19//19 20//20 21//21
f 22//22 23//23 24//24
f 25//25 26//26 27//27
f 28//28 29//29 30//30
f 31//31 32//32 33//33
f 34//34 35//35 36//36
f 37//37 38//38 39//39
f 40//40 41//41 42//42
f 43//43 44//44 45//45
f 46//46 47//47 48//48
f 49//49 50//50 51//51
f 52//52 53//53 54//54
f 55//55 56//56 57//57
f 58//58 59//59 60//60
f 61//61 62//62 63//63
f 64//64 65//65 66//66
f 67//67 68//68 69//69
f 70//70 71//71 72//72
f 73//73 74//74 75//75
f 76//76 77//77 78//78
f 79//79 80//80 81//81
f 82//82 83//83 84//84
f 85//85 86//86 87//87
f 88//88 89//89 90//90
f 91//91 92//92 93//93
f 94//94 95//95 96//96
f 97//97 98//98 99//99
f 100//100 101//101 102//102
f 103//103 104//104 105//105
f 106//106 107//107 108//108
f 109//109 110//110 111//111
f 112//112 113//113 114//114
f 115//115 116//116 117//117
f 118//118 119//119 120//120
f 121//121 122//122 123//123
f 124//124 125//125 126//126
f 127//127 128//128 129//129
f 130//130 131//131 132//132
f 133//133 134//134 135//135
f 136//136 137//137 138//138
f 139//139 140//140 141//141
f 142//142 143//143 144//144
f 145//145 146//146 147//147
f 148//148 149//149 150//150
f 151//151 152//152 153//153
f 154//154 155//155 156//156
f 157//157 158//158 159//159
f 160//160 161//161 162//162
f 163//163 164//164 165//165
f 166//166 167//167 168//168
f 169//169 170//170 171//171
f 172//172 173//173 174//174
f 175//175 176//176 177//177
f 178//178 179//179 180//180
f 181//181 182//182 183//183
f 184//184 185//185 186//186
f 187//187 188//188 189//189
f 190//190 191//191 192//192
f 193//193 194//194 195//195
f 196//196 197//197 198//198
f 199//199 200//200 201//201
f 202//202 203//203 204//204
f 205//205 206//206 207//207
f 208//208 209//209 210//210
f 211//211 212//212 213//213
f 214//214 215//215 216//216
f 217//217 218//218 219//219
f 220//220 221//221 222//222
f 223//223 224//224 225//225
f 226//226 227//227 228//228
f 229//229 230//230 231//231
f 232//232 233//233 234//234
f 235//235 236//236 237//237
f 238//238 239//239 240//240
f 241//241 242//242 243//243
f 244//244 245//245 246//246
f 247//247 248//248 249//249
f 250//250 251//251 252//252
f 253//253 254//254 255//255
f 256//256 257//257 258//258
f 259//259 260//260 261//261
f 262//262 263//263 264//264
f 265//265 266//266 267//267
f 268//268 269//269 270//270
f 271//271 272//272 273//273
f 274//274 275//275 276//276
f 277//277 278//278 279//279
f 280//280 281//281 282//282
f 283//283 284//284 285//285
f 286//286 287//287 288//288
f 289//289 290//290 291//291
f 292//292 293//293 294//294
f 295//295 296//296 297//297
f 298//298 299//299 300//300
# 100 faces, 0 coords texture

# End of File