####
#
# OBJ File Generated by Meshlab
#
####
# Object tf1_Left.obj
#
# Vertices: 8
# Faces: 12
#
####
vn 0.288063 0.418788 0.861183
v -0.009470 -0.008834 0.020519
vn 0.597605 0.368532 -0.712076
v -0.009470 -0.008834 0.029663
vn -0.204995 0.472198 -0.857325
v 0.013922 -0.011430 0.029663
vn -0.667055 0.511518 0.541652
v 0.020268 -0.011430 0.015890
vn 0.586716 -0.372210 0.719183
v -0.009470 0.008834 0.020519
vn 0.198147 -0.527267 -0.826273
v -0.009470 0.008834 0.029663
vn -0.563726 -0.305785 -0.767273
v 0.013494 0.011430 0.029663
vn -0.055486 -0.481700 0.874578
v 0.020268 0.011430 0.015890
# 8 vertices, 0 vertices normals

f 5//5 6//6 2//2
f 5//5 2//2 1//1
f 6//6 7//7 3//3
f 6//6 3//3 2//2
f 7//7 8//8 4//4
f 7//7 4//4 3//3
f 8//8 5//5 1//1
f 8//8 1//1 4//4
f 1//1 2//2 3//3
f 1//1 3//3 4//4
f 8//8 7//7 6//6
f 8//8 6//6 5//5
# 12 faces, 0 coords texture

# End of File