####
#
# OBJ File Generated by Meshlab
#
####
# Object tf1_Right.obj
#
# Vertices: 16
# Faces: 28
#
####
vn -0.288063 -0.418788 0.861183
v -0.009470 -0.008834 -0.020519
vn -0.597605 -0.368532 -0.712076
v -0.009470 -0.008834 -0.029663
vn -0.184650 -0.502645 -0.844543
v 0.013922 -0.011430 -0.029663
vn -0.144412 -0.577364 0.803614
v 0.020268 -0.011430 -0.015890
vn -0.586716 0.372210 0.719183
v -0.009470 0.008834 -0.020519
vn -0.198147 0.527267 -0.826273
v -0.009470 0.008834 -0.029663
vn -0.159024 0.659325 -0.734848
v 0.013494 0.011430 -0.029663
vn -0.162154 0.393437 0.904938
v 0.020268 0.011430 -0.015890
vn 0.508241 -0.572368 -0.643495
v 0.027870 -0.011299 -0.036306
vn 0.991641 -0.121896 -0.042298
v 0.034216 -0.011299 -0.022533
vn 0.604593 0.153785 -0.781548
v 0.027442 0.011561 -0.036306
vn 0.843242 0.535855 -0.042460
v 0.034216 0.011561 -0.022533
vn 0.195768 -0.653776 0.730926
v 0.028555 -0.011365 -0.015035
vn -0.285897 -0.623606 -0.727584
v 0.019580 -0.011365 -0.034034
vn 0.455122 0.618914 0.640163
v 0.028555 0.011495 -0.015035
vn -0.372840 0.659699 -0.652524
v 0.019152 0.011495 -0.034034
# 16 vertices, 0 vertices normals

f 5//5 6//6 2//2
f 5//5 2//2 1//1
f 6//6 7//7 3//3
f 6//6 3//3 2//2
f 13//13 14//14 9//9
f 13//13 9//9 10//10
f 8//8 5//5 1//1
f 8//8 1//1 4//4
f 1//1 2//2 3//3
f 1//1 3//3 4//4
f 8//8 7//7 6//6
f 8//8 6//6 5//5
f 11//11 12//12 10//10
f 11//11 10//10 9//9
f 15//15 13//13 10//10
f 15//15 10//10 12//12
f 16//16 15//15 12//12
f 16//16 12//12 11//11
f 14//14 16//16 11//11
f 14//14 11//11 9//9
f 4//4 3//3 14//14
f 4//4 14//14 13//13
f 8//8 4//4 13//13
f 8//8 13//13 15//15
f 7//7 8//8 15//15
f 7//7 15//15 16//16
f 3//3 7//7 16//16
f 3//3 16//16 14//14
# 28 faces, 0 coords texture

# End of File