####
#
# OBJ File Generated by Meshlab
#
####
# Object top_plate.obj
#
# Vertices: 16
# Faces: 56
#
####
vn 0.001615 -0.010361 0.999945
v 0.303665 -0.297969 0.006393
vn -0.008210 -0.541875 0.840419
v -0.346335 -0.297969 0.006393
vn 0.000475 -0.010762 -0.999942
v 0.303665 -0.297969 0.000043
vn -0.000625 -0.010783 -0.999942
v -0.346335 -0.297969 0.000043
vn -0.542920 -0.009695 -0.839728
v -0.366335 -0.277969 0.000043
vn -0.162135 0.010992 -0.986707
v -0.366335 0.272031 0.000043
vn -0.000163 0.010762 -0.999942
v -0.346335 0.292031 0.000043
vn 0.001704 0.010935 -0.999939
v 0.303665 0.292031 0.000043
vn 0.058801 -0.011960 -0.998198
v 0.363665 -0.237969 0.000043
vn 0.219657 0.013179 -0.975488
v 0.363665 0.232031 0.000043
vn 0.000469 0.010632 0.999943
v 0.303665 0.292031 0.006393
vn -0.018512 0.319331 0.947462
v -0.346335 0.292031 0.006393
vn 0.219657 -0.013179 0.975488
v 0.363665 -0.237969 0.006393
vn 0.058801 0.011960 0.998198
v 0.363665 0.232031 0.006393
vn -0.004823 -0.000327 0.999988
v -0.366335 -0.277969 0.006393
vn -0.018639 0.000333 0.999826
v -0.366335 0.272031 0.006393
# 16 vertices, 0 vertices normals

f 1//1 2//2 3//3
f 3//3 2//2 4//4
f 5//5 6//6 4//4
f 4//4 6//6 7//7
f 4//4 7//7 3//3
f 3//3 7//7 8//8
f 3//3 8//8 9//9
f 9//9 8//8 10//10
f 8//8 7//7 11//11
f 11//11 7//7 12//12
f 13//13 14//14 1//1
f 1//1 14//14 11//11
f 2//2 1//1 15//15
f 15//15 1//1 11//11
f 15//15 11//11 16//16
f 16//16 11//11 12//12
f 9//9 10//10 13//13
f 13//13 10//10 14//14
f 6//6 5//5 16//16
f 16//16 5//5 15//15
f 16//16 12//12 6//6
f 6//6 12//12 7//7
f 5//5 4//4 15//15
f 15//15 4//4 2//2
f 3//3 9//9 1//1
f 1//1 9//9 13//13
f 11//11 14//14 8//8
f 8//8 14//14 10//10
f 1//1 2//2 3//3
f 3//3 2//2 4//4
f 5//5 6//6 4//4
f 4//4 6//6 7//7
f 4//4 7//7 3//3
f 3//3 7//7 8//8
f 3//3 8//8 9//9
f 9//9 8//8 10//10
f 8//8 7//7 11//11
f 11//11 7//7 12//12
f 13//13 14//14 1//1
f 1//1 14//14 11//11
f 2//2 1//1 15//15
f 15//15 1//1 11//11
f 15//15 11//11 16//16
f 16//16 11//11 12//12
f 9//9 10//10 13//13
f 13//13 10//10 14//14
f 6//6 5//5 16//16
f 16//16 5//5 15//15
f 16//16 12//12 6//6
f 6//6 12//12 7//7
f 5//5 4//4 15//15
f 15//15 4//4 2//2
f 3//3 9//9 1//1
f 1//1 9//9 13//13
f 11//11 14//14 8//8
f 8//8 14//14 10//10
# 56 faces, 0 coords texture

# End of File