# Blender v2.75 (sub 0) OBJ File: 'lj4_Right.blend'
# www.blender.org
o Cylinder.001
v 0.008242 -0.025337 -0.406400
v 0.002851 -0.025337 -0.419415
v -0.010165 -0.025337 -0.424807
v -0.023180 -0.025337 -0.419415
v -0.028571 -0.025337 -0.406400
v 0.000000 -0.019812 0.055753
v 0.039424 -0.019812 0.039424
v 0.055753 -0.019812 0.000000
v -0.051321 -0.044845 -0.300128
v -0.000000 -0.019812 -0.055753
v -0.039424 -0.019812 -0.039424
v -0.055753 -0.019812 0.000000
v -0.039424 -0.019812 0.039424
v -0.062066 -0.005669 -0.311112
v -0.074393 -0.065671 -0.183872
v -0.073837 -0.067311 -0.105146
v 0.063239 -0.056550 -0.207553
v 0.063504 -0.065354 -0.076642
v 0.024441 -0.082677 -0.209963
v 0.028178 -0.087559 -0.076519
v -0.046214 -0.087022 -0.105435
v -0.046692 -0.085561 -0.185637
v -0.003552 -0.083462 -0.211221
v 0.022028 -0.072552 -0.317270
v 0.059706 -0.048989 -0.310716
v -0.003614 -0.073106 -0.317275
v -0.029276 -0.084511 -0.202612
v -0.028259 -0.073887 -0.227396
v -0.028392 -0.066157 -0.314917
v -0.045732 -0.075242 -0.214803
v -0.063636 -0.075278 -0.198431
v -0.078736 -0.051278 -0.195233
v 0.074296 -0.035719 -0.076800
v -0.078720 -0.051278 -0.106034
v 0.071588 -0.026940 -0.207619
v -0.051760 -0.048665 -0.235789
v 0.067704 -0.023586 -0.305971
v -0.061821 -0.054510 -0.221588
v -0.070056 -0.055146 -0.213319
v -0.063569 -0.080593 -0.185034
v -0.063130 -0.081626 -0.105324
v -0.037482 -0.081896 -0.209100
v -0.016763 -0.079391 -0.223176
v -0.016791 -0.070849 -0.316476
v -0.070186 -0.072147 -0.191183
v -0.055638 -0.082975 -0.192069
v -0.075531 -0.051278 -0.208396
v -0.111314 -0.051375 -0.106034
v -0.111314 -0.051375 -0.195233
v -0.111314 -0.051375 -0.208396
v -0.062587 -0.078293 -0.092271
v -0.059284 -0.075940 -0.085003
v -0.069073 -0.074364 -0.097613
v -0.072199 -0.065498 -0.089612
v -0.055100 -0.084787 -0.098315
v 0.047942 -0.081743 -0.076669
v -0.016374 -0.014898 -0.300172
v 0.028160 -0.083851 -0.066129
v 0.023967 -0.072967 -0.060506
v 0.060176 -0.063723 -0.066129
v 0.045727 -0.078745 -0.066129
v 0.040410 -0.068689 -0.060472
v 0.049970 -0.058722 -0.060472
v -0.026041 -0.059438 -0.321428
v 0.059788 -0.031623 -0.060472
v 0.070370 -0.034128 -0.065570
v 0.046678 -0.076643 -0.207799
v 0.043451 -0.066695 -0.315469
v -0.003552 -0.087287 -0.076465
v -0.003552 -0.086353 -0.070852
v -0.003838 -0.082617 -0.065371
v 0.055753 -0.019812 -0.061220
v -0.039015 -0.058933 -0.312743
v -0.000000 -0.019812 -0.077830
v -0.060627 -0.017880 -0.300172
v -0.043230 -0.055566 -0.301368
v 0.040661 -0.059970 -0.321156
v 0.055294 -0.044721 -0.316345
v 0.062954 -0.020355 -0.311715
v -0.004137 -0.065351 -0.323737
v 0.022019 -0.065061 -0.323085
v -0.016374 -0.006251 -0.300172
v -0.015044 -0.063683 -0.323022
v 0.049821 -0.014898 -0.306440
v -0.062030 -0.005666 -0.327888
v 0.012953 -0.025337 -0.387350
v -0.033975 -0.005702 -0.364427
v -0.020570 -0.006284 -0.364617
v 0.016341 -0.016660 -0.364617
v -0.020570 -0.014925 -0.364617
v -0.022322 -0.025368 -0.387350
v -0.016374 -0.055566 -0.301368
v 0.008242 -0.000000 -0.406400
v 0.008242 0.025337 -0.406400
v 0.002851 -0.000000 -0.419415
v 0.002851 0.025337 -0.419415
v -0.010165 -0.000000 -0.424807
v -0.010165 0.025337 -0.424807
v -0.023180 -0.000000 -0.419415
v -0.023180 0.025337 -0.419415
v -0.028571 -0.000000 -0.406400
v -0.028571 0.025337 -0.406400
v 0.000000 0.019812 0.055753
v 0.039424 0.019812 0.039424
v 0.055753 0.019812 -0.000000
v -0.051321 0.044845 -0.300128
v -0.000000 0.019812 -0.055753
v -0.039424 0.019812 -0.039424
v -0.055753 0.019812 -0.000000
v -0.039424 0.019812 0.039424
v -0.062066 0.005669 -0.311112
v -0.055753 -0.000000 0.000000
v -0.039424 -0.000000 0.039424
v -0.000000 -0.000000 0.055753
v -0.039424 -0.000000 -0.039424
v -0.000000 -0.000000 -0.055753
v 0.055753 -0.000000 0.000000
v 0.039424 -0.000000 0.039424
v -0.074393 0.065671 -0.183872
v -0.073837 0.067311 -0.105146
v 0.063239 0.056550 -0.207553
v 0.063504 0.065354 -0.076642
v -0.085086 -0.000000 -0.106034
v -0.084967 -0.000000 -0.208396
v 0.024441 0.082677 -0.209963
v 0.028178 0.087559 -0.076519
v 0.078674 -0.000000 -0.076866
v -0.046214 0.087022 -0.105435
v -0.046692 0.085561 -0.185637
v 0.073929 -0.000000 -0.207612
v -0.061633 -0.000000 -0.237023
v -0.003552 0.083461 -0.211221
v 0.022028 0.072551 -0.317270
v 0.059706 0.048989 -0.310716
v 0.069984 -0.000000 -0.304555
v -0.003614 0.073106 -0.317275
v -0.062226 -0.000000 -0.310837
v -0.069982 -0.000000 -0.231485
v -0.029276 0.084511 -0.202612
v -0.028259 0.073887 -0.227396
v -0.028392 0.066157 -0.314917
v -0.045732 0.075242 -0.214803
v -0.063636 0.075278 -0.198431
v -0.075640 -0.000000 -0.227380
v -0.078736 0.051277 -0.195233
v 0.074296 0.035719 -0.076800
v -0.078720 0.051277 -0.106034
v 0.071588 0.026940 -0.207619
v -0.051760 0.048665 -0.235789
v 0.067704 0.023586 -0.305971
v -0.061821 0.054510 -0.221588
v -0.070056 0.055146 -0.213319
v -0.063569 0.080593 -0.185034
v -0.063130 0.081626 -0.105324
v -0.037482 0.081896 -0.209100
v -0.016763 0.079391 -0.223176
v -0.016791 0.070849 -0.316476
v -0.070186 0.072147 -0.191183
v -0.084023 -0.000000 -0.214849
v -0.055638 0.082975 -0.192069
v -0.075531 0.051277 -0.208396
v -0.111314 0.051375 -0.106034
v -0.111314 -0.000000 -0.106034
v -0.111314 -0.000000 -0.208396
v -0.111314 0.051375 -0.195233
v -0.111314 0.051375 -0.208396
v -0.062587 0.078293 -0.092271
v -0.048897 -0.000000 -0.099588
v -0.059284 0.075940 -0.085003
v -0.069073 0.074364 -0.097613
v -0.085064 -0.000000 -0.094153
v -0.072199 0.065497 -0.089612
v -0.055100 0.084787 -0.098315
v 0.047942 0.081743 -0.076669
v 0.063542 -0.000000 -0.060472
v -0.016374 0.014897 -0.300172
v 0.028160 0.083851 -0.066129
v 0.023967 0.072967 -0.060506
v 0.049821 -0.000000 -0.306440
v 0.074451 -0.000000 -0.065570
v 0.060176 0.063723 -0.066129
v 0.045727 0.078745 -0.066129
v 0.040410 0.068689 -0.060472
v 0.049970 0.058722 -0.060472
v -0.026041 0.059438 -0.321428
v 0.059788 0.031623 -0.060472
v 0.070370 0.034128 -0.065570
v 0.046678 0.076643 -0.207799
v 0.043451 0.066695 -0.315469
v -0.003552 0.087286 -0.076465
v -0.003552 0.086353 -0.070852
v -0.003838 0.082616 -0.065371
v 0.055753 0.019812 -0.061220
v -0.039015 0.058933 -0.312743
v -0.000000 0.019812 -0.077830
v -0.060627 0.017880 -0.300172
v -0.043230 0.055566 -0.301368
v 0.055753 -0.000000 -0.063182
v -0.000000 -0.000000 -0.082578
v 0.040661 0.059970 -0.321156
v 0.055294 0.044721 -0.316345
v 0.062954 0.020355 -0.311715
v 0.064407 -0.000000 -0.310595
v -0.004137 0.065351 -0.323737
v 0.022019 0.065061 -0.323085
v -0.016374 0.006251 -0.300172
v -0.015044 0.063683 -0.323022
v 0.049821 0.014897 -0.306440
v -0.062030 0.005666 -0.327888
v -0.062190 -0.000000 -0.327888
v -0.020570 -0.000000 -0.387350
v 0.012953 0.025337 -0.387350
v 0.012953 -0.000000 -0.387350
v -0.033975 0.005702 -0.364427
v -0.034135 -0.000000 -0.364427
v -0.020570 -0.000000 -0.364617
v 0.016341 -0.000000 -0.364617
v -0.020570 0.006283 -0.364617
v 0.016341 0.016659 -0.364617
v -0.020570 0.014925 -0.364617
v -0.022322 0.025368 -0.387350
v -0.016374 0.055566 -0.301368
vn 0.950000 0.000000 -0.312200
vn 0.707100 0.000000 -0.707100
vn 0.000000 0.000000 -1.000000
vn -0.707100 0.000000 -0.707100
vn -0.999700 0.017400 -0.017300
vn -0.999800 0.000000 -0.017500
vn 0.000300 -1.000000 -0.000600
vn 0.000200 -1.000000 -0.000500
vn 0.000000 -1.000000 0.000000
vn -0.974400 0.040800 0.221100
vn -0.981700 0.000000 0.190400
vn 0.000000 0.000000 1.000000
vn 0.707100 0.000000 0.707100
vn 0.980800 -0.000000 0.195100
vn -0.831500 0.000000 -0.555600
vn -0.831400 0.000000 -0.555600
vn -1.000000 0.000000 -0.000000
vn -0.707100 0.000000 0.707100
vn -0.999900 0.000000 0.015800
vn -1.000000 0.000000 0.005200
vn -0.998200 -0.060100 0.006300
vn -0.987000 -0.160300 0.014000
vn 0.145200 -0.987100 -0.067400
vn 0.018400 -0.997700 -0.065100
vn -0.078000 -0.882600 -0.463600
vn 0.144800 -0.869000 -0.473200
vn 0.962900 -0.219400 0.157300
vn 0.849800 -0.504900 0.151300
vn 0.873500 -0.484100 -0.050900
vn 0.979800 -0.195900 -0.039000
vn -0.581000 -0.812700 0.043800
vn -0.577600 -0.811500 -0.088900
vn -0.133100 -0.988600 -0.069700
vn -0.133800 -0.990600 0.028400
vn 0.534200 -0.842800 -0.065600
vn 0.522800 -0.840300 0.143300
vn 0.143200 -0.980900 0.131800
vn 0.396700 -0.663200 0.634600
vn 0.652000 -0.405300 0.640800
vn 0.934500 -0.000000 -0.356000
vn 0.922000 -0.143100 -0.359600
vn 0.744700 -0.061400 -0.664600
vn 0.748400 -0.025300 -0.662800
vn 0.011400 -0.992100 0.124700
vn -0.535700 -0.841900 -0.064200
vn -0.871400 -0.490600 -0.008300
vn -0.884100 -0.467200 -0.005800
vn -0.675100 -0.736300 -0.046400
vn -0.587100 -0.444700 -0.676400
vn -0.680100 0.000000 -0.733100
vn -0.701200 0.000000 -0.713000
vn -0.602000 -0.397900 -0.692200
vn -0.492400 -0.761400 -0.421500
vn -0.615300 -0.756700 -0.220800
vn -0.947100 0.000000 -0.320800
vn -0.945600 -0.026600 -0.324300
vn 0.830100 -0.396100 -0.392300
vn 0.511300 -0.730900 -0.451900
vn -0.817800 -0.364000 -0.445800
vn -0.922100 0.000000 -0.386800
vn -0.731900 0.000000 -0.681400
vn -0.681900 -0.439700 -0.584500
vn -0.265100 -0.960100 -0.089300
vn -0.290400 -0.847400 -0.444500
vn -0.218200 -0.905100 -0.364800
vn -0.419800 -0.721800 -0.550200
vn -0.340500 -0.758500 -0.555700
vn -0.138000 -0.921800 -0.362300
vn -0.351500 -0.906700 -0.233000
vn -0.575900 -0.693000 -0.433600
vn -0.783500 -0.587900 -0.201000
vn 0.999300 0.000000 -0.036800
vn -0.902500 -0.428100 0.046600
vn -0.967700 -0.233300 0.095500
vn -0.918100 -0.371800 -0.137200
vn -0.897100 -0.439000 -0.048900
vn -0.242200 -0.620300 -0.746100
vn -0.071100 -0.637400 -0.767200
vn 0.987400 0.000000 0.157900
vn -0.043700 -0.987200 -0.153200
vn 0.002900 -1.000000 0.000200
vn 0.003000 -1.000000 -0.000000
vn -0.016600 -0.989600 -0.142900
vn -0.195000 -0.976400 -0.092500
vn -0.989500 0.000000 -0.144800
vn 0.002900 -1.000000 0.000300
vn -0.179700 0.186500 0.965900
vn -0.152700 0.000000 0.988300
vn 0.045700 0.000000 0.999000
vn 0.045300 0.134600 0.989900
vn -0.336000 -0.914900 0.223500
vn -0.530500 -0.751400 0.392400
vn -0.406600 -0.807400 0.427600
vn -0.886900 -0.391700 0.244700
vn -0.776100 -0.600100 0.193900
vn -0.988700 0.000000 0.149700
vn 0.728800 -0.171500 0.662900
vn 0.748500 0.000000 0.663100
vn 0.423800 0.000000 0.905700
vn 0.417100 -0.102100 0.903100
vn -0.012300 -0.974700 0.223300
vn -0.009600 -0.984400 0.175500
vn 0.116800 -0.762600 0.636200
vn 0.229900 -0.376700 0.897300
vn 0.059400 -0.444600 0.893800
vn 0.371700 -0.242600 0.896100
vn 0.131200 -0.607900 -0.783100
vn -0.001300 -0.910700 0.413100
vn -0.236100 -0.887800 0.395000
vn -0.073600 -0.991800 0.104900
vn -0.293200 -0.810900 0.506500
vn -0.014100 -0.762000 0.647400
vn 0.676200 -0.229200 -0.700100
vn -0.395900 -0.562900 -0.725500
vn 0.425600 -0.478500 -0.768000
vn -0.314200 0.043100 -0.948400
vn -0.225100 0.242500 -0.943700
vn -0.224900 0.243000 -0.943600
vn -0.153500 0.380500 -0.911900
vn -0.018500 -0.984600 0.174000
vn -0.019100 -0.976400 0.215200
vn 0.866700 0.000000 -0.498800
vn 0.951100 0.000000 -0.308900
vn 0.944400 0.000000 -0.328800
vn -0.997900 0.000000 0.065000
vn -0.960700 0.019200 -0.277000
vn -0.998500 0.028800 0.047500
vn -0.712100 0.000000 -0.702100
vn -0.436200 -0.012200 -0.899700
vn -0.454600 0.000000 -0.890700
vn -0.015600 -0.999700 0.019400
vn 0.979800 0.000000 -0.200000
vn 0.981000 0.000000 -0.193900
vn -0.013500 -0.999900 0.001000
vn -0.015800 -0.999900 -0.001500
vn -0.026800 -0.999500 -0.013700
vn -0.043800 -0.998500 -0.032700
vn 1.000000 -0.000000 0.000000
vn -0.225300 0.095000 0.969600
vn -0.219400 0.139900 0.965600
vn -0.230700 0.000000 0.973000
vn 0.000100 -0.001200 -1.000000
vn -0.006000 0.011200 -0.999900
vn -0.012700 0.024800 -0.999600
vn -0.022000 0.043900 -0.998800
vn -0.067300 0.985200 -0.157700
vn 0.169900 -0.646400 -0.743800
vn 0.000000 0.958900 -0.283800
vn -0.270200 0.187300 0.944400
vn -0.281700 0.194200 0.939700
vn -0.321500 0.000000 0.946900
vn -0.217200 0.155500 0.963700
vn -0.999700 -0.017400 -0.017300
vn 0.000300 1.000000 -0.000600
vn 0.000000 1.000000 0.000000
vn 0.000200 1.000000 -0.000500
vn -0.974400 -0.040800 0.221100
vn -0.987000 0.160300 0.014000
vn -0.998200 0.060100 0.006300
vn 0.145200 0.987100 -0.067400
vn 0.144800 0.869000 -0.473200
vn -0.078000 0.882600 -0.463600
vn 0.018400 0.997700 -0.065100
vn 0.962900 0.219400 0.157300
vn 0.979800 0.195900 -0.039000
vn 0.873500 0.484100 -0.050900
vn 0.849800 0.504900 0.151300
vn -0.581000 0.812700 0.043800
vn -0.133800 0.990600 0.028400
vn -0.133100 0.988600 -0.069700
vn -0.577600 0.811500 -0.088900
vn 0.534200 0.842800 -0.065600
vn 0.143200 0.980900 0.131800
vn 0.522800 0.840300 0.143300
vn 0.396700 0.663200 0.634600
vn 0.652000 0.405300 0.640800
vn 0.748400 0.025300 -0.662800
vn 0.744700 0.061400 -0.664600
vn 0.922000 0.143100 -0.359600
vn 0.011400 0.992100 0.124700
vn -0.535700 0.841900 -0.064200
vn -0.675100 0.736300 -0.046400
vn -0.884100 0.467200 -0.005800
vn -0.871400 0.490600 -0.008300
vn -0.587100 0.444700 -0.676400
vn -0.602000 0.397900 -0.692200
vn -0.492400 0.761400 -0.421500
vn -0.615300 0.756700 -0.220800
vn -0.945600 0.026600 -0.324300
vn 0.830100 0.396100 -0.392300
vn 0.511300 0.730900 -0.451900
vn -0.817800 0.364000 -0.445800
vn -0.681900 0.439700 -0.584500
vn -0.265100 0.960100 -0.089300
vn -0.290400 0.847400 -0.444500
vn -0.218200 0.905100 -0.364800
vn -0.138000 0.921800 -0.362300
vn -0.340500 0.758500 -0.555700
vn -0.419800 0.721800 -0.550200
vn -0.351500 0.906700 -0.233000
vn -0.575900 0.693000 -0.433600
vn -0.783500 0.587900 -0.201000
vn -0.902500 0.428100 0.046600
vn -0.897100 0.439000 -0.048900
vn -0.918100 0.371800 -0.137200
vn -0.967700 0.233300 0.095500
vn -0.071100 0.637400 -0.767200
vn -0.242200 0.620300 -0.746100
vn -0.043700 0.987200 -0.153200
vn 0.002900 1.000000 0.000200
vn 0.003000 1.000000 -0.000000
vn -0.016600 0.989600 -0.142900
vn -0.195000 0.976400 -0.092500
vn 0.002900 1.000000 0.000300
vn -0.179700 -0.186500 0.965900
vn 0.045300 -0.134600 0.989900
vn -0.336000 0.914900 0.223500
vn -0.530500 0.751400 0.392400
vn -0.776100 0.600100 0.193900
vn -0.886900 0.391700 0.244700
vn -0.406600 0.807400 0.427600
vn 0.728800 0.171500 0.662900
vn 0.417100 0.102100 0.903100
vn -0.012300 0.974700 0.223300
vn -0.009600 0.984400 0.175500
vn 0.116800 0.762600 0.636200
vn 0.059400 0.444600 0.893800
vn 0.229900 0.376700 0.897300
vn 0.371700 0.242600 0.896100
vn 0.131200 0.607900 -0.783100
vn -0.001300 0.910700 0.413100
vn -0.236100 0.887800 0.395000
vn -0.073600 0.991800 0.104900
vn -0.293200 0.810900 0.506500
vn -0.014100 0.762000 0.647400
vn 0.676200 0.229200 -0.700100
vn -0.395900 0.562900 -0.725500
vn 0.425600 0.478500 -0.768000
vn -0.314200 -0.043100 -0.948400
vn -0.224900 -0.243000 -0.943600
vn -0.225100 -0.242500 -0.943700
vn -0.153500 -0.380500 -0.911900
vn -0.018500 0.984600 0.174000
vn -0.019100 0.976400 0.215200
vn -0.998500 -0.028800 0.047500
vn -0.960700 -0.019200 -0.277000
vn -0.436200 0.012200 -0.899700
vn -0.015600 0.999700 0.019400
vn -0.013500 0.999900 0.001000
vn -0.026800 0.999500 -0.013700
vn -0.015800 0.999900 -0.001500
vn -0.043800 0.998500 -0.032700
vn -0.225300 -0.095000 0.969600
vn -0.219400 -0.139900 0.965600
vn 0.000100 0.001200 -1.000000
vn -0.012700 -0.024800 -0.999600
vn -0.006000 -0.011200 -0.999900
vn -0.022000 -0.043900 -0.998800
vn -0.067300 -0.985200 -0.157700
vn 0.169900 0.646400 -0.743800
vn 0.000000 -0.958900 -0.283800
vn -0.270200 -0.187300 0.944400
vn -0.281700 -0.194200 0.939700
vn -0.217200 -0.155500 0.963700
s 1
f 93//1 1//1 2//2 95//2
f 95//2 2//2 3//3 97//3
f 97//3 3//3 4//4 99//4
f 99//4 4//4 5//5 101//6
f 1//7 5//8 4//9 3//9 2//9
f 91//10 211//11 101//6 5//5
f 114//12 6//12 7//13 118//13
f 118//13 7//13 8//14 117//14
f 10//15 116//16 199//17 74//17
f 116//16 10//15 11//4 115//4
f 115//4 11//4 12//17 112//17
f 7//9 6//9 13//9 12//9 11//9 10//9 8//9
f 113//18 13//18 6//12 114//12
f 112//17 12//17 13//18 113//18
f 131//19 137//20 14//21 75//22
f 19//23 23//24 26//25 24//26
f 33//27 18//28 17//29 35//30
f 41//31 40//32 22//33 21//34
f 67//35 56//36 20//37 19//23
f 61//38 56//36 18//28 60//39
f 135//40 37//41 79//42 203//43
f 20//37 69//44 23//24 19//23
f 28//45 36//46 9//47 76//48
f 38//49 138//50 131//51 36//52
f 29//53 28//45 76//48 73//54
f 14//21 137//20 210//55 85//56
f 35//30 17//29 25//57 37//41
f 67//35 19//23 24//26 68//58
f 47//59 159//60 144//61 39//62
f 43//63 28//45 29//53 44//64
f 42//65 30//66 28//67 43//68
f 22//33 40//32 46//69
f 42//65 46//69 31//70 30//66
f 39//62 144//61 138//50 38//49
f 31//70 39//62 38//49 30//66
f 45//71 47//59 39//62 31//70
f 130//72 35//30 37//41 135//40
f 36//46 131//19 75//22 9//47
f 30//66 38//49 36//52 28//67
f 16//73 34//74 32//75 15//76
f 26//25 44//64 83//77 80//78
f 17//29 67//35 68//58 25//57
f 127//79 33//27 35//30 130//72
f 15//76 32//75 47//59 45//71
f 27//80 22//33 46//69 42//65
f 32//81 34//82 48//82 49//81
f 48//17 163//17 164//17 50//17 49//17
f 40//32 15//76 45//71
f 27//80 42//65 43//68 23//83
f 23//84 43//63 44//64 26//25
f 124//85 159//60 47//59
f 16//73 15//76 40//32 41//31
f 45//71 31//70 46//69 40//32
f 47//86 32//81 49//81 50//86
f 124//3 47//3 50//3 164//3
f 34//12 123//12 163//12 48//12
f 52//87 168//88 171//89 54//90
f 55//91 41//31 21//34
f 51//92 52//93 54//94 53//95
f 54//94 171//96 123//96 34//74
f 53//95 16//73 41//31
f 53//95 54//94 34//74 16//73
f 51//92 53//95 41//31 55//91
f 17//29 18//28 56//36 67//35
f 66//97 180//98 175//99 65//100
f 86//101 91//102 5//8 1//7
f 58//103 61//38 62//104 59//105
f 60//39 66//97 65//100 63//106
f 24//26 26//25 80//78 81//107
f 56//36 61//38 58//103 20//37
f 61//38 60//39 63//106 62//104
f 58//103 70//108 69//44 20//37
f 70//109 55//91 21//34 69//110
f 69//110 21//34 22//33 27//80 23//83
f 71//111 51//92 55//91 70//109
f 58//103 59//105 71//112
f 71//111 52//93 51//92
f 18//28 33//27 66//97 60//39
f 58//103 71//112 70//108
f 33//27 127//79 180//98 66//97
f 37//41 25//57 78//113 79//42
f 44//64 29//53 64//114 83//77
f 25//57 68//58 77//115 78//113
f 68//58 24//26 81//107 77//115
f 203//116 79//117 84//118 179//116
f 29//53 73//54 64//114
f 80//119 83//119 64//119 92//119 57//119 84//118 79//117 78//119 77//119 81//119
f 89//120 90//121 91//102 86//101
f 179//122 84//122 89//123 217//124
f 57//125 82//125 88//126 90//127
f 216//128 88//126 87//129 215//130
f 84//131 57//131 90//121 89//120
f 217//124 89//123 86//132 213//133
f 85//56 210//55 215//130 87//129
f 82//134 14//134 85//135 88//136
f 88//136 85//135 87//137
f 88//126 216//128 211//11
f 90//127 88//126 211//11 91//10
f 117//14 8//14 72//138 198//138
f 213//133 86//132 1//1 93//1
f 72//139 65//140 175//141 198//141
f 8//9 10//9 74//9 72//9
f 82//142 57//143 9//144 75//142
f 57//143 92//145 76//145 9//144
f 92//146 64//146 73//146
f 14//147 82//147 75//147
f 92//148 73//148 76//148
f 71//149 74//150 199//151 168//88 52//87
f 62//152 63//152 65//140 72//139 74//150 71//149 59//152
f 93//1 95//2 96//2 94//1
f 95//2 97//3 98//3 96//2
f 97//3 99//4 100//4 98//3
f 99//4 101//6 102//153 100//4
f 94//154 96//155 98//155 100//155 102//156
f 221//157 102//153 101//6 211//11
f 114//12 118//13 104//13 103//12
f 118//13 117//14 105//14 104//13
f 107//15 195//17 199//17 116//16
f 116//16 115//4 108//4 107//15
f 115//4 112//17 109//17 108//4
f 104//155 105//155 107//155 108//155 109//155 110//155 103//155
f 113//18 114//12 103//12 110//18
f 112//17 113//18 110//18 109//17
f 131//19 196//158 111//159 137//20
f 125//160 133//161 136//162 132//163
f 146//164 148//165 121//166 122//167
f 154//168 128//169 129//170 153//171
f 188//172 125//160 126//173 174//174
f 182//175 181//176 122//167 174//174
f 135//40 203//177 202//178 150//179
f 126//173 125//160 132//163 190//180
f 140//181 197//182 106//183 149//184
f 151//185 149//186 131//51 138//50
f 141//187 194//188 197//182 140//181
f 111//159 209//189 210//55 137//20
f 148//165 150//179 134//190 121//166
f 188//172 189//191 133//161 125//160
f 161//192 152//193 144//61 159//60
f 156//194 157//195 141//187 140//181
f 155//196 156//197 140//198 142//199
f 129//170 160//200 153//171
f 155//196 142//199 143//201 160//200
f 152//193 151//185 138//50 144//61
f 143//201 142//199 151//185 152//193
f 158//202 143//201 152//193 161//192
f 130//72 135//40 150//179 148//165
f 149//184 106//183 196//158 131//19
f 142//199 140//198 149//186 151//185
f 120//203 119//204 145//205 147//206
f 136//162 204//207 207//208 157//195
f 121//166 134//190 189//191 188//172
f 127//79 130//72 148//165 146//164
f 119//204 158//202 161//192 145//205
f 139//209 155//196 160//200 129//170
f 145//210 165//210 162//211 147//211
f 162//17 165//17 166//17 164//17 163//17
f 153//171 158//202 119//204
f 139//209 132//212 156//197 155//196
f 132//213 136//162 157//195 156//194
f 124//85 161//192 159//60
f 120//203 154//168 153//171 119//204
f 158//202 153//171 160//200 143//201
f 161//214 166//214 165//210 145//210
f 124//3 164//3 166//3 161//3
f 147//12 162//12 163//12 123//12
f 169//215 172//216 171//89 168//88
f 173//217 128//169 154//168
f 167//218 170//219 172//220 169//221
f 172//220 147//206 123//96 171//96
f 170//219 154//168 120//203
f 170//219 120//203 147//206 172//220
f 167//218 173//217 154//168 170//219
f 121//166 188//172 174//174 122//167
f 187//222 186//223 175//99 180//98
f 212//224 94//154 102//156 221//225
f 177//226 178//227 183//228 182//175
f 181//176 184//229 186//223 187//222
f 133//161 205//230 204//207 136//162
f 174//174 126//173 177//226 182//175
f 182//175 183//228 184//229 181//176
f 177//226 126//173 190//180 191//231
f 191//232 190//233 128//169 173//217
f 190//233 132//212 139//209 129//170 128//169
f 192//234 191//232 173//217 167//218
f 177//226 192//235 178//227
f 192//234 167//218 169//221
f 122//167 181//176 187//222 146//164
f 177//226 191//231 192//235
f 146//164 187//222 180//98 127//79
f 150//179 202//178 201//236 134//190
f 157//195 207//208 185//237 141//187
f 134//190 201//236 200//238 189//191
f 189//191 200//238 205//230 133//161
f 203//239 179//239 208//240 202//241
f 179//9 203//9 135//9
f 141//187 185//237 194//188
f 204//242 205//242 200//242 201//242 202//241 208//240 176//242 222//242 185//242 207//242
f 219//243 212//224 221//225 220//244
f 179//122 217//124 219//123 208//122
f 176//125 220//245 218//246 206//125
f 216//128 215//130 214//247 218//246
f 208//248 219//243 220//244 176//248
f 217//124 213//133 212//132 219//123
f 209//189 214//247 215//130 210//55
f 206//249 218//250 209//251 111//249
f 218//250 214//252 209//251
f 218//246 211//11 216//128
f 220//245 221//157 211//11 218//246
f 117//14 198//138 193//138 105//14
f 213//133 93//1 94//1 212//132
f 193//253 198//141 175//141 186//254
f 105//155 193//155 195//155 107//155
f 206//255 196//255 106//256 176//257
f 176//257 106//256 197//258 222//258
f 222//259 194//259 185//259
f 111//260 196//260 206//260
f 222//261 197//261 194//261
f 192//262 169//215 168//88 199//151 195//263
f 183//264 178//264 192//262 195//263 193//253 186//254 184//264
