####
#
# OBJ File Generated by Meshlab
#
####
# Object tf1_Right_chull.obj
#
# Vertices: 204
# Faces: 68
#
####
vn -0.138678 0.878375 -0.457412
v 0.012297 -0.010910 -0.029768
vn -0.138678 0.878375 -0.457412
v -0.005016 -0.009066 -0.020978
vn -0.138678 0.878375 -0.457412
v -0.001682 -0.008687 -0.021261
vn -0.509958 0.385648 0.768907
v -0.005232 0.007827 -0.029594
vn -0.509958 0.385648 0.768907
v -0.005016 -0.009066 -0.020978
vn -0.509958 0.385648 0.768907
v 0.013372 0.011439 -0.019067
vn 0.724411 -0.606367 -0.327946
v 0.011412 0.006043 -0.029714
vn 0.724411 -0.606367 -0.327946
v 0.016939 0.006177 -0.017753
vn 0.724411 -0.606367 -0.327946
v 0.008396 0.002051 -0.028995
vn 0.315570 0.843723 -0.434219
v 0.012297 -0.010910 -0.029768
vn 0.315570 0.843723 -0.434219
v 0.008201 -0.004265 -0.019833
vn 0.315570 0.843723 -0.434219
v 0.013923 -0.006031 -0.019106
vn 0.049921 0.998611 0.016847
v 0.012081 -0.005801 -0.027281
vn 0.049921 0.998611 0.016847
v 0.013923 -0.006031 -0.019106
vn 0.049921 0.998611 0.016847
v 0.022860 -0.006350 -0.026679
vn 0.054938 0.995614 -0.075731
v 0.012081 -0.005801 -0.027281
vn 0.054938 0.995614 -0.075731
v 0.022860 -0.006350 -0.026679
vn 0.054938 0.995614 -0.075731
v 0.031493 -0.007023 -0.029264
vn -0.001262 -0.010466 0.999944
v -0.002234 -0.000082 -0.029673
vn -0.001262 -0.010466 0.999944
v 0.012297 -0.010910 -0.029768
vn -0.001262 -0.010466 0.999944
v -0.005232 0.007827 -0.029594
vn 0.443534 -0.311748 -0.840292
v 0.000015 0.001302 -0.022169
vn 0.443534 -0.311748 -0.840292
v -0.005016 -0.009066 -0.020978
vn 0.443534 -0.311748 -0.840292
v -0.008581 -0.003165 -0.025049
vn 0.877329 -0.403626 -0.259575
v 0.008396 0.002051 -0.028995
vn 0.877329 -0.403626 -0.259575
v 0.010349 -0.000881 -0.017835
vn 0.877329 -0.403626 -0.259575
v 0.008201 -0.004265 -0.019833
vn 0.166434 -0.736994 -0.655087
v 0.031493 -0.007023 -0.029264
vn 0.166434 -0.736994 -0.655087
v 0.023983 -0.011430 -0.026214
vn 0.166434 -0.736994 -0.655087
v 0.012297 -0.010910 -0.029768
vn -0.082867 -0.995516 0.045627
v -0.005016 -0.009066 -0.020978
vn -0.082867 -0.995516 0.045627
v 0.012297 -0.010910 -0.029768
vn -0.082867 -0.995516 0.045627
v 0.021737 -0.011430 -0.023969
vn -0.398145 -0.802396 -0.444569
v -0.008581 -0.003165 -0.025049
vn -0.398145 -0.802396 -0.444569
v 0.012297 -0.010910 -0.029768
vn -0.398145 -0.802396 -0.444569
v -0.001682 -0.008687 -0.021261
vn -0.608334 0.652731 -0.451521
v 0.012081 -0.005801 -0.027281
vn -0.608334 0.652731 -0.451521
v 0.008201 -0.004265 -0.019833
vn -0.608334 0.652731 -0.451521
v 0.010349 -0.000881 -0.017835
vn 0.704713 -0.656932 0.267992
v 0.008396 0.002051 -0.028995
vn 0.704713 -0.656932 0.267992
v 0.013372 0.011439 -0.019067
vn 0.704713 -0.656932 0.267992
v -0.005016 -0.009066 -0.020978
vn -0.075571 -0.077527 -0.994122
v 0.000015 0.001302 -0.022169
vn -0.075571 -0.077527 -0.994122
v -0.001682 -0.008687 -0.021261
vn -0.075571 -0.077527 -0.994122
v -0.005016 -0.009066 -0.020978
vn 0.453418 -0.890845 0.028410
v -0.008581 -0.003165 -0.025049
vn 0.453418 -0.890845 0.028410
v -0.002234 -0.000082 -0.029673
vn 0.453418 -0.890845 0.028410
v 0.000015 0.001302 -0.022169
vn -0.309632 -0.281235 -0.908314
v 0.012297 -0.010910 -0.029768
vn -0.309632 -0.281235 -0.908314
v -0.008581 -0.003165 -0.025049
vn -0.309632 -0.281235 -0.908314
v -0.005232 0.007827 -0.029594
vn -0.261885 0.435833 0.861084
v -0.005232 0.007827 -0.029594
vn -0.261885 0.435833 0.861084
v -0.008581 -0.003165 -0.025049
vn -0.261885 0.435833 0.861084
v -0.005016 -0.009066 -0.020978
vn -0.205895 0.920784 0.331307
v 0.008396 0.002051 -0.028995
vn -0.205895 0.920784 0.331307
v -0.002234 -0.000082 -0.029673
vn -0.205895 0.920784 0.331307
v -0.008581 -0.003165 -0.025049
vn 0.048671 0.074055 -0.996066
v -0.002234 -0.000082 -0.029673
vn 0.048671 0.074055 -0.996066
v 0.008396 0.002051 -0.028995
vn 0.048671 0.074055 -0.996066
v 0.012297 -0.010910 -0.029768
vn -0.985772 -0.029220 -0.165530
v 0.011614 0.001513 -0.025791
vn -0.985772 -0.029220 -0.165530
v 0.012081 -0.005801 -0.027281
vn -0.985772 -0.029220 -0.165530
v 0.010349 -0.000881 -0.017835
vn 0.091133 0.881407 -0.463482
v -0.005232 0.007827 -0.029594
vn 0.091133 0.881407 -0.463482
v 0.013372 0.011439 -0.019067
vn 0.091133 0.881407 -0.463482
v 0.011412 0.006043 -0.029714
vn -0.449365 -0.027690 -0.892919
v -0.005016 -0.009066 -0.020978
vn -0.449365 -0.027690 -0.892919
v 0.011412 0.006043 -0.029714
vn -0.449365 -0.027690 -0.892919
v 0.011800 -0.004478 -0.029583
vn -0.107660 0.059706 0.992393
v -0.005016 -0.009066 -0.020978
vn -0.107660 0.059706 0.992393
v 0.013923 -0.006031 -0.019106
vn -0.107660 0.059706 0.992393
v 0.008201 -0.004265 -0.019833
vn -0.697792 -0.312008 0.644777
v 0.013372 0.011439 -0.019067
vn -0.697792 -0.312008 0.644777
v 0.008396 0.002051 -0.028995
vn -0.697792 -0.312008 0.644777
v 0.016939 0.006177 -0.017753
vn 0.420883 0.138701 0.896448
v -0.005016 -0.009066 -0.020978
vn 0.420883 0.138701 0.896448
v 0.011800 -0.004478 -0.029583
vn 0.420883 0.138701 0.896448
v 0.008396 0.002051 -0.028995
vn -0.885024 -0.464383 0.032875
v 0.011800 -0.004478 -0.029583
vn -0.885024 -0.464383 0.032875
v 0.010349 -0.000881 -0.017835
vn -0.885024 -0.464383 0.032875
v 0.008396 0.002051 -0.028995
vn 0.350894 0.443775 0.824583
v 0.032559 0.010696 -0.026832
vn 0.350894 0.443775 0.824583
v 0.013372 0.011439 -0.019067
vn 0.350894 0.443775 0.824583
v 0.016939 0.006177 -0.017753
vn 0.356455 -0.921427 0.154632
v 0.016939 0.006177 -0.017753
vn 0.356455 -0.921427 0.154632
v 0.020766 0.006154 -0.026712
vn 0.356455 -0.921427 0.154632
v 0.032559 0.010696 -0.026832
vn -0.326027 0.765121 0.555244
v 0.011614 0.001513 -0.025791
vn -0.326027 0.765121 0.555244
v -0.005016 -0.009066 -0.020978
vn -0.326027 0.765121 0.555244
v 0.008201 -0.004265 -0.019833
vn -0.633070 0.037267 -0.773197
v -0.001682 -0.008687 -0.021261
vn -0.633070 0.037267 -0.773197
v 0.000015 0.001302 -0.022169
vn -0.633070 0.037267 -0.773197
v 0.008396 0.002051 -0.028995
vn 0.701079 -0.531920 0.474921
v 0.008201 -0.004265 -0.019833
vn 0.701079 -0.531920 0.474921
v 0.012081 -0.005801 -0.027281
vn 0.701079 -0.531920 0.474921
v 0.020766 0.006154 -0.026712
vn 0.193423 0.313744 0.929598
v 0.031493 -0.007023 -0.029264
vn 0.193423 0.313744 0.929598
v -0.005016 -0.009066 -0.020978
vn 0.193423 0.313744 0.929598
v 0.023983 -0.011430 -0.026214
vn 0.012795 0.576454 0.817030
v 0.008396 0.002051 -0.028995
vn 0.012795 0.576454 0.817030
v -0.008581 -0.003165 -0.025049
vn 0.012795 0.576454 0.817030
v -0.001682 -0.008687 -0.021261
vn -0.064411 0.434573 -0.898330
v 0.012081 -0.005801 -0.027281
vn -0.064411 0.434573 -0.898330
v 0.031493 -0.007023 -0.029264
vn -0.064411 0.434573 -0.898330
v 0.012297 -0.010910 -0.029768
vn 0.141522 -0.143518 0.979477
v 0.013923 -0.006031 -0.019106
vn 0.141522 -0.143518 0.979477
v 0.016939 0.006177 -0.017753
vn 0.141522 -0.143518 0.979477
v 0.010349 -0.000881 -0.017835
vn -0.683408 -0.709919 -0.170202
v 0.020766 0.006154 -0.026712
vn -0.683408 -0.709919 -0.170202
v 0.013372 0.011439 -0.019067
vn -0.683408 -0.709919 -0.170202
v 0.020264 0.008321 -0.033735
vn -0.056706 0.970819 -0.233013
v 0.020264 0.008321 -0.033735
vn -0.056706 0.970819 -0.233013
v 0.013372 0.011439 -0.019067
vn -0.056706 0.970819 -0.233013
v 0.032559 0.010696 -0.026832
vn 0.774772 0.585052 0.239674
v 0.016939 0.006177 -0.017753
vn 0.774772 0.585052 0.239674
v 0.020264 0.008321 -0.033735
vn 0.774772 0.585052 0.239674
v 0.013372 0.011439 -0.019067
vn 0.690290 0.215812 0.690598
v 0.022860 -0.006350 -0.026679
vn 0.690290 0.215812 0.690598
v 0.021737 -0.011430 -0.023969
vn 0.690290 0.215812 0.690598
v 0.023983 -0.011430 -0.026214
vn -0.034078 -0.998838 -0.034093
v 0.012297 -0.010910 -0.029768
vn -0.034078 -0.998838 -0.034093
v 0.023983 -0.011430 -0.026214
vn -0.034078 -0.998838 -0.034093
v 0.021737 -0.011430 -0.023969
vn -0.575010 0.581749 -0.575267
v 0.031493 -0.007023 -0.029264
vn -0.575010 0.581749 -0.575267
v 0.023983 -0.011430 -0.026214
vn -0.575010 0.581749 -0.575267
v 0.021737 -0.011430 -0.023969
vn 0.098521 0.990242 0.098565
v -0.005016 -0.009066 -0.020978
vn 0.098521 0.990242 0.098565
v 0.021737 -0.011430 -0.023969
vn 0.098521 0.990242 0.098565
v 0.023983 -0.011430 -0.026214
vn 0.516556 0.827897 0.218531
v 0.016939 0.006177 -0.017753
vn 0.516556 0.827897 0.218531
v 0.020766 0.006154 -0.026712
vn 0.516556 0.827897 0.218531
v 0.020264 0.008321 -0.033735
vn 0.294356 0.151446 0.943620
v 0.031493 -0.007023 -0.029264
vn 0.294356 0.151446 0.943620
v 0.022860 -0.006350 -0.026679
vn 0.294356 0.151446 0.943620
v 0.023983 -0.011430 -0.026214
vn 0.100245 0.992016 0.076513
v 0.013923 -0.006031 -0.019106
vn 0.100245 0.992016 0.076513
v 0.031493 -0.007023 -0.029264
vn 0.100245 0.992016 0.076513
v 0.022860 -0.006350 -0.026679
vn -0.291416 -0.399304 -0.869271
v 0.022860 -0.006350 -0.026679
vn -0.291416 -0.399304 -0.869271
v 0.031493 -0.007023 -0.029264
vn -0.291416 -0.399304 -0.869271
v 0.021737 -0.011430 -0.023969
vn 0.340271 -0.891400 -0.299371
v 0.020766 0.006154 -0.026712
vn 0.340271 -0.891400 -0.299371
v 0.020264 0.008321 -0.033735
vn 0.340271 -0.891400 -0.299371
v 0.032559 0.010696 -0.026832
vn 0.107573 -0.947809 -0.300143
v 0.020766 0.006154 -0.026712
vn 0.107573 -0.947809 -0.300143
v 0.011412 0.006043 -0.029714
vn 0.107573 -0.947809 -0.300143
v 0.020264 0.008321 -0.033735
vn -0.382705 0.850578 -0.360629
v 0.020264 0.008321 -0.033735
vn -0.382705 0.850578 -0.360629
v 0.011412 0.006043 -0.029714
vn -0.382705 0.850578 -0.360629
v 0.013372 0.011439 -0.019067
vn 0.121579 -0.945328 0.302610
v -0.005016 -0.009066 -0.020978
vn 0.121579 -0.945328 0.302610
v 0.031493 -0.007023 -0.029264
vn 0.121579 -0.945328 0.302610
v 0.013923 -0.006031 -0.019106
vn 0.302732 -0.175340 -0.936808
v 0.012081 -0.005801 -0.027281
vn 0.302732 -0.175340 -0.936808
v 0.011412 0.006043 -0.029714
vn 0.302732 -0.175340 -0.936808
v 0.020766 0.006154 -0.026712
vn -0.348414 0.315055 0.882807
v 0.010349 -0.000881 -0.017835
vn -0.348414 0.315055 0.882807
v 0.016939 0.006177 -0.017753
vn -0.348414 0.315055 0.882807
v -0.005016 -0.009066 -0.020978
vn 0.490804 -0.852775 -0.178567
v 0.011614 0.001513 -0.025791
vn 0.490804 -0.852775 -0.178567
v 0.010349 -0.000881 -0.017835
vn 0.490804 -0.852775 -0.178567
v -0.005016 -0.009066 -0.020978
vn 0.952326 -0.210834 -0.220511
v 0.013923 -0.006031 -0.019106
vn 0.952326 -0.210834 -0.220511
v 0.012081 -0.005801 -0.027281
vn 0.952326 -0.210834 -0.220511
v 0.016939 0.006177 -0.017753
vn -0.322941 -0.812318 -0.485643
v 0.008396 0.002051 -0.028995
vn -0.322941 -0.812318 -0.485643
v 0.000015 0.001302 -0.022169
vn -0.322941 -0.812318 -0.485643
v -0.005232 0.007827 -0.029594
vn 0.882633 0.337837 -0.326840
v 0.000015 0.001302 -0.022169
vn 0.882633 0.337837 -0.326840
v -0.002234 -0.000082 -0.029673
vn 0.882633 0.337837 -0.326840
v -0.005232 0.007827 -0.029594
vn -0.332465 0.765061 0.551497
v 0.008201 -0.004265 -0.019833
vn -0.332465 0.765061 0.551497
v 0.020766 0.006154 -0.026712
vn -0.332465 0.765061 0.551497
v 0.011614 0.001513 -0.025791
vn 0.993979 0.078989 -0.075936
v 0.011800 -0.004478 -0.029583
vn 0.993979 0.078989 -0.075936
v 0.012081 -0.005801 -0.027281
vn 0.993979 0.078989 -0.075936
v 0.012297 -0.010910 -0.029768
vn 0.994255 0.035409 -0.101016
v 0.011800 -0.004478 -0.029583
vn 0.994255 0.035409 -0.101016
v 0.011412 0.006043 -0.029714
vn 0.994255 0.035409 -0.101016
v 0.012081 -0.005801 -0.027281
vn -0.746292 -0.585128 -0.317290
v 0.020766 0.006154 -0.026712
vn -0.746292 -0.585128 -0.317290
v 0.016939 0.006177 -0.017753
vn -0.746292 -0.585128 -0.317290
v 0.013372 0.011439 -0.019067
vn -0.576306 0.775569 0.257614
v -0.005016 -0.009066 -0.020978
vn -0.576306 0.775569 0.257614
v 0.016939 0.006177 -0.017753
vn -0.576306 0.775569 0.257614
v 0.011412 0.006043 -0.029714
vn -0.979128 -0.081018 0.186396
v 0.012297 -0.010910 -0.029768
vn -0.979128 -0.081018 0.186396
v 0.013923 -0.006031 -0.019106
vn -0.979128 -0.081018 0.186396
v 0.011800 -0.004478 -0.029583
vn -0.024208 -0.159463 -0.986907
v 0.011412 0.006043 -0.029714
vn -0.024208 -0.159463 -0.986907
v 0.008396 0.002051 -0.028995
vn -0.024208 -0.159463 -0.986907
v -0.005232 0.007827 -0.029594
vn 0.940240 0.270671 0.206604
v 0.008396 0.002051 -0.028995
vn 0.940240 0.270671 0.206604
v 0.008201 -0.004265 -0.019833
vn 0.940240 0.270671 0.206604
v 0.012297 -0.010910 -0.029768
vn 0.771481 0.173938 -0.612015
v 0.012081 -0.005801 -0.027281
vn 0.771481 0.173938 -0.612015
v 0.011614 0.001513 -0.025791
vn 0.771481 0.173938 -0.612015
v 0.016939 0.006177 -0.017753
vn 0.459093 -0.865967 0.198333
v 0.016939 0.006177 -0.017753
vn 0.459093 -0.865967 0.198333
v 0.011614 0.001513 -0.025791
vn 0.459093 -0.865967 0.198333
v 0.020766 0.006154 -0.026712
vn -0.809934 -0.581317 0.077952
v 0.011800 -0.004478 -0.029583
vn -0.809934 -0.581317 0.077952
v 0.013923 -0.006031 -0.019106
vn -0.809934 -0.581317 0.077952
v 0.010349 -0.000881 -0.017835
# 204 vertices, 0 vertices normals

f 1//1 2//2 3//3
f 4//4 5//5 6//6
f 7//7 8//8 9//9
f 10//10 11//11 12//12
f 13//13 14//14 15//15
f 16//16 17//17 18//18
f 19//19 20//20 21//21
f 22//22 23//23 24//24
f 25//25 26//26 27//27
f 28//28 29//29 30//30
f 31//31 32//32 33//33
f 34//34 35//35 36//36
f 37//37 38//38 39//39
f 40//40 41//41 42//42
f 43//43 44//44 45//45
f 46//46 47//47 48//48
f 49//49 50//50 51//51
f 52//52 53//53 54//54
f 55//55 56//56 57//57
f 58//58 59//59 60//60
f 61//61 62//62 63//63
f 64//64 65//65 66//66
f 67//67 68//68 69//69
f 70//70 71//71 72//72
f 73//73 74//74 75//75
f 76//76 77//77 78//78
f 79//79 80//80 81//81
f 82//82 83//83 84//84
f 85//85 86//86 87//87
f 88//88 89//89 90//90
f 91//91 92//92 93//93
f 94//94 95//95 96//96
f 97//97 98//98 99//99
f 100//100 101//101 102//102
f 103//103 104//104 105//105
f 106//106 107//107 108//108
f 109//109 110//110 111//111
f 112//112 113//113 114//114
f 115//115 116//116 117//117
f 118//118 119//119 120//120
f 121//121 122//122 123//123
f 124//124 125//125 126//126
f 127//127 128//128 129//129
f 130//130 131//131 132//132
f 133//133 134//134 135//135
f 136//136 137//137 138//138
f 139//139 140//140 141//141
f 142//142 143//143 144//144
f 145//145 146//146 147//147
f 148//148 149//149 150//150
f 151//151 152//152 153//153
f 154//154 155//155 156//156
f 157//157 158//158 159//159
f 160//160 161//161 162//162
f 163//163 164//164 165//165
f 166//166 167//167 168//168
f 169//169 170//170 171//171
f 172//172 173//173 174//174
f 175//175 176//176 177//177
f 178//178 179//179 180//180
f 181//181 182//182 183//183
f 184//184 185//185 186//186
f 187//187 188//188 189//189
f 190//190 191//191 192//192
f 193//193 194//194 195//195
f 196//196 197//197 198//198
f 199//199 200//200 201//201
f 202//202 203//203 204//204
# 68 faces, 0 coords texture

# End of File