####
#
# OBJ File Generated by Meshlab
#
####
# Object foot_Left_7_5_degrees_new.obj
#
# Vertices: 134
# Faces: 264
#
####
vn 0.410961 3.723566 2.976638
v 0.094368 0.075178 -0.019999 0.752941 0.752941 0.752941
vn 0.696375 -2.759907 2.985167
v 0.024507 -0.076265 0.010837 0.752941 0.752941 0.752941
vn 5.651822 0.302804 1.835487
v 0.201978 0.035513 -0.034903 0.752941 0.752941 0.752941
vn 0.311424 -3.707322 2.968601
v 0.090998 -0.077190 -0.019970 0.752941 0.752941 0.752941
vn 5.693821 -0.459993 1.763591
v 0.200851 -0.040678 -0.035051 0.752941 0.752941 0.752941
vn 0.811659 2.765739 2.998428
v 0.028078 0.076100 0.010564 0.752941 0.752941 0.752941
vn -0.601358 -3.025200 -2.780969
v -0.034636 -0.075208 -0.083236 0.752941 0.752941 0.752941
vn -2.992281 -0.640308 -2.688253
v -0.059632 -0.050981 -0.083189 0.752941 0.752941 0.752941
vn -3.012849 0.657821 -2.754067
v -0.058155 0.052154 -0.082989 0.752941 0.752941 0.752941
vn -0.556607 3.036401 -2.747171
v -0.032383 0.077176 -0.082939 0.752941 0.752941 0.752941
vn 3.019351 -0.624260 -2.762221
v 0.194315 -0.053189 -0.083191 0.752941 0.752941 0.752941
vn 0.556201 -3.024953 -2.750548
v 0.168543 -0.078211 -0.083239 0.752941 0.752941 0.752941
vn -0.509252 -2.746138 3.039700
v 0.007769 -0.076019 0.011568 0.752941 0.752941 0.752941
vn -4.236301 0.431794 3.213656
v 0.128550 -0.039007 -0.004193 0.752941 0.752941 0.752941
vn 0.578285 3.046075 -2.797746
v 0.170795 0.074172 -0.082942 0.752941 0.752941 0.752941
vn 2.993167 0.649088 -2.688488
v 0.195791 0.049945 -0.082989 0.752941 0.752941 0.752941
vn -4.243114 -0.269880 3.192462
v 0.129657 0.036007 -0.004040 0.752941 0.752941 0.752941
vn -0.362259 2.739472 3.056149
v 0.010021 0.076364 0.011865 0.752941 0.752941 0.752941
vn -0.587937 -5.462040 -2.368619
v -0.034635 -0.075213 -0.074001 0.752941 0.752941 0.752941
vn -4.747693 -0.813619 -3.035926
v -0.059632 -0.050977 -0.078110 0.752941 0.752941 0.752941
vn -5.911113 -1.503260 -0.071341
v -0.068136 -0.064748 -0.063531 0.752941 0.752941 0.752941
vn -1.205708 -5.989295 -0.402755
v -0.056365 -0.074925 -0.063551 0.752941 0.752941 0.752941
vn -0.986550 6.033897 -0.413859
v -0.054113 0.077458 -0.063254 0.752941 0.752941 0.752941
vn -5.815844 1.652487 -0.392070
v -0.066180 0.067634 -0.063274 0.752941 0.752941 0.752941
vn -4.543612 0.931899 -3.111858
v -0.058155 0.052157 -0.077908 0.752941 0.752941 0.752941
vn -0.467620 5.452620 -2.407670
v -0.032383 0.077171 -0.073807 0.752941 0.752941 0.752941
vn 5.149075 1.952157 -0.182498
v 0.202380 0.062748 -0.056701 0.752941 0.752941 0.752941
vn 0.556811 6.175419 -0.200778
v 0.177144 0.074040 -0.063258 0.752941 0.752941 0.752941
vn 0.685597 5.483760 -2.312506
v 0.170795 0.074167 -0.073707 0.752941 0.752941 0.752941
vn 5.004284 0.704884 -2.865113
v 0.195791 0.049940 -0.073743 0.752941 0.752941 0.752941
vn 0.280362 -6.210281 -0.340889
v 0.174892 -0.078343 -0.063555 0.752941 0.752941 0.752941
vn 4.938826 -2.208863 0.005865
v 0.200450 -0.067828 -0.056955 0.752941 0.752941 0.752941
vn 5.016636 -0.749751 -2.798836
v 0.194315 -0.053194 -0.073943 0.752941 0.752941 0.752941
vn 0.567649 -5.453250 -2.396606
v 0.168543 -0.078216 -0.074022 0.752941 0.752941 0.752941
vn 5.428624 -1.481769 1.519992
v 0.200584 -0.058837 -0.042286 0.752941 0.752941 0.752941
vn -3.978608 1.313923 3.308473
v 0.122634 -0.054635 -0.007844 0.752941 0.752941 0.752941
vn 2.204125 -4.830463 0.695149
v 0.191024 -0.077539 -0.056942 0.752941 0.752941 0.752941
vn -2.632373 3.038207 3.258301
v 0.109051 -0.064346 -0.016373 0.752941 0.752941 0.752941
vn 3.548906 -3.533970 -2.989580
v 0.186851 -0.071172 -0.076229 0.752941 0.752941 0.752941
vn 2.017014 -2.107396 -2.452471
v 0.186612 -0.071038 -0.083225 0.752941 0.752941 0.752941
vn 2.050004 2.113409 -2.479175
v 0.187543 0.067534 -0.082955 0.752941 0.752941 0.752941
vn 2.596548 4.515362 0.829022
v 0.194936 0.071804 -0.054068 0.752941 0.752941 0.752941
vn 5.562931 1.141887 1.529675
v 0.202246 0.053611 -0.041986 0.752941 0.752941 0.752941
vn 3.211810 3.930523 -2.910710
v 0.187394 0.067997 -0.076020 0.752941 0.752941 0.752941
vn -2.583089 -3.014960 3.291865
v 0.109080 0.062433 -0.017162 0.752941 0.752941 0.752941
vn -3.990399 -1.114557 3.335994
v 0.125083 0.050337 -0.007072 0.752941 0.752941 0.752941
vn 3.731362 0.777897 4.399381
v 0.196479 0.035578 -0.026271 0.752941 0.752941 0.752941
vn 3.040362 -3.097383 3.296452
v 0.194205 -0.063492 -0.034535 0.752941 0.752941 0.752941
vn 3.776054 -0.850766 4.326268
v 0.195815 -0.040620 -0.026650 0.752941 0.752941 0.752941
vn 3.202416 2.972905 3.208355
v 0.196788 0.059901 -0.035934 0.752941 0.752941 0.752941
vn -0.752319 -5.857283 1.402022
v -0.056360 -0.074586 -0.066264 0.752941 0.752941 0.752941
vn -5.810752 -1.349574 1.483589
v -0.068021 -0.064725 -0.065979 0.752941 0.752941 0.752941
vn -0.744462 5.924762 1.225918
v -0.054118 0.077131 -0.065775 0.752941 0.752941 0.752941
vn -5.818098 1.302311 1.426537
v -0.065974 0.067599 -0.065414 0.752941 0.752941 0.752941
vn 5.290120 2.551162 0.943037
v 0.200554 0.063250 -0.063394 0.752941 0.752941 0.752941
vn 0.484235 5.965017 1.072764
v 0.177140 0.073731 -0.065684 0.752941 0.752941 0.752941
vn 0.337617 -5.969291 1.038140
v 0.174897 -0.078006 -0.066075 0.752941 0.752941 0.752941
vn 5.295166 -2.450806 1.185718
v 0.198612 -0.068241 -0.063852 0.752941 0.752941 0.752941
vn 2.881617 -5.256679 0.914295
v 0.192248 -0.075709 -0.065293 0.752941 0.752941 0.752941
vn 2.287376 5.538109 1.166952
v 0.192024 0.071782 -0.065413 0.752941 0.752941 0.752941
vn -2.754776 3.630659 -3.326383
v -0.050452 0.069992 -0.077671 0.752941 0.752941 0.752941
vn -2.022418 2.086855 -2.353081
v -0.050451 0.070002 -0.082954 0.752941 0.752941 0.752941
vn 0.325191 -1.677491 4.493567
v -0.055596 0.066477 -0.010745 0.752941 0.752941 0.752941
vn -3.666965 4.585600 1.129215
v -0.062244 0.074480 -0.063441 0.752941 0.752941 0.752941
vn -4.019379 -4.272105 1.171781
v -0.064611 -0.071511 -0.063725 0.752941 0.752941 0.752941
vn 0.378495 1.675990 4.491100
v -0.057329 -0.064359 -0.011056 0.752941 0.752941 0.752941
vn -2.000995 -2.121987 -2.390620
v -0.051384 -0.068569 -0.083224 0.752941 0.752941 0.752941
vn -2.677559 -3.778660 -3.267215
v -0.051384 -0.068580 -0.077615 0.752941 0.752941 0.752941
vn -3.223458 -1.185034 -0.881854
v -0.070190 -0.068783 -0.071154 0.752941 0.752941 0.752941
vn -0.929720 3.706911 -0.795460
v -0.058100 0.079798 -0.071146 0.752941 0.752941 0.752941
vn 3.487947 1.111514 -0.590672
v 0.203436 0.062872 -0.067594 0.752941 0.752941 0.752941
vn 0.529067 -4.433229 -1.020381
v 0.176607 -0.080604 -0.071301 0.752941 0.752941 0.752941
vn 1.928936 -3.222547 -1.235194
v 0.192490 -0.077709 -0.070401 0.752941 0.752941 0.752941
vn 2.148756 3.169796 -1.019242
v 0.194711 0.072916 -0.070005 0.752941 0.752941 0.752941
vn -0.894967 -3.946186 -0.950371
v -0.060387 -0.077125 -0.071242 0.752941 0.752941 0.752941
vn -3.452443 1.218604 -1.172891
v -0.068125 0.071760 -0.071058 0.752941 0.752941 0.752941
vn 0.590956 4.568922 -1.060537
v 0.177122 0.076330 -0.070940 0.752941 0.752941 0.752941
vn 3.210848 -1.209781 -0.629485
v 0.201485 -0.068517 -0.067954 0.752941 0.752941 0.752941
vn -2.165408 2.520526 -1.073343
v -0.065051 0.076973 -0.071232 0.752941 0.752941 0.752941
vn -2.344330 -2.219733 -1.113174
v -0.067286 -0.074084 -0.071526 0.752941 0.752941 0.752941
vn -5.107169 0.069591 -2.611592
v -0.058894 0.000587 -0.083089 0.752941 0.752941 0.752941
vn -4.345400 0.009028 -3.074679
v -0.059160 0.001353 -0.078007 0.752941 0.752941 0.752941
vn 2.098709 -0.068325 3.204034
v -0.062454 0.004376 -0.010048 0.752941 0.752941 0.752941
vn -4.179425 0.019421 2.681941
v -0.067159 0.001443 -0.063402 0.752941 0.752941 0.752941
vn -3.892654 0.091185 4.168184
v -0.072756 0.001437 -0.065328 0.752941 0.752941 0.752941
vn -3.893847 0.019286 -1.446984
v -0.075617 0.001584 -0.071397 0.752941 0.752941 0.752941
vn -0.540478 -3.262932 3.503531
v 0.112350 -0.074958 -0.014938 0.752941 0.752941 0.752941
vn 0.196504 3.847665 3.053109
v 0.090569 -0.066254 -0.020202 0.752941 0.752941 0.752941
vn 0.778694 2.729340 2.995433
v 0.024671 -0.065339 0.010852 0.752941 0.752941 0.752941
vn 0.026863 2.212697 4.555324
v 0.133378 0.057544 -0.003671 0.752941 0.752941 0.752941
vn 0.327668 0.634000 5.486515
v 0.139778 0.037916 0.000153 0.752941 0.752941 0.752941
vn 0.091755 -3.876890 3.022754
v 0.093682 0.064261 -0.020230 0.752941 0.752941 0.752941
vn 0.730264 -2.797034 2.987624
v 0.027916 0.065174 0.010549 0.752941 0.752941 0.752941
vn -0.428816 2.752282 3.047980
v 0.007937 -0.065093 0.011583 0.752941 0.752941 0.752941
vn -2.567326 -2.510147 2.376922
v -0.065170 -0.072381 -0.013553 0.752941 0.752941 0.752941
vn -3.545628 -0.950643 2.584012
v -0.067700 -0.067496 -0.013544 0.752941 0.752941 0.752941
vn -2.573774 2.515011 2.395393
v -0.063374 0.074602 -0.013268 0.752941 0.752941 0.752941
vn -1.300683 3.589847 2.511737
v -0.057752 0.077358 -0.012760 0.752941 0.752941 0.752941
vn 0.310677 -0.680468 5.481978
v 0.138606 -0.041377 -0.000001 0.752941 0.752941 0.752941
vn -0.040315 -2.299372 4.528495
v 0.130586 -0.062163 -0.004495 0.752941 0.752941 0.752941
vn -0.439280 -2.734537 3.046867
v 0.009864 0.065438 0.011853 0.752941 0.752941 0.752941
vn -1.375430 -3.559358 2.492135
v -0.060327 -0.074865 -0.013175 0.752941 0.752941 0.752941
vn -3.999318 -0.023835 2.557632
v -0.072894 0.004580 -0.013403 0.752941 0.752941 0.752941
vn -0.434457 3.283172 3.412790
v 0.112623 0.072988 -0.015755 0.752941 0.752941 0.752941
vn -3.568133 1.111441 2.688621
v -0.065666 0.070174 -0.013276 0.752941 0.752941 0.752941
vn 0.766641 2.684817 2.328826
v 0.019365 0.028997 0.017819 0.752941 0.752941 0.752941
vn 0.871656 3.177983 4.104756
v 0.024031 0.028983 -0.024851 0.752941 0.752941 0.752941
vn 0.048986 2.631361 3.105782
v 0.025046 -0.065267 -0.030981 0.752941 0.752941 0.752941
vn 0.033434 2.618279 3.107456
v 0.008313 -0.065020 -0.030980 0.752941 0.752941 0.752941
vn -1.084975 2.825513 2.598306
v 0.109427 -0.064328 -0.030978 0.752941 0.752941 0.752941
vn -2.439156 -1.729069 2.486814
v 0.125459 0.050373 -0.030754 0.752941 0.752941 0.752941
vn -3.062686 -0.458460 2.774206
v 0.130031 0.036049 -0.030782 0.752941 0.752941 0.752941
vn -2.177583 1.858290 4.234174
v -0.035087 0.023328 -0.029572 0.752941 0.752941 0.752941
vn -3.034302 0.573678 2.750865
v 0.128926 -0.038965 -0.030928 0.752941 0.752941 0.752941
vn -2.377504 1.821745 2.514164
v 0.123009 -0.054600 -0.030959 0.752941 0.752941 0.752941
vn -2.018277 -1.620875 4.367524
v -0.037156 -0.022410 -0.029704 0.752941 0.752941 0.752941
vn -3.077211 0.230960 2.997751
v -0.038082 0.003926 -0.030847 0.752941 0.752941 0.752941
vn -1.136336 -2.812784 2.583993
v 0.109455 0.062450 -0.030731 0.752941 0.752941 0.752941
vn -0.025172 3.007213 3.015208
v 0.090944 -0.066243 -0.030981 0.752941 0.752941 0.752941
vn -0.089195 -3.022915 3.022432
v 0.094057 0.064271 -0.030728 0.752941 0.752941 0.752941
vn 0.995070 -3.179364 4.118298
v 0.024031 -0.028983 -0.024851 0.752941 0.752941 0.752941
vn -0.038881 -2.639529 3.095565
v 0.028292 0.065244 -0.030727 0.752941 0.752941 0.752941
vn 0.759900 -2.685405 2.316604
v 0.019365 -0.028969 0.017819 0.752941 0.752941 0.752941
vn -0.149487 -2.781634 3.111356
v 0.010240 0.065511 -0.030726 0.752941 0.752941 0.752941
vn 1.526235 1.619237 1.695192
v -0.057301 -0.063954 -0.030979 0.752941 0.752941 0.752941
vn 1.511236 -1.756878 1.719212
v -0.054993 0.066421 -0.030726 0.752941 0.752941 0.752941
vn 3.096336 -0.035770 3.017948
v -0.062078 0.004407 -0.030847 0.752941 0.752941 0.752941
vn -3.478241 0.212207 2.577810
v -0.042748 0.003940 0.011823 0.752941 0.752941 0.752941
vn -1.850294 -1.557348 1.523903
v -0.041822 -0.022396 0.012966 0.752941 0.752941 0.752941
vn -1.775478 1.677844 1.635702
v -0.039753 0.023342 0.013098 0.752941 0.752941 0.752941
vn 3.079744 -1.340093 4.127801
v 0.037583 -0.014472 -0.022894 0.752941 0.752941 0.752941
vn 2.339687 -1.061295 2.654241
v 0.032916 -0.014458 0.019776 0.752941 0.752941 0.752941
vn 2.338217 1.063097 2.652033
v 0.032916 0.014525 0.019776 0.752941 0.752941 0.752941
vn 3.059819 1.314906 4.134874
v 0.037583 0.014511 -0.022894 0.752941 0.752941 0.752941
# 134 vertices, 0 vertices normals

f 78//78 33//33 30//30
f 78//78 30//30 71//71
f 18//18 6//6 1//1
f 18//18 1//1 28//28
f 18//18 28//28 23//23
f 86//86 76//76 25//25
f 86//86 25//25 82//82
f 34//34 19//19 7//7
f 34//34 7//7 12//12
f 13//13 102//102 22//22
f 26//26 29//29 15//15
f 26//26 15//15 10//10
f 89//89 88//88 119//119
f 89//89 119//119 108//108
f 27//27 43//43 3//3
f 27//27 3//3 5//5
f 27//27 5//5 35//35
f 27//27 35//35 32//32
f 103//103 105//105 24//24
f 103//103 24//24 84//84
f 82//82 25//25 9//9
f 82//82 9//9 81//81
f 19//19 34//34 72//72
f 19//19 72//72 75//75
f 19//19 75//75 68//68
f 65//65 95//95 96//96
f 65//65 96//96 21//21
f 61//61 62//62 9//9
f 61//61 9//9 25//25
f 30//30 16//16 41//41
f 30//30 41//41 44//44
f 34//34 12//12 40//40
f 34//34 40//40 39//39
f 67//67 68//68 20//20
f 67//67 20//20 8//8
f 64//64 79//79 76//76
f 64//64 76//76 54//54
f 97//97 64//64 24//24
f 97//97 24//24 105//105
f 71//71 30//30 44//44
f 71//71 44//44 74//74
f 72//72 34//34 39//39
f 72//72 39//39 73//73
f 30//30 33//33 11//11
f 30//30 11//11 16//16
f 93//93 101//101 124//124
f 93//93 124//124 122//122
f 8//8 81//81 9//9
f 8//8 9//9 62//62
f 8//8 62//62 10//10
f 8//8 10//10 15//15
f 8//8 15//15 41//41
f 8//8 41//41 16//16
f 8//8 16//16 11//11
f 8//8 11//11 40//40
f 8//8 40//40 12//12
f 8//8 12//12 7//7
f 8//8 7//7 67//67
f 98//98 18//18 23//23
f 2//2 13//13 22//22
f 2//2 22//22 31//31
f 2//2 31//31 4//4
f 35//35 5//5 49//49
f 35//35 49//49 48//48
f 47//47 49//49 5//5
f 47//47 5//5 3//3
f 50//50 43//43 27//27
f 50//50 27//27 42//42
f 37//37 87//87 4//4
f 37//37 4//4 31//31
f 32//32 35//35 48//48
f 32//32 48//48 37//37
f 73//73 39//39 33//33
f 73//73 33//33 78//78
f 39//39 40//40 11//11
f 39//39 11//11 33//33
f 47//47 3//3 43//43
f 47//47 43//43 50//50
f 104//104 42//42 28//28
f 104//104 28//28 1//1
f 74//74 44//44 29//29
f 74//74 29//29 77//77
f 44//44 41//41 15//15
f 44//44 15//15 29//29
f 90//90 50//50 42//42
f 90//90 42//42 104//104
f 48//48 49//49 99//99
f 48//48 99//99 100//100
f 91//91 47//47 50//50
f 91//91 50//50 90//90
f 37//37 48//48 100//100
f 37//37 100//100 87//87
f 91//91 99//99 49//49
f 91//91 49//49 47//47
f 42//42 60//60 56//56
f 42//42 56//56 28//28
f 37//37 59//59 58//58
f 37//37 58//58 32//32
f 31//31 57//57 59//59
f 31//31 59//59 37//37
f 27//27 55//55 60//60
f 27//27 60//60 42//42
f 53//53 70//70 79//79
f 53//53 79//79 64//64
f 23//23 28//28 56//56
f 23//23 56//56 53//53
f 31//31 22//22 51//51
f 31//31 51//51 57//57
f 84//84 24//24 54//54
f 84//84 54//54 85//85
f 32//32 58//58 55//55
f 32//32 55//55 27//27
f 98//98 23//23 64//64
f 98//98 64//64 97//97
f 26//26 10//10 62//62
f 26//26 62//62 61//61
f 68//68 80//80 69//69
f 68//68 69//69 20//20
f 75//75 80//80 68//68
f 7//7 19//19 68//68
f 7//7 68//68 67//67
f 22//22 102//102 95//95
f 22//22 95//95 65//65
f 79//79 61//61 25//25
f 79//79 25//25 76//76
f 64//64 54//54 24//24
f 23//23 53//53 64//64
f 65//65 21//21 52//52
f 80//80 65//65 52//52
f 80//80 52//52 69//69
f 75//75 51//51 65//65
f 75//75 65//65 80//80
f 51//51 22//22 65//65
f 60//60 74//74 77//77
f 60//60 77//77 56//56
f 59//59 73//73 78//78
f 59//59 78//78 58//58
f 57//57 72//72 73//73
f 57//57 73//73 59//59
f 55//55 71//71 74//74
f 55//55 74//74 60//60
f 53//53 56//56 77//77
f 53//53 77//77 70//70
f 57//57 51//51 75//75
f 57//57 75//75 72//72
f 85//85 54//54 76//76
f 85//85 76//76 86//86
f 58//58 78//78 71//71
f 58//58 71//71 55//55
f 79//79 70//70 61//61
f 70//70 77//77 29//29
f 70//70 29//29 26//26
f 70//70 26//26 61//61
f 52//52 85//85 86//86
f 52//52 86//86 69//69
f 21//21 84//84 85//85
f 21//21 85//85 52//52
f 20//20 82//82 81//81
f 20//20 81//81 8//8
f 96//96 103//103 84//84
f 96//96 84//84 21//21
f 69//69 86//86 82//82
f 69//69 82//82 20//20
f 38//38 88//88 4//4
f 38//38 4//4 87//87
f 88//88 89//89 2//2
f 88//88 2//2 4//4
f 46//46 17//17 91//91
f 46//46 91//91 90//90
f 93//93 92//92 1//1
f 93//93 1//1 6//6
f 89//89 94//94 13//13
f 89//89 13//13 2//2
f 14//14 36//36 100//100
f 14//14 100//100 99//99
f 101//101 93//93 6//6
f 101//101 6//6 18//18
f 17//17 14//14 99//99
f 17//17 99//99 91//91
f 66//66 95//95 102//102
f 36//36 38//38 87//87
f 36//36 87//87 100//100
f 92//92 45//45 104//104
f 92//92 104//104 1//1
f 45//45 46//46 90//90
f 45//45 90//90 104//104
f 101//101 63//63 126//126
f 101//101 126//126 124//124
f 63//63 101//101 18//18
f 63//63 18//18 98//98
f 116//116 121//121 123//123
f 116//116 123//123 129//129
f 134//134 107//107 106//106
f 134//134 106//106 133//133
f 83//83 66//66 125//125
f 83//83 125//125 127//127
f 119//119 110//110 115//115
f 119//119 115//115 114//114
f 119//119 114//114 112//112
f 119//119 112//112 111//111
f 119//119 111//111 118//118
f 119//119 118//118 120//120
f 17//17 46//46 111//111
f 17//17 111//111 112//112
f 14//14 17//17 112//112
f 14//14 112//112 114//114
f 92//92 93//93 122//122
f 92//92 122//122 120//120
f 63//63 98//98 97//97
f 66//66 83//83 103//103
f 66//66 103//103 96//96
f 94//94 89//89 108//108
f 94//94 108//108 109//109
f 94//94 66//66 102//102
f 94//94 102//102 13//13
f 66//66 94//94 109//109
f 66//66 109//109 125//125
f 38//38 36//36 115//115
f 38//38 115//115 110//110
f 66//66 96//96 95//95
f 45//45 92//92 120//120
f 45//45 120//120 118//118
f 36//36 14//14 114//114
f 36//36 114//114 115//115
f 88//88 38//38 110//110
f 88//88 110//110 119//119
f 46//46 45//45 118//118
f 46//46 118//118 111//111
f 113//113 117//117 128//128
f 113//113 128//128 130//130
f 63//63 97//97 105//105
f 83//83 63//63 105//105
f 83//83 105//105 103//103
f 63//63 83//83 127//127
f 63//63 127//127 126//126
f 133//133 106//106 123//123
f 133//133 123//123 132//132
f 131//131 121//121 108//108
f 131//131 108//108 119//119
f 106//106 130//130 128//128
f 106//106 128//128 129//129
f 106//106 129//129 123//123
f 117//117 116//116 129//129
f 117//117 129//129 128//128
f 121//121 116//116 125//125
f 121//121 125//125 109//109
f 131//131 134//134 133//133
f 131//131 133//133 132//132
f 121//121 109//109 108//108
f 116//116 117//117 127//127
f 116//116 127//127 125//125
f 117//117 113//113 126//126
f 117//117 126//126 127//127
f 107//107 113//113 130//130
f 107//107 130//130 106//106
f 107//107 122//122 124//124
f 113//113 107//107 124//124
f 113//113 124//124 126//126
f 121//121 131//131 132//132
f 121//121 132//132 123//123
f 107//107 134//134 120//120
f 107//107 120//120 122//122
f 119//119 120//120 134//134
f 119//119 134//134 131//131
# 264 faces, 0 coords texture

# End of File