####
#
# OBJ File Generated by Meshlab
#
####
# Object l_lglut_chull.obj
#
# Vertices: 31
# Faces: 58
#
####
vn -0.000000 -0.998686 -0.051241
v 0.048213 -0.019509 -0.005602
vn 0.875906 -0.277153 -0.394937
v 0.067621 -0.010109 -0.046137
vn 0.622818 -0.768319 -0.147590
v 0.081975 -0.019307 -0.005602
vn -0.847333 -0.141988 -0.511729
v -0.051255 0.017286 -0.055639
vn 0.434483 0.574518 0.693652
v 0.081975 0.018903 0.012189
vn 0.918121 -0.009694 -0.396181
v 0.081975 -0.002022 -0.017732
vn 0.990932 0.028360 -0.131336
v 0.082885 0.037503 -0.009241
vn -0.416750 0.899122 0.133788
v -0.051255 0.041344 -0.044419
vn -0.067404 0.761381 0.644792
v 0.047505 0.046196 0.005720
vn 0.314702 0.874868 0.368196
v 0.080965 0.046196 -0.011970
vn -0.995462 0.077983 -0.054537
v -0.061161 0.017083 -0.008735
vn -0.164898 -0.806832 0.567301
v -0.061161 -0.017488 0.015424
vn -0.148171 0.256960 0.954996
v -0.061161 0.001617 0.024319
vn -0.286485 0.846820 0.448132
v -0.061161 0.018903 0.012189
vn -0.229278 -0.922223 -0.311345
v -0.061161 -0.019307 -0.005602
vn -0.978068 0.027619 -0.206446
v -0.061161 -0.002022 -0.017732
vn -0.000005 0.009768 0.999952
v 0.048213 0.001617 0.024320
vn 0.315728 -0.775605 0.546584
v 0.081975 -0.017488 0.015424
vn 0.418047 0.236318 0.877149
v 0.081975 0.001617 0.024320
vn 0.143912 0.002365 -0.989588
v -0.009709 0.023047 -0.082022
vn 0.574360 0.001264 -0.818602
v 0.054986 0.023047 -0.071914
vn 0.048085 -0.867331 -0.495403
v 0.054986 -0.010109 -0.071914
vn 0.054443 -0.165265 -0.984745
v -0.009709 0.017286 -0.082022
vn -0.408327 0.003832 -0.912827
v -0.027197 0.023047 -0.082022
vn 0.088063 0.089645 -0.992073
v -0.009709 0.041344 -0.081921
vn -0.339162 0.873242 -0.349881
v -0.027197 0.041344 -0.081921
vn -0.286003 -0.779463 -0.557351
v -0.027197 0.017286 -0.082022
vn -0.057746 0.977152 0.204546
v 0.039621 0.055294 -0.028346
vn 0.807884 0.522337 -0.272922
v 0.067621 0.055294 -0.046036
vn 0.407642 0.604838 -0.684105
v 0.054986 0.055294 -0.071813
vn -0.148105 0.986339 -0.072111
v 0.021021 0.055294 -0.042397
# 31 vertices, 0 vertices normals

f 15//15 22//22 1//1
f 1//1 12//12 15//15
f 7//7 19//19 18//18
f 18//18 12//12 1//1
f 5//5 19//19 7//7
f 9//9 14//14 13//13
f 19//19 5//5 9//9
f 6//6 22//22 21//21
f 3//3 1//1 22//22
f 3//3 18//18 1//1
f 7//7 18//18 3//3
f 3//3 6//6 7//7
f 17//17 9//9 13//13
f 19//19 9//9 17//17
f 17//17 13//13 12//12
f 2//2 22//22 6//6
f 2//2 3//3 22//22
f 6//6 3//3 2//2
f 11//11 8//8 16//16
f 8//8 11//11 14//14
f 14//14 9//9 8//8
f 23//23 22//22 27//27
f 27//27 22//22 15//15
f 26//26 8//8 31//31
f 4//4 15//15 16//16
f 4//4 27//27 15//15
f 8//8 4//4 16//16
f 4//4 8//8 26//26
f 30//30 25//25 26//26
f 31//31 30//30 26//26
f 30//30 21//21 20//20
f 30//30 20//20 25//25
f 30//30 6//6 21//21
f 24//24 4//4 26//26
f 4//4 24//24 27//27
f 10//10 5//5 7//7
f 10//10 9//9 5//5
f 30//30 29//29 6//6
f 29//29 10//10 7//7
f 29//29 7//7 6//6
f 28//28 8//8 9//9
f 28//28 31//31 8//8
f 9//9 10//10 28//28
f 10//10 29//29 28//28
f 11//11 12//12 13//13
f 13//13 14//14 11//11
f 11//11 15//15 12//12
f 15//15 11//11 16//16
f 17//17 18//18 19//19
f 18//18 17//17 12//12
f 20//20 21//21 22//22
f 20//20 22//22 23//23
f 25//25 20//20 24//24
f 26//26 25//25 24//24
f 24//24 20//20 23//23
f 23//23 27//27 24//24
f 28//28 29//29 30//30
f 28//28 30//30 31//31
# 58 faces, 0 coords texture

# End of File