####
#
# OBJ File Generated by Meshlab
#
####
# Object l_uarm_chull.obj
#
# Vertices: 44
# Faces: 84
#
####
vn 0.885624 -0.464403 0.000000
v -0.067473 0.133930 -0.000139
vn 0.246149 -0.685252 0.685449
v -0.056038 0.137647 -0.027432
vn 0.437600 0.896160 0.073505
v -0.022800 -0.011527 -0.004385
vn 0.835612 -0.129744 -0.533778
v -0.067545 0.110414 0.023313
vn 0.337155 -0.665890 -0.665519
v -0.056038 0.137647 0.027053
vn 0.061421 -0.996829 0.050586
v -0.003572 0.156804 -0.000139
vn 0.335631 -0.934417 -0.119231
v -0.056038 0.148941 -0.000139
vn 0.059159 -0.645901 0.761126
v -0.003572 0.143223 -0.032891
vn -0.428636 0.893540 0.133634
v 0.022803 -0.011527 -0.005294
vn 0.669393 0.730521 -0.135100
v -0.065258 0.011345 0.022403
vn -0.909988 -0.414634 0.000000
v 0.048393 0.156732 -0.000139
vn -0.976078 -0.079413 -0.202398
v 0.062116 0.032789 0.029681
vn -0.695537 -0.562563 -0.446936
v 0.048393 0.143151 0.032613
vn -0.993773 -0.106017 -0.034290
v 0.062116 0.040508 0.021796
vn 0.081856 -0.659364 -0.747355
v -0.003572 0.143223 0.032613
vn 0.270963 -0.117130 -0.955437
v -0.056108 0.110414 0.038374
vn 0.155969 0.121292 -0.980287
v -0.065258 0.018636 0.029681
vn 0.870372 0.470109 0.146458
v -0.065329 0.011417 -0.003980
vn 0.311983 0.288041 0.905372
v -0.065258 0.018923 -0.011360
vn 0.892569 0.013054 0.450722
v -0.067545 0.110414 -0.023692
vn 0.283759 0.156882 0.945975
v -0.056108 0.110414 -0.038653
vn -0.071228 0.204945 -0.976178
v 0.013583 -0.011599 0.031804
vn -0.564015 0.782923 -0.262524
v 0.062116 0.011345 0.022403
vn -0.314113 0.192871 -0.929588
v 0.062116 0.018636 0.029681
vn -0.283145 0.958262 -0.039523
v 0.022875 -0.011599 0.023818
vn -0.162929 -0.004996 -0.986625
v 0.048393 0.110414 0.046158
vn 0.162192 0.986107 -0.035859
v -0.022728 -0.011599 0.023009
vn 0.104885 0.194285 -0.975322
v -0.014651 -0.011527 0.031804
vn 0.067561 0.033486 -0.997153
v -0.003501 0.110414 0.046158
vn -0.981095 -0.071589 0.179800
v 0.062116 0.032360 -0.011360
vn -0.750391 -0.517569 0.411139
v 0.048393 0.143151 -0.032891
vn -0.994042 -0.103521 0.034107
v 0.062116 0.040508 -0.003374
vn -0.338951 0.331297 0.880542
v 0.062116 0.018923 -0.011360
vn -0.794104 0.592684 0.134630
v 0.062188 0.011417 -0.003980
vn -0.214072 0.135235 0.967411
v 0.048393 0.110414 -0.046537
vn 0.112480 0.326309 0.938547
v -0.012221 -0.011527 -0.014493
vn -0.169371 0.575279 0.800229
v 0.011081 -0.011527 -0.014493
vn 0.080848 0.071473 0.994160
v -0.003501 0.110414 -0.046537
vn 0.999998 -0.001327 0.001263
v -0.067688 0.064525 -0.014392
vn 0.988546 -0.107748 -0.105677
v -0.067545 0.126997 0.016439
vn 0.970681 -0.170983 0.168948
v -0.067545 0.126997 -0.016818
vn 0.990899 -0.017640 -0.133445
v -0.067688 0.064525 0.031400
vn 0.969261 0.063657 0.237659
v -0.067617 0.048156 -0.014392
vn 0.982012 0.057803 -0.179753
v -0.067617 0.048156 0.031400
# 44 vertices, 0 vertices normals

f 33//33 37//37 34//34
f 3//3 10//10 27//27
f 40//40 5//5 16//16
f 1//1 40//40 41//41
f 11//11 13//13 6//6
f 7//7 1//1 41//41
f 7//7 5//5 40//40
f 40//40 1//1 7//7
f 31//31 11//11 6//6
f 8//8 31//31 6//6
f 20//20 21//21 41//41
f 36//36 21//21 19//19
f 38//38 21//21 36//36
f 37//37 36//36 27//27
f 36//36 3//3 27//27
f 41//41 21//21 2//2
f 2//2 7//7 41//41
f 2//2 38//38 8//8
f 2//2 21//21 38//38
f 2//2 8//8 6//6
f 2//2 6//6 7//7
f 25//25 37//37 27//27
f 14//14 13//13 11//11
f 3//3 18//18 10//10
f 18//18 36//36 19//19
f 36//36 18//18 3//3
f 42//42 16//16 44//44
f 44//44 16//16 17//17
f 44//44 17//17 10//10
f 18//18 44//44 10//10
f 4//4 16//16 42//42
f 4//4 42//42 40//40
f 4//4 40//40 16//16
f 15//15 13//13 26//26
f 15//15 16//16 5//5
f 15//15 6//6 13//13
f 15//15 7//7 6//6
f 7//7 15//15 5//5
f 35//35 8//8 38//38
f 35//35 31//31 8//8
f 35//35 37//37 33//33
f 39//39 20//20 41//41
f 9//9 34//34 37//37
f 9//9 25//25 34//34
f 9//9 37//37 25//25
f 23//23 24//24 34//34
f 34//34 25//25 23//23
f 27//27 10//10 28//28
f 28//28 10//10 17//17
f 31//31 32//32 11//11
f 32//32 14//14 11//11
f 34//34 14//14 32//32
f 13//13 12//12 26//26
f 14//14 12//12 13//13
f 12//12 24//24 26//26
f 12//12 34//34 24//24
f 12//12 14//14 34//34
f 29//29 15//15 26//26
f 16//16 15//15 29//29
f 29//29 17//17 16//16
f 29//29 28//28 17//17
f 43//43 44//44 18//18
f 43//43 18//18 19//19
f 43//43 20//20 39//39
f 19//19 21//21 43//43
f 43//43 21//21 20//20
f 24//24 23//23 22//22
f 22//22 23//23 25//25
f 26//26 24//24 22//22
f 22//22 25//25 27//27
f 27//27 28//28 22//22
f 22//22 29//29 26//26
f 28//28 29//29 22//22
f 31//31 35//35 30//30
f 30//30 32//32 31//31
f 30//30 35//35 33//33
f 30//30 33//33 34//34
f 34//34 32//32 30//30
f 35//35 36//36 37//37
f 38//38 36//36 35//35
f 41//41 40//40 39//39
f 39//39 40//40 42//42
f 43//43 39//39 42//42
f 42//42 44//44 43//43
# 84 faces, 0 coords texture

# End of File