####
#
# OBJ File Generated by Meshlab
#
####
# Object ltorso_chull.obj
#
# Vertices: 39
# Faces: 74
#
####
vn 0.585673 -0.764546 0.269179
v 0.037352 -0.017069 0.056737
vn 0.599143 -0.799095 0.049749
v 0.037352 -0.018686 0.042080
vn 0.121166 0.936296 0.329648
v 0.037352 0.016694 0.056737
vn -0.857659 -0.513934 0.017150
v -0.040483 -0.054773 0.055827
vn 0.083012 -0.896524 -0.435147
v -0.015414 -0.051842 0.047437
vn -0.625052 -0.603863 -0.494631
v -0.040483 -0.051842 0.047437
vn 0.478290 -0.877577 0.033136
v -0.015414 -0.054773 0.055827
vn -0.004920 0.685348 -0.728199
v 0.000658 0.018311 -0.013921
vn -0.685858 -0.216605 -0.694752
v -0.013190 -0.018686 -0.007957
vn -0.653295 0.534607 -0.536098
v -0.013190 0.018311 -0.007957
vn -0.003257 -0.739738 -0.672887
v 0.000658 -0.018686 -0.013921
vn 0.663172 -0.518063 -0.540197
v 0.016731 -0.018686 -0.008160
vn 0.380278 0.870547 -0.312309
v 0.016731 0.018311 -0.008160
vn 0.721542 0.609542 -0.328382
v 0.037352 0.018311 0.030758
vn 0.743077 -0.594387 -0.307474
v 0.037352 -0.018686 0.030758
vn 0.987175 -0.030264 -0.156745
v 0.041497 -0.005949 0.044910
vn 0.993677 0.056274 -0.097152
v 0.041497 0.006383 0.044910
vn -0.867926 -0.077823 -0.490560
v -0.040483 -0.018686 0.030758
vn -0.662357 0.677972 -0.318806
v -0.040483 0.018311 0.030758
vn -0.014660 0.789510 0.613563
v 0.026839 0.008203 0.071293
vn 0.008615 -0.107107 0.994210
v -0.015414 0.004564 0.073517
vn 0.109632 0.536340 0.836851
v 0.037352 0.008203 0.071293
vn -0.177856 0.384438 0.905856
v -0.040483 0.004564 0.073517
vn -0.991506 0.024657 -0.127704
v -0.042909 0.006383 0.044910
vn -0.996651 -0.038314 -0.072246
v -0.042909 -0.005949 0.044910
vn -0.995708 0.092550 -0.000000
v -0.042909 0.012549 0.055625
vn -0.958713 0.187594 0.213723
v -0.042909 0.006383 0.066239
vn -0.992896 -0.040663 0.111824
v -0.042909 -0.005949 0.066239
vn -0.999203 -0.039724 -0.003918
v -0.042909 -0.012115 0.055625
vn -0.221764 -0.278586 0.934457
v -0.040483 -0.048809 0.065936
vn 0.081440 -0.284751 0.955136
v -0.015414 -0.048809 0.065936
vn 0.003936 0.995717 0.092373
v -0.015414 0.018311 0.055827
vn -0.116104 0.879327 0.461848
v -0.040483 0.018311 0.055827
vn 0.100753 0.992989 0.061820
v 0.037352 0.018311 0.042080
vn 0.980943 0.096857 0.168430
v 0.041497 0.006383 0.066239
vn 0.972967 -0.230810 0.007891
v 0.041497 -0.012115 0.055625
vn 0.909119 -0.284089 0.304626
v 0.041497 -0.005949 0.066239
vn 0.936782 0.349708 0.011956
v 0.041497 0.012549 0.055625
vn 0.235934 -0.346240 0.907994
v 0.037352 -0.008577 0.071293
# 39 vertices, 0 vertices normals

f 5//5 6//6 11//11
f 9//9 11//11 6//6
f 12//12 5//5 11//11
f 5//5 12//12 7//7
f 12//12 15//15 7//7
f 33//33 27//27 23//23
f 27//27 28//28 23//23
f 29//29 4//4 28//28
f 4//4 29//29 6//6
f 29//29 25//25 6//6
f 2//2 7//7 15//15
f 15//15 36//36 2//2
f 1//1 37//37 39//39
f 1//1 36//36 37//37
f 1//1 39//39 7//7
f 1//1 7//7 2//2
f 1//1 2//2 36//36
f 16//16 36//36 15//15
f 18//18 6//6 25//25
f 18//18 9//9 6//6
f 39//39 22//22 21//21
f 20//20 33//33 23//23
f 31//31 7//7 39//39
f 39//39 21//21 31//31
f 38//38 34//34 3//3
f 14//14 38//38 17//17
f 38//38 14//14 34//34
f 33//33 19//19 26//26
f 19//19 24//24 26//26
f 26//26 27//27 33//33
f 28//28 4//4 30//30
f 23//23 28//28 30//30
f 3//3 34//34 32//32
f 22//22 3//3 32//32
f 35//35 3//3 22//22
f 35//35 38//38 3//3
f 4//4 6//6 5//5
f 4//4 5//5 7//7
f 8//8 9//9 10//10
f 11//11 9//9 8//8
f 11//11 8//8 12//12
f 12//12 8//8 13//13
f 13//13 14//14 12//12
f 12//12 14//14 15//15
f 16//16 15//15 14//14
f 16//16 14//14 17//17
f 9//9 18//18 10//10
f 18//18 19//19 10//10
f 20//20 21//21 22//22
f 20//20 23//23 21//21
f 19//19 18//18 24//24
f 24//24 18//18 25//25
f 28//28 27//27 26//26
f 26//26 29//29 28//28
f 29//29 26//26 25//25
f 26//26 24//24 25//25
f 30//30 4//4 7//7
f 30//30 7//7 31//31
f 30//30 21//21 23//23
f 30//30 31//31 21//21
f 32//32 8//8 10//10
f 32//32 19//19 33//33
f 32//32 13//13 8//8
f 32//32 14//14 13//13
f 10//10 19//19 32//32
f 32//32 34//34 14//14
f 32//32 20//20 22//22
f 33//33 20//20 32//32
f 35//35 16//16 17//17
f 16//16 35//35 36//36
f 35//35 37//37 36//36
f 35//35 17//17 38//38
f 35//35 39//39 37//37
f 35//35 22//22 39//39
# 74 faces, 0 coords texture

# End of File