####
#
# OBJ File Generated by Meshlab
#
####
# Object r_clav_chull.obj
#
# Vertices: 48
# Faces: 92
#
####
vn -0.506777 -0.306018 0.805934
v -0.053425 -0.041635 0.000599
vn -0.533153 -0.191040 0.824167
v -0.020100 0.022503 0.042844
vn -0.661511 0.313056 0.681469
v -0.020100 0.035940 0.042769
vn -0.330620 -0.526136 0.783500
v -0.053470 -0.083357 -0.018335
vn -0.472007 0.582198 0.662008
v -0.011583 0.095785 0.001603
vn -0.241630 0.349740 -0.905150
v -0.012492 0.095531 -0.043999
vn -0.885599 -0.464443 0.002584
v -0.064906 -0.079792 -0.045547
vn -0.983410 -0.121665 0.134546
v -0.064978 -0.072766 -0.029007
vn 0.963586 0.250368 -0.093899
v 0.050790 0.006286 -0.045460
vn 0.921112 0.357359 -0.154425
v 0.024606 0.095653 -0.034780
vn -0.151159 -0.428594 0.890763
v -0.012114 0.014355 0.042889
vn -0.577196 0.319109 -0.751674
v -0.062432 0.035933 -0.042345
vn 0.095923 0.454351 -0.885643
v 0.016620 0.095602 -0.044071
vn 0.888055 0.343688 0.305348
v 0.024606 0.095739 -0.006545
vn 0.104742 0.861391 0.497026
v 0.015811 0.095856 0.001531
vn 0.123347 0.571601 0.811208
v 0.013662 0.043517 0.042727
vn -0.052085 0.426853 0.902820
v -0.012721 0.043446 0.042799
vn 0.954846 0.195917 0.223350
v 0.050790 0.006540 0.000331
vn 0.796110 0.202212 0.570368
v 0.020941 0.036226 0.042768
vn 0.390817 -0.135862 0.910387
v 0.020941 0.022073 0.042846
vn 0.063170 -0.414814 0.907711
v 0.013056 0.014355 0.042889
vn -0.999947 0.004285 -0.009395
v -0.064978 -0.039786 -0.062449
vn -0.899735 0.098681 -0.425133
v -0.064978 -0.056407 -0.069230
vn -0.918386 0.394060 0.035837
v -0.062836 0.043639 -0.008614
vn -0.850603 0.479013 -0.216845
v -0.062404 0.043466 -0.034993
vn -0.586987 0.776644 0.228629
v -0.021691 0.095725 -0.008975
vn -0.671205 0.407385 0.619291
v -0.063210 0.036380 -0.001313
vn -0.502536 0.860490 -0.083755
v -0.021691 0.095596 -0.032277
vn -0.246148 -0.689050 -0.681631
v -0.053470 -0.083660 -0.072819
vn -0.335629 -0.933741 0.124424
v -0.053470 -0.094801 -0.045464
vn -0.974117 -0.161373 -0.158286
v -0.064978 -0.072951 -0.062265
vn -0.344046 0.228564 -0.910709
v -0.053541 -0.056490 -0.084190
vn -0.065709 0.167532 -0.983674
v -0.000933 -0.056534 -0.092075
vn -0.059161 -0.650122 -0.757523
v -0.001005 -0.089266 -0.078246
vn -0.061430 -0.997095 -0.045036
v -0.001005 -0.102665 -0.045420
vn 0.314691 -0.612671 0.724985
v 0.050960 -0.088830 -0.012744
vn 0.254105 -0.967162 0.005390
v 0.050960 -0.102593 -0.045420
vn -0.068940 -0.617659 0.783419
v -0.001005 -0.088902 -0.012744
vn -0.998131 0.048518 -0.037156
v -0.064933 0.006215 -0.045460
vn -1.000000 0.000354 -0.000501
v -0.065004 -0.010154 -0.045369
vn -0.887244 -0.106024 0.448951
v -0.065004 -0.009899 0.000422
vn -0.916550 0.051981 0.396527
v -0.064933 0.006470 0.000331
vn 0.920402 -0.313067 -0.234198
v 0.050960 -0.089195 -0.078247
vn 0.914325 -0.074259 0.398115
v 0.050960 -0.056018 0.000618
vn 0.999997 0.002487 -0.000014
v 0.050960 -0.009959 -0.045936
vn 0.914450 0.226607 -0.335306
v 0.050960 -0.023721 -0.078611
vn 0.999999 0.000980 0.000970
v 0.050960 -0.023357 -0.013109
vn 0.108678 0.120565 -0.986739
v 0.050960 -0.056534 -0.092075
# 48 vertices, 0 vertices normals

f 2//2 3//3 41//41
f 17//17 2//2 11//11
f 17//17 3//3 2//2
f 42//42 41//41 3//3
f 5//5 17//17 15//15
f 17//17 5//5 3//3
f 1//1 4//4 11//11
f 2//2 1//1 11//11
f 41//41 4//4 1//1
f 1//1 2//2 41//41
f 17//17 16//16 15//15
f 13//13 28//28 15//15
f 27//27 42//42 3//3
f 27//27 3//3 5//5
f 38//38 11//11 4//4
f 8//8 4//4 41//41
f 40//40 8//8 41//41
f 40//40 31//31 8//8
f 30//30 38//38 4//4
f 4//4 8//8 30//30
f 10//10 13//13 15//15
f 10//10 15//15 14//14
f 46//46 13//13 10//10
f 9//9 45//45 46//46
f 10//10 9//9 46//46
f 26//26 27//27 5//5
f 26//26 5//5 15//15
f 28//28 26//26 15//15
f 23//23 31//31 40//40
f 23//23 12//12 32//32
f 23//23 32//32 31//31
f 6//6 32//32 12//12
f 25//25 6//6 12//12
f 6//6 25//25 28//28
f 6//6 28//28 13//13
f 13//13 33//33 6//6
f 6//6 33//33 32//32
f 35//35 38//38 30//30
f 7//7 8//8 31//31
f 30//30 7//7 31//31
f 7//7 30//30 8//8
f 9//9 18//18 45//45
f 18//18 10//10 14//14
f 18//18 9//9 10//10
f 18//18 47//47 45//45
f 21//21 38//38 36//36
f 21//21 11//11 38//38
f 21//21 17//17 11//11
f 21//21 20//20 17//17
f 39//39 12//12 23//23
f 39//39 25//25 12//12
f 48//48 13//13 46//46
f 48//48 33//33 13//13
f 48//48 34//34 33//33
f 19//19 18//18 14//14
f 19//19 14//14 15//15
f 16//16 19//19 15//15
f 19//19 16//16 17//17
f 19//19 17//17 20//20
f 47//47 18//18 44//44
f 44//44 18//18 19//19
f 44//44 19//19 20//20
f 44//44 21//21 36//36
f 21//21 44//44 20//20
f 22//22 40//40 39//39
f 22//22 23//23 40//40
f 22//22 39//39 23//23
f 39//39 24//24 25//25
f 27//27 26//26 24//24
f 24//24 39//39 42//42
f 42//42 27//27 24//24
f 24//24 26//26 28//28
f 28//28 25//25 24//24
f 29//29 35//35 30//30
f 29//29 34//34 35//35
f 29//29 30//30 31//31
f 29//29 31//31 32//32
f 29//29 32//32 33//33
f 34//34 29//29 33//33
f 43//43 34//34 48//48
f 35//35 43//43 37//37
f 43//43 35//35 34//34
f 35//35 37//37 36//36
f 36//36 38//38 35//35
f 39//39 40//40 41//41
f 41//41 42//42 39//39
f 43//43 36//36 37//37
f 43//43 44//44 36//36
f 46//46 45//45 43//43
f 45//45 47//47 43//43
f 47//47 44//44 43//43
f 43//43 48//48 46//46
# 92 faces, 0 coords texture

# End of File