####
#
# OBJ File Generated by Meshlab
#
####
# Object GRIPPER_OPEN_chull.obj
#
# Vertices: 12
# Faces: 20
#
####
vn 2.395120 -0.519456 3.164025
v -0.059683 0.006619 -0.157520
vn 2.938261 -2.649459 -0.201859
v -0.109043 0.052411 0.020638
vn 1.454824 1.282082 -1.153280
v -0.116677 -0.053183 0.056221
vn 1.982076 -4.193623 1.584240
v -0.052370 0.064205 -0.102480
vn 1.195080 -2.240699 -2.647632
v -0.091363 0.047651 0.059568
vn 1.325291 2.925753 2.357736
v -0.035825 -0.060884 -0.145542
vn -2.345908 4.432907 0.658005
v 0.046467 -0.063704 -0.096671
vn -1.654974 -0.368284 -1.013467
v 0.121674 0.009207 0.054709
vn -1.586980 2.340044 -2.895298
v 0.097004 -0.013613 0.058171
vn -2.016737 -4.925609 0.561689
v 0.043548 0.063666 -0.094146
vn -1.809063 -1.967840 2.742572
v 0.047817 0.041121 -0.153120
vn -2.266747 1.409938 3.071854
v 0.050376 -0.029320 -0.156672
# 12 vertices, 0 vertices normals

f 2//2 3//3 1//1
f 4//4 10//10 2//2
f 6//6 3//3 7//7
f 2//2 10//10 5//5
f 2//2 1//1 4//4
f 3//3 6//6 1//1
f 7//7 3//3 9//9
f 9//9 3//3 5//5
f 10//10 8//8 5//5
f 9//9 8//8 7//7
f 11//11 8//8 10//10
f 8//8 9//9 5//5
f 7//7 8//8 12//12
f 4//4 11//11 10//10
f 5//5 3//3 2//2
f 12//12 8//8 11//11
f 4//4 1//1 11//11
f 12//12 6//6 7//7
f 1//1 6//6 12//12
f 1//1 12//12 11//11
# 20 faces, 0 coords texture

# End of File