####
#
# OBJ File Generated by Meshlab
#
####
# Object head_chull.obj
#
# Vertices: 74
# Faces: 144
#
####
vn 0.949843 -0.263984 -0.167661
v -0.145743 -0.014987 0.062518
vn 0.905596 -0.000000 0.424140
v -0.143643 -0.018887 0.009918
vn 0.973412 -0.228639 -0.013893
v -0.146943 -0.014087 0.023518
vn -0.166997 0.738376 -0.653386
v 0.003657 -0.041987 0.123418
vn -0.264033 -0.613651 -0.744123
v 0.003657 0.013913 0.141918
vn 0.658737 -0.717891 -0.225163
v -0.122043 0.091413 0.027918
vn 0.681032 -0.725614 0.098384
v -0.122043 0.091413 -0.027982
vn 0.767608 -0.185110 -0.613606
v -0.112643 0.034313 0.118618
vn 0.466174 -0.738389 -0.487302
v -0.112643 0.054813 0.108018
vn -0.866466 0.272859 -0.418073
v 0.017257 -0.029087 0.127718
vn 0.723305 0.199438 -0.661101
v -0.112643 -0.032087 0.118618
vn 0.704218 -0.000000 -0.709984
v -0.112643 0.001113 0.124218
vn 0.357863 0.777405 -0.517276
v -0.112643 -0.052587 0.108018
vn 0.918827 0.200952 -0.339670
v -0.146443 -0.018287 0.062518
vn 0.573551 0.811761 0.109926
v -0.122043 -0.091487 -0.027982
vn 0.534520 0.806568 -0.252461
v -0.122043 -0.091487 0.027918
vn 0.975364 0.203789 0.084472
v -0.147943 -0.018587 0.023518
vn -0.024870 0.815130 -0.578745
v -0.065743 -0.046687 0.123218
vn -0.048117 0.758451 -0.649952
v -0.054043 -0.042387 0.128518
vn 0.094221 0.790909 -0.604637
v -0.071643 -0.046687 0.123218
vn -0.964406 -0.050955 -0.259471
v 0.017257 0.001013 0.137618
vn -0.025682 0.042950 0.998747
v -0.103743 -0.084487 -0.031782
vn 0.680669 0.087344 0.727365
v -0.122043 -0.084487 -0.031782
vn 0.615239 -0.058072 0.786199
v -0.122043 0.084413 -0.031782
vn -0.027439 -0.051587 0.998292
v -0.103743 0.084413 -0.031782
vn 0.073230 -0.904428 0.420294
v -0.009343 0.117213 -0.018982
vn -0.021841 -0.852644 -0.522036
v -0.000443 0.117213 0.020018
vn -0.599013 -0.664800 -0.446345
v 0.015657 0.117213 0.012318
vn -0.986332 -0.162464 0.027481
v 0.019557 0.117213 -0.005082
vn -0.159030 -0.158976 0.974390
v 0.008457 0.117213 -0.018982
vn 0.167910 -0.976681 -0.133793
v -0.016443 0.117213 0.012318
vn 0.230530 -0.972884 0.018770
v -0.020443 0.117213 -0.005082
vn -0.148323 0.298760 0.942731
v 0.008457 -0.117787 -0.018982
vn 0.222406 0.974786 0.018109
v -0.020443 -0.117787 -0.005082
vn 0.153616 0.980520 -0.122404
v -0.016443 -0.117787 0.012318
vn -0.993525 0.106458 0.039689
v 0.019557 -0.117787 -0.005082
vn -0.520056 0.730569 -0.442505
v 0.015657 -0.117787 0.012318
vn 0.044161 0.863764 -0.501958
v -0.000443 -0.117787 0.020018
vn 0.130130 0.830856 0.541059
v -0.009343 -0.117787 -0.018982
vn 0.350452 -0.282319 -0.893017
v -0.071643 0.019413 0.144718
vn -0.057857 -0.308796 -0.949367
v -0.065743 0.019413 0.144718
vn -0.096493 0.263314 -0.959872
v -0.065743 -0.017087 0.144718
vn 0.350073 0.308168 -0.884580
v -0.071643 -0.017087 0.144718
vn -0.172404 -0.726522 -0.665164
v -0.065743 0.049013 0.123218
vn 0.088964 -0.807780 -0.582732
v -0.071643 0.049013 0.123218
vn -1.000000 -0.000103 0.000211
v 0.019957 0.050613 -0.021082
vn -0.124353 0.112154 0.985879
v 0.019957 -0.015387 -0.030582
vn -0.875209 0.118985 0.468884
v 0.019957 -0.034187 -0.026982
vn -0.999855 0.000000 -0.017011
v 0.019957 -0.000187 0.031618
vn -0.999851 -0.000677 -0.017222
v 0.019957 0.026113 0.031118
vn -0.999139 -0.023993 -0.033837
v 0.019957 0.058313 0.026818
vn -0.999983 -0.005563 -0.001842
v 0.019957 0.062813 0.020718
vn -0.999996 0.002488 0.001189
v 0.019957 -0.059887 -0.010882
vn -0.999994 0.002611 0.002483
v 0.019957 -0.052487 -0.019882
vn -0.999680 0.007653 -0.024094
v 0.019957 -0.053287 0.029118
vn -0.999470 0.019045 -0.026419
v 0.019957 -0.057887 0.026818
vn -0.999997 0.002405 0.000309
v 0.019957 -0.062187 0.000418
vn -0.999997 0.002304 -0.000748
v 0.019957 -0.062387 0.020718
vn -0.086587 -0.112131 0.989914
v 0.019957 0.015013 -0.030582
vn -0.021410 0.000000 0.999771
v 0.019957 -0.000187 -0.031382
vn -0.654903 -0.136521 0.743279
v 0.019957 0.024713 -0.028882
vn -0.775042 -0.160548 0.611175
v 0.019957 0.034613 -0.026982
vn -0.999980 -0.006204 0.000824
v 0.019957 0.062613 0.000418
vn -0.999972 -0.006785 0.003242
v 0.019957 0.060313 -0.010882
vn -0.999997 0.002378 0.000023
v 0.019957 -0.062787 0.011718
vn -0.999861 0.001205 -0.016634
v 0.019957 -0.047687 0.029718
vn -0.999812 -0.005308 -0.018669
v 0.019957 0.053713 0.029118
vn -0.999859 0.000672 -0.016801
v 0.019957 -0.025687 0.031118
vn -0.999848 -0.001261 -0.017405
v 0.019957 0.048113 0.029718
vn -0.999982 -0.006020 0.000059
v 0.019957 0.063313 0.011718
vn -0.999957 0.003200 0.008677
v 0.019957 -0.045087 -0.023482
vn -0.999942 -0.007784 0.007402
v 0.019957 0.052913 -0.019882
vn -0.999977 0.002952 0.006067
v 0.019957 -0.050187 -0.021082
vn -0.998762 -0.017213 0.046678
v 0.019957 0.045513 -0.023482
# 74 vertices, 0 vertices normals

f 2//2 24//24 17//17
f 3//3 1//1 17//17
f 14//14 16//16 17//17
f 14//14 17//17 1//1
f 1//1 9//9 14//14
f 6//6 9//9 1//1
f 3//3 6//6 1//1
f 4//4 10//10 37//37
f 10//10 36//36 37//37
f 10//10 42//42 21//21
f 10//10 4//4 42//42
f 19//19 43//43 42//42
f 19//19 42//42 4//4
f 23//23 24//24 2//2
f 23//23 2//2 17//17
f 9//9 6//6 27//27
f 7//7 6//6 3//3
f 7//7 17//17 24//24
f 7//7 3//3 17//17
f 7//7 32//32 6//6
f 8//8 14//14 9//9
f 8//8 12//12 14//14
f 29//29 52//52 51//51
f 29//29 21//21 28//28
f 29//29 51//51 21//21
f 58//58 36//36 56//56
f 10//10 56//56 36//36
f 14//14 13//13 16//16
f 38//38 4//4 37//37
f 38//38 19//19 4//4
f 38//38 35//35 16//16
f 38//38 16//16 13//13
f 59//59 25//25 60//60
f 59//59 30//30 25//25
f 16//16 35//35 34//34
f 60//60 25//25 22//22
f 9//9 27//27 45//45
f 45//45 27//27 44//44
f 44//44 27//27 5//5
f 5//5 41//41 44//44
f 5//5 27//27 28//28
f 21//21 5//5 28//28
f 5//5 21//21 42//42
f 5//5 42//42 41//41
f 31//31 27//27 6//6
f 32//32 31//31 6//6
f 32//32 7//7 26//26
f 26//26 7//7 24//24
f 53//53 54//54 36//36
f 43//43 12//12 40//40
f 8//8 40//40 12//12
f 40//40 8//8 9//9
f 9//9 45//45 40//40
f 55//55 10//10 21//21
f 55//55 56//56 10//10
f 19//19 20//20 43//43
f 20//20 13//13 43//43
f 20//20 38//38 13//13
f 11//11 12//12 43//43
f 43//43 13//13 11//11
f 12//12 11//11 14//14
f 11//11 13//13 14//14
f 62//62 29//29 30//30
f 16//16 34//34 15//15
f 17//17 16//16 15//15
f 15//15 23//23 17//17
f 15//15 34//34 39//39
f 23//23 15//15 39//39
f 51//51 67//67 21//21
f 49//49 68//68 21//21
f 50//50 49//49 21//21
f 64//64 63//63 29//29
f 57//57 53//53 36//36
f 48//48 33//33 36//36
f 68//68 66//66 21//21
f 66//66 55//55 21//21
f 38//38 18//18 19//19
f 18//18 20//20 19//19
f 18//18 38//38 20//20
f 59//59 61//61 30//30
f 61//61 62//62 30//30
f 72//72 64//64 29//29
f 69//69 50//50 21//21
f 67//67 69//69 21//21
f 52//52 29//29 70//70
f 63//63 70//70 29//29
f 65//65 36//36 58//58
f 65//65 57//57 36//36
f 71//71 48//48 36//36
f 47//47 33//33 48//48
f 22//22 33//33 47//47
f 60//60 22//22 47//47
f 29//29 62//62 74//74
f 36//36 54//54 73//73
f 73//73 71//71 36//36
f 46//46 72//72 29//29
f 29//29 74//74 46//46
f 23//23 22//22 24//24
f 22//22 25//25 24//24
f 28//28 27//27 26//26
f 30//30 29//29 26//26
f 26//26 31//31 32//32
f 26//26 29//29 28//28
f 27//27 31//31 26//26
f 26//26 24//24 25//25
f 26//26 25//25 30//30
f 33//33 34//34 35//35
f 37//37 36//36 33//33
f 35//35 38//38 33//33
f 33//33 38//38 37//37
f 33//33 39//39 34//34
f 33//33 22//22 23//23
f 33//33 23//23 39//39
f 40//40 41//41 42//42
f 40//40 42//42 43//43
f 44//44 41//41 40//40
f 40//40 45//45 44//44
f 46//46 47//47 48//48
f 46//46 49//49 50//50
f 46//46 51//51 52//52
f 54//54 53//53 46//46
f 56//56 55//55 46//46
f 53//53 57//57 46//46
f 58//58 56//56 46//46
f 46//46 59//59 60//60
f 62//62 61//61 46//46
f 46//46 63//63 64//64
f 57//57 65//65 46//46
f 55//55 66//66 46//46
f 46//46 67//67 51//51
f 68//68 49//49 46//46
f 46//46 69//69 67//67
f 46//46 70//70 63//63
f 46//46 48//48 71//71
f 46//46 66//66 68//68
f 46//46 61//61 59//59
f 64//64 72//72 46//46
f 50//50 69//69 46//46
f 52//52 70//70 46//46
f 46//46 65//65 58//58
f 46//46 71//71 73//73
f 60//60 47//47 46//46
f 46//46 74//74 62//62
f 46//46 73//73 54//54
# 144 faces, 0 coords texture

# End of File