####
#
# OBJ File Generated by Meshlab
#
####
# Object head_chull.obj
#
# Vertices: 74
# Faces: 144
#
####
vn 0.949843 -0.263984 -0.167661
v -0.001458 -0.000150 0.000621
vn 0.905596 -0.000000 0.424140
v -0.001437 -0.000189 0.000095
vn 0.973412 -0.228639 -0.013893
v -0.001470 -0.000141 0.000231
vn -0.166996 0.738376 -0.653386
v 0.000036 -0.000420 0.001230
vn -0.264033 -0.613651 -0.744123
v 0.000036 0.000139 0.001415
vn 0.658737 -0.717891 -0.225163
v -0.001221 0.000914 0.000275
vn 0.681032 -0.725614 0.098384
v -0.001221 0.000914 -0.000284
vn -0.866466 0.272859 -0.418073
v 0.000172 -0.000291 0.001273
vn 0.573551 0.811761 0.109926
v -0.001221 -0.000915 -0.000284
vn 0.534520 0.806568 -0.252461
v -0.001221 -0.000915 0.000275
vn 0.975364 0.203789 0.084472
v -0.001480 -0.000186 0.000231
vn 0.723304 0.199438 -0.661101
v -0.001127 -0.000321 0.001182
vn 0.357863 0.777405 -0.517276
v -0.001127 -0.000526 0.001076
vn 0.767608 -0.185110 -0.613606
v -0.001127 0.000343 0.001182
vn 0.466174 -0.738389 -0.487302
v -0.001127 0.000548 0.001076
vn 0.704218 0.000000 -0.709984
v -0.001127 0.000011 0.001238
vn 0.918827 0.200952 -0.339670
v -0.001465 -0.000183 0.000621
vn -0.024871 0.815129 -0.578745
v -0.000658 -0.000467 0.001228
vn -0.048117 0.758451 -0.649952
v -0.000541 -0.000424 0.001281
vn 0.094221 0.790909 -0.604637
v -0.000717 -0.000467 0.001228
vn -0.964406 -0.050954 -0.259471
v 0.000172 0.000010 0.001372
vn -0.025682 0.042950 0.998747
v -0.001038 -0.000845 -0.000322
vn 0.680669 0.087345 0.727366
v -0.001221 -0.000845 -0.000322
vn 0.615239 -0.058072 0.786199
v -0.001221 0.000844 -0.000322
vn -0.027439 -0.051587 0.998291
v -0.001038 0.000844 -0.000322
vn 0.073230 -0.904428 0.420294
v -0.000094 0.001172 -0.000194
vn -0.021841 -0.852643 -0.522036
v -0.000005 0.001172 0.000196
vn -0.599013 -0.664800 -0.446345
v 0.000156 0.001172 0.000119
vn -0.986332 -0.162464 0.027480
v 0.000195 0.001172 -0.000055
vn -0.159030 -0.158976 0.974390
v 0.000084 0.001172 -0.000194
vn 0.167910 -0.976681 -0.133793
v -0.000165 0.001172 0.000119
vn 0.230530 -0.972884 0.018770
v -0.000205 0.001172 -0.000055
vn 0.361311 -0.291066 -0.885853
v -0.000717 0.000194 0.001443
vn 0.088964 -0.807780 -0.582732
v -0.000717 0.000490 0.001228
vn -0.172404 -0.726522 -0.665164
v -0.000658 0.000490 0.001228
vn -0.055680 -0.297182 -0.953196
v -0.000658 0.000194 0.001443
vn -0.148322 0.298760 0.942731
v 0.000084 -0.001178 -0.000194
vn 0.222406 0.974786 0.018109
v -0.000205 -0.001178 -0.000055
vn 0.153616 0.980520 -0.122404
v -0.000165 -0.001178 0.000119
vn -0.993525 0.106458 0.039689
v 0.000195 -0.001178 -0.000055
vn -0.520056 0.730569 -0.442505
v 0.000156 -0.001178 0.000119
vn 0.044161 0.863764 -0.501958
v -0.000005 -0.001178 0.000196
vn 0.130130 0.830856 0.541059
v -0.000094 -0.001178 -0.000194
vn 0.340147 0.299430 -0.891427
v -0.000717 -0.000171 0.001443
vn -0.098521 0.268851 -0.958130
v -0.000658 -0.000171 0.001443
vn -1.000000 -0.000103 0.000211
v 0.000199 0.000506 -0.000215
vn -0.124353 0.112154 0.985879
v 0.000199 -0.000154 -0.000310
vn -0.875208 0.118985 0.468885
v 0.000199 -0.000342 -0.000274
vn -0.999855 0.000000 -0.017011
v 0.000199 -0.000002 0.000312
vn -0.999851 -0.000677 -0.017222
v 0.000199 0.000261 0.000307
vn -0.999139 -0.023993 -0.033837
v 0.000199 0.000583 0.000264
vn -0.999983 -0.005563 -0.001842
v 0.000199 0.000628 0.000203
vn -0.999996 0.002488 0.001189
v 0.000199 -0.000599 -0.000113
vn -0.999993 0.002611 0.002483
v 0.000199 -0.000525 -0.000203
vn -0.999680 0.007653 -0.024094
v 0.000199 -0.000533 0.000287
vn -0.999470 0.019045 -0.026419
v 0.000199 -0.000579 0.000264
vn -0.999997 0.002405 0.000309
v 0.000199 -0.000622 -0.000000
vn -0.999997 0.002304 -0.000748
v 0.000199 -0.000624 0.000203
vn -0.086587 -0.112131 0.989914
v 0.000199 0.000150 -0.000310
vn -0.021410 0.000000 0.999771
v 0.000199 -0.000002 -0.000318
vn -0.654901 -0.136520 0.743281
v 0.000199 0.000247 -0.000293
vn -0.775042 -0.160548 0.611175
v 0.000199 0.000346 -0.000274
vn -0.999980 -0.006204 0.000824
v 0.000199 0.000626 -0.000000
vn -0.999972 -0.006785 0.003242
v 0.000199 0.000603 -0.000113
vn -0.999997 0.002378 0.000023
v 0.000199 -0.000628 0.000113
vn -0.999861 0.001205 -0.016634
v 0.000199 -0.000477 0.000293
vn -0.999812 -0.005308 -0.018669
v 0.000199 0.000537 0.000287
vn -0.999859 0.000672 -0.016801
v 0.000199 -0.000257 0.000307
vn -0.999848 -0.001261 -0.017405
v 0.000199 0.000481 0.000293
vn -0.999982 -0.006020 0.000059
v 0.000199 0.000633 0.000113
vn -0.999957 0.003200 0.008677
v 0.000199 -0.000451 -0.000239
vn -0.999942 -0.007784 0.007403
v 0.000199 0.000529 -0.000203
vn -0.999977 0.002952 0.006068
v 0.000199 -0.000502 -0.000215
vn -0.998762 -0.017212 0.046678
v 0.000199 0.000455 -0.000239
# 74 vertices, 0 vertices normals

f 2//2 24//24 11//11
f 3//3 1//1 11//11
f 17//17 10//10 11//11
f 17//17 11//11 1//1
f 1//1 15//15 17//17
f 6//6 15//15 1//1
f 3//3 6//6 1//1
f 4//4 8//8 41//41
f 8//8 40//40 41//41
f 45//45 21//21 8//8
f 8//8 4//4 45//45
f 45//45 4//4 19//19
f 23//23 24//24 2//2
f 23//23 2//2 11//11
f 15//15 6//6 27//27
f 7//7 6//6 3//3
f 7//7 11//11 24//24
f 7//7 3//3 11//11
f 7//7 32//32 6//6
f 29//29 52//52 51//51
f 29//29 21//21 28//28
f 29//29 51//51 21//21
f 58//58 40//40 56//56
f 8//8 56//56 40//40
f 17//17 13//13 10//10
f 42//42 4//4 41//41
f 42//42 19//19 4//4
f 42//42 39//39 10//10
f 42//42 10//10 13//13
f 59//59 25//25 60//60
f 59//59 30//30 25//25
f 10//10 39//39 38//38
f 60//60 25//25 22//22
f 27//27 34//34 15//15
f 34//34 27//27 35//35
f 35//35 27//27 5//5
f 5//5 36//36 35//35
f 5//5 27//27 28//28
f 21//21 5//5 28//28
f 5//5 21//21 45//45
f 5//5 45//45 36//36
f 31//31 27//27 6//6
f 32//32 31//31 6//6
f 32//32 7//7 26//26
f 26//26 7//7 24//24
f 15//15 34//34 33//33
f 53//53 54//54 40//40
f 55//55 8//8 21//21
f 55//55 56//56 8//8
f 20//20 42//42 13//13
f 17//17 16//16 12//12
f 12//12 13//13 17//17
f 62//62 29//29 30//30
f 10//10 38//38 9//9
f 11//11 10//10 9//9
f 9//9 23//23 11//11
f 9//9 38//38 43//43
f 23//23 9//9 43//43
f 44//44 16//16 33//33
f 44//44 12//12 16//16
f 13//13 12//12 44//44
f 44//44 20//20 13//13
f 45//45 19//19 44//44
f 19//19 20//20 44//44
f 15//15 33//33 14//14
f 14//14 33//33 16//16
f 14//14 17//17 15//15
f 14//14 16//16 17//17
f 51//51 67//67 21//21
f 49//49 68//68 21//21
f 50//50 49//49 21//21
f 64//64 63//63 29//29
f 57//57 53//53 40//40
f 48//48 37//37 40//40
f 68//68 66//66 21//21
f 66//66 55//55 21//21
f 42//42 18//18 19//19
f 18//18 20//20 19//19
f 18//18 42//42 20//20
f 59//59 61//61 30//30
f 61//61 62//62 30//30
f 72//72 64//64 29//29
f 69//69 50//50 21//21
f 67//67 69//69 21//21
f 52//52 29//29 70//70
f 63//63 70//70 29//29
f 65//65 40//40 58//58
f 65//65 57//57 40//40
f 71//71 48//48 40//40
f 47//47 37//37 48//48
f 22//22 37//37 47//47
f 60//60 22//22 47//47
f 29//29 62//62 74//74
f 40//40 54//54 73//73
f 73//73 71//71 40//40
f 46//46 72//72 29//29
f 29//29 74//74 46//46
f 23//23 22//22 24//24
f 22//22 25//25 24//24
f 28//28 27//27 26//26
f 30//30 29//29 26//26
f 26//26 31//31 32//32
f 26//26 29//29 28//28
f 27//27 31//31 26//26
f 26//26 24//24 25//25
f 26//26 25//25 30//30
f 33//33 34//34 35//35
f 36//36 33//33 35//35
f 37//37 38//38 39//39
f 41//41 40//40 37//37
f 39//39 42//42 37//37
f 37//37 42//42 41//41
f 37//37 43//43 38//38
f 37//37 22//22 23//23
f 37//37 23//23 43//43
f 44//44 33//33 36//36
f 44//44 36//36 45//45
f 46//46 47//47 48//48
f 46//46 49//49 50//50
f 46//46 51//51 52//52
f 54//54 53//53 46//46
f 56//56 55//55 46//46
f 53//53 57//57 46//46
f 58//58 56//56 46//46
f 46//46 59//59 60//60
f 62//62 61//61 46//46
f 46//46 63//63 64//64
f 57//57 65//65 46//46
f 55//55 66//66 46//46
f 46//46 67//67 51//51
f 68//68 49//49 46//46
f 46//46 69//69 67//67
f 46//46 70//70 63//63
f 46//46 48//48 71//71
f 46//46 66//66 68//68
f 46//46 61//61 59//59
f 64//64 72//72 46//46
f 50//50 69//69 46//46
f 52//52 70//70 46//46
f 46//46 65//65 58//58
f 46//46 71//71 73//73
f 60//60 47//47 46//46
f 46//46 74//74 62//62
f 46//46 73//73 54//54
# 144 faces, 0 coords texture

# End of File