####
#
# OBJ File Generated by Meshlab
#
####
# Object l_clav_chull.obj
#
# Vertices: 48
# Faces: 92
#
####
vn -0.671195 -0.740253 -0.039037
v -0.063931 0.059325 0.144697
vn -0.471996 -0.865374 -0.168369
v -0.012304 0.026820 0.094890
vn -0.586988 -0.589425 -0.554999
v -0.022413 0.035981 0.089601
vn 0.095914 0.535154 -0.839292
v 0.015899 0.066339 0.071990
vn 0.123336 -0.988810 -0.083924
v 0.012941 0.017706 0.160768
vn 0.104733 -0.863884 -0.492681
v 0.015090 0.026846 0.094791
vn -0.533151 -0.615006 0.580962
v -0.020821 0.028212 0.178968
vn -0.506776 -0.541228 0.671007
v -0.054146 0.097058 0.213008
vn -0.661505 -0.746304 0.073770
v -0.020821 0.021495 0.167331
vn 0.954846 -0.291707 -0.056362
v 0.050069 0.072969 0.171286
vn 0.963587 -0.045319 -0.263527
v 0.050069 0.112626 0.148390
vn 0.921111 -0.047087 -0.386443
v 0.023885 0.058293 0.076637
vn 0.888049 -0.437095 -0.142537
v 0.023885 0.033876 0.090816
vn -0.151148 -0.552572 0.819645
v -0.012836 0.032287 0.186024
vn -0.850604 -0.054615 -0.522963
v -0.063126 0.084821 0.121579
vn -0.241630 0.604801 -0.758835
v -0.013214 0.066313 0.072089
vn -0.577201 0.487772 -0.654918
v -0.063153 0.094971 0.124370
vn -0.502534 -0.362083 -0.785083
v -0.022413 0.056162 0.077949
vn -0.918384 -0.229869 -0.322072
v -0.063557 0.061963 0.134746
vn -0.344049 0.670764 -0.657044
v -0.054263 0.177748 0.183028
vn -0.063546 -0.325226 0.943499
v -0.001726 0.132436 0.247073
vn -0.330617 -0.410742 0.849696
v -0.054192 0.134463 0.239465
vn -0.059159 0.982107 0.178792
v -0.001726 0.189164 0.214322
vn -0.071593 0.606033 0.792211
v -0.001726 0.167591 0.242459
vn -0.246147 0.936244 0.250718
v -0.054192 0.181649 0.212222
vn -0.065711 0.764562 -0.641192
v -0.001655 0.184577 0.179085
vn -0.935981 -0.324642 0.136186
v -0.065655 0.073005 0.171347
vn -0.911918 -0.296891 0.283305
v -0.065726 0.081189 0.185523
vn 0.390807 -0.717290 0.576858
v 0.020219 0.028428 0.179339
vn 0.796100 -0.594448 0.113386
v 0.020219 0.021350 0.167083
vn 0.063156 -0.574160 0.816304
v 0.012334 0.032287 0.186024
vn -0.052090 -0.994821 0.087276
v -0.013442 0.017680 0.160866
vn -0.885611 0.232202 0.402214
v -0.065628 0.156154 0.222651
vn -0.990354 0.133657 0.036523
v -0.065699 0.167132 0.208307
vn -0.952953 -0.091648 0.288930
v -0.065699 0.138330 0.224935
vn -0.335619 0.363953 0.868849
v -0.054192 0.163658 0.235649
vn -0.999946 0.005984 -0.008463
v -0.065699 0.150549 0.179584
vn -0.997491 0.009227 -0.070194
v -0.065655 0.112661 0.148451
vn -0.899738 0.317168 -0.299794
v -0.065699 0.164793 0.190508
vn -0.999999 -0.000050 -0.001346
v -0.065726 0.120846 0.162627
vn 0.999999 -0.000646 -0.001118
v 0.050238 0.121238 0.162172
vn 0.270291 0.766016 -0.583234
v 0.050238 0.184577 0.179085
vn 0.709335 0.649405 0.274074
v 0.050238 0.189128 0.214260
vn 0.762523 0.243720 0.599299
v 0.050238 0.167555 0.242398
vn 0.871459 -0.370805 0.321034
v 0.050238 0.104301 0.225434
vn 0.999993 -0.003688 -0.000987
v 0.050238 0.099664 0.190309
vn 0.853118 0.225676 -0.470384
v 0.050238 0.156391 0.157557
vn 0.533661 -0.355435 0.767380
v 0.050238 0.132400 0.247012
# 48 vertices, 0 vertices normals

f 8//8 22//22 28//28
f 14//14 22//22 8//8
f 35//35 28//28 22//22
f 12//12 4//4 47//47
f 12//12 6//6 4//4
f 16//16 17//17 20//20
f 42//42 47//47 4//4
f 2//2 6//6 32//32
f 3//3 6//6 2//2
f 2//2 1//1 3//3
f 3//3 1//1 19//19
f 1//1 27//27 19//19
f 22//22 14//14 21//21
f 48//48 44//44 21//21
f 28//28 27//27 9//9
f 9//9 27//27 1//1
f 9//9 2//2 32//32
f 1//1 2//2 9//9
f 20//20 17//17 39//39
f 11//11 12//12 47//47
f 12//12 13//13 6//6
f 13//13 30//30 6//6
f 19//19 18//18 3//3
f 18//18 16//16 4//4
f 6//6 18//18 4//4
f 18//18 6//6 3//3
f 26//26 16//16 20//20
f 26//26 4//4 16//16
f 26//26 42//42 4//4
f 25//25 26//26 20//20
f 5//5 32//32 6//6
f 5//5 30//30 32//32
f 6//6 30//30 5//5
f 24//24 21//21 44//44
f 24//24 44//44 43//43
f 7//7 14//14 8//8
f 7//7 8//8 28//28
f 28//28 9//9 7//7
f 32//32 14//14 7//7
f 7//7 9//9 32//32
f 38//38 39//39 17//17
f 38//38 19//19 27//27
f 41//41 11//11 47//47
f 12//12 11//11 10//10
f 10//10 13//13 12//12
f 11//11 41//41 10//10
f 30//30 13//13 10//10
f 10//10 41//41 46//46
f 10//10 45//45 30//30
f 45//45 10//10 46//46
f 31//31 45//45 48//48
f 48//48 21//21 31//31
f 31//31 21//21 14//14
f 31//31 14//14 32//32
f 17//17 16//16 15//15
f 16//16 18//18 15//15
f 15//15 18//18 19//19
f 15//15 38//38 17//17
f 38//38 15//15 19//19
f 20//20 39//39 34//34
f 34//34 25//25 20//20
f 28//28 35//35 34//34
f 22//22 21//21 36//36
f 36//36 21//21 24//24
f 36//36 24//24 25//25
f 36//36 25//25 34//34
f 36//36 35//35 22//22
f 23//23 24//24 43//43
f 24//24 23//23 25//25
f 26//26 25//25 23//23
f 43//43 42//42 23//23
f 42//42 26//26 23//23
f 40//40 27//27 28//28
f 40//40 38//38 27//27
f 34//34 40//40 28//28
f 40//40 34//34 39//39
f 30//30 45//45 29//29
f 31//31 29//29 45//45
f 32//32 30//30 29//29
f 29//29 31//31 32//32
f 33//33 34//34 35//35
f 35//35 36//36 33//33
f 33//33 36//36 34//34
f 39//39 38//38 37//37
f 37//37 40//40 39//39
f 40//40 37//37 38//38
f 41//41 42//42 43//43
f 41//41 43//43 44//44
f 41//41 45//45 46//46
f 41//41 47//47 42//42
f 41//41 44//44 48//48
f 45//45 41//41 48//48
# 92 faces, 0 coords texture

# End of File