####
#
# OBJ File Generated by Meshlab
#
####
# Object l_clav_chull.obj
#
# Vertices: 54
# Faces: 104
#
####
vn 0.525980 0.423117 0.737778
v -0.043190 0.006875 -0.001314
vn 0.267979 0.262079 0.927093
v -0.043000 0.036450 -0.017920
vn -0.333840 0.460877 0.822280
v 0.041498 0.006877 -0.001642
vn 0.693502 0.715041 -0.088152
v -0.031910 -0.023381 0.015003
vn 0.376546 0.574793 0.726517
v -0.041469 -0.008605 0.006828
vn 0.002845 0.093357 -0.995629
v -0.009805 0.001892 0.077092
vn -0.003973 0.170299 0.985384
v 0.015107 0.036378 -0.018057
vn 0.000723 0.153986 0.988073
v -0.015166 0.036376 -0.018057
vn 0.391475 0.805182 -0.445453
v -0.016437 -0.020679 0.043790
vn -0.303197 0.233515 0.923873
v 0.041498 0.036494 -0.017847
vn -0.387418 0.576103 0.719731
v 0.040014 -0.008604 0.006828
vn -0.019561 0.113661 -0.993327
v 0.007126 0.002044 0.077030
vn 0.321451 0.519898 -0.791439
v -0.010361 0.000542 0.076658
vn -0.445709 0.821139 -0.356476
v 0.013686 -0.032946 0.020294
vn -0.381841 0.742520 0.550328
v 0.030454 -0.023381 0.015002
vn 0.229442 0.866662 0.443006
v -0.016437 -0.033506 0.020604
vn -0.396362 0.732771 -0.553122
v 0.013686 -0.007698 0.065933
vn -0.290022 0.568837 -0.769618
v 0.007673 0.000705 0.076591
vn -0.311543 0.831471 -0.459997
v 0.013686 -0.020119 0.043480
vn 0.331385 0.758899 -0.560585
v -0.016437 -0.008258 0.066243
vn 0.286706 -0.886862 -0.362320
v -0.077206 0.116186 0.055334
vn -0.286705 -0.957859 -0.017516
v 0.075285 0.119597 0.038766
vn -0.513574 -0.794314 -0.324511
v 0.075285 0.116186 0.055334
vn 0.513572 -0.857903 -0.015688
v -0.077206 0.119597 0.038766
vn -0.306382 -0.354364 -0.883491
v 0.075285 0.093337 0.079497
vn 0.111776 -0.009479 -0.993688
v -0.077206 0.076985 0.083827
vn 0.306385 -0.461318 -0.832654
v -0.077206 0.093337 0.079497
vn -0.120201 0.037224 -0.992051
v 0.075285 0.076985 0.083827
vn -0.235087 -0.730121 0.641605
v 0.075285 0.108153 0.007544
vn 0.435458 -0.676213 0.594233
v -0.077206 0.108153 0.007544
vn 0.188763 -0.453710 0.870928
v -0.077206 0.094843 -0.002894
vn -0.358835 -0.431247 0.827807
v 0.075285 0.094843 -0.002894
vn 0.268947 -0.904323 0.331463
v -0.077206 0.116794 0.022086
vn -0.487587 -0.819745 0.300462
v 0.075285 0.116794 0.022086
vn -0.268947 -0.699815 -0.661761
v 0.075285 0.107020 0.069552
vn 0.487587 -0.634363 -0.599869
v -0.077206 0.107020 0.069552
vn 0.992529 0.118959 0.027100
v -0.077206 0.028495 0.028644
vn 0.598383 0.700592 -0.388727
v -0.077206 0.034006 0.061437
vn 0.733617 0.670166 -0.112621
v -0.077206 0.028185 0.045555
vn 0.145959 -0.229694 0.962256
v -0.077206 0.078661 -0.007820
vn 0.782406 0.159461 0.602008
v -0.077206 0.061792 -0.006567
vn 0.583529 0.498479 -0.641103
v -0.077206 0.045172 0.074143
vn 0.611122 0.228226 -0.757920
v -0.077206 0.060174 0.081959
vn 0.648754 0.408356 0.642156
v -0.077206 0.046514 0.000695
vn 0.769089 0.537182 0.346321
v -0.077206 0.034892 0.012984
vn -0.108863 -0.241281 0.964330
v 0.075285 0.078661 -0.007820
vn -0.992692 0.117744 0.026451
v 0.075285 0.028495 0.028644
vn -0.606327 0.229552 -0.761362
v 0.075285 0.060174 0.081959
vn -0.653629 0.405244 0.639176
v 0.075285 0.046514 0.000694
vn -0.773188 0.533013 0.343624
v 0.075285 0.034892 0.012984
vn -0.579877 0.506932 -0.637779
v 0.075285 0.045172 0.074143
vn -0.581986 0.706260 -0.403099
v 0.075285 0.034006 0.061437
vn -0.737095 0.666444 -0.111996
v 0.075285 0.028185 0.045555
vn -0.785560 0.158419 0.598163
v 0.075285 0.061792 -0.006567
# 54 vertices, 0 vertices normals

f 40//40 2//2 8//8
f 16//16 8//8 5//5
f 5//5 8//8 2//2
f 44//44 2//2 41//41
f 41//41 2//2 40//40
f 15//15 8//8 16//16
f 15//15 11//11 8//8
f 10//10 7//7 3//3
f 8//8 11//11 7//7
f 7//7 11//11 3//3
f 1//1 2//2 44//44
f 44//44 5//5 1//1
f 1//1 5//5 2//2
f 45//45 5//5 44//44
f 5//5 4//4 16//16
f 4//4 39//39 38//38
f 4//4 38//38 16//16
f 43//43 13//13 42//42
f 38//38 9//9 16//16
f 6//6 43//43 26//26
f 6//6 13//13 43//43
f 6//6 26//26 28//28
f 11//11 49//49 3//3
f 50//50 49//49 11//11
f 49//49 10//10 3//3
f 39//39 4//4 37//37
f 5//5 45//45 37//37
f 37//37 4//4 5//5
f 20//20 38//38 42//42
f 20//20 42//42 13//13
f 20//20 9//9 38//38
f 12//12 28//28 48//48
f 12//12 6//6 28//28
f 13//13 6//6 12//12
f 46//46 7//7 10//10
f 46//46 40//40 8//8
f 8//8 7//7 46//46
f 15//15 52//52 53//53
f 16//16 9//9 19//19
f 20//20 19//19 9//9
f 10//10 49//49 54//54
f 54//54 46//46 10//10
f 15//15 53//53 47//47
f 11//11 15//15 47//47
f 47//47 50//50 11//11
f 18//18 48//48 51//51
f 18//18 12//12 48//48
f 18//18 20//20 13//13
f 13//13 12//12 18//18
f 14//14 52//52 15//15
f 14//14 19//19 52//52
f 14//14 15//15 16//16
f 16//16 19//19 14//14
f 17//17 51//51 52//52
f 17//17 18//18 51//51
f 17//17 52//52 19//19
f 17//17 19//19 20//20
f 20//20 18//18 17//17
f 21//21 22//22 23//23
f 24//24 22//22 21//21
f 25//25 26//26 27//27
f 28//28 26//26 25//25
f 29//29 30//30 31//31
f 29//29 31//31 32//32
f 33//33 34//34 22//22
f 33//33 22//22 24//24
f 33//33 29//29 34//34
f 33//33 30//30 29//29
f 35//35 36//36 21//21
f 35//35 21//21 23//23
f 35//35 27//27 36//36
f 35//35 25//25 27//27
f 37//37 36//36 27//27
f 37//37 38//38 39//39
f 30//30 33//33 37//37
f 37//37 40//40 31//31
f 37//37 21//21 36//36
f 37//37 31//31 30//30
f 27//27 26//26 37//37
f 37//37 41//41 40//40
f 24//24 21//21 37//37
f 37//37 42//42 38//38
f 37//37 26//26 43//43
f 44//44 41//41 37//37
f 37//37 33//33 24//24
f 37//37 45//45 44//44
f 43//43 42//42 37//37
f 40//40 46//46 31//31
f 32//32 31//31 46//46
f 34//34 29//29 47//47
f 28//28 25//25 47//47
f 48//48 28//28 47//47
f 47//47 22//22 34//34
f 23//23 22//22 47//47
f 47//47 49//49 50//50
f 47//47 29//29 32//32
f 25//25 35//35 47//47
f 47//47 35//35 23//23
f 52//52 51//51 47//47
f 47//47 53//53 52//52
f 32//32 46//46 47//47
f 47//47 46//46 54//54
f 47//47 51//51 48//48
f 47//47 54//54 49//49
# 104 faces, 0 coords texture

# End of File