####
#
# OBJ File Generated by Meshlab
#
####
# Object l_farm_chull.obj
#
# Vertices: 27
# Faces: 50
#
####
vn 2.366281 3.232440 -3.149760
v 0.052383 0.148676 -0.021407
vn 2.790385 1.989230 1.992150
v 0.062817 0.146915 0.031896
vn 2.384321 4.440728 -0.131685
v 0.052383 0.159970 0.005785
vn 2.662827 -1.596085 -2.045620
v 0.063664 0.024700 -0.023326
vn 0.398469 0.848452 -5.935032
v -0.000153 0.121443 -0.040512
vn -2.506810 0.657904 -3.837708
v -0.052046 0.121443 -0.040512
vn 2.641484 0.753014 -4.684085
v 0.052455 0.121443 -0.032728
vn 0.660352 -3.296544 -2.876595
v 0.010997 -0.000498 -0.026158
vn -6.235068 0.661267 0.010362
v -0.065770 0.051538 -0.003566
vn -2.841413 -1.511431 -2.001753
v -0.067802 0.024964 -0.022953
vn -0.647971 -3.325151 -2.864399
v -0.017236 -0.000570 -0.026158
vn -1.805349 -5.619567 0.189165
v -0.027541 -0.000510 -0.000581
vn -3.201970 -1.852311 1.823933
v -0.067579 0.024052 0.014440
vn 1.721811 -5.696831 0.191954
v 0.020087 -0.000536 -0.000516
vn 2.442832 0.182010 4.701458
v 0.052455 0.121443 0.044299
vn -0.642979 -3.726813 2.885699
v -0.014735 -0.000498 0.020139
vn -2.423804 0.326991 3.561473
v -0.052046 0.121443 0.052183
vn 0.421879 0.410666 5.824859
v -0.000153 0.121443 0.052183
vn 0.671332 -3.680520 2.884202
v 0.008567 -0.000498 0.020139
vn 5.125312 1.393724 -1.675089
v 0.063901 0.136047 -0.013807
vn -2.346141 3.179217 0.003976
v -0.052046 0.167761 0.005785
vn 0.432438 4.013826 4.001580
v -0.000082 0.154252 0.038537
vn -2.343991 2.303334 2.253589
v -0.052046 0.154180 0.038537
vn 0.421154 5.666973 0.007545
v -0.000082 0.167833 0.005785
vn 0.411792 4.009439 -4.012817
v -0.000082 0.154252 -0.026967
vn -2.337419 2.332652 -2.268239
v -0.052046 0.154180 -0.026967
vn 3.060591 -1.944978 1.971311
v 0.063395 0.024872 0.015145
# 27 vertices, 0 vertices normals

f 19//19 15//15 18//18
f 15//15 19//19 27//27
f 8//8 4//4 14//14
f 20//20 7//7 1//1
f 18//18 22//22 17//17
f 17//17 22//22 23//23
f 11//11 10//10 6//6
f 11//11 8//8 14//14
f 7//7 25//25 1//1
f 26//26 25//25 6//6
f 7//7 20//20 4//4
f 3//3 25//25 24//24
f 3//3 1//1 25//25
f 3//3 20//20 1//1
f 3//3 2//2 20//20
f 2//2 18//18 15//15
f 2//2 22//22 18//18
f 24//24 22//22 2//2
f 2//2 3//3 24//24
f 16//16 17//17 13//13
f 13//13 12//12 16//16
f 19//19 16//16 14//14
f 4//4 27//27 14//14
f 14//14 27//27 19//19
f 10//10 13//13 9//9
f 10//10 9//9 26//26
f 10//10 26//26 6//6
f 6//6 25//25 5//5
f 5//5 25//25 7//7
f 5//5 11//11 6//6
f 5//5 8//8 11//11
f 5//5 4//4 8//8
f 7//7 4//4 5//5
f 13//13 23//23 9//9
f 13//13 17//17 23//23
f 26//26 9//9 21//21
f 21//21 9//9 23//23
f 12//12 10//10 11//11
f 12//12 13//13 10//10
f 12//12 11//11 14//14
f 16//16 12//12 14//14
f 27//27 2//2 15//15
f 18//18 17//17 16//16
f 16//16 19//19 18//18
f 27//27 20//20 2//2
f 4//4 20//20 27//27
f 22//22 21//21 23//23
f 21//21 22//22 24//24
f 24//24 25//25 21//21
f 21//21 25//25 26//26
# 50 faces, 0 coords texture

# End of File