####
#
# OBJ File Generated by Meshlab
#
####
# Object l_foot_chull.obj
#
# Vertices: 71
# Faces: 138
#
####
vn 0.000000 -0.809402 -0.587254
v 0.000514 0.037296 -0.033960
vn 0.472633 -0.599597 -0.645834
v -0.029076 0.008489 0.004136
vn 0.597421 0.487721 -0.636566
v -0.028649 -0.009150 0.004308
vn 0.801891 0.002600 -0.597464
v -0.033149 -0.000206 0.004224
vn 0.000000 0.819067 -0.573698
v 0.000514 -0.037351 -0.033960
vn -0.451725 0.000423 -0.892157
v 0.029179 -0.000397 0.007771
vn -0.233624 0.660801 -0.713275
v 0.025735 -0.007242 0.007836
vn 0.204571 -0.007694 -0.978822
v -0.023397 -0.000641 0.010141
vn 0.226935 0.744634 -0.627711
v -0.026274 -0.007242 0.007836
vn 0.518864 0.004209 -0.854847
v -0.029718 -0.000397 0.007771
vn 0.132774 -0.732583 -0.667603
v -0.026601 0.006259 0.007704
vn -0.230386 -0.653540 -0.720977
v 0.026061 0.006259 0.007704
vn -0.204573 -0.007714 -0.978821
v 0.022859 -0.000641 0.010141
vn -0.217331 0.760247 -0.612202
v 0.169727 -0.037793 -0.069989
vn -0.100084 0.138853 0.985243
v 0.175095 -0.035252 -0.080360
vn -0.398489 0.486738 -0.777362
v 0.175095 -0.035252 -0.070032
vn -0.038024 0.110555 0.993142
v 0.169727 -0.037793 -0.080403
vn 0.303973 -0.804237 -0.510689
v -0.060433 0.058298 -0.069272
vn 0.353553 -0.935414 0.000026
v -0.060433 0.058298 -0.081120
vn 0.003646 -0.006135 0.999975
v -0.066266 0.056093 -0.081120
vn 0.478983 -0.689090 -0.543810
v -0.066266 0.056093 -0.069272
vn 0.830329 -0.010045 0.557183
v -0.082460 0.031812 -0.081119
vn 0.599850 0.013299 0.800002
v -0.082460 -0.030753 -0.081119
vn 0.888292 0.009543 -0.459181
v -0.082460 -0.030753 -0.069272
vn 0.864106 -0.010454 -0.503201
v -0.082460 0.031812 -0.069272
vn 0.830077 -0.233887 -0.506230
v -0.081627 0.038103 -0.069272
vn 0.738418 -0.208061 0.641444
v -0.081627 0.038103 -0.081119
vn -0.100444 0.854332 -0.509930
v 0.080193 -0.061646 -0.069272
vn 0.022514 0.860970 -0.508157
v -0.048767 -0.061646 -0.069272
vn 0.003233 0.197755 0.980246
v -0.048767 -0.061646 -0.081119
vn -0.008332 0.058037 0.998280
v 0.080193 -0.061646 -0.081119
vn 0.305336 0.807844 -0.504141
v -0.054600 -0.059442 -0.069272
vn 0.040039 0.105932 0.993567
v -0.054600 -0.059442 -0.081119
vn 0.122745 0.206963 0.970618
v -0.066266 -0.055032 -0.081119
vn 0.416256 0.709942 -0.568078
v -0.066266 -0.055032 -0.069272
vn -0.080959 -0.264122 0.961085
v 0.169727 0.038853 -0.080403
vn -0.092102 -0.107333 0.989948
v 0.175095 0.036311 -0.080360
vn -0.402162 -0.505374 -0.763455
v 0.175095 0.036311 -0.070032
vn -0.213646 -0.750104 -0.625859
v 0.169727 0.038853 -0.069989
vn -0.011483 -0.069668 0.997504
v 0.080193 0.062707 -0.081120
vn -0.099374 -0.846522 -0.522996
v 0.080193 0.062707 -0.069272
vn -0.589918 -0.250161 0.767735
v 0.178316 0.032120 -0.080334
vn -0.448272 -0.200295 -0.871169
v 0.178316 0.032120 -0.070058
vn -0.546516 -0.010122 -0.837387
v 0.179390 0.026279 -0.070066
vn -0.978684 -0.018299 0.204555
v 0.179390 0.026279 -0.080325
vn -0.998728 0.009851 0.049452
v 0.179390 -0.025219 -0.080325
vn -0.509169 0.010404 -0.860603
v 0.179390 -0.025219 -0.070066
vn 0.030359 -0.968321 0.247857
v -0.048767 0.062707 -0.081120
vn 0.037606 -0.848903 -0.527210
v -0.048767 0.062707 -0.069272
vn 0.843913 -0.487749 0.223408
v -0.079127 0.043641 -0.081119
vn 0.697205 -0.408526 -0.589077
v -0.079127 0.043641 -0.069272
vn 0.592901 0.612424 -0.522882
v -0.074960 -0.047367 -0.069272
vn 0.101430 0.104770 0.989310
v -0.074960 -0.047367 -0.081119
vn 0.290339 0.187494 0.938376
v -0.079127 -0.042581 -0.081119
vn 0.690691 0.401324 -0.601569
v -0.079127 -0.042581 -0.069272
vn 0.831558 0.234324 -0.503591
v -0.081627 -0.037043 -0.069272
vn 0.273068 0.076948 0.958912
v -0.081627 -0.037043 -0.081119
vn -0.008464 0.805180 -0.592970
v 0.017349 -0.007622 0.007858
vn -0.021314 0.342982 -0.939100
v 0.017351 -0.004340 0.009734
vn 0.012349 0.344626 -0.938659
v -0.017889 -0.004340 0.009734
vn 0.010723 0.809067 -0.587619
v -0.017887 -0.007622 0.007858
vn -0.350103 0.146814 0.925134
v 0.178316 -0.031060 -0.080334
vn -0.449886 0.200195 -0.870359
v 0.178316 -0.031060 -0.070058
vn 0.695411 -0.718252 0.022750
v -0.074960 0.048426 -0.081119
vn 0.566929 -0.585550 -0.579416
v -0.074960 0.048426 -0.069272
vn -0.017988 -0.395641 -0.918229
v 0.017356 0.003508 0.009633
vn 0.017816 -0.319757 -0.947332
v -0.017895 0.003508 0.009633
vn 0.010072 -0.794997 -0.606530
v -0.017896 0.006881 0.007672
vn -0.008253 -0.800363 -0.599459
v 0.017358 0.006881 0.007672
vn -0.004982 -0.012880 -0.999905
v 0.017353 -0.000432 0.010517
vn 0.009292 -0.012861 -0.999874
v -0.017893 -0.000432 0.010517
# 71 vertices, 0 vertices normals

f 30//30 31//31 20//20
f 40//40 20//20 31//31
f 20//20 34//34 33//33
f 33//33 30//30 20//20
f 17//17 40//40 31//31
f 14//14 7//7 16//16
f 4//4 25//25 26//26
f 4//4 26//26 51//51
f 4//4 51//51 2//2
f 24//24 25//25 4//4
f 18//18 2//2 21//21
f 18//18 49//49 2//2
f 11//11 49//49 68//68
f 11//11 2//2 49//49
f 11//11 4//4 2//2
f 53//53 34//34 20//20
f 54//54 53//53 20//20
f 57//57 20//20 23//23
f 57//57 54//54 20//20
f 55//55 4//4 3//3
f 22//22 23//23 20//20
f 22//22 20//20 27//27
f 7//7 14//14 28//28
f 36//36 40//40 17//17
f 13//13 7//7 59//59
f 7//7 63//63 16//16
f 1//1 68//68 49//49
f 1//1 49//49 41//41
f 1//1 41//41 69//69
f 1//1 69//69 68//68
f 65//65 21//21 2//2
f 51//51 65//65 2//2
f 50//50 27//27 20//20
f 67//67 11//11 68//68
f 4//4 11//11 10//10
f 52//52 3//3 35//35
f 52//52 55//55 3//3
f 24//24 4//4 56//56
f 4//4 55//55 56//56
f 9//9 61//61 29//29
f 32//32 9//9 29//29
f 61//61 9//9 60//60
f 9//9 32//32 35//35
f 9//9 35//35 3//3
f 3//3 4//4 9//9
f 4//4 10//10 9//9
f 5//5 28//28 29//29
f 61//61 5//5 29//29
f 58//58 59//59 7//7
f 58//58 5//5 61//61
f 7//7 28//28 58//58
f 28//28 5//5 58//58
f 12//12 38//38 43//43
f 12//12 39//39 38//38
f 12//12 41//41 39//39
f 12//12 69//69 41//41
f 13//13 6//6 7//7
f 6//6 63//63 7//7
f 47//47 63//63 6//6
f 44//44 47//47 6//6
f 6//6 43//43 44//44
f 6//6 12//12 43//43
f 6//6 13//13 12//12
f 64//64 50//50 20//20
f 8//8 9//9 10//10
f 8//8 10//10 11//11
f 71//71 60//60 8//8
f 9//9 8//8 60//60
f 8//8 67//67 71//71
f 11//11 67//67 8//8
f 66//66 69//69 12//12
f 66//66 12//12 13//13
f 70//70 66//66 13//13
f 70//70 13//13 59//59
f 14//14 16//16 15//15
f 17//17 14//14 15//15
f 20//20 19//19 18//18
f 18//18 21//21 20//20
f 23//23 22//22 24//24
f 22//22 25//25 24//24
f 22//22 26//26 25//25
f 22//22 27//27 26//26
f 29//29 28//28 30//30
f 28//28 31//31 30//30
f 28//28 14//14 17//17
f 28//28 17//17 31//31
f 32//32 33//33 34//34
f 34//34 35//35 32//32
f 32//32 29//29 30//30
f 32//32 30//30 33//33
f 36//36 17//17 15//15
f 36//36 15//15 37//37
f 37//37 38//38 36//36
f 36//36 38//38 39//39
f 40//40 36//36 41//41
f 36//36 39//39 41//41
f 42//42 38//38 37//37
f 43//43 38//38 42//42
f 42//42 44//44 43//43
f 42//42 45//45 44//44
f 45//45 46//46 44//44
f 46//46 47//47 44//44
f 41//41 49//49 48//48
f 48//48 40//40 41//41
f 48//48 19//19 20//20
f 20//20 40//40 48//48
f 48//48 18//18 19//19
f 48//48 49//49 18//18
f 26//26 27//27 50//50
f 50//50 51//51 26//26
f 52//52 35//35 34//34
f 53//53 52//52 34//34
f 52//52 53//53 54//54
f 52//52 54//54 55//55
f 56//56 23//23 24//24
f 56//56 57//57 23//23
f 56//56 55//55 54//54
f 57//57 56//56 54//54
f 58//58 60//60 59//59
f 58//58 61//61 60//60
f 62//62 37//37 15//15
f 62//62 42//42 37//37
f 45//45 42//42 62//62
f 62//62 46//46 45//45
f 62//62 15//15 16//16
f 62//62 16//16 63//63
f 47//47 46//46 62//62
f 62//62 63//63 47//47
f 64//64 20//20 21//21
f 21//21 65//65 64//64
f 51//51 50//50 64//64
f 64//64 65//65 51//51
f 66//66 67//67 68//68
f 66//66 68//68 69//69
f 70//70 67//67 66//66
f 70//70 71//71 67//67
f 70//70 59//59 60//60
f 70//70 60//60 71//71
# 138 faces, 0 coords texture

# End of File