####
#
# OBJ File Generated by Meshlab
#
####
# Object l_hand_chull.obj
#
# Vertices: 27
# Faces: 50
#
####
vn -2.787302 0.596959 3.481506
v 0.061107 0.000219 -0.029116
vn -2.913256 1.238736 -3.972101
v 0.061107 0.000219 0.028308
vn -6.212427 0.412108 0.157181
v 0.065850 0.011391 -0.001096
vn -2.497067 2.302823 2.280354
v 0.061108 -0.020085 -0.020706
vn -2.498539 3.215055 0.001830
v 0.061107 -0.028494 -0.000404
vn -2.510938 2.335137 -2.275905
v 0.061108 -0.020085 0.019898
vn 1.596288 -4.693694 -2.027046
v -0.023124 0.124665 0.032929
vn -3.098255 0.294119 -3.102196
v 0.066335 0.064810 0.038883
vn -2.854860 -1.316046 2.357711
v 0.066275 0.085778 -0.020613
vn -2.787040 -1.155113 -2.378085
v 0.066335 0.085667 0.038883
vn -0.017809 -2.988037 -3.081714
v -0.001066 0.124666 0.042065
vn -0.009363 0.184562 -6.266535
v -0.001066 0.093244 0.042065
vn 2.903019 -0.290833 3.116780
v -0.068481 0.022798 -0.034530
vn 2.614836 0.453434 3.029214
v -0.068491 0.001657 -0.035407
vn -1.575772 -4.696043 2.087197
v 0.020990 0.124666 -0.011185
vn 2.051523 -4.939991 0.994721
v -0.032005 0.124701 -0.001280
vn 0.012427 -3.342396 3.053553
v -0.001066 0.124666 -0.020321
vn -1.594531 -4.540905 -2.175098
v 0.020980 0.124665 0.032950
vn -2.377970 -5.080603 -0.018841
v 0.030127 0.124666 0.010872
vn 2.166661 1.956390 2.048587
v -0.068491 -0.024554 -0.026039
vn 2.891661 0.612390 -3.053987
v -0.068492 0.001543 0.034979
vn -0.125724 1.317155 -6.079388
v -0.057959 0.001543 0.034979
vn 2.151233 1.944796 -2.050167
v -0.068489 -0.024553 0.026189
vn 3.173748 0.107915 -3.138201
v -0.068492 0.065468 0.038909
vn 2.204203 2.861426 -0.002610
v -0.068491 -0.035373 0.000075
vn 2.958649 -1.625782 2.238686
v -0.068492 0.091014 -0.020384
vn 2.727314 -1.281308 -2.295491
v -0.068492 0.090859 0.038533
# 27 vertices, 0 vertices normals

f 11//11 18//18 10//10
f 26//26 13//13 17//17
f 16//16 26//26 17//17
f 11//11 7//7 16//16
f 19//19 10//10 18//18
f 19//19 9//9 10//10
f 1//1 14//14 20//20
f 3//3 9//9 1//1
f 6//6 2//2 8//8
f 8//8 3//3 6//6
f 2//2 22//22 8//8
f 8//8 22//22 12//12
f 13//13 14//14 1//1
f 13//13 1//1 9//9
f 13//13 9//9 17//17
f 17//17 9//9 15//15
f 9//9 19//19 15//15
f 1//1 20//20 4//4
f 4//4 3//3 1//1
f 23//23 22//22 2//2
f 23//23 2//2 6//6
f 5//5 3//3 4//4
f 6//6 3//3 5//5
f 21//21 12//12 22//22
f 21//21 24//24 12//12
f 25//25 4//4 20//20
f 25//25 5//5 4//4
f 25//25 23//23 6//6
f 6//6 5//5 25//25
f 24//24 27//27 11//11
f 27//27 7//7 11//11
f 7//7 27//27 16//16
f 27//27 26//26 16//16
f 9//9 3//3 8//8
f 10//10 9//9 8//8
f 8//8 11//11 10//10
f 11//11 8//8 12//12
f 15//15 16//16 17//17
f 15//15 11//11 16//16
f 11//11 15//15 18//18
f 15//15 19//19 18//18
f 22//22 23//23 21//21
f 24//24 11//11 12//12
f 24//24 13//13 26//26
f 24//24 25//25 20//20
f 14//14 13//13 24//24
f 27//27 24//24 26//26
f 24//24 23//23 25//25
f 24//24 20//20 14//14
f 24//24 21//21 23//23
# 50 faces, 0 coords texture

# End of File