####
#
# OBJ File Generated by Meshlab
#
####
# Object l_hand_chull.obj
#
# Vertices: 49
# Faces: 94
#
####
vn -0.071499 0.938788 -0.336995
v 0.044433 -0.030560 0.013811
vn 0.263163 0.964751 0.000000
v -0.046652 -0.033296 0.000058
vn 0.272746 0.866966 -0.417108
v -0.046652 -0.030560 0.013811
vn -0.030024 0.999549 0.000000
v 0.044433 -0.033296 0.000058
vn -0.057688 0.382046 0.922341
v 0.044433 -0.011111 -0.033145
vn 0.619476 0.300412 0.725259
v -0.046652 -0.011111 -0.033145
vn 0.354844 0.661109 0.661075
v -0.046652 -0.022769 -0.025355
vn -0.030018 0.706806 0.706770
v 0.044433 -0.022769 -0.025355
vn 0.202180 0.025177 0.979025
v -0.046652 0.002643 -0.035881
vn -0.101019 0.003994 0.994877
v 0.044433 0.002643 -0.035881
vn -0.844704 0.494487 0.204835
v 0.044433 -0.030560 -0.013695
vn -0.865769 -0.183738 -0.465494
v 0.044433 0.016396 0.033261
vn -0.987170 -0.119250 -0.106187
v 0.044433 0.028056 0.025470
vn -0.334760 0.377757 -0.863270
v 0.044433 -0.011111 0.033261
vn -0.740801 0.474993 -0.474969
v 0.044433 -0.022769 0.025470
vn -0.808053 -0.216283 0.547970
v 0.044433 0.016396 -0.033145
vn -0.981874 -0.141550 0.126044
v 0.044433 0.028056 -0.025355
vn -0.996309 -0.079304 -0.032846
v 0.044433 0.035845 0.013811
vn -0.995472 -0.087825 0.036373
v 0.044433 0.035845 -0.013695
vn -0.156369 0.025733 -0.987363
v 0.044433 0.002643 0.035997
vn -0.996516 -0.083398 0.000000
v 0.044433 0.038581 0.000058
vn 0.558654 0.766260 0.317413
v -0.046652 -0.030560 -0.013695
vn -0.000004 0.707125 -0.707089
v 0.024317 -0.022769 0.025471
vn 0.298379 0.674914 -0.674879
v -0.046652 -0.022769 0.025471
vn 0.061042 0.371225 -0.926534
v -0.046652 -0.011111 0.033261
vn 0.046974 0.003640 -0.998890
v -0.046652 0.002643 0.035997
vn 0.979493 -0.075133 -0.186946
v -0.046652 0.016396 0.033261
vn 0.990539 -0.126789 0.052511
v -0.046652 0.035845 -0.013695
vn 0.988115 -0.153715 0.000000
v -0.046652 0.038581 0.000058
vn 0.863215 -0.188253 0.468423
v -0.046652 0.016396 -0.033145
vn 0.980193 -0.149076 0.130379
v -0.046652 0.028056 -0.025355
vn 0.977742 -0.193844 -0.080282
v -0.046652 0.035845 0.013811
vn 0.935087 -0.266783 -0.233324
v -0.046652 0.028056 0.025471
vn 0.198685 -0.975891 -0.090339
v -0.033982 0.080254 0.013811
vn 0.824063 -0.424899 0.374675
v -0.033982 0.080254 -0.013695
vn 0.960014 -0.279951 0.000000
v -0.036718 0.080254 0.000058
vn 0.313313 -0.514370 0.798285
v -0.014533 0.080254 -0.033145
vn 0.000000 -0.172939 0.984933
v -0.000780 0.080254 -0.035881
vn -0.274136 -0.663989 0.695678
v 0.012974 0.080254 -0.033145
vn -0.543666 -0.802816 0.244774
v 0.032423 0.080254 -0.013695
vn -0.413301 -0.811408 0.413279
v 0.024633 0.080254 -0.025355
vn 0.590109 -0.550979 0.590079
v -0.026192 0.080254 -0.025355
vn -0.775883 -0.630877 0.000000
v 0.035159 0.080254 0.000058
vn -0.585437 -0.766674 -0.263580
v 0.032423 0.080254 0.013811
vn -0.314630 -0.513415 -0.798381
v 0.012974 0.080254 0.033261
vn 0.000000 -0.092976 -0.995668
v -0.000780 0.080254 0.035997
vn -0.479544 -0.734914 -0.479520
v 0.024633 0.080254 0.025470
vn 0.348881 -0.297045 -0.888846
v -0.014533 0.080254 0.033261
vn 0.666240 -0.335102 -0.666206
v -0.026192 0.080254 0.025470
# 49 vertices, 0 vertices normals

f 38//38 9//9 10//10
f 36//36 31//31 35//35
f 35//35 31//31 30//30
f 35//35 30//30 42//42
f 21//21 18//18 43//43
f 18//18 13//13 43//43
f 19//19 21//21 43//43
f 17//17 19//19 43//43
f 40//40 17//17 43//43
f 40//40 16//16 17//17
f 40//40 41//41 16//16
f 42//42 30//30 37//37
f 37//37 30//30 9//9
f 37//37 9//9 38//38
f 44//44 13//13 12//12
f 43//43 13//13 44//44
f 46//46 20//20 26//26
f 39//39 16//16 41//41
f 10//10 16//16 39//39
f 39//39 38//38 10//10
f 23//23 14//14 15//15
f 23//23 15//15 1//1
f 32//32 29//29 36//36
f 45//45 12//12 20//20
f 46//46 45//45 20//20
f 28//28 31//31 36//36
f 29//29 28//28 36//36
f 47//47 44//44 12//12
f 45//45 47//47 12//12
f 48//48 46//46 26//26
f 33//33 32//32 36//36
f 27//27 49//49 48//48
f 27//27 48//48 26//26
f 34//34 33//33 36//36
f 34//34 27//27 33//33
f 49//49 27//27 34//34
f 1//1 2//2 3//3
f 1//1 4//4 2//2
f 5//5 6//6 7//7
f 7//7 8//8 5//5
f 5//5 10//10 9//9
f 5//5 9//9 6//6
f 11//11 12//12 13//13
f 15//15 14//14 11//11
f 17//17 16//16 11//11
f 11//11 1//1 15//15
f 11//11 5//5 8//8
f 4//4 1//1 11//11
f 13//13 18//18 11//11
f 11//11 19//19 17//17
f 11//11 14//14 20//20
f 11//11 18//18 21//21
f 20//20 12//12 11//11
f 21//21 19//19 11//11
f 11//11 16//16 10//10
f 5//5 11//11 10//10
f 11//11 2//2 4//4
f 11//11 22//22 2//2
f 7//7 22//22 11//11
f 11//11 8//8 7//7
f 23//23 1//1 3//3
f 24//24 23//23 3//3
f 25//25 20//20 14//14
f 25//25 26//26 20//20
f 25//25 23//23 24//24
f 14//14 23//23 25//25
f 27//27 28//28 29//29
f 3//3 2//2 27//27
f 27//27 2//2 22//22
f 27//27 30//30 31//31
f 27//27 22//22 7//7
f 27//27 9//9 30//30
f 27//27 6//6 9//9
f 6//6 27//27 7//7
f 27//27 24//24 3//3
f 27//27 25//25 24//24
f 25//25 27//27 26//26
f 27//27 29//29 32//32
f 31//31 28//28 27//27
f 33//33 27//27 32//32
f 36//36 35//35 34//34
f 34//34 37//37 38//38
f 34//34 38//38 39//39
f 41//41 40//40 34//34
f 34//34 35//35 42//42
f 34//34 40//40 43//43
f 42//42 37//37 34//34
f 43//43 44//44 34//34
f 34//34 45//45 46//46
f 34//34 39//39 41//41
f 34//34 47//47 45//45
f 34//34 48//48 49//49
f 44//44 47//47 34//34
f 46//46 48//48 34//34
# 94 faces, 0 coords texture

# End of File