####
#
# OBJ File Generated by Meshlab
#
####
# Object l_lleg_chull.obj
#
# Vertices: 77
# Faces: 150
#
####
vn -0.366917 0.927120 -0.076296
v -0.045239 0.053656 -0.180887
vn -0.855540 0.474374 0.207414
v -0.056734 0.045850 -0.138097
vn -0.146886 0.982607 -0.113613
v -0.032342 0.040439 -0.369192
vn -0.266912 0.963705 -0.005612
v -0.034592 0.058721 -0.136216
vn -0.017709 0.999835 -0.003955
v -0.000908 0.063190 -0.045780
vn -0.819395 0.529257 0.220179
v -0.031125 0.050353 -0.048762
vn -0.925264 0.241188 0.292772
v -0.015107 0.050738 0.005229
vn -0.219774 0.357015 0.907877
v 0.018929 0.049611 0.046411
vn -0.959214 0.260810 -0.109025
v -0.067133 0.036005 -0.226491
vn -0.678841 0.733174 -0.040377
v -0.068588 0.041427 -0.182875
vn -0.769091 0.589862 -0.246093
v -0.051184 0.029746 -0.370794
vn -0.995725 0.008958 -0.091930
v -0.074707 0.003326 -0.227038
vn 0.887338 -0.006985 0.461068
v 0.068186 0.002666 0.024269
vn 0.603744 0.144442 0.783983
v 0.065037 0.042207 0.027140
vn 0.042851 -0.914139 0.403131
v 0.034101 -0.057092 0.022297
vn 0.370760 -0.231184 0.899495
v 0.033269 -0.047994 0.042515
vn -0.373528 -0.787985 0.489445
v -0.011265 -0.049441 0.014327
vn -0.723837 -0.050011 0.688156
v 0.008340 -0.032554 0.043287
vn -0.088677 -0.215154 0.972546
v 0.018071 -0.043243 0.046655
vn -0.840068 0.022874 0.541999
v -0.015019 -0.032655 0.010915
vn -0.740337 0.042355 0.670901
v 0.009002 0.039087 0.043099
vn -0.811804 0.213367 0.543552
v -0.012740 0.050795 0.010915
vn -0.923917 -0.251425 0.288380
v -0.017839 -0.049599 0.005229
vn -0.966028 0.017955 0.257814
v -0.076684 0.003459 -0.183448
vn -0.950718 0.025886 0.308973
v -0.017386 -0.032707 0.005229
vn -0.797948 -0.098192 0.594674
v -0.015472 -0.049542 0.010915
vn -0.169076 -0.975695 0.139402
v 0.017205 -0.056931 0.023957
vn 0.059830 0.915287 0.398334
v 0.035211 0.063034 0.021981
vn 0.379127 0.138428 0.914932
v 0.034212 0.054059 0.042247
vn 0.047517 0.996110 -0.074206
v 0.033763 0.061627 -0.086522
vn 0.010117 0.999867 -0.012810
v 0.021638 0.062987 -0.043819
vn -0.191850 0.974052 0.120067
v 0.018316 0.063195 0.023642
vn -0.053270 0.997608 -0.044046
v -0.018179 0.062095 -0.091039
vn 0.132568 0.985696 -0.104063
v 0.017635 0.039989 -0.364846
vn 0.972790 0.213483 -0.090020
v 0.042385 0.026444 -0.312202
vn 0.772679 0.474488 -0.421697
v 0.007633 0.026792 -0.418341
vn 0.996340 -0.008983 0.085007
v 0.069841 0.002633 0.017295
vn 0.533744 -0.085957 0.841266
v 0.064307 -0.036794 0.027348
vn -0.963876 -0.243608 -0.107698
v -0.067738 -0.029484 -0.226319
vn -0.252194 -0.967342 -0.025436
v -0.035618 -0.052322 -0.135924
vn -0.383979 -0.920575 -0.071434
v -0.046172 -0.047297 -0.180621
vn -0.723574 -0.669621 0.167473
v -0.033856 -0.049983 -0.048762
vn -0.741740 -0.670533 0.014396
v -0.069291 -0.034649 -0.182675
vn 0.636207 0.766515 -0.087722
v 0.051161 0.062818 -0.004162
vn 0.700288 0.707410 -0.095754
v 0.060966 0.048994 -0.040352
vn 0.699379 0.699797 -0.145443
v 0.036275 0.028957 -0.363187
vn 0.309889 0.948182 -0.070139
v 0.044182 0.062784 -0.041858
vn 0.982589 0.167638 -0.080103
v 0.065134 0.049052 -0.003672
vn 0.247571 0.947979 0.200112
v 0.050471 0.062887 0.019520
vn 0.951292 0.305934 0.038056
v 0.066660 0.049095 0.017888
vn -0.712101 0.257836 -0.653018
v -0.006811 0.026083 -0.426932
vn 0.990350 -0.023176 -0.136637
v 0.042272 0.001889 -0.362573
vn 0.997341 -0.009416 -0.072269
v 0.069403 0.002582 -0.003399
vn -0.003217 -0.997789 -0.066390
v 0.006703 -0.055994 -0.088471
vn -0.004064 0.913334 -0.407191
v -0.001449 0.026094 -0.429307
vn 0.814634 0.075543 -0.575034
v 0.003365 0.026331 -0.426443
vn -0.693869 -0.480707 -0.536160
v -0.014010 -0.024924 -0.419318
vn -0.783871 -0.580335 -0.220809
v -0.051684 -0.024278 -0.370651
vn -0.956858 0.010254 -0.290374
v -0.057681 0.002789 -0.371266
vn -0.702995 -0.078881 -0.706806
v -0.008078 -0.024447 -0.426932
vn -0.008333 -0.999931 -0.008222
v 0.020527 -0.057140 -0.043503
vn -0.101230 -0.994558 0.024624
v -0.002018 -0.056936 -0.045464
vn -0.046443 -0.997918 -0.044746
v -0.019267 -0.055760 -0.090729
vn 0.330799 -0.940811 -0.073800
v 0.043072 -0.057344 -0.041542
vn 0.123172 -0.985718 0.114841
v 0.049361 -0.057241 0.019836
vn 0.945478 -0.323260 0.039685
v 0.065802 -0.043759 0.018132
vn 0.492366 -0.826702 -0.272284
v 0.006339 -0.024517 -0.418341
vn 0.838778 -0.142023 -0.525624
v 0.002097 -0.024244 -0.426443
vn -0.000894 -0.995685 -0.092797
v -0.008054 -0.035536 -0.366820
vn 0.022109 -0.997143 -0.072233
v 0.032674 -0.056228 -0.086212
vn -0.140390 -0.985678 -0.093435
v -0.033042 -0.035311 -0.368993
vn 0.253712 -0.960863 -0.111232
v 0.016934 -0.035761 -0.364646
vn 0.053248 -0.929957 -0.363793
v -0.002709 -0.024220 -0.429307
vn 0.687098 -0.720717 -0.091998
v 0.060107 -0.043859 -0.040107
vn 0.978797 -0.188390 -0.080411
v 0.064275 -0.043801 -0.003428
vn 0.783857 -0.606029 -0.135267
v 0.035775 -0.025067 -0.363045
vn 0.621949 -0.778575 -0.083662
v 0.050051 -0.057308 -0.003847
# 77 vertices, 0 vertices normals

f 25//25 7//7 24//24
f 6//6 24//24 7//7
f 22//22 7//7 25//25
f 32//32 7//7 22//22
f 3//3 34//34 55//55
f 3//3 10//10 1//1
f 3//3 11//11 10//10
f 50//50 14//14 37//37
f 32//32 22//22 8//8
f 12//12 24//24 10//10
f 12//12 43//43 24//24
f 2//2 10//10 24//24
f 6//6 2//2 24//24
f 31//31 5//5 32//32
f 51//51 3//3 55//55
f 11//11 3//3 51//51
f 51//51 59//59 11//11
f 4//4 3//3 1//1
f 4//4 1//1 10//10
f 2//2 4//4 10//10
f 4//4 2//2 6//6
f 33//33 34//34 3//3
f 4//4 33//33 3//3
f 31//31 33//33 5//5
f 33//33 4//4 6//6
f 32//32 5//5 33//33
f 33//33 7//7 32//32
f 33//33 6//6 7//7
f 35//35 46//46 48//48
f 13//13 37//37 14//14
f 27//27 16//16 19//19
f 32//32 8//8 29//29
f 29//29 19//19 16//16
f 29//29 8//8 19//19
f 8//8 21//21 19//19
f 21//21 8//8 22//22
f 9//9 10//10 11//11
f 9//9 12//12 10//10
f 11//11 59//59 9//9
f 9//9 59//59 12//12
f 24//24 43//43 42//42
f 43//43 12//12 39//39
f 59//59 39//39 12//12
f 49//49 14//14 50//50
f 49//49 29//29 14//14
f 34//34 33//33 30//30
f 53//53 50//50 37//37
f 50//50 53//53 48//48
f 55//55 34//34 56//56
f 38//38 16//16 65//65
f 38//38 37//37 13//13
f 38//38 13//13 14//14
f 29//29 38//38 14//14
f 38//38 29//29 16//16
f 15//15 65//65 16//16
f 15//15 27//27 65//65
f 15//15 16//16 27//27
f 65//65 27//27 62//62
f 62//62 42//42 63//63
f 62//62 27//27 42//42
f 17//17 19//19 26//26
f 17//17 26//26 27//27
f 17//17 27//27 19//19
f 26//26 19//19 18//18
f 18//18 21//21 26//26
f 21//21 18//18 19//19
f 21//21 20//20 26//26
f 20//20 21//21 22//22
f 20//20 25//25 26//26
f 20//20 22//22 25//25
f 24//24 42//42 23//23
f 23//23 25//25 24//24
f 25//25 23//23 26//26
f 23//23 27//27 26//26
f 23//23 42//42 27//27
f 71//71 41//41 43//43
f 32//32 29//29 28//28
f 28//28 49//49 32//32
f 49//49 28//28 29//29
f 48//48 46//46 45//45
f 47//47 46//46 34//34
f 34//34 30//30 47//47
f 47//47 31//31 32//32
f 32//32 49//49 47//47
f 47//47 33//33 31//31
f 47//47 30//30 33//33
f 36//36 34//34 46//46
f 36//36 56//56 34//34
f 52//52 46//46 35//35
f 52//52 36//36 46//46
f 52//52 35//35 48//48
f 53//53 52//52 48//48
f 56//56 36//36 52//52
f 56//56 52//52 68//68
f 68//68 52//52 76//76
f 66//66 53//53 37//37
f 38//38 66//66 37//37
f 66//66 38//38 65//65
f 43//43 39//39 58//58
f 58//58 71//71 43//43
f 58//58 39//39 59//59
f 40//40 71//71 63//63
f 41//41 71//71 40//40
f 40//40 63//63 42//42
f 40//40 42//42 43//43
f 43//43 41//41 40//40
f 44//44 45//45 46//46
f 46//46 47//47 44//44
f 48//48 45//45 44//44
f 44//44 47//47 49//49
f 44//44 50//50 48//48
f 44//44 49//49 50//50
f 60//60 51//51 55//55
f 60//60 59//59 51//51
f 76//76 52//52 75//75
f 75//75 52//52 53//53
f 53//53 66//66 75//75
f 71//71 54//54 63//63
f 54//54 71//71 70//70
f 64//64 54//54 70//70
f 54//54 64//64 63//63
f 72//72 76//76 64//64
f 72//72 64//64 70//70
f 73//73 60//60 55//55
f 55//55 56//56 73//73
f 56//56 68//68 73//73
f 68//68 72//72 73//73
f 60//60 73//73 71//71
f 57//57 58//58 59//59
f 59//59 60//60 57//57
f 57//57 71//71 58//58
f 57//57 60//60 71//71
f 62//62 61//61 65//65
f 61//61 64//64 65//65
f 61//61 62//62 63//63
f 61//61 63//63 64//64
f 65//65 64//64 77//77
f 77//77 66//66 65//65
f 77//77 75//75 66//66
f 77//77 64//64 76//76
f 67//67 68//68 76//76
f 72//72 67//67 76//76
f 67//67 72//72 68//68
f 69//69 70//70 71//71
f 69//69 72//72 70//70
f 73//73 69//69 71//71
f 69//69 73//73 72//72
f 76//76 75//75 74//74
f 74//74 77//77 76//76
f 77//77 74//74 75//75
# 150 faces, 0 coords texture

# End of File