####
#
# OBJ File Generated by Meshlab
#
####
# Object l_talus_chull.obj
#
# Vertices: 32
# Faces: 60
#
####
vn 0.000000 0.000748 1.000000
v 0.000045 0.009730 0.010339
vn -0.000000 0.000748 -1.000000
v 0.000045 0.009730 -0.009494
vn -0.040761 -0.997360 -0.060099
v -0.006971 -0.010059 -0.006596
vn 0.051520 -0.995778 0.075978
v 0.007061 -0.010059 0.007441
vn 0.000000 -0.396938 0.917846
v 0.000045 -0.010059 0.010348
vn 0.063331 -0.993614 -0.093378
v 0.007061 -0.010059 -0.006596
vn 0.000000 -0.194543 -0.980894
v 0.000045 -0.010059 -0.009504
vn -0.093491 -0.986027 0.137874
v -0.006971 -0.010059 0.007441
vn 0.956603 0.181353 -0.228082
v 0.014861 0.007293 -0.006608
vn 0.722856 -0.430072 -0.540849
v 0.014861 -0.007355 -0.006609
vn 0.191501 0.000452 -0.981492
v 0.014861 -0.000032 -0.009336
vn 0.511753 0.000396 0.859132
v 0.014861 -0.000032 0.010181
vn 0.872804 -0.303746 0.382035
v 0.014861 -0.007355 0.007453
vn 0.789529 -0.613714 0.000000
v 0.014861 -0.010042 0.000423
vn 0.718728 0.432722 0.544226
v 0.014861 0.007293 0.007452
vn 0.391716 0.920086 -0.000000
v 0.014861 0.009980 0.000423
vn -0.773612 0.000292 -0.633659
v -0.014771 -0.000032 -0.009336
vn -0.707986 0.706227 -0.000000
v -0.014771 0.009980 0.000423
vn -0.841011 0.336708 0.423471
v -0.014771 0.007293 0.007452
vn -0.632461 -0.774593 0.000000
v -0.014771 -0.010042 0.000423
vn -0.464932 -0.551032 -0.692966
v -0.014771 -0.007355 -0.006609
vn -0.558553 0.000382 0.829469
v -0.014771 -0.000032 0.010181
vn -0.841144 -0.336569 0.423317
v -0.014771 -0.007355 0.007453
vn -0.464480 0.551155 -0.693172
v -0.014771 0.007293 -0.006608
vn 0.040280 0.997400 -0.059748
v 0.007055 0.010000 -0.006590
vn -0.000000 0.810413 0.585859
v 0.000045 0.010000 0.010333
vn -0.068635 0.992431 0.101829
v -0.006965 0.010000 0.007434
vn 0.105510 0.982020 0.156537
v 0.007055 0.010000 0.007434
vn -0.105520 0.982022 -0.156520
v -0.006965 0.010000 -0.006590
vn -0.000916 1.000000 0.000000
v -0.009864 0.010000 0.000423
vn 0.002562 0.999997 0.000000
v 0.009954 0.010000 0.000423
vn 0.000000 0.536354 -0.843993
v 0.000045 0.010000 -0.009489
# 32 vertices, 0 vertices normals

f 12//12 5//5 13//13
f 4//4 13//13 5//5
f 27//27 18//18 19//19
f 26//26 27//27 19//19
f 13//13 4//4 14//14
f 7//7 11//11 10//10
f 15//15 16//16 28//28
f 15//15 28//28 26//26
f 15//15 26//26 12//12
f 22//22 26//26 19//19
f 22//22 23//23 5//5
f 1//1 5//5 12//12
f 1//1 12//12 26//26
f 1//1 22//22 5//5
f 26//26 22//22 1//1
f 8//8 23//23 20//20
f 8//8 5//5 23//23
f 6//6 10//10 14//14
f 6//6 7//7 10//10
f 6//6 14//14 4//4
f 3//3 20//20 21//21
f 21//21 7//7 3//3
f 3//3 8//8 20//20
f 11//11 32//32 9//9
f 28//28 16//16 31//31
f 27//27 30//30 18//18
f 29//29 24//24 18//18
f 32//32 24//24 29//29
f 30//30 29//29 18//18
f 17//17 7//7 21//21
f 17//17 24//24 32//32
f 9//9 25//25 16//16
f 25//25 9//9 32//32
f 25//25 31//31 16//16
f 2//2 7//7 17//17
f 2//2 17//17 32//32
f 7//7 2//2 11//11
f 2//2 32//32 11//11
f 3//3 4//4 5//5
f 7//7 6//6 3//3
f 3//3 5//5 8//8
f 3//3 6//6 4//4
f 9//9 10//10 11//11
f 9//9 12//12 13//13
f 9//9 14//14 10//10
f 9//9 16//16 15//15
f 13//13 14//14 9//9
f 9//9 15//15 12//12
f 18//18 17//17 19//19
f 17//17 21//21 20//20
f 17//17 23//23 22//22
f 17//17 20//20 23//23
f 17//17 22//22 19//19
f 24//24 17//17 18//18
f 27//27 26//26 25//25
f 25//25 26//26 28//28
f 25//25 29//29 30//30
f 28//28 31//31 25//25
f 25//25 30//30 27//27
f 32//32 29//29 25//25
# 60 faces, 0 coords texture

# End of File