####
#
# OBJ File Generated by Meshlab
#
####
# Object l_talus.obj
#
# Vertices: 130
# Faces: 138
#
####
vn 0.380662 0.002323 -0.924711
v 0.007057 0.009730 -0.006592
vn 0.378961 0.000187 -0.925413
v 0.000257 -0.000032 -0.009425
vn 0.001089 0.000204 -0.999999
v 0.000045 -0.000032 -0.009496
vn -0.000552 0.001680 0.999999
v 0.000045 0.009730 0.010339
vn -0.001089 0.000204 0.999999
v 0.000045 -0.000032 0.010341
vn 0.376132 0.000208 0.926566
v 0.000257 -0.000032 0.010269
vn 0.924064 0.007960 0.382155
v 0.007059 -0.009733 0.007438
vn 0.924392 0.009181 0.381332
v 0.007061 -0.010059 0.007441
vn 0.990298 -0.006959 0.138783
v 0.009956 -0.010051 0.000423
vn 0.969152 0.005983 0.246389
v 0.009961 -0.009733 0.000423
vn 0.924071 0.009675 0.382097
v 0.007055 0.010000 0.007434
vn 0.924759 -0.005776 0.380510
v 0.007057 0.009730 0.007436
vn 0.923981 0.013394 0.382203
v 0.009954 0.010000 0.000423
vn 0.923878 0.017110 0.382304
v 0.009959 0.009730 0.000423
vn 0.733649 0.006005 -0.679502
v 0.007059 -0.009733 -0.006594
vn 0.705660 0.005135 -0.708532
v 0.007061 -0.010059 -0.006596
vn 0.924028 -0.007298 -0.382256
v 0.009959 0.009730 0.000423
vn 0.743022 -0.003088 -0.669259
v 0.007057 0.009730 -0.006592
vn 0.924020 0.013394 -0.382110
v 0.009954 0.010000 0.000423
vn 0.924110 0.009675 -0.382004
v 0.007055 0.010000 -0.006590
vn 0.004676 0.000235 -0.999989
v 0.000045 -0.009733 -0.009498
vn 0.382538 -0.001101 -0.923939
v 0.007059 -0.009733 -0.006594
vn 0.000000 -0.999487 -0.032037
v 0.000045 -0.010059 -0.009504
vn 0.000000 0.014494 -0.999895
v 0.000045 0.010000 -0.009489
vn -0.004855 0.001513 -0.999987
v 0.000045 0.009730 -0.009494
vn 0.018022 0.998887 -0.043580
v 0.007055 0.010000 -0.006590
vn -0.004742 0.000282 0.999989
v 0.000045 -0.009733 0.010343
vn 0.382686 0.012508 0.923794
v 0.007061 -0.010059 0.007441
vn 0.382869 0.000376 0.923802
v 0.007059 -0.009733 0.007438
vn 0.000000 0.015334 0.999882
v 0.000045 -0.010059 0.010348
vn 0.136709 0.018132 0.990445
v 0.000045 0.010000 0.010333
vn 0.369312 0.000875 0.929305
v 0.007057 0.009730 0.007436
vn 0.382144 0.009675 0.924052
v 0.007055 0.010000 0.007434
vn 0.321166 -0.050777 0.945661
v 0.007059 -0.009733 0.007438
vn 0.690449 -0.002953 0.723375
v 0.007025 -0.007355 0.007453
vn 0.004737 -0.078495 0.996903
v 0.000572 -0.000032 0.010181
vn 0.031768 0.497531 0.866864
v 0.007024 0.007293 0.007452
vn -0.036918 0.932839 0.358398
v 0.009942 0.009984 0.000423
vn -0.997671 -0.066775 0.013931
v 0.009959 0.009730 0.000423
vn 0.924885 -0.010028 0.380115
v 0.007024 0.007293 0.007452
vn 0.924885 -0.010028 0.380115
v 0.009942 0.009984 0.000423
vn 0.149991 0.680017 -0.717691
v 0.007024 0.007293 -0.006608
vn -0.913389 -0.061134 0.402472
v 0.007024 0.007293 -0.006608
vn 0.370399 0.000251 -0.928873
v 0.000257 -0.000032 -0.009425
vn 0.004790 0.078605 -0.996894
v 0.000572 -0.000032 -0.009336
vn 0.099964 -0.482823 -0.869994
v 0.007025 -0.007355 -0.006609
vn -0.999864 0.015719 -0.005081
v 0.009956 -0.010051 0.000423
vn -0.999864 0.015719 -0.005081
v 0.009961 -0.009733 0.000423
vn -0.923993 0.014526 0.382133
v 0.007059 -0.009733 -0.006594
vn 0.924442 0.010813 -0.381170
v 0.009956 -0.010051 0.000423
vn -0.920911 0.014478 -0.389505
v 0.007025 -0.007355 0.007453
vn 0.000000 -0.533387 0.845871
v 0.014861 -0.007355 0.007453
vn 0.000440 -0.770833 0.637037
v 0.007025 -0.007355 0.007453
vn 0.471209 0.070548 0.879196
v 0.014861 -0.000032 0.010181
vn 0.000195 0.771042 0.636785
v 0.014861 0.007293 0.007452
vn 0.000446 0.985902 -0.167323
v 0.014861 0.009980 0.000423
vn 0.000759 0.933828 -0.357722
v 0.009942 0.009984 0.000423
vn 0.000000 0.533333 -0.845906
v 0.014861 0.007293 -0.006608
vn 0.000000 -0.079817 -0.996810
v 0.014861 -0.000032 -0.009336
vn 0.935267 -0.272848 -0.225453
v 0.014861 -0.007355 -0.006609
vn 0.001006 -0.985905 -0.167304
v 0.009956 -0.010051 0.000423
vn 0.001006 -0.985809 0.167869
v 0.014861 -0.010042 0.000423
vn 1.000000 0.000000 0.000000
v 0.014861 0.009980 0.000423
vn 1.000000 0.000000 0.000000
v 0.014861 -0.000032 -0.009336
vn 1.000000 0.000000 0.000000
v 0.014861 0.007293 -0.006608
vn 1.000000 0.000000 0.000000
v 0.014861 0.007293 0.007452
vn 1.000000 0.000000 0.000000
v 0.014861 -0.010042 0.000423
vn 1.000000 0.000000 0.000000
v 0.014861 -0.007355 0.007453
vn -0.381330 0.001670 0.924438
v -0.006967 0.009730 0.007436
vn -0.376191 0.000209 0.926542
v -0.000167 -0.000032 0.010269
vn -0.376026 0.000208 -0.926609
v -0.000167 -0.000032 -0.009425
vn -0.032858 -0.999460 0.000000
v -0.009861 -0.010048 0.000423
vn -0.965737 0.003657 -0.259496
v -0.009871 -0.009733 0.000423
vn -0.705072 0.001276 -0.709134
v -0.006971 -0.010059 -0.006596
vn -0.499302 0.001134 -0.866427
v -0.006969 -0.009733 -0.006594
vn -0.707175 0.010475 -0.706961
v -0.006965 0.010000 -0.006590
vn -0.509779 0.000631 -0.860305
v -0.006967 0.009730 -0.006592
vn -0.999895 0.014494 -0.000000
v -0.009864 0.010000 0.000423
vn -0.947125 -0.005210 0.320824
v -0.009869 0.009730 0.000423
vn -0.924559 0.010622 0.380890
v -0.006969 -0.009733 0.007438
vn -0.924013 0.009187 0.382250
v -0.006971 -0.010059 0.007441
vn -0.008016 -0.999964 0.002790
v -0.006971 -0.010059 0.007441
vn -0.924007 -0.005759 0.382331
v -0.006967 0.009730 0.007436
vn -0.924071 0.009675 0.382097
v -0.006965 0.010000 0.007434
vn -0.382686 0.012508 0.923794
v -0.006971 -0.010059 0.007441
vn -0.382869 -0.000812 0.923802
v -0.006969 -0.009733 0.007438
vn -0.382297 0.015105 0.923916
v -0.006965 0.010000 0.007434
vn -0.147110 -0.681898 -0.716501
v -0.006935 -0.007355 -0.006609
vn -0.004790 -0.078466 -0.996905
v -0.000482 -0.000032 -0.009336
vn -0.102108 0.481859 -0.870279
v -0.006934 0.007293 -0.006608
vn 0.997671 -0.066775 -0.013931
v -0.009852 0.009984 0.000423
vn 0.997671 -0.066775 -0.013931
v -0.009869 0.009730 0.000423
vn 0.922290 -0.061729 0.381537
v -0.006967 0.009730 -0.006592
vn -0.924923 -0.010030 -0.380022
v -0.009852 0.009984 0.000423
vn -0.923967 -0.010001 0.382340
v -0.006934 0.007293 0.007452
vn -0.036082 0.712240 0.701008
v -0.006934 0.007293 0.007452
vn -0.004736 0.078634 0.996892
v -0.000482 -0.000032 0.010181
vn -0.715529 0.005824 0.698559
v -0.006935 -0.007355 0.007453
vn -0.002948 -0.529475 0.848320
v -0.006935 -0.007355 0.007453
vn 0.999466 0.031731 0.007791
v -0.009861 -0.010048 0.000423
vn 0.999466 0.031731 0.007791
v -0.009871 -0.009733 0.000423
vn 0.923655 0.029324 -0.382102
v -0.006969 -0.009733 0.007438
vn -0.130801 -0.967168 0.217895
v -0.009861 -0.010048 0.000423
vn 0.918859 0.029172 0.393507
v -0.006935 -0.007355 -0.006609
vn -0.199951 -0.522595 -0.828803
v -0.014771 -0.007355 -0.006609
vn 0.000000 0.079956 -0.996798
v -0.014771 -0.000032 -0.009336
vn -0.935187 0.273086 -0.225499
v -0.014771 0.007293 -0.006608
vn -0.000446 0.985943 -0.167081
v -0.009852 0.009984 0.000423
vn -0.000446 0.985899 0.167343
v -0.014771 0.009980 0.000423
vn 0.000000 0.533354 0.845892
v -0.014771 0.007293 0.007452
vn -0.471193 -0.070427 0.879214
v -0.014771 -0.000032 0.010181
vn -0.000293 -0.770967 0.636876
v -0.014771 -0.007355 0.007453
vn -0.914058 -0.399849 -0.067966
v -0.014771 -0.010042 0.000423
vn -1.000000 0.000000 0.000000
v -0.014771 0.009980 0.000423
vn -1.000000 0.000000 0.000000
v -0.014771 0.007293 0.007452
vn -1.000000 0.000000 0.000000
v -0.014771 -0.007355 0.007453
vn -1.000000 0.000000 0.000000
v -0.014771 -0.000032 -0.009336
vn 0.000000 -1.000000 -0.000806
v 0.007061 -0.010059 0.007441
vn 0.000000 -1.000000 0.000000
v 0.000045 -0.010059 0.010348
vn 0.000298 -1.000000 -0.000000
v 0.009956 -0.010051 0.000423
vn -0.000151 -1.000000 0.000000
v 0.000045 -0.010059 0.000423
vn 0.000009 -1.000000 0.000325
v -0.006971 -0.010059 -0.006596
vn -0.000570 -0.999999 0.001375
v 0.007061 -0.010059 -0.006596
vn -0.000808 1.000000 0.000000
v 0.000045 0.010000 0.010333
vn -0.001617 0.999999 0.000000
v -0.009852 0.009984 0.000423
vn 0.001137 0.999996 -0.002751
v -0.006965 0.010000 0.007434
vn -0.000720 1.000000 0.000298
v -0.006965 0.010000 -0.006590
vn 0.000720 1.000000 -0.000298
v 0.007055 0.010000 0.007434
vn 0.000808 1.000000 0.000000
v 0.000045 0.010000 -0.009489
vn 0.001617 0.999999 0.000000
v 0.009942 0.009984 0.000423
# 130 vertices, 0 vertices normals

f 1//1 2//2 3//3
f 4//4 5//5 6//6
f 7//7 8//8 9//9
f 7//7 9//9 10//10
f 11//11 12//12 13//13
f 13//13 12//12 14//14
f 15//15 10//10 16//16
f 16//16 10//10 9//9
f 17//17 18//18 19//19
f 19//19 18//18 20//20
f 16//16 21//21 22//22
f 23//23 21//21 16//16
f 21//21 2//2 22//22
f 24//24 1//1 25//25
f 26//26 1//1 24//24
f 1//1 3//3 25//25
f 27//27 28//28 29//29
f 27//27 30//30 28//28
f 27//27 29//29 5//5
f 31//31 32//32 33//33
f 4//4 32//32 31//31
f 4//4 6//6 32//32
f 21//21 3//3 2//2
f 34//34 6//6 5//5
f 6//6 29//29 35//35
f 35//35 36//36 6//6
f 37//37 32//32 6//6
f 6//6 36//36 37//37
f 38//38 39//39 32//32
f 12//12 40//40 41//41
f 42//42 18//18 17//17
f 39//39 38//38 43//43
f 44//44 18//18 42//42
f 42//42 45//45 44//44
f 46//46 15//15 44//44
f 44//44 45//45 46//46
f 47//47 48//48 49//49
f 15//15 46//46 50//50
f 35//35 7//7 10//10
f 48//48 47//47 51//51
f 52//52 36//36 53//53
f 52//52 54//54 36//36
f 54//54 37//37 36//36
f 54//54 55//55 37//37
f 55//55 38//38 37//37
f 55//55 56//56 38//38
f 56//56 42//42 57//57
f 56//56 58//58 42//42
f 58//58 45//45 42//42
f 58//58 59//59 45//45
f 59//59 46//46 45//45
f 59//59 60//60 46//46
f 60//60 61//61 46//46
f 60//60 62//62 61//61
f 62//62 53//53 61//61
f 62//62 52//52 53//53
f 63//63 64//64 65//65
f 63//63 60//60 64//64
f 66//66 60//60 63//63
f 66//66 67//67 60//60
f 54//54 67//67 66//66
f 54//54 68//68 67//67
f 69//69 70//70 5//5
f 25//25 3//3 71//71
f 72//72 73//73 74//74
f 74//74 73//73 75//75
f 76//76 77//77 78//78
f 78//78 77//77 79//79
f 80//80 73//73 81//81
f 82//82 73//73 72//72
f 79//79 83//83 78//78
f 78//78 83//83 84//84
f 85//85 27//27 86//86
f 30//30 27//27 85//85
f 27//27 70//70 86//86
f 87//87 4//4 31//31
f 69//69 4//4 87//87
f 69//69 5//5 4//4
f 21//21 74//74 75//75
f 21//21 23//23 74//74
f 21//21 75//75 3//3
f 24//24 77//77 76//76
f 25//25 77//77 24//24
f 25//25 71//71 77//77
f 27//27 5//5 70//70
f 75//75 71//71 3//3
f 71//71 75//75 88//88
f 88//88 89//89 71//71
f 90//90 77//77 71//71
f 71//71 89//89 90//90
f 91//91 92//92 93//93
f 77//77 90//90 94//94
f 95//95 83//83 79//79
f 92//92 91//91 96//96
f 70//70 69//69 96//96
f 96//96 97//97 70//70
f 98//98 86//86 70//70
f 70//70 97//97 99//99
f 100//100 101//101 102//102
f 80//80 98//98 103//103
f 88//88 75//75 73//73
f 101//101 100//100 104//104
f 105//105 89//89 88//88
f 105//105 106//106 89//89
f 106//106 90//90 89//89
f 106//106 107//107 90//90
f 107//107 108//108 90//90
f 107//107 109//109 108//108
f 109//109 96//96 108//108
f 109//109 110//110 96//96
f 110//110 97//97 96//96
f 110//110 111//111 97//97
f 111//111 99//99 97//97
f 111//111 112//112 99//99
f 112//112 103//103 99//99
f 112//112 113//113 103//103
f 113//113 88//88 103//103
f 113//113 105//105 88//88
f 114//114 111//111 115//115
f 114//114 116//116 111//111
f 107//107 116//116 114//114
f 107//107 113//113 116//116
f 117//117 113//113 107//107
f 117//117 105//105 113//113
f 82//82 118//118 119//119
f 82//82 120//120 118//118
f 82//82 121//121 120//120
f 72//72 121//121 82//82
f 122//122 121//121 72//72
f 122//122 120//120 121//121
f 23//23 120//120 122//122
f 23//23 123//123 120//120
f 124//124 125//125 126//126
f 124//124 127//127 125//125
f 128//128 127//127 124//124
f 128//128 129//129 127//127
f 130//130 129//129 128//128
f 130//130 26//26 129//129
# 138 faces, 0 coords texture

# End of File