####
#
# OBJ File Generated by Meshlab
#
####
# Object l_uarm_chull.obj
#
# Vertices: 45
# Faces: 86
#
####
vn 0.835972 0.182230 -0.517632
v -0.044133 0.100631 0.049662
vn -0.725803 -0.188248 0.661644
v 0.044601 0.133318 -0.034711
vn -0.738743 0.027132 0.673441
v 0.044601 0.116692 -0.036252
vn -0.834244 0.193070 -0.516489
v 0.044601 0.100631 0.049662
vn 0.724071 -0.199776 0.660160
v -0.044134 0.133318 -0.034711
vn 0.849857 0.028730 0.526229
v -0.044133 0.116692 -0.036252
vn 0.999985 -0.005485 -0.000000
v -0.045202 0.116677 -0.003915
vn 0.401885 -0.195759 -0.894521
v -0.044134 0.133318 0.052690
vn -0.356327 -0.310924 -0.881111
v 0.044601 0.133318 0.052690
vn -0.423706 0.088397 -0.901476
v 0.044601 0.116692 0.054231
vn 0.529218 0.089779 -0.843723
v -0.044133 0.116692 0.054231
vn -0.277830 -0.816754 -0.505691
v 0.044601 0.159514 0.032909
vn 0.279349 -0.943841 -0.176434
v -0.044133 0.165546 0.017338
vn 0.527814 -0.722149 -0.447116
v -0.044134 0.159514 0.032909
vn -0.492711 -0.855375 -0.159904
v 0.044601 0.165546 0.017338
vn -0.968878 0.232842 0.084025
v 0.044895 0.000334 -0.012264
vn -0.983740 0.166946 -0.066218
v 0.044895 0.000334 0.004432
vn -0.999994 -0.001408 -0.003310
v 0.044895 0.116677 0.004432
vn -0.999978 -0.002060 0.006349
v 0.044895 0.116677 -0.012264
vn 0.028498 -0.251175 0.967522
v -0.003959 0.116677 -0.049157
vn -0.251463 0.298738 0.920610
v 0.012668 0.000334 -0.047616
vn 0.136924 0.458048 0.878319
v -0.003959 0.000334 -0.049157
vn -0.243362 -0.077523 0.966833
v 0.012668 0.116677 -0.047616
vn 0.017405 0.716189 -0.697690
v -0.003959 0.000334 0.041326
vn 0.864714 0.374206 -0.335021
v -0.042134 0.000334 0.012497
vn 0.697082 0.332033 -0.635477
v -0.033343 0.000334 0.026694
vn -0.694641 0.576636 0.430075
v 0.038863 0.000334 -0.027835
vn -0.474352 0.616769 0.628161
v 0.027615 0.000334 -0.040174
vn 0.812615 0.490458 0.314815
v -0.042134 0.000334 -0.020329
vn 0.604165 0.575835 0.550817
v -0.033343 0.000334 -0.034526
vn -0.556667 0.322943 -0.765395
v 0.027615 0.000334 0.032343
vn -0.267206 0.215678 -0.939193
v 0.012668 0.000334 0.039786
vn 0.994048 0.108922 0.002203
v -0.045202 0.000334 -0.003915
vn -0.773780 0.414451 -0.479056
v 0.038863 0.000334 0.020003
vn 0.362815 0.392537 0.845151
v -0.020018 0.000334 -0.044587
vn 0.432712 0.245422 -0.867484
v -0.020018 0.000334 0.036757
vn 0.310266 -0.572871 -0.758653
v -0.044133 0.148265 0.045249
vn -0.501518 -0.521346 -0.690419
v 0.044601 0.148265 0.045249
vn -0.272309 -0.785090 0.556311
v 0.044601 0.159514 -0.014929
vn -0.186247 -0.585428 0.789041
v 0.044601 0.148265 -0.027269
vn 0.185970 -0.623146 0.759673
v -0.044133 0.148265 -0.027269
vn 0.299637 -0.840602 0.451227
v -0.044134 0.159514 -0.014929
vn 0.297583 -0.011325 0.954629
v -0.020018 0.116677 -0.044587
vn -0.368494 -0.913826 0.170685
v 0.044601 0.165546 0.000642
vn 0.465244 -0.870112 0.162645
v -0.044133 0.165546 0.000642
# 45 vertices, 0 vertices normals

f 7//7 11//11 33//33
f 42//42 7//7 41//41
f 42//42 45//45 7//7
f 17//17 10//10 18//18
f 3//3 28//28 27//27
f 3//3 21//21 28//28
f 21//21 3//3 23//23
f 6//6 29//29 30//30
f 33//33 29//29 6//6
f 6//6 7//7 33//33
f 1//1 25//25 33//33
f 1//1 33//33 11//11
f 26//26 25//25 1//1
f 9//9 18//18 10//10
f 38//38 18//18 9//9
f 31//31 32//32 10//10
f 36//36 1//1 11//11
f 1//1 36//36 26//26
f 8//8 11//11 7//7
f 45//45 13//13 7//7
f 13//13 14//14 7//7
f 12//12 15//15 18//18
f 12//12 18//18 38//38
f 16//16 3//3 27//27
f 16//16 19//19 3//3
f 35//35 6//6 30//30
f 20//20 40//40 41//41
f 23//23 40//40 20//20
f 24//24 36//36 11//11
f 24//24 11//11 10//10
f 10//10 32//32 24//24
f 37//37 7//7 14//14
f 37//37 8//8 7//7
f 39//39 40//40 19//19
f 2//2 3//3 19//19
f 2//2 19//19 40//40
f 2//2 23//23 3//3
f 2//2 40//40 23//23
f 43//43 6//6 35//35
f 4//4 17//17 34//34
f 4//4 10//10 17//17
f 4//4 34//34 31//31
f 4//4 31//31 10//10
f 44//44 39//39 19//19
f 5//5 43//43 20//20
f 5//5 20//20 41//41
f 43//43 5//5 6//6
f 41//41 7//7 5//5
f 5//5 7//7 6//6
f 8//8 9//9 10//10
f 8//8 10//10 11//11
f 12//12 14//14 13//13
f 12//12 13//13 15//15
f 17//17 18//18 16//16
f 16//16 18//18 19//19
f 22//22 21//21 20//20
f 20//20 21//21 23//23
f 24//24 25//25 26//26
f 24//24 16//16 27//27
f 24//24 27//27 28//28
f 24//24 30//30 29//29
f 32//32 31//31 24//24
f 24//24 29//29 33//33
f 24//24 33//33 25//25
f 28//28 21//21 24//24
f 31//31 34//34 24//24
f 24//24 21//21 22//22
f 24//24 35//35 30//30
f 36//36 24//24 26//26
f 17//17 16//16 24//24
f 35//35 24//24 22//22
f 24//24 34//34 17//17
f 14//14 12//12 37//37
f 37//37 12//12 38//38
f 9//9 8//8 37//37
f 38//38 9//9 37//37
f 41//41 40//40 39//39
f 39//39 42//42 41//41
f 43//43 35//35 22//22
f 22//22 20//20 43//43
f 15//15 13//13 44//44
f 44//44 13//13 45//45
f 44//44 42//42 39//39
f 45//45 42//42 44//44
f 19//19 18//18 44//44
f 44//44 18//18 15//15
# 86 faces, 0 coords texture

# End of File