####
#
# OBJ File Generated by Meshlab
#
####
# Object l_uglut_chull.obj
#
# Vertices: 68
# Faces: 132
#
####
vn 0.045975 -0.998817 0.015857
v 0.039198 -0.019775 0.002735
vn -0.069548 -0.997560 0.006160
v -0.039840 -0.019775 0.002735
vn 0.014111 -0.994654 0.102299
v 0.001511 -0.019775 0.040421
vn 0.016633 -0.997490 -0.068822
v 0.001511 -0.019775 -0.038617
vn 0.088337 0.995965 0.015812
v 0.039198 0.019772 0.002735
vn -0.041638 0.999114 0.006169
v -0.039840 0.019772 0.002735
vn 0.014063 0.991238 0.131338
v 0.001511 0.019772 0.040421
vn 0.016555 0.992833 -0.118361
v 0.001511 0.019772 -0.038617
vn -0.888373 -0.087059 -0.450793
v -0.039840 -0.003651 -0.018619
vn -0.395336 0.048694 -0.917245
v -0.019841 0.003647 -0.038617
vn -0.328493 -0.061399 -0.942509
v -0.019841 -0.003651 -0.038617
vn -0.905884 0.105713 -0.410121
v -0.039840 0.003647 -0.018619
vn 0.148505 -0.058520 -0.987179
v 0.018197 -0.007176 -0.038617
vn -0.181068 -0.863485 -0.470752
v -0.005756 -0.019102 -0.038617
vn -0.407124 -0.561144 -0.720672
v -0.012289 -0.015849 -0.038617
vn 0.336467 0.692728 -0.637901
v 0.008531 0.017775 -0.038617
vn 0.510982 0.474375 -0.716844
v 0.014355 0.013377 -0.038617
vn -0.380294 0.206358 -0.901550
v -0.017205 0.010452 -0.038617
vn 0.382489 -0.787478 -0.483301
v 0.008531 -0.017778 -0.038617
vn 0.579864 -0.538390 -0.611468
v 0.014355 -0.013380 -0.038617
vn -0.161435 0.769856 -0.617463
v -0.005756 0.019099 -0.038617
vn -0.367893 0.507017 -0.779480
v -0.012289 0.015846 -0.038617
vn 0.626813 0.246990 -0.738987
v 0.018197 0.007172 -0.038617
vn 0.689602 0.000000 -0.724189
v 0.019538 -0.000002 -0.038617
vn -0.417494 -0.226556 -0.879983
v -0.017205 -0.010456 -0.038617
vn -0.987177 0.058515 0.148518
v -0.039840 0.007172 0.019419
vn -0.883880 -0.273674 -0.379287
v -0.039840 -0.010456 -0.015982
vn -0.637903 -0.692715 0.336491
v -0.039840 -0.017778 0.009753
vn -0.716860 -0.474383 0.510952
v -0.039840 -0.013380 0.015577
vn -0.574022 0.774410 -0.266058
v -0.039840 0.019099 -0.004532
vn -0.835536 0.438452 -0.331117
v -0.039840 0.015846 -0.011065
vn -0.483340 0.787446 0.382508
v -0.039840 0.017775 0.009753
vn -0.611520 0.538312 0.579882
v -0.039840 0.013377 0.015577
vn -0.738999 -0.246969 0.626806
v -0.039840 -0.007176 0.019419
vn -0.859675 0.298886 -0.414278
v -0.039840 0.010452 -0.015982
vn -0.888496 -0.366207 -0.276527
v -0.039840 -0.015849 -0.011065
vn -0.703161 -0.672451 -0.231028
v -0.039840 -0.019102 -0.004532
vn -0.724188 0.000000 0.689603
v -0.039840 -0.000002 0.020760
vn 0.985121 -0.091617 -0.145405
v 0.039198 -0.010456 -0.015982
vn 0.802446 0.519074 0.294350
v 0.039198 0.017775 0.009753
vn 0.883666 0.295704 0.362896
v 0.039198 0.013377 0.015577
vn 0.912273 0.124973 0.390050
v 0.039198 0.007172 0.019419
vn 0.760003 0.346436 -0.549888
v 0.039198 0.010452 -0.015982
vn 0.717292 0.560090 -0.414477
v 0.039198 0.015846 -0.011065
vn 0.345613 -0.904967 -0.248166
v 0.039198 -0.019102 -0.004532
vn 0.533620 -0.679839 -0.503059
v 0.039198 -0.015849 -0.011065
vn 0.892868 -0.137408 0.428842
v 0.039198 -0.007176 0.019419
vn 0.830282 -0.352091 0.432046
v 0.039198 -0.013380 0.015577
vn 0.604234 0.768437 -0.210726
v 0.039198 0.019099 -0.004532
vn 0.673453 -0.643036 0.364644
v 0.039198 -0.017778 0.009753
vn 0.718066 -0.129996 -0.683727
v 0.039198 -0.003651 -0.018619
vn 0.756581 0.122137 -0.642393
v 0.039198 0.003647 -0.018619
vn 0.944281 0.000000 0.329141
v 0.039198 -0.000002 0.020760
vn -0.149583 -0.028433 0.988340
v -0.019841 -0.003651 0.040421
vn 0.266480 0.646497 0.714864
v 0.008531 0.017775 0.040421
vn 0.365049 0.383790 0.848201
v 0.014355 0.013377 0.040421
vn -0.632092 -0.398193 0.664757
v -0.017205 -0.010456 0.040421
vn -0.482127 -0.651502 0.585746
v -0.012289 -0.015849 0.040421
vn 0.404516 -0.189941 0.894589
v 0.018197 -0.007176 0.040421
vn 0.385977 -0.405818 0.828452
v 0.014355 -0.013380 0.040421
vn 0.392141 0.184111 0.901293
v 0.018197 0.007172 0.040421
vn -0.238325 -0.868978 0.433681
v -0.005756 -0.019102 0.040421
vn 0.284577 -0.690401 0.665103
v 0.008531 -0.017778 0.040421
vn 0.452934 -0.000000 0.891544
v 0.019538 -0.000002 0.040421
vn -0.225048 0.820569 0.525376
v -0.005756 0.019099 0.040421
vn -0.450629 0.608896 0.652825
v -0.012289 0.015846 0.040421
vn -0.598027 0.376693 0.707436
v -0.017205 0.010452 0.040421
vn -0.683739 0.129965 0.718060
v -0.019841 0.003647 0.040421
# 68 vertices, 0 vertices normals

f 55//55 5//5 7//7
f 41//41 56//56 61//61
f 58//58 29//29 28//28
f 3//3 1//1 63//63
f 21//21 6//6 8//8
f 2//2 14//14 4//4
f 7//7 6//6 65//65
f 24//24 23//23 52//52
f 44//44 17//17 16//16
f 45//45 1//1 4//4
f 51//51 24//24 52//52
f 42//42 41//41 61//61
f 42//42 61//61 64//64
f 42//42 64//64 53//53
f 40//40 55//55 56//56
f 40//40 56//56 41//41
f 40//40 5//5 55//55
f 62//62 58//58 28//28
f 62//62 2//2 3//3
f 62//62 28//28 2//2
f 58//58 57//57 29//29
f 60//60 48//48 59//59
f 50//50 60//60 63//63
f 50//50 48//48 60//60
f 50//50 63//63 1//1
f 18//18 10//10 12//12
f 30//30 6//6 21//21
f 30//30 21//21 22//22
f 22//22 31//31 30//30
f 14//14 37//37 15//15
f 37//37 14//14 2//2
f 15//15 27//27 25//25
f 9//9 11//11 25//25
f 9//9 25//25 27//27
f 32//32 66//66 65//65
f 32//32 65//65 6//6
f 32//32 33//33 66//66
f 66//66 33//33 67//67
f 43//43 23//23 17//17
f 44//44 43//43 17//17
f 52//52 23//23 43//43
f 49//49 44//44 16//16
f 5//5 49//49 8//8
f 49//49 16//16 8//8
f 19//19 20//20 46//46
f 19//19 46//46 45//45
f 19//19 45//45 4//4
f 51//51 13//13 24//24
f 57//57 34//34 29//29
f 47//47 59//59 48//48
f 47//47 64//64 59//59
f 53//53 64//64 47//47
f 35//35 18//18 12//12
f 18//18 35//35 22//22
f 35//35 31//31 22//22
f 36//36 27//27 15//15
f 37//37 36//36 15//15
f 26//26 68//68 67//67
f 26//26 67//67 33//33
f 26//26 38//38 68//68
f 39//39 13//13 51//51
f 20//20 13//13 39//39
f 46//46 20//20 39//39
f 38//38 34//34 54//54
f 54//54 34//34 57//57
f 54//54 68//68 38//38
f 2//2 1//1 3//3
f 1//1 2//2 4//4
f 5//5 6//6 7//7
f 8//8 6//6 5//5
f 9//9 10//10 11//11
f 12//12 10//10 9//9
f 13//13 14//14 15//15
f 13//13 16//16 17//17
f 10//10 18//18 13//13
f 20//20 19//19 13//13
f 21//21 13//13 22//22
f 17//17 23//23 13//13
f 11//11 10//10 13//13
f 13//13 21//21 8//8
f 13//13 4//4 14//14
f 13//13 23//23 24//24
f 8//8 16//16 13//13
f 15//15 25//25 13//13
f 13//13 18//18 22//22
f 13//13 25//25 11//11
f 13//13 19//19 4//4
f 26//26 9//9 27//27
f 26//26 28//28 29//29
f 26//26 30//30 31//31
f 32//32 26//26 33//33
f 2//2 28//28 26//26
f 29//29 34//34 26//26
f 31//31 35//35 26//26
f 26//26 36//36 37//37
f 30//30 26//26 6//6
f 26//26 37//37 2//2
f 12//12 9//9 26//26
f 26//26 32//32 6//6
f 26//26 34//34 38//38
f 26//26 35//35 12//12
f 27//27 36//36 26//26
f 39//39 40//40 41//41
f 39//39 41//41 42//42
f 39//39 43//43 44//44
f 39//39 45//45 46//46
f 39//39 47//47 48//48
f 44//44 49//49 39//39
f 48//48 50//50 39//39
f 1//1 45//45 39//39
f 39//39 51//51 52//52
f 39//39 42//42 53//53
f 5//5 40//40 39//39
f 39//39 50//50 1//1
f 52//52 43//43 39//39
f 39//39 49//49 5//5
f 53//53 47//47 39//39
f 55//55 54//54 56//56
f 54//54 57//57 58//58
f 60//60 59//59 54//54
f 54//54 61//61 56//56
f 58//58 62//62 54//54
f 54//54 63//63 60//60
f 64//64 61//61 54//54
f 54//54 55//55 7//7
f 54//54 65//65 66//66
f 3//3 63//63 54//54
f 7//7 65//65 54//54
f 54//54 62//62 3//3
f 66//66 67//67 54//54
f 54//54 59//59 64//64
f 54//54 67//67 68//68
# 132 faces, 0 coords texture

# End of File