####
#
# OBJ File Generated by Meshlab
#
####
# Object l_uglut.obj
#
# Vertices: 134
# Faces: 128
#
####
vn 0.982974 0.183743 0.000000
v 0.019538 -0.000002 -0.038617
vn 0.953134 0.302547 0.000000
v 0.018197 0.007172 -0.038617
vn 0.900503 0.056109 0.431214
v 0.019538 -0.000002 0.040421
vn 0.908202 0.418532 0.000000
v 0.018197 0.007172 0.040421
vn 0.779473 0.626435 0.000000
v 0.014355 0.013377 -0.038617
vn 0.695677 0.718355 0.000000
v 0.014355 0.013377 0.040421
vn 0.500522 0.865723 0.000000
v 0.008531 0.017775 -0.038617
vn 0.389168 0.921167 0.000000
v 0.008531 0.017775 0.040421
vn 0.154005 0.988070 0.000000
v 0.001511 0.019772 -0.038617
vn 0.030161 0.998594 0.043589
v 0.001511 0.019772 0.040421
vn -0.213281 0.976991 0.000000
v -0.005756 0.019099 -0.038617
vn -0.332929 0.942952 0.000000
v -0.005756 0.019099 0.040421
vn -0.551872 0.833929 0.000000
v -0.012289 0.015846 -0.038617
vn -0.651162 0.758939 0.000000
v -0.012289 0.015846 0.040421
vn -0.815887 0.578212 0.000000
v -0.017205 0.010452 -0.038617
vn -0.881339 0.472484 0.000000
v -0.017205 0.010452 0.040421
vn -0.969649 0.244499 0.000000
v -0.019841 0.003647 -0.038617
vn -0.992500 0.122248 0.000000
v -0.019841 0.003647 0.040421
vn -0.992500 -0.122248 0.000000
v -0.019841 -0.003651 -0.038617
vn -0.969649 -0.244499 0.000000
v -0.019841 -0.003651 0.040421
vn -0.932485 -0.361209 0.000000
v -0.017205 -0.010456 -0.038617
vn -0.932485 -0.361209 0.000000
v -0.017205 -0.010456 0.040421
vn -0.739034 -0.673668 0.000000
v -0.017205 -0.010456 -0.038617
vn -0.651108 -0.758985 0.000000
v -0.012289 -0.015849 -0.038617
vn -0.739034 -0.673668 0.000000
v -0.017205 -0.010456 0.040421
vn -0.551839 -0.833950 0.000000
v -0.012289 -0.015849 0.040421
vn -0.332929 -0.942952 0.000000
v -0.005756 -0.019102 -0.038617
vn -0.213281 -0.976991 0.000000
v -0.005756 -0.019102 0.040421
vn 0.030189 -0.999544 0.000000
v 0.001511 -0.019775 -0.038617
vn 0.153995 -0.988007 0.011286
v 0.001511 -0.019775 0.040421
vn 0.389168 -0.921167 0.000000
v 0.008531 -0.017778 -0.038617
vn 0.500522 -0.865724 0.000000
v 0.008531 -0.017778 0.040421
vn 0.695653 -0.718378 0.000000
v 0.014355 -0.013380 -0.038617
vn 0.779437 -0.626481 0.000000
v 0.014355 -0.013380 0.040421
vn 0.908186 -0.418567 0.000000
v 0.018197 -0.007176 -0.038617
vn 0.953130 -0.302560 0.000000
v 0.018197 -0.007176 0.040421
vn 0.982974 -0.183743 0.000000
v 0.019538 -0.000002 -0.038617
vn 0.000000 0.000000 1.000000
v 0.008531 -0.017778 0.040421
vn 0.000000 0.000000 1.000000
v -0.005756 -0.019102 0.040421
vn 0.000000 0.000000 1.000000
v 0.014355 -0.013380 0.040421
vn 0.000000 0.000000 1.000000
v -0.012289 -0.015849 0.040421
vn 0.000000 0.000000 1.000000
v 0.018197 -0.007176 0.040421
vn 0.000000 0.000000 1.000000
v -0.017205 -0.010456 0.040421
vn 0.000000 0.000000 1.000000
v -0.019841 -0.003651 0.040421
vn 0.000000 0.000000 1.000000
v 0.018197 0.007172 0.040421
vn 0.000000 0.000000 1.000000
v -0.019841 0.003647 0.040421
vn 0.000000 0.000000 1.000000
v 0.014355 0.013377 0.040421
vn 0.000000 0.000000 1.000000
v -0.017205 0.010452 0.040421
vn 0.000000 0.000000 1.000000
v 0.008531 0.017775 0.040421
vn 0.000000 0.000000 1.000000
v -0.012289 0.015846 0.040421
vn 0.000000 0.000000 1.000000
v -0.005756 0.019099 0.040421
vn 0.000000 0.000000 -1.000000
v 0.014355 0.013377 -0.038617
vn 0.000000 0.000000 -1.000000
v 0.001511 0.019772 -0.038617
vn 0.000000 0.000000 -1.000000
v 0.008531 0.017775 -0.038617
vn 0.000000 0.000000 -1.000000
v 0.018197 0.007172 -0.038617
vn 0.000000 0.000000 -1.000000
v -0.005756 0.019099 -0.038617
vn 0.000000 0.000000 -1.000000
v 0.019538 -0.000002 -0.038617
vn 0.000000 0.000000 -1.000000
v -0.012289 0.015846 -0.038617
vn 0.000000 0.000000 -1.000000
v 0.018197 -0.007176 -0.038617
vn 0.000000 0.000000 -1.000000
v -0.017205 0.010452 -0.038617
vn 0.000000 0.000000 -1.000000
v 0.014355 -0.013380 -0.038617
vn 0.000000 0.000000 -1.000000
v -0.019841 0.003647 -0.038617
vn 0.000000 0.000000 -1.000000
v 0.008531 -0.017778 -0.038617
vn 0.000000 0.000000 -1.000000
v -0.019841 -0.003651 -0.038617
vn 0.000000 0.000000 -1.000000
v 0.001511 -0.019775 -0.038617
vn 0.000000 0.000000 -1.000000
v -0.017205 -0.010456 -0.038617
vn 0.000000 0.000000 -1.000000
v -0.005756 -0.019102 -0.038617
vn 0.000000 0.000000 -1.000000
v -0.012289 -0.015849 -0.038617
vn 0.338176 -0.058524 0.939261
v 0.039198 -0.000002 0.020760
vn 0.137024 0.357831 0.923678
v 0.039198 0.007172 0.019419
vn 0.000000 0.062188 0.998064
v -0.039840 -0.000002 0.020760
vn 0.000000 0.361239 0.932473
v -0.039840 0.007172 0.019419
vn 0.000000 0.626435 0.779473
v -0.039840 0.013377 0.015577
vn 0.000000 0.718355 0.695677
v 0.039198 0.013377 0.015577
vn 0.000000 0.895151 0.445763
v -0.039840 0.017775 0.009753
vn 0.000000 0.895151 0.445763
v 0.039198 0.017775 0.009753
vn 0.151801 0.950672 0.270518
v 0.039198 0.019772 0.002735
vn 0.000000 0.999544 0.030192
v -0.039840 0.019772 0.002735
vn 0.000000 0.995739 -0.092216
v 0.039198 0.019772 0.002735
vn 0.000000 0.976991 -0.213281
v 0.039198 0.019099 -0.004532
vn 0.000000 0.942952 -0.332929
v -0.039840 0.019099 -0.004532
vn 0.000000 0.833943 -0.551850
v 0.039198 0.015846 -0.011065
vn 0.000000 0.758978 -0.651116
v -0.039840 0.015846 -0.011065
vn 0.000000 0.578304 -0.815821
v 0.039198 0.010452 -0.015982
vn 0.000000 0.472592 -0.881281
v -0.039840 0.010452 -0.015982
vn 0.395654 0.224628 -0.890505
v 0.039198 0.003647 -0.018619
vn 0.000000 0.361329 -0.932438
v -0.039840 0.003647 -0.018619
vn 0.374300 0.000000 -0.927308
v 0.039198 -0.003651 -0.018619
vn -0.536918 0.000000 -0.843634
v -0.039840 0.003647 -0.018619
vn -0.443191 -0.219254 -0.869200
v -0.039840 -0.003651 -0.018619
vn 0.000000 -0.361329 -0.932438
v 0.039198 -0.003651 -0.018619
vn 0.000000 -0.472611 -0.881271
v 0.039198 -0.010456 -0.015982
vn 0.000000 -0.578348 -0.815790
v -0.039840 -0.010456 -0.015982
vn 0.000000 -0.759024 -0.651062
v 0.039198 -0.015849 -0.011065
vn 0.000000 -0.833965 -0.551818
v -0.039840 -0.015849 -0.011065
vn 0.000000 -0.942952 -0.332929
v 0.039198 -0.019102 -0.004532
vn 0.000000 -0.976991 -0.213281
v -0.039840 -0.019102 -0.004532
vn 0.000000 -0.995739 -0.092216
v 0.039198 -0.019775 0.002735
vn 0.000000 -0.995739 -0.092216
v -0.039840 -0.019775 0.002735
vn 0.000000 -0.961818 0.273689
v 0.039198 -0.019775 0.002735
vn 0.000000 -0.895151 0.445763
v 0.039198 -0.017778 0.009753
vn 0.000000 -0.961818 0.273689
v -0.039840 -0.019775 0.002735
vn 0.000000 -0.895151 0.445763
v -0.039840 -0.017778 0.009753
vn 0.000000 -0.673734 0.738974
v -0.039840 -0.013380 0.015577
vn 0.000000 -0.673734 0.738974
v 0.039198 -0.013380 0.015577
vn 0.431241 -0.377647 0.819399
v 0.039198 -0.007176 0.019419
vn 0.000000 -0.302560 0.953130
v -0.039840 -0.007176 0.019419
vn -1.000000 0.000000 0.000000
v -0.039840 -0.017778 0.009753
vn -1.000000 0.000000 0.000000
v -0.039840 -0.019102 -0.004532
vn -1.000000 0.000000 0.000000
v -0.039840 -0.019775 0.002735
vn -1.000000 0.000000 0.000000
v -0.039840 -0.013380 0.015577
vn -1.000000 0.000000 0.000000
v -0.039840 -0.015849 -0.011065
vn -1.000000 0.000000 0.000000
v -0.039840 -0.007176 0.019419
vn -1.000000 0.000000 0.000000
v -0.039840 -0.010456 -0.015982
vn -1.000000 0.000000 0.000000
v -0.039840 -0.000002 0.020760
vn -1.000000 0.000000 0.000000
v -0.039840 0.007172 0.019419
vn -1.000000 0.000000 0.000000
v -0.039840 0.013377 0.015577
vn -1.000000 0.000000 0.000000
v -0.039840 0.010452 -0.015982
vn -1.000000 0.000000 0.000000
v -0.039840 0.017775 0.009753
vn -1.000000 0.000000 0.000000
v -0.039840 0.015846 -0.011065
vn -1.000000 0.000000 0.000000
v -0.039840 0.019772 0.002735
vn -1.000000 0.000000 0.000000
v -0.039840 0.019099 -0.004532
vn 1.000000 0.000000 0.000000
v 0.039198 0.013377 0.015577
vn 1.000000 0.000000 0.000000
v 0.039198 0.017775 0.009753
vn 1.000000 0.000000 0.000000
v 0.039198 0.019099 -0.004532
vn 1.000000 0.000000 0.000000
v 0.039198 0.015846 -0.011065
vn 1.000000 0.000000 0.000000
v 0.039198 0.010452 -0.015982
vn 1.000000 0.000000 0.000000
v 0.039198 -0.013380 0.015577
vn 1.000000 0.000000 0.000000
v 0.039198 -0.017778 0.009753
vn 1.000000 0.000000 0.000000
v 0.039198 -0.019775 0.002735
vn 1.000000 0.000000 0.000000
v 0.039198 -0.010456 -0.015982
vn 1.000000 0.000000 0.000000
v 0.039198 -0.019102 -0.004532
vn 1.000000 0.000000 0.000000
v 0.039198 -0.019775 0.002735
vn 1.000000 0.000000 0.000000
v 0.039198 -0.015849 -0.011065
# 134 vertices, 0 vertices normals

f 1//1 2//2 3//3
f 3//3 2//2 4//4
f 2//2 5//5 4//4
f 4//4 5//5 6//6
f 5//5 7//7 6//6
f 6//6 7//7 8//8
f 7//7 9//9 8//8
f 8//8 9//9 10//10
f 9//9 11//11 10//10
f 10//10 11//11 12//12
f 11//11 13//13 12//12
f 12//12 13//13 14//14
f 13//13 15//15 14//14
f 14//14 15//15 16//16
f 15//15 17//17 16//16
f 16//16 17//17 18//18
f 17//17 19//19 18//18
f 18//18 19//19 20//20
f 19//19 21//21 20//20
f 20//20 21//21 22//22
f 23//23 24//24 25//25
f 25//25 24//24 26//26
f 24//24 27//27 26//26
f 26//26 27//27 28//28
f 27//27 29//29 28//28
f 28//28 29//29 30//30
f 29//29 31//31 30//30
f 30//30 31//31 32//32
f 31//31 33//33 32//32
f 32//32 33//33 34//34
f 33//33 35//35 34//34
f 34//34 35//35 36//36
f 35//35 37//37 36//36
f 36//36 37//37 3//3
f 38//38 39//39 30//30
f 40//40 39//39 38//38
f 40//40 41//41 39//39
f 42//42 41//41 40//40
f 42//42 43//43 41//41
f 3//3 43//43 42//42
f 3//3 44//44 43//43
f 45//45 44//44 3//3
f 45//45 46//46 44//44
f 47//47 46//46 45//45
f 47//47 48//48 46//46
f 49//49 48//48 47//47
f 49//49 50//50 48//48
f 10//10 50//50 49//49
f 10//10 51//51 50//50
f 52//52 53//53 54//54
f 55//55 53//53 52//52
f 55//55 56//56 53//53
f 57//57 56//56 55//55
f 57//57 58//58 56//56
f 59//59 58//58 57//57
f 59//59 60//60 58//58
f 61//61 60//60 59//59
f 61//61 62//62 60//60
f 63//63 62//62 61//61
f 63//63 64//64 62//62
f 65//65 64//64 63//63
f 65//65 66//66 64//64
f 67//67 66//66 65//65
f 67//67 68//68 66//66
f 69//69 70//70 71//71
f 71//71 70//70 72//72
f 70//70 73//73 72//72
f 70//70 74//74 73//73
f 74//74 75//75 73//73
f 74//74 76//76 75//75
f 76//76 77//77 75//75
f 75//75 77//77 78//78
f 79//79 80//80 78//78
f 78//78 80//80 81//81
f 80//80 82//82 81//81
f 81//81 82//82 83//83
f 82//82 84//84 83//83
f 83//83 84//84 85//85
f 84//84 86//86 85//85
f 85//85 86//86 87//87
f 86//86 88//88 89//89
f 89//89 88//88 90//90
f 91//91 92//92 90//90
f 90//90 92//92 93//93
f 92//92 94//94 93//93
f 93//93 94//94 95//95
f 94//94 96//96 95//95
f 95//95 96//96 97//97
f 96//96 98//98 97//97
f 97//97 98//98 99//99
f 100//100 101//101 102//102
f 102//102 101//101 103//103
f 101//101 104//104 103//103
f 101//101 105//105 104//104
f 105//105 106//106 104//104
f 104//104 106//106 107//107
f 106//106 69//69 107//107
f 107//107 69//69 71//71
f 108//108 109//109 110//110
f 111//111 109//109 108//108
f 111//111 112//112 109//109
f 113//113 112//112 111//111
f 113//113 114//114 112//112
f 115//115 114//114 113//113
f 115//115 90//90 114//114
f 116//116 90//90 115//115
f 116//116 89//89 90//90
f 117//117 89//89 116//116
f 117//117 118//118 89//89
f 119//119 118//118 117//117
f 119//119 120//120 118//118
f 121//121 120//120 119//119
f 121//121 122//122 120//120
f 123//123 77//77 124//124
f 70//70 77//77 123//123
f 70//70 125//125 77//77
f 69//69 125//125 70//70
f 69//69 126//126 125//125
f 106//106 126//126 69//69
f 106//106 127//127 126//126
f 128//128 127//127 106//106
f 128//128 86//86 127//127
f 129//129 86//86 128//128
f 129//129 88//88 86//86
f 130//130 88//88 129//129
f 130//130 131//131 88//88
f 132//132 131//131 133//133
f 132//132 134//134 131//131
# 128 faces, 0 coords texture

# End of File