####
#
# OBJ File Generated by Meshlab
#
####
# Object l_uleg_chull.obj
#
# Vertices: 100
# Faces: 196
#
####
vn -0.942610 0.258455 -0.211392
v -0.108214 0.075907 -0.187563
vn -0.289905 0.948668 0.126431
v -0.070812 0.117048 -0.108616
vn -0.424313 0.905398 -0.014620
v -0.077000 0.115327 -0.146300
vn -0.914833 0.395619 0.081036
v -0.108517 0.079344 -0.180285
vn -0.883187 0.357001 0.304190
v -0.087896 0.095012 -0.080312
vn -0.921577 0.364727 0.132929
v -0.093556 0.093293 -0.109930
vn -0.715681 0.687421 0.123503
v -0.082639 0.105828 -0.079705
vn 0.882182 0.468693 -0.045630
v 0.063600 0.077527 -0.222400
vn -0.182947 0.929507 -0.320230
v -0.011100 0.096827 -0.305800
vn -0.234707 0.914262 -0.330209
v -0.035600 0.101427 -0.276300
vn -0.292065 0.906486 -0.304928
v -0.063400 0.106227 -0.242600
vn -0.676732 0.714348 -0.178158
v -0.091300 0.105827 -0.208900
vn -0.353703 -0.932247 -0.076215
v -0.082538 -0.073295 -0.209600
vn -0.720605 -0.687116 -0.092739
v -0.093860 -0.069555 -0.199491
vn -0.971993 -0.156762 -0.175085
v -0.108214 -0.044587 -0.187563
vn -0.915961 -0.401264 -0.001623
v -0.108517 -0.048024 -0.180285
vn 0.783266 0.436635 -0.442543
v 0.053900 0.046827 -0.353400
vn 0.388011 0.263533 -0.883175
v 0.028454 0.045682 -0.365069
vn 0.545548 0.817350 -0.185248
v 0.037500 0.086727 -0.291100
vn 0.654808 0.748342 -0.105883
v 0.046400 0.096127 -0.211400
vn 0.730900 0.655812 -0.188933
v 0.054000 0.069927 -0.303800
vn 0.631861 0.773093 -0.055484
v 0.043010 0.105019 -0.137425
vn 0.419188 0.899981 -0.119651
v 0.029100 0.109327 -0.200300
vn -0.133931 0.989006 -0.062693
v -0.048900 0.120327 -0.161000
vn -0.118675 0.982139 -0.146009
v -0.056200 0.113327 -0.206000
vn -0.051093 0.982549 -0.178847
v -0.028300 0.110727 -0.234400
vn 0.079490 0.980727 -0.178484
v -0.003600 0.107127 -0.256400
vn -0.066299 0.928594 -0.365128
v 0.000756 0.091777 -0.324736
vn 0.292310 0.937037 -0.191093
v 0.021000 0.098227 -0.278400
vn 0.319875 0.776275 -0.543210
v 0.025017 0.077726 -0.346368
vn 0.469220 0.565699 -0.678098
v 0.044300 0.062427 -0.352100
vn 0.515666 0.821677 -0.242765
v 0.028800 0.077327 -0.343700
vn 0.175535 0.698087 -0.694162
v 0.018446 0.076614 -0.350816
vn 0.097714 0.898293 -0.428394
v 0.013300 0.087027 -0.335200
vn -0.033373 -0.993871 -0.105392
v -0.044328 -0.088559 -0.108211
vn -0.332736 -0.942908 -0.014546
v -0.070812 -0.085729 -0.108616
vn -0.083115 -0.984428 -0.154899
v -0.074249 -0.074913 -0.224965
vn -0.087971 -0.890327 0.446743
v -0.038970 -0.090783 -0.086478
vn 0.159950 -0.985277 0.060382
v -0.002580 -0.089671 -0.093048
vn 0.776059 -0.358784 0.518657
v 0.017739 -0.027706 0.011070
vn -0.651570 -0.287310 0.702075
v -0.018248 -0.027706 0.011070
vn -0.427363 -0.644654 0.633863
v -0.079000 -0.071779 -0.073135
vn -0.023807 -0.601696 0.798370
v -0.000255 -0.027605 0.018550
vn -0.900908 -0.361220 0.240593
v -0.087896 -0.063692 -0.080312
vn -0.711525 -0.249698 0.656798
v -0.095376 -0.031446 -0.070911
vn -0.698704 -0.703505 0.129979
v -0.082639 -0.074508 -0.079705
vn -0.921577 -0.364727 0.132929
v -0.093556 -0.061974 -0.109930
vn 0.667504 -0.743164 -0.046324
v 0.043010 -0.073700 -0.137425
vn 0.781462 -0.587096 0.211273
v 0.055039 -0.063793 -0.102955
vn 0.984780 0.104447 -0.138921
v 0.068600 0.027427 -0.321600
vn 0.987459 0.144024 -0.064661
v 0.079800 0.028927 -0.237000
vn 0.909527 0.385395 -0.155665
v 0.061300 0.051327 -0.312700
vn 0.941111 0.331262 -0.067651
v 0.071700 0.055927 -0.229700
vn 0.250699 0.963993 0.088701
v -0.002580 0.120991 -0.093048
vn 0.345266 0.938216 0.023282
v 0.037854 0.108254 -0.139750
vn 0.199188 0.976442 -0.082975
v 0.004100 0.117327 -0.188000
vn 0.011034 0.996483 -0.083065
v -0.020800 0.120027 -0.175700
vn -0.055255 0.988858 0.138224
v -0.038970 0.122103 -0.086478
vn 0.758416 0.585141 0.287082
v 0.015211 0.096831 0.013293
vn 0.770161 0.625344 0.125685
v 0.055039 0.095113 -0.102955
vn 0.360771 -0.919137 -0.158215
v 0.007125 -0.059750 -0.319884
vn 0.049423 -0.984851 -0.166208
v 0.000756 -0.060457 -0.324736
vn 0.416070 -0.895473 -0.158155
v 0.039977 -0.071476 -0.171288
vn 0.244763 -0.966252 -0.080301
v 0.037855 -0.076934 -0.139750
vn 0.842734 -0.513288 -0.162282
v 0.054230 -0.002434 -0.334743
vn 0.856951 -0.497527 -0.134547
v 0.045436 -0.068140 -0.171592
vn 0.671302 -0.683099 -0.287626
v 0.025017 -0.046407 -0.346368
vn 0.888917 -0.434217 -0.145885
v 0.058072 0.004540 -0.335855
vn 0.556468 -0.379930 -0.738915
v 0.035732 -0.014868 -0.361632
vn 0.353512 0.027712 -0.935019
v 0.032497 0.015660 -0.370426
vn 0.401881 -0.577005 -0.711025
v -0.031389 -0.040645 -0.391755
vn 0.474544 -0.196854 -0.857937
v 0.039876 0.015660 -0.367091
vn 0.385120 0.243078 -0.890278
v -0.031389 0.043863 -0.391755
vn 0.851795 -0.124857 -0.508779
v 0.063400 0.025927 -0.354600
vn -0.964137 -0.156305 -0.214499
v -0.074856 -0.040645 -0.373762
vn -0.981651 0.022805 -0.189317
v -0.113571 0.048007 -0.180285
vn -0.966567 0.130155 -0.220926
v -0.074856 0.043863 -0.373762
vn -0.982217 -0.043609 -0.182614
v -0.113571 -0.016687 -0.180285
vn 0.935408 -0.342531 -0.087658
v 0.080715 0.004540 -0.180285
vn 0.955496 0.257956 0.143130
v 0.078794 0.035978 -0.106695
vn 0.938474 -0.265253 0.221152
v 0.078794 -0.004658 -0.106695
vn 0.998776 0.049214 0.005048
v 0.080715 0.026779 -0.180285
vn 0.887929 -0.001962 0.459977
v 0.078693 0.004540 -0.106291
vn 0.888445 0.002151 0.458977
v 0.078693 0.026779 -0.106291
vn -0.472354 0.729320 -0.494949
v -0.067375 0.043863 -0.391755
vn -0.512134 -0.689520 -0.512134
v -0.067375 -0.040645 -0.391755
vn 0.028688 -0.717592 -0.695872
v -0.049382 -0.040645 -0.399236
vn 0.151013 0.400898 -0.903591
v -0.049382 0.043863 -0.399236
vn -0.990787 -0.059680 0.121571
v -0.113571 -0.016687 -0.172299
vn -0.989947 0.033121 0.137503
v -0.113571 0.048007 -0.172299
vn -0.178124 -0.064093 0.981919
v -0.043519 0.073784 0.019561
vn -0.040607 0.838810 0.542907
v -0.043519 0.096831 0.019561
vn -0.817546 0.374151 0.437754
v -0.049685 0.096831 0.013293
vn -0.744129 -0.185983 0.641625
v -0.049685 0.073784 0.013293
vn -0.959750 -0.056201 0.275175
v -0.099419 -0.031446 -0.077886
vn -0.952519 0.105592 0.285583
v -0.099419 0.062766 -0.077886
vn 0.876900 -0.001203 0.480671
v 0.017739 0.060845 0.011373
vn 0.877145 0.030408 0.479261
v 0.017739 0.073885 0.011373
vn 0.164207 -0.013279 0.986336
v 0.009045 0.073784 0.019561
vn 0.068295 0.935533 0.346573
v 0.009045 0.096831 0.019561
# 100 vertices, 0 vertices normals

f 24//24 2//2 58//58
f 93//93 58//58 2//2
f 6//6 4//4 96//96
f 39//39 40//40 43//43
f 80//80 60//60 59//59
f 3//3 24//24 12//12
f 3//3 2//2 24//24
f 28//28 9//9 27//27
f 37//37 75//75 86//86
f 37//37 14//14 75//75
f 77//77 76//76 1//1
f 1//1 76//76 4//4
f 1//1 12//12 77//77
f 1//1 4//4 12//12
f 7//7 93//93 2//2
f 3//3 7//7 2//2
f 7//7 3//3 12//12
f 12//12 4//4 7//7
f 4//4 6//6 7//7
f 79//79 51//51 82//82
f 51//51 80//80 82//82
f 53//53 80//80 51//51
f 87//87 37//37 86//86
f 18//18 31//31 17//17
f 73//73 31//31 18//18
f 21//21 31//31 32//32
f 31//31 21//21 17//17
f 12//12 24//24 25//25
f 25//25 11//11 12//12
f 88//88 31//31 73//73
f 36//36 46//46 14//14
f 14//14 46//46 16//16
f 16//16 75//75 14//14
f 96//96 4//4 90//90
f 90//90 4//4 76//76
f 93//93 92//92 58//58
f 92//92 100//100 58//58
f 5//5 6//6 96//96
f 5//5 7//7 6//6
f 96//96 93//93 5//5
f 7//7 5//5 93//93
f 49//49 79//79 81//81
f 81//81 40//40 49//49
f 39//39 64//64 49//49
f 49//49 40//40 39//39
f 98//98 59//59 100//100
f 98//98 80//80 59//59
f 98//98 84//84 80//80
f 83//83 40//40 81//81
f 22//22 60//60 20//20
f 20//20 23//23 22//22
f 29//29 28//28 27//27
f 56//56 29//29 27//27
f 23//23 29//29 56//56
f 8//8 21//21 20//20
f 8//8 20//20 60//60
f 80//80 8//8 60//60
f 8//8 80//80 53//53
f 17//17 21//21 52//52
f 52//52 8//8 53//53
f 52//52 21//21 8//8
f 26//26 10//10 11//11
f 25//25 26//26 11//11
f 27//27 9//9 26//26
f 26//26 9//9 10//10
f 28//28 85//85 9//9
f 85//85 28//28 88//88
f 85//85 10//10 9//9
f 10//10 85//85 11//11
f 85//85 77//77 12//12
f 85//85 12//12 11//11
f 31//31 88//88 33//33
f 46//46 36//36 38//38
f 38//38 39//39 43//43
f 14//14 37//37 13//13
f 13//13 36//36 14//14
f 36//36 13//13 37//37
f 47//47 16//16 46//46
f 16//16 89//89 78//78
f 15//15 78//78 75//75
f 15//15 16//16 78//78
f 75//75 16//16 15//15
f 95//95 45//45 94//94
f 95//95 89//89 16//16
f 16//16 47//47 95//95
f 42//42 45//45 46//46
f 42//42 38//38 43//43
f 46//46 38//38 42//42
f 66//66 79//79 49//49
f 17//17 52//52 74//74
f 74//74 18//18 17//17
f 73//73 18//18 74//74
f 62//62 64//64 39//39
f 62//62 39//39 37//37
f 37//37 87//87 62//62
f 62//62 87//87 71//71
f 67//67 62//62 71//71
f 97//97 40//40 83//83
f 19//19 23//23 20//20
f 19//19 29//29 23//23
f 20//20 21//21 19//19
f 19//19 21//21 32//32
f 32//32 29//29 19//19
f 55//55 22//22 23//23
f 56//56 55//55 23//23
f 60//60 22//22 55//55
f 57//57 24//24 58//58
f 57//57 25//25 24//24
f 57//57 26//26 25//25
f 57//57 56//56 27//27
f 27//27 26//26 57//57
f 34//34 88//88 28//28
f 34//34 33//33 88//88
f 29//29 34//34 28//28
f 34//34 29//29 32//32
f 32//32 31//31 30//30
f 31//31 33//33 30//30
f 30//30 34//34 32//32
f 34//34 30//30 33//33
f 35//35 36//36 37//37
f 35//35 38//38 36//36
f 35//35 37//37 39//39
f 39//39 38//38 35//35
f 99//99 91//91 43//43
f 99//99 43//43 40//40
f 97//97 99//99 40//40
f 41//41 91//91 94//94
f 94//94 45//45 41//41
f 41//41 45//45 42//42
f 43//43 91//91 41//41
f 41//41 42//42 43//43
f 46//46 45//45 44//44
f 95//95 44//44 45//45
f 44//44 47//47 46//46
f 44//44 95//95 47//47
f 63//63 66//66 64//64
f 66//66 63//63 67//67
f 48//48 49//49 64//64
f 64//64 66//66 48//48
f 48//48 66//66 49//49
f 50//50 51//51 79//79
f 74//74 50//50 79//79
f 50//50 74//74 52//52
f 53//53 51//51 50//50
f 50//50 52//52 53//53
f 74//74 68//68 67//67
f 79//79 66//66 68//68
f 68//68 74//74 79//79
f 69//69 74//74 67//67
f 69//69 67//67 71//71
f 54//54 55//55 56//56
f 54//54 57//57 58//58
f 57//57 54//54 56//56
f 58//58 100//100 54//54
f 54//54 100//100 59//59
f 59//59 60//60 54//54
f 60//60 55//55 54//54
f 61//61 62//62 67//67
f 63//63 61//61 67//67
f 64//64 62//62 61//61
f 61//61 63//63 64//64
f 65//65 66//66 67//67
f 68//68 65//65 67//67
f 65//65 68//68 66//66
f 72//72 69//69 71//71
f 69//69 72//72 74//74
f 71//71 87//87 70//70
f 70//70 72//72 71//71
f 87//87 88//88 70//70
f 70//70 88//88 73//73
f 73//73 74//74 70//70
f 72//72 70//70 74//74
f 75//75 76//76 77//77
f 76//76 75//75 78//78
f 79//79 80//80 81//81
f 80//80 79//79 82//82
f 80//80 83//83 81//81
f 83//83 80//80 84//84
f 85//85 75//75 77//77
f 86//86 75//75 85//85
f 85//85 87//87 86//86
f 85//85 88//88 87//87
f 89//89 76//76 78//78
f 89//89 90//90 76//76
f 91//91 92//92 93//93
f 94//94 91//91 93//93
f 90//90 89//89 95//95
f 96//96 90//90 95//95
f 95//95 94//94 93//93
f 95//95 93//93 96//96
f 97//97 83//83 84//84
f 98//98 97//97 84//84
f 99//99 92//92 91//91
f 92//92 99//99 100//100
f 99//99 97//97 98//98
f 99//99 98//98 100//100
# 196 faces, 0 coords texture

# End of File