####
#
# OBJ File Generated by Meshlab
#
####
# Object ltorso.obj
#
# Vertices: 273
# Faces: 292
#
####
vn 0.886685 0.315567 -0.337946
v 0.013701 0.020388 0.084585
vn 0.997660 0.000000 -0.068368
v 0.014828 0.035190 0.090250
vn 0.984872 0.000000 -0.173285
v 0.013701 0.019634 0.084585
vn 0.896496 0.000000 -0.443052
v 0.013701 0.035190 0.084585
vn 1.000000 0.000000 0.000000
v 0.014828 0.020388 0.090250
vn 0.983949 0.000000 0.178449
v 0.014828 0.019634 0.090250
vn 0.997135 0.000000 -0.075643
v 0.013701 0.014823 0.084585
vn 0.997135 0.000000 -0.075643
v 0.013701 0.019634 0.084585
vn 0.997809 0.000000 -0.066168
v 0.014828 0.019634 0.090250
vn 0.997809 0.000000 0.066168
v 0.014828 0.014823 0.090250
vn 0.999079 0.000000 -0.042911
v 0.012791 0.019634 0.063398
vn 0.999079 0.000000 -0.042911
v 0.012791 0.014823 0.063398
vn 0.121937 0.991439 -0.046681
v 0.012791 0.019634 0.063398
vn 0.562338 0.653133 -0.507142
v 0.010491 0.020388 0.079782
vn 0.010305 0.998490 -0.053965
v 0.006933 0.019634 0.063324
vn 0.386058 0.483759 -0.785453
v 0.005688 0.020388 0.076572
vn -0.005865 0.998398 -0.056272
v -0.012746 0.019634 0.063398
vn 0.034320 0.822605 -0.567577
v 0.000023 0.020388 0.075445
vn -0.000484 0.998088 -0.061811
v -0.006888 0.019634 0.063324
vn 0.000000 0.998079 -0.061954
v 0.000023 0.019634 0.063298
vn -0.270993 0.543364 -0.794555
v -0.005643 0.020388 0.076572
vn -0.828428 0.557979 -0.048654
v -0.012746 0.019634 0.063398
vn -0.671343 0.387677 -0.631668
v -0.010446 0.020388 0.079782
vn -0.938309 0.331092 -0.099770
v -0.013655 0.019634 0.084585
vn -0.924833 0.000000 -0.380373
v -0.013655 0.035190 0.084585
vn -0.707151 0.000000 -0.707063
v -0.010446 0.035190 0.079782
vn -0.923879 0.000000 -0.382684
v -0.013655 0.020388 0.084585
vn -1.000000 0.000000 -0.000000
v -0.014782 0.020388 0.090250
vn -0.997705 0.000000 -0.067712
v -0.014782 0.019634 0.090250
vn -0.997660 0.000000 0.068368
v -0.014782 0.035190 0.090250
vn -0.997809 0.000000 -0.066168
v -0.014782 0.014823 0.090250
vn -0.994877 0.080619 -0.060990
v -0.013655 0.014823 0.084585
vn -0.923879 0.000000 0.382684
v -0.013655 0.020388 0.095915
vn -0.947664 0.000000 0.319268
v -0.013655 0.019634 0.095915
vn -0.895564 0.000000 0.444933
v -0.013655 0.035190 0.095915
vn -0.947170 0.000000 0.320733
v -0.013655 0.014823 0.095915
vn -0.707107 0.000000 0.707107
v -0.010446 0.020388 0.100718
vn -0.753366 0.000000 0.657602
v -0.010446 0.019634 0.100718
vn -0.657107 0.000000 0.753798
v -0.010446 0.035190 0.100718
vn -0.752348 0.000000 0.658766
v -0.010446 0.014823 0.100718
vn -0.382653 0.000000 0.923892
v -0.005643 0.020388 0.103927
vn -0.444321 0.000000 0.895868
v -0.005643 0.019634 0.103927
vn -0.318609 0.000000 0.947886
v -0.005643 0.035190 0.103927
vn -0.442935 0.000000 0.896554
v -0.005643 0.014823 0.103927
vn -0.000000 0.000000 1.000000
v 0.000023 0.020388 0.105054
vn -0.067704 0.000000 0.997706
v 0.000023 0.019634 0.105054
vn 0.068364 0.000000 0.997660
v 0.000023 0.035190 0.105054
vn -0.066160 0.000000 0.997809
v 0.000023 0.014823 0.105054
vn 0.382684 0.000000 0.923879
v 0.005688 0.020388 0.103927
vn 0.212494 0.000000 0.977162
v 0.005688 0.019634 0.103927
vn 0.444933 0.000000 0.895564
v 0.005688 0.035190 0.103927
vn 0.431160 0.000000 0.902276
v 0.005688 0.019634 0.103927
vn 0.320733 0.000000 0.947170
v 0.005688 0.014823 0.103927
vn 0.707063 0.000000 0.707151
v 0.010491 0.020388 0.100718
vn 0.569564 0.000000 0.821947
v 0.010491 0.019634 0.100718
vn 0.753739 0.000000 0.657173
v 0.010491 0.035190 0.100718
vn 0.658738 0.000000 0.752373
v 0.010491 0.014823 0.100718
vn 0.752289 0.000000 0.658833
v 0.010491 0.019634 0.100718
vn 0.923848 0.000000 0.382760
v 0.013701 0.020388 0.095915
vn 0.840718 0.000000 0.541474
v 0.013701 0.019634 0.095915
vn 0.947857 0.000000 0.318697
v 0.013701 0.035190 0.095915
vn 0.896496 0.000000 0.443052
v 0.013701 0.014823 0.095915
vn 0.947152 0.000000 0.320786
v 0.013701 0.019634 0.095915
vn 0.000000 1.000000 0.000000
v -0.014782 0.014823 0.090250
vn 0.000000 1.000000 0.000000
v -0.012746 0.014823 0.063398
vn 0.000000 -1.000000 0.000000
v -0.010446 0.014823 0.100718
vn 0.000000 -1.000000 0.000000
v 0.000023 0.014823 0.105054
vn 0.000000 -1.000000 0.000000
v -0.005643 0.014823 0.103927
vn 0.000000 -1.000000 0.000000
v 0.005688 0.014823 0.103927
vn 0.000000 -1.000000 0.000000
v -0.013655 0.014823 0.095915
vn 0.000000 -1.000000 0.000000
v 0.010491 0.014823 0.100718
vn 0.000000 -1.000000 0.000000
v -0.014782 0.014823 0.090250
vn 0.000000 -1.000000 0.000000
v 0.013701 0.014823 0.095915
vn 0.000000 -1.000000 0.000000
v -0.012746 0.014823 0.063398
vn 0.000000 -1.000000 0.000000
v 0.014828 0.014823 0.090250
vn 0.000000 -1.000000 0.000000
v -0.006888 0.014823 0.063324
vn 0.000000 -1.000000 0.000000
v 0.000023 0.014823 0.063298
vn 0.000000 -1.000000 0.000000
v 0.006933 0.014823 0.063324
vn 0.000000 -1.000000 0.000000
v 0.012791 0.014823 0.063398
vn 0.000000 1.000000 0.000000
v 0.012791 0.014823 0.063398
vn 0.000000 1.000000 0.000000
v 0.013701 0.014823 0.084585
vn 0.000000 1.000000 0.000000
v 0.014828 0.014823 0.090250
vn 0.000000 1.000000 0.000000
v -0.013655 0.035190 0.084585
vn 0.000000 1.000000 0.000000
v -0.005643 0.035190 0.076572
vn 0.000000 1.000000 0.000000
v -0.010446 0.035190 0.079782
vn 0.000000 1.000000 0.000000
v 0.000023 0.035190 0.075445
vn 0.000000 1.000000 0.000000
v -0.014782 0.035190 0.090250
vn 0.000000 1.000000 0.000000
v 0.005688 0.035190 0.076572
vn 0.000000 1.000000 0.000000
v -0.013655 0.035190 0.095915
vn 0.000000 1.000000 0.000000
v 0.010491 0.035190 0.079782
vn 0.000000 1.000000 0.000000
v -0.010446 0.035190 0.100718
vn 0.000000 1.000000 0.000000
v 0.013701 0.035190 0.084585
vn 0.000000 1.000000 0.000000
v -0.005643 0.035190 0.103927
vn 0.000000 1.000000 0.000000
v 0.014828 0.035190 0.090250
vn 0.000000 1.000000 0.000000
v 0.000023 0.035190 0.105054
vn 0.000000 1.000000 0.000000
v 0.013701 0.035190 0.095915
vn 0.000000 1.000000 0.000000
v 0.005688 0.035190 0.103927
vn 0.000000 1.000000 0.000000
v 0.010491 0.035190 0.100718
vn 0.658804 0.000000 -0.752315
v 0.010491 0.035190 0.079782
vn 0.320786 0.000000 -0.947152
v 0.005688 0.035190 0.076572
vn -0.066161 0.000000 -0.997809
v 0.000023 0.035190 0.075445
vn -0.443029 0.000000 -0.896507
v -0.005643 0.035190 0.076572
vn -0.999081 0.000000 -0.042864
v -0.012746 0.014823 0.063398
vn 0.927277 -0.224648 -0.299485
v 0.013701 -0.020171 0.084585
vn 0.562354 -0.653108 -0.507156
v 0.010491 -0.020171 0.079782
vn 0.022986 -0.998822 -0.042739
v 0.012791 -0.019417 0.063398
vn 0.386064 -0.483735 -0.785465
v 0.005688 -0.020171 0.076572
vn 0.010305 -0.998490 -0.053965
v 0.006933 -0.019417 0.063324
vn 0.034322 -0.822588 -0.567601
v 0.000023 -0.020171 0.075445
vn 0.000000 -0.998079 -0.061954
v 0.000023 -0.019417 0.063298
vn -0.000484 -0.998088 -0.061811
v -0.006888 -0.019417 0.063324
vn -0.063333 -0.997081 -0.042644
v -0.012746 -0.019417 0.063398
vn -0.270999 -0.543339 -0.794571
v -0.005643 -0.020171 0.076572
vn -0.606012 -0.482162 -0.632668
v -0.010446 -0.020171 0.079782
vn -0.294042 -0.954656 -0.046590
v -0.013655 -0.019417 0.084585
vn 0.000000 -1.000000 0.000000
v 0.014828 -0.014605 0.090250
vn 0.000000 -1.000000 0.000000
v 0.013701 -0.014605 0.084585
vn 0.000000 -1.000000 0.000000
v 0.012791 -0.014605 0.063398
vn 0.000000 -1.000000 0.000000
v -0.012746 -0.014605 0.063398
vn -0.994879 -0.080602 -0.060990
v -0.013655 -0.014605 0.084585
vn 0.000000 -1.000000 0.000000
v -0.014782 -0.014605 0.090250
vn 0.000000 1.000000 0.000000
v -0.012746 -0.014605 0.063398
vn 0.000000 1.000000 0.000000
v -0.014782 -0.014605 0.090250
vn 0.000000 1.000000 0.000000
v -0.006888 -0.014605 0.063324
vn 0.000000 1.000000 0.000000
v 0.000023 -0.014605 0.063298
vn 0.000000 1.000000 0.000000
v 0.006933 -0.014605 0.063324
vn 0.000000 1.000000 0.000000
v 0.012791 -0.014605 0.063398
vn 0.000000 1.000000 0.000000
v -0.013655 -0.014605 0.095915
vn 0.000000 1.000000 0.000000
v 0.014828 -0.014605 0.090250
vn 0.000000 1.000000 0.000000
v -0.010446 -0.014605 0.100718
vn 0.000000 1.000000 0.000000
v 0.013701 -0.014605 0.095915
vn 0.000000 1.000000 0.000000
v -0.005643 -0.014605 0.103927
vn 0.000000 1.000000 0.000000
v 0.010491 -0.014605 0.100718
vn 0.000000 1.000000 0.000000
v 0.000023 -0.014605 0.105054
vn 0.000000 1.000000 0.000000
v 0.005688 -0.014605 0.103927
vn 0.000000 -1.000000 0.000000
v -0.013655 -0.034974 0.095915
vn 0.000000 -1.000000 0.000000
v -0.005643 -0.034974 0.103927
vn 0.000000 -1.000000 0.000000
v -0.010446 -0.034974 0.100718
vn 0.000000 -1.000000 0.000000
v -0.013655 -0.034974 0.095915
vn 0.000000 -1.000000 0.000000
v 0.000023 -0.034974 0.105054
vn 0.000000 -1.000000 0.000000
v -0.014782 -0.034974 0.090250
vn 0.000000 -1.000000 0.000000
v 0.005688 -0.034974 0.103927
vn 0.000000 -1.000000 0.000000
v -0.013655 -0.034974 0.084585
vn 0.000000 -1.000000 0.000000
v 0.010491 -0.034974 0.100718
vn -0.343983 -0.889365 -0.301173
v -0.010446 -0.034974 0.079782
vn 0.000000 -1.000000 0.000000
v 0.013701 -0.034974 0.095915
vn 0.000000 -1.000000 0.000000
v -0.005643 -0.034974 0.076572
vn 0.000000 -1.000000 0.000000
v 0.014828 -0.034974 0.090250
vn 0.000000 -1.000000 0.000000
v 0.000023 -0.034974 0.075445
vn 0.000000 -1.000000 0.000000
v 0.013701 -0.034974 0.084585
vn 0.000000 -1.000000 0.000000
v 0.005688 -0.034974 0.076572
vn 0.000000 -1.000000 0.000000
v 0.010491 -0.034974 0.079782
vn 0.997809 0.000000 -0.066168
v 0.014828 -0.034974 0.090250
vn 0.896496 0.000000 -0.443052
v 0.013701 -0.034974 0.084585
vn 0.998212 0.000000 0.059779
v 0.014828 -0.020171 0.090250
vn 0.997907 0.000000 -0.064658
v 0.013701 -0.019417 0.084585
vn 0.998833 0.000000 -0.048291
v 0.014828 -0.019417 0.090250
vn 0.995299 0.000000 -0.096846
v 0.013701 -0.014605 0.084585
vn 0.997809 0.000000 0.066168
v 0.014828 -0.014605 0.090250
vn 0.658804 0.000000 -0.752315
v 0.010491 -0.034974 0.079782
vn 0.999079 0.000000 -0.042911
v 0.012791 -0.019417 0.063398
vn 0.999079 0.000000 -0.042911
v 0.012791 -0.014605 0.063398
vn 0.320786 0.000000 -0.947152
v 0.005688 -0.034974 0.076572
vn -0.066161 0.000000 -0.997809
v 0.000023 -0.034974 0.075445
vn -0.443029 0.000000 -0.896507
v -0.005643 -0.034974 0.076572
vn -0.831491 0.000000 -0.555539
v -0.013655 -0.020171 0.084585
vn -0.831491 0.000000 -0.555539
v -0.013655 -0.034974 0.084585
vn -0.999081 0.000000 -0.042864
v -0.012746 -0.019417 0.063398
vn -0.995040 0.000000 -0.099478
v -0.013655 -0.019417 0.084585
vn -0.999081 0.000000 -0.042864
v -0.012746 -0.014605 0.063398
vn -0.998212 0.000000 -0.059779
v -0.014782 -0.020171 0.090250
vn -0.980780 0.000000 -0.195117
v -0.013655 -0.034974 0.084585
vn -0.997809 0.000000 0.066168
v -0.014782 -0.034974 0.090250
vn -0.980780 0.000000 -0.195117
v -0.013655 -0.020171 0.084585
vn -0.998833 0.000000 0.048291
v -0.014782 -0.019417 0.090250
vn -0.997809 0.000000 -0.066168
v -0.014782 -0.014605 0.090250
vn -0.945097 0.000000 0.326789
v -0.013655 -0.020171 0.095915
vn -0.896542 0.000000 0.442958
v -0.013655 -0.034974 0.095915
vn -0.904328 0.000000 0.426839
v -0.013655 -0.019417 0.095915
vn -0.947170 0.000000 0.320733
v -0.013655 -0.014605 0.095915
vn -0.748114 0.000000 0.663570
v -0.010446 -0.020171 0.100718
vn -0.658767 0.000000 0.752347
v -0.010446 -0.034974 0.100718
vn -0.672133 0.000000 0.740430
v -0.010446 -0.019417 0.100718
vn -0.752348 0.000000 0.658766
v -0.010446 -0.014605 0.100718
vn -0.437187 0.000000 0.899371
v -0.005643 -0.020171 0.103927
vn -0.320697 0.000000 0.947182
v -0.005643 -0.034974 0.103927
vn -0.337602 0.000000 0.941289
v -0.005643 -0.019417 0.103927
vn -0.442935 0.000000 0.896554
v -0.005643 -0.014605 0.103927
vn -0.059771 0.000000 0.998212
v 0.000023 -0.020171 0.105054
vn 0.066164 0.000000 0.997809
v 0.000023 -0.034974 0.105054
vn 0.048287 0.000000 0.998833
v 0.000023 -0.019417 0.105054
vn -0.066160 0.000000 0.997809
v 0.000023 -0.014605 0.105054
vn 0.326789 0.000000 0.945097
v 0.005688 -0.020171 0.103927
vn 0.442958 0.000000 0.896542
v 0.005688 -0.034974 0.103927
vn 0.426839 0.000000 0.904328
v 0.005688 -0.019417 0.103927
vn 0.320733 0.000000 0.947170
v 0.005688 -0.014605 0.103927
vn 0.663540 0.000000 0.748141
v 0.010491 -0.020171 0.100718
vn 0.752289 0.000000 0.658833
v 0.010491 -0.034974 0.100718
vn 0.740376 0.000000 0.672193
v 0.010491 -0.019417 0.100718
vn 0.658738 0.000000 0.752373
v 0.010491 -0.014605 0.100718
vn 0.899314 0.000000 0.437304
v 0.013701 -0.020171 0.095915
vn 0.947152 0.000000 0.320786
v 0.013701 -0.034974 0.095915
vn 0.941255 0.000000 0.337696
v 0.013701 -0.019417 0.095915
vn 0.896496 0.000000 0.443052
v 0.013701 -0.014605 0.095915
vn 0.980790 -0.195068 0.000000
v 0.024959 0.000982 0.078223
vn 0.947170 -0.320731 0.000000
v 0.023061 -0.008561 0.078223
vn 0.980790 -0.195068 0.000000
v 0.024959 0.000982 0.001301
vn 0.896516 -0.443012 0.000000
v 0.023061 -0.008561 0.001301
vn 0.752285 -0.658838 0.000000
v 0.017655 -0.016650 0.078223
vn 0.658727 -0.752382 0.000000
v 0.017655 -0.016650 0.001301
vn 0.442942 -0.896550 0.000000
v 0.009565 -0.022055 0.078223
vn 0.320710 -0.947177 0.000000
v 0.009565 -0.022055 0.001301
vn 0.066156 -0.997809 0.000000
v 0.000023 -0.023953 0.078223
vn 0.000000 -1.000000 0.000000
v 0.000023 -0.023953 0.001301
vn -0.191772 -0.964213 -0.183078
v -0.009520 -0.022055 0.001301
vn -0.195068 -0.980790 0.000000
v 0.000023 -0.023953 0.078223
vn -0.382665 -0.923887 0.000000
v -0.009520 -0.022055 0.078223
vn -0.442956 -0.896543 0.000000
v -0.009520 -0.022055 0.001301
vn -0.658779 -0.752337 0.000000
v -0.017609 -0.016650 0.078223
vn -0.752337 -0.658778 0.000000
v -0.017609 -0.016650 0.001301
vn -0.896529 -0.442984 0.000000
v -0.023014 -0.008561 0.078223
vn -0.947160 -0.320762 0.000000
v -0.023014 -0.008561 0.001301
vn -0.997807 -0.066186 0.000000
v -0.024913 0.000982 0.078223
vn -0.997807 0.066186 0.000000
v -0.024913 0.000982 0.001301
vn -0.947163 0.320752 0.000000
v -0.023014 0.010525 0.078223
vn -0.896543 0.442956 0.000000
v -0.023014 0.010525 0.001301
vn -0.707133 0.707081 0.000000
v -0.017609 0.018615 0.078223
vn -0.707133 0.707081 0.000000
v -0.017609 0.018615 0.001301
vn -0.442956 0.896543 0.000000
v -0.009520 0.024020 0.001301
vn -0.320700 0.947181 0.000000
v -0.009520 0.024020 0.078223
vn 0.000000 1.000000 0.000000
v 0.000023 0.025918 0.001301
vn 0.000000 1.000000 0.000000
v 0.000023 0.025918 0.078223
vn 0.320710 0.947177 0.000000
v 0.009565 0.024020 0.078223
vn 0.442942 0.896550 0.000000
v 0.009565 0.024020 0.001301
vn 0.658746 0.752365 0.000000
v 0.017655 0.018615 0.078223
vn 0.752214 0.658714 -0.016413
v 0.017655 0.018615 0.001301
vn 0.896529 0.442984 0.000000
v 0.023061 0.010525 0.078223
vn 0.936759 0.317194 -0.147887
v 0.023061 0.010525 0.001301
vn 0.980790 0.195068 0.000000
v 0.024959 0.000982 0.078223
vn 0.980790 0.195068 0.000000
v 0.024959 0.000982 0.001301
vn 0.000000 0.000000 1.000000
v -0.024913 0.000982 0.078223
vn 0.000000 0.000000 1.000000
v -0.017609 0.018615 0.078223
vn 0.000000 0.000000 1.000000
v -0.023014 0.010525 0.078223
vn 0.000000 0.000000 1.000000
v -0.009520 0.024020 0.078223
vn 0.000000 0.000000 1.000000
v -0.023014 -0.008561 0.078223
vn 0.000000 0.000000 1.000000
v 0.000023 0.025918 0.078223
vn 0.000000 0.000000 1.000000
v -0.017609 -0.016650 0.078223
vn 0.000000 0.000000 1.000000
v 0.009565 0.024020 0.078223
vn 0.000000 0.000000 1.000000
v -0.009520 -0.022055 0.078223
vn 0.000000 0.000000 1.000000
v 0.017655 0.018615 0.078223
vn 0.000000 0.000000 1.000000
v 0.000023 -0.023953 0.078223
vn 0.000000 0.000000 1.000000
v 0.023061 0.010525 0.078223
vn 0.000000 0.000000 1.000000
v 0.009565 -0.022055 0.078223
vn 0.000000 0.000000 1.000000
v 0.024959 0.000982 0.078223
vn 0.000000 0.000000 1.000000
v 0.017655 -0.016650 0.078223
vn 0.000000 0.000000 1.000000
v 0.024959 0.000982 0.078223
vn 0.000000 0.000000 1.000000
v 0.009565 -0.022055 0.078223
vn 0.000000 0.000000 1.000000
v 0.023061 -0.008561 0.078223
vn 0.000000 0.000000 -1.000000
v -0.023014 -0.008561 0.001301
vn 0.000000 0.000000 -1.000000
v -0.017609 -0.016650 0.001301
vn 0.000000 0.000000 -1.000000
v 0.000023 -0.023953 0.001301
vn 0.000000 0.000000 -1.000000
v -0.024913 0.000982 0.001301
vn 0.000000 0.000000 -1.000000
v 0.009565 -0.022055 0.001301
vn 0.000000 0.000000 -1.000000
v -0.023014 0.010525 0.001301
vn 0.000000 0.000000 -1.000000
v 0.017655 -0.016650 0.001301
vn 0.000000 0.000000 -1.000000
v -0.017609 0.018615 0.001301
vn 0.000000 0.000000 -1.000000
v 0.023061 -0.008561 0.001301
vn 0.000000 0.000000 -1.000000
v -0.009520 0.024020 0.001301
vn 0.000000 0.000000 -1.000000
v 0.024959 0.000982 0.001301
vn 0.000000 0.000000 -1.000000
v 0.000023 0.025918 0.001301
vn 0.000000 0.000000 -1.000000
v 0.024959 0.000982 0.001301
vn 0.000000 0.000000 -1.000000
v -0.009520 0.024020 0.001301
vn 0.000000 0.000000 -1.000000
v 0.009565 0.024020 0.001301
# 273 vertices, 0 vertices normals

f 1//1 2//2 3//3
f 4//4 2//2 1//1
f 2//2 5//5 3//3
f 3//3 5//5 6//6
f 7//7 8//8 9//9
f 7//7 9//9 10//10
f 11//11 7//7 12//12
f 11//11 8//8 7//7
f 1//1 3//3 13//13
f 13//13 14//14 1//1
f 14//14 13//13 15//15
f 15//15 16//16 14//14
f 17//17 18//18 19//19
f 19//19 18//18 20//20
f 18//18 15//15 20//20
f 18//18 16//16 15//15
f 18//18 17//17 21//21
f 22//22 23//23 21//21
f 23//23 22//22 24//24
f 23//23 25//25 26//26
f 23//23 27//27 25//25
f 24//24 27//27 23//23
f 28//28 25//25 29//29
f 30//30 25//25 28//28
f 25//25 27//27 29//29
f 29//29 27//27 24//24
f 31//31 29//29 24//24
f 31//31 24//24 32//32
f 33//33 30//30 34//34
f 35//35 30//30 33//33
f 30//30 28//28 34//34
f 34//34 28//28 29//29
f 36//36 34//34 29//29
f 36//36 29//29 31//31
f 37//37 35//35 38//38
f 39//39 35//35 37//37
f 35//35 33//33 38//38
f 38//38 33//33 34//34
f 40//40 38//38 34//34
f 40//40 34//34 36//36
f 41//41 39//39 42//42
f 43//43 39//39 41//41
f 39//39 37//37 42//42
f 42//42 37//37 38//38
f 44//44 42//42 38//38
f 44//44 38//38 40//40
f 45//45 43//43 46//46
f 47//47 43//43 45//45
f 43//43 41//41 46//46
f 46//46 41//41 42//42
f 48//48 46//46 42//42
f 48//48 42//42 44//44
f 49//49 47//47 50//50
f 51//51 47//47 49//49
f 47//47 45//45 50//50
f 52//52 45//45 46//46
f 53//53 52//52 46//46
f 53//53 46//46 48//48
f 54//54 51//51 55//55
f 56//56 51//51 54//54
f 51//51 49//49 55//55
f 55//55 49//49 50//50
f 57//57 58//58 52//52
f 57//57 52//52 53//53
f 59//59 56//56 60//60
f 61//61 56//56 59//59
f 56//56 54//54 60//60
f 60//60 54//54 55//55
f 62//62 63//63 58//58
f 62//62 58//58 57//57
f 5//5 61//61 6//6
f 2//2 61//61 5//5
f 61//61 59//59 6//6
f 6//6 59//59 60//60
f 10//10 9//9 63//63
f 10//10 63//63 62//62
f 64//64 32//32 65//65
f 66//66 67//67 68//68
f 66//66 69//69 67//67
f 70//70 69//69 66//66
f 70//70 71//71 69//69
f 72//72 71//71 70//70
f 72//72 73//73 71//71
f 74//74 75//75 72//72
f 72//72 75//75 73//73
f 76//76 75//75 74//74
f 76//76 77//77 75//75
f 77//77 78//78 75//75
f 75//75 78//78 79//79
f 80//80 81//81 82//82
f 83//83 84//84 85//85
f 83//83 86//86 84//84
f 87//87 86//86 83//83
f 87//87 88//88 86//86
f 89//89 88//88 87//87
f 89//89 90//90 88//88
f 91//91 90//90 89//89
f 91//91 92//92 90//90
f 93//93 92//92 91//91
f 93//93 94//94 92//92
f 95//95 94//94 93//93
f 95//95 96//96 94//94
f 97//97 96//96 95//95
f 97//97 98//98 96//96
f 4//4 14//14 99//99
f 4//4 1//1 14//14
f 99//99 16//16 100//100
f 99//99 14//14 16//16
f 100//100 18//18 101//101
f 100//100 16//16 18//18
f 101//101 21//21 102//102
f 101//101 18//18 21//21
f 102//102 23//23 26//26
f 102//102 21//21 23//23
f 32//32 22//22 103//103
f 32//32 24//24 22//22
f 104//104 105//105 106//106
f 105//105 107//107 108//108
f 108//108 106//106 105//105
f 108//108 109//109 110//110
f 110//110 109//109 111//111
f 109//109 112//112 111//111
f 109//109 113//113 112//112
f 109//109 108//108 107//107
f 113//113 114//114 112//112
f 115//115 112//112 114//114
f 116//116 117//117 118//118
f 119//119 120//120 121//121
f 122//122 123//123 124//124
f 124//124 123//123 125//125
f 123//123 126//126 125//125
f 123//123 127//127 126//126
f 128//128 127//127 123//123
f 128//128 129//129 127//127
f 130//130 129//129 128//128
f 130//130 131//131 129//129
f 132//132 131//131 130//130
f 132//132 133//133 131//131
f 134//134 133//133 132//132
f 134//134 135//135 133//133
f 136//136 137//137 138//138
f 139//139 140//140 137//137
f 141//141 140//140 139//139
f 141//141 142//142 140//140
f 143//143 142//142 141//141
f 143//143 144//144 142//142
f 145//145 144//144 143//143
f 145//145 146//146 144//144
f 147//147 146//146 145//145
f 147//147 148//148 146//146
f 149//149 148//148 147//147
f 149//149 150//150 148//148
f 151//151 150//150 149//149
f 151//151 152//152 150//150
f 104//104 153//153 154//154
f 104//104 155//155 153//153
f 104//104 156//156 155//155
f 155//155 156//156 157//157
f 158//158 157//157 156//156
f 158//158 159//159 157//157
f 154//154 105//105 104//104
f 154//154 160//160 105//105
f 161//161 156//156 104//104
f 162//162 156//156 161//161
f 162//162 158//158 156//156
f 160//160 107//107 105//105
f 160//160 163//163 107//107
f 163//163 109//109 107//107
f 163//163 164//164 109//109
f 164//164 113//113 109//109
f 164//164 165//165 113//113
f 165//165 114//114 113//113
f 165//165 145//145 114//114
f 114//114 166//166 115//115
f 145//145 166//166 114//114
f 145//145 167//167 166//166
f 120//120 168//168 169//169
f 120//120 170//170 168//168
f 171//171 172//172 173//173
f 171//171 174//174 172//172
f 171//171 175//175 174//174
f 174//174 175//175 169//169
f 176//176 169//169 175//175
f 176//176 120//120 169//169
f 177//177 173//173 178//178
f 177//177 171//171 173//173
f 177//177 179//179 171//171
f 171//171 179//179 175//175
f 180//180 175//175 179//179
f 180//180 176//176 175//175
f 181//181 178//178 182//182
f 181//181 177//177 178//178
f 181//181 183//183 177//177
f 177//177 183//183 179//179
f 184//184 179//179 183//183
f 184//184 180//180 179//179
f 185//185 182//182 186//186
f 185//185 181//181 182//182
f 185//185 187//187 181//181
f 181//181 187//187 183//183
f 188//188 183//183 187//187
f 188//188 184//184 183//183
f 189//189 186//186 190//190
f 189//189 185//185 186//186
f 189//189 191//191 185//185
f 185//185 191//191 187//187
f 192//192 187//187 191//191
f 192//192 188//188 187//187
f 193//193 190//190 194//194
f 193//193 189//189 190//190
f 193//193 195//195 189//189
f 189//189 195//195 191//191
f 196//196 191//191 195//195
f 196//196 192//192 191//191
f 197//197 194//194 198//198
f 197//197 193//193 194//194
f 197//197 199//199 193//193
f 193//193 199//199 195//195
f 200//200 195//195 199//199
f 200//200 196//196 195//195
f 201//201 198//198 202//202
f 201//201 197//197 198//198
f 201//201 203//203 197//197
f 197//197 203//203 199//199
f 204//204 199//199 203//203
f 204//204 200//200 199//199
f 155//155 202//202 153//153
f 155//155 201//201 202//202
f 155//155 157//157 201//201
f 201//201 157//157 203//203
f 159//159 203//203 157//157
f 159//159 204//204 203//203
f 205//205 206//206 207//207
f 207//207 206//206 208//208
f 206//206 209//209 208//208
f 208//208 209//209 210//210
f 209//209 211//211 210//210
f 210//210 211//211 212//212
f 211//211 213//213 212//212
f 212//212 213//213 214//214
f 213//213 215//215 214//214
f 216//216 217//217 218//218
f 217//217 219//219 218//218
f 218//218 219//219 220//220
f 219//219 221//221 220//220
f 220//220 221//221 222//222
f 221//221 223//223 222//222
f 222//222 223//223 224//224
f 223//223 225//225 224//224
f 224//224 225//225 226//226
f 225//225 227//227 226//226
f 226//226 227//227 228//228
f 227//227 229//229 228//228
f 227//227 230//230 229//229
f 230//230 231//231 229//229
f 230//230 232//232 231//231
f 232//232 233//233 231//231
f 231//231 233//233 234//234
f 233//233 235//235 234//234
f 234//234 235//235 236//236
f 235//235 237//237 236//236
f 236//236 237//237 238//238
f 237//237 239//239 238//238
f 238//238 239//239 240//240
f 241//241 242//242 243//243
f 241//241 244//244 242//242
f 245//245 244//244 241//241
f 245//245 246//246 244//244
f 247//247 246//246 245//245
f 247//247 248//248 246//246
f 249//249 248//248 247//247
f 249//249 250//250 248//248
f 251//251 250//250 249//249
f 251//251 252//252 250//250
f 253//253 252//252 251//251
f 253//253 254//254 252//252
f 255//255 256//256 257//257
f 255//255 258//258 256//256
f 259//259 215//215 260//260
f 259//259 261//261 215//215
f 262//262 261//261 259//259
f 262//262 263//263 261//261
f 264//264 263//263 262//262
f 264//264 265//265 263//263
f 266//266 265//265 264//264
f 266//266 267//267 265//265
f 268//268 267//267 266//266
f 268//268 269//269 267//267
f 270//270 271//271 272//272
f 270//270 238//238 271//271
f 273//273 238//238 270//270
f 273//273 236//236 238//238
# 292 faces, 0 coords texture

# End of File