####
#
# OBJ File Generated by Meshlab
#
####
# Object pelvis_chull.obj
#
# Vertices: 174
# Faces: 344
#
####
vn 0.986048 0.000046 0.166463
v 0.139116 -0.001585 0.095509
vn -0.997379 0.000074 0.072359
v -0.135866 -0.001593 0.029295
vn -0.967197 0.000008 0.254026
v -0.125908 -0.001585 0.098505
vn 0.974545 -0.205119 -0.090490
v 0.144948 -0.024008 -0.039475
vn 0.960405 -0.277876 -0.020199
v 0.137975 -0.077038 0.021934
vn 0.269877 -0.754410 -0.598358
v 0.007613 -0.107030 -0.060852
vn -0.487271 -0.670153 -0.559877
v -0.113204 -0.028391 -0.087599
vn -0.987604 -0.085921 -0.131359
v -0.133348 -0.032084 -0.033403
vn -0.935476 -0.119675 -0.332509
v -0.127295 -0.025262 -0.063605
vn -0.955150 -0.291267 -0.053398
v -0.129408 -0.064965 -0.003825
vn -0.992328 -0.120787 -0.026386
v -0.134456 -0.040372 -0.003579
vn -0.959538 -0.279771 0.031850
v -0.124767 -0.083073 0.024750
vn -0.988985 -0.131586 0.067781
v -0.133217 -0.047234 0.027283
vn -0.530670 0.704189 0.471707
v -0.069485 0.143914 0.098512
vn -0.980269 0.130837 0.148173
v -0.129227 0.042083 0.064778
vn -0.990174 -0.000147 0.139842
v -0.131890 -0.001584 0.067207
vn -0.921617 0.263497 0.284940
v -0.116420 0.071246 0.097933
vn -0.368602 0.050479 0.928216
v -0.123617 0.035544 0.098705
vn -0.823375 0.398589 0.403956
v -0.104768 0.101604 0.098582
vn 0.619567 -0.646069 -0.445792
v 0.132097 -0.022438 -0.097958
vn 0.885404 -0.405845 -0.226602
v 0.141601 -0.023403 -0.071750
vn 0.328321 -0.736550 -0.591354
v 0.111090 -0.024922 -0.116152
vn 0.472109 0.000000 -0.881540
v 0.112872 -0.001585 -0.118521
vn 0.005982 0.848432 0.529270
v 0.006757 0.169303 0.098061
vn -0.579643 0.746426 0.326898
v -0.072581 0.154751 0.074584
vn -0.345929 0.813835 -0.466912
v -0.050574 0.170903 0.053970
vn -0.775863 -0.000000 -0.630902
v -0.114912 -0.001585 -0.089799
vn -0.450090 0.731484 -0.512202
v -0.074125 0.159000 0.052740
vn -0.874911 0.433919 0.215045
v -0.108898 0.111907 0.065558
vn -0.662769 0.660830 -0.352194
v -0.095041 0.138615 0.050820
vn -0.775675 0.585587 0.235408
v -0.092534 0.136873 0.069778
vn -0.991160 0.000018 -0.132673
v -0.135225 -0.001585 -0.034353
vn -0.999972 0.000227 -0.007438
v -0.136989 -0.001584 -0.003076
vn 0.993614 -0.070291 0.088263
v 0.143359 -0.035204 0.029845
vn 0.990059 -0.139974 0.013808
v 0.145021 -0.039851 0.003441
vn 0.985774 -0.143435 0.087609
v 0.139606 -0.045010 0.061632
vn 0.995952 0.000131 0.089886
v 0.145867 -0.001587 0.026073
vn 0.995470 0.000031 0.095072
v 0.142325 -0.001584 0.064108
vn 0.645519 -0.671450 -0.363952
v 0.103821 -0.142033 0.042402
vn -0.344302 0.721621 -0.600599
v -0.007350 0.106646 -0.060852
vn 0.005551 0.724501 -0.689252
v 0.000132 0.108134 -0.060852
vn 0.086407 -0.000000 -0.996260
v 0.048025 -0.001585 -0.130729
vn -0.876349 -0.430524 0.216012
v -0.108898 -0.115107 0.065569
vn -0.937364 -0.241177 0.251362
v -0.116422 -0.074353 0.097901
vn -0.825031 -0.397040 0.402100
v -0.104768 -0.104754 0.098572
vn -0.676731 -0.076837 0.732210
v -0.123620 -0.038698 0.098696
vn -0.949338 -0.276152 0.149991
v -0.121370 -0.084960 0.062699
vn -0.977287 -0.143522 0.155923
v -0.129228 -0.045044 0.064648
vn 0.843771 -0.148963 -0.515617
v 0.133330 -0.015515 -0.098999
vn 0.974187 -0.138207 -0.178487
v 0.142758 -0.015486 -0.072671
vn 0.993639 0.069987 0.088224
v 0.143329 0.032459 0.030079
vn 0.766279 0.000000 -0.642508
v 0.134298 -0.001569 -0.099992
vn 0.964250 0.000000 -0.264993
v 0.143996 -0.001553 -0.074108
vn -0.249773 -0.638337 -0.728106
v -0.068471 -0.024268 -0.118139
vn -0.252943 0.626900 -0.736897
v -0.068471 0.021105 -0.118139
vn -0.200707 0.928783 0.311576
v -0.023338 0.177402 0.078003
vn -0.361649 0.735805 0.572539
v -0.046644 0.158300 0.098465
vn -0.414550 0.874973 0.250143
v -0.049313 0.167692 0.076642
vn -0.207593 0.874006 -0.439340
v -0.024168 0.181447 0.054853
vn -0.551429 0.080299 -0.830348
v -0.092529 0.013846 -0.107731
vn -0.402562 0.696235 -0.594307
v -0.092086 0.021817 -0.107122
vn -0.950419 0.266796 0.159763
v -0.121368 0.082156 0.062875
vn -0.935521 0.119683 -0.332381
v -0.127295 0.022096 -0.063604
vn -0.602539 0.645136 -0.469837
v -0.125568 0.035709 -0.062004
vn -0.987621 0.086010 -0.131176
v -0.133347 0.028934 -0.033402
vn -0.946109 0.000010 -0.323850
v -0.128712 -0.001585 -0.064911
vn -0.774221 0.091089 -0.626326
v -0.114278 0.016220 -0.088778
vn -0.487277 0.670156 -0.559867
v -0.113204 0.025228 -0.087599
vn -0.662916 -0.660541 -0.352460
v -0.095040 -0.142033 0.050911
vn -0.878940 -0.472896 -0.061913
v -0.112026 -0.118201 0.042326
vn -0.832105 -0.473389 -0.288971
v -0.130402 -0.053702 -0.031874
vn -0.602163 -0.645049 -0.470437
v -0.125568 -0.038872 -0.062004
vn -0.775133 -0.585307 0.237876
v -0.092534 -0.140101 0.069786
vn 0.005982 -0.848432 0.529270
v 0.006757 -0.172473 0.098061
vn -0.029781 0.029293 0.999127
v -0.089070 0.126152 0.098728
vn 0.004151 0.930175 0.367093
v 0.006333 0.179622 0.078059
vn -0.004357 0.922844 -0.385149
v 0.006105 0.184283 0.054510
vn 0.378000 0.747842 0.545756
v 0.059276 0.158300 0.097267
vn 0.545585 0.719661 0.429448
v 0.082313 0.143914 0.096796
vn 0.215026 0.929093 0.300914
v 0.034044 0.177402 0.077354
vn 0.080287 0.053712 0.995324
v 0.102233 0.126152 0.096566
vn 0.838006 -0.509698 -0.194818
v 0.120849 -0.118201 0.032825
vn 0.310631 -0.809311 -0.498522
v 0.060730 -0.174072 0.052712
vn -0.330698 -0.724767 -0.604443
v -0.007350 -0.107030 -0.060852
vn 0.448406 -0.119864 -0.885757
v 0.112311 -0.016980 -0.117278
vn 0.081160 -0.616222 -0.783380
v 0.046788 -0.024509 -0.129036
vn 0.086564 -0.075392 -0.993390
v 0.048333 -0.017225 -0.129886
vn 0.005277 -0.728018 -0.685538
v 0.000132 -0.108518 -0.060852
vn 0.147658 -0.642574 -0.751861
v 0.083858 -0.024268 -0.123851
vn 0.184008 -0.121037 -0.975444
v 0.084383 -0.016462 -0.125111
vn 0.184007 0.121000 -0.975449
v 0.084383 0.013297 -0.125111
vn 0.149070 0.631386 -0.761005
v 0.083858 0.021105 -0.123851
vn 0.081976 0.605137 -0.791890
v 0.046788 0.021346 -0.129036
vn 0.086564 0.075367 -0.993391
v 0.048333 0.014060 -0.129886
vn 0.188921 0.000000 -0.981992
v 0.085143 -0.001585 -0.126317
vn 0.448378 0.119804 -0.885779
v 0.112311 0.013816 -0.117278
vn 0.995606 0.093366 -0.007123
v 0.148407 -0.001536 -0.022564
vn 0.998613 -0.009852 0.051711
v 0.148535 -0.001578 -0.004700
vn 0.985067 0.147826 0.088265
v 0.139608 0.042045 0.061767
vn 0.514428 0.064195 0.855127
v 0.136980 0.035544 0.095759
vn 0.957449 0.235860 0.166320
v 0.129830 0.071246 0.095149
vn -0.551423 -0.080358 -0.830346
v -0.092529 -0.017011 -0.107731
vn -0.387619 -0.701408 -0.598146
v -0.092086 -0.024980 -0.107121
vn -0.774215 -0.091114 -0.626330
v -0.114278 -0.019385 -0.088778
vn -0.150627 -0.609973 -0.777974
v -0.038536 -0.024509 -0.125904
vn -0.029506 -0.593076 -0.804606
v 0.003435 -0.024437 -0.131946
vn -0.036092 -0.067825 -0.997044
v 0.003262 -0.017754 -0.132423
vn -0.352256 -0.093288 -0.931243
v -0.069076 -0.016462 -0.119079
vn -0.559421 -0.000000 -0.828883
v -0.093089 -0.001585 -0.108719
vn -0.178124 -0.074607 -0.981176
v -0.039073 -0.017225 -0.126722
vn -0.178124 0.074586 -0.981177
v -0.039073 0.014060 -0.126722
vn -0.352255 0.093249 -0.931247
v -0.069076 0.013297 -0.119079
vn -0.151826 0.598613 -0.786518
v -0.038536 0.021346 -0.125904
vn -0.029793 0.582322 -0.812412
v 0.003436 0.021274 -0.131946
vn -0.301444 0.000000 -0.953484
v -0.069722 -0.001585 -0.119957
vn -0.183577 -0.000000 -0.983005
v -0.039379 -0.001585 -0.127587
vn -0.036092 0.067805 -0.997045
v 0.003262 0.014588 -0.132423
vn -0.036052 -0.000000 -0.999350
v 0.002647 -0.001585 -0.133472
vn -0.953962 0.293606 -0.061249
v -0.129345 0.062343 -0.003561
vn -0.992319 0.120821 -0.026556
v -0.134438 0.037412 -0.003474
vn -0.989184 0.129922 0.068087
v -0.133194 0.044422 0.027507
vn -0.959049 0.281517 0.031198
v -0.124654 0.081952 0.025576
vn -0.830684 0.474832 -0.290688
v -0.130389 0.050686 -0.031843
vn -0.872847 0.483383 -0.066931
v -0.112027 0.114902 0.042216
vn -0.530665 -0.704198 0.471699
v -0.069485 -0.147083 0.098512
vn -0.053299 -0.048645 0.997393
v -0.089071 -0.129321 0.098728
vn 0.885415 0.445759 0.131679
v 0.119301 0.111907 0.062979
vn 0.844998 0.410929 0.342221
v 0.118122 0.101604 0.096062
vn 0.930880 0.346930 0.114462
v 0.131707 0.082156 0.060013
vn 0.203549 0.868559 -0.451856
v 0.034351 0.181447 0.054191
vn 0.846538 -0.409406 0.340234
v 0.118122 -0.104754 0.096053
vn 0.956619 -0.238761 0.166951
v 0.129832 -0.074353 0.095118
vn 0.865583 -0.109688 0.488605
v 0.136985 -0.038698 0.095750
vn 0.931814 -0.344604 0.113889
v 0.131706 -0.084960 0.059838
vn 0.886918 -0.442554 0.132373
v 0.119302 -0.115107 0.062990
vn 0.588366 -0.758387 0.280489
v 0.083198 -0.157920 0.072823
vn 0.383474 -0.762882 -0.520538
v 0.084089 -0.162169 0.048742
vn 0.786394 -0.597030 0.158556
v 0.103037 -0.140101 0.067575
vn 0.545579 -0.719670 0.429440
v 0.082313 -0.147083 0.096796
vn 0.050736 -0.028179 0.998314
v 0.102234 -0.129321 0.096566
vn 0.215026 -0.929100 0.300894
v 0.034044 -0.180572 0.077354
vn 0.423588 -0.876680 0.228045
v 0.059983 -0.170862 0.075406
vn 0.201541 -0.862081 -0.464971
v 0.034351 -0.184616 0.054191
vn 0.004151 -0.930185 0.367068
v 0.006333 -0.182792 0.078059
vn 0.378014 -0.747840 0.545748
v 0.059276 -0.161469 0.097267
vn -0.004509 -0.917126 -0.398572
v 0.006105 -0.187451 0.054510
vn 0.830950 0.518993 -0.200422
v 0.120848 0.114902 0.032716
vn 0.843694 0.148815 -0.515786
v 0.133330 0.012395 -0.098999
vn 0.975328 0.201496 -0.090190
v 0.144929 0.021027 -0.039438
vn 0.989982 0.140538 0.013620
v 0.144927 0.037539 0.003727
vn 0.998008 -0.009323 -0.062392
v 0.148271 -0.001545 -0.041167
vn 0.974211 0.138210 -0.178356
v 0.142758 0.012407 -0.072671
vn 0.879704 0.412699 -0.236220
v 0.141601 0.020327 -0.071750
vn 0.960049 0.279065 -0.020724
v 0.137786 0.075400 0.020023
vn -0.414560 -0.874970 0.250136
v -0.049313 -0.170862 0.076642
vn -0.579128 -0.746676 0.327241
v -0.072581 -0.157920 0.074584
vn -0.438599 -0.734512 -0.517805
v -0.074125 -0.162169 0.052740
vn -0.342681 -0.807802 -0.479610
v -0.050574 -0.174072 0.053970
vn -0.361664 -0.735803 0.572533
v -0.046644 -0.161469 0.098465
vn -0.200708 -0.928789 0.311556
v -0.023338 -0.180572 0.078003
vn -0.205908 -0.867553 -0.452719
v -0.024168 -0.184616 0.054853
vn 0.396162 0.760369 -0.514679
v 0.084089 0.159000 0.048742
vn 0.619572 0.646350 -0.445379
v 0.132097 0.019322 -0.097958
vn 0.342330 0.732638 -0.588261
v 0.111090 0.021760 -0.116152
vn 0.646639 0.670920 -0.362938
v 0.103820 0.138615 0.042311
vn 0.284264 0.753176 -0.593229
v 0.007613 0.106646 -0.060852
vn 0.314659 0.815241 -0.486180
v 0.060730 0.170903 0.052712
vn 0.786703 0.597198 0.156378
v 0.103037 0.136872 0.067567
vn 0.588885 0.758123 0.280114
v 0.083198 0.154751 0.072823
vn 0.423578 0.876683 0.228053
v 0.059983 0.167692 0.075406
vn 0.004549 -0.021416 0.999760
v -0.021153 -0.170306 0.098385
vn 0.021116 -0.037854 0.999060
v 0.033700 -0.170306 0.097765
vn 0.018020 0.020616 0.999625
v 0.033700 0.167136 0.097765
vn 0.001432 0.039310 0.999226
v -0.021153 0.167136 0.098385
# 174 vertices, 0 vertices normals

f 2//2 121//121 33//33
f 21//21 5//5 82//82
f 137//137 6//6 22//22
f 106//106 88//88 105//105
f 13//13 2//2 33//33
f 20//20 21//21 82//82
f 20//20 137//137 22//22
f 120//120 33//33 121//121
f 126//126 18//18 46//46
f 18//18 126//126 75//75
f 133//133 38//38 1//1
f 128//128 81//81 100//100
f 133//133 1//1 100//100
f 100//100 101//101 128//128
f 100//100 1//1 38//38
f 129//129 128//128 101//101
f 35//35 151//151 98//98
f 132//132 5//5 133//133
f 143//143 146//146 88//88
f 143//143 88//88 6//6
f 48//48 13//13 47//47
f 70//70 47//47 12//12
f 12//12 47//47 13//13
f 11//11 13//13 33//33
f 3//3 46//46 18//18
f 16//16 121//121 2//2
f 16//16 3//3 18//18
f 16//16 2//2 13//13
f 16//16 13//13 48//48
f 16//16 48//48 46//46
f 16//16 46//46 3//3
f 19//19 18//18 75//75
f 29//29 62//62 19//19
f 39//39 20//20 82//82
f 39//39 137//137 20//20
f 6//6 89//89 22//22
f 89//89 6//6 88//88
f 174//174 173//173 24//24
f 174//174 57//57 75//75
f 61//61 68//68 28//28
f 61//61 28//28 40//40
f 26//26 40//40 28//28
f 59//59 40//40 26//26
f 41//41 59//59 77//77
f 41//41 40//40 59//59
f 41//41 130//130 166//166
f 41//41 77//77 130//130
f 41//41 93//93 114//114
f 104//104 103//103 7//7
f 104//104 7//7 9//9
f 27//27 104//104 66//66
f 66//66 104//104 9//9
f 7//7 103//103 157//157
f 5//5 36//36 133//133
f 35//35 36//36 5//5
f 4//4 151//151 35//35
f 21//21 50//50 4//4
f 4//4 50//50 151//151
f 4//4 5//5 21//21
f 4//4 35//35 5//5
f 82//82 5//5 134//134
f 132//132 134//134 5//5
f 6//6 137//137 83//83
f 83//83 143//143 6//6
f 55//55 61//61 40//40
f 84//84 103//103 54//54
f 84//84 157//157 103//103
f 84//84 105//105 88//88
f 84//84 54//54 105//105
f 45//45 126//126 46//46
f 72//72 9//9 7//7
f 72//72 71//71 9//9
f 7//7 157//157 72//72
f 8//8 9//9 71//71
f 11//11 8//8 71//71
f 32//32 66//66 8//8
f 8//8 66//66 9//9
f 33//33 32//32 8//8
f 8//8 11//11 33//33
f 10//10 11//11 71//71
f 10//10 71//71 70//70
f 70//70 12//12 10//10
f 10//10 12//12 13//13
f 10//10 13//13 11//11
f 14//14 75//75 57//57
f 14//14 25//25 75//75
f 57//57 25//25 14//14
f 25//25 31//31 75//75
f 31//31 19//19 75//75
f 29//29 19//19 31//31
f 31//31 25//25 28//28
f 15//15 62//62 121//121
f 18//18 62//62 15//15
f 16//16 15//15 121//121
f 15//15 16//16 18//18
f 17//17 62//62 18//18
f 17//17 18//18 19//19
f 17//17 19//19 62//62
f 20//20 49//49 21//21
f 49//49 50//50 21//21
f 49//49 20//20 22//22
f 95//95 23//23 85//85
f 89//89 85//85 22//22
f 85//85 49//49 22//22
f 85//85 23//23 52//52
f 52//52 49//49 85//85
f 23//23 96//96 52//52
f 96//96 23//23 95//95
f 166//166 164//164 92//92
f 92//92 41//41 166//166
f 41//41 92//92 93//93
f 164//164 96//96 92//92
f 76//76 174//174 24//24
f 173//173 76//76 24//24
f 109//109 104//104 27//27
f 58//58 25//25 57//57
f 59//59 26//26 58//58
f 25//25 58//58 28//28
f 58//58 26//26 28//28
f 66//66 67//67 27//27
f 68//68 61//61 67//67
f 67//67 109//109 27//27
f 30//30 31//31 28//28
f 68//68 64//64 28//28
f 64//64 30//30 28//28
f 123//123 30//30 64//64
f 124//124 62//62 29//29
f 124//124 30//30 123//123
f 31//31 124//124 29//29
f 124//124 31//31 30//30
f 65//65 120//120 123//123
f 65//65 32//32 33//33
f 120//120 65//65 33//33
f 65//65 66//66 32//32
f 73//73 126//126 45//45
f 81//81 169//169 79//79
f 51//51 37//37 98//98
f 51//51 99//99 100//100
f 51//51 100//100 38//38
f 38//38 37//37 51//51
f 34//34 35//35 98//98
f 34//34 36//36 35//35
f 34//34 98//98 37//37
f 36//36 34//34 133//133
f 34//34 38//38 133//133
f 34//34 37//37 38//38
f 137//137 39//39 138//138
f 138//138 39//39 82//82
f 144//144 172//172 74//74
f 113//113 55//55 40//40
f 113//113 41//41 114//114
f 40//40 41//41 113//113
f 161//161 88//88 146//146
f 161//161 84//84 88//88
f 87//87 42//42 95//95
f 87//87 106//106 107//107
f 87//87 107//107 118//118
f 118//118 42//42 87//87
f 94//94 95//95 42//42
f 93//93 94//94 114//114
f 94//94 117//117 114//114
f 94//94 118//118 117//117
f 94//94 42//42 118//118
f 43//43 47//47 70//70
f 43//43 45//45 47//47
f 43//43 70//70 73//73
f 43//43 73//73 45//45
f 44//44 45//45 46//46
f 47//47 45//45 44//44
f 48//48 44//44 46//46
f 44//44 48//48 47//47
f 50//50 49//49 53//53
f 53//53 49//49 52//52
f 53//53 151//151 50//50
f 53//53 152//152 151//151
f 150//150 51//51 98//98
f 51//51 150//150 99//99
f 148//148 96//96 164//164
f 148//148 52//52 96//96
f 148//148 53//53 52//52
f 148//148 152//152 53//53
f 108//108 54//54 103//103
f 54//54 108//108 105//105
f 112//112 61//61 55//55
f 112//112 55//55 113//113
f 56//56 57//57 174//174
f 56//56 58//58 57//57
f 58//58 56//56 59//59
f 56//56 174//174 76//76
f 59//59 56//56 77//77
f 56//56 76//76 77//77
f 60//60 67//67 61//61
f 109//109 67//67 60//60
f 112//112 60//60 61//61
f 60//60 112//112 109//109
f 122//122 121//121 62//62
f 62//62 124//124 122//122
f 123//123 64//64 63//63
f 63//63 65//65 123//123
f 65//65 63//63 66//66
f 63//63 67//67 66//66
f 68//68 67//67 63//63
f 63//63 64//64 68//68
f 69//69 73//73 70//70
f 157//157 73//73 69//69
f 70//70 71//71 69//69
f 69//69 71//71 72//72
f 69//69 72//72 157//157
f 126//126 73//73 156//156
f 156//156 73//73 157//157
f 171//171 74//74 172//172
f 171//171 144//144 74//74
f 159//159 171//171 126//126
f 126//126 171//171 75//75
f 171//171 174//174 75//75
f 80//80 170//170 130//130
f 80//80 76//76 173//173
f 80//80 130//130 77//77
f 77//77 76//76 80//80
f 78//78 173//173 81//81
f 81//81 79//79 78//78
f 78//78 80//80 173//173
f 170//170 80//80 78//78
f 78//78 79//79 169//169
f 169//169 170//170 78//78
f 168//168 169//169 81//81
f 168//168 81//81 128//128
f 133//133 100//100 140//140
f 140//140 100//100 81//81
f 172//172 140//140 173//173
f 173//173 140//140 81//81
f 135//135 138//138 82//82
f 82//82 134//134 135//135
f 142//142 83//83 137//137
f 142//142 143//143 83//83
f 157//157 84//84 158//158
f 158//158 84//84 161//161
f 90//90 87//87 95//95
f 95//95 85//85 90//90
f 90//90 85//85 89//89
f 86//86 106//106 87//87
f 88//88 106//106 86//86
f 86//86 89//89 88//88
f 86//86 90//90 89//89
f 86//86 87//87 90//90
f 92//92 91//91 93//93
f 91//91 94//94 93//93
f 95//95 94//94 91//91
f 91//91 96//96 95//95
f 91//91 92//92 96//96
f 152//152 148//148 153//153
f 98//98 151//151 97//97
f 97//97 150//150 98//98
f 150//150 97//97 151//151
f 154//154 147//147 129//129
f 150//150 154//154 99//99
f 154//154 153//153 147//147
f 99//99 154//154 100//100
f 100//100 154//154 101//101
f 154//154 129//129 101//101
f 102//102 108//108 103//103
f 109//109 108//108 102//102
f 104//104 102//102 103//103
f 102//102 104//104 109//109
f 108//108 110//110 105//105
f 110//110 106//106 105//105
f 110//110 107//107 106//106
f 107//107 110//110 118//118
f 110//110 116//116 118//118
f 115//115 108//108 109//109
f 112//112 115//115 109//109
f 116//116 110//110 115//115
f 115//115 110//110 108//108
f 111//111 112//112 113//113
f 111//111 113//113 114//114
f 116//116 115//115 111//111
f 111//111 115//115 112//112
f 114//114 117//117 111//111
f 111//111 117//117 118//118
f 118//118 116//116 111//111
f 119//119 120//120 121//121
f 119//119 121//121 122//122
f 119//119 123//123 120//120
f 119//119 124//124 123//123
f 119//119 122//122 124//124
f 125//125 159//159 126//126
f 156//156 125//125 126//126
f 125//125 156//156 159//159
f 144//144 171//171 160//160
f 146//146 144//144 160//160
f 160//160 161//161 146//146
f 160//160 171//171 159//159
f 127//127 168//168 128//128
f 168//168 127//127 147//147
f 128//128 129//129 127//127
f 129//129 147//147 127//127
f 165//165 168//168 147//147
f 167//167 130//130 170//170
f 167//167 166//166 130//130
f 131//131 132//132 133//133
f 133//133 140//140 131//131
f 131//131 134//134 132//132
f 131//131 135//135 134//134
f 131//131 140//140 138//138
f 131//131 138//138 135//135
f 145//145 139//139 140//140
f 145//145 140//140 172//172
f 136//136 142//142 137//137
f 137//137 138//138 136//136
f 139//139 145//145 136//136
f 136//136 145//145 142//142
f 136//136 140//140 139//139
f 138//138 140//140 136//136
f 142//142 141//141 143//143
f 141//141 172//172 144//144
f 141//141 145//145 172//172
f 145//145 141//141 142//142
f 143//143 141//141 146//146
f 141//141 144//144 146//146
f 147//147 153//153 163//163
f 163//163 153//153 148//148
f 163//163 165//165 147//147
f 163//163 148//148 164//164
f 149//149 150//150 151//151
f 149//149 151//151 152//152
f 152//152 153//153 149//149
f 149//149 154//154 150//150
f 153//153 154//154 149//149
f 155//155 156//156 157//157
f 157//157 158//158 155//155
f 159//159 156//156 155//155
f 155//155 160//160 159//159
f 155//155 158//158 161//161
f 155//155 161//161 160//160
f 162//162 163//163 164//164
f 162//162 165//165 163//163
f 162//162 164//164 166//166
f 166//166 167//167 162//162
f 168//168 162//162 169//169
f 162//162 168//168 165//165
f 162//162 170//170 169//169
f 162//162 167//167 170//170
f 171//171 172//172 173//173
f 174//174 171//171 173//173
# 344 faces, 0 coords texture

# End of File