####
#
# OBJ File Generated by Meshlab
#
####
# Object pelvis_chull.obj
#
# Vertices: 127
# Faces: 250
#
####
vn -0.569797 0.804662 -0.166882
v -0.056511 0.179373 0.067674
vn -0.221219 0.329852 0.917747
v -0.052165 0.174217 0.119530
vn -0.869219 -0.078299 -0.488188
v -0.155979 -0.061008 -0.107103
vn -0.267912 0.285359 0.920214
v -0.134954 0.111646 0.119530
vn 0.272689 0.159047 0.948865
v 0.151320 0.111646 0.119530
vn -0.606909 0.794752 0.005497
v -0.130304 0.123068 0.109017
vn -0.869219 0.078299 -0.488188
v -0.155979 0.060294 -0.107103
vn -0.684544 0.728537 -0.025152
v -0.135964 0.118418 0.110230
vn -0.616176 0.785133 0.062394
v -0.134650 0.119631 0.113364
vn 0.272689 -0.159047 0.948865
v 0.151320 -0.112360 0.119530
vn 0.146078 -0.312754 0.938534
v 0.068531 -0.174931 0.119530
vn 0.211893 -0.280356 0.936217
v 0.114222 -0.128836 0.126808
vn 0.146078 0.312754 0.938534
v 0.068531 0.174217 0.119530
vn 0.211893 0.280356 0.936217
v 0.114222 0.128122 0.126808
vn -0.349540 0.558078 0.752576
v -0.055501 0.178665 0.116397
vn 0.999579 0.020926 0.020109
v 0.172649 0.072526 0.113162
vn -0.772247 0.628570 -0.092375
v -0.125654 0.126000 0.070302
vn -0.605888 0.783656 -0.137052
v -0.122621 0.129133 0.067674
vn -0.709787 0.691079 -0.136425
v -0.155070 0.063731 -0.106092
vn 0.352466 -0.515816 0.780834
v 0.071867 -0.179379 0.116397
vn 0.297424 -0.954122 0.034504
v 0.067520 -0.181906 0.109119
vn 0.999579 -0.020926 0.020109
v 0.172649 -0.073240 0.113162
vn 0.817472 -0.555100 -0.153635
v 0.141717 -0.126714 0.070302
vn 0.883968 -0.446362 -0.139144
v 0.156172 -0.101847 0.060092
vn 0.767278 -0.564417 -0.304495
v 0.153038 -0.103969 0.054937
vn 0.349878 -0.714785 -0.605531
v 0.070654 -0.177560 0.062114
vn 0.197895 -0.786212 -0.585412
v 0.046697 -0.185545 0.062114
vn 0.307725 -0.950088 -0.051366
v 0.060242 -0.185343 0.067775
vn 0.576984 -0.814612 -0.059130
v 0.072575 -0.180087 0.067674
vn 0.523230 -0.686027 -0.505567
v 0.136663 -0.127219 0.062114
vn -0.999778 0.000000 -0.021075
v -0.157799 -0.000357 -0.109630
vn -0.978865 0.202847 -0.026013
v -0.157799 0.059081 -0.103059
vn -0.293416 0.955316 0.035749
v -0.051558 0.181192 0.109119
vn -0.305871 0.920182 -0.244353
v -0.044280 0.184629 0.067775
vn -0.582727 0.812276 0.025241
v -0.056815 0.179069 0.113465
vn 0.297424 0.954122 0.034504
v 0.067520 0.181192 0.109119
vn 0.352466 0.515816 0.780834
v 0.071867 0.178665 0.116397
vn 0.349878 0.714785 -0.605531
v 0.070654 0.176846 0.062114
vn 0.523230 0.686027 -0.505567
v 0.136663 0.126505 0.062114
vn 0.576984 0.814612 -0.059130
v 0.072575 0.179373 0.067674
vn 0.307725 0.950088 -0.051366
v 0.060242 0.184629 0.067775
vn 0.197895 0.786212 -0.585412
v 0.046697 0.184831 0.062114
vn -0.569797 -0.804662 -0.166882
v -0.056511 -0.180087 0.067674
vn -0.305871 -0.920182 -0.244353
v -0.044280 -0.185343 0.067775
vn -0.293416 -0.955316 0.035749
v -0.051558 -0.181906 0.109119
vn 0.622769 -0.781561 0.036349
v 0.150713 -0.120345 0.113364
vn 0.582613 -0.812492 0.020453
v 0.072777 -0.179783 0.113465
vn 0.606414 -0.795137 0.004366
v 0.146367 -0.123782 0.109017
vn 0.627760 -0.726902 -0.278446
v 0.138583 -0.129847 0.067674
vn 0.817472 0.555100 -0.153635
v 0.141717 0.126000 0.070302
vn 0.883968 0.446362 -0.139144
v 0.156172 0.101133 0.060092
vn 0.767278 0.564417 -0.304495
v 0.153038 0.103255 0.054937
vn -0.349540 -0.558078 0.752576
v -0.055501 -0.179379 0.116397
vn -0.221219 -0.329852 0.917747
v -0.052165 -0.174931 0.119530
vn -0.267912 -0.285359 0.920214
v -0.134954 -0.112360 0.119530
vn 0.606414 0.795137 0.004366
v 0.146367 0.123068 0.109017
vn 0.627759 0.726902 -0.278446
v 0.138583 0.129133 0.067674
vn 0.582613 0.812492 0.020453
v 0.072777 0.179069 0.113465
vn 0.622769 0.781561 0.036349
v 0.150713 0.119631 0.113364
vn -0.772248 -0.628570 -0.092375
v -0.125654 -0.126714 0.070302
vn -0.709787 -0.691079 -0.136425
v -0.155070 -0.064445 -0.106092
vn -0.978865 -0.202847 -0.026013
v -0.157799 -0.059795 -0.103059
vn -0.606909 -0.794752 0.005497
v -0.130304 -0.123782 0.109017
vn -0.582727 -0.812276 0.025241
v -0.056815 -0.179783 0.113465
vn -0.684545 -0.728537 -0.025152
v -0.135964 -0.119132 0.110230
vn -0.616176 -0.785133 0.062394
v -0.134650 -0.120345 0.113364
vn -0.605888 -0.783656 -0.137052
v -0.122621 -0.129847 0.067674
vn 0.008594 0.939212 -0.343231
v 0.046697 0.188066 0.067674
vn -0.035215 0.920734 -0.388600
v -0.030735 0.188066 0.067674
vn -0.351585 0.791668 -0.499650
v -0.131719 0.071919 -0.147436
vn -0.346938 -0.759543 -0.550208
v -0.131719 -0.072633 -0.147436
vn 0.252359 0.534741 -0.806453
v -0.095935 0.062316 -0.149660
vn 0.266201 -0.563180 -0.782282
v -0.095935 -0.063030 -0.149660
vn 0.940389 0.071714 -0.332453
v 0.157183 0.003585 -0.074149
vn 0.861217 -0.269396 -0.430966
v 0.157183 -0.004299 -0.074149
vn 0.867965 -0.392835 -0.303837
v 0.174772 -0.036242 -0.014104
vn 0.881168 0.376645 -0.285800
v 0.174772 0.035528 -0.014104
vn -0.834410 0.019455 -0.550801
v -0.155979 0.005102 -0.113876
vn -0.869147 -0.050634 -0.491955
v -0.155979 -0.005816 -0.113876
vn -0.850742 0.522412 -0.057656
v -0.138289 0.116093 0.109927
vn -0.774388 0.131280 0.618942
v -0.155272 0.082634 0.116397
vn -0.922375 0.385074 -0.030706
v -0.155272 0.082634 0.109927
vn -0.498340 0.514770 0.697616
v -0.138289 0.116093 0.116397
vn 0.315064 -0.000440 0.949070
v -0.013651 -0.021181 0.179272
vn 0.319687 0.020032 0.947311
v 0.166078 0.082634 0.119530
vn 0.315911 -0.024398 0.948475
v 0.166078 -0.083348 0.119530
vn 0.314459 0.001861 0.949269
v -0.013651 0.020467 0.179272
vn -0.140899 0.191752 0.971277
v -0.013954 0.030070 0.179272
vn -0.048522 -0.252206 0.966456
v -0.013954 -0.030784 0.179272
vn 0.722178 -0.084082 0.686578
v 0.171638 -0.083348 0.116397
vn 0.774685 0.077800 0.627542
v 0.171638 0.082634 0.116397
vn 0.999878 -0.003229 0.015258
v 0.174772 -0.036242 0.009651
vn 0.999851 0.003389 0.016899
v 0.174772 0.035528 0.009651
vn 0.390758 -0.696813 -0.601465
v 0.142424 -0.004299 -0.098713
vn 0.389594 0.696290 -0.602824
v 0.142424 0.003585 -0.098713
vn 0.852717 -0.513360 -0.096624
v 0.154656 -0.116807 0.109927
vn 0.924594 -0.366800 -0.102877
v 0.171638 -0.083348 0.109927
vn 0.482158 -0.524130 0.702005
v 0.154656 -0.116807 0.116397
vn 0.194945 -0.058144 -0.979089
v 0.105023 -0.004299 -0.114078
vn 0.281897 0.379774 -0.881082
v 0.105023 0.003686 -0.114078
vn -0.398799 -0.024454 0.916712
v -0.149712 -0.083348 0.119530
vn -0.400749 0.030515 0.915680
v -0.149712 0.082634 0.119530
vn -0.999978 0.001477 -0.006521
v -0.158608 0.035528 -0.013296
vn -0.999837 0.010562 0.014618
v -0.158608 0.035528 0.009853
vn -0.999788 -0.018469 0.009096
v -0.158608 -0.036242 0.009853
vn -0.999972 -0.001645 -0.007262
v -0.158608 -0.036242 -0.013296
vn -0.053402 0.991112 0.121842
v -0.030128 0.187156 0.116397
vn 0.090046 0.988658 0.120198
v 0.046495 0.187156 0.116397
vn 0.027623 0.367280 0.929700
v 0.046495 0.181597 0.119530
vn -0.028905 0.370183 0.928509
v -0.030128 0.181597 0.119530
vn 0.923930 0.369235 -0.100094
v 0.171638 0.082634 0.109927
vn 0.849854 0.516926 -0.102644
v 0.154656 0.116093 0.109927
vn 0.522765 0.530824 0.667040
v 0.154656 0.116093 0.116397
vn 0.053505 -0.991165 0.121366
v 0.046495 -0.187870 0.116397
vn -0.028103 -0.373662 0.927139
v -0.030128 -0.182311 0.119530
vn 0.028397 -0.363674 0.931093
v 0.046495 -0.182311 0.119530
vn -0.089755 -0.988586 0.121003
v -0.030128 -0.187870 0.116397
vn -0.031102 -0.939605 -0.340845
v -0.030735 -0.188780 0.067674
vn 0.009821 -0.918568 -0.395140
v 0.046697 -0.188780 0.067674
vn 0.999388 -0.000667 0.034967
v 0.172750 -0.004299 0.113162
vn 0.999585 0.001315 0.028764
v 0.172750 0.003585 0.113162
vn -0.999614 -0.019094 0.020201
v -0.156586 -0.073240 0.113162
vn -0.999292 0.024345 0.028677
v -0.156586 0.072526 0.113162
vn -0.733476 -0.077847 0.675243
v -0.155272 -0.083348 0.116397
vn -0.850742 -0.522412 -0.057656
v -0.138289 -0.116807 0.109927
vn -0.498341 -0.514770 0.697616
v -0.138289 -0.116807 0.116397
vn -0.922375 -0.385074 -0.030706
v -0.155272 -0.083348 0.109927
# 127 vertices, 0 vertices normals

f 18//18 1//1 70//70
f 72//72 70//70 42//42
f 68//68 42//42 70//70
f 4//4 2//2 83//83
f 4//4 88//88 2//2
f 35//35 1//1 18//18
f 34//34 69//69 70//70
f 34//34 70//70 1//1
f 35//35 34//34 1//1
f 86//86 89//89 10//10
f 100//100 72//72 95//95
f 74//74 95//95 77//77
f 71//71 3//3 79//79
f 2//2 88//88 110//110
f 113//113 85//85 91//91
f 85//85 88//88 87//87
f 83//83 2//2 15//15
f 15//15 35//35 83//83
f 2//2 110//110 15//15
f 83//83 35//35 9//9
f 37//37 14//14 113//113
f 80//80 32//32 82//82
f 84//84 89//89 86//86
f 92//92 22//22 76//76
f 16//16 93//93 77//77
f 98//98 90//90 86//86
f 98//98 86//86 10//10
f 24//24 25//25 76//76
f 25//25 49//49 76//76
f 94//94 75//75 76//76
f 76//76 49//49 94//94
f 62//62 79//79 3//3
f 118//118 71//71 119//119
f 27//27 71//71 73//73
f 27//27 119//119 71//71
f 61//61 3//3 71//71
f 61//61 71//71 67//67
f 61//61 62//62 3//3
f 61//61 67//67 60//60
f 81//81 102//102 83//83
f 102//102 4//4 83//83
f 102//102 88//88 4//4
f 123//123 81//81 82//82
f 32//32 123//123 82//82
f 123//123 32//32 104//104
f 109//109 110//110 88//88
f 109//109 37//37 108//108
f 5//5 113//113 14//14
f 5//5 85//85 113//113
f 88//88 5//5 14//14
f 5//5 88//88 85//85
f 6//6 35//35 18//18
f 9//9 6//6 18//18
f 6//6 9//9 35//35
f 41//41 68//68 108//108
f 41//41 42//42 68//68
f 70//70 78//78 7//7
f 7//7 78//78 32//32
f 32//32 80//80 19//19
f 19//19 7//7 32//32
f 19//19 18//18 70//70
f 70//70 7//7 19//19
f 8//8 9//9 18//18
f 8//8 18//18 80//80
f 8//8 80//80 83//83
f 83//83 9//9 8//8
f 10//10 89//89 12//12
f 89//89 11//11 12//12
f 12//12 98//98 10//10
f 116//116 11//11 89//89
f 97//97 22//22 90//90
f 22//22 97//97 76//76
f 97//97 24//24 76//76
f 121//121 93//93 16//16
f 121//121 16//16 91//91
f 116//116 20//20 11//11
f 20//20 12//12 11//11
f 20//20 98//98 12//12
f 97//97 96//96 24//24
f 99//99 94//94 73//73
f 106//106 62//62 105//105
f 43//43 67//67 71//71
f 27//27 28//28 119//119
f 47//47 29//29 49//49
f 20//20 47//47 98//98
f 47//47 21//21 28//28
f 47//47 28//28 29//29
f 30//30 94//94 49//49
f 103//103 104//104 32//32
f 13//13 14//14 37//37
f 37//37 109//109 13//13
f 13//13 88//88 14//14
f 13//13 109//109 88//88
f 69//69 34//34 107//107
f 107//107 15//15 110//110
f 107//107 35//35 15//15
f 36//36 41//41 108//108
f 111//111 51//51 112//112
f 111//111 77//77 51//51
f 16//16 111//111 91//91
f 111//111 16//16 77//77
f 17//17 80//80 18//18
f 17//17 18//18 19//19
f 17//17 19//19 80//80
f 115//115 116//116 89//89
f 115//115 53//53 117//117
f 114//114 20//20 116//116
f 119//119 28//28 114//114
f 114//114 47//47 20//20
f 114//114 28//28 21//21
f 21//21 47//47 114//114
f 92//92 120//120 22//22
f 120//120 90//90 22//22
f 96//96 23//23 24//24
f 23//23 96//96 49//49
f 23//23 25//25 24//24
f 49//49 25//25 23//23
f 44//44 118//118 117//117
f 45//45 44//44 117//117
f 44//44 71//71 118//118
f 44//44 43//43 71//71
f 26//26 27//27 73//73
f 26//26 28//28 27//27
f 29//29 28//28 26//26
f 73//73 94//94 26//26
f 26//26 94//94 30//30
f 49//49 29//29 26//26
f 26//26 30//30 49//49
f 48//48 47//47 49//49
f 101//101 55//55 89//89
f 105//105 62//62 122//122
f 106//106 103//103 31//31
f 62//62 106//106 31//31
f 31//31 103//103 32//32
f 31//31 78//78 79//79
f 78//78 31//31 32//32
f 79//79 62//62 31//31
f 33//33 34//34 35//35
f 107//107 33//33 35//35
f 33//33 107//107 34//34
f 52//52 51//51 77//77
f 36//36 58//58 41//41
f 58//58 40//40 41//41
f 37//37 58//58 108//108
f 58//58 36//36 108//108
f 58//58 37//37 113//113
f 40//40 58//58 57//57
f 57//57 52//52 77//77
f 57//57 77//77 95//95
f 39//39 57//57 95//95
f 38//38 39//39 95//95
f 72//72 38//38 95//95
f 38//38 57//57 39//39
f 40//40 57//57 38//38
f 41//41 40//40 38//38
f 38//38 72//72 42//42
f 42//42 41//41 38//38
f 54//54 115//115 89//89
f 54//54 53//53 115//115
f 55//55 54//54 89//89
f 67//67 43//43 64//64
f 64//64 44//44 45//45
f 43//43 44//44 64//64
f 64//64 45//45 117//117
f 64//64 117//117 53//53
f 98//98 47//47 46//46
f 47//47 48//48 46//46
f 46//46 96//96 98//98
f 96//96 46//46 49//49
f 46//46 48//48 49//49
f 127//127 122//122 62//62
f 113//113 112//112 59//59
f 112//112 57//57 59//59
f 59//59 58//58 113//113
f 50//50 112//112 51//51
f 50//50 57//57 112//112
f 51//51 52//52 50//50
f 57//57 50//50 52//52
f 126//126 64//64 53//53
f 53//53 54//54 126//126
f 126//126 54//54 55//55
f 126//126 55//55 101//101
f 56//56 57//57 58//58
f 56//56 58//58 59//59
f 56//56 59//59 57//57
f 66//66 64//64 126//126
f 60//60 67//67 125//125
f 125//125 61//61 60//60
f 62//62 61//61 125//125
f 125//125 127//127 62//62
f 124//124 126//126 101//101
f 122//122 127//127 124//124
f 67//67 64//64 63//63
f 63//63 66//66 67//67
f 66//66 63//63 64//64
f 125//125 65//65 126//126
f 65//65 66//66 126//126
f 67//67 66//66 65//65
f 65//65 125//125 67//67
f 69//69 68//68 70//70
f 71//71 72//72 73//73
f 71//71 70//70 72//72
f 76//76 75//75 74//74
f 74//74 77//77 76//76
f 71//71 78//78 70//70
f 78//78 71//71 79//79
f 80//80 82//82 81//81
f 80//80 81//81 83//83
f 86//86 85//85 84//84
f 84//84 85//85 87//87
f 88//88 84//84 87//87
f 84//84 88//88 89//89
f 90//90 85//85 86//86
f 91//91 85//85 90//90
f 92//92 76//76 77//77
f 92//92 77//77 93//93
f 94//94 74//74 75//75
f 94//94 95//95 74//74
f 96//96 97//97 90//90
f 90//90 98//98 96//96
f 73//73 72//72 99//99
f 72//72 100//100 99//99
f 94//94 99//99 95//95
f 99//99 100//100 95//95
f 101//101 89//89 88//88
f 102//102 101//101 88//88
f 104//104 103//103 105//105
f 103//103 106//106 105//105
f 108//108 68//68 107//107
f 107//107 68//68 69//69
f 107//107 109//109 108//108
f 110//110 109//109 107//107
f 111//111 112//112 113//113
f 111//111 113//113 91//91
f 116//116 115//115 114//114
f 114//114 115//115 117//117
f 118//118 114//114 117//117
f 114//114 118//118 119//119
f 120//120 92//92 93//93
f 93//93 121//121 120//120
f 91//91 90//90 120//120
f 120//120 121//121 91//91
f 122//122 104//104 105//105
f 122//122 123//123 104//104
f 124//124 125//125 126//126
f 127//127 125//125 124//124
f 124//124 101//101 102//102
f 124//124 102//102 81//81
f 123//123 122//122 124//124
f 81//81 123//123 124//124
# 250 faces, 0 coords texture

# End of File