####
#
# OBJ File Generated by Meshlab
#
####
# Object r_clav_chull.obj
#
# Vertices: 52
# Faces: 100
#
####
vn 0.002842 -0.075136 -0.997169
v -0.009805 -0.003304 0.077045
vn 0.321457 -0.505359 -0.800798
v -0.010361 -0.001947 0.076636
vn -0.019545 -0.095467 -0.995241
v 0.007126 -0.003455 0.076980
vn -0.682286 -0.721003 -0.120995
v 0.030454 0.023099 0.015427
vn -0.396286 -0.748464 -0.531751
v 0.013686 0.006488 0.066062
vn 0.320843 -0.777401 -0.541025
v -0.016437 0.007043 0.066382
vn -0.290025 -0.554690 -0.779874
v 0.007673 -0.002108 0.076566
vn 0.645778 -0.760134 0.071881
v -0.031910 0.023099 0.015427
vn 0.434789 -0.812614 -0.388094
v -0.016437 0.033121 0.021213
vn -0.323702 -0.942524 -0.082862
v 0.013686 0.032566 0.020893
vn 0.525980 -0.436529 0.729923
v -0.043190 -0.006854 -0.001441
vn -0.333853 -0.475824 0.813716
v 0.041498 -0.006849 -0.001767
vn -0.303211 -0.250367 0.919445
v 0.041498 -0.036165 -0.018510
vn 0.001425 -0.330854 0.943681
v -0.015166 -0.036044 -0.018719
vn 0.267964 -0.278970 0.922156
v -0.043000 -0.036120 -0.018583
vn -0.001754 0.042829 0.999081
v 0.015107 -0.036045 -0.018719
vn 0.214087 -0.560987 0.799662
v -0.041469 0.008475 0.006984
vn -0.212383 -0.560643 0.800358
v 0.040014 0.008474 0.006983
vn 0.247816 0.966932 -0.060247
v -0.077206 -0.120289 0.036575
vn -0.083354 0.929230 -0.359978
v 0.075285 -0.117181 0.053202
vn -0.052341 0.996696 0.062102
v 0.075285 -0.120289 0.036575
vn 0.435461 0.839421 -0.325186
v -0.077206 -0.117181 0.053202
vn 0.268944 0.711780 -0.648875
v -0.077206 -0.108276 0.067584
vn -0.264248 0.712740 -0.649750
v 0.075285 -0.108276 0.067584
vn -0.188767 0.437706 -0.879080
v 0.075285 -0.094778 0.077777
vn 0.513570 0.382448 -0.768101
v -0.077206 -0.094778 0.077777
vn 0.171678 0.027413 -0.984772
v -0.077206 -0.078508 0.082406
vn -0.150136 -0.018998 -0.988483
v 0.075285 -0.078508 0.082406
vn 0.135731 0.923849 0.357883
v -0.077206 -0.117181 0.019948
vn -0.020376 0.932285 0.361151
v 0.075285 -0.117181 0.019948
vn -0.013561 0.389153 0.921073
v 0.075285 -0.094778 -0.004627
vn 0.052347 0.499847 0.864530
v -0.077206 -0.094778 -0.004627
vn 0.022322 0.224934 0.974118
v -0.077206 -0.078508 -0.009256
vn -0.057674 0.213873 0.975157
v 0.075285 -0.078508 -0.009256
vn -0.788686 0.454343 0.414182
v 0.075285 -0.108277 0.005567
vn -0.941482 -0.286580 0.177434
v 0.075285 -0.035127 0.012344
vn -0.771670 -0.350325 0.530846
v 0.075285 -0.046523 -0.000156
vn -0.946094 -0.318380 -0.059505
v 0.075285 -0.029017 0.045033
vn -0.753418 -0.565021 -0.336323
v 0.075285 -0.035127 0.060805
vn -0.811033 -0.355582 -0.464528
v 0.075285 -0.046523 0.073306
vn -0.807183 -0.160031 -0.568195
v 0.075285 -0.061665 0.080846
vn -0.929830 -0.360453 0.074088
v 0.075285 -0.029017 0.028117
vn -0.785542 -0.169331 0.595189
v 0.075285 -0.061665 -0.007695
vn 0.165014 0.728883 0.664454
v -0.077206 -0.108277 0.005567
vn 0.996516 -0.022825 0.080219
v -0.077206 -0.061665 -0.007695
vn 0.888212 -0.451615 -0.084407
v -0.077206 -0.029017 0.045033
vn 0.709096 -0.610210 -0.353307
v -0.077206 -0.035127 0.060805
vn 0.823665 -0.482137 0.298529
v -0.077206 -0.035127 0.012344
vn 0.599389 -0.441803 0.667490
v -0.077206 -0.046523 -0.000155
vn 0.810448 -0.158618 -0.563927
v -0.077206 -0.061665 0.080846
vn 0.772662 -0.380449 -0.508186
v -0.077206 -0.046523 0.073306
vn 0.854109 -0.509130 0.106230
v -0.077206 -0.029017 0.028117
# 52 vertices, 0 vertices normals

f 27//27 1//1 28//28
f 1//1 27//27 50//50
f 9//9 6//6 47//47
f 3//3 28//28 1//1
f 2//2 6//6 7//7
f 3//3 2//2 7//7
f 2//2 3//3 1//1
f 2//2 1//1 50//50
f 38//38 4//4 42//42
f 39//39 4//4 38//38
f 10//10 6//6 9//9
f 10//10 4//4 39//39
f 51//51 47//47 6//6
f 51//51 2//2 50//50
f 2//2 51//51 6//6
f 7//7 40//40 41//41
f 3//3 41//41 28//28
f 41//41 3//3 7//7
f 48//48 17//17 52//52
f 49//49 17//17 48//48
f 18//18 37//37 36//36
f 18//18 36//36 42//42
f 4//4 18//18 42//42
f 10//10 18//18 4//4
f 18//18 10//10 17//17
f 34//34 43//43 13//13
f 43//43 37//37 13//13
f 6//6 5//5 7//7
f 5//5 6//6 10//10
f 5//5 10//10 39//39
f 5//5 39//39 40//40
f 5//5 40//40 7//7
f 8//8 47//47 46//46
f 9//9 47//47 8//8
f 8//8 10//10 9//9
f 8//8 17//17 10//10
f 8//8 46//46 52//52
f 17//17 8//8 52//52
f 33//33 15//15 45//45
f 45//45 15//15 49//49
f 11//11 17//17 49//49
f 11//11 49//49 15//15
f 11//11 15//15 17//17
f 16//16 33//33 34//34
f 16//16 34//34 13//13
f 13//13 37//37 12//12
f 37//37 18//18 12//12
f 12//12 16//16 13//13
f 16//16 12//12 18//18
f 14//14 15//15 33//33
f 14//14 33//33 16//16
f 17//17 15//15 14//14
f 14//14 18//18 17//17
f 14//14 16//16 18//18
f 19//19 20//20 21//21
f 22//22 20//20 19//19
f 23//23 24//24 20//20
f 23//23 20//20 22//22
f 25//25 23//23 26//26
f 24//24 23//23 25//25
f 28//28 25//25 27//27
f 27//27 25//25 26//26
f 30//30 29//29 21//21
f 29//29 19//19 21//21
f 31//31 33//33 32//32
f 31//31 34//34 33//33
f 35//35 36//36 37//37
f 24//24 25//25 35//35
f 35//35 20//20 24//24
f 21//21 20//20 35//35
f 35//35 30//30 21//21
f 39//39 38//38 35//35
f 35//35 25//25 28//28
f 35//35 40//40 39//39
f 34//34 31//31 35//35
f 35//35 41//41 40//40
f 35//35 38//38 42//42
f 37//37 43//43 35//35
f 41//41 35//35 28//28
f 42//42 36//36 35//35
f 35//35 43//43 34//34
f 35//35 44//44 29//29
f 35//35 29//29 30//30
f 35//35 32//32 44//44
f 35//35 31//31 32//32
f 45//45 27//27 26//26
f 19//19 29//29 45//45
f 26//26 23//23 45//45
f 44//44 32//32 45//45
f 45//45 46//46 47//47
f 22//22 19//19 45//45
f 49//49 48//48 45//45
f 45//45 23//23 22//22
f 27//27 45//45 50//50
f 45//45 32//32 33//33
f 45//45 29//29 44//44
f 47//47 51//51 45//45
f 45//45 51//51 50//50
f 52//52 46//46 45//45
f 45//45 48//48 52//52
# 100 faces, 0 coords texture

# End of File