####
#
# OBJ File Generated by Meshlab
#
####
# Object r_elbow_rx_chull.obj
#
# Vertices: 27
# Faces: 50
#
####
vn 0.048683 0.609251 -5.946115
v 0.000664 -0.127438 0.037256
vn 2.593640 -3.248181 -0.113782
v -0.061503 0.028527 0.000373
vn -2.670873 2.080183 1.309935
v 0.055172 -0.181411 -0.029753
vn 2.724955 2.572753 2.396743
v -0.037382 -0.182171 -0.035167
vn 0.303107 -0.155041 -6.230207
v 0.000664 -0.065109 0.037256
vn 2.922819 -0.827897 -3.562985
v -0.061503 0.001366 0.027534
vn 2.738882 -2.772133 2.408348
v -0.061503 0.020593 -0.018855
vn 2.482663 -2.286650 -2.247864
v -0.061503 0.020593 0.019600
vn 2.015462 3.153106 -2.195470
v -0.028429 -0.187637 0.017519
vn 0.035777 2.870880 2.984534
v 0.000664 -0.187694 -0.047589
vn 2.971360 3.753667 -0.186340
v -0.037849 -0.187694 -0.009134
vn -1.890729 3.323468 -2.333683
v 0.027856 -0.187694 0.018171
vn 0.003037 2.863758 -2.990216
v 0.000664 -0.187694 0.029464
vn -1.260529 5.844552 0.609135
v 0.038275 -0.187609 -0.024394
vn -4.071915 0.756401 -2.760877
v 0.066548 -0.103254 0.019091
vn -3.838983 0.244069 2.947762
v 0.066954 -0.088682 -0.038571
vn -2.578338 -3.040488 -0.561108
v 0.066798 0.034661 0.000374
vn -2.000504 -2.402884 1.306629
v 0.066874 0.033921 -0.027946
vn 3.785218 0.451915 2.769359
v -0.066456 -0.090055 -0.037868
vn 0.009172 0.516074 5.894980
v 0.000664 -0.127509 -0.055452
vn 0.105368 -0.521906 5.963316
v 0.000664 -0.065038 -0.055452
vn 3.901569 0.667586 -2.733829
v -0.066456 -0.089983 0.020530
vn 3.259926 -1.045224 2.791936
v -0.066499 -0.007309 -0.031689
vn 6.190018 -0.224559 -0.694901
v -0.066448 -0.029102 0.011414
vn -2.357069 -1.342551 3.125284
v 0.065944 0.024496 -0.035294
vn -2.230377 -2.036043 -2.021460
v 0.066871 0.024889 0.023896
vn -2.669060 -0.620177 -2.991280
v 0.066843 0.002413 0.033441
# 27 vertices, 0 vertices normals

f 27//27 13//13 1//1
f 15//15 12//12 13//13
f 27//27 15//15 13//13
f 22//22 9//9 11//11
f 22//22 6//6 1//1
f 22//22 1//1 13//13
f 13//13 9//9 22//22
f 2//2 8//8 23//23
f 16//16 25//25 21//21
f 20//20 16//16 21//21
f 20//20 4//4 10//10
f 11//11 10//10 4//4
f 6//6 5//5 1//1
f 5//5 27//27 1//1
f 24//24 8//8 6//6
f 23//23 8//8 24//24
f 2//2 18//18 17//17
f 17//17 8//8 2//2
f 7//7 2//2 23//23
f 7//7 18//18 2//2
f 14//14 3//3 10//10
f 20//20 3//3 16//16
f 3//3 20//20 10//10
f 14//14 12//12 3//3
f 12//12 15//15 3//3
f 16//16 3//3 15//15
f 19//19 4//4 20//20
f 19//19 22//22 11//11
f 4//4 19//19 11//11
f 27//27 5//5 6//6
f 8//8 27//27 6//6
f 6//6 22//22 24//24
f 25//25 18//18 7//7
f 25//25 7//7 23//23
f 25//25 23//23 21//21
f 26//26 27//27 8//8
f 17//17 26//26 8//8
f 9//9 10//10 11//11
f 13//13 12//12 9//9
f 9//9 12//12 14//14
f 10//10 9//9 14//14
f 18//18 16//16 15//15
f 25//25 16//16 18//18
f 18//18 15//15 27//27
f 27//27 26//26 18//18
f 18//18 26//26 17//17
f 19//19 20//20 21//21
f 19//19 21//21 23//23
f 22//22 19//19 24//24
f 24//24 19//19 23//23
# 50 faces, 0 coords texture

# End of File