####
#
# OBJ File Generated by Meshlab
#
####
# Object r_farm_chull.obj
#
# Vertices: 34
# Faces: 64
#
####
vn 0.975840 -0.218432 -0.004767
v 0.035012 -0.058732 -0.001300
vn -0.979033 -0.203655 -0.004444
v -0.033047 -0.058732 -0.001300
vn 0.294401 -0.184179 -0.937766
v 0.025462 -0.066190 -0.034814
vn 0.482894 -0.509370 -0.712289
v 0.025462 -0.078564 -0.030002
vn -0.717779 -0.361616 -0.595001
v -0.025010 -0.078564 -0.030002
vn -0.320069 -0.161101 -0.933597
v -0.025010 -0.066190 -0.034814
vn -0.070499 0.982886 0.170191
v -0.016577 0.000169 0.041090
vn -0.867915 0.360140 -0.342086
v -0.041408 0.000169 -0.018859
vn -0.525949 0.668415 -0.525928
v -0.031461 0.000169 -0.033745
vn 0.841933 0.451712 -0.295136
v 0.043373 0.000169 -0.018859
vn 0.440270 0.782512 -0.440270
v 0.033426 0.000169 -0.033745
vn 0.380297 0.111643 0.918101
v 0.018541 0.000169 0.041090
vn 0.668917 0.324248 0.668890
v 0.033426 0.000169 0.031143
vn -0.256724 0.741578 -0.619802
v -0.016577 0.000169 -0.043691
vn 0.877038 0.332959 0.346328
v 0.043373 0.000169 0.016257
vn 0.233405 0.792443 -0.563522
v 0.018541 0.000169 -0.043691
vn -0.998914 -0.046548 -0.001934
v -0.044900 0.000169 -0.001300
vn 0.000000 0.363699 -0.931516
v 0.000982 0.000169 -0.047183
vn 0.987238 0.157265 0.025070
v 0.046865 0.000169 -0.001301
vn 0.000000 -0.133958 0.990987
v 0.000982 0.000169 0.044582
vn -0.931976 0.013831 0.362256
v -0.041408 0.000169 0.016257
vn -0.707115 -0.007646 0.707058
v -0.031461 0.000169 0.031143
vn -0.620598 -0.659882 0.423573
v -0.025010 -0.088981 0.016983
vn 0.645039 -0.451859 0.616237
v 0.025462 -0.079799 0.026575
vn -0.809541 -0.348911 0.472127
v -0.025010 -0.079799 0.026575
vn 0.786505 -0.506158 0.353856
v 0.025462 -0.088981 0.016983
vn 0.306308 -0.937474 0.165280
v 0.025462 -0.093793 0.004608
vn -0.519308 -0.841607 0.148378
v -0.025010 -0.093793 0.004608
vn -0.708473 -0.557007 -0.433370
v -0.025010 -0.088156 -0.020820
vn 0.792672 -0.498320 -0.351210
v 0.025462 -0.088156 -0.020820
vn -0.299698 -0.186416 0.935644
v -0.025010 -0.067646 0.031923
vn 0.322958 -0.172298 0.930597
v 0.025462 -0.067646 0.031923
vn -0.310051 -0.928186 -0.205765
v -0.025010 -0.093503 -0.008666
vn 0.509511 -0.840070 -0.186231
v 0.025462 -0.093503 -0.008666
# 34 vertices, 0 vertices normals

f 8//8 5//5 17//17
f 1//1 19//19 26//26
f 1//1 26//26 27//27
f 15//15 13//13 32//32
f 20//20 32//32 12//12
f 13//13 12//12 32//32
f 6//6 8//8 9//9
f 6//6 5//5 8//8
f 6//6 9//9 14//14
f 6//6 14//14 18//18
f 3//3 11//11 10//10
f 3//3 10//10 4//4
f 3//3 16//16 11//11
f 3//3 18//18 16//16
f 3//3 6//6 18//18
f 30//30 19//19 1//1
f 30//30 10//10 19//19
f 4//4 10//10 30//30
f 24//24 19//19 15//15
f 24//24 26//26 19//19
f 24//24 15//15 32//32
f 17//17 25//25 21//21
f 23//23 25//25 17//17
f 34//34 1//1 27//27
f 34//34 30//30 1//1
f 29//29 17//17 5//5
f 31//31 22//22 21//21
f 31//31 21//21 25//25
f 31//31 7//7 22//22
f 7//7 31//31 20//20
f 31//31 32//32 20//20
f 28//28 23//23 2//2
f 2//2 23//23 17//17
f 17//17 29//29 2//2
f 28//28 2//2 33//33
f 33//33 2//2 29//29
f 3//3 4//4 5//5
f 6//6 3//3 5//5
f 8//8 7//7 9//9
f 7//7 10//10 11//11
f 7//7 12//12 13//13
f 7//7 14//14 9//9
f 13//13 15//15 7//7
f 11//11 16//16 7//7
f 7//7 8//8 17//17
f 18//18 14//14 7//7
f 19//19 10//10 7//7
f 7//7 16//16 18//18
f 7//7 15//15 19//19
f 20//20 12//12 7//7
f 7//7 21//21 22//22
f 17//17 21//21 7//7
f 23//23 24//24 25//25
f 24//24 23//23 26//26
f 26//26 23//23 27//27
f 23//23 28//28 27//27
f 29//29 5//5 4//4
f 4//4 30//30 29//29
f 31//31 25//25 24//24
f 31//31 24//24 32//32
f 27//27 28//28 33//33
f 33//33 34//34 27//27
f 33//33 29//29 30//30
f 30//30 34//34 33//33
# 64 faces, 0 coords texture

# End of File