####
#
# OBJ File Generated by Meshlab
#
####
# Object r_foot_chull.obj
#
# Vertices: 70
# Faces: 136
#
####
vn 0.474681 0.603282 -0.640881
v -0.029076 -0.008493 0.004136
vn -0.451725 0.000423 -0.892157
v 0.029179 -0.000397 0.007771
vn 0.595417 -0.484919 -0.640572
v -0.028649 0.009146 0.004308
vn 0.801876 -0.002600 -0.597485
v -0.033149 0.000202 0.004224
vn 0.204571 0.007694 -0.978822
v -0.023397 0.000637 0.010141
vn 0.518864 -0.004209 -0.854847
v -0.029718 0.000393 0.007771
vn 0.226681 -0.739438 -0.633914
v -0.026274 0.007238 0.007836
vn 0.130469 0.737945 -0.662129
v -0.026601 -0.006263 0.007704
vn 0.003587 0.806297 -0.591500
v 0.017349 -0.007622 0.007858
vn 0.026831 0.799756 -0.599725
v -0.017896 -0.006885 0.007672
vn 0.000000 0.819067 -0.573698
v 0.000514 -0.037351 -0.033960
vn -0.233624 0.660801 -0.713275
v 0.025735 -0.007242 0.007836
vn 0.027959 0.392912 -0.919151
v -0.017895 -0.003512 0.009633
vn 0.008943 0.069136 -0.997567
v -0.017893 0.000428 0.010517
vn -0.008261 0.309216 -0.950956
v 0.017351 -0.004340 0.009734
vn -0.027960 -0.392909 -0.919152
v 0.017356 0.003508 0.009633
vn -0.026558 -0.789352 -0.613366
v 0.017358 0.006881 0.007672
vn -0.230386 -0.653540 -0.720977
v 0.026061 0.006259 0.007704
vn -0.008943 -0.069134 -0.997567
v 0.017353 -0.000432 0.010517
vn 0.008261 -0.309216 -0.950956
v -0.017889 0.004336 0.009734
vn -0.002384 -0.806545 -0.591169
v -0.017887 0.007618 0.007858
vn -0.204573 -0.007714 -0.978821
v 0.022859 -0.000641 0.010141
vn -0.217331 0.760247 -0.612202
v 0.169727 -0.037793 -0.069989
vn -0.100084 0.138853 0.985243
v 0.175095 -0.035252 -0.080360
vn -0.398489 0.486738 -0.777362
v 0.175095 -0.035252 -0.070032
vn -0.038024 0.110555 0.993142
v 0.169727 -0.037793 -0.080403
vn 0.304022 -0.804366 -0.510456
v -0.060433 0.058298 -0.069272
vn 0.353553 -0.935414 0.000026
v -0.060433 0.058298 -0.081120
vn 0.003646 -0.006135 0.999975
v -0.066266 0.056093 -0.081120
vn 0.475066 -0.690908 -0.544938
v -0.066266 0.056093 -0.069272
vn 0.830329 -0.010045 0.557183
v -0.082460 0.031812 -0.081119
vn 0.599850 0.013299 0.800002
v -0.082460 -0.030753 -0.081119
vn 0.888273 0.009543 -0.459217
v -0.082460 -0.030753 -0.069272
vn 0.864128 -0.010454 -0.503163
v -0.082460 0.031812 -0.069272
vn 0.830490 -0.234003 -0.505499
v -0.081627 0.038103 -0.069272
vn 0.738418 -0.208061 0.641444
v -0.081627 0.038103 -0.081119
vn -0.100444 0.854332 -0.509930
v 0.080193 -0.061646 -0.069272
vn 0.026642 0.851972 -0.522910
v -0.048767 -0.061646 -0.069272
vn 0.003233 0.197755 0.980246
v -0.048767 -0.061646 -0.081119
vn -0.008332 0.058037 0.998280
v 0.080193 -0.061646 -0.081119
vn 0.305338 0.807847 -0.504134
v -0.054600 -0.059442 -0.069272
vn 0.040039 0.105932 0.993567
v -0.054600 -0.059442 -0.081119
vn 0.122745 0.206963 0.970618
v -0.066266 -0.055032 -0.081119
vn 0.419461 0.707265 -0.569059
v -0.066266 -0.055032 -0.069272
vn -0.080959 -0.264122 0.961085
v 0.169727 0.038853 -0.080403
vn -0.092102 -0.107333 0.989948
v 0.175095 0.036311 -0.080360
vn -0.402162 -0.505374 -0.763455
v 0.175095 0.036311 -0.070032
vn -0.213646 -0.750104 -0.625859
v 0.169727 0.038853 -0.069989
vn -0.011483 -0.069668 0.997504
v 0.080193 0.062707 -0.081120
vn -0.084119 -0.841595 -0.533519
v 0.080193 0.062707 -0.069272
vn -0.589918 -0.250161 0.767735
v 0.178316 0.032120 -0.080334
vn -0.448272 -0.200295 -0.871169
v 0.178316 0.032120 -0.070058
vn -0.546516 -0.010122 -0.837387
v 0.179390 0.026279 -0.070066
vn -0.978684 -0.018299 0.204555
v 0.179390 0.026279 -0.080325
vn -0.998728 0.009851 0.049452
v 0.179390 -0.025219 -0.080325
vn -0.509169 0.010404 -0.860603
v 0.179390 -0.025219 -0.070066
vn 0.030359 -0.968321 0.247857
v -0.048767 0.062707 -0.081120
vn 0.027139 -0.844782 -0.534422
v -0.048767 0.062707 -0.069272
vn 0.843913 -0.487749 0.223408
v -0.079127 0.043641 -0.081119
vn 0.695402 -0.411204 -0.589345
v -0.079127 0.043641 -0.069272
vn 0.592137 0.611635 -0.524668
v -0.074960 -0.047367 -0.069272
vn 0.101430 0.104770 0.989310
v -0.074960 -0.047367 -0.081119
vn 0.290339 0.187494 0.938376
v -0.079127 -0.042581 -0.081119
vn 0.692398 0.398285 -0.601626
v -0.079127 -0.042581 -0.069272
vn 0.831146 0.234208 -0.504325
v -0.081627 -0.037043 -0.069272
vn 0.273068 0.076948 0.958912
v -0.081627 -0.037043 -0.081119
vn -0.350103 0.146814 0.925134
v 0.178316 -0.031060 -0.080334
vn -0.449886 0.200195 -0.870359
v 0.178316 -0.031060 -0.070058
vn 0.695411 -0.718252 0.022750
v -0.074960 0.048426 -0.081119
vn 0.567860 -0.586513 -0.577527
v -0.074960 0.048426 -0.069272
# 70 vertices, 0 vertices normals

f 39//39 40//40 29//29
f 49//49 29//29 40//40
f 21//21 58//58 50//50
f 21//21 7//7 58//58
f 29//29 43//43 42//42
f 42//42 39//39 29//29
f 26//26 49//49 40//40
f 23//23 12//12 25//25
f 4//4 34//34 35//35
f 4//4 35//35 60//60
f 33//33 34//34 4//4
f 27//27 7//7 30//30
f 27//27 58//58 7//7
f 20//20 7//7 21//21
f 62//62 43//43 29//29
f 63//63 62//62 29//29
f 66//66 29//29 32//32
f 66//66 63//63 29//29
f 64//64 4//4 1//1
f 31//31 32//32 29//29
f 31//31 29//29 36//36
f 12//12 23//23 37//37
f 41//41 44//44 1//1
f 1//1 38//38 41//41
f 45//45 49//49 26//26
f 15//15 13//13 14//14
f 22//22 12//12 15//15
f 12//12 68//68 25//25
f 59//59 36//36 29//29
f 6//6 4//4 7//7
f 61//61 1//1 44//44
f 61//61 64//64 1//1
f 33//33 4//4 65//65
f 4//4 64//64 65//65
f 11//11 37//37 38//38
f 8//8 13//13 10//10
f 8//8 38//38 1//1
f 8//8 10//10 38//38
f 8//8 1//1 4//4
f 4//4 6//6 8//8
f 18//18 47//47 52//52
f 18//18 48//48 47//47
f 18//18 50//50 48//48
f 22//22 2//2 12//12
f 2//2 68//68 12//12
f 56//56 68//68 2//2
f 53//53 56//56 2//2
f 2//2 52//52 53//53
f 2//2 18//18 52//52
f 2//2 22//22 18//18
f 3//3 60//60 70//70
f 3//3 7//7 4//4
f 3//3 4//4 60//60
f 7//7 3//3 30//30
f 3//3 70//70 30//30
f 69//69 59//59 29//29
f 5//5 6//6 7//7
f 5//5 20//20 14//14
f 5//5 7//7 20//20
f 5//5 8//8 6//6
f 13//13 5//5 14//14
f 8//8 5//5 13//13
f 38//38 10//10 9//9
f 9//9 11//11 38//38
f 9//9 15//15 12//12
f 12//12 37//37 9//9
f 9//9 37//37 11//11
f 9//9 10//10 13//13
f 13//13 15//15 9//9
f 17//17 21//21 50//50
f 17//17 50//50 18//18
f 20//20 19//19 14//14
f 19//19 15//15 14//14
f 19//19 22//22 15//15
f 16//16 17//17 18//18
f 16//16 19//19 20//20
f 16//16 20//20 21//21
f 17//17 16//16 21//21
f 16//16 18//18 22//22
f 22//22 19//19 16//16
f 23//23 25//25 24//24
f 26//26 23//23 24//24
f 28//28 27//27 29//29
f 27//27 30//30 29//29
f 32//32 31//31 33//33
f 31//31 34//34 33//33
f 31//31 35//35 34//34
f 31//31 36//36 35//35
f 37//37 39//39 38//38
f 37//37 40//40 39//39
f 37//37 23//23 26//26
f 37//37 26//26 40//40
f 41//41 42//42 43//43
f 43//43 44//44 41//41
f 41//41 38//38 39//39
f 41//41 39//39 42//42
f 45//45 26//26 24//24
f 45//45 24//24 46//46
f 46//46 47//47 45//45
f 45//45 47//47 48//48
f 49//49 45//45 50//50
f 45//45 48//48 50//50
f 51//51 47//47 46//46
f 52//52 47//47 51//51
f 51//51 53//53 52//52
f 51//51 54//54 53//53
f 54//54 55//55 53//53
f 55//55 56//56 53//53
f 57//57 49//49 50//50
f 57//57 50//50 58//58
f 57//57 28//28 29//29
f 29//29 49//49 57//57
f 57//57 27//27 28//28
f 58//58 27//27 57//57
f 35//35 36//36 59//59
f 59//59 60//60 35//35
f 61//61 44//44 43//43
f 62//62 61//61 43//43
f 61//61 62//62 63//63
f 61//61 63//63 64//64
f 65//65 32//32 33//33
f 65//65 66//66 32//32
f 65//65 64//64 63//63
f 66//66 65//65 63//63
f 67//67 46//46 24//24
f 67//67 51//51 46//46
f 54//54 51//51 67//67
f 67//67 55//55 54//54
f 67//67 24//24 25//25
f 67//67 25//25 68//68
f 56//56 55//55 67//67
f 67//67 68//68 56//56
f 69//69 29//29 30//30
f 30//30 70//70 69//69
f 60//60 59//59 69//69
f 69//69 70//70 60//60
# 136 faces, 0 coords texture

# End of File