####
#
# OBJ File Generated by Meshlab
#
####
# Object r_hand_chull.obj
#
# Vertices: 49
# Faces: 94
#
####
vn 0.000000 0.205919 0.978569
v -0.000780 -0.080258 -0.035881
vn -0.184061 -0.025609 0.982581
v 0.044433 -0.002647 -0.035881
vn 0.175629 -0.003587 0.984450
v -0.046652 -0.002647 -0.035881
vn 0.335744 -0.874386 -0.350320
v -0.046652 0.030556 0.013811
vn -0.057685 -0.998335 0.000000
v 0.044433 0.033292 0.000058
vn -0.027031 -0.915802 -0.400719
v 0.044433 0.030556 0.013811
vn 0.604620 -0.796514 0.000000
v -0.046652 0.033292 0.000058
vn 0.319163 -0.362657 0.875565
v -0.046652 0.011107 -0.033145
vn -0.478921 -0.335931 0.811040
v 0.044433 0.011107 -0.033145
vn -0.193546 -0.693754 0.693718
v 0.044433 0.022766 -0.025355
vn 0.604625 -0.563232 0.563203
v -0.046652 0.022766 -0.025355
vn -0.018630 -0.337773 -0.941043
v 0.044433 0.011107 0.033261
vn 0.272755 -0.417078 -0.866978
v -0.046652 0.011107 0.033261
vn 0.089587 -0.025604 -0.995650
v -0.046652 -0.002647 0.035997
vn -0.068724 -0.004005 -0.997628
v 0.044433 -0.002647 0.035997
vn 0.367021 -0.859409 0.355965
v -0.046652 0.030556 -0.013695
vn -0.236639 -0.897644 0.371802
v 0.044433 0.030556 -0.013695
vn -0.997561 -0.049354 -0.049351
v 0.044433 0.022766 0.025470
vn -0.987725 0.116657 0.103881
v 0.044433 -0.028059 -0.025355
vn -0.996115 0.081356 0.033698
v 0.044433 -0.035849 -0.013695
vn -0.878601 0.175329 0.444207
v 0.044433 -0.016399 -0.033145
vn -0.995973 0.089655 0.000000
v 0.044433 -0.038585 0.000058
vn -0.762302 0.237629 -0.602020
v 0.044433 -0.016399 0.033261
vn -0.975898 0.162977 -0.145129
v 0.044433 -0.028059 0.025470
vn -0.994163 0.099676 -0.041287
v 0.044433 -0.035849 0.013811
vn 0.999528 0.028377 -0.011754
v -0.046652 -0.035849 0.013811
vn 0.573574 -0.579244 -0.579214
v -0.046652 0.022766 0.025471
vn 0.707676 0.263475 -0.655573
v -0.046652 -0.016399 0.033261
vn 0.935085 0.266782 -0.233331
v -0.046652 -0.028059 0.025471
vn 0.977740 0.193849 0.080292
v -0.046652 -0.035849 -0.013695
vn 0.963433 0.201691 0.176402
v -0.046652 -0.028059 -0.025355
vn 0.804764 0.221353 0.550779
v -0.046652 -0.016399 -0.033145
vn 0.975882 0.218298 0.000000
v -0.046652 -0.038585 0.000058
vn -0.143996 0.979047 -0.143988
v 0.024633 -0.080258 0.025470
vn -0.772428 0.531425 0.347767
v 0.032423 -0.080258 -0.013695
vn -0.946952 0.321376 -0.000000
v 0.035159 -0.080258 0.000058
vn -0.292586 0.602589 0.742483
v 0.012974 -0.080258 -0.033145
vn -0.358105 0.214611 -0.908682
v 0.012974 -0.080258 0.033261
vn 0.000000 0.058437 -0.998291
v -0.000780 -0.080258 0.035997
vn 0.261330 0.698844 0.665825
v -0.014533 -0.080258 -0.033145
vn 0.632459 0.719235 -0.287568
v -0.033982 -0.080258 0.013811
vn 0.794117 0.607765 -0.000000
v -0.036718 -0.080258 0.000058
vn -0.861754 0.326878 -0.387984
v 0.032423 -0.080258 0.013811
vn 0.333995 0.405478 -0.850902
v -0.014533 -0.080258 0.033261
vn -0.533942 0.655623 0.533914
v 0.024633 -0.080258 -0.025355
vn 0.532002 0.658770 -0.531974
v -0.026192 -0.080258 0.025470
vn 0.403648 0.821069 0.403627
v -0.026192 -0.080258 -0.025355
vn 0.550710 0.796256 0.250389
v -0.033982 -0.080258 -0.013695
vn -0.000004 -0.707125 -0.707089
v 0.024317 0.022766 0.025471
# 49 vertices, 0 vertices normals

f 1//1 3//3 40//40
f 36//36 22//22 20//20
f 36//36 25//25 22//22
f 19//19 36//36 20//20
f 24//24 36//36 43//43
f 25//25 36//36 24//24
f 39//39 14//14 15//15
f 2//2 1//1 37//37
f 21//21 37//37 45//45
f 37//37 21//21 2//2
f 36//36 19//19 35//35
f 35//35 19//19 21//21
f 35//35 21//21 45//45
f 23//23 24//24 43//43
f 39//39 44//44 14//14
f 29//29 41//41 42//42
f 23//23 38//38 15//15
f 38//38 39//39 15//15
f 30//30 33//33 42//42
f 31//31 30//30 42//42
f 48//48 31//31 42//42
f 32//32 47//47 40//40
f 32//32 40//40 3//3
f 32//32 48//48 47//47
f 31//31 48//48 32//32
f 28//28 46//46 41//41
f 29//29 28//28 41//41
f 28//28 44//44 46//46
f 14//14 44//44 28//28
f 26//26 42//42 33//33
f 26//26 29//29 42//42
f 34//34 23//23 43//43
f 34//34 38//38 23//23
f 49//49 18//18 12//12
f 18//18 49//49 6//6
f 3//3 1//1 2//2
f 4//4 5//5 6//6
f 5//5 4//4 7//7
f 9//9 8//8 2//2
f 8//8 3//3 2//2
f 8//8 9//9 10//10
f 10//10 11//11 8//8
f 13//13 12//12 14//14
f 12//12 15//15 14//14
f 16//16 5//5 7//7
f 16//16 17//17 5//5
f 16//16 11//11 10//10
f 16//16 10//10 17//17
f 18//18 19//19 20//20
f 18//18 21//21 19//19
f 10//10 9//9 18//18
f 18//18 6//6 5//5
f 20//20 22//22 18//18
f 24//24 23//23 18//18
f 18//18 9//9 2//2
f 18//18 22//22 25//25
f 5//5 17//17 18//18
f 25//25 24//24 18//18
f 18//18 17//17 10//10
f 18//18 2//2 21//21
f 18//18 23//23 15//15
f 15//15 12//12 18//18
f 26//26 8//8 11//11
f 11//11 16//16 26//26
f 26//26 4//4 27//27
f 26//26 27//27 13//13
f 7//7 4//4 26//26
f 8//8 26//26 3//3
f 26//26 28//28 29//29
f 26//26 13//13 14//14
f 26//26 16//16 7//7
f 26//26 30//30 31//31
f 32//32 26//26 31//31
f 30//30 26//26 33//33
f 26//26 32//32 3//3
f 28//28 26//26 14//14
f 36//36 35//35 34//34
f 34//34 37//37 1//1
f 39//39 38//38 34//34
f 34//34 1//1 40//40
f 42//42 41//41 34//34
f 43//43 36//36 34//34
f 34//34 44//44 39//39
f 45//45 37//37 34//34
f 34//34 41//41 46//46
f 40//40 47//47 34//34
f 34//34 35//35 45//45
f 46//46 44//44 34//34
f 47//47 48//48 34//34
f 34//34 48//48 42//42
f 49//49 13//13 27//27
f 49//49 12//12 13//13
f 27//27 4//4 49//49
f 49//49 4//4 6//6
# 94 faces, 0 coords texture

# End of File