####
#
# OBJ File Generated by Meshlab
#
####
# Object r_hand_chull.obj
#
# Vertices: 39
# Faces: 74
#
####
vn 0.330167 -0.505587 0.797102
v 0.053609 -0.093738 0.039141
vn 0.072482 -0.125061 -0.989498
v 0.053609 -0.093738 -0.020245
vn -0.407504 -0.817239 -0.407507
v -0.023260 -0.124201 -0.010927
vn -0.911763 -0.272764 -0.307062
v -0.068628 -0.090550 -0.020126
vn -0.028974 0.046544 0.998496
v -0.068333 -0.064346 0.039141
vn -0.999995 0.000099 0.003065
v -0.068628 -0.065878 0.039112
vn -0.052469 -0.005822 0.998606
v -0.068333 -0.084646 0.039141
vn -0.423636 -0.800664 0.423638
v -0.023260 -0.124201 0.033187
vn -0.747325 -0.618849 0.241930
v -0.068628 -0.090395 0.038791
vn 0.995461 0.078454 0.053876
v 0.065715 -0.020057 0.021509
vn 0.329917 0.667511 -0.667520
v 0.060972 0.020549 -0.020448
vn 0.997990 0.047842 -0.041566
v 0.065715 -0.019828 -0.008689
vn 0.142079 0.040638 -0.989021
v 0.060971 0.000245 -0.028859
vn 0.076872 0.249843 0.965230
v 0.060971 0.000245 0.028566
vn 0.369913 0.646811 0.666933
v 0.060972 0.020549 0.020156
vn 0.318079 0.948064 0.000091
v 0.060971 0.028958 -0.000146
vn -0.468187 0.612251 -0.637142
v -0.068628 0.024634 -0.025420
vn 0.048728 0.698132 -0.714309
v -0.058095 0.024634 -0.025420
vn 0.045101 0.998982 0.000000
v -0.058095 0.035285 0.000295
vn -0.999236 0.039070 0.000000
v -0.068628 0.035285 0.000295
vn 0.039427 0.148386 -0.988143
v -0.058095 -0.001079 -0.034649
vn -0.992441 0.018224 -0.121361
v -0.068628 -0.001079 -0.034649
vn 0.184054 -0.967913 -0.171079
v 0.020854 -0.124202 -0.010927
vn 0.652062 -0.758166 -0.000000
v 0.029991 -0.124202 0.011130
vn 0.353533 -0.872784 0.336545
v 0.020854 -0.124202 0.033187
vn 0.003462 -0.533907 0.845536
v -0.001202 -0.124202 0.042323
vn -0.382332 -0.924025 0.000771
v -0.032395 -0.124202 0.011130
vn -0.005742 -0.295272 -0.955396
v -0.001202 -0.124202 -0.020063
vn -0.115105 -0.175922 -0.977651
v -0.068628 -0.027246 -0.033210
vn 0.052355 -0.093608 -0.994232
v -0.058095 -0.027246 -0.033210
vn 0.385243 0.100808 0.917292
v 0.066199 -0.064346 0.039141
vn -0.003469 0.053407 0.998567
v -0.001202 -0.092780 0.042323
vn 0.763996 -0.556318 0.326834
v 0.066199 -0.085203 0.039141
vn 0.840958 -0.486257 -0.237369
v 0.066199 -0.085203 -0.020245
vn 0.998056 0.017929 -0.059692
v 0.066199 -0.064346 -0.020245
vn -0.468175 0.612246 0.637155
v -0.068628 0.024634 0.026008
vn 0.053748 0.697946 0.714131
v -0.058095 0.024634 0.026008
vn -0.450891 0.070304 0.889806
v -0.068628 -0.001079 0.035237
vn 0.032752 0.163179 0.986053
v -0.058095 -0.001079 0.035237
# 39 vertices, 0 vertices normals

f 1//1 25//25 33//33
f 24//24 33//33 25//25
f 24//24 34//34 33//33
f 30//30 21//21 13//13
f 21//21 18//18 13//13
f 34//34 2//2 13//13
f 2//2 30//30 13//13
f 2//2 28//28 30//30
f 4//4 9//9 6//6
f 4//4 27//27 9//9
f 20//20 22//22 4//4
f 4//4 6//6 20//20
f 35//35 34//34 13//13
f 12//12 35//35 13//13
f 17//17 22//22 20//20
f 38//38 32//32 39//39
f 38//38 20//20 6//6
f 7//7 6//6 9//9
f 26//26 25//25 1//1
f 7//7 26//26 32//32
f 26//26 7//7 9//9
f 26//26 1//1 33//33
f 28//28 2//2 23//23
f 34//34 24//24 23//23
f 23//23 2//2 34//34
f 29//29 4//4 22//22
f 29//29 30//30 28//28
f 28//28 4//4 29//29
f 28//28 27//27 3//3
f 3//3 4//4 28//28
f 4//4 3//3 27//27
f 16//16 10//10 12//12
f 16//16 15//15 10//10
f 16//16 18//18 19//19
f 5//5 32//32 38//38
f 5//5 38//38 6//6
f 5//5 7//7 32//32
f 5//5 6//6 7//7
f 8//8 27//27 26//26
f 27//27 8//8 9//9
f 8//8 26//26 9//9
f 31//31 14//14 39//39
f 31//31 39//39 32//32
f 15//15 14//14 31//31
f 31//31 10//10 15//15
f 31//31 35//35 12//12
f 12//12 10//10 31//31
f 11//11 12//12 13//13
f 11//11 16//16 12//12
f 11//11 13//13 18//18
f 18//18 16//16 11//11
f 37//37 39//39 14//14
f 37//37 14//14 15//15
f 37//37 16//16 19//19
f 16//16 37//37 15//15
f 38//38 36//36 20//20
f 19//19 18//18 17//17
f 17//17 20//20 19//19
f 17//17 21//21 22//22
f 18//18 21//21 17//17
f 23//23 24//24 25//25
f 23//23 26//26 27//27
f 23//23 27//27 28//28
f 25//25 26//26 23//23
f 29//29 22//22 21//21
f 29//29 21//21 30//30
f 26//26 31//31 32//32
f 31//31 26//26 33//33
f 33//33 34//34 31//31
f 34//34 35//35 31//31
f 36//36 19//19 20//20
f 36//36 37//37 19//19
f 36//36 38//38 39//39
f 39//39 37//37 36//36
# 74 faces, 0 coords texture

# End of File