####
#
# OBJ File Generated by Meshlab
#
####
# Object r_hand.obj
#
# Vertices: 193
# Faces: 180
#
####
vn 0.000000 0.997809 0.066167
v 0.024317 0.033292 0.000058
vn 0.000000 0.947171 0.320730
v 0.044433 0.030556 0.013811
vn 0.000000 0.997809 -0.066167
v 0.044433 0.033292 0.000058
vn 0.000009 0.896545 0.442952
v 0.024317 0.030556 0.013811
vn 0.000023 0.752364 0.658748
v 0.044433 0.022766 0.025470
vn 0.000023 0.658799 0.752319
v 0.024317 0.022766 0.025471
vn 0.000014 0.442972 0.896536
v 0.044433 0.011107 0.033261
vn 0.000000 0.320715 0.947176
v 0.024317 0.011107 0.033261
vn 0.000000 0.066166 0.997809
v 0.044433 -0.002647 0.035997
vn 0.000000 -0.066169 0.997808
v 0.024317 -0.002647 0.035997
vn 0.000000 -0.320759 0.947161
v 0.044433 -0.016399 0.033261
vn 0.000014 -0.442972 0.896536
v 0.024317 -0.016399 0.033261
vn 0.000023 -0.658761 0.752352
v 0.044433 -0.028059 0.025470
vn 0.000023 -0.752341 0.658773
v 0.024317 -0.028059 0.025471
vn 0.635951 -0.691890 0.341839
v 0.044433 -0.035849 0.013811
vn 0.000000 -0.947173 0.320722
v 0.024317 -0.035849 0.013811
vn 0.000000 -0.997809 0.066167
v 0.044433 -0.038585 0.000058
vn 0.000000 -0.997809 -0.066167
v 0.024317 -0.038585 0.000058
vn 0.000000 -0.947173 -0.320722
v 0.044433 -0.035849 -0.013695
vn 0.000000 -0.896550 -0.442943
v 0.024317 -0.035849 -0.013695
vn 0.000000 -0.752352 -0.658761
v 0.044433 -0.028059 -0.025355
vn 0.000000 -0.658761 -0.752352
v 0.024317 -0.028059 -0.025355
vn 0.939440 -0.151806 -0.307259
v 0.044433 -0.016399 -0.033145
vn 0.000000 -0.320737 -0.947168
v 0.024317 -0.016399 -0.033145
vn 0.000000 -0.066169 -0.997808
v 0.044433 -0.002647 -0.035881
vn 0.000000 0.066166 -0.997809
v 0.024317 -0.002647 -0.035881
vn 0.000000 0.320715 -0.947176
v 0.044433 0.011107 -0.033145
vn 0.000000 0.442952 -0.896545
v 0.024317 0.011107 -0.033145
vn 0.090113 0.656105 -0.749270
v 0.044433 0.022766 -0.025355
vn 0.000000 0.752364 -0.658748
v 0.024317 0.022766 -0.025355
vn 0.000000 0.896550 -0.442943
v 0.044433 0.030556 -0.013695
vn 0.000000 0.947173 -0.320722
v 0.024317 0.030556 -0.013695
vn -1.000000 0.000000 0.000000
v 0.024317 -0.038585 0.000058
vn -1.000000 0.000000 0.000000
v 0.024317 -0.028059 -0.025355
vn -1.000000 0.000000 0.000000
v 0.024317 -0.035849 -0.013695
vn -1.000000 0.000000 0.000000
v 0.024317 -0.016399 -0.033145
vn -1.000000 0.000000 0.000000
v 0.024317 -0.035849 0.013811
vn -1.000000 0.000000 0.000000
v 0.024317 -0.002647 -0.035881
vn -1.000000 0.000000 0.000000
v 0.024317 -0.028059 0.025471
vn -1.000000 0.000000 0.000000
v 0.024317 0.011107 -0.033145
vn -1.000000 0.000000 0.000000
v 0.024317 -0.016399 0.033261
vn -1.000000 0.000000 0.000000
v 0.024317 0.022766 -0.025355
vn -1.000000 0.000000 0.000000
v 0.024317 -0.002647 0.035997
vn -1.000000 0.000000 0.000000
v 0.024317 0.030556 -0.013695
vn -1.000000 0.000000 0.000000
v 0.024317 0.011107 0.033261
vn -1.000000 0.000000 0.000000
v 0.024317 0.033292 0.000058
vn -1.000000 0.000000 0.000000
v 0.024317 0.022766 0.025471
vn -1.000000 0.000000 0.000000
v 0.024317 0.030556 0.013811
vn 1.000000 0.000000 0.000000
v 0.044433 -0.016399 0.033261
vn 1.000000 0.000000 0.000000
v 0.044433 -0.028059 0.025470
vn 1.000000 0.000000 0.000000
v 0.044433 -0.002647 0.035997
vn 1.000000 0.000000 0.000000
v 0.044433 -0.038585 0.000058
vn 1.000000 0.000000 0.000000
v 0.044433 0.011107 0.033261
vn 1.000000 0.000000 0.000000
v 0.044433 -0.035849 -0.013695
vn 1.000000 0.000000 0.000000
v 0.044433 0.022766 0.025470
vn 1.000000 0.000000 0.000000
v 0.044433 -0.028059 -0.025355
vn 1.000000 0.000000 0.000000
v 0.044433 0.030556 0.013811
vn 1.000000 0.000000 0.000000
v 0.044433 0.033292 0.000058
vn 1.000000 0.000000 0.000000
v 0.044433 -0.002647 -0.035881
vn 1.000000 0.000000 0.000000
v 0.044433 0.030556 -0.013695
vn 1.000000 0.000000 0.000000
v 0.044433 0.011107 -0.033145
vn 1.000000 0.000000 0.000000
v 0.044433 0.030556 -0.013695
vn 0.000000 0.997809 0.066167
v -0.046652 0.033292 0.000058
vn 0.000000 0.947171 0.320730
v -0.026537 0.030556 0.013811
vn 0.000000 0.997809 -0.066167
v -0.026537 0.033292 0.000058
vn 0.000009 0.896545 0.442952
v -0.046652 0.030556 0.013811
vn 0.000023 0.752364 0.658748
v -0.026537 0.022766 0.025470
vn 0.000023 0.658799 0.752319
v -0.046652 0.022766 0.025471
vn 0.000014 0.442972 0.896536
v -0.026537 0.011107 0.033261
vn 0.000000 0.320715 0.947176
v -0.046652 0.011107 0.033261
vn 0.000000 0.066166 0.997809
v -0.026537 -0.002647 0.035997
vn 0.000000 -0.066169 0.997808
v -0.046652 -0.002647 0.035997
vn 0.000000 -0.320759 0.947161
v -0.026537 -0.016399 0.033261
vn 0.000014 -0.442972 0.896536
v -0.046652 -0.016399 0.033261
vn 0.000023 -0.658761 0.752352
v -0.026537 -0.028059 0.025470
vn 0.000023 -0.752341 0.658773
v -0.046652 -0.028059 0.025471
vn 0.000009 -0.896545 0.442952
v -0.026537 -0.035849 0.013811
vn 0.000000 -0.947173 0.320722
v -0.046652 -0.035849 0.013811
vn 0.000000 -0.997809 0.066167
v -0.026537 -0.038585 0.000058
vn 0.000000 -0.980780 0.195115
v -0.046652 -0.038585 0.000058
vn 0.000000 -0.980780 -0.195115
v -0.046652 -0.038585 0.000058
vn 0.000000 -0.947173 -0.320722
v -0.026537 -0.035849 -0.013695
vn 0.000000 -0.896550 -0.442943
v -0.046652 -0.035849 -0.013695
vn 0.000000 -0.752352 -0.658761
v -0.026537 -0.028059 -0.025355
vn 0.000000 -0.658761 -0.752352
v -0.046652 -0.028059 -0.025355
vn 0.000000 -0.442952 -0.896545
v -0.026537 -0.016399 -0.033145
vn 0.000000 -0.320737 -0.947168
v -0.046652 -0.016399 -0.033145
vn 0.000000 -0.066169 -0.997808
v -0.026537 -0.002647 -0.035881
vn 0.000000 0.066166 -0.997809
v -0.046652 -0.002647 -0.035881
vn 0.000000 0.320715 -0.947176
v -0.026537 0.011107 -0.033145
vn 0.000000 0.442952 -0.896545
v -0.046652 0.011107 -0.033145
vn 0.000000 0.658785 -0.752331
v -0.026537 0.022766 -0.025355
vn -0.954936 0.223311 -0.195524
v -0.046652 0.022766 -0.025355
vn 0.000000 0.896550 -0.442943
v -0.026537 0.030556 -0.013695
vn 0.000000 0.947173 -0.320722
v -0.046652 0.030556 -0.013695
vn -1.000000 0.000000 0.000000
v -0.046652 -0.038585 0.000058
vn -1.000000 0.000000 0.000000
v -0.046652 -0.028059 -0.025355
vn -1.000000 0.000000 0.000000
v -0.046652 -0.035849 -0.013695
vn -1.000000 0.000000 0.000000
v -0.046652 -0.016399 -0.033145
vn -1.000000 0.000000 0.000000
v -0.046652 -0.035849 0.013811
vn -1.000000 0.000000 0.000000
v -0.046652 -0.002647 -0.035881
vn -1.000000 0.000000 0.000000
v -0.046652 -0.028059 0.025471
vn -1.000000 0.000000 0.000000
v -0.046652 0.011107 -0.033145
vn -1.000000 0.000000 0.000000
v -0.046652 -0.016399 0.033261
vn -1.000000 0.000000 0.000000
v -0.046652 -0.002647 0.035997
vn -1.000000 0.000000 0.000000
v -0.046652 0.030556 -0.013695
vn -1.000000 0.000000 0.000000
v -0.046652 0.011107 0.033261
vn -1.000000 0.000000 0.000000
v -0.046652 0.033292 0.000058
vn -1.000000 0.000000 0.000000
v -0.046652 0.022766 0.025471
vn -1.000000 0.000000 0.000000
v -0.046652 0.030556 0.013811
vn 1.000000 0.000000 0.000000
v -0.026537 -0.035849 0.013811
vn 1.000000 0.000000 0.000000
v -0.026537 -0.016399 0.033261
vn 1.000000 0.000000 0.000000
v -0.026537 -0.028059 0.025470
vn 1.000000 0.000000 0.000000
v -0.026537 -0.002647 0.035997
vn 1.000000 0.000000 0.000000
v -0.026537 -0.038585 0.000058
vn 1.000000 0.000000 0.000000
v -0.026537 0.011107 0.033261
vn 1.000000 0.000000 0.000000
v -0.026537 -0.035849 -0.013695
vn 1.000000 0.000000 0.000000
v -0.026537 0.022766 0.025470
vn 1.000000 0.000000 0.000000
v -0.026537 -0.028059 -0.025355
vn 1.000000 0.000000 0.000000
v -0.026537 0.030556 0.013811
vn 1.000000 0.000000 0.000000
v -0.026537 -0.016399 -0.033145
vn 1.000000 0.000000 0.000000
v -0.026537 0.033292 0.000058
vn 1.000000 0.000000 0.000000
v -0.026537 -0.002647 -0.035881
vn 1.000000 0.000000 0.000000
v -0.026537 0.030556 -0.013695
vn 1.000000 0.000000 0.000000
v -0.026537 0.011107 -0.033145
vn 1.000000 0.000000 0.000000
v -0.026537 0.022766 -0.025355
vn 1.000000 0.000000 0.000000
v -0.026537 0.030556 -0.013695
vn 0.980780 0.000000 0.195115
v 0.035159 -0.025140 0.000058
vn 0.947171 0.000000 0.320730
v 0.032423 -0.080258 0.013811
vn 0.980780 0.000000 0.195115
v 0.035159 -0.080258 0.000058
vn 0.896545 -0.000003 0.442952
v 0.032423 -0.025140 0.013811
vn 0.752364 -0.000009 0.658748
v 0.024633 -0.080258 0.025470
vn 0.658799 -0.000009 0.752319
v 0.024633 -0.025140 0.025471
vn 0.442972 -0.000005 0.896536
v 0.012974 -0.080258 0.033261
vn 0.320715 0.000000 0.947176
v 0.012974 -0.025140 0.033261
vn 0.066164 0.000000 0.997809
v -0.000780 -0.080258 0.035997
vn -0.066166 0.000000 0.997809
v -0.000780 -0.025140 0.035997
vn -0.320751 0.000000 0.947163
v -0.014533 -0.080258 0.033261
vn -0.443001 0.000000 0.896521
v -0.014533 -0.025140 0.033261
vn -0.658799 0.000000 0.752319
v -0.026192 -0.080258 0.025470
vn -0.752353 0.000000 0.658760
v -0.026192 -0.025140 0.025470
vn -0.896541 0.000000 0.442962
v -0.033982 -0.080258 0.013811
vn -0.947171 0.000000 0.320730
v -0.033982 -0.025140 0.013811
vn -0.997809 0.000000 0.066167
v -0.036718 -0.080258 0.000058
vn -0.997809 0.000000 -0.066167
v -0.036718 -0.025140 0.000058
vn -0.947173 0.000000 -0.320722
v -0.033982 -0.080258 -0.013695
vn -0.896550 0.000000 -0.442943
v -0.033982 -0.025140 -0.013695
vn -0.752364 0.000000 -0.658748
v -0.026192 -0.080258 -0.025355
vn -0.658785 0.000000 -0.752331
v -0.026192 -0.025140 -0.025355
vn -0.442962 0.000000 -0.896541
v -0.014533 -0.080258 -0.033145
vn -0.320730 0.000000 -0.947171
v -0.014533 -0.025140 -0.033145
vn -0.066166 0.000000 -0.997809
v -0.000780 -0.080258 -0.035881
vn 0.066164 0.000000 -0.997809
v -0.000780 -0.025140 -0.035881
vn 0.320715 0.000000 -0.947176
v 0.012974 -0.080258 -0.033145
vn 0.442952 0.000000 -0.896545
v 0.012974 -0.025140 -0.033145
vn 0.658785 0.000000 -0.752331
v 0.024633 -0.080258 -0.025355
vn 0.752364 0.000000 -0.658748
v 0.024633 -0.025140 -0.025355
vn 0.896550 0.000000 -0.442943
v 0.032423 -0.080258 -0.013695
vn 0.947173 0.000000 -0.320722
v 0.032423 -0.025140 -0.013695
vn 0.980780 0.000000 -0.195115
v 0.035159 -0.080258 0.000058
vn 0.980780 0.000000 -0.195115
v 0.035159 -0.025140 0.000058
vn 0.000000 1.000000 0.000000
v -0.036718 -0.025140 0.000058
vn 0.000000 1.000000 0.000000
v -0.026192 -0.025140 -0.025355
vn 0.000000 1.000000 0.000000
v -0.033982 -0.025140 -0.013695
vn 0.000000 1.000000 0.000000
v -0.014533 -0.025140 -0.033145
vn 0.000000 1.000000 0.000000
v -0.033982 -0.025140 0.013811
vn 0.000000 1.000000 0.000000
v -0.000780 -0.025140 -0.035881
vn 0.000000 1.000000 0.000000
v -0.026192 -0.025140 0.025470
vn 0.000000 1.000000 0.000000
v 0.012974 -0.025140 -0.033145
vn 0.000000 1.000000 0.000000
v -0.014533 -0.025140 0.033261
vn 0.000000 1.000000 0.000000
v 0.024633 -0.025140 -0.025355
vn 0.000000 1.000000 0.000000
v -0.000780 -0.025140 0.035997
vn 0.000000 1.000000 0.000000
v 0.032423 -0.025140 -0.013695
vn 0.000000 1.000000 0.000000
v 0.012974 -0.025140 0.033261
vn 0.000000 1.000000 0.000000
v 0.035159 -0.025140 0.000058
vn 0.000000 1.000000 0.000000
v 0.024633 -0.025140 0.025471
vn 0.000000 1.000000 0.000000
v 0.032423 -0.025140 0.013811
vn 0.000000 -1.000000 0.000000
v -0.033982 -0.080258 0.013811
vn 0.000000 -1.000000 0.000000
v -0.014533 -0.080258 0.033261
vn 0.000000 -1.000000 0.000000
v -0.026192 -0.080258 0.025470
vn 0.000000 -1.000000 0.000000
v -0.000780 -0.080258 0.035997
vn 0.000000 -1.000000 0.000000
v -0.036718 -0.080258 0.000058
vn 0.000000 -1.000000 0.000000
v 0.012974 -0.080258 0.033261
vn 0.000000 -1.000000 0.000000
v -0.033982 -0.080258 -0.013695
vn 0.000000 -1.000000 0.000000
v 0.024633 -0.080258 0.025470
vn 0.000000 -1.000000 0.000000
v -0.026192 -0.080258 -0.025355
vn 0.000000 -1.000000 0.000000
v 0.032423 -0.080258 0.013811
vn 0.000000 -1.000000 0.000000
v -0.014533 -0.080258 -0.033145
vn 0.000000 -1.000000 0.000000
v 0.035159 -0.080258 0.000058
vn 0.000000 -1.000000 0.000000
v -0.000780 -0.080258 -0.035881
vn 0.000000 -1.000000 0.000000
v 0.032423 -0.080258 -0.013695
vn 0.000000 -1.000000 0.000000
v 0.012974 -0.080258 -0.033145
vn 0.000000 -1.000000 0.000000
v 0.024633 -0.080258 -0.025355
# 193 vertices, 0 vertices normals

f 1//1 2//2 3//3
f 1//1 4//4 2//2
f 4//4 5//5 2//2
f 4//4 6//6 5//5
f 6//6 7//7 5//5
f 6//6 8//8 7//7
f 8//8 9//9 7//7
f 8//8 10//10 9//9
f 10//10 11//11 9//9
f 10//10 12//12 11//11
f 12//12 13//13 11//11
f 12//12 14//14 13//13
f 14//14 15//15 13//13
f 14//14 16//16 15//15
f 16//16 17//17 15//15
f 16//16 18//18 17//17
f 18//18 19//19 17//17
f 18//18 20//20 19//19
f 20//20 21//21 19//19
f 20//20 22//22 21//21
f 22//22 23//23 21//21
f 22//22 24//24 23//23
f 24//24 25//25 23//23
f 24//24 26//26 25//25
f 26//26 27//27 25//25
f 26//26 28//28 27//27
f 28//28 29//29 27//27
f 28//28 30//30 29//29
f 30//30 31//31 29//29
f 30//30 32//32 31//31
f 32//32 3//3 31//31
f 32//32 1//1 3//3
f 33//33 34//34 35//35
f 33//33 36//36 34//34
f 37//37 36//36 33//33
f 37//37 38//38 36//36
f 39//39 38//38 37//37
f 39//39 40//40 38//38
f 41//41 40//40 39//39
f 41//41 42//42 40//40
f 43//43 42//42 41//41
f 43//43 44//44 42//42
f 45//45 44//44 43//43
f 45//45 46//46 44//44
f 47//47 46//46 45//45
f 47//47 48//48 46//46
f 15//15 49//49 50//50
f 15//15 51//51 49//49
f 52//52 51//51 15//15
f 52//52 53//53 51//51
f 54//54 53//53 52//52
f 54//54 55//55 53//53
f 56//56 55//55 54//54
f 56//56 57//57 55//55
f 23//23 57//57 56//56
f 23//23 58//58 57//57
f 59//59 58//58 23//23
f 59//59 60//60 58//58
f 61//61 60//60 59//59
f 61//61 29//29 62//62
f 63//63 64//64 65//65
f 63//63 66//66 64//64
f 66//66 67//67 64//64
f 66//66 68//68 67//67
f 68//68 69//69 67//67
f 68//68 70//70 69//69
f 70//70 71//71 69//69
f 70//70 72//72 71//71
f 72//72 73//73 71//71
f 72//72 74//74 73//73
f 74//74 75//75 73//73
f 74//74 76//76 75//75
f 76//76 77//77 75//75
f 76//76 78//78 77//77
f 78//78 79//79 77//77
f 78//78 80//80 79//79
f 81//81 82//82 79//79
f 81//81 83//83 82//82
f 83//83 84//84 82//82
f 83//83 85//85 84//84
f 85//85 86//86 84//84
f 85//85 87//87 86//86
f 87//87 88//88 86//86
f 87//87 89//89 88//88
f 89//89 90//90 88//88
f 89//89 91//91 90//90
f 91//91 92//92 90//90
f 91//91 93//93 92//92
f 93//93 94//94 92//92
f 93//93 95//95 94//94
f 95//95 65//65 94//94
f 95//95 63//63 65//65
f 96//96 97//97 98//98
f 96//96 99//99 97//97
f 100//100 99//99 96//96
f 100//100 101//101 99//99
f 102//102 101//101 100//100
f 102//102 103//103 101//101
f 104//104 103//103 102//102
f 104//104 93//93 103//103
f 105//105 93//93 104//104
f 105//105 106//106 93//93
f 107//107 106//106 105//105
f 107//107 108//108 106//106
f 109//109 108//108 107//107
f 109//109 110//110 108//108
f 111//111 112//112 113//113
f 111//111 114//114 112//112
f 115//115 114//114 111//111
f 115//115 116//116 114//114
f 117//117 116//116 115//115
f 117//117 118//118 116//116
f 119//119 118//118 117//117
f 119//119 120//120 118//118
f 121//121 120//120 119//119
f 121//121 122//122 120//120
f 123//123 122//122 121//121
f 123//123 124//124 122//122
f 125//125 124//124 123//123
f 125//125 126//126 127//127
f 128//128 129//129 130//130
f 128//128 131//131 129//129
f 131//131 132//132 129//129
f 131//131 133//133 132//132
f 133//133 134//134 132//132
f 133//133 135//135 134//134
f 135//135 136//136 134//134
f 135//135 137//137 136//136
f 137//137 138//138 136//136
f 137//137 139//139 138//138
f 139//139 140//140 138//138
f 139//139 141//141 140//140
f 141//141 142//142 140//140
f 141//141 143//143 142//142
f 143//143 144//144 142//142
f 143//143 145//145 144//144
f 145//145 146//146 144//144
f 145//145 147//147 146//146
f 147//147 148//148 146//146
f 147//147 149//149 148//148
f 149//149 150//150 148//148
f 149//149 151//151 150//150
f 151//151 152//152 150//150
f 151//151 153//153 152//152
f 153//153 154//154 152//152
f 153//153 155//155 154//154
f 155//155 156//156 154//154
f 155//155 157//157 156//156
f 157//157 158//158 156//156
f 157//157 159//159 158//158
f 159//159 160//160 158//158
f 159//159 161//161 160//160
f 162//162 163//163 164//164
f 162//162 165//165 163//163
f 166//166 165//165 162//162
f 166//166 167//167 165//165
f 168//168 167//167 166//166
f 168//168 169//169 167//167
f 170//170 169//169 168//168
f 170//170 171//171 169//169
f 172//172 171//171 170//170
f 172//172 173//173 171//171
f 174//174 173//173 172//172
f 174//174 175//175 173//173
f 176//176 175//175 174//174
f 176//176 177//177 175//175
f 178//178 179//179 180//180
f 178//178 181//181 179//179
f 182//182 181//181 178//178
f 182//182 183//183 181//181
f 184//184 183//183 182//182
f 184//184 185//185 183//183
f 186//186 185//185 184//184
f 186//186 187//187 185//185
f 188//188 187//187 186//186
f 188//188 189//189 187//187
f 190//190 189//189 188//188
f 190//190 191//191 189//189
f 192//192 191//191 190//190
f 192//192 193//193 191//191
# 180 faces, 0 coords texture

# End of File