####
#
# OBJ File Generated by Meshlab
#
####
# Object r_larm_chull.obj
#
# Vertices: 49
# Faces: 94
#
####
vn -0.000000 -0.141913 0.989879
v 0.000048 0.000778 -0.056004
vn -0.370537 -0.832352 0.412181
v 0.065208 0.043491 -0.018120
vn 0.370534 -0.879485 0.298682
v -0.065081 0.043491 -0.018120
vn 0.274911 -0.665873 0.693568
v -0.065081 0.033556 -0.032960
vn -0.251688 -0.628642 0.735841
v 0.065208 0.033556 -0.032960
vn -0.410046 -0.686728 -0.600222
v 0.065208 0.033614 0.031770
vn 0.142786 -0.652700 -0.744039
v -0.065081 0.033614 0.031770
vn 0.173003 -0.910286 -0.376097
v -0.065081 0.043523 0.016911
vn -0.574890 -0.756227 -0.312446
v 0.065208 0.043523 0.016911
vn 0.418078 0.892581 -0.168850
v -0.040791 -0.188105 0.005115
vn 0.366519 0.287555 0.884859
v -0.016867 -0.188105 -0.052639
vn 0.000000 0.070091 0.997541
v 0.000048 -0.188105 -0.056004
vn -0.351957 0.363308 -0.862632
v 0.016964 -0.188105 0.029039
vn 0.000000 0.110726 -0.993851
v 0.000048 -0.188105 0.032403
vn 0.911192 0.218736 0.349119
v -0.040791 -0.188105 -0.028717
vn 0.986382 0.164473 -0.000098
v -0.044156 -0.188105 -0.011800
vn 0.685891 0.243118 -0.685891
v -0.031209 -0.188105 0.019456
vn 0.367401 0.232973 -0.900411
v -0.016867 -0.188105 0.029039
vn -0.346944 0.421964 0.837601
v 0.016965 -0.188105 -0.052639
vn 0.677187 0.263135 0.687152
v -0.031209 -0.188105 -0.043057
vn -0.806090 0.504773 0.308906
v 0.040887 -0.188105 -0.028717
vn -0.941062 0.338235 -0.000094
v 0.044252 -0.188105 -0.011800
vn -0.798595 0.508117 -0.322589
v 0.040887 -0.188105 0.005115
vn -0.614045 0.484451 0.623101
v 0.031305 -0.188105 -0.043057
vn -0.609860 0.506136 -0.609834
v 0.031305 -0.188105 0.019456
vn -0.320144 -0.947369 0.000865
v 0.065208 0.046991 -0.000607
vn 0.436929 -0.899496 0.000822
v -0.065081 0.046991 -0.000607
vn -0.287219 -0.367361 -0.884619
v 0.065208 0.018774 0.041705
vn 0.102353 -0.381506 -0.918682
v -0.065081 0.018774 0.041705
vn 0.033980 0.040767 -0.998591
v -0.065081 0.001262 0.045205
vn -0.103372 0.058131 -0.992943
v 0.065208 0.001262 0.045205
vn 0.957015 0.090739 -0.275478
v -0.065081 -0.016258 0.041737
vn 0.988726 0.138284 -0.057430
v -0.065081 -0.041051 0.016988
vn 0.967682 0.174535 -0.182015
v -0.065081 -0.031115 0.031828
vn 0.829794 -0.213088 0.515786
v -0.065081 0.018697 -0.042868
vn 0.377487 0.014845 0.925896
v -0.065081 0.001179 -0.046336
vn 0.985377 0.113401 0.127168
v -0.065081 -0.031174 -0.032902
vn 0.936556 0.108177 0.333407
v -0.065081 -0.016334 -0.042836
vn 0.993257 0.107152 0.044270
v -0.065081 -0.041082 -0.018043
vn 0.992664 0.120905 -0.000107
v -0.065081 -0.044551 -0.000524
vn -0.999122 0.038729 0.016001
v 0.065208 -0.041082 -0.018043
vn -0.289593 0.015357 0.957027
v 0.065208 0.001179 -0.046336
vn -0.878777 0.147368 0.453909
v 0.065208 -0.016334 -0.042836
vn -0.791333 0.191358 -0.580666
v 0.065208 -0.016258 0.041737
vn -0.975177 0.153296 -0.159782
v 0.065208 -0.031115 0.031828
vn -0.616858 -0.300529 0.727440
v 0.065208 0.018697 -0.042868
vn -0.988694 0.138482 -0.057512
v 0.065208 -0.041051 0.016988
vn -0.989995 0.141104 -0.000125
v 0.065208 -0.044551 -0.000524
vn -0.974604 0.149091 0.167088
v 0.065208 -0.031174 -0.032902
# 49 vertices, 0 vertices normals

f 1//1 5//5 4//4
f 1//1 36//36 12//12
f 35//35 1//1 4//4
f 35//35 36//36 1//1
f 14//14 30//30 31//31
f 14//14 18//18 30//30
f 11//11 36//36 20//20
f 11//11 12//12 36//36
f 38//38 15//15 20//20
f 36//36 38//38 20//20
f 13//13 14//14 31//31
f 44//44 23//23 25//25
f 44//44 25//25 13//13
f 44//44 13//13 31//31
f 21//21 43//43 24//24
f 42//42 12//12 19//19
f 12//12 42//42 1//1
f 42//42 19//19 24//24
f 24//24 43//43 42//42
f 37//37 16//16 15//15
f 38//38 37//37 15//15
f 40//40 33//33 16//16
f 33//33 34//34 16//16
f 34//34 10//10 16//16
f 45//45 22//22 23//23
f 44//44 45//45 23//23
f 46//46 5//5 1//1
f 42//42 46//46 1//1
f 39//39 40//40 16//16
f 37//37 39//39 16//16
f 32//32 10//10 34//34
f 17//17 10//10 32//32
f 18//18 17//17 32//32
f 30//30 18//18 32//32
f 49//49 21//21 22//22
f 43//43 21//21 49//49
f 45//45 47//47 22//22
f 47//47 48//48 22//22
f 22//22 48//48 41//41
f 41//41 49//49 22//22
f 2//2 3//3 4//4
f 2//2 4//4 5//5
f 6//6 7//7 8//8
f 9//9 6//6 8//8
f 11//11 10//10 12//12
f 10//10 14//14 13//13
f 10//10 15//15 16//16
f 10//10 17//17 18//18
f 14//14 10//10 18//18
f 10//10 19//19 12//12
f 20//20 15//15 10//10
f 22//22 21//21 10//10
f 10//10 23//23 22//22
f 10//10 11//11 20//20
f 19//19 10//10 24//24
f 25//25 23//23 10//10
f 10//10 13//13 25//25
f 10//10 21//21 24//24
f 26//26 9//9 8//8
f 26//26 8//8 27//27
f 2//2 26//26 3//3
f 26//26 27//27 3//3
f 28//28 30//30 29//29
f 28//28 31//31 30//30
f 28//28 29//29 7//7
f 6//6 28//28 7//7
f 34//34 33//33 32//32
f 8//8 7//7 32//32
f 35//35 32//32 36//36
f 32//32 35//35 4//4
f 7//7 29//29 32//32
f 4//4 3//3 32//32
f 32//32 37//37 38//38
f 32//32 38//38 36//36
f 32//32 39//39 37//37
f 32//32 29//29 30//30
f 3//3 27//27 32//32
f 32//32 33//33 40//40
f 32//32 27//27 8//8
f 40//40 39//39 32//32
f 41//41 6//6 9//9
f 41//41 42//42 43//43
f 41//41 2//2 5//5
f 41//41 28//28 6//6
f 41//41 26//26 2//2
f 41//41 44//44 31//31
f 41//41 45//45 44//44
f 9//9 26//26 41//41
f 31//31 28//28 41//41
f 41//41 46//46 42//42
f 5//5 46//46 41//41
f 48//48 47//47 41//41
f 43//43 49//49 41//41
f 41//41 47//47 45//45
# 94 faces, 0 coords texture

# End of File