####
#
# OBJ File Generated by Meshlab
#
####
# Object r_lleg_chull.obj
#
# Vertices: 97
# Faces: 190
#
####
vn -0.204319 0.977647 -0.049595
v 0.048844 -0.057481 -0.009767
vn 0.984868 -0.125939 -0.119057
v -0.039168 -0.002036 -0.078998
vn -0.999999 0.000000 -0.001372
v 0.094399 0.000362 -0.037939
vn -0.897721 -0.206776 -0.389025
v 0.088505 0.028534 -0.030746
vn 0.585061 -0.810742 -0.020031
v -0.039468 0.050313 -0.137840
vn -0.722094 0.570823 -0.390821
v 0.071822 -0.048090 -0.019357
vn -0.897655 0.206561 -0.389292
v 0.088505 -0.027910 -0.030746
vn -0.462408 0.839242 -0.286096
v 0.052341 -0.054584 -0.005571
vn -0.533372 0.844838 0.041982
v 0.070223 -0.050388 -0.024952
vn 0.062404 0.945226 -0.320396
v -0.003604 -0.051587 0.021602
vn -0.036129 0.935996 -0.350150
v 0.008385 -0.051587 0.020903
vn 0.127069 0.986192 -0.106202
v -0.014093 -0.051587 0.015808
vn 0.007100 0.994714 -0.102436
v 0.032161 -0.057681 0.001622
vn 0.260497 -0.964994 -0.030472
v -0.018689 0.052311 0.004719
vn 0.095397 -0.995389 0.010049
v 0.005188 0.058405 -0.030247
vn -0.465815 -0.836688 -0.288043
v 0.052341 0.055308 -0.005571
vn -0.204319 -0.977647 -0.049595
v 0.048844 0.058205 -0.009767
vn -0.722872 -0.569064 -0.391945
v 0.071822 0.048714 -0.019357
vn -0.123175 0.481183 -0.867923
v 0.029763 -0.049589 0.023500
vn -0.533494 -0.844771 0.041792
v 0.070223 0.051112 -0.024952
vn 0.139905 0.987753 0.069064
v 0.003090 -0.044394 -0.357223
vn 0.083833 0.995573 0.042512
v -0.010297 -0.049589 -0.253825
vn 0.095397 0.995389 0.010050
v 0.005188 -0.057681 -0.030247
vn 0.260497 0.964994 -0.030472
v -0.018689 -0.051587 0.004719
vn -0.022434 0.996105 0.085267
v 0.038655 -0.044394 -0.358122
vn -0.007052 0.998896 0.046444
v 0.020672 -0.049589 -0.252826
vn -0.081479 0.996025 0.036004
v 0.041851 -0.057681 -0.072605
vn 0.098456 0.985611 0.137395
v 0.006386 -0.044394 -0.361918
vn 0.127068 -0.986192 -0.106202
v -0.014093 0.052311 0.015808
vn 0.673726 0.079078 -0.734738
v -0.014892 -0.049589 0.017706
vn 0.673726 -0.079078 -0.734738
v -0.014892 0.050313 0.017706
vn 0.393514 0.919244 0.011711
v -0.039468 -0.049589 -0.137840
vn 0.471509 0.874967 0.110052
v -0.032475 -0.039099 -0.358921
vn 0.979626 0.000000 0.200831
v -0.030477 0.000362 -0.369611
vn 0.009239 0.959468 0.281665
v 0.004388 -0.035602 -0.393187
vn 0.045239 0.961954 0.269440
v -0.015991 -0.035602 -0.390990
vn -0.009279 0.993432 0.114043
v 0.011282 -0.044394 -0.363017
vn -0.082443 0.945680 0.314471
v 0.009384 -0.028310 -0.416664
vn 0.139905 -0.987753 0.069064
v 0.003090 0.045118 -0.357223
vn 0.471438 -0.874973 0.110308
v -0.032475 0.039823 -0.358921
vn -0.036129 -0.935997 -0.350150
v 0.008385 0.052311 0.020903
vn 0.062404 -0.945226 -0.320395
v -0.003604 0.052311 0.021602
vn 0.007100 -0.994714 -0.102436
v 0.032161 0.058405 0.001622
vn -0.123175 -0.481184 -0.867923
v 0.029763 0.050313 0.023500
vn 0.098678 -0.985313 0.139355
v 0.006386 0.045118 -0.361918
vn -0.007052 -0.998896 0.046443
v 0.020672 0.050313 -0.252826
vn 0.083833 -0.995573 0.042512
v -0.010297 0.050313 -0.253825
vn -0.081479 -0.996025 0.036004
v 0.041851 0.058405 -0.072605
vn -0.022434 -0.996105 0.085267
v 0.038655 0.045118 -0.358122
vn 0.982437 0.144685 -0.117833
v -0.039168 -0.030408 -0.078998
vn 0.945595 0.307876 -0.105177
v -0.039168 -0.034803 -0.085892
vn 0.013269 -0.959357 0.281884
v 0.004388 0.036227 -0.393187
vn 0.045496 -0.961523 0.270930
v -0.015991 0.036227 -0.390990
vn -0.008681 -0.993410 0.114286
v 0.011282 0.045118 -0.363017
vn -0.079527 -0.946081 0.314015
v 0.009384 0.029034 -0.416664
vn -0.797508 0.000000 0.603308
v 0.066327 0.000362 -0.352528
vn -0.912437 0.399265 0.089696
v 0.060433 -0.031407 -0.348132
vn -0.841167 0.536635 0.066786
v 0.087606 -0.029508 -0.036740
vn -0.778514 0.282094 0.560659
v 0.057536 -0.029908 -0.353826
vn -0.603614 0.795431 0.054223
v 0.050643 -0.044394 -0.348931
vn -0.289325 0.923176 0.253057
v 0.048545 -0.044394 -0.354426
vn -0.912437 -0.399265 0.089696
v 0.060433 0.032131 -0.348132
vn -0.289325 -0.923176 0.253057
v 0.048545 0.045118 -0.354426
vn -0.603614 -0.795431 0.054223
v 0.050643 0.045118 -0.348931
vn -0.778514 -0.282094 0.560659
v 0.057536 0.030632 -0.353826
vn -0.841288 -0.536468 0.066600
v 0.087606 0.030232 -0.036740
vn -0.996579 0.000000 0.082651
v 0.094299 0.000362 -0.107870
vn -0.992337 0.000000 0.123564
v 0.069624 0.000362 -0.347233
vn 0.999912 0.008479 0.010195
v -0.042465 -0.032605 -0.262217
vn 0.986252 -0.139752 0.088180
v -0.041366 0.033329 -0.315165
vn 0.978213 0.178140 0.106612
v -0.041366 -0.032605 -0.315165
vn 0.999976 -0.006361 0.002825
v -0.042465 0.033329 -0.262217
vn -0.723556 0.046557 -0.688694
v 0.057336 -0.019618 0.010113
vn -0.759782 -0.057720 -0.647611
v 0.057336 0.020342 0.010113
vn -0.567450 -0.225518 -0.791924
v 0.044848 0.050313 0.018405
vn -0.585255 0.265240 -0.766240
v 0.044848 -0.049589 0.018405
vn -0.793047 0.000000 -0.609160
v 0.094200 0.000362 -0.035042
vn -0.131144 0.002248 -0.991361
v 0.029663 -0.020218 0.023900
vn -0.131142 -0.005431 -0.991349
v 0.029663 0.020942 0.023900
vn 0.106980 -0.016134 -0.994130
v 0.000293 0.050313 0.024299
vn 0.157730 0.017415 -0.987329
v 0.000293 -0.049589 0.024299
vn 0.680449 -0.002455 -0.732791
v -0.015292 0.020942 0.017906
vn 0.680439 0.005931 -0.732781
v -0.015292 -0.020218 0.017906
vn 0.975973 -0.078815 -0.203135
v -0.020687 0.050313 0.004819
vn 0.965037 0.110392 -0.237733
v -0.020687 -0.049589 0.004819
vn 0.999497 0.028904 -0.013078
v -0.042265 -0.041297 -0.164913
vn 0.999146 -0.035195 -0.021660
v -0.042265 0.042021 -0.164913
vn 0.949553 0.013036 0.313335
v -0.029578 -0.011526 -0.372508
vn 0.877644 -0.291247 0.380679
v -0.023784 0.036227 -0.388592
vn 0.892671 0.228431 0.388534
v -0.023784 -0.035602 -0.388592
vn 0.955923 -0.023506 0.292675
v -0.029578 0.012250 -0.372508
vn 0.768411 -0.241268 0.592735
v -0.008699 0.026936 -0.423957
vn 0.644263 0.462619 0.609023
v -0.008699 -0.026312 -0.423957
vn -0.680655 0.163000 0.714240
v 0.005188 -0.023714 -0.428253
vn -0.729934 -0.169028 0.662289
v 0.005188 0.024438 -0.428253
vn 0.991052 0.008483 -0.133208
v -0.039069 -0.023115 -0.070707
vn 0.991320 -0.044031 -0.123879
v -0.039069 -0.010028 -0.070707
# 97 vertices, 0 vertices normals

f 27//27 26//26 22//22
f 1//1 13//13 76//76
f 1//1 27//27 13//13
f 1//1 9//9 27//27
f 27//27 23//23 13//13
f 23//23 27//27 22//22
f 47//47 5//5 40//40
f 14//14 84//84 5//5
f 3//3 4//4 67//67
f 8//8 1//1 76//76
f 1//1 8//8 9//9
f 60//60 9//9 58//58
f 60//60 61//61 27//27
f 60//60 27//27 9//9
f 3//3 67//67 7//7
f 7//7 67//67 58//58
f 12//12 24//24 85//85
f 85//85 30//30 12//12
f 13//13 23//23 12//12
f 12//12 23//23 24//24
f 17//17 48//48 20//20
f 15//15 14//14 5//5
f 5//5 47//47 15//15
f 47//47 48//48 15//15
f 5//5 84//84 2//2
f 2//2 84//84 97//97
f 2//2 87//87 5//5
f 2//2 97//97 87//87
f 18//18 4//4 75//75
f 77//77 4//4 3//3
f 7//7 77//77 3//3
f 75//75 4//4 74//74
f 77//77 74//74 4//4
f 19//19 76//76 13//13
f 11//11 19//19 13//13
f 66//66 67//67 4//4
f 66//66 18//18 20//20
f 4//4 18//18 66//66
f 59//59 94//94 61//61
f 33//33 28//28 90//90
f 37//37 22//22 26//26
f 37//37 28//28 22//22
f 70//70 40//40 5//5
f 70//70 87//87 72//72
f 5//5 87//87 70//70
f 73//73 7//7 76//76
f 73//73 77//77 7//7
f 76//76 7//7 6//6
f 6//6 8//8 76//76
f 8//8 6//6 9//9
f 6//6 58//58 9//9
f 6//6 7//7 58//58
f 81//81 19//19 10//10
f 10//10 19//19 11//11
f 10//10 30//30 81//81
f 10//10 12//12 30//30
f 10//10 11//11 13//13
f 12//12 10//10 13//13
f 29//29 31//31 84//84
f 29//29 84//84 14//14
f 29//29 14//14 15//15
f 43//43 17//17 75//75
f 43//43 29//29 15//15
f 48//48 17//17 43//43
f 43//43 15//15 48//48
f 16//16 75//75 17//17
f 16//16 18//18 75//75
f 16//16 17//17 20//20
f 16//16 20//20 18//18
f 78//78 19//19 81//81
f 78//78 76//76 19//19
f 64//64 66//66 20//20
f 20//20 48//48 64//64
f 38//38 61//61 94//94
f 94//94 93//93 38//38
f 21//21 22//22 28//28
f 21//21 33//33 22//22
f 28//28 33//33 21//21
f 22//22 33//33 32//32
f 32//32 23//23 22//22
f 23//23 32//32 24//24
f 85//85 24//24 32//32
f 32//32 33//33 71//71
f 34//34 71//71 33//33
f 40//40 70//70 34//34
f 34//34 70//70 71//71
f 25//25 37//37 26//26
f 25//25 27//27 61//61
f 25//25 26//26 27//27
f 25//25 61//61 38//38
f 25//25 38//38 37//37
f 36//36 93//93 90//90
f 28//28 36//36 90//90
f 37//37 36//36 28//28
f 80//80 31//31 42//42
f 29//29 42//42 31//31
f 43//43 42//42 29//29
f 83//83 30//30 85//85
f 83//83 81//81 30//30
f 82//82 84//84 31//31
f 82//82 31//31 80//80
f 45//45 89//89 53//53
f 89//89 45//45 40//40
f 71//71 69//69 86//86
f 86//86 32//32 71//71
f 85//85 32//32 51//51
f 51//51 32//32 86//86
f 91//91 89//89 40//40
f 34//34 91//91 40//40
f 88//88 33//33 90//90
f 88//88 34//34 33//33
f 88//88 91//91 34//34
f 93//93 36//36 35//35
f 35//35 36//36 37//37
f 35//35 38//38 93//93
f 38//38 35//35 37//37
f 44//44 43//43 75//75
f 80//80 42//42 44//44
f 44//44 79//79 80//80
f 75//75 79//79 44//44
f 39//39 47//47 40//40
f 39//39 40//40 45//45
f 39//39 45//45 47//47
f 46//46 48//48 47//47
f 53//53 89//89 92//92
f 48//48 46//46 49//49
f 56//56 95//95 94//94
f 56//56 94//94 59//59
f 41//41 42//42 43//43
f 41//41 43//43 44//44
f 41//41 44//44 42//42
f 54//54 45//45 53//53
f 54//54 49//49 46//46
f 54//54 47//47 45//45
f 54//54 46//46 47//47
f 63//63 64//64 48//48
f 48//48 49//49 63//63
f 55//55 92//92 95//95
f 63//63 55//55 95//95
f 55//55 63//63 49//49
f 49//49 54//54 55//55
f 68//68 56//56 59//59
f 50//50 96//96 85//85
f 85//85 51//51 50//50
f 50//50 86//86 96//96
f 50//50 51//51 86//86
f 53//53 92//92 52//52
f 52//52 54//54 53//53
f 55//55 52//52 92//92
f 52//52 55//55 54//54
f 65//65 95//95 56//56
f 65//65 63//63 95//95
f 56//56 68//68 65//65
f 67//67 68//68 57//57
f 58//58 67//67 57//57
f 57//57 68//68 59//59
f 57//57 60//60 58//58
f 57//57 59//59 61//61
f 60//60 57//57 61//61
f 62//62 64//64 63//63
f 65//65 62//62 63//63
f 62//62 66//66 64//64
f 62//62 67//67 66//66
f 62//62 68//68 67//67
f 62//62 65//65 68//68
f 71//71 70//70 69//69
f 69//69 70//70 72//72
f 73//73 76//76 75//75
f 75//75 74//74 73//73
f 73//73 74//74 77//77
f 78//78 80//80 79//79
f 78//78 81//81 80//80
f 78//78 75//75 76//76
f 78//78 79//79 75//75
f 82//82 85//85 84//84
f 82//82 83//83 85//85
f 80//80 81//81 82//82
f 81//81 83//83 82//82
f 86//86 69//69 72//72
f 72//72 87//87 86//86
f 90//90 89//89 88//88
f 89//89 91//91 88//88
f 92//92 89//89 90//90
f 90//90 93//93 92//92
f 92//92 93//93 94//94
f 95//95 92//92 94//94
f 96//96 84//84 85//85
f 96//96 97//97 84//84
f 96//96 86//86 87//87
f 87//87 97//97 96//96
# 190 faces, 0 coords texture

# End of File