####
#
# OBJ File Generated by Meshlab
#
####
# Object r_scap_chull.obj
#
# Vertices: 38
# Faces: 72
#
####
vn -0.006721 -0.045852 -0.998926
v -0.047356 -0.063712 -0.048776
vn 0.006721 -0.045852 -0.998926
v 0.043600 -0.063712 -0.048776
vn 0.000000 0.000000 1.000000
v -0.001878 -0.049775 0.047524
vn 0.006720 -0.045844 0.998926
v 0.043600 -0.063712 0.047523
vn -0.006720 -0.045844 0.998926
v -0.047356 -0.063712 0.047523
vn 0.000000 0.000000 -1.000000
v -0.001878 -0.049775 -0.048778
vn 0.227631 0.212837 -0.950202
v 0.091625 0.008171 -0.048709
vn -0.023880 0.088074 -0.995828
v -0.095381 0.008171 -0.048709
vn -0.092428 0.614053 -0.783834
v -0.095381 0.024342 -0.039857
vn 0.140106 0.610610 -0.779440
v 0.091625 0.024342 -0.039857
vn 0.034282 0.849720 -0.526119
v 0.091625 0.036513 -0.026506
vn -0.203456 0.962413 -0.179906
v -0.095381 0.043039 -0.009660
vn -0.287664 0.814282 -0.504177
v -0.095381 0.036513 -0.026506
vn 0.017748 0.982818 -0.183721
v 0.091625 0.043039 -0.009660
vn -0.283391 0.591378 0.754958
v -0.095381 0.024342 0.038601
vn 0.104171 0.149009 0.983333
v 0.091625 0.008171 0.047452
vn 0.065321 0.615341 0.785550
v 0.091625 0.024342 0.038601
vn -0.504512 0.120777 0.854915
v -0.095381 0.008171 0.047452
vn 0.011812 0.815765 0.578263
v 0.091625 0.036513 0.025251
vn -0.355398 0.823773 0.441691
v -0.095381 0.036513 0.025251
vn -0.903385 -0.226694 -0.364014
v -0.095381 -0.043340 -0.048776
vn -0.834104 -0.291597 0.468232
v -0.095381 -0.043340 0.047523
vn -0.454486 0.875587 0.163676
v -0.095381 0.043039 0.008405
vn -0.911345 -0.411643 0.000000
v -0.043719 -0.187267 -0.000627
vn 0.743719 0.657111 0.122835
v 0.091625 0.043039 0.008405
vn 0.884255 -0.246874 -0.396418
v 0.091625 -0.043340 -0.048776
vn 0.878309 -0.252736 0.405831
v 0.091625 -0.043340 0.047523
vn -0.380310 -0.843047 0.380310
v -0.030371 -0.187267 0.030013
vn 0.000000 -0.254898 -0.966968
v -0.001878 -0.187267 -0.042467
vn 0.503394 -0.702265 -0.503406
v 0.026615 -0.187267 -0.031266
vn 0.583261 -0.565344 0.583261
v 0.026615 -0.187267 0.030013
vn 0.000000 -0.143546 0.989644
v -0.001878 -0.187267 0.041214
vn 0.855350 -0.518051 0.000000
v 0.039963 -0.187267 -0.000627
vn -0.577514 -0.577008 -0.577528
v -0.030371 -0.187267 -0.031266
vn -0.000029 0.001358 0.999999
v -0.083762 -0.035643 0.047523
vn 0.000051 0.001160 0.999999
v 0.080006 -0.035643 0.047523
vn 0.000028 0.001291 -0.999999
v 0.080006 -0.035643 -0.048776
vn -0.000049 0.001112 -0.999999
v -0.083762 -0.035643 -0.048776
# 38 vertices, 0 vertices normals

f 26//26 27//27 33//33
f 30//30 26//26 33//33
f 31//31 33//33 27//27
f 32//32 31//31 27//27
f 32//32 5//5 22//22
f 29//29 26//26 30//30
f 4//4 32//32 27//27
f 4//4 5//5 32//32
f 36//36 27//27 16//16
f 21//21 29//29 34//34
f 21//21 34//34 24//24
f 6//6 26//26 2//2
f 26//26 29//29 2//2
f 22//22 24//24 28//28
f 32//32 22//22 28//28
f 18//18 22//22 35//35
f 38//38 6//6 21//21
f 38//38 21//21 8//8
f 1//1 21//21 6//6
f 6//6 2//2 1//1
f 1//1 29//29 21//21
f 1//1 2//2 29//29
f 5//5 4//4 3//3
f 3//3 22//22 5//5
f 3//3 4//4 27//27
f 3//3 27//27 36//36
f 3//3 35//35 22//22
f 3//3 36//36 35//35
f 37//37 7//7 26//26
f 37//37 26//26 6//6
f 6//6 38//38 37//37
f 7//7 8//8 9//9
f 9//9 10//10 7//7
f 11//11 13//13 12//12
f 11//11 12//12 14//14
f 11//11 9//9 13//13
f 11//11 10//10 9//9
f 15//15 16//16 17//17
f 15//15 18//18 16//16
f 20//20 15//15 19//19
f 19//19 15//15 17//17
f 21//21 15//15 20//20
f 21//21 20//20 23//23
f 21//21 9//9 8//8
f 21//21 13//13 9//9
f 21//21 12//12 13//13
f 21//21 22//22 18//18
f 21//21 23//23 12//12
f 18//18 15//15 21//21
f 21//21 24//24 22//22
f 25//25 27//27 26//26
f 17//17 16//16 25//25
f 10//10 11//11 25//25
f 25//25 7//7 10//10
f 25//25 16//16 27//27
f 7//7 25//25 26//26
f 25//25 11//11 14//14
f 25//25 19//19 17//17
f 25//25 12//12 23//23
f 14//14 12//12 25//25
f 23//23 20//20 25//25
f 20//20 19//19 25//25
f 28//28 29//29 30//30
f 28//28 31//31 32//32
f 28//28 30//30 33//33
f 33//33 31//31 28//28
f 34//34 29//29 28//28
f 28//28 24//24 34//34
f 35//35 16//16 18//18
f 35//35 36//36 16//16
f 8//8 7//7 37//37
f 37//37 38//38 8//8
# 72 faces, 0 coords texture

# End of File