####
#
# OBJ File Generated by Meshlab
#
####
# Object r_sh_rx_chull.obj
#
# Vertices: 27
# Faces: 50
#
####
vn 3.230500 0.743953 3.020503
v 0.074592 -0.034534 0.045371
vn 2.768372 2.173810 1.805927
v 0.073779 0.018740 0.021168
vn 4.687189 -2.930536 0.870977
v 0.055889 -0.173240 0.009335
vn 3.856571 -1.510201 3.912741
v 0.055952 -0.135626 0.041997
vn 3.390351 -2.073672 -2.335658
v 0.055855 -0.172476 -0.006319
vn 3.743513 -0.421361 2.899082
v 0.074572 -0.073303 0.045371
vn 0.269121 -0.666179 -6.064140
v 0.000798 -0.127065 -0.031121
vn 4.348248 -0.618415 -2.650391
v 0.075285 -0.068749 -0.014446
vn 0.078142 0.502840 6.040023
v 0.000798 -0.064664 0.061586
vn -0.017470 -0.529337 5.938025
v 0.000798 -0.126994 0.061586
vn 2.548475 2.301169 -2.460136
v 0.068195 0.021038 -0.020802
vn 2.839103 0.668108 -3.543212
v 0.068195 0.001810 -0.028736
vn 2.361417 3.635429 -0.166472
v 0.068195 0.029998 -0.001575
vn -2.770766 -2.741736 -2.095553
v -0.038146 -0.183245 -0.008061
vn -2.049284 -3.069694 2.139919
v -0.029659 -0.187137 0.041524
vn -0.013420 -2.925167 -2.970233
v 0.000798 -0.187249 -0.023259
vn -2.978245 -3.802506 0.226404
v -0.037716 -0.187249 0.015196
vn 1.821056 -3.445000 2.368518
v 0.027990 -0.187249 0.042501
vn -0.008630 -2.868617 2.986898
v 0.000798 -0.187249 0.053795
vn 1.982397 -4.966317 -1.097283
v 0.038408 -0.187164 -0.000065
vn -2.256887 2.895673 -0.068305
v -0.071227 0.037613 -0.000998
vn -2.725160 2.743287 1.400063
v -0.071222 0.027816 0.026825
vn -2.048765 1.611607 2.594505
v -0.069473 0.015809 0.046084
vn -3.725859 -0.529506 2.785706
v -0.071232 -0.072669 0.045495
vn -4.816364 -1.016408 -2.256771
v -0.071229 -0.073045 -0.014355
vn -2.134012 1.918545 -2.052104
v -0.071227 0.027157 -0.026564
vn -2.675203 0.382162 -3.051248
v -0.071122 0.003361 -0.034417
# 27 vertices, 0 vertices normals

f 19//19 6//6 10//10
f 11//11 13//13 2//2
f 12//12 8//8 5//5
f 12//12 5//5 16//16
f 1//1 10//10 6//6
f 1//1 8//8 2//2
f 1//1 6//6 8//8
f 4//4 19//19 18//18
f 4//4 6//6 19//19
f 21//21 22//22 13//13
f 22//22 2//2 13//13
f 8//8 11//11 2//2
f 8//8 12//12 11//11
f 20//20 16//16 5//5
f 10//10 1//1 9//9
f 23//23 1//1 2//2
f 23//23 9//9 1//1
f 23//23 2//2 22//22
f 3//3 18//18 20//20
f 3//3 4//4 18//18
f 3//3 20//20 5//5
f 4//4 3//3 6//6
f 3//3 8//8 6//6
f 8//8 3//3 5//5
f 17//17 15//15 24//24
f 24//24 25//25 17//17
f 24//24 19//19 10//10
f 24//24 15//15 19//19
f 17//17 25//25 14//14
f 7//7 16//16 27//27
f 16//16 7//7 12//12
f 7//7 27//27 12//12
f 10//10 9//9 24//24
f 24//24 9//9 23//23
f 14//14 16//16 17//17
f 27//27 16//16 14//14
f 26//26 11//11 12//12
f 12//12 27//27 26//26
f 13//13 11//11 26//26
f 26//26 21//21 13//13
f 14//14 25//25 27//27
f 17//17 16//16 15//15
f 15//15 18//18 19//19
f 20//20 18//18 15//15
f 15//15 16//16 20//20
f 27//27 25//25 24//24
f 23//23 22//22 24//24
f 24//24 22//22 21//21
f 24//24 26//26 27//27
f 21//21 26//26 24//24
# 50 faces, 0 coords texture

# End of File