####
#
# OBJ File Generated by Meshlab
#
####
# Object r_talus.obj
#
# Vertices: 143
# Faces: 136
#
####
vn 0.001089 -0.000204 -0.999999
v 0.000045 0.000028 -0.009496
vn 0.376085 -0.000209 -0.926585
v 0.000257 0.000028 -0.009425
vn 0.505757 -0.001357 -0.862675
v 0.007057 -0.009734 -0.006592
vn 0.380794 -0.001639 0.924658
v 0.000257 0.000028 0.010269
vn -0.363667 -0.001610 0.931528
v 0.000045 0.000028 0.010341
vn 0.005058 -0.001000 0.999987
v 0.000045 -0.009734 0.010339
vn 0.924623 -0.009177 0.380773
v 0.009951 0.010044 0.000423
vn 0.924623 -0.009177 0.380773
v 0.007061 0.010055 0.007441
vn 0.924623 -0.009177 0.380773
v 0.007059 0.009729 0.007438
vn 0.923901 -0.011204 0.382467
v 0.009963 0.009729 0.000423
vn 0.923866 -0.014170 0.382453
v 0.009968 0.010055 0.000423
vn 0.923901 -0.011204 0.382467
v 0.007059 0.009729 0.007438
vn 0.924543 -0.009670 0.380956
v 0.007055 -0.010004 0.007434
vn 0.999945 -0.010459 0.000000
v 0.009944 -0.009991 0.000423
vn 0.924785 0.008061 0.380405
v 0.007057 -0.009734 0.007436
vn 0.922216 -0.060764 0.381870
v 0.007057 -0.009734 0.007436
vn 0.997836 -0.065746 0.000000
v 0.009944 -0.009991 0.000423
vn 0.997836 -0.065746 0.000000
v 0.009961 -0.009733 0.000423
vn 0.502827 -0.001154 -0.864386
v 0.007059 0.009729 -0.006594
vn 0.707174 -0.012773 -0.706924
v 0.007061 0.010055 -0.006596
vn 0.923890 -0.011093 -0.382497
v 0.009963 0.009729 0.000423
vn 0.923804 -0.014170 -0.382604
v 0.009968 0.010055 0.000423
vn 0.707539 -0.010475 -0.706597
v 0.007055 -0.010004 -0.006590
vn 0.004676 -0.000235 -0.999989
v 0.000045 0.009729 -0.009498
vn 0.000000 -0.018400 -0.999831
v 0.000045 0.010055 -0.009504
vn -0.004855 -0.001513 -0.999987
v 0.000045 -0.009734 -0.009494
vn 0.000000 -0.014494 -0.999895
v 0.000045 -0.010004 -0.009489
vn 0.382686 -0.012508 0.923794
v 0.007061 0.010055 0.007441
vn 0.000000 -0.013539 0.999908
v 0.000045 0.009729 0.010343
vn 0.382628 -0.010850 0.923839
v 0.007059 0.009729 0.007438
vn -0.005056 0.000596 0.999987
v 0.000045 0.009729 0.010343
vn 0.363799 0.001239 0.931476
v 0.000045 0.000028 0.010341
vn 0.381462 0.001099 0.924384
v 0.007059 0.009729 0.007438
vn 0.000000 -0.015334 0.999882
v 0.000045 0.010055 0.010348
vn 0.382508 -0.001897 0.923950
v 0.007057 -0.009734 0.007436
vn 0.000000 -0.022219 0.999753
v 0.000045 -0.009734 0.010339
vn 0.000000 -0.022219 0.999753
v 0.000045 -0.010004 0.010333
vn 0.382438 -0.020530 0.923753
v 0.007057 -0.009734 0.007436
vn 0.000000 -0.010470 0.999945
v 0.000045 -0.010004 0.010333
vn 0.382144 -0.009676 0.924052
v 0.007055 -0.010004 0.007434
vn 0.367575 0.002411 0.929991
v 0.000257 0.000028 0.010269
vn 0.021682 0.499886 0.865820
v 0.007025 0.007351 0.007453
vn 0.004736 -0.078634 0.996892
v 0.000572 0.000028 0.010181
vn 0.383512 -0.000870 0.923535
v 0.007057 -0.009734 0.007436
vn 0.691327 -0.003444 0.722534
v 0.007024 -0.007297 0.007452
vn -0.922216 0.060764 -0.381870
v 0.007057 -0.009734 0.007436
vn -0.997742 0.065740 0.013752
v 0.009961 -0.009733 0.000423
vn -0.997742 0.065740 0.013752
v 0.009944 -0.009991 0.000423
vn 0.924794 0.010026 0.380337
v 0.009944 -0.009991 0.000423
vn 0.923912 0.010000 -0.382473
v 0.009961 -0.009733 0.000423
vn 0.102096 -0.481723 -0.870356
v 0.007024 -0.007297 -0.006608
vn -0.913470 0.060188 0.402429
v 0.007024 -0.007297 -0.006608
vn 0.004790 0.078466 -0.996905
v 0.000572 0.000028 -0.009336
vn 0.147104 0.682004 -0.716402
v 0.007025 0.007351 -0.006609
vn -0.923426 -0.035178 0.382162
v 0.007059 0.009729 -0.006594
vn -0.999236 -0.038066 -0.008863
v 0.009963 0.009729 0.000423
vn -0.045713 0.932866 0.357312
v 0.009951 0.010044 0.000423
vn 0.387501 0.795487 -0.465881
v 0.009951 0.010044 0.000423
vn 0.923905 -0.010797 0.382469
v 0.007025 0.007351 0.007453
vn 0.823853 0.045257 0.564994
v 0.014861 0.000028 0.010181
vn 0.000293 0.770967 0.636876
v 0.014861 0.007351 0.007453
vn 0.000000 -0.533354 0.845892
v 0.014861 -0.007297 0.007452
vn 0.000342 -0.770940 0.636907
v 0.007024 -0.007297 0.007452
vn 0.000781 -0.985861 0.167561
v 0.014861 -0.009984 0.000423
vn 0.000781 -0.985937 -0.167118
v 0.009944 -0.009991 0.000423
vn 0.891710 -0.348956 -0.288242
v 0.014861 -0.007297 -0.006608
vn 0.000000 -0.079956 -0.996798
v 0.014861 0.000028 -0.009336
vn 0.000000 0.533366 -0.845885
v 0.014861 0.007351 -0.006609
vn 0.000670 0.985859 -0.167575
v 0.014861 0.010038 0.000423
vn 1.000000 0.000000 0.000000
v 0.014861 0.007351 0.007453
vn 1.000000 0.000000 0.000000
v 0.014861 0.007351 -0.006609
vn 1.000000 0.000000 0.000000
v 0.014861 0.010038 0.000423
vn 1.000000 0.000000 0.000000
v 0.014861 0.000028 -0.009336
vn 1.000000 0.000000 0.000000
v 0.014861 -0.007297 0.007452
vn 1.000000 0.000000 0.000000
v 0.014861 -0.009984 0.000423
vn -0.356107 -0.005163 0.934431
v -0.000167 0.000028 0.010269
vn -0.573158 -0.046033 0.818151
v -0.006967 -0.009734 0.007436
vn -0.376026 -0.000208 -0.926609
v -0.000167 0.000028 -0.009425
vn -0.999758 0.022007 0.000000
v -0.009866 0.010047 0.000423
vn -0.705630 -0.003591 -0.708572
v -0.006971 0.010055 -0.006596
vn -0.999758 0.022007 0.000000
v -0.009873 0.009729 0.000423
vn -0.951034 -0.010628 -0.308904
v -0.009873 0.009729 0.000423
vn -0.499281 -0.001134 -0.866439
v -0.006969 0.009729 -0.006594
vn -0.707502 -0.010475 -0.706633
v -0.006965 -0.010004 -0.006590
vn -0.999367 -0.035566 0.000000
v -0.009855 -0.009992 0.000423
vn -0.509395 -0.001315 -0.860532
v -0.006967 -0.009734 -0.006592
vn -0.946340 -0.001803 0.323168
v -0.009871 -0.009733 0.000423
vn -0.924872 -0.010632 0.380131
v -0.006969 0.009729 0.007438
vn -0.924185 0.005396 0.381907
v -0.006971 0.010055 0.007441
vn -0.923952 0.008039 0.382424
v -0.006967 -0.009734 0.007436
vn -0.924496 -0.009671 0.381069
v -0.006965 -0.010004 0.007434
vn -0.382875 0.001130 0.923799
v -0.006969 0.009729 0.007438
vn -0.381462 0.001099 0.924384
v -0.000167 0.000028 0.010269
vn -0.382686 -0.012508 0.923794
v -0.006971 0.010055 0.007441
vn 0.657363 -0.090022 0.748178
v -0.006969 0.009729 0.007438
vn -0.382697 -0.000524 0.923874
v -0.006967 -0.009734 0.007436
vn -0.382144 -0.009676 0.924052
v -0.006965 -0.010004 0.007434
vn -0.099974 0.482774 -0.870020
v -0.006935 0.007351 -0.006609
vn -0.004790 -0.078605 -0.996894
v -0.000482 0.000028 -0.009336
vn -0.150041 -0.680117 -0.717585
v -0.006934 -0.007297 -0.006608
vn 0.922019 0.064832 0.381679
v -0.006967 -0.009734 -0.006592
vn 0.997432 0.070134 -0.014514
v -0.009871 -0.009733 0.000423
vn 0.997432 0.070134 -0.014514
v -0.009853 -0.009989 0.000423
vn -0.136190 -0.984404 0.111363
v -0.009853 -0.009989 0.000423
vn -0.714731 0.005087 0.699381
v -0.006934 -0.007297 0.007452
vn 0.005300 -0.530676 0.847558
v -0.006934 -0.007297 0.007452
vn -0.004737 0.078495 0.996903
v -0.000482 0.000028 0.010181
vn -0.383840 0.000337 0.923400
v -0.006935 0.007351 0.007453
vn -0.004859 0.763812 0.645420
v -0.006935 0.007351 0.007453
vn 0.997823 -0.064584 0.013349
v -0.009873 0.009729 0.000423
vn 0.997823 -0.064584 0.013349
v -0.009853 0.010038 0.000423
vn -0.925002 -0.010830 0.379809
v -0.009853 0.010038 0.000423
vn -0.925002 -0.010830 0.379809
v -0.006935 0.007351 0.007453
vn 0.913816 -0.059147 0.401798
v -0.006935 0.007351 -0.006609
vn 0.000000 0.079817 -0.996810
v -0.014771 0.000028 -0.009336
vn -0.891810 0.348756 -0.288175
v -0.014771 0.007351 -0.006609
vn -0.545123 -0.447122 -0.709170
v -0.014771 -0.007297 -0.006608
vn -0.287636 -0.944225 -0.160327
v -0.014771 -0.009984 0.000423
vn -0.000244 -0.771004 0.636830
v -0.014771 -0.007297 0.007452
vn -0.823818 -0.045340 0.565039
v -0.014771 0.000028 0.010181
vn 0.000000 0.533387 0.845871
v -0.014771 0.007351 0.007453
vn -0.001006 0.985809 0.167869
v -0.014771 0.010038 0.000423
vn -0.001006 0.985905 -0.167304
v -0.009866 0.010047 0.000423
vn -1.000000 0.000000 0.000000
v -0.014771 0.007351 0.007453
vn -1.000000 0.000000 0.000000
v -0.014771 0.010038 0.000423
vn -1.000000 0.000000 0.000000
v -0.014771 0.000028 -0.009336
vn -1.000000 0.000000 0.000000
v -0.014771 -0.007297 0.007452
vn 0.000555 1.000000 0.000000
v 0.007061 0.010055 -0.006596
vn 0.001110 0.999999 0.000000
v 0.007061 0.010055 0.007441
vn 0.003806 0.999993 0.000000
v 0.009951 0.010044 0.000423
vn 0.000000 1.000000 0.000000
v 0.000045 0.010055 0.010348
vn 0.000000 1.000000 0.000000
v 0.000045 0.010055 -0.009504
vn -0.000403 1.000000 0.000000
v -0.006971 0.010055 0.007441
vn -0.000807 1.000000 0.000000
v -0.006971 0.010055 -0.006596
vn -0.002763 0.999996 0.000000
v -0.009866 0.010047 0.000423
vn 0.000025 -0.999999 0.001522
v 0.007055 -0.010004 -0.006590
vn 0.000000 -0.999999 0.001211
v -0.006965 -0.010004 -0.006590
vn 0.000000 -1.000000 0.000000
v 0.000045 -0.010004 -0.009489
vn 0.000037 -1.000000 0.000485
v -0.009855 -0.009992 0.000423
vn 0.000037 -1.000000 -0.000448
v 0.009944 -0.009991 0.000423
vn 0.000025 -0.999999 -0.001522
v -0.006965 -0.010004 0.007434
vn 0.000000 -0.999999 -0.001312
v 0.007055 -0.010004 0.007434
vn 0.000000 -1.000000 0.000000
v 0.000045 -0.010004 0.010333
# 143 vertices, 0 vertices normals

f 1//1 2//2 3//3
f 4//4 5//5 6//6
f 7//7 8//8 9//9
f 10//10 11//11 12//12
f 13//13 14//14 15//15
f 16//16 17//17 18//18
f 19//19 20//20 21//21
f 21//21 20//20 22//22
f 18//18 17//17 3//3
f 3//3 14//14 23//23
f 24//24 19//19 2//2
f 25//25 20//20 24//24
f 24//24 20//20 19//19
f 3//3 26//26 1//1
f 23//23 27//27 3//3
f 3//3 27//27 26//26
f 28//28 29//29 30//30
f 31//31 32//32 33//33
f 34//34 29//29 28//28
f 6//6 35//35 4//4
f 36//36 37//37 38//38
f 35//35 39//39 40//40
f 2//2 1//1 24//24
f 32//32 41//41 33//33
f 42//42 33//33 41//41
f 41//41 43//43 42//42
f 41//41 44//44 45//45
f 45//45 43//43 41//41
f 46//46 47//47 48//48
f 49//49 45//45 15//15
f 50//50 3//3 51//51
f 52//52 48//48 47//47
f 51//51 3//3 2//2
f 2//2 53//53 51//51
f 2//2 19//19 54//54
f 54//54 53//53 2//2
f 55//55 56//56 57//57
f 58//58 54//54 19//19
f 10//10 12//12 59//59
f 42//42 57//57 56//56
f 42//42 60//60 61//61
f 42//42 43//43 60//60
f 43//43 62//62 60//60
f 43//43 63//63 62//62
f 63//63 64//64 62//62
f 63//63 65//65 64//64
f 65//65 66//66 64//64
f 65//65 51//51 66//66
f 51//51 67//67 66//66
f 51//51 53//53 67//67
f 53//53 68//68 67//67
f 53//53 54//54 68//68
f 54//54 69//69 68//68
f 54//54 58//58 69//69
f 57//57 61//61 69//69
f 57//57 42//42 61//61
f 70//70 71//71 72//72
f 70//70 73//73 71//71
f 60//60 73//73 70//70
f 60//60 66//66 73//73
f 74//74 66//66 60//60
f 74//74 75//75 66//66
f 5//5 76//76 77//77
f 78//78 1//1 26//26
f 79//79 80//80 81//81
f 82//82 80//80 83//83
f 84//84 85//85 86//86
f 86//86 85//85 87//87
f 88//88 89//89 82//82
f 81//81 89//89 79//79
f 87//87 85//85 77//77
f 90//90 85//85 91//91
f 31//31 92//92 93//93
f 34//34 94//94 29//29
f 29//29 94//94 95//95
f 96//96 6//6 5//5
f 97//97 39//39 96//96
f 77//77 37//37 36//36
f 80//80 24//24 83//83
f 24//24 1//1 83//83
f 25//25 24//24 80//80
f 26//26 86//86 78//78
f 26//26 27//27 86//86
f 86//86 27//27 84//84
f 93//93 32//32 31//31
f 1//1 78//78 83//83
f 98//98 83//83 78//78
f 78//78 99//99 98//98
f 78//78 86//86 100//100
f 100//100 99//99 78//78
f 101//101 102//102 103//103
f 104//104 100//100 86//86
f 87//87 90//90 105//105
f 106//106 103//103 102//102
f 105//105 96//96 76//76
f 76//76 107//107 106//106
f 93//93 92//92 108//108
f 109//109 107//107 76//76
f 95//95 110//110 111//111
f 112//112 113//113 88//88
f 82//82 83//83 98//98
f 114//114 111//111 110//110
f 98//98 115//115 116//116
f 98//98 99//99 115//115
f 99//99 117//117 115//115
f 99//99 100//100 117//117
f 100//100 118//118 117//117
f 100//100 104//104 118//118
f 104//104 119//119 118//118
f 104//104 106//106 119//119
f 106//106 120//120 119//119
f 106//106 107//107 120//120
f 107//107 121//121 120//120
f 107//107 109//109 121//121
f 109//109 122//122 121//121
f 109//109 123//123 122//122
f 123//123 116//116 122//122
f 123//123 98//98 116//116
f 116//116 124//124 125//125
f 116//116 120//120 124//124
f 126//126 120//120 116//116
f 126//126 127//127 120//120
f 117//117 127//127 126//126
f 117//117 118//118 127//127
f 128//128 129//129 130//130
f 128//128 131//131 129//129
f 132//132 131//131 128//128
f 132//132 133//133 131//131
f 134//134 133//133 132//132
f 134//134 135//135 133//133
f 136//136 137//137 138//138
f 136//136 139//139 137//137
f 140//140 139//139 136//136
f 140//140 141//141 139//139
f 142//142 141//141 140//140
f 142//142 143//143 141//141
# 136 faces, 0 coords texture

# End of File