####
#
# OBJ File Generated by Meshlab
#
####
# Object r_talus_chull.obj
#
# Vertices: 31
# Faces: 58
#
####
vn -0.000000 0.000748 1.000000
v 0.000045 -0.009734 -0.009494
vn 0.000000 0.000748 -1.000000
v 0.000045 -0.009734 0.010339
vn -0.956641 -0.181283 0.227978
v 0.014861 0.007351 -0.006609
vn -0.722546 0.430254 0.541119
v 0.014861 -0.007297 -0.006608
vn -0.789474 0.613784 0.000000
v 0.014861 -0.009984 0.000423
vn -0.872687 0.303886 -0.382191
v 0.014861 -0.007297 0.007452
vn -0.511789 0.000396 -0.859111
v 0.014861 0.000028 0.010181
vn -0.191501 0.000452 0.981492
v 0.014861 0.000028 -0.009336
vn -0.719009 -0.432527 -0.544009
v 0.014861 0.007351 0.007453
vn -0.391900 -0.920008 -0.000000
v 0.014861 0.010038 0.000423
vn 0.956641 -0.181283 0.227978
v -0.014771 0.007351 -0.006609
vn 0.327543 -0.944836 0.000000
v -0.014771 0.010038 0.000423
vn 0.719009 -0.432527 -0.544009
v -0.014771 0.007351 0.007453
vn 0.511789 0.000396 -0.859111
v -0.014771 0.000028 0.010181
vn 0.722546 0.430254 0.541119
v -0.014771 -0.007297 -0.006608
vn 0.191501 0.000452 0.981492
v -0.014771 0.000028 -0.009336
vn 0.872687 0.303886 -0.382191
v -0.014771 -0.007297 0.007452
vn 0.789474 0.613784 0.000000
v -0.014771 -0.009984 0.000423
vn 0.040870 0.997348 0.060222
v -0.006965 -0.010004 -0.006590
vn -0.063479 0.993590 0.093538
v 0.007055 -0.010004 -0.006590
vn 0.000000 0.536354 0.843993
v 0.000045 -0.010004 -0.009489
vn 0.000000 0.810413 -0.585859
v 0.000045 -0.010004 0.010333
vn -0.051644 0.995761 -0.076113
v 0.007055 -0.010004 0.007434
vn 0.093648 0.985992 -0.138019
v -0.006965 -0.010004 0.007434
vn 0.038408 -0.997656 0.056630
v -0.006971 0.010055 -0.006596
vn -0.068513 -0.992462 -0.101611
v 0.007061 0.010055 0.007441
vn -0.000779 -1.000000 0.000000
v 0.009968 0.010055 0.000423
vn -0.105383 -0.982078 0.156262
v 0.007061 0.010055 -0.006596
vn 0.093491 -0.986027 -0.137874
v -0.006971 0.010055 0.007441
vn 0.000000 -0.396938 -0.917846
v 0.000045 0.010055 0.010348
vn -0.000000 -0.194543 0.980894
v 0.000045 0.010055 -0.009504
# 31 vertices, 0 vertices normals

f 15//15 21//21 16//16
f 6//6 5//5 23//23
f 6//6 22//22 7//7
f 6//6 23//23 22//22
f 21//21 4//4 8//8
f 8//8 31//31 1//1
f 1//1 21//21 8//8
f 1//1 16//16 21//21
f 1//1 31//31 16//16
f 14//14 13//13 30//30
f 14//14 22//22 17//17
f 2//2 30//30 7//7
f 7//7 22//22 2//2
f 2//2 14//14 30//30
f 22//22 14//14 2//2
f 4//4 20//20 5//5
f 20//20 4//4 21//21
f 23//23 5//5 20//20
f 7//7 30//30 9//9
f 3//3 31//31 8//8
f 12//12 29//29 13//13
f 30//30 13//13 29//29
f 16//16 31//31 11//11
f 24//24 18//18 17//17
f 17//17 22//22 24//24
f 18//18 19//19 15//15
f 19//19 21//21 15//15
f 19//19 18//18 24//24
f 26//26 10//10 9//9
f 26//26 9//9 30//30
f 26//26 27//27 10//10
f 28//28 3//3 10//10
f 31//31 3//3 28//28
f 27//27 28//28 10//10
f 11//11 25//25 12//12
f 25//25 11//11 31//31
f 25//25 29//29 12//12
f 3//3 4//4 5//5
f 5//5 6//6 3//3
f 3//3 6//6 7//7
f 3//3 8//8 4//4
f 3//3 9//9 10//10
f 7//7 9//9 3//3
f 11//11 12//12 13//13
f 13//13 14//14 11//11
f 11//11 15//15 16//16
f 11//11 14//14 17//17
f 11//11 18//18 15//15
f 17//17 18//18 11//11
f 19//19 20//20 21//21
f 19//19 22//22 23//23
f 23//23 20//20 19//19
f 19//19 24//24 22//22
f 27//27 26//26 25//25
f 25//25 28//28 27//27
f 30//30 29//29 25//25
f 25//25 26//26 30//30
f 31//31 28//28 25//25
# 58 faces, 0 coords texture

# End of File