####
#
# OBJ File Generated by Meshlab
#
####
# Object r_uarm_chull.obj
#
# Vertices: 45
# Faces: 86
#
####
vn 0.724071 0.199776 0.660160
v -0.044134 -0.133318 -0.034711
vn 0.849857 -0.028730 0.526229
v -0.044133 -0.116692 -0.036252
vn 0.999985 0.005485 -0.000000
v -0.045202 -0.116677 -0.003915
vn -0.725803 0.188248 0.661644
v 0.044601 -0.133318 -0.034711
vn -0.738743 -0.027132 0.673441
v 0.044601 -0.116692 -0.036252
vn -0.834244 -0.193070 -0.516489
v 0.044601 -0.100631 0.049662
vn 0.835972 -0.182230 -0.517632
v -0.044133 -0.100631 0.049662
vn -0.212564 0.061604 0.975203
v 0.012668 -0.116677 -0.047616
vn -0.305045 -0.021711 0.952090
v 0.012668 -0.000334 -0.047616
vn 0.030092 -0.067661 0.997254
v -0.003959 -0.000334 -0.049157
vn 0.097929 0.251637 0.962855
v -0.003959 -0.116677 -0.049157
vn -0.368494 0.913826 0.170685
v 0.044601 -0.165546 0.000642
vn 0.465244 0.870112 0.162645
v -0.044133 -0.165546 0.000642
vn 0.279349 0.943841 -0.176434
v -0.044133 -0.165546 0.017338
vn -0.492711 0.855375 -0.159904
v 0.044601 -0.165546 0.017338
vn -0.277830 0.816754 -0.505691
v 0.044601 -0.159514 0.032909
vn 0.527814 0.722149 -0.447116
v -0.044134 -0.159514 0.032909
vn -0.501518 0.521346 -0.690419
v 0.044601 -0.148265 0.045249
vn 0.310266 0.572871 -0.758653
v -0.044133 -0.148265 0.045249
vn -0.999994 0.001408 -0.003310
v 0.044895 -0.116677 0.004432
vn -0.999978 0.002060 0.006349
v 0.044895 -0.116677 -0.012264
vn 0.365876 -0.109422 0.924209
v -0.020018 -0.000334 -0.044587
vn 0.305795 0.015244 0.951975
v -0.020018 -0.116677 -0.044587
vn -0.994343 -0.062013 0.086233
v 0.044895 -0.000334 -0.012264
vn -0.991284 -0.113596 -0.066726
v 0.044895 -0.000334 0.004432
vn -0.170952 -0.958919 0.226383
v 0.027615 -0.000334 -0.040174
vn 0.662446 -0.703771 -0.256655
v -0.042134 -0.000334 0.012497
vn 0.489247 -0.749476 -0.446009
v -0.033343 -0.000334 0.026694
vn -0.724083 -0.524159 -0.448287
v 0.038863 -0.000334 0.020003
vn -0.475025 -0.589710 -0.653141
v 0.027615 -0.000334 0.032343
vn 0.678148 -0.397316 0.618267
v -0.033343 -0.000334 -0.034526
vn -0.845463 -0.105777 0.523454
v 0.038863 -0.000334 -0.027835
vn -0.211570 -0.634223 -0.743639
v 0.012668 -0.000334 0.039786
vn 0.321232 -0.694322 -0.643993
v -0.020018 -0.000334 0.036757
vn 0.812614 -0.490458 0.314815
v -0.042134 -0.000334 -0.020329
vn 0.023722 -0.308582 -0.950902
v -0.003959 -0.000334 0.041326
vn 0.983987 -0.178226 0.002181
v -0.045202 -0.000334 -0.003915
vn 0.230126 0.827408 0.512287
v -0.044134 -0.159514 -0.014929
vn -0.391025 0.782533 0.484502
v 0.044601 -0.159514 -0.014929
vn -0.150688 0.618948 0.770841
v 0.044601 -0.148265 -0.027269
vn 0.232509 0.587482 0.775115
v -0.044133 -0.148265 -0.027269
vn -0.275622 0.263028 -0.924580
v 0.044601 -0.133318 0.052690
vn 0.549079 0.228689 -0.803874
v -0.044134 -0.133318 0.052690
vn 0.492635 -0.076018 -0.866909
v -0.044133 -0.116692 0.054231
vn -0.454687 -0.102522 -0.884731
v 0.044601 -0.116692 0.054231
# 45 vertices, 0 vertices normals

f 37//37 44//44 3//3
f 36//36 45//45 44//44
f 2//2 37//37 3//3
f 3//3 14//14 13//13
f 8//8 5//5 9//9
f 17//17 14//14 3//3
f 17//17 3//3 19//19
f 12//12 21//21 39//39
f 40//40 39//39 21//21
f 40//40 8//8 11//11
f 40//40 11//11 41//41
f 36//36 33//33 45//45
f 33//33 30//30 45//45
f 34//34 36//36 44//44
f 20//20 45//45 25//25
f 20//20 16//16 18//18
f 20//20 15//15 16//16
f 43//43 3//3 44//44
f 43//43 19//19 3//3
f 22//22 31//31 2//2
f 23//23 22//22 2//2
f 35//35 37//37 2//2
f 31//31 35//35 2//2
f 24//24 32//32 5//5
f 24//24 5//5 21//21
f 26//26 9//9 5//5
f 5//5 32//32 26//26
f 1//1 2//2 3//3
f 3//3 41//41 1//1
f 1//1 23//23 2//2
f 11//11 23//23 1//1
f 1//1 41//41 11//11
f 13//13 38//38 3//3
f 38//38 41//41 3//3
f 4//4 21//21 5//5
f 4//4 40//40 21//21
f 5//5 8//8 4//4
f 40//40 4//4 8//8
f 6//6 29//29 25//25
f 6//6 25//25 45//45
f 6//6 30//30 29//29
f 45//45 30//30 6//6
f 7//7 37//37 27//27
f 7//7 44//44 37//37
f 7//7 27//27 28//28
f 7//7 28//28 34//34
f 7//7 34//34 44//44
f 45//45 20//20 42//42
f 42//42 20//20 18//18
f 8//8 9//9 10//10
f 8//8 10//10 11//11
f 12//12 13//13 14//14
f 12//12 14//14 15//15
f 14//14 16//16 15//15
f 17//17 16//16 14//14
f 16//16 19//19 18//18
f 16//16 17//17 19//19
f 20//20 12//12 15//15
f 12//12 20//20 21//21
f 22//22 11//11 10//10
f 22//22 23//23 11//11
f 24//24 21//21 20//20
f 24//24 20//20 25//25
f 28//28 27//27 26//26
f 26//26 29//29 30//30
f 10//10 9//9 26//26
f 22//22 26//26 31//31
f 32//32 24//24 26//26
f 30//30 33//33 26//26
f 26//26 34//34 28//28
f 26//26 35//35 31//31
f 25//25 29//29 26//26
f 26//26 33//33 36//36
f 26//26 27//27 37//37
f 36//36 34//34 26//26
f 26//26 22//22 10//10
f 37//37 35//35 26//26
f 26//26 24//24 25//25
f 12//12 38//38 13//13
f 38//38 12//12 39//39
f 39//39 40//40 38//38
f 38//38 40//40 41//41
f 42//42 43//43 44//44
f 42//42 44//44 45//45
f 42//42 18//18 19//19
f 19//19 43//43 42//42
# 86 faces, 0 coords texture

# End of File