####
#
# OBJ File Generated by Meshlab
#
####
# Object r_uleg_chull.obj
#
# Vertices: 184
# Faces: 364
#
####
vn -0.716894 0.614139 -0.329994
v 0.060280 -0.095139 -0.093604
vn -0.936519 0.224197 0.269570
v 0.053947 -0.047089 -0.267447
vn -0.200271 0.787218 0.583249
v -0.010622 -0.066614 -0.351257
vn -0.445340 0.689485 0.571212
v 0.008941 -0.055548 -0.354541
vn -0.589873 0.525839 0.612816
v 0.016917 -0.046762 -0.356005
vn -0.306005 0.890960 0.335485
v 0.013450 -0.079428 -0.300453
vn -0.316900 0.737292 0.596636
v -0.000708 -0.061415 -0.352898
vn -0.763785 0.201095 0.613346
v 0.027483 -0.024033 -0.358059
vn -0.626779 0.354094 0.694093
v 0.022955 -0.036061 -0.357177
vn -0.911750 0.252331 0.324099
v 0.041028 -0.043049 -0.308834
vn -0.944551 0.113136 0.308259
v 0.042385 -0.026460 -0.312202
vn -0.885782 -0.182861 -0.426558
v 0.014552 0.026971 0.008794
vn 0.728812 0.475368 -0.492807
v -0.092746 -0.078167 -0.071025
vn 0.847610 0.520096 -0.105159
v -0.099105 -0.076000 -0.110567
vn 0.983285 0.087112 -0.159882
v -0.110213 -0.033852 -0.089019
vn 0.205783 -0.954639 -0.215215
v -0.054396 0.066124 -0.101437
vn 0.751427 -0.387547 -0.534008
v -0.104161 0.028294 -0.092662
vn 0.781872 -0.085996 -0.617480
v -0.111722 -0.008572 -0.089312
vn 0.828454 -0.219492 -0.515255
v -0.108898 0.012717 -0.091826
vn 0.314674 0.941617 0.119739
v -0.068843 -0.099268 -0.199578
vn 0.522321 0.847055 0.098385
v -0.084927 -0.093136 -0.192997
vn -0.902450 0.108039 -0.417027
v 0.075382 -0.078210 -0.099969
vn -0.202632 0.939637 -0.275723
v 0.031642 -0.109906 -0.088904
vn 0.115993 0.948247 -0.295588
v -0.045092 -0.107323 -0.075695
vn -0.484587 0.840835 -0.241188
v 0.047771 -0.106004 -0.091712
vn -0.128541 0.954455 0.269245
v 0.004948 -0.093949 -0.258807
vn -0.960106 0.086137 0.266041
v 0.055870 -0.028478 -0.269559
vn -0.965979 -0.142778 0.215637
v 0.062869 -0.006408 -0.241936
vn 0.478003 0.876262 -0.060648
v -0.073824 -0.101247 -0.111377
vn 0.523796 0.851810 0.007559
v -0.081592 -0.097990 -0.153374
vn 0.698481 0.709106 -0.096397
v -0.089966 -0.090008 -0.110765
vn 0.554129 0.720992 -0.416067
v -0.075450 -0.094087 -0.069541
vn 0.313977 0.883795 -0.346879
v -0.061118 -0.103627 -0.072206
vn 0.937828 0.339925 -0.070203
v -0.112736 -0.053619 -0.145552
vn 0.885098 0.461631 0.059152
v -0.108663 -0.068372 -0.178871
vn 0.933447 0.288954 0.212560
v -0.100741 -0.074129 -0.211884
vn 0.890032 0.450127 -0.072306
v -0.105514 -0.073070 -0.148730
vn 0.726478 0.686053 0.039503
v -0.096897 -0.086457 -0.151631
vn 0.988994 0.124423 -0.080064
v -0.116020 -0.031864 -0.143001
vn 0.978903 0.145806 0.143144
v -0.115386 -0.049256 -0.165300
vn 0.984849 0.143160 -0.097865
v -0.113073 -0.032867 -0.110858
vn 0.993695 -0.004419 -0.112034
v -0.116834 -0.007944 -0.118986
vn 0.673809 -0.592922 -0.440936
v -0.096359 0.040080 -0.094040
vn 0.581048 -0.768845 -0.266948
v -0.085738 0.051544 -0.095913
vn 0.757189 -0.649564 -0.068781
v -0.100483 0.039509 -0.126140
vn 0.899962 -0.424559 -0.099085
v -0.108738 0.028061 -0.122229
vn 0.972565 -0.223698 -0.063850
v -0.112847 0.011630 -0.119712
vn 0.726082 -0.686690 -0.035532
v -0.102728 0.040102 -0.162655
vn 0.089885 -0.969325 -0.228758
v -0.034902 0.069854 -0.104873
vn 0.357106 -0.914512 -0.190114
v -0.071574 0.060578 -0.098410
vn -0.037765 0.935228 0.352027
v -0.027569 -0.071802 -0.348352
vn 0.247981 0.836459 0.488715
v -0.045152 -0.072900 -0.342005
vn -0.189533 0.981045 0.040362
v 0.028699 -0.111549 -0.126958
vn -0.015263 0.978172 0.207238
v -0.007005 -0.107314 -0.210528
vn -0.056792 0.994882 0.083568
v 0.001261 -0.111828 -0.163729
vn 0.133035 0.988698 0.069126
v -0.042080 -0.110193 -0.156086
vn 0.244320 0.969119 -0.033411
v -0.055205 -0.109136 -0.112164
vn 0.312061 0.948150 0.060239
v -0.062903 -0.106663 -0.154529
vn 0.105748 0.982726 0.151879
v -0.028344 -0.106547 -0.206766
vn 0.185555 0.971598 0.146855
v -0.049210 -0.103789 -0.203087
vn 0.522148 0.830596 0.193577
v -0.082017 -0.082589 -0.260699
vn 0.342701 0.924964 0.164312
v -0.072439 -0.091951 -0.245162
vn 0.806102 0.549583 0.219448
v -0.089321 -0.082160 -0.241636
vn 0.686807 0.646818 0.331546
v -0.068351 -0.079022 -0.303638
vn 0.511062 0.750938 0.418220
v -0.059804 -0.076745 -0.323735
vn 0.731584 0.617454 0.289026
v -0.074739 -0.081620 -0.283286
vn 0.098251 0.969271 0.225521
v -0.058001 -0.085771 -0.294501
vn -0.694998 -0.005205 0.718993
v 0.028771 -0.008902 -0.358319
vn 0.952890 -0.286647 0.099171
v -0.104031 0.035713 -0.195585
vn 0.678930 -0.683949 0.266959
v -0.065124 0.059652 -0.317669
vn 0.978293 -0.051091 0.200827
v -0.117882 -0.008985 -0.160580
vn 0.982960 0.041613 0.179045
v -0.117537 -0.030160 -0.161793
vn 0.970183 -0.158694 0.183195
v -0.107187 0.025726 -0.188898
vn 0.989531 -0.142880 -0.020337
v -0.117919 -0.008827 -0.141696
vn 0.945495 -0.325222 0.016428
v -0.109568 0.030153 -0.153224
vn -0.992155 0.089459 0.087323
v 0.080815 -0.033852 -0.121681
vn -0.999855 -0.007387 -0.015326
v 0.082144 -0.007944 -0.125511
vn -0.915309 -0.053363 -0.399200
v 0.078817 -0.057579 -0.110281
vn -0.969868 0.184489 0.159122
v 0.071593 -0.053619 -0.178244
vn -0.981828 0.149579 0.116793
v 0.076963 -0.055685 -0.135468
vn -0.984241 0.094851 0.149239
v 0.074225 -0.031864 -0.176594
vn -0.978247 0.078379 0.192064
v 0.066045 -0.030611 -0.223409
vn -0.957408 0.203422 0.204911
v 0.063676 -0.051367 -0.222991
vn -0.923634 0.358481 0.135614
v 0.071765 -0.076034 -0.136681
vn -0.881306 -0.359372 -0.306843
v 0.075859 0.028441 -0.124404
vn -0.646024 -0.756309 -0.103198
v 0.058034 0.052364 -0.121265
vn -0.976846 -0.057367 0.206108
v 0.067183 -0.008547 -0.223610
vn -0.983220 -0.034360 0.179159
v 0.072092 -0.006362 -0.197913
vn -0.193382 0.974278 0.115694
v 0.021362 -0.108897 -0.169387
vn -0.209915 0.957743 0.196631
v 0.013387 -0.104359 -0.214124
vn -0.718480 0.671480 0.181384
v 0.054578 -0.089772 -0.178456
vn -0.892335 0.415544 0.176244
v 0.065689 -0.073097 -0.179343
vn -0.750108 0.654312 0.095987
v 0.061318 -0.093292 -0.135952
vn -0.456150 0.874822 0.163135
v 0.039317 -0.102823 -0.174693
vn -0.869467 0.442543 0.219507
v 0.057948 -0.069875 -0.221981
vn -0.468289 0.877735 0.101424
v 0.046528 -0.106045 -0.132231
vn -0.644725 0.707882 0.288501
v 0.038269 -0.078019 -0.261989
vn -0.690386 0.686721 0.227555
v 0.046945 -0.085715 -0.220041
vn -0.835540 0.471143 0.282661
v 0.048826 -0.063754 -0.264749
vn -0.591574 0.721589 0.359651
v 0.027712 -0.070389 -0.301128
vn -0.794178 0.488439 0.361536
v 0.037071 -0.057844 -0.304618
vn -0.384009 0.878899 0.282973
v 0.022980 -0.089184 -0.260192
vn -0.464460 0.855057 0.230551
v 0.031571 -0.098319 -0.217330
vn 0.150594 -0.988384 -0.020466
v -0.045375 0.069872 -0.177676
vn -0.039573 -0.965661 -0.256773
v -0.014187 0.071421 -0.108526
vn 0.035977 0.998801 -0.033213
v -0.012784 -0.113711 -0.116903
vn 0.049661 0.996570 0.066201
v -0.020235 -0.111678 -0.158921
vn -0.045709 0.998922 0.008034
v 0.008626 -0.114139 -0.121526
vn 0.101562 0.994593 -0.021660
v -0.034483 -0.112410 -0.113924
vn -0.067846 0.955871 -0.285845
v 0.013081 -0.111761 -0.085630
vn -0.009872 0.952365 -0.304802
v -0.006697 -0.110967 -0.082143
vn 0.040913 0.954629 -0.294973
v -0.026475 -0.109939 -0.078656
vn 0.141214 -0.953116 0.267636
v -0.037847 0.063262 -0.343661
vn 0.329707 -0.926820 0.179714
v -0.054060 0.062187 -0.333578
vn -0.938497 -0.210368 0.273803
v 0.048714 0.013688 -0.282081
vn -0.960171 -0.070587 0.270349
v 0.056734 -0.008769 -0.270565
vn -0.955544 -0.185735 0.228996
v 0.059884 0.014562 -0.241006
vn -0.867659 -0.423281 0.260768
v 0.044427 0.031809 -0.281696
vn -0.807561 -0.261567 0.528609
v 0.023530 0.025005 -0.357382
vn -0.830427 -0.151941 0.536009
v 0.026875 0.010024 -0.357321
vn -0.914013 -0.338198 0.224060
v 0.055666 0.033100 -0.240572
vn -0.734075 -0.670268 0.108974
v 0.055746 0.043902 -0.195872
vn -0.798049 -0.579837 -0.164032
v 0.068416 0.040630 -0.123095
vn -0.966661 -0.210194 0.146234
v 0.075683 0.012777 -0.159132
vn -0.929104 -0.117271 -0.350733
v 0.080525 0.012754 -0.125226
vn -0.990106 0.005768 0.140205
v 0.079172 -0.007449 -0.157604
vn -0.965907 -0.181546 0.184564
v 0.069012 0.014174 -0.198537
vn -0.878819 -0.454824 0.144267
v 0.064873 0.032532 -0.197177
vn -0.921263 -0.370009 0.119865
v 0.071282 0.029801 -0.157459
vn 0.505799 -0.862407 -0.020503
v -0.080287 0.058678 -0.173331
vn 0.622304 -0.782378 -0.024933
v -0.093237 0.049282 -0.170807
vn 0.918410 -0.368034 0.145168
v -0.098444 0.045689 -0.215204
vn 0.258054 -0.966033 0.013695
v -0.054215 0.069279 -0.221081
vn 0.124526 -0.990096 0.064837
v -0.041656 0.069210 -0.265156
vn -0.012503 -0.996957 0.076949
v -0.023293 0.070228 -0.269697
vn 0.070594 -0.997227 0.023561
v -0.034677 0.071609 -0.224735
vn 0.075485 -0.997138 -0.004292
v -0.026644 0.072186 -0.180503
vn 0.037429 -0.999226 -0.012101
v -0.019658 0.072352 -0.141329
vn -0.055895 -0.998166 0.023259
v -0.015034 0.071968 -0.228199
vn -0.196461 -0.975821 0.095793
v -0.005833 0.068234 -0.272921
vn -0.555662 -0.765527 0.324359
v 0.006955 0.048816 -0.354375
vn -0.697374 -0.567498 0.437738
v 0.017501 0.037474 -0.356663
vn -0.339772 -0.841332 0.420375
v -0.005696 0.056770 -0.352811
vn -0.693922 -0.697741 0.177846
v 0.046501 0.045779 -0.239050
vn -0.547671 -0.827037 0.126751
v 0.034128 0.056048 -0.236868
vn -0.413713 -0.898105 0.149159
v 0.009934 0.062982 -0.275680
vn -0.112424 -0.942215 0.315582
v -0.020936 0.061921 -0.350690
vn 0.777062 -0.602567 0.181900
v -0.081142 0.057072 -0.265520
vn 0.374302 -0.927299 0.003827
v -0.070512 0.063298 -0.216128
vn 0.327671 -0.943272 0.053569
v -0.074591 0.059014 -0.281638
vn 0.537239 -0.843421 0.004022
v -0.087010 0.054834 -0.245056
vn 0.820141 -0.525675 0.225906
v -0.070451 0.059024 -0.299996
vn 0.885136 -0.415007 0.210482
v -0.091974 0.050657 -0.234178
vn -0.245819 -0.968956 0.026393
v 0.019495 0.068447 -0.148270
vn -0.402151 -0.913511 0.061423
v 0.028292 0.063691 -0.191031
vn -0.345935 -0.934993 0.078208
v 0.019597 0.064310 -0.234306
vn -0.195122 -0.980005 0.038959
v 0.003216 0.069459 -0.231417
vn -0.102483 -0.994727 0.003924
v 0.000334 0.071615 -0.144907
vn -0.266990 -0.930648 -0.250221
v 0.026689 0.066917 -0.115735
vn -0.452683 -0.883217 -0.122495
v 0.043868 0.061394 -0.118766
vn -0.155585 -0.957769 -0.241811
v 0.006880 0.070251 -0.112241
vn 0.686882 -0.243922 -0.684613
v -0.012350 0.026971 0.014194
vn 0.680755 0.180742 -0.709863
v -0.012350 -0.070326 0.014194
vn 0.797528 0.069736 -0.599238
v -0.105887 -0.057579 -0.078705
vn 0.203095 0.699353 -0.685316
v -0.006925 -0.070326 0.017236
vn 0.185771 -0.806916 -0.560692
v -0.006925 0.026971 0.017236
vn -0.016699 0.835111 -0.549829
v -0.000282 -0.070326 0.018250
vn 0.004221 -0.718157 -0.695869
v -0.000282 0.026971 0.018250
vn -0.264780 0.620953 -0.737773
v 0.007002 -0.070326 0.017199
vn -0.176260 -0.839242 -0.514399
v 0.007002 0.026971 0.017199
vn -0.774482 -0.370989 -0.512392
v 0.011946 0.026971 0.014047
vn -0.819604 0.248838 -0.516070
v 0.011946 -0.070326 0.014047
vn 0.577495 -0.513224 0.634902
v -0.064419 0.026971 -0.386632
vn 0.959622 -0.165614 0.227372
v -0.067664 0.026971 -0.381349
vn 0.959678 0.128992 0.249760
v -0.067664 -0.030994 -0.381349
vn 0.555179 0.583614 0.592597
v -0.064419 -0.030994 -0.386632
vn 0.267352 0.476723 0.837411
v -0.059090 -0.030994 -0.389802
vn 0.237364 -0.632610 0.737199
v -0.059090 0.026971 -0.389802
vn 0.115685 -0.298433 0.947394
v -0.051679 0.026971 -0.390859
vn 0.091814 0.375032 0.922454
v -0.051679 -0.030994 -0.390859
vn -0.105513 -0.237029 0.965756
v -0.049657 0.026971 -0.390859
vn -0.096984 0.547699 0.831035
v -0.049657 -0.030994 -0.390859
vn -0.361940 0.192435 0.912123
v -0.042105 -0.030994 -0.389813
vn -0.377163 -0.217189 0.900320
v -0.042105 0.026971 -0.389813
# 184 vertices, 0 vertices normals

f 2//2 95//95 83//83
f 172//172 171//171 22//22
f 23//23 172//172 25//25
f 108//108 23//23 53//53
f 53//53 23//23 25//25
f 3//3 7//7 183//183
f 104//104 49//49 16//16
f 175//175 65//65 176//176
f 2//2 27//27 11//11
f 27//27 2//2 83//83
f 1//1 25//25 172//172
f 172//172 22//22 1//1
f 1//1 93//93 25//25
f 1//1 22//22 93//93
f 92//92 83//83 95//95
f 99//99 95//95 2//2
f 6//6 7//7 3//3
f 6//6 102//102 100//100
f 183//183 182//182 3//3
f 101//101 99//99 10//10
f 10//10 99//99 2//2
f 10//10 2//2 11//11
f 5//5 100//100 101//101
f 5//5 101//101 9//9
f 5//5 9//9 183//183
f 27//27 68//68 11//11
f 17//17 46//46 43//43
f 36//36 175//175 40//40
f 32//32 31//31 13//13
f 32//32 163//163 33//33
f 32//32 13//13 163//163
f 164//164 163//163 13//13
f 166//166 49//49 168//168
f 16//16 49//49 166//166
f 171//171 170//170 161//161
f 133//133 16//16 50//50
f 133//133 104//104 16//16
f 177//177 51//51 180//180
f 51//51 182//182 180//180
f 51//51 3//3 182//182
f 51//51 6//6 3//3
f 63//63 38//38 21//21
f 63//63 36//36 38//38
f 63//63 175//175 36//36
f 62//62 63//63 21//21
f 125//125 126//126 77//77
f 78//78 125//125 77//77
f 82//82 27//27 83//83
f 82//82 81//81 126//126
f 84//84 93//93 22//22
f 84//84 92//92 93//93
f 110//110 23//23 108//108
f 6//6 26//26 102//102
f 26//26 51//51 54//54
f 26//26 6//6 51//51
f 100//100 5//5 4//4
f 7//7 6//6 4//4
f 4//4 6//6 100//100
f 4//4 183//183 7//7
f 4//4 5//5 183//183
f 183//183 9//9 8//8
f 8//8 68//68 183//183
f 8//8 9//9 101//101
f 101//101 10//10 8//8
f 8//8 10//10 11//11
f 8//8 11//11 68//68
f 12//12 123//123 85//85
f 85//85 125//125 12//12
f 171//171 86//86 12//12
f 86//86 123//123 12//12
f 12//12 125//125 78//78
f 12//12 22//22 171//171
f 12//12 78//78 22//22
f 47//47 42//42 74//74
f 74//74 42//42 72//72
f 72//72 40//40 175//175
f 30//30 38//38 31//31
f 30//30 58//58 21//21
f 38//38 30//30 21//21
f 31//31 14//14 13//13
f 14//14 164//164 13//13
f 164//164 14//14 37//37
f 31//31 38//38 37//37
f 37//37 14//14 31//31
f 15//15 42//42 18//18
f 18//18 164//164 15//15
f 41//41 164//164 40//40
f 42//42 15//15 41//41
f 41//41 15//15 164//164
f 18//18 42//42 19//19
f 47//47 19//19 42//42
f 46//46 17//17 19//19
f 19//19 47//47 46//46
f 162//162 50//50 16//16
f 166//166 162//162 16//16
f 162//162 44//44 50//50
f 43//43 44//44 162//162
f 162//162 17//17 43//43
f 162//162 164//164 18//18
f 162//162 19//19 17//17
f 19//19 162//162 18//18
f 131//131 44//44 48//48
f 105//105 161//161 170//170
f 105//105 170//170 168//168
f 168//168 49//49 105//105
f 160//160 86//86 171//171
f 160//160 145//145 86//86
f 50//50 44//44 130//130
f 130//130 44//44 131//131
f 52//52 51//51 177//177
f 52//52 177//177 176//176
f 65//65 52//52 176//176
f 21//21 58//58 20//20
f 20//20 62//62 21//21
f 20//20 58//58 60//60
f 62//62 20//20 60//60
f 175//175 63//63 66//66
f 81//81 80//80 126//126
f 78//78 80//80 22//22
f 80//80 84//84 22//22
f 122//122 123//123 86//86
f 82//82 88//88 87//87
f 88//88 82//82 126//126
f 33//33 163//163 165//165
f 165//165 167//167 112//112
f 169//169 110//110 167//167
f 23//23 169//169 172//172
f 169//169 23//23 110//110
f 24//24 57//57 33//33
f 33//33 165//165 24//24
f 24//24 165//165 112//112
f 112//112 109//109 24//24
f 24//24 109//109 57//57
f 96//96 25//25 93//93
f 96//96 53//53 25//25
f 96//96 89//89 53//53
f 95//95 99//99 98//98
f 90//90 103//103 102//102
f 26//26 90//90 102//102
f 90//90 26//26 54//54
f 89//89 90//90 54//54
f 28//28 87//87 117//117
f 116//116 68//68 27//27
f 116//116 120//120 68//68
f 116//116 87//87 28//28
f 116//116 82//82 87//87
f 116//116 27//27 82//82
f 116//116 28//28 117//117
f 29//29 30//30 31//31
f 29//29 32//32 33//33
f 31//31 32//32 29//29
f 33//33 57//57 29//29
f 29//29 57//57 58//58
f 30//30 29//29 58//58
f 34//34 40//40 164//164
f 34//34 37//37 40//40
f 164//164 37//37 34//34
f 36//36 40//40 35//35
f 37//37 35//35 40//40
f 35//35 38//38 36//36
f 35//35 37//37 38//38
f 72//72 39//39 40//40
f 39//39 41//41 40//40
f 39//39 72//72 42//42
f 42//42 41//41 39//39
f 46//46 45//45 43//43
f 45//45 44//44 43//43
f 45//45 48//48 44//44
f 75//75 45//45 46//46
f 48//48 45//45 75//75
f 46//46 47//47 75//75
f 75//75 47//47 74//74
f 132//132 75//75 69//69
f 48//48 75//75 132//132
f 131//131 48//48 132//132
f 49//49 104//104 138//138
f 138//138 105//105 49//49
f 171//171 161//161 159//159
f 159//159 160//160 171//171
f 135//135 147//147 140//140
f 149//149 133//133 50//50
f 50//50 130//130 149//149
f 133//133 149//149 150//150
f 67//67 54//54 51//51
f 51//51 52//52 67//67
f 67//67 52//52 65//65
f 67//67 59//59 54//54
f 67//67 66//66 62//62
f 67//67 60//60 59//59
f 67//67 62//62 60//60
f 55//55 89//89 54//54
f 53//53 55//55 108//108
f 89//89 55//55 53//53
f 59//59 107//107 54//54
f 107//107 55//55 54//54
f 55//55 107//107 108//108
f 58//58 57//57 56//56
f 57//57 109//109 56//56
f 109//109 107//107 56//56
f 56//56 107//107 59//59
f 56//56 60//60 58//58
f 56//56 59//59 60//60
f 167//167 111//111 112//112
f 111//111 167//167 110//110
f 63//63 62//62 61//61
f 61//61 66//66 63//63
f 66//66 61//61 62//62
f 64//64 65//65 175//175
f 175//175 66//66 64//64
f 64//64 67//67 65//65
f 67//67 64//64 66//66
f 70//70 174//174 114//114
f 114//114 134//134 133//133
f 114//114 150//150 70//70
f 114//114 133//133 150//150
f 184//184 119//119 142//142
f 184//184 68//68 120//120
f 184//184 120//120 119//119
f 184//184 183//183 68//68
f 73//73 132//132 69//69
f 174//174 132//132 73//73
f 75//75 73//73 69//69
f 173//173 114//114 174//174
f 150//150 152//152 70//70
f 152//152 174//174 70//70
f 71//71 72//72 175//175
f 71//71 175//175 174//174
f 174//174 73//73 71//71
f 74//74 72//72 71//71
f 71//71 75//75 74//74
f 71//71 73//73 75//75
f 77//77 126//126 76//76
f 76//76 126//126 80//80
f 76//76 78//78 77//77
f 76//76 80//80 78//78
f 79//79 80//80 81//81
f 79//79 82//82 83//83
f 82//82 79//79 81//81
f 83//83 92//92 79//79
f 92//92 84//84 79//79
f 84//84 80//80 79//79
f 142//142 119//119 118//118
f 129//129 125//125 85//85
f 123//123 129//129 85//85
f 145//145 144//144 86//86
f 144//144 122//122 86//86
f 142//142 118//118 144//144
f 144//144 118//118 121//121
f 127//127 117//117 87//87
f 88//88 127//127 87//87
f 121//121 117//117 127//127
f 127//127 88//88 126//126
f 89//89 96//96 94//94
f 103//103 90//90 94//94
f 94//94 90//90 89//89
f 94//94 98//98 103//103
f 93//93 92//92 91//91
f 91//91 98//98 94//94
f 91//91 92//92 95//95
f 95//95 98//98 91//91
f 91//91 96//96 93//93
f 91//91 94//94 96//96
f 97//97 98//98 99//99
f 101//101 100//100 97//97
f 97//97 99//99 101//101
f 100//100 102//102 97//97
f 102//102 103//103 97//97
f 103//103 98//98 97//97
f 153//153 132//132 174//174
f 104//104 133//133 137//137
f 137//137 138//138 104//104
f 161//161 105//105 158//158
f 158//158 105//105 138//138
f 160//160 155//155 145//145
f 155//155 156//156 145//145
f 146//146 145//145 156//156
f 140//140 147//147 146//146
f 146//146 156//156 140//140
f 108//108 107//107 106//106
f 106//106 107//107 109//109
f 106//106 110//110 108//108
f 106//106 111//111 110//110
f 106//106 109//109 112//112
f 111//111 106//106 112//112
f 178//178 147//147 113//113
f 113//113 173//173 178//178
f 114//114 173//173 113//113
f 135//135 113//113 147//147
f 113//113 135//135 134//134
f 134//134 114//114 113//113
f 147//147 184//184 143//143
f 143//143 146//146 147//147
f 179//179 147//147 178//178
f 115//115 116//116 117//117
f 115//115 117//117 121//121
f 118//118 115//115 121//121
f 115//115 118//118 119//119
f 120//120 115//115 119//119
f 116//116 115//115 120//120
f 121//121 127//127 128//128
f 128//128 144//144 121//121
f 122//122 144//144 128//128
f 123//123 122//122 128//128
f 128//128 129//129 123//123
f 126//126 125//125 124//124
f 124//124 127//127 126//126
f 124//124 128//128 127//127
f 125//125 129//129 124//124
f 129//129 128//128 124//124
f 151//151 130//130 131//131
f 131//131 132//132 151//151
f 132//132 153//153 151//151
f 151//151 149//149 130//130
f 136//136 133//133 134//134
f 136//136 137//137 133//133
f 134//134 135//135 136//136
f 139//139 135//135 140//140
f 139//139 136//136 135//135
f 139//139 137//137 136//136
f 139//139 138//138 137//137
f 139//139 158//158 138//138
f 158//158 139//139 157//157
f 156//156 157//157 140//140
f 157//157 139//139 140//140
f 141//141 184//184 142//142
f 141//141 143//143 184//184
f 142//142 144//144 141//141
f 141//141 144//144 145//145
f 141//141 145//145 146//146
f 141//141 146//146 143//143
f 181//181 184//184 147//147
f 147//147 179//179 181//181
f 150//150 149//149 148//148
f 148//148 149//149 151//151
f 148//148 152//152 150//150
f 174//174 152//152 148//148
f 148//148 153//153 174//174
f 148//148 151//151 153//153
f 156//156 155//155 154//154
f 154//154 157//157 156//156
f 158//158 157//157 154//154
f 154//154 160//160 159//159
f 154//154 155//155 160//160
f 154//154 159//159 161//161
f 161//161 158//158 154//154
f 163//163 164//164 162//162
f 165//165 162//162 166//166
f 163//163 162//162 165//165
f 165//165 168//168 167//167
f 165//165 166//166 168//168
f 169//169 170//170 171//171
f 169//169 171//171 172//172
f 168//168 170//170 169//169
f 169//169 167//167 168//168
f 173//173 174//174 175//175
f 173//173 175//175 176//176
f 177//177 173//173 176//176
f 178//178 173//173 177//177
f 179//179 178//178 177//177
f 179//179 177//177 180//180
f 181//181 182//182 183//183
f 184//184 181//181 183//183
f 181//181 179//179 180//180
f 180//180 182//182 181//181
# 364 faces, 0 coords texture

# End of File