####
#
# OBJ File Generated by Meshlab
#
####
# Object utorso_mod_chull.obj
#
# Vertices: 27
# Faces: 50
#
####
vn 1.702609 -1.647428 2.447615
v 0.196715 -0.106695 0.561480
vn -0.116309 -4.517909 -0.489083
v 0.027358 -0.238981 0.180323
vn -3.136120 4.848918 -1.290048
v -0.057805 0.176073 0.129417
vn 0.411423 -4.433957 -3.841453
v 0.026484 -0.179772 0.084579
vn -2.193081 -1.376239 -2.192221
v -0.121229 -0.113386 0.031358
vn 3.961957 4.663176 -0.834198
v 0.172196 0.128331 0.135558
vn 4.184924 1.868104 -1.811319
v 0.218751 0.075185 0.079440
vn 0.394490 4.419898 -3.636834
v 0.033821 0.183026 0.089200
vn 2.233692 5.157483 -1.120329
v 0.056310 0.222344 0.170509
vn 1.894313 -1.765774 -4.442997
v 0.169361 -0.079204 0.033786
vn -0.692139 4.876169 -0.396561
v 0.017594 0.234736 0.181976
vn 2.521457 2.328514 1.803824
v 0.204844 0.107248 0.541294
vn 3.122565 -4.620830 -1.748330
v 0.152582 -0.148714 0.113590
vn -1.043766 -2.972973 3.854635
v 0.071120 -0.110695 0.548002
vn -2.623630 -4.840689 2.026043
v -0.095302 -0.135053 0.394142
vn 4.136667 -1.759920 -1.899977
v 0.219129 -0.078134 0.077503
vn 2.037582 1.876227 -4.118484
v 0.174716 0.078629 0.035983
vn -2.628163 4.769395 2.083102
v -0.095329 0.132699 0.394120
vn -0.988039 2.929545 3.885810
v 0.070794 0.104209 0.548638
vn -4.133113 2.017078 1.668263
v -0.121077 0.113064 0.394486
vn -4.094001 -2.049784 1.627100
v -0.121095 -0.116219 0.394487
vn -2.221634 1.325710 -2.273018
v -0.121136 0.105889 0.030230
vn 6.023535 1.179830 0.098406
v 0.219760 0.072744 0.295373
vn 6.054886 -1.104645 0.100740
v 0.219760 -0.076292 0.295373
vn 4.148530 -2.747025 0.841452
v 0.205989 -0.110413 0.523092
vn 2.210660 0.860196 3.988462
v 0.195655 0.077713 0.561961
vn -2.710245 -0.008587 4.663669
v -0.007402 -0.002637 0.545186
# 27 vertices, 0 vertices normals

f 24//24 25//25 16//16
f 2//2 25//25 1//1
f 14//14 2//2 1//1
f 5//5 10//10 4//4
f 23//23 24//24 16//16
f 14//14 15//15 2//2
f 4//4 2//2 5//5
f 9//9 12//12 6//6
f 20//20 3//3 22//22
f 13//13 2//2 4//4
f 13//13 25//25 2//2
f 7//7 9//9 6//6
f 9//9 8//8 11//11
f 17//17 22//22 8//8
f 3//3 20//20 11//11
f 8//8 3//3 11//11
f 3//3 8//8 22//22
f 9//9 11//11 12//12
f 16//16 13//13 10//10
f 13//13 4//4 10//10
f 15//15 14//14 21//21
f 14//14 27//27 21//21
f 2//2 21//21 5//5
f 7//7 23//23 16//16
f 23//23 7//7 12//12
f 7//7 6//6 12//12
f 17//17 8//8 9//9
f 17//17 9//9 7//7
f 5//5 22//22 10//10
f 22//22 17//17 10//10
f 18//18 11//11 20//20
f 11//11 18//18 19//19
f 19//19 12//12 11//11
f 12//12 19//19 26//26
f 13//13 16//16 25//25
f 14//14 1//1 27//27
f 2//2 15//15 21//21
f 19//19 18//18 20//20
f 20//20 27//27 19//19
f 26//26 19//19 27//27
f 20//20 5//5 21//21
f 5//5 20//20 22//22
f 12//12 24//24 23//23
f 12//12 25//25 24//24
f 25//25 12//12 26//26
f 26//26 1//1 25//25
f 27//27 20//20 21//21
f 26//26 27//27 1//1
f 17//17 7//7 16//16
f 16//16 10//10 17//17
# 50 faces, 0 coords texture

# End of File