####
#
# OBJ File Generated by Meshlab
#
####
# Object utorso_chull.obj
#
# Vertices: 141
# Faces: 278
#
####
vn 0.412586 0.898856 0.147755
v 0.035290 -0.229310 0.198979
vn 0.463934 0.859915 0.212865
v -0.002410 -0.202010 0.148679
vn 0.125035 0.879604 0.458980
v 0.062190 -0.215910 0.137979
vn -0.076406 0.980309 -0.182089
v -0.069400 -0.179000 0.573800
vn -0.070023 0.867120 -0.493152
v -0.066900 -0.177800 0.576400
vn -0.079023 0.459409 0.884703
v 0.107106 -0.086856 0.033517
vn -0.070023 -0.867120 -0.493152
v -0.066900 0.176800 0.576400
vn -0.076379 -0.983235 -0.165572
v -0.069400 0.178000 0.573800
vn 0.405817 -0.900095 0.158563
v 0.035290 0.221728 0.198979
vn 0.438066 -0.874125 0.209770
v -0.002410 0.194428 0.148679
vn -0.260445 0.584872 0.768175
v 0.171414 -0.083306 0.043587
vn -0.071847 0.650218 0.756343
v 0.062190 -0.185010 0.084579
vn -0.085721 -0.466040 0.880602
v 0.107106 0.086526 0.033517
vn -0.063751 0.848891 -0.524709
v 0.148300 -0.082700 0.712700
vn 0.007497 0.477678 -0.878503
v 0.150600 -0.066800 0.724000
vn -0.895213 -0.419373 0.150731
v 0.261000 0.139100 0.518700
vn -0.950446 -0.276443 0.142239
v 0.217275 0.073887 0.090290
vn -0.889445 -0.446306 -0.098485
v 0.259100 0.142100 0.534800
vn -0.259034 -0.601423 0.755772
v 0.171414 0.079505 0.043587
vn 0.111752 -0.886852 0.448336
v 0.062190 0.208328 0.137979
vn -0.082824 -0.672389 0.735550
v 0.062190 0.177428 0.084579
vn -0.734306 -0.658054 0.166611
v 0.258600 0.142000 0.518300
vn -0.628319 -0.682799 0.372827
v 0.209363 0.077928 0.068929
vn -0.674110 -0.499933 0.543731
v 0.201885 0.073887 0.055728
vn -0.647395 -0.520982 0.556288
v 0.196758 0.073887 0.049586
vn -0.430967 -0.656152 0.619462
v 0.193412 0.079597 0.051703
vn -0.748299 -0.640285 0.173447
v 0.214752 0.080224 0.093669
vn -0.404460 -0.703218 0.584720
v 0.127390 0.161628 0.094179
vn -0.645350 0.667977 0.370580
v 0.209363 -0.081729 0.068929
vn -0.413173 0.691315 0.592766
v 0.127390 -0.169210 0.094179
vn -0.439021 0.639781 0.630826
v 0.193412 -0.083397 0.051703
vn 0.423158 -0.334404 -0.842087
v -0.006300 0.082300 0.711600
vn 0.553477 -0.092156 -0.827750
v -0.006300 0.065600 0.716200
vn 0.316174 -0.499475 -0.806572
v -0.011500 0.098000 0.700400
vn 0.351950 -0.452883 -0.819163
v -0.180700 0.176700 0.585100
vn -0.458458 -0.664807 -0.589786
v 0.151800 0.081100 0.712000
vn -0.342192 -0.754362 -0.560216
v 0.215400 0.153700 0.575600
vn -0.065589 -0.855438 -0.513736
v 0.148300 0.081700 0.712700
vn -0.030714 -0.795996 -0.604523
v -0.008000 0.098700 0.701100
vn -0.792700 -0.240213 -0.560290
v 0.243700 0.145000 0.563900
vn -0.789572 -0.242112 -0.563878
v 0.156700 0.064100 0.721000
vn -0.817450 -0.462508 -0.343310
v 0.253100 0.145300 0.549800
vn -0.589803 -0.547227 -0.593865
v 0.243300 0.148500 0.562600
vn -0.231913 -0.967339 -0.102329
v 0.229300 0.153600 0.566700
vn -0.399278 -0.718463 -0.569551
v 0.230500 0.151300 0.569400
vn -0.082569 -0.961958 -0.260420
v 0.214900 0.156000 0.572600
vn -0.450433 -0.892272 0.030992
v 0.089190 0.221728 0.198979
vn -0.635481 -0.746427 0.197513
v 0.127390 0.194428 0.148679
vn -0.073989 -0.990690 -0.114279
v 0.062190 0.231428 0.193379
vn -0.515864 -0.854616 0.059295
v 0.256800 0.144800 0.533700
vn -0.396900 -0.917705 -0.016959
v 0.251000 0.147900 0.548000
vn -0.315597 -0.947134 -0.057756
v 0.241600 0.150900 0.560300
vn -0.888257 0.412068 0.202976
v 0.215129 -0.081960 0.091741
vn -0.762237 0.624908 0.168777
v 0.214752 -0.083682 0.093669
vn -0.949467 0.280556 0.140713
v 0.217275 -0.076579 0.090290
vn -0.082166 0.958882 -0.271650
v 0.214900 -0.157000 0.572600
vn -0.074448 0.988668 -0.130356
v 0.062190 -0.239010 0.193379
vn -0.320200 0.944698 -0.070839
v 0.241600 -0.151900 0.560300
vn 0.351657 0.453018 -0.819214
v -0.180700 -0.177800 0.585100
vn -0.034491 0.817739 -0.574554
v -0.008000 -0.099700 0.701100
vn 0.315870 0.499585 -0.806623
v -0.011500 -0.099000 0.700400
vn 0.004549 -0.511334 -0.859370
v 0.150600 0.065800 0.724000
vn 0.030811 -0.410088 -0.911525
v -0.002800 0.082700 0.712400
vn -0.903954 0.401888 0.146125
v 0.261000 -0.140200 0.518700
vn -0.747783 0.643755 0.162479
v 0.258600 -0.143000 0.518300
vn -0.649907 0.735357 0.192018
v 0.127390 -0.202010 0.148679
vn -0.457914 0.888789 0.019217
v 0.089190 -0.229310 0.198979
vn -0.908439 0.398813 -0.125250
v 0.259100 -0.143200 0.534800
vn -0.528026 0.847766 0.049812
v 0.256800 -0.145900 0.533700
vn -0.407829 0.912636 -0.027779
v 0.251000 -0.148900 0.548000
vn -0.792700 0.240213 -0.560290
v 0.243700 -0.146000 0.563900
vn -0.789224 0.242898 -0.564027
v 0.156700 -0.065100 0.721000
vn -0.817601 0.461055 -0.344901
v 0.253100 -0.146300 0.549800
vn -0.402259 0.714998 -0.571809
v 0.230500 -0.152300 0.569400
vn -0.588545 0.549385 -0.593120
v 0.243300 -0.149500 0.562600
vn -0.458436 0.664715 -0.589908
v 0.151800 -0.082100 0.712000
vn -0.239180 0.963576 -0.119640
v 0.229300 -0.154700 0.566700
vn -0.342201 0.754777 -0.559652
v 0.215400 -0.154800 0.575600
vn 0.597879 0.000000 -0.801587
v -0.006300 -0.000500 0.716400
vn 0.022074 0.457000 -0.889193
v -0.002800 -0.083800 0.712400
vn 0.423148 0.334404 -0.842092
v -0.006300 -0.083300 0.711600
vn 0.553339 0.092383 -0.827817
v -0.006300 -0.066600 0.716200
vn -0.519710 0.199249 -0.830784
v 0.154100 -0.049700 0.729600
vn 0.061364 0.093249 -0.993750
v 0.152100 -0.040900 0.731600
vn -0.836632 0.122270 -0.533944
v 0.156700 -0.049100 0.727200
vn 0.042108 0.275271 -0.960444
v 0.150600 -0.050000 0.730500
vn -0.601626 0.492533 -0.628854
v 0.154100 -0.066400 0.723200
vn 0.097510 -0.000000 -0.995235
v -0.002800 -0.000500 0.717300
vn 0.583906 0.002496 -0.811818
v -0.005500 -0.040600 0.716900
vn 0.583899 -0.002496 -0.811822
v -0.005500 0.039500 0.716900
vn 0.089260 -0.065396 -0.993859
v -0.002800 0.065900 0.717100
vn 0.089325 0.065333 -0.993857
v -0.002800 -0.066900 0.717100
vn -0.519623 -0.198729 -0.830963
v 0.154100 0.048700 0.729600
vn -0.836770 -0.121875 -0.533818
v 0.156700 0.048000 0.727200
vn 0.061323 -0.093238 -0.993754
v 0.152100 0.039800 0.731600
vn 0.042186 -0.275257 -0.960445
v 0.150600 0.048900 0.730500
vn -0.601615 -0.492455 -0.628926
v 0.154100 0.065400 0.723200
vn -0.893194 -0.016379 0.449373
v 0.212671 0.071115 0.066766
vn -0.894931 0.034464 0.444871
v 0.212671 -0.074916 0.066766
vn -0.560286 0.020241 0.828052
v 0.195413 -0.076886 0.047749
vn -0.555519 -0.016694 0.831336
v 0.195413 0.073085 0.047749
vn 0.992890 -0.000206 0.119038
v -0.184600 0.179800 0.565600
vn 0.993002 0.000324 0.118098
v -0.184600 -0.180800 0.565600
vn 0.967268 0.199068 0.157368
v -0.121216 -0.106828 0.045935
vn 0.893026 -0.411951 0.181110
v -0.121216 0.106497 0.045935
vn -0.290979 -0.150674 0.944790
v 0.171272 0.073208 0.038857
vn -0.278110 0.164312 0.946391
v 0.171272 -0.077009 0.038857
vn 0.450854 -0.459528 0.765222
v -0.112356 0.106497 0.030590
vn 0.414183 0.480584 0.772975
v -0.112356 -0.106828 0.030590
vn -0.049597 0.458901 0.887102
v -0.094637 -0.106828 0.030590
vn 0.286848 0.000000 0.957976
v -0.016845 -0.001749 -0.014352
vn -0.149746 0.000000 0.988724
v 0.020016 -0.001749 -0.014352
vn -0.050042 -0.465247 0.883765
v -0.094637 0.106497 0.030590
vn 0.608682 0.010544 -0.793344
v -0.181000 -0.174300 0.586000
vn 0.885809 0.001274 -0.464048
v -0.184600 -0.180800 0.580100
vn 0.886976 -0.000649 -0.461814
v -0.184600 0.179800 0.580100
vn 0.601279 -0.010797 -0.798966
v -0.181000 0.173200 0.586000
vn -0.978144 0.002947 -0.207909
v 0.259700 -0.139600 0.535700
vn -0.956721 -0.002907 -0.290992
v 0.259700 0.138600 0.535700
vn -0.995745 -0.002061 0.092133
v 0.261700 0.135500 0.519400
vn -0.995502 0.003179 0.094691
v 0.261700 -0.136500 0.519400
vn -0.994339 0.000549 0.106249
v 0.217669 -0.074504 0.091826
vn -0.994160 -0.001523 0.107903
v 0.217669 0.070704 0.091826
vn -0.880695 0.013626 -0.473488
v 0.253600 -0.142800 0.550900
vn -0.876930 -0.001884 -0.480615
v 0.156700 0.030800 0.728600
vn -0.877718 -0.016958 -0.478878
v 0.253600 0.141800 0.550900
vn -0.871407 0.008422 -0.490489
v 0.156700 -0.031900 0.728600
vn 0.981665 0.117312 -0.150241
v -0.184600 -0.184500 0.579100
vn 0.989030 0.073289 0.128255
v -0.184600 -0.184500 0.566600
vn 0.953511 0.260610 0.151322
v -0.184600 -0.187100 0.569200
vn -0.001513 -0.861964 -0.506968
v -0.184600 0.186100 0.576400
vn 0.335935 -0.937891 0.086650
v -0.184600 0.187000 0.572800
vn 0.343907 0.935387 0.082338
v -0.184600 -0.188100 0.572800
vn 0.994597 -0.051503 0.090130
v -0.184600 0.183400 0.566600
vn 0.992635 -0.104761 0.060829
v -0.184600 0.186100 0.569200
vn 0.658236 -0.460445 -0.595580
v -0.184600 0.183400 0.579100
vn -0.058142 0.860572 -0.506000
v -0.184600 -0.187100 0.576400
vn -0.525732 -0.010684 -0.850583
v 0.154100 0.030800 0.731200
vn -0.537500 0.018091 -0.843070
v 0.154100 -0.031900 0.731200
vn 0.087664 0.006698 -0.996128
v 0.150600 -0.031900 0.732200
vn 0.091431 -0.006765 -0.995789
v 0.150600 0.030800 0.732200
# 141 vertices, 0 vertices normals

f 5//5 137//137 14//14
f 2//2 57//57 3//3
f 2//2 1//1 57//57
f 104//104 2//2 109//109
f 109//109 2//2 3//3
f 12//12 109//109 3//3
f 131//131 38//38 39//39
f 60//60 14//14 137//137
f 133//133 4//4 57//57
f 133//133 137//137 4//4
f 133//133 57//57 1//1
f 133//133 1//1 2//2
f 130//130 133//133 104//104
f 133//133 2//2 104//104
f 103//103 129//129 104//104
f 129//129 130//130 104//104
f 132//132 105//105 10//10
f 6//6 107//107 112//112
f 12//12 107//107 6//6
f 100//100 107//107 31//31
f 106//106 21//21 13//13
f 106//106 13//13 112//112
f 106//106 112//112 107//107
f 49//49 10//10 20//20
f 26//26 106//106 101//101
f 108//108 109//109 111//111
f 108//108 21//21 20//20
f 108//108 10//10 105//105
f 108//108 20//20 10//10
f 66//66 3//3 57//57
f 66//66 12//12 3//3
f 12//12 66//66 30//30
f 57//57 4//4 56//56
f 56//56 137//137 5//5
f 56//56 4//4 137//137
f 56//56 5//5 14//14
f 110//110 12//12 6//6
f 12//12 110//110 109//109
f 110//110 6//6 112//112
f 136//136 117//117 116//116
f 136//136 131//131 39//39
f 60//60 61//61 81//81
f 14//14 15//15 87//87
f 80//80 60//60 81//81
f 60//60 80//80 14//14
f 80//80 15//15 14//14
f 131//131 7//7 38//38
f 7//7 46//46 38//38
f 7//7 131//131 46//46
f 8//8 131//131 132//132
f 8//8 46//46 131//131
f 8//8 132//132 49//49
f 8//8 49//49 46//46
f 125//125 94//94 126//126
f 9//9 49//49 132//132
f 9//9 10//10 49//49
f 132//132 10//10 9//9
f 135//135 105//105 132//132
f 11//11 12//12 30//30
f 11//11 107//107 12//12
f 11//11 30//30 31//31
f 11//11 31//31 107//107
f 50//50 22//22 18//18
f 123//123 17//17 98//98
f 17//17 27//27 98//98
f 17//17 123//123 120//120
f 112//112 13//13 113//113
f 113//113 13//13 21//21
f 108//108 113//113 21//21
f 54//54 66//66 65//65
f 67//67 66//66 57//57
f 119//119 18//18 120//120
f 117//117 136//136 35//35
f 14//14 87//87 76//76
f 76//76 56//56 14//14
f 76//76 78//78 56//56
f 86//86 87//87 15//15
f 80//80 86//86 15//15
f 90//90 117//117 33//33
f 33//33 91//91 90//90
f 126//126 94//94 41//41
f 41//41 94//94 97//97
f 41//41 97//97 43//43
f 42//42 50//50 18//18
f 42//42 119//119 126//126
f 18//18 119//119 42//42
f 52//52 43//43 45//45
f 134//134 102//102 105//105
f 135//135 134//134 105//105
f 16//16 22//22 27//27
f 17//17 16//16 27//27
f 16//16 17//17 120//120
f 16//16 120//120 18//18
f 18//18 22//22 16//16
f 106//106 26//26 19//19
f 26//26 28//28 19//19
f 19//19 21//21 106//106
f 19//19 28//28 21//21
f 48//48 20//20 21//21
f 21//21 28//28 48//48
f 49//49 20//20 48//48
f 48//48 22//22 50//50
f 27//27 22//22 48//48
f 25//25 101//101 98//98
f 24//24 25//25 98//98
f 25//25 26//26 101//101
f 23//23 24//24 98//98
f 26//26 25//25 23//23
f 23//23 25//25 24//24
f 98//98 27//27 23//23
f 27//27 48//48 23//23
f 23//23 28//28 26//26
f 23//23 48//48 28//28
f 29//29 54//54 99//99
f 29//29 66//66 54//54
f 66//66 29//29 30//30
f 29//29 31//31 30//30
f 99//99 100//100 29//29
f 100//100 31//31 29//29
f 64//64 54//54 65//65
f 64//64 121//121 55//55
f 64//64 55//55 54//54
f 75//75 76//76 87//87
f 58//58 67//67 57//57
f 58//58 70//70 67//67
f 58//58 75//75 70//70
f 34//34 136//136 39//39
f 34//34 35//35 136//136
f 79//79 114//114 117//117
f 79//79 117//117 90//90
f 61//61 59//59 81//81
f 59//59 114//114 81//81
f 139//139 84//84 140//140
f 63//63 91//91 32//32
f 32//32 91//91 33//33
f 35//35 34//34 32//32
f 117//117 35//35 32//32
f 32//32 33//33 117//117
f 39//39 63//63 32//32
f 32//32 34//34 39//39
f 46//46 45//45 37//37
f 36//36 97//97 38//38
f 97//97 36//36 43//43
f 36//36 45//45 43//43
f 36//36 37//37 45//45
f 38//38 46//46 36//36
f 46//46 37//37 36//36
f 38//38 97//97 62//62
f 62//62 39//39 38//38
f 62//62 63//63 39//39
f 126//126 41//41 40//40
f 40//40 41//41 43//43
f 40//40 42//42 126//126
f 40//40 43//43 42//42
f 50//50 42//42 51//51
f 51//51 42//42 43//43
f 51//51 43//43 52//52
f 44//44 45//45 46//46
f 44//44 52//52 45//45
f 44//44 46//46 49//49
f 52//52 44//44 49//49
f 48//48 47//47 49//49
f 47//47 48//48 50//50
f 50//50 51//51 47//47
f 47//47 52//52 49//49
f 47//47 51//51 52//52
f 53//53 99//99 54//54
f 53//53 55//55 99//99
f 53//53 54//54 55//55
f 122//122 55//55 121//121
f 99//99 55//55 122//122
f 72//72 75//75 87//87
f 68//68 118//118 121//121
f 68//68 121//121 64//64
f 57//57 56//56 77//77
f 77//77 58//58 57//57
f 56//56 78//78 77//77
f 77//77 75//75 58//58
f 81//81 114//114 82//82
f 115//115 114//114 128//128
f 114//114 59//59 128//128
f 128//128 60//60 137//137
f 128//128 61//61 60//60
f 128//128 59//59 61//61
f 85//85 72//72 87//87
f 85//85 139//139 127//127
f 85//85 127//127 124//124
f 85//85 124//124 72//72
f 94//94 125//125 138//138
f 96//96 62//62 97//97
f 96//96 91//91 63//63
f 96//96 63//63 62//62
f 69//69 64//64 65//65
f 69//69 68//68 64//64
f 65//65 66//66 69//69
f 66//66 67//67 69//69
f 70//70 69//69 67//67
f 73//73 124//124 118//118
f 118//118 68//68 73//73
f 73//73 69//69 70//70
f 68//68 69//69 73//73
f 70//70 75//75 73//73
f 71//71 75//75 72//72
f 124//124 71//71 72//72
f 71//71 73//73 75//75
f 71//71 124//124 73//73
f 74//74 76//76 75//75
f 77//77 74//74 75//75
f 78//78 76//76 74//74
f 74//74 77//77 78//78
f 89//89 114//114 79//79
f 89//89 82//82 114//114
f 89//89 79//79 90//90
f 92//92 80//80 81//81
f 81//81 82//82 92//92
f 92//92 86//86 80//80
f 92//92 84//84 86//86
f 92//92 140//140 84//84
f 82//82 89//89 92//92
f 83//83 84//84 139//139
f 85//85 83//83 139//139
f 86//86 84//84 83//83
f 87//87 86//86 83//83
f 83//83 85//85 87//87
f 95//95 138//138 141//141
f 95//95 141//141 91//91
f 91//91 96//96 95//95
f 88//88 141//141 140//140
f 88//88 89//89 90//90
f 90//90 91//91 88//88
f 88//88 91//91 141//141
f 92//92 88//88 140//140
f 88//88 92//92 89//89
f 94//94 138//138 93//93
f 93//93 138//138 95//95
f 93//93 95//95 96//96
f 93//93 97//97 94//94
f 93//93 96//96 97//97
f 98//98 100//100 99//99
f 98//98 101//101 100//100
f 102//102 103//103 104//104
f 102//102 104//104 105//105
f 106//106 100//100 101//101
f 106//106 107//107 100//100
f 108//108 105//105 104//104
f 104//104 109//109 108//108
f 110//110 111//111 109//109
f 110//110 112//112 111//111
f 113//113 111//111 112//112
f 113//113 108//108 111//111
f 114//114 115//115 116//116
f 117//117 114//114 116//116
f 118//118 119//119 120//120
f 118//118 120//120 121//121
f 122//122 121//121 120//120
f 122//122 120//120 123//123
f 122//122 98//98 99//99
f 122//122 123//123 98//98
f 124//124 125//125 126//126
f 124//124 127//127 125//125
f 119//119 118//118 124//124
f 126//126 119//119 124//124
f 130//130 129//129 128//128
f 132//132 131//131 128//128
f 128//128 133//133 130//130
f 116//116 115//115 128//128
f 128//128 134//134 135//135
f 131//131 136//136 128//128
f 128//128 137//137 133//133
f 128//128 129//129 103//103
f 103//103 102//102 128//128
f 128//128 136//136 116//116
f 128//128 135//135 132//132
f 102//102 134//134 128//128
f 138//138 125//125 127//127
f 139//139 138//138 127//127
f 138//138 139//139 140//140
f 140//140 141//141 138//138
# 278 faces, 0 coords texture

# End of File