####
#
# OBJ File Generated by Meshlab
#
####
# Object arm_segment_b_convex.obj
#
# Vertices: 264
# Faces: 88
#
####
vn 0.010879 0.999845 0.013850
v -0.051450 0.002443 0.250350
vn 0.010879 0.999845 0.013850
v -0.000043 0.001589 0.271620
vn 0.010879 0.999845 0.013850
v 0.050522 0.001329 0.250670
vn 0.010879 0.999845 0.013847
v -0.051450 0.002443 0.250350
vn 0.010879 0.999845 0.013847
v 0.050522 0.001329 0.250670
vn 0.010879 0.999845 0.013847
v 0.066328 0.001568 0.220993
vn 0.010876 0.999845 0.013831
v -0.051450 0.002443 0.250350
vn 0.010876 0.999845 0.013831
v 0.066328 0.001568 0.220993
vn 0.010876 0.999845 0.013831
v 0.033770 0.003349 0.117846
vn 0.010882 0.999845 0.013835
v -0.051450 0.002443 0.250350
vn 0.010882 0.999845 0.013835
v 0.033770 0.003349 0.117846
vn 0.010882 0.999845 0.013835
v -0.026557 0.004003 0.118034
vn 0.010863 0.999845 0.013832
v -0.051450 0.002443 0.250350
vn 0.010863 0.999845 0.013832
v -0.026557 0.004003 0.118034
vn 0.010863 0.999845 0.013832
v -0.064728 0.002931 0.225503
vn 0.460706 -0.803811 -0.376349
v 0.051937 -0.107440 0.196035
vn 0.460706 -0.803811 -0.376349
v 0.000015 -0.088237 0.091461
vn 0.460706 -0.803811 -0.376349
v 0.049380 -0.063306 0.098643
vn -0.403031 -0.868329 -0.289085
v -0.011661 -0.122596 0.196396
vn -0.403031 -0.868329 -0.289085
v -0.053758 -0.107555 0.209907
vn -0.403031 -0.868329 -0.289085
v -0.032654 -0.078820 0.094173
vn -0.911024 -0.132483 0.390491
v -0.039696 -0.088636 0.252837
vn -0.911024 -0.132483 0.390491
v -0.064728 0.002931 0.225503
vn -0.911024 -0.132483 0.390491
v -0.072690 -0.046470 0.190167
vn -0.914024 -0.163278 0.371350
v -0.039696 -0.088636 0.252837
vn -0.914024 -0.163278 0.371350
v -0.072690 -0.046470 0.190167
vn -0.914024 -0.163278 0.371350
v -0.053758 -0.107555 0.209907
vn 0.886628 -0.407324 0.219038
v 0.051937 -0.107440 0.196035
vn 0.886628 -0.407324 0.219038
v 0.049070 -0.087773 0.244213
vn 0.886628 -0.407324 0.219038
v 0.038310 -0.116993 0.233430
vn -0.961891 0.243710 -0.123979
v -0.072690 -0.046470 0.190167
vn -0.961891 0.243710 -0.123979
v -0.064728 0.002931 0.225503
vn -0.961891 0.243710 -0.123979
v -0.054469 -0.013868 0.112886
vn 0.969939 0.207712 -0.126783
v 0.066328 0.001568 0.220993
vn 0.969939 0.207712 -0.126783
v 0.072356 -0.046529 0.188311
vn 0.969939 0.207712 -0.126783
v 0.056631 -0.020261 0.111044
vn 0.881749 -0.048373 0.469231
v 0.049070 -0.087773 0.244213
vn 0.881749 -0.048373 0.469231
v 0.066328 0.001568 0.220993
vn 0.881749 -0.048373 0.469231
v 0.050522 0.001329 0.250670
vn -0.196772 -0.451479 0.870315
v 0.013318 -0.090213 0.264005
vn -0.196772 -0.451479 0.870315
v -0.039696 -0.088636 0.252837
vn -0.196772 -0.451479 0.870315
v -0.000429 -0.123001 0.243888
vn 0.000007 0.276844 -0.960915
v -0.026557 0.004003 0.118034
vn 0.000007 0.276844 -0.960915
v 0.033770 0.003349 0.117846
vn 0.000007 0.276844 -0.960915
v 0.056631 -0.020261 0.111044
vn 0.000003 0.276834 -0.960918
v -0.026557 0.004003 0.118034
vn 0.000003 0.276834 -0.960918
v 0.056631 -0.020261 0.111044
vn 0.000003 0.276834 -0.960918
v 0.049380 -0.063306 0.098643
vn -0.000004 0.276826 -0.960920
v -0.026557 0.004003 0.118034
vn -0.000004 0.276826 -0.960920
v 0.049380 -0.063306 0.098643
vn -0.000004 0.276826 -0.960920
v 0.000015 -0.088237 0.091461
vn 0.000029 0.276835 -0.960918
v -0.026557 0.004003 0.118034
vn 0.000029 0.276835 -0.960918
v 0.000015 -0.088237 0.091461
vn 0.000029 0.276835 -0.960918
v -0.032654 -0.078820 0.094173
vn -0.000004 0.276837 -0.960917
v -0.026557 0.004003 0.118034
vn -0.000004 0.276837 -0.960917
v -0.032654 -0.078820 0.094173
vn -0.000004 0.276837 -0.960917
v -0.054282 -0.053846 0.101368
vn -0.000027 0.276847 -0.960914
v -0.026557 0.004003 0.118034
vn -0.000027 0.276847 -0.960914
v -0.054282 -0.053846 0.101368
vn -0.000027 0.276847 -0.960914
v -0.054469 -0.013868 0.112886
vn 0.142033 -0.988969 -0.042025
v 0.038310 -0.116993 0.233430
vn 0.142033 -0.988969 -0.042025
v -0.000429 -0.123001 0.243888
vn 0.142033 -0.988969 -0.042025
v -0.011661 -0.122596 0.196396
vn -0.382554 -0.024149 0.923617
v -0.000043 0.001589 0.271620
vn -0.382554 -0.024149 0.923617
v -0.051450 0.002443 0.250350
vn -0.382554 -0.024149 0.923617
v -0.039696 -0.088636 0.252837
vn 0.382590 -0.020937 0.923681
v 0.050522 0.001329 0.250670
vn 0.382590 -0.020937 0.923681
v -0.000043 0.001589 0.271620
vn 0.382590 -0.020937 0.923681
v 0.013318 -0.090213 0.264005
vn -0.926085 -0.339934 -0.163741
v -0.053758 -0.107555 0.209907
vn -0.926085 -0.339934 -0.163741
v -0.072690 -0.046470 0.190167
vn -0.926085 -0.339934 -0.163741
v -0.054282 -0.053846 0.101368
vn 0.926580 -0.332825 -0.175149
v 0.051937 -0.107440 0.196035
vn 0.926580 -0.332825 -0.175149
v 0.049380 -0.063306 0.098643
vn 0.926580 -0.332825 -0.175149
v 0.072356 -0.046529 0.188311
vn -0.508440 0.843709 -0.172173
v -0.064728 0.002931 0.225503
vn -0.508440 0.843709 -0.172173
v -0.026557 0.004003 0.118034
vn -0.508440 0.843709 -0.172173
v -0.054469 -0.013868 0.112886
vn 0.294636 -0.586451 0.754496
v 0.038310 -0.116993 0.233430
vn 0.294636 -0.586451 0.754496
v 0.013318 -0.090213 0.264005
vn 0.294636 -0.586451 0.754496
v -0.000429 -0.123001 0.243888
vn 0.674303 0.710695 -0.200570
v 0.033770 0.003349 0.117846
vn 0.674303 0.710695 -0.200570
v 0.066328 0.001568 0.220993
vn 0.674303 0.710695 -0.200570
v 0.056631 -0.020261 0.111044
vn -0.180217 -0.983031 0.034239
v -0.011661 -0.122596 0.196396
vn -0.180217 -0.983031 0.034239
v -0.000429 -0.123001 0.243888
vn -0.180217 -0.983031 0.034239
v -0.038683 -0.116328 0.234125
vn 0.220954 -0.933868 -0.281193
v 0.000015 -0.088237 0.091461
vn 0.220954 -0.933868 -0.281193
v 0.051937 -0.107440 0.196035
vn 0.220954 -0.933868 -0.281193
v -0.011661 -0.122596 0.196396
vn -0.763853 -0.579903 -0.283269
v -0.032654 -0.078820 0.094173
vn -0.763853 -0.579903 -0.283269
v -0.053758 -0.107555 0.209907
vn -0.763853 -0.579903 -0.283269
v -0.054282 -0.053846 0.101368
vn 0.939923 -0.292836 0.175474
v 0.049070 -0.087773 0.244213
vn 0.939923 -0.292836 0.175474
v 0.051937 -0.107440 0.196035
vn 0.939923 -0.292836 0.175474
v 0.072356 -0.046529 0.188311
vn 0.968358 -0.096859 -0.230004
v 0.056631 -0.020261 0.111044
vn 0.968358 -0.096859 -0.230004
v 0.072356 -0.046529 0.188311
vn 0.968358 -0.096859 -0.230004
v 0.049380 -0.063306 0.098643
vn -0.208023 -0.110889 0.971818
v -0.039696 -0.088636 0.252837
vn -0.208023 -0.110889 0.971818
v 0.013318 -0.090213 0.264005
vn -0.208023 -0.110889 0.971818
v -0.000043 0.001589 0.271620
vn -0.976776 0.055087 -0.207061
v -0.072690 -0.046470 0.190167
vn -0.976776 0.055087 -0.207061
v -0.054469 -0.013868 0.112886
vn -0.976776 0.055087 -0.207061
v -0.054282 -0.053846 0.101368
vn 0.455639 -0.450999 0.767459
v 0.038310 -0.116993 0.233430
vn 0.455639 -0.450999 0.767459
v 0.049070 -0.087773 0.244213
vn 0.455639 -0.450999 0.767459
v 0.013318 -0.090213 0.264005
vn 0.942396 -0.099000 0.319514
v 0.049070 -0.087773 0.244213
vn 0.942396 -0.099000 0.319514
v 0.072356 -0.046529 0.188311
vn 0.942396 -0.099000 0.319514
v 0.066328 0.001568 0.220993
vn -0.878312 -0.100586 0.467386
v -0.051450 0.002443 0.250350
vn -0.878312 -0.100586 0.467386
v -0.064728 0.002931 0.225503
vn -0.878312 -0.100586 0.467386
v -0.039696 -0.088636 0.252837
vn -0.295342 -0.542300 0.786565
v -0.038683 -0.116328 0.234125
vn -0.295342 -0.542300 0.786565
v -0.000429 -0.123001 0.243888
vn -0.295342 -0.542300 0.786565
v -0.039696 -0.088636 0.252837
vn -0.365001 -0.924747 -0.107788
v -0.053758 -0.107555 0.209907
vn -0.365001 -0.924747 -0.107788
v -0.011661 -0.122596 0.196396
vn -0.365001 -0.924747 -0.107788
v -0.038683 -0.116328 0.234125
vn -0.852979 -0.313291 0.417464
v -0.039696 -0.088636 0.252837
vn -0.852979 -0.313291 0.417464
v -0.053758 -0.107555 0.209907
vn -0.852979 -0.313291 0.417464
v -0.038683 -0.116328 0.234125
vn -0.286718 -0.900561 -0.326775
v 0.000015 -0.088237 0.091461
vn -0.286718 -0.900561 -0.326775
v -0.011661 -0.122596 0.196396
vn -0.286718 -0.900561 -0.326775
v -0.032654 -0.078820 0.094173
vn 0.227876 -0.960081 -0.162225
v 0.051937 -0.107440 0.196035
vn 0.227876 -0.960081 -0.162225
v 0.038310 -0.116993 0.233430
vn 0.227876 -0.960081 -0.162225
v -0.011661 -0.122596 0.196396
vn 0.486812 -0.071024 0.870615
v 0.049070 -0.087773 0.244213
vn 0.486812 -0.071024 0.870615
v 0.050522 0.001329 0.250670
vn 0.486812 -0.071024 0.870615
v 0.013318 -0.090213 0.264005
vn 0.000000 0.000000 -1.000000
v -0.064745 0.027801 -0.018500
vn 0.000000 0.000000 -1.000000
v -0.040018 0.057931 -0.018500
vn 0.000000 0.000000 -1.000000
v 0.027485 0.064580 -0.018500
vn 0.000000 0.000000 -1.000000
v -0.064745 0.027801 -0.018500
vn 0.000000 0.000000 -1.000000
v 0.027485 0.064580 -0.018500
vn 0.000000 0.000000 -1.000000
v 0.058244 0.039336 -0.018500
vn 0.000000 0.000000 -1.000000
v -0.064745 0.027801 -0.018500
vn 0.000000 0.000000 -1.000000
v 0.058244 0.039336 -0.018500
vn 0.000000 0.000000 -1.000000
v 0.070333 -0.000516 -0.018500
vn 0.000000 0.000000 -1.000000
v -0.064745 0.027801 -0.018500
vn 0.000000 0.000000 -1.000000
v 0.070333 -0.000516 -0.018500
vn 0.000000 0.000000 -1.000000
v 0.065443 -0.025102 -0.018500
vn 0.000000 0.000000 -1.000000
v -0.064745 0.027801 -0.018500
vn 0.000000 0.000000 -1.000000
v 0.065443 -0.025102 -0.018500
vn 0.000000 0.000000 -1.000000
v 0.039142 -0.057148 -0.018500
vn 0.000000 0.000000 -1.000000
v -0.064745 0.027801 -0.018500
vn 0.000000 0.000000 -1.000000
v 0.039142 -0.057148 -0.018500
vn 0.000000 0.000000 -1.000000
v -0.025571 -0.063522 -0.018500
vn 0.000000 0.000000 -1.000000
v -0.064745 0.027801 -0.018500
vn 0.000000 0.000000 -1.000000
v -0.025571 -0.063522 -0.018500
vn 0.000000 0.000000 -1.000000
v -0.059252 -0.036792 -0.018500
vn 0.000000 0.000000 -1.000000
v -0.064745 0.027801 -0.018500
vn 0.000000 0.000000 -1.000000
v -0.059252 -0.036792 -0.018500
vn 0.000000 0.000000 -1.000000
v -0.070330 -0.000274 -0.018500
vn 0.474554 0.706405 0.525158
v 0.038756 0.055890 0.053867
vn 0.474554 0.706405 0.525158
v 0.013025 0.052858 0.081197
vn 0.474554 0.706405 0.525158
v 0.049706 -0.011354 0.134424
vn -0.614218 -0.773942 -0.154113
v -0.059252 -0.036792 -0.018500
vn -0.614218 -0.773942 -0.154113
v -0.025571 -0.063522 -0.018500
vn -0.614218 -0.773942 -0.154113
v -0.033221 -0.083749 0.113567
vn -0.684254 0.608097 0.402509
v -0.042506 -0.005513 0.136106
vn -0.684254 0.608097 0.402509
v -0.026442 0.057260 0.068579
vn -0.684254 0.608097 0.402509
v -0.064786 0.024780 0.052465
vn 0.769533 -0.631576 -0.094505
v 0.034413 -0.082716 0.113864
vn 0.769533 -0.631576 -0.094505
v 0.039142 -0.057148 -0.018500
vn 0.769533 -0.631576 -0.094505
v 0.065443 -0.025102 -0.018500
vn 0.634393 0.772987 -0.005983
v 0.058244 0.039336 -0.018500
vn 0.634393 0.772987 -0.005983
v 0.027485 0.064580 -0.018500
vn 0.634393 0.772987 -0.005983
v 0.038756 0.055890 0.053867
vn 0.000006 -0.276849 0.960914
v 0.034413 -0.082716 0.113864
vn 0.000006 -0.276849 0.960914
v 0.059739 -0.037035 0.127025
vn 0.000006 -0.276849 0.960914
v 0.049706 -0.011354 0.134424
vn -0.000032 -0.276841 0.960916
v 0.034413 -0.082716 0.113864
vn -0.000032 -0.276841 0.960916
v 0.049706 -0.011354 0.134424
vn -0.000032 -0.276841 0.960916
v 0.029243 -0.003167 0.136782
vn -0.000002 -0.276839 0.960916
v 0.034413 -0.082716 0.113864
vn -0.000002 -0.276839 0.960916
v 0.029243 -0.003167 0.136782
vn -0.000002 -0.276839 0.960916
v -0.042506 -0.005513 0.136106
vn 0.000017 -0.276822 0.960921
v 0.034413 -0.082716 0.113864
vn 0.000017 -0.276822 0.960921
v -0.042506 -0.005513 0.136106
vn 0.000017 -0.276822 0.960921
v -0.059738 -0.036981 0.127041
vn 0.000009 -0.276838 0.960917
v 0.034413 -0.082716 0.113864
vn 0.000009 -0.276838 0.960917
v -0.059738 -0.036981 0.127041
vn 0.000009 -0.276838 0.960917
v -0.033221 -0.083749 0.113567
vn 0.000009 -0.276843 0.960915
v 0.034413 -0.082716 0.113864
vn 0.000009 -0.276843 0.960915
v -0.033221 -0.083749 0.113567
vn 0.000009 -0.276843 0.960915
v 0.000854 -0.093609 0.110726
vn -0.772739 0.634169 0.026550
v -0.064786 0.024780 0.052465
vn -0.772739 0.634169 0.026550
v -0.040018 0.057931 -0.018500
vn -0.772739 0.634169 0.026550
v -0.064745 0.027801 -0.018500
vn 0.095056 -0.965072 -0.244130
v -0.025571 -0.063522 -0.018500
vn 0.095056 -0.965072 -0.244130
v 0.039142 -0.057148 -0.018500
vn 0.095056 -0.965072 -0.244130
v 0.000854 -0.093609 0.110726
vn -0.956931 -0.290292 -0.003572
v -0.070330 -0.000274 -0.018500
vn -0.956931 -0.290292 -0.003572
v -0.059252 -0.036792 -0.018500
vn -0.956931 -0.290292 -0.003572
v -0.059738 -0.036981 0.127041
vn 0.997035 0.013006 0.075846
v 0.070333 -0.000516 -0.018500
vn 0.997035 0.013006 0.075846
v 0.064580 0.024961 0.052757
vn 0.997035 0.013006 0.075846
v 0.059739 -0.037035 0.127025
vn -0.029603 0.699673 0.713849
v -0.042506 -0.005513 0.136106
vn -0.029603 0.699673 0.713849
v 0.029243 -0.003167 0.136782
vn -0.029603 0.699673 0.713849
v 0.013025 0.052858 0.081197
vn -0.097018 0.984961 -0.142968
v 0.027485 0.064580 -0.018500
vn -0.097018 0.984961 -0.142968
v -0.040018 0.057931 -0.018500
vn -0.097018 0.984961 -0.142968
v -0.001217 0.070069 0.038793
vn -0.018873 0.924196 0.381453
v 0.013025 0.052858 0.081197
vn -0.018873 0.924196 0.381453
v -0.001217 0.070069 0.038793
vn -0.018873 0.924196 0.381453
v -0.026442 0.057260 0.068579
vn -0.997160 0.008808 0.074792
v -0.070330 -0.000274 -0.018500
vn -0.997160 0.008808 0.074792
v -0.059738 -0.036981 0.127041
vn -0.997160 0.008808 0.074792
v -0.064786 0.024780 0.052465
vn 0.956604 0.290183 -0.026519
v 0.070333 -0.000516 -0.018500
vn 0.956604 0.290183 -0.026519
v 0.058244 0.039336 -0.018500
vn 0.956604 0.290183 -0.026519
v 0.064580 0.024961 0.052757
vn -0.387256 0.919501 0.067460
v -0.026442 0.057260 0.068579
vn -0.387256 0.919501 0.067460
v -0.001217 0.070069 0.038793
vn -0.387256 0.919501 0.067460
v -0.040018 0.057931 -0.018500
vn 0.875223 -0.483689 -0.005357
v 0.059739 -0.037035 0.127025
vn 0.875223 -0.483689 -0.005357
v 0.034413 -0.082716 0.113864
vn 0.875223 -0.483689 -0.005357
v 0.065443 -0.025102 -0.018500
vn -0.870334 -0.492449 -0.003546
v -0.059252 -0.036792 -0.018500
vn -0.870334 -0.492449 -0.003546
v -0.033221 -0.083749 0.113567
vn -0.870334 -0.492449 -0.003546
v -0.059738 -0.036981 0.127041
vn -0.286703 -0.944353 -0.161242
v -0.025571 -0.063522 -0.018500
vn -0.286703 -0.944353 -0.161242
v 0.000854 -0.093609 0.110726
vn -0.286703 -0.944353 -0.161242
v -0.033221 -0.083749 0.113567
vn 0.311630 0.947957 0.065297
v 0.038756 0.055890 0.053867
vn 0.311630 0.947957 0.065297
v 0.027485 0.064580 -0.018500
vn 0.311630 0.947957 0.065297
v -0.001217 0.070069 0.038793
vn 0.713998 0.582190 0.388924
v 0.038756 0.055890 0.053867
vn 0.713998 0.582190 0.388924
v 0.049706 -0.011354 0.134424
vn 0.713998 0.582190 0.388924
v 0.064580 0.024961 0.052757
vn -0.857847 0.365771 0.360985
v -0.042506 -0.005513 0.136106
vn -0.857847 0.365771 0.360985
v -0.064786 0.024780 0.052465
vn -0.857847 0.365771 0.360985
v -0.059738 -0.036981 0.127041
vn 0.318549 -0.932757 -0.168794
v 0.039142 -0.057148 -0.018500
vn 0.318549 -0.932757 -0.168794
v 0.034413 -0.082716 0.113864
vn 0.318549 -0.932757 -0.168794
v 0.000854 -0.093609 0.110726
vn 0.916937 0.274894 0.289239
v 0.049706 -0.011354 0.134424
vn 0.916937 0.274894 0.289239
v 0.059739 -0.037035 0.127025
vn 0.916937 0.274894 0.289239
v 0.064580 0.024961 0.052757
vn -0.668929 0.735149 0.109954
v -0.064786 0.024780 0.052465
vn -0.668929 0.735149 0.109954
v -0.026442 0.057260 0.068579
vn -0.668929 0.735149 0.109954
v -0.040018 0.057931 -0.018500
vn -0.980752 0.195102 0.007739
v -0.064745 0.027801 -0.018500
vn -0.980752 0.195102 0.007739
v -0.070330 -0.000274 -0.018500
vn -0.980752 0.195102 0.007739
v -0.064786 0.024780 0.052465
vn 0.767272 0.638455 0.060575
v 0.058244 0.039336 -0.018500
vn 0.767272 0.638455 0.060575
v 0.038756 0.055890 0.053867
vn 0.767272 0.638455 0.060575
v 0.064580 0.024961 0.052757
vn -0.127922 0.741393 0.658766
v -0.026442 0.057260 0.068579
vn -0.127922 0.741393 0.658766
v -0.042506 -0.005513 0.136106
vn -0.127922 0.741393 0.658766
v 0.013025 0.052858 0.081197
vn 0.980542 -0.195023 0.022441
v 0.065443 -0.025102 -0.018500
vn 0.980542 -0.195023 0.022441
v 0.070333 -0.000516 -0.018500
vn 0.980542 -0.195023 0.022441
v 0.059739 -0.037035 0.127025
vn 0.214282 0.928031 0.304701
v 0.013025 0.052858 0.081197
vn 0.214282 0.928031 0.304701
v 0.038756 0.055890 0.053867
vn 0.214282 0.928031 0.304701
v -0.001217 0.070069 0.038793
vn 0.353794 0.708379 0.610761
v 0.049706 -0.011354 0.134424
vn 0.353794 0.708379 0.610761
v 0.013025 0.052858 0.081197
vn 0.353794 0.708379 0.610761
v 0.029243 -0.003167 0.136782
# 264 vertices, 0 vertices normals

f 1//1 2//2 3//3
f 4//4 5//5 6//6
f 7//7 8//8 9//9
f 10//10 11//11 12//12
f 13//13 14//14 15//15
f 16//16 17//17 18//18
f 19//19 20//20 21//21
f 22//22 23//23 24//24
f 25//25 26//26 27//27
f 28//28 29//29 30//30
f 31//31 32//32 33//33
f 34//34 35//35 36//36
f 37//37 38//38 39//39
f 40//40 41//41 42//42
f 43//43 44//44 45//45
f 46//46 47//47 48//48
f 49//49 50//50 51//51
f 52//52 53//53 54//54
f 55//55 56//56 57//57
f 58//58 59//59 60//60
f 61//61 62//62 63//63
f 64//64 65//65 66//66
f 67//67 68//68 69//69
f 70//70 71//71 72//72
f 73//73 74//74 75//75
f 76//76 77//77 78//78
f 79//79 80//80 81//81
f 82//82 83//83 84//84
f 85//85 86//86 87//87
f 88//88 89//89 90//90
f 91//91 92//92 93//93
f 94//94 95//95 96//96
f 97//97 98//98 99//99
f 100//100 101//101 102//102
f 103//103 104//104 105//105
f 106//106 107//107 108//108
f 109//109 110//110 111//111
f 112//112 113//113 114//114
f 115//115 116//116 117//117
f 118//118 119//119 120//120
f 121//121 122//122 123//123
f 124//124 125//125 126//126
f 127//127 128//128 129//129
f 130//130 131//131 132//132
f 133//133 134//134 135//135
f 136//136 137//137 138//138
f 139//139 140//140 141//141
f 142//142 143//143 144//144
f 145//145 146//146 147//147
f 148//148 149//149 150//150
f 151//151 152//152 153//153
f 154//154 155//155 156//156
f 157//157 158//158 159//159
f 160//160 161//161 162//162
f 163//163 164//164 165//165
f 166//166 167//167 168//168
f 169//169 170//170 171//171
f 172//172 173//173 174//174
f 175//175 176//176 177//177
f 178//178 179//179 180//180
f 181//181 182//182 183//183
f 184//184 185//185 186//186
f 187//187 188//188 189//189
f 190//190 191//191 192//192
f 193//193 194//194 195//195
f 196//196 197//197 198//198
f 199//199 200//200 201//201
f 202//202 203//203 204//204
f 205//205 206//206 207//207
f 208//208 209//209 210//210
f 211//211 212//212 213//213
f 214//214 215//215 216//216
f 217//217 218//218 219//219
f 220//220 221//221 222//222
f 223//223 224//224 225//225
f 226//226 227//227 228//228
f 229//229 230//230 231//231
f 232//232 233//233 234//234
f 235//235 236//236 237//237
f 238//238 239//239 240//240
f 241//241 242//242 243//243
f 244//244 245//245 246//246
f 247//247 248//248 249//249
f 250//250 251//251 252//252
f 253//253 254//254 255//255
f 256//256 257//257 258//258
f 259//259 260//260 261//261
f 262//262 263//263 264//264
# 88 faces, 0 coords texture

# End of File