####
#
# OBJ File Generated by Meshlab
#
####
# Object arm_wrist_convex.obj
#
# Vertices: 282
# Faces: 94
#
####
vn 0.010897 -0.991656 0.128450
v -0.023906 -0.048432 0.056552
vn 0.010897 -0.991656 0.128450
v 0.039960 -0.048550 0.050223
vn 0.010897 -0.991656 0.128450
v 0.010284 -0.047551 0.060453
vn 0.006085 -0.014219 0.999880
v -0.048818 0.019133 0.061761
vn 0.006085 -0.014219 0.999880
v 0.010284 -0.047551 0.060453
vn 0.006085 -0.014219 0.999880
v 0.052951 0.005375 0.060946
vn 0.018725 0.079470 0.996661
v -0.048818 0.019133 0.061761
vn 0.018725 0.079470 0.996661
v 0.052951 0.005375 0.060946
vn 0.018725 0.079470 0.996661
v 0.049695 0.022170 0.059668
vn 0.018725 0.079474 0.996661
v -0.048818 0.019133 0.061761
vn 0.018725 0.079474 0.996661
v 0.049695 0.022170 0.059668
vn 0.018725 0.079474 0.996661
v 0.006139 0.056611 0.057740
vn -0.472430 0.632213 -0.614098
v -0.003643 0.068333 -0.048858
vn -0.472430 0.632213 -0.614098
v -0.025711 0.038744 -0.062342
vn -0.472430 0.632213 -0.614098
v -0.049349 0.030450 -0.052697
vn -0.481914 0.641868 -0.596460
v -0.003643 0.068333 -0.048858
vn -0.481914 0.641868 -0.596460
v -0.049349 0.030450 -0.052697
vn -0.481914 0.641868 -0.596460
v -0.053619 0.049687 -0.028545
vn -0.482000 0.640054 -0.598337
v -0.003643 0.068333 -0.048858
vn -0.482000 0.640054 -0.598337
v -0.053619 0.049687 -0.028545
vn -0.482000 0.640054 -0.598337
v -0.039180 0.067251 -0.021388
vn -0.481995 0.640066 -0.598329
v -0.003643 0.068333 -0.048858
vn -0.481995 0.640066 -0.598329
v -0.039180 0.067251 -0.021388
vn -0.481995 0.640066 -0.598329
v -0.019853 0.076687 -0.026863
vn 0.447722 0.643894 -0.620439
v 0.031199 0.073013 -0.020518
vn 0.447722 0.643894 -0.620439
v 0.051350 0.064599 -0.014708
vn 0.447722 0.643894 -0.620439
v 0.058970 0.035509 -0.039399
vn 0.474695 0.650175 -0.593242
v 0.031199 0.073013 -0.020518
vn 0.474695 0.650175 -0.593242
v 0.058970 0.035509 -0.039399
vn 0.474695 0.650175 -0.593242
v 0.035265 0.030529 -0.063825
vn 0.492929 0.643798 -0.585274
v 0.031199 0.073013 -0.020518
vn 0.492929 0.643798 -0.585274
v 0.035265 0.030529 -0.063825
vn 0.492929 0.643798 -0.585274
v 0.004611 0.067615 -0.048848
vn -0.632780 -0.222210 -0.741763
v -0.035441 -0.049000 -0.053965
vn -0.632780 -0.222210 -0.741763
v -0.056302 -0.049000 -0.036169
vn -0.632780 -0.222210 -0.741763
v -0.062429 -0.002641 -0.044830
vn -0.640918 -0.228726 -0.732741
v -0.035441 -0.049000 -0.053965
vn -0.640918 -0.228726 -0.732741
v -0.062429 -0.002641 -0.044830
vn -0.640918 -0.228726 -0.732741
v -0.056601 0.005329 -0.052415
vn -0.653211 -0.233873 -0.720152
v -0.035441 -0.049000 -0.053965
vn -0.653211 -0.233873 -0.720152
v -0.056601 0.005329 -0.052415
vn -0.653211 -0.233873 -0.720152
v -0.034379 -0.014852 -0.066018
vn 0.729588 0.516326 0.448452
v 0.049695 0.022170 0.059668
vn 0.729588 0.516326 0.448452
v 0.063494 0.040421 0.016205
vn 0.729588 0.516326 0.448452
v 0.055429 0.060037 0.006741
vn 0.732230 0.513861 0.446974
v 0.049695 0.022170 0.059668
vn 0.732230 0.513861 0.446974
v 0.055429 0.060037 0.006741
vn 0.732230 0.513861 0.446974
v 0.034613 0.067131 0.032687
vn -0.742559 0.500492 0.445100
v -0.064828 0.041267 0.010163
vn -0.742559 0.500492 0.445100
v -0.048818 0.019133 0.061761
vn -0.742559 0.500492 0.445100
v -0.031574 0.064486 0.039532
vn -0.742556 0.500515 0.445079
v -0.064828 0.041267 0.010163
vn -0.742556 0.500515 0.445079
v -0.031574 0.064486 0.039532
vn -0.742556 0.500515 0.445079
v -0.034306 0.071479 0.027110
vn -0.742546 0.500463 0.445153
v -0.064828 0.041267 0.010163
vn -0.742546 0.500463 0.445153
v -0.034306 0.071479 0.027110
vn -0.742546 0.500463 0.445153
v -0.043875 0.066330 0.016937
vn 0.790302 -0.298722 -0.534965
v 0.032957 -0.049000 -0.061604
vn 0.790302 -0.298722 -0.534965
v 0.041156 -0.020627 -0.065335
vn 0.790302 -0.298722 -0.534965
v 0.072527 0.000672 -0.030884
vn 0.787003 -0.290254 -0.544407
v 0.032957 -0.049000 -0.061604
vn 0.787003 -0.290254 -0.544407
v 0.072527 0.000672 -0.030884
vn 0.787003 -0.290254 -0.544407
v 0.059361 -0.049000 -0.023434
vn 0.800906 -0.296404 0.520284
v 0.052951 0.005375 0.060946
vn 0.800906 -0.296404 0.520284
v 0.039960 -0.048550 0.050223
vn 0.800906 -0.296404 0.520284
v 0.064555 -0.049000 0.012106
vn 0.806988 -0.289918 0.514508
v 0.052951 0.005375 0.060946
vn 0.806988 -0.289918 0.514508
v 0.064555 -0.049000 0.012106
vn 0.806988 -0.289918 0.514508
v 0.075643 -0.012170 0.015468
vn -0.832371 -0.203254 0.515603
v -0.073574 -0.016677 0.014643
vn -0.832371 -0.203254 0.515603
v -0.059465 -0.048597 0.024837
vn -0.832371 -0.203254 0.515603
v -0.048784 -0.048729 0.042028
vn -0.832369 -0.203247 0.515609
v -0.073574 -0.016677 0.014643
vn -0.832369 -0.203247 0.515609
v -0.048784 -0.048729 0.042028
vn -0.832369 -0.203247 0.515609
v -0.047249 -0.014621 0.057951
vn -0.848315 -0.098163 0.520313
v -0.073574 -0.016677 0.014643
vn -0.848315 -0.098163 0.520313
v -0.047249 -0.014621 0.057951
vn -0.848315 -0.098163 0.520313
v -0.048818 0.019133 0.061761
vn -0.060882 0.864007 0.499785
v -0.034306 0.071479 0.027110
vn -0.060882 0.864007 0.499785
v -0.031574 0.064486 0.039532
vn -0.060882 0.864007 0.499785
v 0.006139 0.056611 0.057740
vn -0.047690 0.872409 0.486444
v -0.034306 0.071479 0.027110
vn -0.047690 0.872409 0.486444
v 0.006139 0.056611 0.057740
vn -0.047690 0.872409 0.486444
v 0.024046 0.069389 0.036579
vn -0.051882 0.859010 0.509323
v -0.034306 0.071479 0.027110
vn -0.051882 0.859010 0.509323
v 0.024046 0.069389 0.036579
vn -0.051882 0.859010 0.509323
v -0.004178 0.085728 0.006147
vn 0.000000 -1.000000 0.000000
v 0.032957 -0.049000 -0.061604
vn 0.000000 -1.000000 0.000000
v -0.035441 -0.049000 -0.053965
vn 0.000000 -1.000000 0.000000
v -0.003075 -0.049000 -0.067054
vn -0.908421 -0.415697 -0.044353
v -0.056302 -0.049000 -0.036169
vn -0.908421 -0.415697 -0.044353
v -0.059465 -0.048597 0.024837
vn -0.908421 -0.415697 -0.044353
v -0.073574 -0.016677 0.014643
vn -0.935786 -0.336959 -0.103743
v -0.056302 -0.049000 -0.036169
vn -0.935786 -0.336959 -0.103743
v -0.073574 -0.016677 0.014643
vn -0.935786 -0.336959 -0.103743
v -0.077424 -0.000699 -0.002526
vn 0.935156 0.338033 -0.105914
v 0.077346 -0.001294 0.005390
vn 0.935156 0.338033 -0.105914
v 0.072527 0.000672 -0.030884
vn 0.935156 0.338033 -0.105914
v 0.058970 0.035509 -0.039399
vn 0.935592 0.336319 -0.107502
v 0.077346 -0.001294 0.005390
vn 0.935592 0.336319 -0.107502
v 0.058970 0.035509 -0.039399
vn 0.935592 0.336319 -0.107502
v 0.051350 0.064599 -0.014708
vn 0.935597 0.336683 -0.106315
v 0.077346 -0.001294 0.005390
vn 0.935597 0.336683 -0.106315
v 0.051350 0.064599 -0.014708
vn 0.935597 0.336683 -0.106315
v 0.055429 0.060037 0.006741
vn 0.936276 0.336782 -0.099823
v 0.077346 -0.001294 0.005390
vn 0.936276 0.336782 -0.099823
v 0.055429 0.060037 0.006741
vn 0.936276 0.336782 -0.099823
v 0.063494 0.040421 0.016205
vn -0.896838 0.254858 -0.361565
v -0.053619 0.049687 -0.028545
vn -0.896838 0.254858 -0.361565
v -0.049349 0.030450 -0.052697
vn -0.896838 0.254858 -0.361565
v -0.056601 0.005329 -0.052415
vn -0.879452 0.270049 -0.391967
v -0.053619 0.049687 -0.028545
vn -0.879452 0.270049 -0.391967
v -0.056601 0.005329 -0.052415
vn -0.879452 0.270049 -0.391967
v -0.062429 -0.002641 -0.044830
vn -0.907243 0.256487 -0.333354
v -0.053619 0.049687 -0.028545
vn -0.907243 0.256487 -0.333354
v -0.062429 -0.002641 -0.044830
vn -0.907243 0.256487 -0.333354
v -0.077424 -0.000699 -0.002526
vn -0.908864 0.261672 -0.324798
v -0.053619 0.049687 -0.028545
vn -0.908864 0.261672 -0.324798
v -0.077424 -0.000699 -0.002526
vn -0.908864 0.261672 -0.324798
v -0.069468 0.034526 0.003590
vn 0.035260 0.392537 -0.919060
v -0.025711 0.038744 -0.062342
vn 0.035260 0.392537 -0.919060
v -0.003643 0.068333 -0.048858
vn 0.035260 0.392537 -0.919060
v 0.004611 0.067615 -0.048848
vn 0.031073 0.396258 -0.917613
v -0.025711 0.038744 -0.062342
vn 0.031073 0.396258 -0.917613
v 0.004611 0.067615 -0.048848
vn 0.031073 0.396258 -0.917613
v 0.035265 0.030529 -0.063825
vn 0.031721 0.400710 -0.915656
v -0.025711 0.038744 -0.062342
vn 0.031721 0.400710 -0.915656
v 0.035265 0.030529 -0.063825
vn 0.031721 0.400710 -0.915656
v 0.028599 0.008560 -0.073670
vn 0.035860 0.407049 -0.912702
v -0.025711 0.038744 -0.062342
vn 0.035860 0.407049 -0.912702
v 0.028599 0.008560 -0.073670
vn 0.035860 0.407049 -0.912702
v -0.004644 0.002394 -0.077726
vn 0.285043 0.929358 0.234613
v -0.004178 0.085728 0.006147
vn 0.285043 0.929358 0.234613
v 0.024046 0.069389 0.036579
vn 0.285043 0.929358 0.234613
v 0.034613 0.067131 0.032687
vn 0.394395 0.916580 0.065831
v -0.004178 0.085728 0.006147
vn 0.394395 0.916580 0.065831
v 0.034613 0.067131 0.032687
vn 0.394395 0.916580 0.065831
v 0.055429 0.060037 0.006741
vn 0.391968 0.912188 0.119472
v -0.004178 0.085728 0.006147
vn 0.391968 0.912188 0.119472
v 0.055429 0.060037 0.006741
vn 0.391968 0.912188 0.119472
v 0.051350 0.064599 -0.014708
vn 0.372050 0.926774 0.051663
v -0.004178 0.085728 0.006147
vn 0.372050 0.926774 0.051663
v 0.051350 0.064599 -0.014708
vn 0.372050 0.926774 0.051663
v 0.031199 0.073013 -0.020518
vn -0.446058 0.894390 -0.033151
v -0.019853 0.076687 -0.026863
vn -0.446058 0.894390 -0.033151
v -0.039180 0.067251 -0.021388
vn -0.446058 0.894390 -0.033151
v -0.043875 0.066330 0.016937
vn -0.446039 0.894400 -0.033138
v -0.019853 0.076687 -0.026863
vn -0.446039 0.894400 -0.033138
v -0.043875 0.066330 0.016937
vn -0.446039 0.894400 -0.033138
v -0.034306 0.071479 0.027110
vn -0.446062 0.894388 -0.033146
v -0.019853 0.076687 -0.026863
vn -0.446062 0.894388 -0.033146
v -0.034306 0.071479 0.027110
vn -0.446062 0.894388 -0.033146
v -0.004178 0.085728 0.006147
vn 0.703440 0.101785 -0.703429
v 0.028599 0.008560 -0.073670
vn 0.703440 0.101785 -0.703429
v 0.035265 0.030529 -0.063825
vn 0.703440 0.101785 -0.703429
v 0.058970 0.035509 -0.039399
vn 0.703430 0.101807 -0.703436
v 0.028599 0.008560 -0.073670
vn 0.703430 0.101807 -0.703436
v 0.058970 0.035509 -0.039399
vn 0.703430 0.101807 -0.703436
v 0.072527 0.000672 -0.030884
vn 0.703429 0.101749 -0.703445
v 0.028599 0.008560 -0.073670
vn 0.703429 0.101749 -0.703445
v 0.072527 0.000672 -0.030884
vn 0.703429 0.101749 -0.703445
v 0.041156 -0.020627 -0.065335
vn 0.156452 -0.208396 -0.965450
v -0.004644 0.002394 -0.077726
vn 0.156452 -0.208396 -0.965450
v 0.028599 0.008560 -0.073670
vn 0.156452 -0.208396 -0.965450
v 0.041156 -0.020627 -0.065335
vn 0.172956 -0.177378 -0.968826
v -0.004644 0.002394 -0.077726
vn 0.172956 -0.177378 -0.968826
v 0.041156 -0.020627 -0.065335
vn 0.172956 -0.177378 -0.968826
v 0.032957 -0.049000 -0.061604
vn 0.146628 -0.196824 -0.969412
v -0.004644 0.002394 -0.077726
vn 0.146628 -0.196824 -0.969412
v 0.032957 -0.049000 -0.061604
vn 0.146628 -0.196824 -0.969412
v -0.003075 -0.049000 -0.067054
vn 0.125132 -0.198054 -0.972171
v -0.004644 0.002394 -0.077726
vn 0.125132 -0.198054 -0.972171
v -0.003075 -0.049000 -0.067054
vn 0.125132 -0.198054 -0.972171
v -0.011947 -0.010575 -0.076024
vn 0.083074 0.950394 -0.299748
v -0.003643 0.068333 -0.048858
vn 0.083074 0.950394 -0.299748
v -0.019853 0.076687 -0.026863
vn 0.083074 0.950394 -0.299748
v -0.004178 0.085728 0.006147
vn 0.115541 0.947395 -0.298484
v -0.003643 0.068333 -0.048858
vn 0.115541 0.947395 -0.298484
v -0.004178 0.085728 0.006147
vn 0.115541 0.947395 -0.298484
v 0.031199 0.073013 -0.020518
vn 0.083949 0.961420 -0.261961
v -0.003643 0.068333 -0.048858
vn 0.083949 0.961420 -0.261961
v 0.031199 0.073013 -0.020518
vn 0.083949 0.961420 -0.261961
v 0.004611 0.067615 -0.048848
vn 0.951483 -0.273380 -0.141221
v 0.059361 -0.049000 -0.023434
vn 0.951483 -0.273380 -0.141221
v 0.072527 0.000672 -0.030884
vn 0.951483 -0.273380 -0.141221
v 0.077346 -0.001294 0.005390
vn 0.951375 -0.275900 -0.136982
v 0.059361 -0.049000 -0.023434
vn 0.951375 -0.275900 -0.136982
v 0.077346 -0.001294 0.005390
vn 0.951375 -0.275900 -0.136982
v 0.075643 -0.012170 0.015468
vn 0.951673 -0.273814 -0.139082
v 0.059361 -0.049000 -0.023434
vn 0.951673 -0.273814 -0.139082
v 0.075643 -0.012170 0.015468
vn 0.951673 -0.273814 -0.139082
v 0.064555 -0.049000 0.012106
vn -0.467877 -0.356482 0.808710
v -0.023906 -0.048432 0.056552
vn -0.467877 -0.356482 0.808710
v -0.047249 -0.014621 0.057951
vn -0.467877 -0.356482 0.808710
v -0.048784 -0.048729 0.042028
vn -0.415675 0.139454 -0.898758
v -0.049349 0.030450 -0.052697
vn -0.415675 0.139454 -0.898758
v -0.025711 0.038744 -0.062342
vn -0.415675 0.139454 -0.898758
v -0.004644 0.002394 -0.077726
vn -0.425517 0.121933 -0.896698
v -0.049349 0.030450 -0.052697
vn -0.425517 0.121933 -0.896698
v -0.004644 0.002394 -0.077726
vn -0.425517 0.121933 -0.896698
v -0.011947 -0.010575 -0.076024
vn -0.423826 0.123786 -0.897245
v -0.049349 0.030450 -0.052697
vn -0.423826 0.123786 -0.897245
v -0.011947 -0.010575 -0.076024
vn -0.423826 0.123786 -0.897245
v -0.034379 -0.014852 -0.066018
vn -0.439190 0.116805 -0.890769
v -0.049349 0.030450 -0.052697
vn -0.439190 0.116805 -0.890769
v -0.034379 -0.014852 -0.066018
vn -0.439190 0.116805 -0.890769
v -0.056601 0.005329 -0.052415
vn 0.000153 -0.999796 0.020183
v 0.039960 -0.048550 0.050223
vn 0.000153 -0.999796 0.020183
v -0.023906 -0.048432 0.056552
vn 0.000153 -0.999796 0.020183
v -0.048784 -0.048729 0.042028
vn 0.002892 -0.999951 -0.009475
v 0.039960 -0.048550 0.050223
vn 0.002892 -0.999951 -0.009475
v -0.048784 -0.048729 0.042028
vn 0.002892 -0.999951 -0.009475
v -0.059465 -0.048597 0.024837
vn -0.001198 -0.999978 0.006544
v 0.039960 -0.048550 0.050223
vn -0.001198 -0.999978 0.006544
v -0.059465 -0.048597 0.024837
vn -0.001198 -0.999978 0.006544
v -0.056302 -0.049000 -0.036169
vn 0.002278 -0.999994 0.002670
v 0.039960 -0.048550 0.050223
vn 0.002278 -0.999994 0.002670
v -0.056302 -0.049000 -0.036169
vn 0.002278 -0.999994 0.002670
v -0.035441 -0.049000 -0.053965
vn 0.000446 -0.999992 0.003996
v 0.039960 -0.048550 0.050223
vn 0.000446 -0.999992 0.003996
v -0.035441 -0.049000 -0.053965
vn 0.000446 -0.999992 0.003996
v 0.032957 -0.049000 -0.061604
vn -0.006396 -0.999970 0.004425
v 0.039960 -0.048550 0.050223
vn -0.006396 -0.999970 0.004425
v 0.032957 -0.049000 -0.061604
vn -0.006396 -0.999970 0.004425
v 0.059361 -0.049000 -0.023434
vn -0.014916 -0.999886 0.002180
v 0.039960 -0.048550 0.050223
vn -0.014916 -0.999886 0.002180
v 0.059361 -0.049000 -0.023434
vn -0.014916 -0.999886 0.002180
v 0.064555 -0.049000 0.012106
vn -0.892188 0.242676 0.380932
v -0.048818 0.019133 0.061761
vn -0.892188 0.242676 0.380932
v -0.064828 0.041267 0.010163
vn -0.892188 0.242676 0.380932
v -0.069468 0.034526 0.003590
vn -0.919837 0.144426 0.364748
v -0.048818 0.019133 0.061761
vn -0.919837 0.144426 0.364748
v -0.069468 0.034526 0.003590
vn -0.919837 0.144426 0.364748
v -0.077424 -0.000699 -0.002526
vn -0.919077 0.163721 0.358458
v -0.048818 0.019133 0.061761
vn -0.919077 0.163721 0.358458
v -0.077424 -0.000699 -0.002526
vn -0.919077 0.163721 0.358458
v -0.073574 -0.016677 0.014643
vn 0.307297 -0.256268 0.916458
v 0.010284 -0.047551 0.060453
vn 0.307297 -0.256268 0.916458
v 0.039960 -0.048550 0.050223
vn 0.307297 -0.256268 0.916458
v 0.052951 0.005375 0.060946
vn 0.905160 0.203864 0.372996
v 0.049695 0.022170 0.059668
vn 0.905160 0.203864 0.372996
v 0.052951 0.005375 0.060946
vn 0.905160 0.203864 0.372996
v 0.075643 -0.012170 0.015468
vn 0.905161 0.203883 0.372982
v 0.049695 0.022170 0.059668
vn 0.905161 0.203883 0.372982
v 0.075643 -0.012170 0.015468
vn 0.905161 0.203883 0.372982
v 0.077346 -0.001294 0.005390
vn 0.905161 0.203870 0.372987
v 0.049695 0.022170 0.059668
vn 0.905161 0.203870 0.372987
v 0.077346 -0.001294 0.005390
vn 0.905161 0.203870 0.372987
v 0.063494 0.040421 0.016205
vn -0.757202 0.649745 -0.066909
v -0.039180 0.067251 -0.021388
vn -0.757202 0.649745 -0.066909
v -0.053619 0.049687 -0.028545
vn -0.757202 0.649745 -0.066909
v -0.069468 0.034526 0.003590
vn -0.768485 0.631217 -0.104863
v -0.039180 0.067251 -0.021388
vn -0.768485 0.631217 -0.104863
v -0.069468 0.034526 0.003590
vn -0.768485 0.631217 -0.104863
v -0.064828 0.041267 0.010163
vn -0.754634 0.651638 -0.076787
v -0.039180 0.067251 -0.021388
vn -0.754634 0.651638 -0.076787
v -0.064828 0.041267 0.010163
vn -0.754634 0.651638 -0.076787
v -0.043875 0.066330 0.016937
vn -0.109626 -0.116523 0.987119
v -0.023906 -0.048432 0.056552
vn -0.109626 -0.116523 0.987119
v 0.010284 -0.047551 0.060453
vn -0.109626 -0.116523 0.987119
v -0.048818 0.019133 0.061761
vn -0.109607 -0.116517 0.987122
v -0.023906 -0.048432 0.056552
vn -0.109607 -0.116517 0.987122
v -0.048818 0.019133 0.061761
vn -0.109607 -0.116517 0.987122
v -0.047249 -0.014621 0.057951
vn -0.929274 -0.182787 -0.320998
v -0.062429 -0.002641 -0.044830
vn -0.929274 -0.182787 -0.320998
v -0.056302 -0.049000 -0.036169
vn -0.929274 -0.182787 -0.320998
v -0.077424 -0.000699 -0.002526
vn -0.286478 0.507288 0.812766
v -0.048818 0.019133 0.061761
vn -0.286478 0.507288 0.812766
v 0.006139 0.056611 0.057740
vn -0.286478 0.507288 0.812766
v -0.031574 0.064486 0.039532
vn 0.416431 0.566451 0.711139
v 0.006139 0.056611 0.057740
vn 0.416431 0.566451 0.711139
v 0.049695 0.022170 0.059668
vn 0.416431 0.566451 0.711139
v 0.034613 0.067131 0.032687
vn 0.385532 0.608447 0.693655
v 0.006139 0.056611 0.057740
vn 0.385532 0.608447 0.693655
v 0.034613 0.067131 0.032687
vn 0.385532 0.608447 0.693655
v 0.024046 0.069389 0.036579
vn -0.339234 -0.303703 -0.890328
v -0.035441 -0.049000 -0.053965
vn -0.339234 -0.303703 -0.890328
v -0.034379 -0.014852 -0.066018
vn -0.339234 -0.303703 -0.890328
v -0.011947 -0.010575 -0.076024
vn -0.358802 -0.289962 -0.887233
v -0.035441 -0.049000 -0.053965
vn -0.358802 -0.289962 -0.887233
v -0.011947 -0.010575 -0.076024
vn -0.358802 -0.289962 -0.887233
v -0.003075 -0.049000 -0.067054
# 282 vertices, 0 vertices normals

f 1//1 2//2 3//3
f 4//4 5//5 6//6
f 7//7 8//8 9//9
f 10//10 11//11 12//12
f 13//13 14//14 15//15
f 16//16 17//17 18//18
f 19//19 20//20 21//21
f 22//22 23//23 24//24
f 25//25 26//26 27//27
f 28//28 29//29 30//30
f 31//31 32//32 33//33
f 34//34 35//35 36//36
f 37//37 38//38 39//39
f 40//40 41//41 42//42
f 43//43 44//44 45//45
f 46//46 47//47 48//48
f 49//49 50//50 51//51
f 52//52 53//53 54//54
f 55//55 56//56 57//57
f 58//58 59//59 60//60
f 61//61 62//62 63//63
f 64//64 65//65 66//66
f 67//67 68//68 69//69
f 70//70 71//71 72//72
f 73//73 74//74 75//75
f 76//76 77//77 78//78
f 79//79 80//80 81//81
f 82//82 83//83 84//84
f 85//85 86//86 87//87
f 88//88 89//89 90//90
f 91//91 92//92 93//93
f 94//94 95//95 96//96
f 97//97 98//98 99//99
f 100//100 101//101 102//102
f 103//103 104//104 105//105
f 106//106 107//107 108//108
f 109//109 110//110 111//111
f 112//112 113//113 114//114
f 115//115 116//116 117//117
f 118//118 119//119 120//120
f 121//121 122//122 123//123
f 124//124 125//125 126//126
f 127//127 128//128 129//129
f 130//130 131//131 132//132
f 133//133 134//134 135//135
f 136//136 137//137 138//138
f 139//139 140//140 141//141
f 142//142 143//143 144//144
f 145//145 146//146 147//147
f 148//148 149//149 150//150
f 151//151 152//152 153//153
f 154//154 155//155 156//156
f 157//157 158//158 159//159
f 160//160 161//161 162//162
f 163//163 164//164 165//165
f 166//166 167//167 168//168
f 169//169 170//170 171//171
f 172//172 173//173 174//174
f 175//175 176//176 177//177
f 178//178 179//179 180//180
f 181//181 182//182 183//183
f 184//184 185//185 186//186
f 187//187 188//188 189//189
f 190//190 191//191 192//192
f 193//193 194//194 195//195
f 196//196 197//197 198//198
f 199//199 200//200 201//201
f 202//202 203//203 204//204
f 205//205 206//206 207//207
f 208//208 209//209 210//210
f 211//211 212//212 213//213
f 214//214 215//215 216//216
f 217//217 218//218 219//219
f 220//220 221//221 222//222
f 223//223 224//224 225//225
f 226//226 227//227 228//228
f 229//229 230//230 231//231
f 232//232 233//233 234//234
f 235//235 236//236 237//237
f 238//238 239//239 240//240
f 241//241 242//242 243//243
f 244//244 245//245 246//246
f 247//247 248//248 249//249
f 250//250 251//251 252//252
f 253//253 254//254 255//255
f 256//256 257//257 258//258
f 259//259 260//260 261//261
f 262//262 263//263 264//264
f 265//265 266//266 267//267
f 268//268 269//269 270//270
f 271//271 272//272 273//273
f 274//274 275//275 276//276
f 277//277 278//278 279//279
f 280//280 281//281 282//282
# 94 faces, 0 coords texture

# End of File