####
#
# OBJ File Generated by Meshlab
#
####
# Object arm_base_convex.obj
#
# Vertices: 132
# Faces: 44
#
####
vn 0.000000 0.000000 1.000000
v 0.038166 -0.057319 0.128500
vn 0.000000 0.000000 1.000000
v 0.067317 -0.013692 0.128500
vn 0.000000 0.000000 1.000000
v 0.063420 0.026532 0.128500
vn 0.000000 0.000000 1.000000
v 0.038166 -0.057319 0.128500
vn 0.000000 0.000000 1.000000
v 0.063420 0.026532 0.128500
vn 0.000000 0.000000 1.000000
v 0.048575 0.048395 0.128500
vn 0.000000 0.000000 1.000000
v 0.038166 -0.057319 0.128500
vn 0.000000 0.000000 1.000000
v 0.048575 0.048395 0.128500
vn 0.000000 0.000000 1.000000
v 0.026532 0.063420 0.128500
vn 0.000000 0.000000 1.000000
v 0.038166 -0.057319 0.128500
vn 0.000000 0.000000 1.000000
v 0.026532 0.063420 0.128500
vn 0.000000 0.000000 1.000000
v -0.013533 0.067365 0.128500
vn 0.000000 0.000000 1.000000
v 0.038166 -0.057319 0.128500
vn 0.000000 0.000000 1.000000
v -0.013533 0.067365 0.128500
vn 0.000000 0.000000 1.000000
v -0.038690 0.056535 0.128500
vn 0.000000 0.000000 1.000000
v 0.038166 -0.057319 0.128500
vn 0.000000 0.000000 1.000000
v -0.038690 0.056535 0.128500
vn 0.000000 0.000000 1.000000
v -0.067317 0.013691 0.128500
vn 0.000000 0.000000 1.000000
v 0.038166 -0.057319 0.128500
vn 0.000000 0.000000 1.000000
v -0.067317 0.013691 0.128500
vn 0.000000 0.000000 1.000000
v -0.063420 -0.026532 0.128500
vn 0.000000 0.000000 1.000000
v 0.038166 -0.057319 0.128500
vn 0.000000 0.000000 1.000000
v -0.063420 -0.026532 0.128500
vn 0.000000 0.000000 1.000000
v -0.048115 -0.048996 0.128500
vn 0.000000 0.000000 1.000000
v 0.038166 -0.057319 0.128500
vn 0.000000 0.000000 1.000000
v -0.048115 -0.048996 0.128500
vn 0.000000 0.000000 1.000000
v -0.026296 -0.063415 0.128500
vn 0.000000 0.000000 1.000000
v 0.038166 -0.057319 0.128500
vn 0.000000 0.000000 1.000000
v -0.026296 -0.063415 0.128500
vn 0.000000 0.000000 1.000000
v 0.000448 -0.068872 0.128500
vn 0.000000 0.000000 -1.000000
v -0.051055 0.076448 -0.010000
vn 0.000000 0.000000 -1.000000
v 0.000148 0.092132 -0.010000
vn 0.000000 0.000000 -1.000000
v 0.050830 0.076513 -0.010000
vn 0.000000 0.000000 -1.000000
v -0.051055 0.076448 -0.010000
vn 0.000000 0.000000 -1.000000
v 0.050830 0.076513 -0.010000
vn 0.000000 0.000000 -1.000000
v 0.076513 0.050830 -0.010000
vn 0.000000 0.000000 -1.000000
v -0.051055 0.076448 -0.010000
vn 0.000000 0.000000 -1.000000
v 0.076513 0.050830 -0.010000
vn 0.000000 0.000000 -1.000000
v 0.092085 -0.000005 -0.010000
vn 0.000000 0.000000 -1.000000
v -0.051055 0.076448 -0.010000
vn 0.000000 0.000000 -1.000000
v 0.092085 -0.000005 -0.010000
vn 0.000000 0.000000 -1.000000
v 0.076448 -0.051055 -0.010000
vn 0.000000 0.000000 -1.000000
v -0.051055 0.076448 -0.010000
vn 0.000000 0.000000 -1.000000
v 0.076448 -0.051055 -0.010000
vn 0.000000 0.000000 -1.000000
v 0.050728 -0.076774 -0.010000
vn 0.000000 0.000000 -1.000000
v -0.051055 0.076448 -0.010000
vn 0.000000 0.000000 -1.000000
v 0.050728 -0.076774 -0.010000
vn 0.000000 0.000000 -1.000000
v 0.000492 -0.092162 -0.010000
vn 0.000000 0.000000 -1.000000
v -0.051055 0.076448 -0.010000
vn 0.000000 0.000000 -1.000000
v 0.000492 -0.092162 -0.010000
vn 0.000000 0.000000 -1.000000
v -0.035195 -0.084881 -0.010000
vn 0.000000 0.000000 -1.000000
v -0.051055 0.076448 -0.010000
vn 0.000000 0.000000 -1.000000
v -0.035195 -0.084881 -0.010000
vn 0.000000 0.000000 -1.000000
v -0.076432 -0.051096 -0.010000
vn 0.000000 0.000000 -1.000000
v -0.051055 0.076448 -0.010000
vn 0.000000 0.000000 -1.000000
v -0.076432 -0.051096 -0.010000
vn 0.000000 0.000000 -1.000000
v -0.092085 0.000005 -0.010000
vn 0.000000 0.000000 -1.000000
v -0.051055 0.076448 -0.010000
vn 0.000000 0.000000 -1.000000
v -0.092085 0.000005 -0.010000
vn 0.000000 0.000000 -1.000000
v -0.076448 0.051055 -0.010000
vn 0.814576 -0.544289 0.200536
v 0.067317 -0.013692 0.128500
vn 0.814576 -0.544289 0.200536
v 0.038166 -0.057319 0.128500
vn 0.814576 -0.544289 0.200536
v 0.076448 -0.051055 -0.010000
vn -0.814583 0.544279 0.200537
v -0.067317 0.013691 0.128500
vn -0.814583 0.544279 0.200537
v -0.038690 0.056535 0.128500
vn -0.814583 0.544279 0.200537
v -0.076448 0.051055 -0.010000
vn -0.627517 -0.765929 0.139912
v -0.076432 -0.051096 -0.010000
vn -0.627517 -0.765929 0.139912
v -0.035195 -0.084881 -0.010000
vn -0.627517 -0.765929 0.139912
v -0.048115 -0.048996 0.128500
vn 0.698756 0.698756 0.153237
v 0.076513 0.050830 -0.010000
vn 0.698756 0.698756 0.153237
v 0.050830 0.076513 -0.010000
vn 0.698756 0.698756 0.153237
v 0.048575 0.048395 0.128500
vn 0.096310 0.978117 0.184423
v -0.013533 0.067365 0.128500
vn 0.096310 0.978117 0.184423
v 0.026532 0.063420 0.128500
vn 0.096310 0.978117 0.184423
v 0.000148 0.092132 -0.010000
vn 0.289151 -0.944014 0.158836
v 0.038166 -0.057319 0.128500
vn 0.289151 -0.944014 0.158836
v 0.000448 -0.068872 0.128500
vn 0.289151 -0.944014 0.158836
v 0.000492 -0.092162 -0.010000
vn 0.289164 -0.944011 0.158832
v 0.038166 -0.057319 0.128500
vn 0.289164 -0.944011 0.158832
v 0.000492 -0.092162 -0.010000
vn 0.289164 -0.944011 0.158832
v 0.050728 -0.076774 -0.010000
vn -0.946682 -0.289983 0.140371
v -0.063420 -0.026532 0.128500
vn -0.946682 -0.289983 0.140371
v -0.092085 0.000005 -0.010000
vn -0.946682 -0.289983 0.140371
v -0.076432 -0.051096 -0.010000
vn 0.946679 0.289991 0.140369
v 0.063420 0.026532 0.128500
vn 0.946679 0.289991 0.140369
v 0.092085 -0.000005 -0.010000
vn 0.946679 0.289991 0.140369
v 0.076513 0.050830 -0.010000
vn -0.289967 0.946646 0.140639
v -0.013533 0.067365 0.128500
vn -0.289967 0.946646 0.140639
v 0.000148 0.092132 -0.010000
vn -0.289967 0.946646 0.140639
v -0.051055 0.076448 -0.010000
vn 0.946648 -0.289965 0.140634
v 0.067317 -0.013692 0.128500
vn 0.946648 -0.289965 0.140634
v 0.076448 -0.051055 -0.010000
vn 0.946648 -0.289965 0.140634
v 0.092085 -0.000005 -0.010000
vn -0.946648 0.289965 0.140636
v -0.067317 0.013691 0.128500
vn -0.946648 0.289965 0.140636
v -0.076448 0.051055 -0.010000
vn -0.946648 0.289965 0.140636
v -0.092085 0.000005 -0.010000
vn -0.197268 -0.966785 0.162516
v 0.000448 -0.068872 0.128500
vn -0.197268 -0.966785 0.162516
v -0.026296 -0.063415 0.128500
vn -0.197268 -0.966785 0.162516
v -0.035195 -0.084881 -0.010000
vn -0.197248 -0.966790 0.162512
v 0.000448 -0.068872 0.128500
vn -0.197248 -0.966790 0.162512
v -0.035195 -0.084881 -0.010000
vn -0.197248 -0.966790 0.162512
v 0.000492 -0.092162 -0.010000
vn 0.291583 0.946156 0.140599
v 0.026532 0.063420 0.128500
vn 0.291583 0.946156 0.140599
v 0.050830 0.076513 -0.010000
vn 0.291583 0.946156 0.140599
v 0.000148 0.092132 -0.010000
vn 0.978287 0.094779 0.184314
v 0.063420 0.026532 0.128500
vn 0.978287 0.094779 0.184314
v 0.067317 -0.013692 0.128500
vn 0.978287 0.094779 0.184314
v 0.092085 -0.000005 -0.010000
vn -0.978287 -0.094781 0.184313
v -0.063420 -0.026532 0.128500
vn -0.978287 -0.094781 0.184313
v -0.067317 0.013691 0.128500
vn -0.978287 -0.094781 0.184313
v -0.092085 0.000005 -0.010000
vn 0.697832 -0.697859 0.161321
v 0.076448 -0.051055 -0.010000
vn 0.697832 -0.697859 0.161321
v 0.038166 -0.057319 0.128500
vn 0.697832 -0.697859 0.161321
v 0.050728 -0.076774 -0.010000
vn -0.697697 0.697697 0.162601
v -0.038690 0.056535 0.128500
vn -0.697697 0.697697 0.162601
v -0.051055 0.076448 -0.010000
vn -0.697697 0.697697 0.162601
v -0.076448 0.051055 -0.010000
vn -0.813703 -0.554385 0.174771
v -0.048115 -0.048996 0.128500
vn -0.813703 -0.554385 0.174771
v -0.063420 -0.026532 0.128500
vn -0.813703 -0.554385 0.174771
v -0.076432 -0.051096 -0.010000
vn 0.554613 0.813666 0.174219
v 0.026532 0.063420 0.128500
vn 0.554613 0.813666 0.174219
v 0.048575 0.048395 0.128500
vn 0.554613 0.813666 0.174219
v 0.050830 0.076513 -0.010000
vn 0.814682 0.553170 0.174062
v 0.048575 0.048395 0.128500
vn 0.814682 0.553170 0.174062
v 0.063420 0.026532 0.128500
vn 0.814682 0.553170 0.174062
v 0.076513 0.050830 -0.010000
vn -0.544002 -0.823191 0.162539
v -0.026296 -0.063415 0.128500
vn -0.544002 -0.823191 0.162539
v -0.048115 -0.048996 0.128500
vn -0.544002 -0.823191 0.162539
v -0.035195 -0.084881 -0.010000
vn -0.389988 0.905904 0.165065
v -0.038690 0.056535 0.128500
vn -0.389988 0.905904 0.165065
v -0.013533 0.067365 0.128500
vn -0.389988 0.905904 0.165065
v -0.051055 0.076448 -0.010000
# 132 vertices, 0 vertices normals

f 1//1 2//2 3//3
f 4//4 5//5 6//6
f 7//7 8//8 9//9
f 10//10 11//11 12//12
f 13//13 14//14 15//15
f 16//16 17//17 18//18
f 19//19 20//20 21//21
f 22//22 23//23 24//24
f 25//25 26//26 27//27
f 28//28 29//29 30//30
f 31//31 32//32 33//33
f 34//34 35//35 36//36
f 37//37 38//38 39//39
f 40//40 41//41 42//42
f 43//43 44//44 45//45
f 46//46 47//47 48//48
f 49//49 50//50 51//51
f 52//52 53//53 54//54
f 55//55 56//56 57//57
f 58//58 59//59 60//60
f 61//61 62//62 63//63
f 64//64 65//65 66//66
f 67//67 68//68 69//69
f 70//70 71//71 72//72
f 73//73 74//74 75//75
f 76//76 77//77 78//78
f 79//79 80//80 81//81
f 82//82 83//83 84//84
f 85//85 86//86 87//87
f 88//88 89//89 90//90
f 91//91 92//92 93//93
f 94//94 95//95 96//96
f 97//97 98//98 99//99
f 100//100 101//101 102//102
f 103//103 104//104 105//105
f 106//106 107//107 108//108
f 109//109 110//110 111//111
f 112//112 113//113 114//114
f 115//115 116//116 117//117
f 118//118 119//119 120//120
f 121//121 122//122 123//123
f 124//124 125//125 126//126
f 127//127 128//128 129//129
f 130//130 131//131 132//132
# 44 faces, 0 coords texture

# End of File