####
#
# OBJ File Generated by Meshlab
#
####
# Object finger_proximal_chull.obj
#
# Vertices: 36
# Faces: 12
#
####
vn 0.011929 0.054243 0.998456
v 0.059991 -0.014063 0.010523
vn 0.011929 0.054243 0.998456
v 0.062756 0.018539 0.008719
vn 0.011929 0.054243 0.998456
v -0.011342 -0.007985 0.011045
vn -0.084368 -0.994912 0.055058
v 0.059991 -0.014063 0.010523
vn -0.084368 -0.994912 0.055058
v -0.011342 -0.007985 0.011045
vn -0.084368 -0.994912 0.055058
v -0.011619 -0.009247 -0.012182
vn -0.084368 -0.994912 0.055058
v 0.059991 -0.014063 0.010523
vn -0.084368 -0.994912 0.055058
v -0.011619 -0.009247 -0.012182
vn -0.084368 -0.994912 0.055058
v 0.059713 -0.015325 -0.012704
vn 0.996363 -0.084895 -0.007292
v 0.059991 -0.014063 0.010523
vn 0.996363 -0.084895 -0.007292
v 0.059713 -0.015325 -0.012704
vn 0.996363 -0.084895 -0.007292
v 0.062478 0.017278 -0.014508
vn 0.996363 -0.084895 -0.007292
v 0.059991 -0.014063 0.010523
vn 0.996363 -0.084895 -0.007292
v 0.062478 0.017278 -0.014508
vn 0.996363 -0.084895 -0.007292
v 0.062756 0.018539 0.008719
vn -0.996363 0.084895 0.007292
v -0.011342 -0.007985 0.011045
vn -0.996363 0.084895 0.007292
v -0.008577 0.024617 0.009241
vn -0.996363 0.084895 0.007292
v -0.011619 -0.009247 -0.012182
vn 0.011929 0.054243 0.998456
v -0.011342 -0.007985 0.011045
vn 0.011929 0.054243 0.998456
v 0.062756 0.018539 0.008719
vn 0.011929 0.054243 0.998456
v -0.008577 0.024617 0.009241
vn 0.084368 0.994912 -0.055058
v 0.062756 0.018539 0.008719
vn 0.084368 0.994912 -0.055058
v -0.008854 0.023355 -0.013986
vn 0.084368 0.994912 -0.055058
v -0.008577 0.024617 0.009241
vn 0.084368 0.994912 -0.055058
v 0.062756 0.018539 0.008719
vn 0.084368 0.994912 -0.055058
v 0.062478 0.017278 -0.014508
vn 0.084368 0.994912 -0.055058
v -0.008854 0.023355 -0.013986
vn -0.996363 0.084895 0.007292
v -0.008577 0.024617 0.009241
vn -0.996363 0.084895 0.007292
v -0.008854 0.023355 -0.013986
vn -0.996363 0.084895 0.007292
v -0.011619 -0.009247 -0.012182
vn -0.011929 -0.054243 -0.998456
v 0.059713 -0.015325 -0.012704
vn -0.011929 -0.054243 -0.998456
v -0.011619 -0.009247 -0.012182
vn -0.011929 -0.054243 -0.998456
v -0.008854 0.023355 -0.013986
vn -0.011929 -0.054243 -0.998457
v 0.059713 -0.015325 -0.012704
vn -0.011929 -0.054243 -0.998457
v -0.008854 0.023355 -0.013986
vn -0.011929 -0.054243 -0.998457
v 0.062478 0.017278 -0.014508
# 36 vertices, 0 vertices normals

f 1//1 2//2 3//3
f 4//4 5//5 6//6
f 7//7 8//8 9//9
f 10//10 11//11 12//12
f 13//13 14//14 15//15
f 16//16 17//17 18//18
f 19//19 20//20 21//21
f 22//22 23//23 24//24
f 25//25 26//26 27//27
f 28//28 29//29 30//30
f 31//31 32//32 33//33
f 34//34 35//35 36//36
# 12 faces, 0 coords texture

# End of File