####
#
# OBJ File Generated by Meshlab
#
####
# Object palm_chull.obj
#
# Vertices: 36
# Faces: 12
#
####
vn -0.018156 0.050800 0.998544
v -0.074636 -0.012336 0.113727
vn -0.018156 0.050800 0.998544
v 0.062558 0.100259 0.110494
vn -0.018156 0.050800 0.998544
v -0.051272 0.120181 0.107410
vn -0.984677 0.172334 -0.026671
v -0.074636 -0.012336 0.113727
vn -0.984677 0.172334 -0.026671
v -0.051272 0.120181 0.107410
vn -0.984677 0.172334 -0.026671
v -0.073095 -0.016646 0.028998
vn -0.018156 0.050800 0.998544
v -0.074636 -0.012336 0.113727
vn -0.018156 0.050800 0.998544
v 0.039194 -0.032258 0.116811
vn -0.018156 0.050800 0.998544
v 0.062558 0.100259 0.110494
vn -0.173438 -0.983728 0.046893
v -0.074636 -0.012336 0.113727
vn -0.173438 -0.983728 0.046893
v -0.073095 -0.016646 0.028998
vn -0.173438 -0.983728 0.046893
v 0.040735 -0.036568 0.032082
vn -0.173438 -0.983728 0.046893
v -0.074636 -0.012336 0.113727
vn -0.173438 -0.983728 0.046893
v 0.040735 -0.036568 0.032082
vn -0.173438 -0.983728 0.046893
v 0.039194 -0.032258 0.116811
vn -0.984677 0.172334 -0.026671
v -0.051272 0.120181 0.107410
vn -0.984677 0.172334 -0.026671
v -0.049731 0.115870 0.022682
vn -0.984677 0.172334 -0.026671
v -0.073095 -0.016646 0.028998
vn 0.173438 0.983728 -0.046893
v -0.051272 0.120181 0.107410
vn 0.173438 0.983728 -0.046893
v 0.064098 0.095949 0.025765
vn 0.173438 0.983728 -0.046893
v -0.049731 0.115870 0.022682
vn 0.173438 0.983728 -0.046893
v -0.051272 0.120181 0.107410
vn 0.173438 0.983728 -0.046893
v 0.062558 0.100259 0.110494
vn 0.173438 0.983728 -0.046893
v 0.064098 0.095949 0.025765
vn 0.984677 -0.172334 0.026671
v 0.039194 -0.032258 0.116811
vn 0.984677 -0.172334 0.026671
v 0.040735 -0.036568 0.032082
vn 0.984677 -0.172334 0.026671
v 0.064098 0.095949 0.025765
vn 0.984677 -0.172334 0.026671
v 0.039194 -0.032258 0.116811
vn 0.984677 -0.172334 0.026671
v 0.064098 0.095949 0.025765
vn 0.984677 -0.172334 0.026671
v 0.062558 0.100259 0.110494
vn 0.018156 -0.050800 -0.998544
v -0.073095 -0.016646 0.028998
vn 0.018156 -0.050800 -0.998544
v -0.049731 0.115870 0.022682
vn 0.018156 -0.050800 -0.998544
v 0.040735 -0.036568 0.032082
vn 0.018156 -0.050800 -0.998544
v -0.049731 0.115870 0.022682
vn 0.018156 -0.050800 -0.998544
v 0.064098 0.095949 0.025765
vn 0.018156 -0.050800 -0.998544
v 0.040735 -0.036568 0.032082
# 36 vertices, 0 vertices normals

f 1//1 2//2 3//3
f 4//4 5//5 6//6
f 7//7 8//8 9//9
f 10//10 11//11 12//12
f 13//13 14//14 15//15
f 16//16 17//17 18//18
f 19//19 20//20 21//21
f 22//22 23//23 24//24
f 25//25 26//26 27//27
f 28//28 29//29 30//30
f 31//31 32//32 33//33
f 34//34 35//35 36//36
# 12 faces, 0 coords texture

# End of File