####
#
# OBJ File Generated by Meshlab
#
####
# Object example.obj
#
# Vertices: 24
# Faces: 12
#
####
mtllib ./example.obj.mtl

vn 0.000000 0.000000 -1.000000
v 0.000000 0.000000 0.000000 1.000000 1.000000 1.000000
vn 0.000000 0.000000 -1.000000
v 0.000000 1.000000 0.000000 1.000000 1.000000 1.000000
vn 0.000000 0.000000 -1.000000
v 1.000000 1.000000 0.000000 1.000000 1.000000 1.000000
vn 0.000000 0.000000 -1.000000
v 1.000000 0.000000 0.000000 1.000000 1.000000 1.000000
vn 0.000000 0.000000 -1.000000
v 0.000000 0.000000 1.000000 1.000000 1.000000 1.000000
vn 0.000000 0.000000 -1.000000
v 0.000000 1.000000 1.000000 1.000000 1.000000 1.000000
vn 0.000000 0.000000 -1.000000
v 1.000000 1.000000 1.000000 1.000000 1.000000 1.000000
vn 0.000000 0.000000 -1.000000
v 1.000000 0.000000 1.000000 1.000000 1.000000 1.000000
vn 0.000000 1.000000 0.000000
v 0.000000 1.000000 0.000000 1.000000 1.000000 1.000000
vn 0.000000 1.000000 0.000000
v 0.000000 1.000000 1.000000 1.000000 1.000000 1.000000
vn 0.000000 1.000000 0.000000
v 1.000000 1.000000 1.000000 1.000000 1.000000 1.000000
vn 0.000000 1.000000 0.000000
v 1.000000 1.000000 0.000000 1.000000 1.000000 1.000000
vn 0.000000 1.000000 0.000000
v 0.000000 0.000000 0.000000 1.000000 1.000000 1.000000
vn 0.000000 1.000000 0.000000
v 0.000000 0.000000 1.000000 1.000000 1.000000 1.000000
vn 0.000000 1.000000 0.000000
v 1.000000 0.000000 1.000000 1.000000 1.000000 1.000000
vn 0.000000 1.000000 0.000000
v 1.000000 0.000000 0.000000 1.000000 1.000000 1.000000
vn -1.000000 0.000000 0.000000
v 0.000000 0.000000 0.000000 1.000000 1.000000 1.000000
vn -1.000000 0.000000 0.000000
v 0.000000 0.000000 1.000000 1.000000 1.000000 1.000000
vn -1.000000 0.000000 0.000000
v 0.000000 1.000000 1.000000 1.000000 1.000000 1.000000
vn -1.000000 0.000000 0.000000
v 0.000000 1.000000 0.000000 1.000000 1.000000 1.000000
vn -1.000000 0.000000 0.000000
v 1.000000 0.000000 0.000000 1.000000 1.000000 1.000000
vn -1.000000 0.000000 0.000000
v 1.000000 0.000000 1.000000 1.000000 1.000000 1.000000
vn -1.000000 0.000000 0.000000
v 1.000000 1.000000 1.000000 1.000000 1.000000 1.000000
vn -1.000000 0.000000 0.000000
v 1.000000 1.000000 0.000000 1.000000 1.000000 1.000000
# 24 vertices, 0 vertices normals


usemtl material_0
vt 0.000000 0.000000
vt 0.000000 1.000000
vt 1.000000 1.000000
f 1/1/1 2/2/2 3/3/3
vt 1.000000 0.000000
f 1/1/1 3/3/3 4/4/4
f 5/1/5 6/2/6 7/3/7
f 5/1/5 7/3/7 8/4/8
f 9/1/9 10/2/10 11/3/11
f 9/1/9 11/3/11 12/4/12
f 13/1/13 14/2/14 15/3/15
f 13/1/13 15/3/15 16/4/16
f 17/1/17 18/2/18 19/3/19
f 17/1/17 19/3/19 20/4/20
f 21/1/21 22/2/22 23/3/23
f 21/1/21 23/3/23 24/4/24
# 12 faces, 4 coords texture

# End of File