# Blender v2.75 (sub 0) OBJ File: 'aj1_Left.blend'
# www.blender.org
o Cylinder
v 0.084887 0.253423 -0.062957
v 0.038802 0.183571 -0.046211
v 0.041584 0.217402 -0.058839
v 0.064567 0.189713 -0.049033
v 0.084887 0.291461 -0.047344
v 0.058682 0.183571 -0.013985
v 0.064567 0.206585 -0.063837
v 0.094285 0.253742 -0.059000
v 0.094158 0.289574 -0.044695
v 0.094285 0.210818 -0.044330
v 0.082100 0.189713 -0.029191
v 0.094285 0.192867 -0.015450
v 0.052902 0.183571 -0.028991
v 0.020659 0.179000 -0.056686
v 0.020659 0.198475 -0.056686
v -0.064873 0.225445 -0.069488
v -0.038752 0.181191 -0.046211
v -0.038837 0.214654 -0.058839
v -0.069581 0.253423 -0.070088
v -0.069647 0.296406 -0.052120
v -0.064567 0.191080 -0.049041
v 0.084887 0.208715 -0.049530
v -0.075028 0.251011 -0.069778
v -0.109271 0.249911 -0.050930
v -0.075490 0.294663 -0.053263
v -0.108592 0.288031 -0.038115
v -0.071381 0.220991 -0.066654
v -0.109271 0.226100 -0.045024
v -0.109271 0.208915 -0.030227
v -0.020609 0.179000 -0.056686
v -0.017396 0.198475 -0.056686
v 0.000025 0.179000 -0.060325
v 0.000025 0.198475 -0.060325
v 0.064567 0.219983 -0.069010
v -0.055733 0.181380 -0.023086
v -0.085447 0.190294 -0.024503
v 0.094285 0.188291 -0.000000
v 0.084887 0.253423 0.062957
v 0.084887 0.312903 -0.000000
v 0.038802 0.183571 0.046211
v 0.084597 0.247649 -0.000000
v 0.041584 0.217402 0.058839
v 0.064567 0.189713 0.049032
v 0.084887 0.291461 0.047344
v 0.058682 0.183571 0.013985
v 0.064567 0.206585 0.063837
v 0.094285 0.309063 -0.000000
v 0.094285 0.253742 0.059000
v 0.094159 0.289574 0.044694
v 0.060291 0.183571 -0.000000
v 0.094285 0.210818 0.044330
v 0.082100 0.189713 0.029191
v 0.094285 0.192867 0.015450
v 0.052902 0.183571 0.028991
v 0.040898 0.219057 -0.000000
v 0.020659 0.179000 0.056686
v 0.020659 0.198475 0.056686
v 0.019970 0.200130 -0.000000
v 0.000025 0.196853 -0.000000
v -0.094246 0.190440 0.000000
v -0.060291 0.181287 0.000000
v -0.064873 0.225445 0.069488
v -0.069647 0.319724 0.000000
v -0.038752 0.181191 0.046211
v -0.069647 0.247649 0.000000
v -0.038837 0.214654 0.058839
v -0.069581 0.253423 0.070089
v -0.069647 0.296406 0.052121
v -0.064567 0.191080 0.049041
v 0.084887 0.208715 0.049529
v -0.075490 0.319481 0.000000
v -0.109271 0.300843 0.000000
v -0.075028 0.251011 0.069778
v -0.109271 0.249911 0.050931
v -0.075490 0.294663 0.053263
v -0.108592 0.288031 0.038115
v -0.071380 0.220991 0.066654
v -0.109271 0.226100 0.045024
v -0.064873 0.225445 0.000000
v -0.109271 0.208915 0.030228
v -0.109271 0.198973 0.000000
v -0.038151 0.216309 0.000000
v -0.020609 0.179000 0.056686
v -0.017396 0.198475 0.056686
v -0.016707 0.200130 0.000000
v 0.000025 0.179000 0.060325
v 0.000025 0.198475 0.060325
v 0.064567 0.219983 0.069010
v -0.055733 0.181380 0.023086
v -0.085447 0.190294 0.024503
v 0.000025 0.179000 -0.000000
vt 0.794798 0.882212
vt 0.758027 0.911613
vt 0.801256 0.938186
vt 0.565813 0.682320
vt 0.569207 0.783700
vt 0.591528 0.784563
vt 0.072684 0.226878
vt 0.045005 0.274131
vt 0.074755 0.280283
vt 0.446218 0.909248
vt 0.537930 0.852806
vt 0.446218 0.884565
vt 0.149875 0.848789
vt 0.026021 0.735215
vt 0.000273 0.781540
vt 0.542525 0.693219
vt 0.481162 0.649036
vt 0.521594 0.630189
vt 0.446218 0.634749
vt 0.000273 0.201857
vt 0.046426 0.173087
vt 0.008402 0.157232
vt 0.030576 0.675782
vt 0.150624 0.736709
vt 0.151026 0.676515
vt 0.025460 0.116324
vt 0.063483 0.132179
vt 0.151314 0.633361
vt 0.023345 0.632216
vt 0.334484 0.092517
vt 0.452710 0.119231
vt 0.334963 0.079402
vt 0.031321 0.595530
vt 0.151557 0.597024
vt 0.043566 0.329201
vt 0.152655 0.432640
vt 0.153669 0.280828
vt 0.542090 0.614683
vt 0.481448 0.568156
vt 0.481543 0.603887
vt 0.242665 0.056720
vt 0.242758 0.044102
vt 0.876462 0.549998
vt 0.819647 0.573596
vt 0.869400 0.608355
vt 0.627540 0.351064
vt 0.575929 0.467838
vt 0.664477 0.470370
vt 0.482905 0.280828
vt 0.552506 0.396447
vt 0.565346 0.513834
vt 0.005897 0.479262
vt 0.152335 0.480496
vt 0.538067 0.548505
vt 0.655568 0.548495
vt 0.064562 0.036696
vt 0.077972 0.097430
vt 0.130133 0.074444
vt 0.151937 0.540093
vt 0.027803 0.538788
vt 0.665022 0.416838
vt 0.749291 0.489382
vt 0.801041 0.485514
vt 0.554671 0.868179
vt 0.049386 0.942873
vt 0.015714 0.863275
vt 0.758804 0.974724
vt 0.726251 0.923756
vt 0.696665 0.999727
vt 0.696665 0.927129
vt 0.898689 0.001270
vt 0.859912 0.052361
vt 0.958358 0.060050
vt 0.000273 0.258203
vt 0.184627 0.041393
vt 0.110701 0.000273
vt 0.181699 0.023911
vt 0.821444 0.007810
vt 0.801239 0.060050
vt 0.822774 0.507978
vt 0.770742 0.564318
vt 0.618359 0.629644
vt 0.598532 0.882212
vt 0.592073 0.938186
vt 0.635303 0.911613
vt 0.323229 0.783700
vt 0.326623 0.682320
vt 0.300908 0.784563
vt 0.880476 0.853983
vt 0.858022 0.902483
vt 0.887850 0.908248
vt 0.354506 0.852806
vt 0.337765 0.868179
vt 0.300362 0.783545
vt 0.275235 0.736880
vt 0.349911 0.693219
vt 0.370842 0.630189
vt 0.411274 0.649036
vt 0.956940 0.858741
vt 0.925405 0.814431
vt 0.271474 0.677391
vt 0.966591 0.770100
vt 0.925395 0.770109
vt 0.564690 0.165618
vt 0.448966 0.131022
vt 0.271802 0.597136
vt 0.279286 0.633926
vt 0.263115 0.330667
vt 0.300363 0.421455
vt 0.421227 0.614910
vt 0.425093 0.549228
vt 0.660340 0.189350
vt 0.571865 0.154629
vt 0.665022 0.549998
vt 0.672084 0.608355
vt 0.721837 0.573596
vt 0.339753 0.352845
vt 0.389015 0.469924
vt 0.414566 0.398909
vt 0.483881 0.375775
vt 0.397779 0.515082
vt 0.300908 0.470743
vt 0.308604 0.548683
vt 0.298777 0.481218
vt 0.345331 0.629644
vt 0.961126 0.681558
vt 0.925386 0.732461
vt 0.966601 0.725778
vt 0.276077 0.540446
vt 0.869727 0.349508
vt 0.733718 0.280828
vt 0.249098 0.944207
vt 0.148945 0.988033
vt 0.634526 0.974724
vt 0.667078 0.923756
vt 0.898689 0.119375
vt 0.859912 0.068284
vt 0.868325 0.120372
vt 0.935267 0.910752
vt 0.716588 0.210314
vt 0.667543 0.178989
vt 0.800694 0.219375
vt 0.729066 0.197723
vt 0.886079 0.691180
vt 0.932546 0.630189
vt 0.848492 0.639711
vt 0.821444 0.112835
vt 0.718710 0.507978
vt 0.719871 0.756089
vt 0.620605 0.675701
vt 0.654012 0.646643
vt 0.607437 0.817019
vt 0.592073 0.758366
vt 0.743700 0.881667
vt 0.683147 0.878585
vt 0.818811 0.836879
vt 0.840446 0.798249
vt 0.599127 0.714417
vt 0.639236 0.855249
vt 0.785287 0.865800
vt 0.696230 0.630189
vt 0.743261 0.630189
vt 0.847946 0.753563
vt 0.800613 0.656798
vt 0.775549 0.640779
vt 0.821406 0.678069
vt 0.838357 0.707520
vt 0.005109 0.419482
vt 0.042499 0.075408
vt 0.704979 0.471008
vt 0.869196 0.434579
vt 0.868325 0.000273
vt 0.770742 0.489927
vt 0.283831 0.865066
vt 0.966601 0.814422
vt 0.818802 0.281362
vt 0.689776 0.308435
vt 0.665022 0.349525
vt 0.958358 0.060595
vt 0.801239 0.060595
vn -0.210500 0.962300 0.172400
vn -0.206000 0.968300 0.141100
vn -0.205200 0.962800 0.175600
vn -0.541600 0.470400 0.696700
vn -0.393600 -0.052900 0.917800
vn -0.436100 0.018000 0.899700
vn 0.116900 0.426000 0.897200
vn 0.400800 0.495600 0.770500
vn 0.349000 0.337600 0.874200
vn -0.370000 -0.929000 0.000000
vn -0.331100 -0.661400 0.673000
vn -0.378300 -0.925700 0.000000
vn 0.887800 -0.460300 0.000000
vn 0.499800 -0.855500 0.135400
vn 0.524500 -0.831900 0.181200
vn -1.000000 -0.001700 0.000000
vn -1.000000 0.000000 0.000000
vn -0.585300 0.678100 0.444500
vn -0.494200 0.833600 0.246900
vn -0.540500 0.786500 0.298800
vn -0.209100 0.262400 0.942000
vn -0.279000 0.134600 0.950800
vn -0.329800 0.000000 0.944000
vn 0.366900 -0.930200 0.006400
vn 0.610900 -0.791700 0.000000
vn 0.434400 -0.900700 0.000000
vn 0.007400 -0.007700 0.999900
vn 0.015700 -0.000000 0.999900
vn -0.015000 -0.999900 0.000000
vn -0.000400 -0.999600 -0.026900
vn 0.086200 -0.742600 0.664200
vn 0.052100 -0.998600 0.000000
vn 0.049600 -0.632800 0.772700
vn -0.324900 -0.945700 0.005600
vn -0.407800 -0.913100 0.000000
vn -1.000000 -0.000600 -0.000500
vn -0.994400 -0.105700 0.000000
vn 0.509800 0.786000 0.349800
vn 0.538400 0.842700 -0.000000
vn 0.493800 0.869600 -0.000000
vn 0.131700 -0.199100 0.971100
vn 0.134200 -0.110600 0.984800
vn 0.296200 0.923400 0.244200
vn 0.291600 0.941100 0.171400
vn 0.325700 0.916600 0.231700
vn 0.437100 -0.584800 0.683400
vn 0.477900 -0.043400 0.877400
vn 0.494800 -0.056400 0.867200
vn 0.437900 -0.899000 -0.000000
vn 0.448400 -0.638300 0.625700
vn 0.482900 0.406300 0.775700
vn -0.824000 -0.566500 -0.007600
vn -0.753400 -0.657500 0.000000
vn 0.519700 0.691500 0.501800
vn 0.508200 0.363500 0.780700
vn 0.203900 0.244800 0.947900
vn 0.250500 0.102100 0.962700
vn 0.002500 0.421700 0.906700
vn -0.468800 -0.883300 0.000000
vn -0.476100 -0.879200 0.017000
vn 1.000000 0.000000 -0.000000
vn 1.000000 -0.004800 0.004800
vn -0.331000 -0.645800 0.688000
vn 1.000000 -0.003100 0.003200
vn 0.953400 -0.300700 -0.023200
vn -0.190300 0.973000 0.130700
vn -0.175800 0.981900 0.070600
vn -0.165700 0.986200 0.000000
vn -0.137500 0.990500 0.000000
vn -0.591300 0.255900 0.764800
vn 0.186600 0.462000 0.867100
vn 0.211200 0.251600 0.944500
vn 0.024100 0.511300 0.859000
vn 0.128200 0.392200 0.910900
vn -0.038000 0.418600 0.907400
vn -0.532500 0.508300 0.676800
vn -0.549500 0.602700 0.578600
vn 0.268900 0.953100 0.138500
vn 0.274400 0.961600 -0.000000
vn 0.501600 0.603200 0.620100
vn -0.210500 0.962300 -0.172400
vn -0.205200 0.962800 -0.175600
vn -0.206000 0.968300 -0.141100
vn -0.393600 -0.052900 -0.917800
vn -0.541600 0.470400 -0.696700
vn -0.436100 0.018000 -0.899700
vn 0.116900 0.426000 -0.897200
vn 0.349000 0.337600 -0.874200
vn 0.400800 0.495600 -0.770500
vn -0.331200 -0.661400 -0.673000
vn -0.331000 -0.645800 -0.688000
vn 0.524500 -0.831900 -0.181200
vn 0.499800 -0.855500 -0.135400
vn -1.000000 -0.001000 -0.001000
vn -0.585300 0.678100 -0.444500
vn -0.540500 0.786500 -0.298800
vn -0.494200 0.833600 -0.246900
vn -0.209100 0.262400 -0.942000
vn -0.279000 0.134600 -0.950800
vn 0.366900 -0.930200 -0.006400
vn 0.007400 -0.007700 -0.999900
vn 0.015700 -0.000000 -0.999900
vn 0.086200 -0.742600 -0.664200
vn 0.041600 -0.999100 0.000000
vn -0.324900 -0.945700 -0.005600
vn -0.000400 -0.999600 0.026900
vn -1.000000 -0.000600 0.000500
vn -0.995900 -0.090400 0.008400
vn 0.509800 0.786000 -0.349800
vn 0.519700 0.691500 -0.501800
vn 0.131700 -0.199100 -0.971100
vn 0.049600 -0.632800 -0.772700
vn 0.296200 0.923400 -0.244200
vn 0.325700 0.916600 -0.231700
vn 0.291600 0.941100 -0.171400
vn 0.437100 -0.584800 -0.683400
vn 0.477900 -0.043400 -0.877400
vn 0.448400 -0.638300 -0.625700
vn 0.483100 -0.875600 -0.000000
vn 0.482900 0.406300 -0.775700
vn 0.494800 -0.056400 -0.867200
vn 0.508200 0.363500 -0.780700
vn -0.824000 -0.566500 0.007600
vn 0.501600 0.603200 -0.620100
vn 0.203900 0.244800 -0.947900
vn 0.250500 0.102100 -0.962700
vn 0.347900 -0.057400 -0.935800
vn -0.476100 -0.879200 -0.017000
vn 1.000000 -0.009900 -0.000000
vn 1.000000 -0.004800 -0.004800
vn 1.000000 -0.003100 -0.003200
vn 1.000000 -0.004400 -0.000000
vn -0.190300 0.973000 -0.130700
vn -0.175800 0.981900 -0.070600
vn -0.591300 0.255900 -0.764800
vn -0.552500 0.415100 -0.722800
vn 0.186600 0.462000 -0.867100
vn 0.211200 0.251600 -0.944500
vn 0.134200 -0.110600 -0.984800
vn 0.024100 0.511300 -0.859000
vn 0.128200 0.392200 -0.910900
vn 0.002500 0.421700 -0.906700
vn -0.038000 0.418600 -0.907400
vn -0.138800 0.505500 -0.851600
vn -0.532500 0.508300 -0.676800
vn -0.549500 0.602700 -0.578600
vn 0.268900 0.953100 -0.138500
vn -0.020600 0.999800 0.000000
vn 0.000000 1.000000 0.000000
vn -0.102400 0.994000 0.037300
vn 0.036600 0.999200 -0.014600
vn 0.068100 0.997600 0.009800
vn 0.068100 0.997600 -0.009800
vn 0.036600 0.999200 0.014600
vn -0.102400 0.994000 -0.037300
vn 0.049700 0.998600 0.018100
vn 0.037900 0.999300 0.000000
vn 0.049700 0.998600 -0.018100
vn -0.132000 0.991200 0.012700
vn -0.065400 0.997100 -0.037900
vn -0.132000 0.991200 -0.012700
vn -0.075600 0.997100 -0.000000
vn -0.073400 0.997100 -0.018000
vn -0.073400 0.997100 0.018000
vn -0.065400 0.997100 0.037900
vn -1.000000 -0.001000 0.001000
vn -1.000000 -0.005600 0.005300
vn -0.995900 -0.090400 -0.008400
vn 0.347900 -0.057400 0.935800
vn 0.999300 -0.026800 0.026800
vn -0.552500 0.415100 0.722800
vn -0.138800 0.505500 0.851600
vn 0.260300 0.965500 -0.000000
vn 0.953400 -0.300700 0.023200
vn -1.000000 -0.005600 -0.005300
vn -0.329800 0.000000 -0.944000
vn 0.999300 -0.026800 -0.026800
s 1
f 2/1/1 13/2/2 4/3/3
f 22/4/4 8/5/5 1/6/6
f 3/7/7 7/8/8 34/9/9
f 39/10/10 9/11/11 47/12/12
f 41/13/13 3/14/14 34/15/15
f 47/12/16 10/16/17 12/17/17
f 11/18/18 37/19/19 12/17/20
f 2/20/21 15/21/22 14/22/23
f 15/23/24 55/24/25 58/25/26
f 32/26/27 15/21/22 33/27/28
f 15/23/24 59/28/29 33/29/30
f 20/30/31 71/31/32 25/32/33
f 31/33/34 59/28/29 85/34/35
f 20/35/36 65/36/37 63/37/17
f 36/38/38 81/39/39 60/40/40
f 19/41/41 25/32/33 23/42/42
f 21/43/43 35/44/44 17/45/45
f 25/46/46 24/47/47 23/48/48
f 71/49/49 26/50/50 25/46/46
f 28/51/51 23/48/48 24/47/47
f 65/36/37 16/52/52 79/53/53
f 29/54/54 27/55/55 28/51/51
f 17/56/56 31/57/57 18/58/58
f 82/59/59 31/33/34 85/34/35
f 31/57/57 32/26/27 33/27/28
f 79/53/53 18/60/60 82/59/59
f 81/61/61 28/62/61 24/63/62
f 5/64/63 8/5/5 9/11/11
f 5/65/64 41/13/13 1/66/65
f 11/67/66 13/2/2 6/68/67
f 37/69/68 6/68/67 50/70/69
f 34/71/70 22/72/4 1/73/6
f 3/7/7 4/74/71 7/8/8
f 23/42/42 16/75/72 19/41/41
f 21/76/73 16/75/72 27/77/74
f 18/58/58 21/76/75 17/56/56
f 10/16/76 11/18/18 12/17/20
f 22/72/4 4/78/77 11/79/18
f 36/80/78 35/44/44 21/43/43
f 36/80/78 61/81/79 35/44/44
f 21/82/80 29/54/54 36/38/38
f 40/83/81 43/84/82 54/85/83
f 48/86/84 70/87/85 38/88/86
f 42/89/87 88/90/88 46/91/89
f 39/10/10 49/92/90 44/93/91
f 88/94/92 42/95/93 41/13/13
f 47/12/16 51/96/17 48/86/94
f 52/97/95 53/98/96 37/19/97
f 40/99/98 57/100/99 42/89/87
f 55/24/25 57/101/100 58/25/26
f 57/100/99 86/102/101 87/103/102
f 57/101/100 59/28/29 58/25/26
f 68/104/103 71/31/32 63/105/104
f 84/106/105 59/28/29 87/107/106
f 68/108/107 65/36/37 67/109/108
f 90/110/109 81/39/39 80/111/110
f 67/112/111 75/113/112 68/104/103
f 69/114/113 64/115/114 89/116/115
f 75/117/116 74/118/117 76/119/118
f 71/49/49 76/119/118 72/120/119
f 78/121/120 73/122/121 77/123/122
f 62/124/123 65/36/37 79/53/53
f 80/111/110 77/123/122 69/125/124
f 64/126/125 84/127/126 83/128/127
f 84/106/105 82/59/59 85/34/35
f 86/102/101 84/127/126 87/103/102
f 66/129/128 79/53/53 82/59/59
f 72/130/129 74/131/130 81/61/61
f 44/93/91 48/86/84 38/88/86
f 44/132/131 41/13/13 39/133/132
f 52/134/133 54/85/83 43/84/82
f 45/135/134 37/69/68 50/70/69
f 88/136/135 70/137/85 46/138/136
f 43/139/137 42/89/87 46/91/89
f 62/140/138 73/141/139 67/112/111
f 69/142/140 77/143/141 62/140/138
f 66/144/142 69/145/143 62/146/144
f 51/96/145 52/97/95 70/87/85
f 70/137/85 43/147/146 46/138/136
f 90/148/147 69/114/113 89/116/115
f 61/81/79 90/148/147 89/116/115
f 69/125/124 90/110/109 80/111/110
f 91/149/148 86/150/149 56/151/150
f 89/152/151 64/153/152 91/149/148
f 17/154/153 35/155/154 91/149/148
f 32/156/149 91/149/148 14/157/155
f 91/149/148 64/153/152 83/158/156
f 86/150/149 91/149/148 83/158/156
f 61/159/157 89/152/151 91/149/148
f 17/154/153 91/149/148 30/160/158
f 91/149/148 32/156/149 30/160/158
f 35/155/154 61/159/157 91/149/148
f 5/64/63 9/11/11 39/10/10
f 10/16/76 8/5/5 22/4/4
f 91/149/148 40/161/159 54/162/160
f 91/149/148 2/163/161 14/157/155
f 50/164/162 91/149/148 45/165/163
f 45/165/163 91/149/148 54/162/160
f 40/161/159 91/149/148 56/151/150
f 91/149/148 50/164/162 6/166/164
f 2/163/161 91/149/148 13/167/165
f 13/167/165 91/149/148 6/166/164
f 34/15/15 1/66/65 41/13/13
f 41/13/13 55/24/25 3/14/14
f 8/5/166 47/12/16 9/11/167
f 47/12/16 8/5/166 10/16/17
f 47/12/16 12/17/17 37/19/17
f 3/7/7 15/21/22 2/20/21
f 3/14/14 55/24/25 15/23/24
f 14/22/23 15/21/22 32/26/27
f 58/25/26 59/28/29 15/23/24
f 63/105/104 71/31/32 20/30/31
f 33/29/30 59/28/29 31/33/34
f 19/168/168 65/36/37 20/35/36
f 29/54/54 81/39/39 36/38/38
f 20/30/31 25/32/33 19/41/41
f 26/50/50 24/47/47 25/46/46
f 72/120/119 26/50/50 71/49/49
f 27/55/55 23/48/48 28/51/51
f 19/168/168 16/52/52 65/36/37
f 21/82/80 27/55/55 29/54/54
f 30/169/169 31/57/57 17/56/56
f 18/60/60 31/33/34 82/59/59
f 30/169/169 32/26/27 31/57/57
f 16/52/52 18/60/60 79/53/53
f 24/63/62 72/130/129 81/61/61
f 81/61/61 29/170/61 28/62/61
f 72/130/129 24/63/62 26/171/170
f 1/6/6 8/5/5 5/64/63
f 39/133/132 41/13/13 5/65/64
f 4/3/3 13/2/2 11/67/66
f 11/67/66 6/68/67 37/69/68
f 7/172/171 22/72/4 34/71/70
f 2/20/21 4/74/71 3/7/7
f 27/77/74 16/75/72 23/42/42
f 16/75/172 21/76/75 18/58/58
f 22/4/4 11/18/18 10/16/76
f 7/172/171 4/78/77 22/72/4
f 60/173/173 61/81/79 36/80/78
f 51/96/145 70/87/85 48/86/84
f 47/12/12 49/92/90 39/10/10
f 41/13/13 38/174/174 88/94/92
f 41/13/13 42/95/93 55/24/25
f 53/98/17 47/12/16 37/19/17
f 47/12/16 53/98/17 51/96/17
f 47/12/16 48/86/94 49/92/175
f 56/175/176 57/100/99 40/99/98
f 42/95/93 57/101/100 55/24/25
f 56/175/176 86/102/101 57/100/99
f 87/107/106 59/28/29 57/101/100
f 75/113/112 71/31/32 68/104/103
f 85/34/35 59/28/29 84/106/105
f 63/37/17 65/36/37 68/108/107
f 60/40/40 81/39/39 90/110/109
f 73/141/139 75/113/112 67/112/111
f 73/122/121 74/118/117 75/117/116
f 75/117/116 76/119/118 71/49/49
f 74/118/117 73/122/121 78/121/120
f 67/109/108 65/36/37 62/124/123
f 78/121/120 77/123/122 80/111/110
f 66/144/142 84/127/126 64/126/125
f 66/129/128 82/59/59 84/106/105
f 83/128/127 84/127/126 86/102/101
f 62/124/123 79/53/53 66/129/128
f 74/131/130 72/130/129 76/176/177
f 81/61/61 74/131/130 78/177/61
f 78/177/61 80/178/61 81/61/61
f 49/92/90 48/86/84 44/93/91
f 38/174/174 41/13/13 44/132/131
f 45/135/134 54/85/83 52/134/133
f 52/134/133 37/69/68 45/135/134
f 38/179/86 70/137/85 88/136/135
f 40/99/98 42/89/87 43/139/137
f 77/143/141 73/141/139 62/140/138
f 64/126/125 69/145/143 66/144/142
f 53/98/96 52/97/95 51/96/145
f 52/180/95 43/147/146 70/137/85
f 60/173/173 90/148/147 61/81/79
