####
#
# OBJ File Generated by Meshlab
#
####
# Object lj6_Left_chull.obj
#
# Vertices: 300
# Faces: 100
#
####
vn -0.987873 -0.013603 0.154669
v -0.045070 -0.045629 0.001761
vn -0.987873 -0.013603 0.154669
v -0.037600 -0.033143 0.050570
vn -0.987873 -0.013603 0.154669
v -0.046260 0.044882 0.002121
vn 0.999385 -0.000013 -0.035076
v 0.094116 -0.054898 -0.190300
vn 0.999385 -0.000013 -0.035076
v 0.093878 0.056099 -0.197123
vn 0.999385 -0.000013 -0.035076
v 0.095895 0.049875 -0.139653
vn -0.978096 0.020088 0.207180
v -0.037600 -0.033143 0.050570
vn -0.978096 0.020088 0.207180
v -0.035914 0.050734 0.050397
vn -0.978096 0.020088 0.207180
v -0.046260 0.044882 0.002121
vn 0.315843 -0.843753 0.433963
v 0.072799 -0.071659 0.010992
vn 0.315843 -0.843753 0.433963
v 0.095659 -0.048819 0.038762
vn 0.315843 -0.843753 0.433963
v 0.049626 -0.055868 0.058560
vn -0.011105 -0.005214 -0.999925
v 0.065570 -0.059885 -0.218140
vn -0.011105 -0.005214 -0.999925
v 0.019462 -0.037242 -0.217746
vn -0.011105 -0.005214 -0.999925
v 0.064808 0.052962 -0.218720
vn -0.034636 -0.996681 0.073666
v -0.028768 -0.062893 0.023012
vn -0.034636 -0.996681 0.073666
v -0.026540 -0.066496 -0.024688
vn -0.034636 -0.996681 0.073666
v 0.061920 -0.068376 -0.008532
vn 0.998641 0.016963 0.049285
v 0.095659 -0.048819 0.038762
vn 0.998641 0.016963 0.049285
v 0.097933 -0.052136 -0.006173
vn 0.998641 0.016963 0.049285
v 0.096635 0.049687 -0.014918
vn -0.073935 0.983073 0.167637
v 0.062343 0.068430 -0.010042
vn -0.073935 0.983073 0.167637
v -0.035914 0.050734 0.050397
vn -0.073935 0.983073 0.167637
v 0.027760 0.053843 0.060248
vn -0.972409 -0.002042 -0.233273
v -0.006215 0.038359 -0.095608
vn -0.972409 -0.002042 -0.233273
v 0.007037 0.046064 -0.150917
vn -0.972409 -0.002042 -0.233273
v -0.005459 -0.044864 -0.098031
vn -0.373287 0.924539 0.076709
v 0.022556 0.063677 -0.184801
vn -0.373287 0.924539 0.076709
v 0.010600 0.051167 -0.092205
vn -0.373287 0.924539 0.076709
v 0.046339 0.062715 -0.057472
vn 0.996549 0.021798 -0.080097
v 0.094116 -0.054898 -0.190300
vn 0.996549 0.021798 -0.080097
v 0.095895 0.049875 -0.139653
vn 0.996549 0.021798 -0.080097
v 0.097744 -0.038460 -0.140688
vn 0.999375 0.008767 0.034258
v 0.094596 0.044863 0.045799
vn 0.999375 0.008767 0.034258
v 0.095659 -0.048819 0.038762
vn 0.999375 0.008767 0.034258
v 0.096635 0.049687 -0.014918
vn 0.020207 -0.022683 0.999539
v 0.017492 -0.038284 0.071111
vn 0.020207 -0.022683 0.999539
v 0.071104 -0.034811 0.070106
vn 0.020207 -0.022683 0.999539
v 0.058173 0.038627 0.072034
vn -0.220535 0.974170 0.048552
v 0.022556 0.063677 -0.184801
vn -0.220535 0.974170 0.048552
v 0.046339 0.062715 -0.057472
vn -0.220535 0.974170 0.048552
v 0.073188 0.075231 -0.186643
vn -0.978817 0.015791 -0.204128
v 0.007037 0.046064 -0.150917
vn -0.978817 0.015791 -0.204128
v 0.011034 -0.054973 -0.177899
vn -0.978817 0.015791 -0.204128
v -0.005459 -0.044864 -0.098031
vn 0.886161 -0.455317 0.086058
v 0.094116 -0.054898 -0.190300
vn 0.886161 -0.455317 0.086058
v 0.097744 -0.038460 -0.140688
vn 0.886161 -0.455317 0.086058
v 0.084149 -0.064126 -0.136491
vn -0.614803 0.013984 0.788557
v -0.037600 -0.033143 0.050570
vn -0.614803 0.013984 0.788557
v -0.019266 -0.042661 0.065033
vn -0.614803 0.013984 0.788557
v -0.035914 0.050734 0.050397
vn 0.033783 -0.963754 0.264646
v -0.028768 -0.062893 0.023012
vn 0.033783 -0.963754 0.264646
v 0.061920 -0.068376 -0.008532
vn 0.033783 -0.963754 0.264646
v 0.028252 -0.052154 0.054841
vn 0.010520 -0.033500 0.999383
v 0.017605 0.035026 0.067249
vn 0.010520 -0.033500 0.999383
v -0.010056 0.034215 0.067513
vn 0.010520 -0.033500 0.999383
v -0.019266 -0.042661 0.065033
vn -0.005725 0.993030 -0.117722
v 0.046339 0.062715 -0.057472
vn -0.005725 0.993030 -0.117722
v -0.021757 0.068193 -0.007951
vn -0.005725 0.993030 -0.117722
v 0.062343 0.068430 -0.010042
vn 0.705680 0.704041 0.079635
v 0.094596 0.044863 0.045799
vn 0.705680 0.704041 0.079635
v 0.096635 0.049687 -0.014918
vn 0.705680 0.704041 0.079635
v 0.077145 0.069862 -0.020573
vn -0.976291 -0.011976 -0.216132
v -0.045070 -0.045629 0.001761
vn -0.976291 -0.011976 -0.216132
v -0.046260 0.044882 0.002121
vn -0.976291 -0.011976 -0.216132
v -0.035225 0.049317 -0.047971
vn 0.049597 -0.518617 0.853567
v 0.017492 -0.038284 0.071111
vn 0.049597 -0.518617 0.853567
v 0.049626 -0.055868 0.058560
vn 0.049597 -0.518617 0.853567
v 0.071104 -0.034811 0.070106
vn 0.701347 -0.042236 -0.711567
v 0.094116 -0.054898 -0.190300
vn 0.701347 -0.042236 -0.711567
v 0.065570 -0.059885 -0.218140
vn 0.701347 -0.042236 -0.711567
v 0.093878 0.056099 -0.197123
vn 0.515596 -0.855302 -0.051177
v 0.084149 -0.064126 -0.136491
vn 0.515596 -0.855302 -0.051177
v 0.061916 -0.074495 -0.187190
vn 0.515596 -0.855302 -0.051177
v 0.094116 -0.054898 -0.190300
vn 0.885389 -0.449787 0.117375
v 0.084149 -0.064126 -0.136491
vn 0.885389 -0.449787 0.117375
v 0.097744 -0.038460 -0.140688
vn 0.885389 -0.449787 0.117375
v 0.073017 -0.063670 -0.050772
vn -0.000185 -0.993413 -0.114586
v 0.047899 -0.062900 -0.055984
vn -0.000185 -0.993413 -0.114586
v 0.061920 -0.068376 -0.008532
vn -0.000185 -0.993413 -0.114586
v -0.026540 -0.066496 -0.024688
vn 0.705287 0.707025 0.051818
v 0.085498 0.057613 -0.103721
vn 0.705287 0.707025 0.051818
v 0.095895 0.049875 -0.139653
vn 0.705287 0.707025 0.051818
v 0.093878 0.056099 -0.197123
vn 0.554423 0.816372 0.161714
v 0.094596 0.044863 0.045799
vn 0.554423 0.816372 0.161714
v 0.077145 0.069862 -0.020573
vn 0.554423 0.816372 0.161714
v 0.065977 0.066809 0.033128
vn -0.308451 -0.615479 -0.725288
v 0.019462 -0.037242 -0.217746
vn -0.308451 -0.615479 -0.725288
v 0.065570 -0.059885 -0.218140
vn -0.308451 -0.615479 -0.725288
v 0.024600 -0.064619 -0.196699
vn -0.268817 -0.961547 0.056256
v 0.024600 -0.064619 -0.196699
vn -0.268817 -0.961547 0.056256
v 0.061916 -0.074495 -0.187190
vn -0.268817 -0.961547 0.056256
v 0.047899 -0.062900 -0.055984
vn -0.098720 0.038890 -0.994355
v 0.064808 0.052962 -0.218720
vn -0.098720 0.038890 -0.994355
v 0.019462 -0.037242 -0.217746
vn -0.098720 0.038890 -0.994355
v 0.020531 0.044503 -0.214655
vn -0.081734 -0.949323 -0.303489
v -0.005459 -0.044864 -0.098031
vn -0.081734 -0.949323 -0.303489
v 0.047899 -0.062900 -0.055984
vn -0.081734 -0.949323 -0.303489
v -0.026540 -0.066496 -0.024688
vn -0.737094 -0.675586 0.016601
v -0.045070 -0.045629 0.001761
vn -0.737094 -0.675586 0.016601
v -0.026540 -0.066496 -0.024688
vn -0.737094 -0.675586 0.016601
v -0.028768 -0.062893 0.023012
vn -0.967562 -0.079209 -0.239895
v 0.011034 -0.054973 -0.177899
vn -0.967562 -0.079209 -0.239895
v 0.005875 0.041357 -0.188898
vn -0.967562 -0.079209 -0.239895
v 0.019462 -0.037242 -0.217746
vn 0.691697 0.720428 0.050381
v 0.085498 0.057613 -0.103721
vn 0.691697 0.720428 0.050381
v 0.093878 0.056099 -0.197123
vn 0.691697 0.720428 0.050381
v 0.073188 0.075231 -0.186643
vn 0.820702 -0.459414 -0.339687
v 0.097933 -0.052136 -0.006173
vn 0.820702 -0.459414 -0.339687
v 0.073017 -0.063670 -0.050772
vn 0.820702 -0.459414 -0.339687
v 0.085520 -0.041285 -0.050839
vn -0.601392 0.798277 -0.032887
v -0.006215 0.038359 -0.095608
vn -0.601392 0.798277 -0.032887
v 0.010600 0.051167 -0.092205
vn -0.601392 0.798277 -0.032887
v 0.007037 0.046064 -0.150917
vn -0.852400 -0.472161 -0.224674
v -0.045070 -0.045629 0.001761
vn -0.852400 -0.472161 -0.224674
v -0.030187 -0.041752 -0.062852
vn -0.852400 -0.472161 -0.224674
v -0.026540 -0.066496 -0.024688
vn -0.974116 -0.017057 -0.225402
v -0.030187 -0.041752 -0.062852
vn -0.974116 -0.017057 -0.225402
v -0.045070 -0.045629 0.001761
vn -0.974116 -0.017057 -0.225402
v -0.035225 0.049317 -0.047971
vn -0.760054 0.649778 -0.010351
v 0.007037 0.046064 -0.150917
vn -0.760054 0.649778 -0.010351
v 0.010600 0.051167 -0.092205
vn -0.760054 0.649778 -0.010351
v 0.022556 0.063677 -0.184801
vn -0.535094 0.036879 0.843987
v -0.019266 -0.042661 0.065033
vn -0.535094 0.036879 0.843987
v -0.010056 0.034215 0.067513
vn -0.535094 0.036879 0.843987
v -0.035914 0.050734 0.050397
vn 0.159740 0.783958 0.599910
v 0.027760 0.053843 0.060248
vn 0.159740 0.783958 0.599910
v 0.058173 0.038627 0.072034
vn 0.159740 0.783958 0.599910
v 0.065977 0.066809 0.033128
vn 0.303850 0.741575 0.598116
v 0.094596 0.044863 0.045799
vn 0.303850 0.741575 0.598116
v 0.065977 0.066809 0.033128
vn 0.303850 0.741575 0.598116
v 0.058173 0.038627 0.072034
vn 0.961991 0.267000 0.057308
v 0.085292 0.045537 -0.044000
vn 0.961991 0.267000 0.057308
v 0.085498 0.057613 -0.103721
vn 0.961991 0.267000 0.057308
v 0.077145 0.069862 -0.020573
vn 0.466836 -0.819724 -0.331837
v 0.065570 -0.059885 -0.218140
vn 0.466836 -0.819724 -0.331837
v 0.094116 -0.054898 -0.190300
vn 0.466836 -0.819724 -0.331837
v 0.061916 -0.074495 -0.187190
vn 0.718654 0.592007 -0.364780
v 0.085292 0.045537 -0.044000
vn 0.718654 0.592007 -0.364780
v 0.077145 0.069862 -0.020573
vn 0.718654 0.592007 -0.364780
v 0.096635 0.049687 -0.014918
vn 0.932394 -0.019113 -0.360939
v 0.097933 -0.052136 -0.006173
vn 0.932394 -0.019113 -0.360939
v 0.085292 0.045537 -0.044000
vn 0.932394 -0.019113 -0.360939
v 0.096635 0.049687 -0.014918
vn -0.234217 -0.810850 0.536344
v 0.017492 -0.038284 0.071111
vn -0.234217 -0.810850 0.536344
v 0.028252 -0.052154 0.054841
vn -0.234217 -0.810850 0.536344
v 0.049626 -0.055868 0.058560
vn 0.207084 -0.972338 0.108051
v 0.084149 -0.064126 -0.136491
vn 0.207084 -0.972338 0.108051
v 0.047899 -0.062900 -0.055984
vn 0.207084 -0.972338 0.108051
v 0.061916 -0.074495 -0.187190
vn -0.282444 0.957423 0.059726
v 0.027760 0.053843 0.060248
vn -0.282444 0.957423 0.059726
v 0.065977 0.066809 0.033128
vn -0.282444 0.957423 0.059726
v 0.062343 0.068430 -0.010042
vn -0.068468 -0.989380 -0.128215
v 0.073017 -0.063670 -0.050772
vn -0.068468 -0.989380 -0.128215
v 0.072799 -0.071659 0.010992
vn -0.068468 -0.989380 -0.128215
v 0.061920 -0.068376 -0.008532
vn -0.030911 -0.999521 0.001303
v 0.073017 -0.063670 -0.050772
vn -0.030911 -0.999521 0.001303
v 0.047899 -0.062900 -0.055984
vn -0.030911 -0.999521 0.001303
v 0.084149 -0.064126 -0.136491
vn 0.363426 0.718118 -0.593487
v 0.093878 0.056099 -0.197123
vn 0.363426 0.718118 -0.593487
v 0.064808 0.052962 -0.218720
vn 0.363426 0.718118 -0.593487
v 0.073188 0.075231 -0.186643
vn -0.158782 0.418410 0.894271
v 0.017605 0.035026 0.067249
vn -0.158782 0.418410 0.894271
v 0.027760 0.053843 0.060248
vn -0.158782 0.418410 0.894271
v -0.035914 0.050734 0.050397
vn -0.627100 -0.679577 -0.380684
v -0.030187 -0.041752 -0.062852
vn -0.627100 -0.679577 -0.380684
v -0.005459 -0.044864 -0.098031
vn -0.627100 -0.679577 -0.380684
v -0.026540 -0.066496 -0.024688
vn -0.817684 0.009330 -0.575591
v -0.005459 -0.044864 -0.098031
vn -0.817684 0.009330 -0.575591
v -0.030187 -0.041752 -0.062852
vn -0.817684 0.009330 -0.575591
v -0.006215 0.038359 -0.095608
vn -0.203728 -0.954533 0.217626
v 0.028252 -0.052154 0.054841
vn -0.203728 -0.954533 0.217626
v 0.072799 -0.071659 0.010992
vn -0.203728 -0.954533 0.217626
v 0.049626 -0.055868 0.058560
vn -0.839024 -0.482326 0.251794
v -0.037600 -0.033143 0.050570
vn -0.839024 -0.482326 0.251794
v -0.045070 -0.045629 0.001761
vn -0.839024 -0.482326 0.251794
v -0.028768 -0.062893 0.023012
vn -0.081973 -0.890601 0.447337
v -0.019266 -0.042661 0.065033
vn -0.081973 -0.890601 0.447337
v -0.028768 -0.062893 0.023012
vn -0.081973 -0.890601 0.447337
v 0.028252 -0.052154 0.054841
vn 0.964666 0.023207 -0.262450
v 0.097933 -0.052136 -0.006173
vn 0.964666 0.023207 -0.262450
v 0.085520 -0.041285 -0.050839
vn 0.964666 0.023207 -0.262450
v 0.085292 0.045537 -0.044000
vn -0.007102 -0.993619 -0.112566
v 0.073017 -0.063670 -0.050772
vn -0.007102 -0.993619 -0.112566
v 0.061920 -0.068376 -0.008532
vn -0.007102 -0.993619 -0.112566
v 0.047899 -0.062900 -0.055984
vn -0.476278 0.748066 -0.462122
v -0.035225 0.049317 -0.047971
vn -0.476278 0.748066 -0.462122
v 0.010600 0.051167 -0.092205
vn -0.476278 0.748066 -0.462122
v -0.006215 0.038359 -0.095608
vn -0.849430 0.039001 -0.526258
v -0.035225 0.049317 -0.047971
vn -0.849430 0.039001 -0.526258
v -0.006215 0.038359 -0.095608
vn -0.849430 0.039001 -0.526258
v -0.030187 -0.041752 -0.062852
vn -0.870326 0.029969 -0.491564
v 0.005875 0.041357 -0.188898
vn -0.870326 0.029969 -0.491564
v 0.020531 0.044503 -0.214655
vn -0.870326 0.029969 -0.491564
v 0.019462 -0.037242 -0.217746
vn 0.648072 -0.756404 0.088633
v 0.097933 -0.052136 -0.006173
vn 0.648072 -0.756404 0.088633
v 0.095659 -0.048819 0.038762
vn 0.648072 -0.756404 0.088633
v 0.072799 -0.071659 0.010992
vn 0.564898 -0.818594 -0.103889
v 0.073017 -0.063670 -0.050772
vn 0.564898 -0.818594 -0.103889
v 0.097933 -0.052136 -0.006173
vn 0.564898 -0.818594 -0.103889
v 0.072799 -0.071659 0.010992
vn 0.573595 0.079595 0.815263
v 0.071104 -0.034811 0.070106
vn 0.573595 0.079595 0.815263
v 0.094596 0.044863 0.045799
vn 0.573595 0.079595 0.815263
v 0.058173 0.038627 0.072034
vn -0.662394 -0.605404 0.441270
v -0.028768 -0.062893 0.023012
vn -0.662394 -0.605404 0.441270
v -0.019266 -0.042661 0.065033
vn -0.662394 -0.605404 0.441270
v -0.037600 -0.033143 0.050570
vn -0.014050 0.708783 0.705287
v 0.017605 0.035026 0.067249
vn -0.014050 0.708783 0.705287
v -0.035914 0.050734 0.050397
vn -0.014050 0.708783 0.705287
v -0.010056 0.034215 0.067513
vn 0.990874 -0.007997 0.134557
v 0.097744 -0.038460 -0.140688
vn 0.990874 -0.007997 0.134557
v 0.085292 0.045537 -0.044000
vn 0.990874 -0.007997 0.134557
v 0.085520 -0.041285 -0.050839
vn 0.868542 -0.484811 0.102922
v 0.097744 -0.038460 -0.140688
vn 0.868542 -0.484811 0.102922
v 0.085520 -0.041285 -0.050839
vn 0.868542 -0.484811 0.102922
v 0.073017 -0.063670 -0.050772
vn 0.993626 0.019497 0.111026
v 0.097744 -0.038460 -0.140688
vn 0.993626 0.019497 0.111026
v 0.095895 0.049875 -0.139653
vn 0.993626 0.019497 0.111026
v 0.085292 0.045537 -0.044000
vn 0.819520 0.561127 0.116291
v 0.085292 0.045537 -0.044000
vn 0.819520 0.561127 0.116291
v 0.095895 0.049875 -0.139653
vn 0.819520 0.561127 0.116291
v 0.085498 0.057613 -0.103721
vn -0.048958 0.987415 -0.150380
v 0.046339 0.062715 -0.057472
vn -0.048958 0.987415 -0.150380
v 0.077145 0.069862 -0.020573
vn -0.048958 0.987415 -0.150380
v 0.085498 0.057613 -0.103721
vn 0.004453 0.957724 0.287653
v 0.062343 0.068430 -0.010042
vn 0.004453 0.957724 0.287653
v -0.021757 0.068193 -0.007951
vn 0.004453 0.957724 0.287653
v -0.035914 0.050734 0.050397
vn 0.778255 -0.038250 0.626782
v 0.071104 -0.034811 0.070106
vn 0.778255 -0.038250 0.626782
v 0.095659 -0.048819 0.038762
vn 0.778255 -0.038250 0.626782
v 0.094596 0.044863 0.045799
vn -0.723117 0.602446 -0.337877
v 0.022556 0.063677 -0.184801
vn -0.723117 0.602446 -0.337877
v 0.020531 0.044503 -0.214655
vn -0.723117 0.602446 -0.337877
v 0.005875 0.041357 -0.188898
vn -0.206135 0.829635 -0.518858
v 0.022556 0.063677 -0.184801
vn -0.206135 0.829635 -0.518858
v 0.064808 0.052962 -0.218720
vn -0.206135 0.829635 -0.518858
v 0.020531 0.044503 -0.214655
vn -0.362687 -0.930796 0.045578
v 0.061920 -0.068376 -0.008532
vn -0.362687 -0.930796 0.045578
v 0.072799 -0.071659 0.010992
vn -0.362687 -0.930796 0.045578
v 0.028252 -0.052154 0.054841
vn -0.089428 0.969034 -0.230166
v -0.021757 0.068193 -0.007951
vn -0.089428 0.969034 -0.230166
v 0.046339 0.062715 -0.057472
vn -0.089428 0.969034 -0.230166
v 0.010600 0.051167 -0.092205
vn -0.333361 0.891041 -0.308085
v -0.035225 0.049317 -0.047971
vn -0.333361 0.891041 -0.308085
v -0.021757 0.068193 -0.007951
vn -0.333361 0.891041 -0.308085
v 0.010600 0.051167 -0.092205
vn -0.706139 0.701884 -0.093416
v -0.046260 0.044882 0.002121
vn -0.706139 0.701884 -0.093416
v -0.021757 0.068193 -0.007951
vn -0.706139 0.701884 -0.093416
v -0.035225 0.049317 -0.047971
vn -0.207910 0.828108 -0.520587
v 0.022556 0.063677 -0.184801
vn -0.207910 0.828108 -0.520587
v 0.073188 0.075231 -0.186643
vn -0.207910 0.828108 -0.520587
v 0.064808 0.052962 -0.218720
vn 0.596369 -0.000099 -0.802710
v 0.065570 -0.059885 -0.218140
vn 0.596369 -0.000099 -0.802710
v 0.064808 0.052962 -0.218720
vn 0.596369 -0.000099 -0.802710
v 0.093878 0.056099 -0.197123
vn -0.065867 0.996902 0.042978
v 0.062343 0.068430 -0.010042
vn -0.065867 0.996902 0.042978
v 0.065977 0.066809 0.033128
vn -0.065867 0.996902 0.042978
v 0.077145 0.069862 -0.020573
vn -0.168952 0.052111 0.984246
v 0.017492 -0.038284 0.071111
vn -0.168952 0.052111 0.984246
v 0.017605 0.035026 0.067249
vn -0.168952 0.052111 0.984246
v -0.019266 -0.042661 0.065033
vn -0.015108 -0.765828 0.642868
v -0.019266 -0.042661 0.065033
vn -0.015108 -0.765828 0.642868
v 0.028252 -0.052154 0.054841
vn -0.015108 -0.765828 0.642868
v 0.017492 -0.038284 0.071111
vn -0.998113 -0.049271 0.036643
v 0.007037 0.046064 -0.150917
vn -0.998113 -0.049271 0.036643
v 0.005875 0.041357 -0.188898
vn -0.998113 -0.049271 0.036643
v 0.011034 -0.054973 -0.177899
vn -0.795527 0.603811 -0.050492
v 0.005875 0.041357 -0.188898
vn -0.795527 0.603811 -0.050492
v 0.007037 0.046064 -0.150917
vn -0.795527 0.603811 -0.050492
v 0.022556 0.063677 -0.184801
vn 0.304829 0.939805 0.154423
v 0.073188 0.075231 -0.186643
vn 0.304829 0.939805 0.154423
v 0.046339 0.062715 -0.057472
vn 0.304829 0.939805 0.154423
v 0.085498 0.057613 -0.103721
vn -0.676051 0.734738 0.055819
v -0.046260 0.044882 0.002121
vn -0.676051 0.734738 0.055819
v -0.035914 0.050734 0.050397
vn -0.676051 0.734738 0.055819
v -0.021757 0.068193 -0.007951
vn -0.600038 -0.799649 -0.022697
v 0.011034 -0.054973 -0.177899
vn -0.600038 -0.799649 -0.022697
v 0.024600 -0.064619 -0.196699
vn -0.600038 -0.799649 -0.022697
v -0.005459 -0.044864 -0.098031
vn -0.370259 -0.926086 0.072619
v -0.005459 -0.044864 -0.098031
vn -0.370259 -0.926086 0.072619
v 0.024600 -0.064619 -0.196699
vn -0.370259 -0.926086 0.072619
v 0.047899 -0.062900 -0.055984
vn -0.121564 0.052404 0.991199
v 0.058173 0.038627 0.072034
vn -0.121564 0.052404 0.991199
v 0.017605 0.035026 0.067249
vn -0.121564 0.052404 0.991199
v 0.017492 -0.038284 0.071111
vn -0.142714 0.411870 0.899998
v 0.058173 0.038627 0.072034
vn -0.142714 0.411870 0.899998
v 0.027760 0.053843 0.060248
vn -0.142714 0.411870 0.899998
v 0.017605 0.035026 0.067249
vn 0.368076 -0.706729 0.604197
v 0.095659 -0.048819 0.038762
vn 0.368076 -0.706729 0.604197
v 0.071104 -0.034811 0.070106
vn 0.368076 -0.706729 0.604197
v 0.049626 -0.055868 0.058560
vn -0.145222 0.986926 -0.069917
v 0.046339 0.062715 -0.057472
vn -0.145222 0.986926 -0.069917
v 0.062343 0.068430 -0.010042
vn -0.145222 0.986926 -0.069917
v 0.077145 0.069862 -0.020573
vn -0.820735 -0.436972 -0.368035
v 0.011034 -0.054973 -0.177899
vn -0.820735 -0.436972 -0.368035
v 0.019462 -0.037242 -0.217746
vn -0.820735 -0.436972 -0.368035
v 0.024600 -0.064619 -0.196699
vn -0.124938 -0.891447 -0.435560
v 0.065570 -0.059885 -0.218140
vn -0.124938 -0.891447 -0.435560
v 0.061916 -0.074495 -0.187190
vn -0.124938 -0.891447 -0.435560
v 0.024600 -0.064619 -0.196699
# 300 vertices, 0 vertices normals

f 1//1 2//2 3//3
f 4//4 5//5 6//6
f 7//7 8//8 9//9
f 10//10 11//11 12//12
f 13//13 14//14 15//15
f 16//16 17//17 18//18
f 19//19 20//20 21//21
f 22//22 23//23 24//24
f 25//25 26//26 27//27
f 28//28 29//29 30//30
f 31//31 32//32 33//33
f 34//34 35//35 36//36
f 37//37 38//38 39//39
f 40//40 41//41 42//42
f 43//43 44//44 45//45
f 46//46 47//47 48//48
f 49//49 50//50 51//51
f 52//52 53//53 54//54
f 55//55 56//56 57//57
f 58//58 59//59 60//60
f 61//61 62//62 63//63
f 64//64 65//65 66//66
f 67//67 68//68 69//69
f 70//70 71//71 72//72
f 73//73 74//74 75//75
f 76//76 77//77 78//78
f 79//79 80//80 81//81
f 82//82 83//83 84//84
f 85//85 86//86 87//87
f 88//88 89//89 90//90
f 91//91 92//92 93//93
f 94//94 95//95 96//96
f 97//97 98//98 99//99
f 100//100 101//101 102//102
f 103//103 104//104 105//105
f 106//106 107//107 108//108
f 109//109 110//110 111//111
f 112//112 113//113 114//114
f 115//115 116//116 117//117
f 118//118 119//119 120//120
f 121//121 122//122 123//123
f 124//124 125//125 126//126
f 127//127 128//128 129//129
f 130//130 131//131 132//132
f 133//133 134//134 135//135
f 136//136 137//137 138//138
f 139//139 140//140 141//141
f 142//142 143//143 144//144
f 145//145 146//146 147//147
f 148//148 149//149 150//150
f 151//151 152//152 153//153
f 154//154 155//155 156//156
f 157//157 158//158 159//159
f 160//160 161//161 162//162
f 163//163 164//164 165//165
f 166//166 167//167 168//168
f 169//169 170//170 171//171
f 172//172 173//173 174//174
f 175//175 176//176 177//177
f 178//178 179//179 180//180
f 181//181 182//182 183//183
f 184//184 185//185 186//186
f 187//187 188//188 189//189
f 190//190 191//191 192//192
f 193//193 194//194 195//195
f 196//196 197//197 198//198
f 199//199 200//200 201//201
f 202//202 203//203 204//204
f 205//205 206//206 207//207
f 208//208 209//209 210//210
f 211//211 212//212 213//213
f 214//214 215//215 216//216
f 217//217 218//218 219//219
f 220//220 221//221 222//222
f 223//223 224//224 225//225
f 226//226 227//227 228//228
f 229//229 230//230 231//231
f 232//232 233//233 234//234
f 235//235 236//236 237//237
f 238//238 239//239 240//240
f 241//241 242//242 243//243
f 244//244 245//245 246//246
f 247//247 248//248 249//249
f 250//250 251//251 252//252
f 253//253 254//254 255//255
f 256//256 257//257 258//258
f 259//259 260//260 261//261
f 262//262 263//263 264//264
f 265//265 266//266 267//267
f 268//268 269//269 270//270
f 271//271 272//272 273//273
f 274//274 275//275 276//276
f 277//277 278//278 279//279
f 280//280 281//281 282//282
f 283//283 284//284 285//285
f 286//286 287//287 288//288
f 289//289 290//290 291//291
f 292//292 293//293 294//294
f 295//295 296//296 297//297
f 298//298 299//299 300//300
# 100 faces, 0 coords texture

# End of File