####
#
# OBJ File Generated by Meshlab
#
####
# Object pf1.obj
#
# Vertices: 144
# Faces: 48
#
####
vn -0.000142 -0.997943 0.064109
v 0.011185 0.006183 -0.009812
vn -0.000142 -0.997943 0.064109
v 0.023265 0.006197 -0.009575
vn -0.000142 -0.997943 0.064109
v 0.023879 0.007105 0.004573
vn -0.001182 0.997149 -0.075448
v 0.002395 0.010862 -0.008593
vn -0.001182 0.997149 -0.075448
v 0.021773 0.012058 0.006911
vn -0.001182 0.997149 -0.075448
v 0.022458 0.010823 -0.009432
vn -0.345762 0.044159 0.937282
v 0.009051 -0.010670 0.009856
vn -0.345762 0.044159 0.937282
v 0.008804 0.010259 0.008779
vn -0.345762 0.044159 0.937282
v 0.004365 -0.000268 0.007637
vn 0.179693 0.980232 0.082798
v 0.022827 -0.008447 0.008028
vn 0.179693 0.980232 0.082798
v 0.023643 -0.007203 -0.008471
vn 0.179693 0.980232 0.082798
v 0.010413 -0.006157 0.007852
vn -0.947913 -0.126825 0.292193
v 0.006302 0.002996 0.001588
vn -0.947913 -0.126825 0.292193
v 0.002395 0.005798 -0.009871
vn -0.947913 -0.126825 0.292193
v 0.004544 -0.008903 -0.009281
vn 0.905229 0.094772 0.414222
v 0.007633 -0.006642 0.000885
vn 0.905229 0.094772 0.414222
v 0.011185 0.006183 -0.009812
vn 0.905229 0.094772 0.414222
v 0.006302 0.002996 0.001588
vn 0.670481 -0.737488 0.081037
v 0.010191 0.007155 0.007258
vn 0.670481 -0.737488 0.081037
v 0.006302 0.002996 0.001588
vn 0.670481 -0.737488 0.081037
v 0.011185 0.006183 -0.009812
vn -0.829835 -0.537009 0.151641
v 0.006302 0.002996 0.001588
vn -0.829835 -0.537009 0.151641
v 0.002548 0.010057 0.006046
vn -0.829835 -0.537009 0.151641
v 0.002395 0.005798 -0.009871
vn 0.043918 -0.054449 -0.997550
v 0.011185 0.006183 -0.009812
vn 0.043918 -0.054449 -0.997550
v 0.010202 -0.009417 -0.009004
vn 0.043918 -0.054449 -0.997550
v 0.004544 -0.008903 -0.009281
vn 0.778662 0.041428 0.626075
v 0.010191 0.007155 0.007258
vn 0.778662 0.041428 0.626075
v 0.008804 0.010259 0.008779
vn 0.778662 0.041428 0.626075
v 0.009051 -0.010670 0.009856
vn -0.125557 0.988802 0.080656
v 0.002395 0.010862 -0.008593
vn -0.125557 0.988802 0.080656
v 0.008804 0.010259 0.008779
vn -0.125557 0.988802 0.080656
v 0.021773 0.012058 0.006911
vn -0.050439 -0.998695 0.008073
v 0.009728 -0.011050 -0.005069
vn -0.050439 -0.998695 0.008073
v 0.022513 -0.011689 -0.004227
vn -0.050439 -0.998695 0.008073
v 0.013746 -0.011158 0.006748
vn -0.004575 0.997697 -0.067673
v 0.007633 -0.006642 0.000885
vn -0.004575 0.997697 -0.067673
v 0.010413 -0.006157 0.007852
vn -0.004575 0.997697 -0.067673
v 0.023643 -0.007203 -0.008471
vn 0.007594 -0.998328 0.057306
v 0.011185 0.006183 -0.009812
vn 0.007594 -0.998328 0.057306
v 0.023879 0.007105 0.004573
vn 0.007594 -0.998328 0.057306
v 0.010191 0.007155 0.007258
vn 0.167039 -0.961511 -0.218162
v 0.026513 -0.008849 0.000979
vn 0.167039 -0.961511 -0.218162
v 0.010202 -0.009417 -0.009004
vn 0.167039 -0.961511 -0.218162
v 0.023643 -0.007203 -0.008471
vn -0.089330 -0.995774 0.021322
v 0.013746 -0.011158 0.006748
vn -0.089330 -0.995774 0.021322
v 0.009051 -0.010670 0.009856
vn -0.089330 -0.995774 0.021322
v 0.009728 -0.011050 -0.005069
vn 0.781301 0.040785 0.622821
v 0.009051 -0.010670 0.009856
vn 0.781301 0.040785 0.622821
v 0.010413 -0.006157 0.007852
vn 0.781301 0.040785 0.622821
v 0.010191 0.007155 0.007258
vn 0.141010 -0.041792 -0.989126
v 0.002548 0.010057 0.006046
vn 0.141010 -0.041792 -0.989126
v 0.010191 0.007155 0.007258
vn 0.141010 -0.041792 -0.989126
v 0.010413 -0.006157 0.007852
vn -0.947923 0.279537 -0.152649
v 0.004365 -0.000268 0.007637
vn -0.947923 0.279537 -0.152649
v 0.006302 0.002996 0.001588
vn -0.947923 0.279537 -0.152649
v 0.004544 -0.008903 -0.009281
vn -0.348233 -0.625810 0.697922
v 0.002548 0.010057 0.006046
vn -0.348233 -0.625810 0.697922
v 0.006302 0.002996 0.001588
vn -0.348233 -0.625810 0.697922
v 0.010191 0.007155 0.007258
vn 0.003416 0.073388 -0.997298
v 0.022458 0.010823 -0.009432
vn 0.003416 0.073388 -0.997298
v 0.011185 0.006183 -0.009812
vn 0.003416 0.073388 -0.997298
v 0.002395 0.005798 -0.009871
vn 0.008344 -0.038845 -0.999210
v 0.011185 0.006183 -0.009812
vn 0.008344 -0.038845 -0.999210
v 0.004544 -0.008903 -0.009281
vn 0.008344 -0.038845 -0.999210
v 0.002395 0.005798 -0.009871
vn -0.401190 0.070129 0.913306
v 0.008804 0.010259 0.008779
vn -0.401190 0.070129 0.913306
v 0.002548 0.010057 0.006046
vn -0.401190 0.070129 0.913306
v 0.004365 -0.000268 0.007637
vn -0.056456 0.996864 0.055442
v 0.002395 0.010862 -0.008593
vn -0.056456 0.996864 0.055442
v 0.002548 0.010057 0.006046
vn -0.056456 0.996864 0.055442
v 0.008804 0.010259 0.008779
vn 0.019556 0.034328 -0.999219
v 0.022458 0.010823 -0.009432
vn 0.019556 0.034328 -0.999219
v 0.023265 0.006197 -0.009575
vn 0.019556 0.034328 -0.999219
v 0.011185 0.006183 -0.009812
vn 0.921793 0.387570 0.009352
v 0.022458 0.010823 -0.009432
vn 0.921793 0.387570 0.009352
v 0.021773 0.012058 0.006911
vn 0.921793 0.387570 0.009352
v 0.023879 0.007105 0.004573
vn 0.268239 0.959540 0.085619
v 0.023643 -0.007203 -0.008471
vn 0.268239 0.959540 0.085619
v 0.022827 -0.008447 0.008028
vn 0.268239 0.959540 0.085619
v 0.026513 -0.008849 0.000979
vn -0.020712 -0.922530 -0.385370
v 0.010202 -0.009417 -0.009004
vn -0.020712 -0.922530 -0.385370
v 0.022513 -0.011689 -0.004227
vn -0.020712 -0.922530 -0.385370
v 0.009728 -0.011050 -0.005069
vn -0.064534 -0.918914 -0.389144
v 0.010202 -0.009417 -0.009004
vn -0.064534 -0.918914 -0.389144
v 0.009728 -0.011050 -0.005069
vn -0.064534 -0.918914 -0.389144
v 0.004544 -0.008903 -0.009281
vn 0.182186 -0.365657 0.912745
v 0.010191 0.007155 0.007258
vn 0.182186 -0.365657 0.912745
v 0.021773 0.012058 0.006911
vn 0.182186 -0.365657 0.912745
v 0.008804 0.010259 0.008779
vn 0.178573 -0.356824 0.916945
v 0.021773 0.012058 0.006911
vn 0.178573 -0.356824 0.916945
v 0.010191 0.007155 0.007258
vn 0.178573 -0.356824 0.916945
v 0.023879 0.007105 0.004573
vn 0.076054 -0.996686 0.028848
v 0.009728 -0.011050 -0.005069
vn 0.076054 -0.996686 0.028848
v 0.009051 -0.010670 0.009856
vn 0.076054 -0.996686 0.028848
v 0.002322 -0.011305 0.005675
vn -0.523240 -0.054309 0.850453
v 0.009051 -0.010670 0.009856
vn -0.523240 -0.054309 0.850453
v 0.004365 -0.000268 0.007637
vn -0.523240 -0.054309 0.850453
v 0.002322 -0.011305 0.005675
vn 0.555558 0.191584 0.809105
v 0.009051 -0.010670 0.009856
vn 0.555558 0.191584 0.809105
v 0.013746 -0.011158 0.006748
vn 0.555558 0.191584 0.809105
v 0.010413 -0.006157 0.007852
vn -0.060463 -0.253522 0.965438
v 0.013746 -0.011158 0.006748
vn -0.060463 -0.253522 0.965438
v 0.022827 -0.008447 0.008028
vn -0.060463 -0.253522 0.965438
v 0.010413 -0.006157 0.007852
vn 0.914035 0.153576 -0.375438
v 0.006302 0.002996 0.001588
vn 0.914035 0.153576 -0.375438
v 0.010413 -0.006157 0.007852
vn 0.914035 0.153576 -0.375438
v 0.007633 -0.006642 0.000885
vn 0.983429 0.173121 -0.053819
v 0.022458 0.010823 -0.009432
vn 0.983429 0.173121 -0.053819
v 0.023879 0.007105 0.004573
vn 0.983429 0.173121 -0.053819
v 0.023265 0.006197 -0.009575
vn -0.973279 0.200218 -0.112434
v 0.004365 -0.000268 0.007637
vn -0.973279 0.200218 -0.112434
v 0.004544 -0.008903 -0.009281
vn -0.973279 0.200218 -0.112434
v 0.002322 -0.011305 0.005675
vn -0.241071 -0.951984 -0.188709
v 0.009728 -0.011050 -0.005069
vn -0.241071 -0.951984 -0.188709
v 0.002322 -0.011305 0.005675
vn -0.241071 -0.951984 -0.188709
v 0.004544 -0.008903 -0.009281
vn 0.290629 -0.916003 0.276537
v 0.026513 -0.008849 0.000979
vn 0.290629 -0.916003 0.276537
v 0.013746 -0.011158 0.006748
vn 0.290629 -0.916003 0.276537
v 0.022513 -0.011689 -0.004227
vn 0.374079 0.662513 -0.648954
v 0.026513 -0.008849 0.000979
vn 0.374079 0.662513 -0.648954
v 0.022513 -0.011689 -0.004227
vn 0.374079 0.662513 -0.648954
v 0.010202 -0.009417 -0.009004
vn 0.256479 -0.948065 0.188125
v 0.022827 -0.008447 0.008028
vn 0.256479 -0.948065 0.188125
v 0.013746 -0.011158 0.006748
vn 0.256479 -0.948065 0.188125
v 0.026513 -0.008849 0.000979
vn -0.040061 0.244514 -0.968818
v 0.022458 0.010823 -0.009432
vn -0.040061 0.244514 -0.968818
v 0.002395 0.005798 -0.009871
vn -0.040061 0.244514 -0.968818
v 0.002395 0.010862 -0.008593
vn -0.999944 -0.002595 0.010282
v 0.002395 0.005798 -0.009871
vn -0.999944 -0.002595 0.010282
v 0.002548 0.010057 0.006046
vn -0.999944 -0.002595 0.010282
v 0.002395 0.010862 -0.008593
vn 0.963506 -0.047078 0.263516
v 0.011185 0.006183 -0.009812
vn 0.963506 -0.047078 0.263516
v 0.007633 -0.006642 0.000885
vn 0.963506 -0.047078 0.263516
v 0.010202 -0.009417 -0.009004
vn -0.143303 0.942556 -0.301748
v 0.007633 -0.006642 0.000885
vn -0.143303 0.942556 -0.301748
v 0.023643 -0.007203 -0.008471
vn -0.143303 0.942556 -0.301748
v 0.010202 -0.009417 -0.009004
vn 0.585392 0.620240 0.522128
v 0.004365 -0.000268 0.007637
vn 0.585392 0.620240 0.522128
v 0.010413 -0.006157 0.007852
vn 0.585392 0.620240 0.522128
v 0.006302 0.002996 0.001588
vn -0.134827 -0.174080 -0.975458
v 0.004365 -0.000268 0.007637
vn -0.134827 -0.174080 -0.975458
v 0.002548 0.010057 0.006046
vn -0.134827 -0.174080 -0.975458
v 0.010413 -0.006157 0.007852
# 144 vertices, 0 vertices normals

f 1//1 2//2 3//3
f 4//4 5//5 6//6
f 7//7 8//8 9//9
f 10//10 11//11 12//12
f 13//13 14//14 15//15
f 16//16 17//17 18//18
f 19//19 20//20 21//21
f 22//22 23//23 24//24
f 25//25 26//26 27//27
f 28//28 29//29 30//30
f 31//31 32//32 33//33
f 34//34 35//35 36//36
f 37//37 38//38 39//39
f 40//40 41//41 42//42
f 43//43 44//44 45//45
f 46//46 47//47 48//48
f 49//49 50//50 51//51
f 52//52 53//53 54//54
f 55//55 56//56 57//57
f 58//58 59//59 60//60
f 61//61 62//62 63//63
f 64//64 65//65 66//66
f 67//67 68//68 69//69
f 70//70 71//71 72//72
f 73//73 74//74 75//75
f 76//76 77//77 78//78
f 79//79 80//80 81//81
f 82//82 83//83 84//84
f 85//85 86//86 87//87
f 88//88 89//89 90//90
f 91//91 92//92 93//93
f 94//94 95//95 96//96
f 97//97 98//98 99//99
f 100//100 101//101 102//102
f 103//103 104//104 105//105
f 106//106 107//107 108//108
f 109//109 110//110 111//111
f 112//112 113//113 114//114
f 115//115 116//116 117//117
f 118//118 119//119 120//120
f 121//121 122//122 123//123
f 124//124 125//125 126//126
f 127//127 128//128 129//129
f 130//130 131//131 132//132
f 133//133 134//134 135//135
f 136//136 137//137 138//138
f 139//139 140//140 141//141
f 142//142 143//143 144//144
# 48 faces, 0 coords texture

# End of File