####
#
# OBJ File Generated by Meshlab
#
####
# Object pf1_chull.obj
#
# Vertices: 144
# Faces: 48
#
####
vn -0.000100 -0.997947 0.064051
v 0.011185 0.006183 -0.009812
vn -0.000100 -0.997947 0.064051
v 0.023265 0.006197 -0.009575
vn -0.000100 -0.997947 0.064051
v 0.023879 0.007105 0.004573
vn -0.001215 0.997152 -0.075403
v 0.002395 0.010862 -0.008593
vn -0.001215 0.997152 -0.075403
v 0.021773 0.012058 0.006911
vn -0.001215 0.997152 -0.075403
v 0.022458 0.010823 -0.009432
vn -0.345824 0.044150 0.937260
v 0.009051 -0.010670 0.009856
vn -0.345824 0.044150 0.937260
v 0.008804 0.010259 0.008779
vn -0.345824 0.044150 0.937260
v 0.004365 -0.000268 0.007637
vn 0.179650 0.980240 0.082794
v 0.022827 -0.008447 0.008028
vn 0.179650 0.980240 0.082794
v 0.023643 -0.007203 -0.008471
vn 0.179650 0.980240 0.082794
v 0.010413 -0.006157 0.007852
vn -0.947915 -0.126840 0.292180
v 0.006302 0.002996 0.001588
vn -0.947915 -0.126840 0.292180
v 0.002395 0.005798 -0.009871
vn -0.947915 -0.126840 0.292180
v 0.004544 -0.008903 -0.009281
vn 0.905219 0.094795 0.414237
v 0.007633 -0.006642 0.000885
vn 0.905219 0.094795 0.414237
v 0.011185 0.006183 -0.009812
vn 0.905219 0.094795 0.414237
v 0.006302 0.002996 0.001588
vn 0.670511 -0.737460 0.081037
v 0.010191 0.007155 0.007258
vn 0.670511 -0.737460 0.081037
v 0.006302 0.002996 0.001588
vn 0.670511 -0.737460 0.081037
v 0.011185 0.006183 -0.009812
vn -0.829872 -0.536950 0.151652
v 0.006302 0.002996 0.001588
vn -0.829872 -0.536950 0.151652
v 0.002548 0.010057 0.006046
vn -0.829872 -0.536950 0.151652
v 0.002395 0.005798 -0.009871
vn 0.043892 -0.054434 -0.997552
v 0.011185 0.006183 -0.009812
vn 0.043892 -0.054434 -0.997552
v 0.010202 -0.009417 -0.009004
vn 0.043892 -0.054434 -0.997552
v 0.004544 -0.008903 -0.009281
vn 0.778891 0.041395 0.625792
v 0.010191 0.007155 0.007258
vn 0.778891 0.041395 0.625792
v 0.008804 0.010259 0.008779
vn 0.778891 0.041395 0.625792
v 0.009051 -0.010670 0.009856
vn -0.125547 0.988805 0.080640
v 0.002395 0.010862 -0.008593
vn -0.125547 0.988805 0.080640
v 0.008804 0.010259 0.008779
vn -0.125547 0.988805 0.080640
v 0.021773 0.012058 0.006911
vn -0.050444 -0.998695 0.008024
v 0.009728 -0.011050 -0.005069
vn -0.050444 -0.998695 0.008024
v 0.022513 -0.011689 -0.004227
vn -0.050444 -0.998695 0.008024
v 0.013746 -0.011158 0.006748
vn -0.004564 0.997700 -0.067633
v 0.007633 -0.006642 0.000885
vn -0.004564 0.997700 -0.067633
v 0.010413 -0.006157 0.007852
vn -0.004564 0.997700 -0.067633
v 0.023643 -0.007203 -0.008471
vn 0.007591 -0.998329 0.057289
v 0.011185 0.006183 -0.009812
vn 0.007591 -0.998329 0.057289
v 0.023879 0.007105 0.004573
vn 0.007591 -0.998329 0.057289
v 0.010191 0.007155 0.007258
vn 0.167031 -0.961503 -0.218203
v 0.026513 -0.008849 0.000979
vn 0.167031 -0.961503 -0.218203
v 0.010202 -0.009417 -0.009004
vn 0.167031 -0.961503 -0.218203
v 0.023643 -0.007203 -0.008471
vn -0.089402 -0.995768 0.021298
v 0.013746 -0.011158 0.006748
vn -0.089402 -0.995768 0.021298
v 0.009051 -0.010670 0.009856
vn -0.089402 -0.995768 0.021298
v 0.009728 -0.011050 -0.005069
vn 0.781239 0.040823 0.622896
v 0.009051 -0.010670 0.009856
vn 0.781239 0.040823 0.622896
v 0.010413 -0.006157 0.007852
vn 0.781239 0.040823 0.622896
v 0.010191 0.007155 0.007258
vn 0.140987 -0.041785 -0.989129
v 0.002548 0.010057 0.006046
vn 0.140987 -0.041785 -0.989129
v 0.010191 0.007155 0.007258
vn 0.140987 -0.041785 -0.989129
v 0.010413 -0.006157 0.007852
vn -0.947914 0.279534 -0.152705
v 0.004365 -0.000268 0.007637
vn -0.947914 0.279534 -0.152705
v 0.006302 0.002996 0.001588
vn -0.947914 0.279534 -0.152705
v 0.004544 -0.008903 -0.009281
vn -0.348283 -0.625795 0.697911
v 0.002548 0.010057 0.006046
vn -0.348283 -0.625795 0.697911
v 0.006302 0.002996 0.001588
vn -0.348283 -0.625795 0.697911
v 0.010191 0.007155 0.007258
vn 0.003488 0.073202 -0.997311
v 0.022458 0.010823 -0.009432
vn 0.003488 0.073202 -0.997311
v 0.011185 0.006183 -0.009812
vn 0.003488 0.073202 -0.997311
v 0.002395 0.005798 -0.009871
vn 0.008409 -0.038872 -0.999209
v 0.011185 0.006183 -0.009812
vn 0.008409 -0.038872 -0.999209
v 0.004544 -0.008903 -0.009281
vn 0.008409 -0.038872 -0.999209
v 0.002395 0.005798 -0.009871
vn -0.401242 0.070119 0.913284
v 0.008804 0.010259 0.008779
vn -0.401242 0.070119 0.913284
v 0.002548 0.010057 0.006046
vn -0.401242 0.070119 0.913284
v 0.004365 -0.000268 0.007637
vn -0.056393 0.996870 0.055407
v 0.002395 0.010862 -0.008593
vn -0.056393 0.996870 0.055407
v 0.002548 0.010057 0.006046
vn -0.056393 0.996870 0.055407
v 0.008804 0.010259 0.008779
vn 0.019564 0.034301 -0.999220
v 0.022458 0.010823 -0.009432
vn 0.019564 0.034301 -0.999220
v 0.023265 0.006197 -0.009575
vn 0.019564 0.034301 -0.999220
v 0.011185 0.006183 -0.009812
vn 0.921807 0.387536 0.009352
v 0.022458 0.010823 -0.009432
vn 0.921807 0.387536 0.009352
v 0.021773 0.012058 0.006911
vn 0.921807 0.387536 0.009352
v 0.023879 0.007105 0.004573
vn 0.268378 0.959501 0.085618
v 0.023643 -0.007203 -0.008471
vn 0.268378 0.959501 0.085618
v 0.022827 -0.008447 0.008028
vn 0.268378 0.959501 0.085618
v 0.026513 -0.008849 0.000979
vn -0.020731 -0.922540 -0.385345
v 0.010202 -0.009417 -0.009004
vn -0.020731 -0.922540 -0.385345
v 0.022513 -0.011689 -0.004227
vn -0.020731 -0.922540 -0.385345
v 0.009728 -0.011050 -0.005069
vn -0.064431 -0.918934 -0.389113
v 0.010202 -0.009417 -0.009004
vn -0.064431 -0.918934 -0.389113
v 0.009728 -0.011050 -0.005069
vn -0.064431 -0.918934 -0.389113
v 0.004544 -0.008903 -0.009281
vn 0.182202 -0.365810 0.912681
v 0.010191 0.007155 0.007258
vn 0.182202 -0.365810 0.912681
v 0.021773 0.012058 0.006911
vn 0.182202 -0.365810 0.912681
v 0.008804 0.010259 0.008779
vn 0.178557 -0.356898 0.916919
v 0.021773 0.012058 0.006911
vn 0.178557 -0.356898 0.916919
v 0.010191 0.007155 0.007258
vn 0.178557 -0.356898 0.916919
v 0.023879 0.007105 0.004573
vn 0.076141 -0.996680 0.028830
v 0.009728 -0.011050 -0.005069
vn 0.076141 -0.996680 0.028830
v 0.009051 -0.010670 0.009856
vn 0.076141 -0.996680 0.028830
v 0.002322 -0.011305 0.005675
vn -0.523280 -0.054315 0.850428
v 0.009051 -0.010670 0.009856
vn -0.523280 -0.054315 0.850428
v 0.004365 -0.000268 0.007637
vn -0.523280 -0.054315 0.850428
v 0.002322 -0.011305 0.005675
vn 0.555534 0.191629 0.809111
v 0.009051 -0.010670 0.009856
vn 0.555534 0.191629 0.809111
v 0.013746 -0.011158 0.006748
vn 0.555534 0.191629 0.809111
v 0.010413 -0.006157 0.007852
vn -0.060434 -0.253410 0.965469
v 0.013746 -0.011158 0.006748
vn -0.060434 -0.253410 0.965469
v 0.022827 -0.008447 0.008028
vn -0.060434 -0.253410 0.965469
v 0.010413 -0.006157 0.007852
vn 0.914038 0.153611 -0.375417
v 0.006302 0.002996 0.001588
vn 0.914038 0.153611 -0.375417
v 0.010413 -0.006157 0.007852
vn 0.914038 0.153611 -0.375417
v 0.007633 -0.006642 0.000885
vn 0.983413 0.173218 -0.053795
v 0.022458 0.010823 -0.009432
vn 0.983413 0.173218 -0.053795
v 0.023879 0.007105 0.004573
vn 0.983413 0.173218 -0.053795
v 0.023265 0.006197 -0.009575
vn -0.973290 0.200151 -0.112456
v 0.004365 -0.000268 0.007637
vn -0.973290 0.200151 -0.112456
v 0.004544 -0.008903 -0.009281
vn -0.973290 0.200151 -0.112456
v 0.002322 -0.011305 0.005675
vn -0.240968 -0.952013 -0.188698
v 0.009728 -0.011050 -0.005069
vn -0.240968 -0.952013 -0.188698
v 0.002322 -0.011305 0.005675
vn -0.240968 -0.952013 -0.188698
v 0.004544 -0.008903 -0.009281
vn 0.290591 -0.916042 0.276449
v 0.026513 -0.008849 0.000979
vn 0.290591 -0.916042 0.276449
v 0.013746 -0.011158 0.006748
vn 0.290591 -0.916042 0.276449
v 0.022513 -0.011689 -0.004227
vn 0.374064 0.662600 -0.648874
v 0.026513 -0.008849 0.000979
vn 0.374064 0.662600 -0.648874
v 0.022513 -0.011689 -0.004227
vn 0.374064 0.662600 -0.648874
v 0.010202 -0.009417 -0.009004
vn 0.256499 -0.948046 0.188193
v 0.022827 -0.008447 0.008028
vn 0.256499 -0.948046 0.188193
v 0.013746 -0.011158 0.006748
vn 0.256499 -0.948046 0.188193
v 0.026513 -0.008849 0.000979
vn -0.040039 0.244501 -0.968822
v 0.022458 0.010823 -0.009432
vn -0.040039 0.244501 -0.968822
v 0.002395 0.005798 -0.009871
vn -0.040039 0.244501 -0.968822
v 0.002395 0.010862 -0.008593
vn -0.999943 -0.002601 0.010308
v 0.002395 0.005798 -0.009871
vn -0.999943 -0.002601 0.010308
v 0.002548 0.010057 0.006046
vn -0.999943 -0.002601 0.010308
v 0.002395 0.010862 -0.008593
vn 0.963508 -0.047065 0.263511
v 0.011185 0.006183 -0.009812
vn 0.963508 -0.047065 0.263511
v 0.007633 -0.006642 0.000885
vn 0.963508 -0.047065 0.263511
v 0.010202 -0.009417 -0.009004
vn -0.143295 0.942565 -0.301723
v 0.007633 -0.006642 0.000885
vn -0.143295 0.942565 -0.301723
v 0.023643 -0.007203 -0.008471
vn -0.143295 0.942565 -0.301723
v 0.010202 -0.009417 -0.009004
vn 0.585381 0.620248 0.522132
v 0.004365 -0.000268 0.007637
vn 0.585381 0.620248 0.522132
v 0.010413 -0.006157 0.007852
vn 0.585381 0.620248 0.522132
v 0.006302 0.002996 0.001588
vn -0.134779 -0.174031 -0.975473
v 0.004365 -0.000268 0.007637
vn -0.134779 -0.174031 -0.975473
v 0.002548 0.010057 0.006046
vn -0.134779 -0.174031 -0.975473
v 0.010413 -0.006157 0.007852
# 144 vertices, 0 vertices normals

f 1//1 2//2 3//3
f 4//4 5//5 6//6
f 7//7 8//8 9//9
f 10//10 11//11 12//12
f 13//13 14//14 15//15
f 16//16 17//17 18//18
f 19//19 20//20 21//21
f 22//22 23//23 24//24
f 25//25 26//26 27//27
f 28//28 29//29 30//30
f 31//31 32//32 33//33
f 34//34 35//35 36//36
f 37//37 38//38 39//39
f 40//40 41//41 42//42
f 43//43 44//44 45//45
f 46//46 47//47 48//48
f 49//49 50//50 51//51
f 52//52 53//53 54//54
f 55//55 56//56 57//57
f 58//58 59//59 60//60
f 61//61 62//62 63//63
f 64//64 65//65 66//66
f 67//67 68//68 69//69
f 70//70 71//71 72//72
f 73//73 74//74 75//75
f 76//76 77//77 78//78
f 79//79 80//80 81//81
f 82//82 83//83 84//84
f 85//85 86//86 87//87
f 88//88 89//89 90//90
f 91//91 92//92 93//93
f 94//94 95//95 96//96
f 97//97 98//98 99//99
f 100//100 101//101 102//102
f 103//103 104//104 105//105
f 106//106 107//107 108//108
f 109//109 110//110 111//111
f 112//112 113//113 114//114
f 115//115 116//116 117//117
f 118//118 119//119 120//120
f 121//121 122//122 123//123
f 124//124 125//125 126//126
f 127//127 128//128 129//129
f 130//130 131//131 132//132
f 133//133 134//134 135//135
f 136//136 137//137 138//138
f 139//139 140//140 141//141
f 142//142 143//143 144//144
# 48 faces, 0 coords texture

# End of File