ply
format ascii 1.0
comment native PCL export
element vertex 565
property float x
property float y
property float z
property uchar red
property uchar green
property uchar blue
property uchar alpha
element face 1126
property list uchar int vertex_indices
end_header
0.10544 0.007812 0.1087 0 0 0 255
0.10543 0.007818 0.1087 0 0 0 255
0.00763 0.03227 -0.1232 0 0 0 255
0.04604 0.03901 0.0416 0 0 0 255
0.05879 0.03358 0.0732 0 0 0 255
0.05288 0.04006 0.0749 0 0 0 255
-0.03305 0.03006 -0.1296 0 0 0 255
0.025117 -0.0315 0.0536 0 0 0 255
0.01463 0.03904 -0.1214 0 0 0 255
0.039535 0.04058 0.0552 0 0 0 255
0.05364 0.1368 0.0671 0 0 0 255
0.08933 0.02409 -0.1231 0 0 0 255
0.04456 0.01096 0.013 0 0 0 255
0.07796 0.1368 0.0626 0 0 0 255
0.07484 0.1415 0.0652 0 0 0 255
0.0816 0.01696 0.1108 0 0 0 255
0.08718 0.04125 0.0427 0 0 0 255
0.01373 -0.03073 0.053 0 0 0 255
0.01453 -0.02994 0.0546 0 0 0 255
0.0233 0.03514 -0.0589 0 0 0 255
0.06247 0.02688 0.1047 0 0 0 255
0.08315 0.04244 0.0382 0 0 0 255
0.08311 0.04321 0.0443 0 0 0 255
0.08937 0.04263 0.0512 0 0 0 255
0.031831 0.03687 0.0701 0 0 0 255
0.036321 -0.03074 0.0508 0 0 0 255
0.05043 0.1425 0.0538 0 0 0 255
0.04478 0.04213 0.0675 0 0 0 255
0.06882 0.1379 0.0413 0 0 0 255
0.06514 0.1064 0.0398 0 0 0 255
0.00251 0.02896 0.0528 0 0 0 255
-0.03844 0.02613 0.056 0 0 0 255
0.05783 0.04651 0.0424 0 0 0 255
-0.0677 0.01304 0.0528 0 0 0 255
-0.06159 0.02077 0.0526 0 0 0 255
-0.02888 -0.03036 -0.13081 0 0 0 255
0.1496 0.0118 0.1095 0 0 0 255
0.13192 0.01637 0.1094 0 0 0 255
0.07954 0.06084 0.0651 0 0 0 255
0.06621 0.1433 0.0659 0 0 0 255
0.058 0.1436 0.0483 0 0 0 255
0.05359 0.04597 0.0442 0 0 0 255
-0.06387 -0.02238 0.0558 0 0 0 255
-0.00506999 -0.03232 0.0682 0 0 0 255
0.0699 0.1367 0.0697 0 0 0 255
0.07552 0.1331 0.0662 0 0 0 255
0.1354 0.02231 0.1007 0 0 0 255
0.08333 0.02394 -0.0773 0 0 0 255
-0.02814 -0.03576 -0.0842 0 0 0 255
0.12627 -0.01611 0.1029 0 0 0 255
0.11899 0.01856 0.0739 0 0 0 255
-0.03414 -0.02137 -0.1265 0 0 0 255
-0.00859999 -0.02458 0.0995 0 0 0 255
-0.04005 -0.01721 -0.074 0 0 0 255
-0.0671 -0.01823 0.0839 0 0 0 255
-0.0716 -0.011 0.0743 0 0 0 255
0.02157 -0.01216 0.113 0 0 0 255
0.0894 0.02351 -0.0895 0 0 0 255
-0.03029 -0.03381 -0.0688 0 0 0 255
0.00153 -0.00954 0.1099 0 0 0 255
0.00547 0.02895 -0.1181 0 0 0 255
0.08649 0.04083 0.067 0 0 0 255
0.05381 0.1289 0.0442 0 0 0 255
-0.02692 0.03295 -0.13316 0 0 0 255
-0.03493 -0.01003 -0.13213 0 0 0 255
-0.03231 -0.02806 -0.0616 0 0 0 255
0.08199 0.08007 0.0486 0 0 0 255
0.04971 0.1331 0.0529 0 0 0 255
0.08554 -0.01377 -0.0794 0 0 0 255
0.043674 -0.01281 0.1132 0 0 0 255
0.1371 -0.00607999 0.1112 0 0 0 255
0.027951 -0.02813 -0.0581 0 0 0 255
0.0783 0.000852303 0.05 0 0 0 255
0.08785 -0.02136 -0.0907 0 0 0 255
0.02368 0.02797 -0.13306 0 0 0 255
0.09317 0.008867 0.1135 0 0 0 255
0.08581 -0.001747 0.1144 0 0 0 255
-0.04712 -0.01648 0.0436 0 0 0 255
0.0684 0.06729 0.0699 0 0 0 255
-0.01547 0.04128 -0.0815 0 0 0 255
0.026702 -0.0138 0.0102 0 0 0 255
0.043593 -0.006659 0.0102 0 0 0 255
0.07658 0.03639 -0.0992 0 0 0 255
0.08391 0.03214 -0.1218 0 0 0 255
0.030961 0.01188 -0.000300003 0 0 0 255
0.1588 0.01228 0.0963 0 0 0 255
0.1567 0.01137 0.0859 0 0 0 255
0.06863 0.04165 0.0776 0 0 0 255
0.13105 0.02253 0.0844 0 0 0 255
0.1442 -0.01472 0.0927 0 0 0 255
0.1562 -0.00673799 0.0874 0 0 0 255
0.13224 -0.01101 0.0775 0 0 0 255
0.05181 -0.02444 -0.0626 0 0 0 255
0.06522 -0.01733 -0.0643 0 0 0 255
0.07516 -0.02574 -0.0758 0 0 0 255
-0.0718 0.01181 0.0762 0 0 0 255
-0.05842 -0.00906901 0.0429 0 0 0 255
0.0638 0.02896 -0.0658 0 0 0 255
-0.02789 0.03592 -0.1277 0 0 0 255
0.08319 -0.0265 -0.0985 0 0 0 255
0.0346882 -0.008151 0.00389999 0 0 0 255
-0.04481 0.02432 0.0872 0 0 0 255
0.08753 -0.02198 -0.1178 0 0 0 255
0.04975 -0.002297 0.0238 0 0 0 255
0.07548 -0.02276 0.0532 0 0 0 255
0.08106 0.0416 0.0347 0 0 0 255
0.08871 -0.01542 -0.1273 0 0 0 255
0.08694 0.0296 -0.0937 0 0 0 255
0.0678 0.1437 0.0468 0 0 0 255
0.06221 0.04019 0.03 0 0 0 255
-0.067 0.01789 0.0832 0 0 0 255
-0.03915 0.03015 -0.0851 0 0 0 255
-0.03336 0.03473 -0.0663 0 0 0 255
-0.00122 0.03891 -0.0616 0 0 0 255
0.01154 0.03274 0.0949 0 0 0 255
0.0572 0.04122 0.0751 0 0 0 255
0.1602 0.00250401 0.0899 0 0 0 255
0.06359 -0.02407 0.0471 0 0 0 255
0.06038 -0.02959 -0.1304 0 0 0 255
0.08418 -0.005448 -0.13163 0 0 0 255
0.06454 0.03791 0.0407 0 0 0 255
0.12804 0.00741901 0.0708 0 0 0 255
0.09192 0.005095 -0.091 0 0 0 255
0.09161 0.007029 -0.1242 0 0 0 255
-0.02434 0.01677 -0.13544 0 0 0 255
-0.02047 -0.004729 0.0287 0 0 0 255
0.1584 0.00547201 0.1028 0 0 0 255
0.10366 -0.004282 0.1103 0 0 0 255
0.01575 0.008265 -0.13676 0 0 0 255
0.01181 0.009062 -0.13622 0 0 0 255
0.05125 0.0466 0.0512 0 0 0 255
0.05065 0.03716 0.0728 0 0 0 255
0.038472 0.04002 0.0606 0 0 0 255
0.00962 0.0358 -0.121 0 0 0 255
0.11048 -0.02207 0.0859 0 0 0 255
0.10682 -0.01402 0.1047 0 0 0 255
0.05426 0.06833 0.0586 0 0 0 255
0.025724 0.007799 0.1158 0 0 0 255
0.0767 0.04054 0.0327 0 0 0 255
0.06833 0.0425 0.0311 0 0 0 255
0.040263 0.04077 0.067 0 0 0 255
-0.02734 0.0382 -0.0642 0 0 0 255
0.05701 0.05863 0.0658 0 0 0 255
0.05946 0.06888 0.0691 0 0 0 255
0.05787 0.1421 0.0684 0 0 0 255
-0.01715 0.03855 -0.1256 0 0 0 255
0.09256 0.03009 0.0914 0 0 0 255
0.05344 0.08584 0.046 0 0 0 255
0.04646 0.03663 0.047 0 0 0 255
0.0691 0.1103 0.0704 0 0 0 255
0.01478 0.006715 -0.1337 0 0 0 255
0.00762 0.007012 -0.1291 0 0 0 255
0.07982 0.0384 0.073 0 0 0 255
-0.03064 -0.02335 -0.13373 0 0 0 255
-0.02489 0.007224 0.0356 0 0 0 255
0.08857 0.03616 0.0571 0 0 0 255
-0.02778 -0.01885 0.0978 0 0 0 255
0.08666 0.01246 0.0569 0 0 0 255
0.08554 0.02663 0.0603 0 0 0 255
0.07685 0.08195 0.0429 0 0 0 255
0.06116 0.1339 0.0709 0 0 0 255
-0.05374 0.01167 0.0942 0 0 0 255
0.0805 0.00525 -0.0703 0 0 0 255
0.01128 0.01911 -0.0231 0 0 0 255
0.1492 -0.01108 0.1027 0 0 0 255
-0.02557 0.01505 -0.0399 0 0 0 255
0.037003 -0.003485 0.0032 0 0 0 255
0.09272 -0.01291 -0.1025 0 0 0 255
0.07528 0.04024 0.0768 0 0 0 255
0.01899 0.03199 0.1036 0 0 0 255
0.1554 -0.00962499 0.0977 0 0 0 255
0.06863 0.03895 0.0316 0 0 0 255
0.00601 -0.0333 -0.0589 0 0 0 255
-0.00712 -0.01968 0.0395 0 0 0 255
0.06282 0.04251 0.0706 0 0 0 255
0.06221 0.007567 -0.06 0 0 0 255
0.11321 0.009197 0.0681 0 0 0 255
0.114 0.003044 0.0678 0 0 0 255
0.05345 -0.03175 -0.1213 0 0 0 255
0.02356 0.04011 -0.1114 0 0 0 255
0.00241 0.03439 -0.1145 0 0 0 255
-0.01814 0.03229 -0.054 0 0 0 255
0.06667 0.05539 0.041 0 0 0 255
0.11819 -0.00501599 0.07 0 0 0 255
0.01928 -0.001197 0.1166 0 0 0 255
0.1542 0.00529601 0.1082 0 0 0 255
0.1486 0.00357401 0.1112 0 0 0 255
0.01398 0.00856 -0.13464 0 0 0 255
0.05449 0.03809 0.0755 0 0 0 255
0.04525 0.04296 0.0537 0 0 0 255
0.08498 0.05553 0.0574 0 0 0 255
0.01941 0.01468 -0.0151 0 0 0 255
0.05367 0.1042 0.0674 0 0 0 255
0.024258 0.01604 0.000800003 0 0 0 255
0.08344 0.04257 0.0402 0 0 0 255
0.000510002 0.02598 0.1018 0 0 0 255
-0.0184 0.03881 -0.0592 0 0 0 255
-0.00337 0.03501 0.0816 0 0 0 255
0.07926 0.05866 0.0459 0 0 0 255
0.05803 0.04067 0.0309 0 0 0 255
0.038722 0.0355 -0.1246 0 0 0 255
-0.02736 -0.0271 0.0572 0 0 0 255
0.05995 0.03509 0.0721 0 0 0 255
-0.0693 -0.00584901 0.0554 0 0 0 255
-0.02921 -0.02496 0.0911 0 0 0 255
0.08325 0.04217 0.0699 0 0 0 255
0.00705 0.02091 -0.1222 0 0 0 255
0.00424 0.02282 -0.1218 0 0 0 255
0.00592 0.02744 -0.1252 0 0 0 255
0.08378 0.03963 0.0704 0 0 0 255
-0.03704 0.02653 -0.1053 0 0 0 255
-0.0603 0.02461 0.0708 0 0 0 255
0.00885 0.006065 -0.13653 0 0 0 255
-0.03277 -0.007914 -0.0532 0 0 0 255
-0.03142 0.02326 -0.13431 0 0 0 255
-0.02219 0.0159 -0.0287 0 0 0 255
0.08247 -0.02328 -0.1295 0 0 0 255
0.00791 0.002948 -0.13317 0 0 0 255
0.06129 0.134 0.0405 0 0 0 255
0.032975 0.003913 -0.0022 0 0 0 255
0.05603 0.05434 0.0456 0 0 0 255
-0.03741 -0.02744 0.0824 0 0 0 255
0.08419 0.05332 0.0503 0 0 0 255
0.02131 0.006148 -0.0281 0 0 0 255
-0.00850999 -0.03407 -0.1263 0 0 0 255
0.02067 -0.03023 0.0548 0 0 0 255
0.040682 0.03842 0.0694 0 0 0 255
0.042249 -0.03184 -0.0693 0 0 0 255
0.030129 -0.03188 0.0521 0 0 0 255
0.05134 0.03867 -0.1213 0 0 0 255
0.00399 0.03483 -0.1226 0 0 0 255
0.10409 0.02333 0.1026 0 0 0 255
0.05036 0.0395 0.0348 0 0 0 255
0.01593 0.02001 0.0204 0 0 0 255
0.032004 0.01498 0.0093 0 0 0 255
-0.05035 -0.02235 0.089 0 0 0 255
0.00623 -0.02898 0.0972 0 0 0 255
0.024355 -0.03186 0.1031 0 0 0 255
0.05905 0.1428 0.0432 0 0 0 255
0.043369 0.02919 0.0515 0 0 0 255
0.026898 -0.02619 0.1066 0 0 0 255
-0.02038 -0.004476 0.0097 0 0 0 255
0.01198 0.01375 -0.13079 0 0 0 255
0.01208 0.01065 -0.1295 0 0 0 255
0.00966 0.01079 -0.1274 0 0 0 255
0.01584 0.00187 -0.13396 0 0 0 255
-0.02962 -0.01137 -0.13562 0 0 0 255
-0.03875 0.01592 0.044 0 0 0 255
0.10725 -0.004978 0.0674 0 0 0 255
0.08064 0.1048 0.05 0 0 0 255
-0.05058 -0.006349 0.0966 0 0 0 255
0.0093 0.01397 -0.1363 0 0 0 255
0.05675 0.009982 -0.13545 0 0 0 255
0.00293 -0.02927 -0.13393 0 0 0 255
0.00837 -0.03317 -0.1263 0 0 0 255
0.02209 -0.004315 -0.0199 0 0 0 255
0.035615 0.0166 -0.0536 0 0 0 255
0.01862 0.02283 -0.0503 0 0 0 255
0.00829 0.0122 -0.13217 0 0 0 255
-0.02464 0.01142 -0.0242 0 0 0 255
0.08876 -0.01415 0.0626 0 0 0 255
0.08015 -0.0149 0.0558 0 0 0 255
0.01111 -0.01791 -0.13571 0 0 0 255
0.01121 -0.009532 -0.13521 0 0 0 255
0.07681 0.143 0.0565 0 0 0 255
0.026412 0.009792 -0.00560001 0 0 0 255
0.04583 0.009898 0.0317 0 0 0 255
0.05899 -0.02661 0.0589 0 0 0 255
0.030002 -0.0174 -0.0534 0 0 0 255
-0.01334 0.01969 0.0383 0 0 0 255
-0.02537 -0.01949 0.0443 0 0 0 255
0.02148 0.004239 -0.0393 0 0 0 255
0.025364 0.004055 -0.0095 0 0 0 255
0.11057 0.01113 0.0698 0 0 0 255
0.00321 -0.0227 -0.0484 0 0 0 255
-0.00909999 -0.02595 -0.0504 0 0 0 255
-0.000459999 0.03826 -0.1115 0 0 0 255
0.02141 0.03939 -0.1216 0 0 0 255
0.00308 0.02273 0.0383 0 0 0 255
0.07034 0.01857 0.0456 0 0 0 255
0.07616 0.04259 0.0341 0 0 0 255
0.10994 0.01974 0.0741 0 0 0 255
-0.01936 0.006794 0.0194 0 0 0 255
0.10124 0.002968 0.1126 0 0 0 255
0.1349 0.00615301 0.1136 0 0 0 255
0.05475 0.05548 0.0519 0 0 0 255
0.05061 0.1315 0.0639 0 0 0 255
-0.01778 -0.01478 0.0354 0 0 0 255
0.036261 0.0315 0.1055 0 0 0 255
0.08271 0.04678 0.0471 0 0 0 255
0.07792 0.03608 0.0446 0 0 0 255
0.05055 0.04366 0.0632 0 0 0 255
0.08423 -0.02733 0.0818 0 0 0 255
0.035228 0.03893 0.0659 0 0 0 255
0.024872 0.03627 -0.1253 0 0 0 255
0.0043 0.03781 -0.1228 0 0 0 255
0.01118 -0.03237 0.0883 0 0 0 255
0.07378 0.03526 0.0704 0 0 0 255
0.07398 0.04555 0.067 0 0 0 255
0.032606 0.03249 0.0556 0 0 0 255
-0.01057 -0.01772 0.004 0 0 0 255
-0.01768 -0.01688 -0.0293 0 0 0 255
0.00973 0.0238 -0.126 0 0 0 255
0.00715 0.01399 -0.1254 0 0 0 255
0.00983 -0.00342 -0.13383 0 0 0 255
0.04896 0.03162 -0.1271 0 0 0 255
0.08648 0.03075 0.0551 0 0 0 255
0.0340468 -0.01834 0.0445 0 0 0 255
0.0816 -0.01871 0.0616 0 0 0 255
0.06141 -0.03201 -0.0892 0 0 0 255
0.05432 0.01034 0.0437 0 0 0 255
0.0742 -0.02788 -0.13019 0 0 0 255
0.08971 -0.003815 0.0586 0 0 0 255
0.01932 -0.005817 -0.13581 0 0 0 255
0.00641 -0.01243 -0.13684 0 0 0 255
0.00731 -0.005351 -0.13712 0 0 0 255
0.01452 -0.01511 -0.022 0 0 0 255
0.01373 -0.01522 -0.0405 0 0 0 255
0.01831 -0.01694 -0.049 0 0 0 255
-0.00479 0.03997 -0.1092 0 0 0 255
0.0347099 -0.03148 0.0977 0 0 0 255
0.027863 0.02699 0.1076 0 0 0 255
-0.01117 -0.01994 -0.0405 0 0 0 255
0.00353 0.0381 -0.1115 0 0 0 255
-0.00556 0.02019 0.0184 0 0 0 255
0.07185 0.03243 0.0449 0 0 0 255
0.06041 0.03845 0.0332 0 0 0 255
0.07655 0.02877 -0.13162 0 0 0 255
-0.03072 -0.009032 0.0385 0 0 0 255
-0.0395 0.003317 0.0396 0 0 0 255
-0.0692 0.00810599 0.0875 0 0 0 255
0.026627 -0.001839 0.1163 0 0 0 255
0.11065 0.004551 0.1131 0 0 0 255
0.01103 0.03899 -0.1238 0 0 0 255
-0.02449 0.0199 0.0444 0 0 0 255
0.039948 0.02905 -0.0586 0 0 0 255
0.05991 0.03857 0.0771 0 0 0 255
0.09602 -0.02187 0.075 0 0 0 255
0.01552 0.01608 -0.0341 0 0 0 255
0.07234 0.03555 -0.0784 0 0 0 255
-0.00405 0.02706 -0.0479 0 0 0 255
0.05735 -0.02961 0.0924 0 0 0 255
0.07362 0.04146 0.031 0 0 0 255
0.01747 0.02342 0.0434 0 0 0 255
0.08594 0.02363 0.0575 0 0 0 255
0.1554 0.01105 0.1051 0 0 0 255
0.03724 0.02217 0.0473 0 0 0 255
-0.02546 -0.009313 -0.0323 0 0 0 255
0.06586 0.03963 0.0796 0 0 0 255
0.0833 0.01235 -0.13174 0 0 0 255
0.04524 0.03476 0.0501 0 0 0 255
-0.02705 0.02285 -0.0497 0 0 0 255
0.01561 -0.0164 -0.0005 0 0 0 255
0.037676 0.03954 -0.1159 0 0 0 255
0.05969 0.02898 0.0454 0 0 0 255
0.08193 0.02702 0.051 0 0 0 255
0.1555 -0.00477999 0.105 0 0 0 255
0.04573 0.03579 0.0746 0 0 0 255
0.11085 0.00375 0.0686 0 0 0 255
0.04911 0.004915 0.0364 0 0 0 255
0.04906 0.1367 0.0597 0 0 0 255
0.10544 0.007774 0.1087 0 0 0 255
0.11161 0.01398 0.0704 0 0 0 255
0.08553 0.0422 0.0401 0 0 0 255
0.00328 -0.02953 0.0561 0 0 0 255
0.01853 -0.02975 0.0587 0 0 0 255
0.08305 0.04538 0.0641 0 0 0 255
0.06202 0.1426 0.0416 0 0 0 255
0.08251 0.02806 0.0647 0 0 0 255
0.0335823 -0.02924 0.0558 0 0 0 255
0.05471 -0.02532 0.103 0 0 0 255
0.05468 0.04927 0.0599 0 0 0 255
0.00148 0.03383 -0.1211 0 0 0 255
0.06258 0.04886 0.0678 0 0 0 255
0.07527 0.03207 0.0674 0 0 0 255
0.041011 -0.009405 0.0348 0 0 0 255
-0.03581 0.009942 -0.13286 0 0 0 255
0.042088 -0.02902 0.0544 0 0 0 255
0.10965 0.0104 0.0696 0 0 0 255
-0.000879997 -0.01871 -0.0318 0 0 0 255
-0.02035 -0.03434 -0.123 0 0 0 255
0.01219 -0.000586301 -0.13221 0 0 0 255
0.00146 0.03167 -0.1181 0 0 0 255
-0.00206 0.03791 -0.1149 0 0 0 255
-0.00204 0.03873 -0.1203 0 0 0 255
0.10308 0.01826 0.1076 0 0 0 255
0.08668 0.02615 0.0675 0 0 0 255
0.10911 0.01359 0.0703 0 0 0 255
0.10497 0.01984 0.072 0 0 0 255
0.040506 0.03399 0.0936 0 0 0 255
0.06195 0.03332 0.0772 0 0 0 255
0.05689 0.03888 0.0319 0 0 0 255
0.0702 -0.02384 0.0466 0 0 0 255
0.11125 0.008907 0.0683 0 0 0 255
0.04848 -0.002953 0.0376 0 0 0 255
0.00151 0.03112 0.0961 0 0 0 255
0.0340091 0.03338 0.1024 0 0 0 255
0.07694 0.04188 0.0742 0 0 0 255
0.036413 0.01457 0.0324 0 0 0 255
0.04713 0.002006 0.008 0 0 0 255
0.00363 -0.01063 -0.13745 0 0 0 255
0.0534 -0.005269 0.0433 0 0 0 255
-0.02936 0.00806999 -0.0439 0 0 0 255
-0.01949 0.02158 -0.0428 0 0 0 255
0.08253 0.03901 0.04 0 0 0 255
0.1434 0.01481 0.0794 0 0 0 255
0.01965 -0.01732 0.0377 0 0 0 255
-0.01486 -0.01405 0.0161 0 0 0 255
0.02209 0.02001 -0.13524 0 0 0 255
0.030478 0.0214 -0.13218 0 0 0 255
0.07682 0.1035 0.0437 0 0 0 255
0.10544 0.007811 0.1087 0 0 0 255
0.10497 0.005943 0.0648 0 0 0 255
-0.02622 0.001935 -0.0206 0 0 0 255
0.040267 0.007816 0.0043 0 0 0 255
0.034181 0.008929 0.0027 0 0 0 255
0.08295 0.03402 0.0645 0 0 0 255
0.08854 -0.02047 0.1035 0 0 0 255
0.04935 0.04273 0.0395 0 0 0 255
0.07704 -0.02833 -0.1221 0 0 0 255
0.05749 0.04674 0.0647 0 0 0 255
0.04904 -0.0205 0.046 0 0 0 255
0.04975 0.03876 0.0734 0 0 0 255
0.01986 -0.03161 0.0492 0 0 0 255
0.05026 0.009451 0.1156 0 0 0 255
0.04423 0.04077 0.0488 0 0 0 255
0.10642 -0.0138 0.0712 0 0 0 255
0.06885 0.03104 0.0701 0 0 0 255
0.07946 0.02883 0.071 0 0 0 255
0.09183 0.02096 0.0643 0 0 0 255
0.01006 0.03838 -0.1153 0 0 0 255
-0.02189 -0.02122 -0.0486 0 0 0 255
0.040786 -0.03347 0.0695 0 0 0 255
0.10391 0.008585 0.1112 0 0 0 255
0.00741 -0.02483 0.0468 0 0 0 255
0.02307 -0.007421 -0.0471 0 0 0 255
0.00673 0.02244 -0.0421 0 0 0 255
0.036719 -0.02327 -0.13426 0 0 0 255
0.0237 0.007338 -0.0469 0 0 0 255
0.02081 -0.00479 -0.0379 0 0 0 255
-0.01607 0.01506 0.0138 0 0 0 255
0.05287 0.1426 0.0614 0 0 0 255
0.07455 -0.02435 0.0636 0 0 0 255
-0.02778 0.03062 -0.0559 0 0 0 255
-0.00175 0.02125 -0.029 0 0 0 255
-0.01039 -0.01723 0.0282 0 0 0 255
-0.01871 0.01426 0.0342 0 0 0 255
0.00169 -0.01876 0.016 0 0 0 255
-0.04095 0.02364 -0.0779 0 0 0 255
0.10377 0.01079 0.0651 0 0 0 255
0.06921 0.037 -0.1293 0 0 0 255
0.07762 0.1051 0.0653 0 0 0 255
0.00474 0.02211 -0.1251 0 0 0 255
0.00581 0.01329 -0.1281 0 0 0 255
0.08994 0.04184 0.0607 0 0 0 255
0.025098 0.03679 0.0693 0 0 0 255
0.03608 0.03637 0.0722 0 0 0 255
0.04945 0.03193 0.0995 0 0 0 255
0.00338 -0.02871 0.0526 0 0 0 255
0.11585 0.01153 0.1127 0 0 0 255
0.08546 0.04092 0.0389 0 0 0 255
0.08992 0.044 0.0566 0 0 0 255
0.05094 0.1109 0.0614 0 0 0 255
0.07599 0.03011 0.0672 0 0 0 255
0.01065 0.01248 -0.13309 0 0 0 255
0.11001 0.006999 0.0688 0 0 0 255
-0.0718 -0.00208001 0.0845 0 0 0 255
-0.03642 0.01731 -0.0595 0 0 0 255
-0.04303 0.00477999 -0.0829 0 0 0 255
-0.03712 0.007754 -0.121 0 0 0 255
0.0340539 -0.004359 -0.0521 0 0 0 255
0.00261 0.04034 -0.1057 0 0 0 255
0.06479 -0.02118 0.0445 0 0 0 255
0.03592 -0.02948 0.0594 0 0 0 255
0.10651 0.00279 0.0656 0 0 0 255
-0.00623 0.03652 -0.0567 0 0 0 255
0.05858 0.08438 0.0402 0 0 0 255
0.1597 -0.00391499 0.096 0 0 0 255
0.02342 0.03393 0.1022 0 0 0 255
0.04534 0.01185 0.0399 0 0 0 255
0.00888 0.02706 -0.05 0 0 0 255
0.08516 0.02465 -0.13008 0 0 0 255
0.07938 0.1341 0.0539 0 0 0 255
0.07568 0.1406 0.0467 0 0 0 255
0.04956 0.005559 0.0224 0 0 0 255
0.01945 0.01198 -0.0411 0 0 0 255
0.00212 0.001419 -0.138 0 0 0 255
0.01819 0.003197 -0.13602 0 0 0 255
-0.01699 -0.02693 -0.13504 0 0 0 255
0.024774 -0.00867 -0.0068 0 0 0 255
-0.0698 0.01593 0.0626 0 0 0 255
0.0661 -0.02709 -0.13191 0 0 0 255
-0.0332 0.03684 -0.0872 0 0 0 255
-0.03832 -0.02474 -0.0909 0 0 0 255
-0.01565 0.01953 -0.0236 0 0 0 255
0.00539 0.01007 0.1115 0 0 0 255
-0.02682 0.03559 -0.0577 0 0 0 255
0.05856 -0.02739 -0.0682 0 0 0 255
0.1529 0.01668 0.1021 0 0 0 255
0.1514 0.01899 0.092 0 0 0 255
0.01399 0.01897 -0.0427 0 0 0 255
0.0759 -0.01807 -0.13261 0 0 0 255
0.08093 0.03278 -0.0845 0 0 0 255
0.0443 -0.000780899 0.00460001 0 0 0 255
0.01296 -0.03055 -0.13316 0 0 0 255
0.035029 -0.03166 -0.13035 0 0 0 255
0.06038 0.09247 0.0707 0 0 0 255
0.06712 0.03836 -0.1158 0 0 0 255
0.036204 0.04044 -0.0789 0 0 0 255
0.08798 -0.01303 0.1098 0 0 0 255
-0.03402 0.02871 -0.0598 0 0 0 255
0.1132 -0.00621199 0.1111 0 0 0 255
-0.03655 0.02203 -0.1283 0 0 0 255
0.0765 0.1232 0.0448 0 0 0 255
0.1499 0.00265601 0.0783 0 0 0 255
-0.0682 -0.00341501 0.0902 0 0 0 255
-0.00918 0.03004 -0.13396 0 0 0 255
0.07993 0.1111 0.059 0 0 0 255
-0.02134 -0.03473 -0.0602 0 0 0 255
0.05873 0.03312 -0.13119 0 0 0 255
0.05249 0.1417 0.0471 0 0 0 255
0.0054 0.01374 -0.1257 0 0 0 255
0.00851 0.02903 -0.122 0 0 0 255
0.032822 -0.03085 0.1044 0 0 0 255
-0.0686 -0.01999 0.0669 0 0 0 255
0.01457 -0.02536 0.1046 0 0 0 255
-0.05983 0.00873799 0.0439 0 0 0 255
0.05778 0.06272 0.0419 0 0 0 255
0.05792 0.1382 0.0415 0 0 0 255
0.08202 0.04103 0.0728 0 0 0 255
-0.06343 -0.02487 0.0737 0 0 0 255
-0.01182 -0.0182 -0.0227 0 0 0 255
0.05665 0.1113 0.0416 0 0 0 255
0.10367 0.02481 0.0776 0 0 0 255
-0.04874 -0.02761 0.0687 0 0 0 255
0.01952 0.03603 0.0636 0 0 0 255
-0.05363 -0.02317 0.0501 0 0 0 255
-0.00507999 -0.03774 -0.0816 0 0 0 255
-0.02948 -0.03138 -0.1185 0 0 0 255
-0.00218 0.03941 -0.1229 0 0 0 255
0.01656 0.03657 -0.13093 0 0 0 255
0.0532 0.03718 0.0418 0 0 0 255
0.030763 -0.02955 0.047 0 0 0 255
0.02325 -0.0279 0.0458 0 0 0 255
0.06143 0.0432 0.0399 0 0 0 255
-0.03054 0.03577 -0.1055 0 0 0 255
0.06793 -0.01325 0.0445 0 0 0 255
-0.02234 0.03282 0.0714 0 0 0 255
0.04438 0.04064 0.0705 0 0 0 255
0.05974 0.04245 0.0328 0 0 0 255
0.08904 0.03713 0.05 0 0 0 255
0.06319 -0.02969 0.0654 0 0 0 255
0.07077 0.03812 0.0771 0 0 0 255
0.04714 -0.02712 0.0517 0 0 0 255
0.07435 0.04354 0.0418 0 0 0 255
0.09104 0.02352 -0.1049 0 0 0 255
0.07427 -0.01814 0.0473 0 0 0 255
0.09607 -0.02309 0.096 0 0 0 255
0.00889 0.02386 -0.1269 0 0 0 255
0.01208 0.009149 -0.13521 0 0 0 255
-0.0322 0.03264 -0.1223 0 0 0 255
0.04493 -0.01005 0.0426 0 0 0 255
0.028524 0.003893 -0.1376 0 0 0 255
0.04575 0.03686 0.0715 0 0 0 255
0.0058 0.03416 -0.1161 0 0 0 255
3 161 250 495
3 495 250 59
3 495 195 161
3 250 156 59
3 235 156 250
3 156 52 59
3 525 59 52
3 59 184 495
3 525 56 59
3 59 56 184
3 495 184 137
3 195 495 321
3 321 495 137
3 331 184 56
3 331 137 184
3 56 525 240
3 169 195 321
3 161 515 250
3 515 161 330
3 56 240 69
3 56 69 331
3 321 137 424
3 424 331 69
3 321 424 288
3 137 331 424
3 288 424 20
3 523 69 240
3 370 69 523
3 76 424 69
3 424 15 20
3 509 69 370
3 69 509 76
3 76 75 424
3 75 15 424
3 75 76 283
3 75 385 15
3 127 76 509
3 76 127 283
3 433 385 75
3 75 283 433
3 135 127 509
3 283 127 332
3 283 332 433
3 332 127 511
3 127 135 511
3 459 385 433
3 459 433 332
3 37 385 459
3 459 284 37
3 459 332 284
3 284 332 70
3 511 70 332
3 135 70 511
3 296 43 432
3 43 365 432
3 43 364 365
3 18 365 364
3 365 18 225
3 17 18 364
3 17 225 18
3 365 473 432
3 364 458 17
3 423 17 458
3 423 7 17
3 369 473 365
3 225 369 365
3 423 228 7
3 296 432 320
3 237 296 320
3 432 341 320
3 523 237 320
3 370 320 341
3 523 320 370
3 423 542 228
3 25 228 542
3 7 228 377
3 7 377 369
3 25 377 228
3 237 236 296
3 473 267 432
3 369 267 473
3 267 369 377
3 267 377 553
3 25 553 377
3 551 432 267
3 267 553 117
3 117 392 267
3 432 292 341
3 551 292 432
3 442 292 551
3 104 267 392
3 442 267 104
3 442 551 267
3 308 442 104
3 557 341 292
3 557 370 341
3 442 337 292
3 417 370 557
3 444 324 233
3 324 444 494
3 233 163 444
3 494 440 324
3 163 233 191
3 233 193 191
3 234 193 233
3 193 234 84
3 191 338 163
3 278 233 324
3 444 163 436
3 163 338 436
3 324 269 278
3 269 324 440
3 338 500 436
3 343 233 278
3 398 233 343
3 233 398 234
3 343 346 398
3 403 494 444
3 403 444 340
3 444 436 340
3 340 436 480
3 269 30 278
3 30 343 278
3 299 343 30
3 494 403 215
3 269 334 30
3 535 299 30
3 234 398 12
3 479 398 346
3 12 398 266
3 479 266 398
3 535 30 31
3 30 334 31
3 535 31 547
3 535 547 197
3 197 455 535
3 197 24 455
3 197 456 24
3 456 197 357
3 455 293 535
3 293 132 535
3 455 24 293
3 293 140 132
3 132 140 27
3 140 548 27
3 197 389 357
3 197 114 389
3 114 197 395
3 389 114 478
3 395 478 114
3 389 478 396
3 478 395 169
3 493 468 469
3 51 493 469
3 468 210 469
3 468 448 210
3 469 210 512
3 468 493 53
3 111 210 448
3 512 210 6
3 64 51 469
3 469 376 64
3 512 376 469
3 153 51 64
3 6 210 560
3 560 210 545
3 492 210 111
3 51 153 35
3 448 112 111
3 493 65 53
3 467 448 468
3 510 448 467
3 448 510 112
3 213 467 468
3 53 213 468
3 213 53 65
3 43 296 534
3 534 201 43
3 534 296 221
3 221 296 236
3 221 236 52
3 364 43 201
3 221 52 204
3 458 364 201
3 434 458 201
3 270 434 201
3 434 270 173
3 287 173 270
3 445 173 287
3 201 534 536
3 201 536 270
3 534 42 536
3 534 530 42
3 530 534 221
3 235 530 221
3 204 235 221
3 54 530 235
3 406 434 173
3 447 406 173
3 173 445 447
3 447 445 300
3 445 407 300
3 406 447 80
3 80 375 406
3 447 352 80
3 375 80 81
3 489 80 352
3 80 489 100
3 316 352 447
3 316 489 352
3 100 81 80
3 146 390 389
3 390 146 428
3 146 389 457
3 457 20 146
3 427 390 428
3 4 390 427
3 357 389 390
3 4 357 390
3 396 457 389
3 288 457 396
3 20 231 146
3 146 533 428
3 386 428 533
3 533 429 386
3 386 368 428
3 478 288 396
3 533 146 88
3 146 46 88
3 46 146 231
3 533 88 50
3 437 118 505
3 491 118 437
3 311 118 491
3 437 505 504
3 504 505 254
3 504 254 253
3 254 224 253
3 224 488 253
3 380 488 224
3 488 380 35
3 35 153 488
3 517 190 249
3 190 66 249
3 410 249 66
3 190 222 66
3 222 190 23
3 482 517 249
3 482 249 513
3 513 483 482
3 376 246 64
3 246 153 64
3 192 10 286
3 12 484 399
3 266 484 12
3 484 266 359
3 479 359 266
3 147 532 476
3 147 62 532
3 532 62 528
3 62 520 528
3 527 147 476
3 198 159 66
3 198 66 222
3 222 289 198
3 337 442 308
3 7 369 225
3 7 225 17
3 252 501 437
3 501 491 437
3 491 501 311
3 562 252 437
3 409 252 562
3 501 252 119
3 119 252 349
3 327 349 252
3 349 327 481
3 216 311 501
3 252 409 305
3 327 252 519
3 519 252 305
3 305 409 200
3 519 450 327
3 409 294 200
3 409 562 408
3 313 562 437
3 487 562 313
3 128 408 562
3 128 562 487
3 487 313 245
3 437 262 313
3 263 313 262
3 313 263 381
3 381 245 313
3 245 381 243
3 437 504 262
3 408 128 251
3 540 408 251
3 304 381 263
3 381 304 151
3 315 304 263
3 381 151 303
3 244 381 303
3 206 244 303
3 263 262 314
3 314 315 263
3 521 303 151
3 207 206 303
3 206 207 60
3 207 303 521
3 253 262 504
3 262 253 314
3 314 253 400
3 400 315 314
3 180 60 207
3 488 400 253
3 488 486 400
3 486 488 124
3 124 516 486
3 124 63 516
3 246 124 488
3 246 488 153
3 63 124 214
3 246 376 124
3 376 214 124
3 179 79 508
3 79 113 508
3 113 19 508
3 179 471 79
3 471 319 79
3 79 196 113
3 353 179 508
3 179 430 471
3 319 471 323
3 471 430 323
3 276 319 323
3 319 276 383
3 19 113 475
3 196 475 113
3 79 319 145
3 145 319 539
3 353 294 179
3 277 430 179
3 430 277 8
3 8 133 430
3 383 539 319
3 539 383 384
3 540 145 539
3 540 539 333
3 277 540 8
3 540 333 8
3 545 79 145
3 98 545 145
3 79 141 196
3 141 79 492
3 545 492 79
3 492 112 141
3 309 537 178
3 537 254 178
3 227 537 309
3 172 537 227
3 224 254 537
3 227 71 172
3 227 497 71
3 178 254 505
3 178 505 118
3 380 224 537
3 172 518 537
3 48 380 537
3 48 537 518
3 380 48 538
3 58 48 518
3 538 35 380
3 419 309 178
3 227 309 94
3 311 419 178
3 94 497 227
3 178 118 311
3 419 99 309
3 309 99 94
3 311 216 419
3 19 97 508
3 97 19 335
3 97 335 256
3 97 256 175
3 257 335 19
3 256 335 257
3 256 257 438
3 257 19 480
3 436 257 480
3 500 257 436
3 19 340 480
3 340 19 475
3 339 508 97
3 97 47 339
3 181 340 475
3 340 181 403
3 181 475 196
3 181 351 403
3 496 181 196
3 181 443 351
3 141 496 196
3 443 181 496
3 509 370 417
3 417 135 509
3 135 417 557
3 49 135 557
3 49 70 135
3 70 49 164
3 356 70 164
3 182 29 159
3 29 182 476
3 182 159 198
3 29 410 159
3 527 476 182
3 476 532 29
3 32 527 182
3 182 198 554
3 554 198 289
3 410 29 513
3 218 29 532
3 29 28 513
3 29 218 28
3 528 218 532
3 218 367 28
3 218 528 367
3 38 149 78
3 149 38 451
3 190 451 38
3 451 190 517
3 298 38 78
3 38 298 366
3 38 366 190
3 454 190 366
3 45 451 517
3 44 149 451
3 149 44 160
3 451 45 44
3 13 45 517
3 482 13 517
3 45 14 44
3 14 45 13
3 149 506 78
3 506 143 78
3 192 143 506
3 506 149 160
3 192 506 160
3 192 160 10
3 160 144 10
3 147 136 462
3 462 136 192
3 142 192 136
3 285 136 147
3 285 147 220
3 220 147 527
3 371 136 285
3 371 142 136
3 130 371 285
3 420 142 371
3 130 285 220
3 147 462 67
3 147 67 62
3 462 192 286
3 462 360 67
3 286 360 462
3 67 520 62
3 67 26 520
3 26 67 360
3 241 282 413
3 282 259 413
3 282 440 259
3 241 125 282
3 282 446 440
3 282 125 154
3 154 446 282
3 259 402 413
3 413 402 347
3 259 165 402
3 165 259 215
3 347 402 213
3 213 402 467
3 175 470 93
3 470 175 256
3 93 470 268
3 93 268 92
3 256 438 470
3 470 438 435
3 435 268 470
3 92 268 71
3 71 268 318
3 318 268 435
3 134 89 49
3 89 164 49
3 49 557 134
3 134 557 292
3 164 89 170
3 89 90 170
3 183 121 514
3 121 405 514
3 50 405 121
3 177 121 183
3 176 50 121
3 176 121 177
3 362 50 176
3 281 50 362
3 362 273 281
3 281 273 387
3 387 273 465
3 273 358 465
3 358 248 465
3 248 358 183
3 474 465 248
3 474 248 312
3 474 312 412
3 412 312 449
3 312 157 449
3 157 429 449
3 131 357 202
3 4 202 357
3 294 277 179
3 342 139 280
3 342 280 105
3 243 150 245
3 487 245 150
3 152 529 168
3 529 152 209
3 161 195 101
3 395 101 195
3 110 161 101
3 110 330 161
3 169 395 195
3 428 463 427
3 463 202 427
3 548 226 422
3 563 422 226
3 422 5 548
3 5 422 336
3 188 336 422
3 540 74 408
3 16 23 404
3 326 109 171
3 391 109 326
3 209 61 205
3 493 538 48
3 493 51 538
3 538 51 35
3 493 48 58
3 58 65 493
3 102 99 419
3 102 73 99
3 419 216 102
3 102 216 106
3 73 94 99
3 94 73 68
3 206 522 243
3 243 244 206
3 60 522 206
3 522 60 564
3 564 133 522
3 37 46 231
3 37 231 385
3 36 46 37
3 37 284 36
3 46 36 498
3 345 498 36
3 407 347 301
3 241 347 407
3 241 413 347
3 407 125 241
3 125 407 287
3 445 287 407
3 431 301 347
3 213 431 347
3 89 134 91
3 91 134 337
3 426 91 337
3 426 183 91
3 426 248 183
3 514 91 183
3 90 91 514
3 89 91 90
3 248 426 260
3 260 312 248
3 134 292 337
3 308 426 337
3 308 260 426
3 279 546 310
3 279 72 546
3 401 310 546
3 401 546 472
3 421 401 472
3 72 556 546
3 401 421 561
3 561 421 307
3 279 310 354
3 310 239 354
3 72 279 355
3 346 239 310
3 354 325 279
3 325 355 279
3 239 346 299
3 354 239 350
3 290 355 325
3 354 120 325
3 325 120 290
3 101 197 211
3 197 101 395
3 211 197 547
3 31 211 547
3 110 101 211
3 31 34 211
3 434 406 307
3 434 307 543
3 543 423 434
3 543 307 542
3 543 542 423
3 434 423 458
3 375 307 406
3 542 307 421
3 553 542 421
3 307 375 561
3 553 25 542
3 447 379 316
3 447 531 379
3 447 300 531
3 300 301 531
3 301 300 407
3 317 316 379
3 379 531 322
3 322 531 301
3 317 379 274
3 274 379 322
3 431 322 301
3 275 274 322
3 431 275 322
3 71 274 172
3 274 71 318
3 274 318 317
3 172 274 275
3 518 172 275
3 275 431 518
3 65 518 431
3 123 122 167
3 555 122 123
3 555 57 122
3 123 167 106
3 11 555 123
3 481 11 123
3 57 555 107
3 83 555 11
3 122 68 167
3 57 47 122
3 167 68 73
3 102 167 73
3 102 106 167
3 47 57 107
3 68 122 162
3 122 47 162
3 72 355 157
3 312 72 157
3 157 355 344
3 429 157 344
3 158 429 344
3 306 344 355
3 550 306 355
3 355 290 550
3 72 312 261
3 261 312 260
3 261 556 72
3 260 308 261
3 162 93 68
3 162 175 93
3 93 94 68
3 97 175 162
3 47 97 162
3 507 508 82
3 508 507 229
3 508 339 82
3 229 353 508
3 339 502 82
3 82 83 507
3 83 82 107
3 450 229 507
3 450 507 83
3 107 82 502
3 440 494 215
3 440 215 259
3 316 439 255
3 317 439 316
3 435 439 317
3 318 435 317
3 316 255 489
3 20 15 385
3 385 231 20
3 156 235 204
3 204 52 156
3 525 52 236
3 237 525 236
3 237 240 525
3 237 523 240
3 142 143 192
3 242 558 464
3 302 558 242
3 464 187 242
3 513 249 410
3 516 145 540
3 63 145 516
3 145 63 98
3 382 452 372
3 382 207 452
3 383 382 372
3 103 375 81
3 81 399 103
3 394 375 103
3 103 399 484
3 484 359 103
3 394 103 359
3 212 217 315
3 180 207 382
3 559 212 129
3 77 270 536
3 202 4 427
3 460 105 363
3 363 16 460
3 251 128 129
3 457 288 20
3 220 527 32
3 32 41 220
3 3 425 418
3 93 497 94
3 93 92 497
3 497 92 71
3 229 450 519
3 305 229 519
3 229 305 200
3 200 353 229
3 294 353 200
3 298 174 397
3 298 373 174
3 420 174 373
3 298 397 205
3 205 366 298
3 174 420 291
3 115 174 291
3 115 87 174
3 348 87 115
3 348 168 87
3 168 397 87
3 27 115 291
3 115 27 548
3 5 115 548
3 297 336 202
3 552 336 297
3 336 552 348
3 202 374 297
3 552 168 348
3 552 297 152
3 168 552 152
3 297 416 152
3 297 374 416
3 416 209 152
3 158 155 416
3 416 368 158
3 454 416 155
3 454 61 416
3 209 416 61
3 463 368 416
3 374 463 416
3 558 208 258
3 558 258 464
3 464 258 559
3 2 208 558
3 2 230 208
3 295 230 2
3 202 463 374
3 400 486 315
3 107 555 83
3 295 133 333
3 295 333 539
3 384 295 539
3 358 176 177
3 176 358 393
3 358 273 393
3 393 273 362
3 524 530 54
3 524 42 530
3 446 269 440
3 50 88 405
3 281 533 50
3 98 63 6
3 545 98 560
3 560 98 6
3 522 302 243
3 242 243 302
3 150 243 242
3 150 242 187
3 159 410 66
3 452 207 453
3 207 521 453
3 453 521 151
3 151 217 453
3 388 449 429
3 449 388 387
3 429 533 388
3 281 388 533
3 281 387 388
3 117 553 421
3 117 421 472
3 392 117 472
3 289 22 554
3 22 289 23
3 10 144 441
3 401 359 310
3 359 401 394
3 359 479 310
3 401 561 394
3 485 438 257
3 3 418 232
3 247 34 31
3 34 247 526
3 526 247 329
3 247 31 334
3 154 247 334
3 329 247 154
3 334 446 154
3 446 334 269
3 349 123 119
3 106 119 123
3 119 106 501
3 106 216 501
3 123 349 481
3 96 203 526
3 526 203 33
3 34 526 33
3 34 33 490
3 203 96 42
3 404 120 171
3 404 290 120
3 138 404 171
3 326 171 120
3 326 120 541
3 541 391 326
3 232 391 541
3 232 541 3
3 191 272 223
3 255 223 272
3 191 265 272
3 191 223 338
3 272 489 255
3 255 439 223
3 271 223 439
3 485 338 223
3 223 271 485
3 438 271 439
3 439 435 438
3 271 438 485
3 95 203 55
3 203 95 490
3 490 33 203
3 95 55 466
3 524 55 203
3 466 330 95
3 466 55 54
3 55 524 54
3 515 466 54
3 203 42 524
3 515 330 466
3 110 95 330
3 139 549 554
3 544 554 549
3 280 139 554
3 280 554 194
3 554 22 194
3 21 280 194
3 280 21 105
3 21 363 105
3 363 21 194
3 22 16 194
3 16 363 194
3 208 452 258
3 452 453 258
3 217 258 453
3 212 258 217
3 452 208 372
3 230 372 208
3 540 251 516
3 251 486 516
3 526 329 96
3 328 96 329
3 96 328 77
3 96 77 536
3 270 77 328
3 154 328 329
3 467 402 351
3 351 402 165
3 351 510 467
3 510 351 443
3 510 443 496
3 130 418 425
3 41 418 130
3 189 130 425
3 220 41 130
3 189 291 130
3 371 130 291
3 189 9 291
3 425 9 189
3 291 9 132
3 371 291 420
3 27 291 132
3 441 39 108
3 40 441 108
3 108 39 264
3 26 441 40
3 367 40 108
3 39 441 144
3 238 40 367
3 520 26 40
3 238 520 40
3 490 95 211
3 211 95 110
3 490 211 34
3 78 373 298
3 373 78 143
3 143 142 373
3 514 405 86
3 86 116 514
3 116 86 85
3 90 514 116
3 116 477 90
3 46 499 88
3 405 88 499
3 498 499 46
3 512 214 376
3 214 512 6
3 6 63 214
3 116 85 126
3 126 477 116
3 477 126 356
3 345 126 85
3 170 477 356
3 299 346 343
3 112 492 111
3 489 219 166
3 489 272 219
3 100 489 166
3 219 415 166
3 265 219 272
3 415 414 166
3 265 84 219
3 84 415 219
3 403 165 215
3 165 403 351
3 356 186 70
3 284 70 186
3 36 284 186
3 185 186 356
3 185 36 186
3 310 479 346
3 109 549 139
3 549 109 199
3 232 549 199
3 115 336 348
3 404 138 105
3 138 171 342
3 232 199 391
3 2 558 302
3 522 2 302
3 342 105 138
3 336 115 5
3 168 529 397
3 2 522 133
3 487 150 187
3 387 465 378
3 171 109 139
3 187 128 487
3 205 397 529
3 105 460 404
3 133 8 333
3 404 460 16
3 171 139 342
3 563 357 131
3 362 176 393
3 391 199 109
3 187 464 559
3 205 529 209
3 559 128 187
3 128 559 129
3 361 0 1
3 361 411 0
3 361 1 411
3 0 411 1
3 188 202 336
3 202 188 131
3 422 131 188
3 131 422 563
3 212 486 251
3 129 212 251
3 23 550 404
3 304 315 217
3 304 217 151
3 373 142 420
3 486 212 315
3 243 381 244
3 9 299 132
3 549 232 418
3 61 454 366
3 205 61 366
3 556 392 546
3 10 441 286
3 286 441 360
3 392 556 104
3 425 3 148
3 294 540 277
3 472 546 392
3 141 112 496
3 415 84 234
3 23 16 22
3 528 520 238
3 528 238 367
3 372 384 383
3 183 358 177
3 428 368 463
3 295 384 372
3 230 295 372
3 133 564 430
3 360 441 26
3 212 559 258
3 133 295 2
3 383 180 382
3 541 354 350
3 541 350 148
3 148 3 541
3 541 120 354
3 431 213 65
3 210 492 545
3 328 154 125
3 125 287 328
3 42 96 536
3 299 535 132
3 86 499 85
3 498 85 499
3 85 498 345
3 482 483 264
3 13 482 264
3 108 264 483
3 264 14 13
3 14 264 39
3 155 23 454
3 550 23 155
3 306 550 155
3 155 158 306
3 344 306 158
3 235 250 54
3 54 250 515
3 513 28 483
3 399 414 12
3 414 399 503
3 399 81 503
3 39 144 160
3 39 160 44
3 44 14 39
3 182 544 32
3 32 544 418
3 32 418 41
3 502 47 107
3 339 47 502
3 74 540 294
3 74 294 409
3 408 74 409
3 185 356 126
3 126 345 185
3 36 185 345
3 450 83 327
3 327 83 481
3 191 193 265
3 84 265 193
3 299 9 239
3 9 350 239
3 9 425 350
3 350 425 148
3 405 499 86
3 87 397 174
3 24 226 293
3 226 24 456
3 293 226 140
3 548 140 226
3 226 456 563
3 456 357 563
3 321 288 478
3 321 478 169
3 461 23 190
3 190 454 461
3 461 454 23
3 12 414 234
3 415 234 414
3 287 270 328
3 485 257 500
3 549 418 544
3 323 430 564
3 564 180 323
3 276 323 180
3 564 60 180
3 180 383 276
3 166 414 503
3 108 483 28
3 367 108 28
3 182 554 544
3 518 65 58
3 290 404 550
3 261 104 556
3 104 261 308
3 23 289 222
3 412 449 378
3 412 378 474
3 378 465 474
3 449 387 378
3 83 11 481
3 561 375 394
3 477 170 90
3 112 510 496
3 503 81 166
3 81 100 166
3 485 500 338
3 356 164 170
3 429 158 386
3 368 386 158
